G04 EAGLE Gerber RS-274X export*
G75*
%MOMM*%
%FSLAX34Y34*%
%LPD*%
%IN*%
%IPPOS*%
%AMOC8*
5,1,8,0,0,1.08239X$1,22.5*%
G01*
%ADD10C,0.254000*%


D10*
X172720Y233680D02*
X172860Y230470D01*
X173280Y227285D01*
X173975Y224148D01*
X174941Y221083D01*
X176171Y218115D01*
X177654Y215265D01*
X179381Y212555D01*
X181337Y210006D01*
X183507Y207637D01*
X185876Y205467D01*
X188425Y203511D01*
X191135Y201784D01*
X193985Y200301D01*
X196953Y199071D01*
X200018Y198105D01*
X203155Y197410D01*
X206340Y196990D01*
X209550Y196850D01*
X344170Y196850D01*
X346052Y196932D01*
X347919Y197178D01*
X349758Y197586D01*
X351554Y198152D01*
X353294Y198873D01*
X354965Y199743D01*
X356554Y200755D01*
X358048Y201901D01*
X359436Y203174D01*
X360709Y204562D01*
X361856Y206057D01*
X362868Y207645D01*
X363737Y209316D01*
X364458Y211056D01*
X365024Y212852D01*
X365432Y214691D01*
X365678Y216558D01*
X365760Y218440D01*
X365760Y284480D01*
X365668Y286583D01*
X365393Y288670D01*
X364938Y290725D01*
X364305Y292733D01*
X363499Y294678D01*
X362527Y296545D01*
X361396Y298320D01*
X360115Y299990D01*
X358693Y301543D01*
X357140Y302965D01*
X355470Y304246D01*
X353695Y305377D01*
X351828Y306349D01*
X349883Y307155D01*
X347875Y307788D01*
X345820Y308243D01*
X343733Y308518D01*
X341630Y308610D01*
X205740Y308610D01*
X202862Y308484D01*
X200006Y308108D01*
X197194Y307485D01*
X194447Y306619D01*
X191785Y305516D01*
X189230Y304186D01*
X186801Y302638D01*
X184515Y300885D01*
X182391Y298939D01*
X180445Y296815D01*
X178692Y294530D01*
X177144Y292100D01*
X175814Y289545D01*
X174711Y286884D01*
X173845Y284136D01*
X173222Y281324D01*
X172846Y278468D01*
X172720Y275590D01*
X172720Y233680D01*
M02*
