G04 EAGLE Gerber RS-274X export*
G75*
%MOMM*%
%FSLAX34Y34*%
%LPD*%
%INSilkscreen Bottom*%
%IPPOS*%
%AMOC8*
5,1,8,0,0,1.08239X$1,22.5*%
G01*
%ADD10C,0.101600*%
%ADD11C,0.127000*%


D10*
X306578Y289052D02*
X306578Y297942D01*
X304109Y297942D01*
X304011Y297940D01*
X303913Y297934D01*
X303815Y297924D01*
X303718Y297911D01*
X303621Y297893D01*
X303525Y297872D01*
X303431Y297847D01*
X303337Y297818D01*
X303244Y297786D01*
X303153Y297749D01*
X303063Y297710D01*
X302975Y297666D01*
X302889Y297619D01*
X302804Y297569D01*
X302722Y297516D01*
X302642Y297459D01*
X302564Y297399D01*
X302489Y297336D01*
X302416Y297270D01*
X302346Y297201D01*
X302279Y297130D01*
X302214Y297056D01*
X302153Y296979D01*
X302094Y296900D01*
X302039Y296819D01*
X301987Y296736D01*
X301939Y296650D01*
X301894Y296563D01*
X301852Y296474D01*
X301814Y296384D01*
X301780Y296292D01*
X301749Y296199D01*
X301722Y296104D01*
X301699Y296009D01*
X301679Y295912D01*
X301664Y295816D01*
X301652Y295718D01*
X301644Y295620D01*
X301640Y295522D01*
X301640Y295424D01*
X301644Y295326D01*
X301652Y295228D01*
X301664Y295130D01*
X301679Y295034D01*
X301699Y294937D01*
X301722Y294842D01*
X301749Y294747D01*
X301780Y294654D01*
X301814Y294562D01*
X301852Y294472D01*
X301894Y294383D01*
X301939Y294296D01*
X301987Y294210D01*
X302039Y294127D01*
X302094Y294046D01*
X302153Y293967D01*
X302214Y293890D01*
X302279Y293816D01*
X302346Y293745D01*
X302416Y293676D01*
X302489Y293610D01*
X302564Y293547D01*
X302642Y293487D01*
X302722Y293430D01*
X302804Y293377D01*
X302889Y293327D01*
X302975Y293280D01*
X303063Y293236D01*
X303153Y293197D01*
X303244Y293160D01*
X303337Y293128D01*
X303431Y293099D01*
X303525Y293074D01*
X303621Y293053D01*
X303718Y293035D01*
X303815Y293022D01*
X303913Y293012D01*
X304011Y293006D01*
X304109Y293004D01*
X304109Y293003D02*
X306578Y293003D01*
X303615Y293003D02*
X301639Y289052D01*
X297728Y295966D02*
X295259Y297942D01*
X295259Y289052D01*
X297728Y289052D02*
X292789Y289052D01*
X290068Y250879D02*
X298958Y250879D01*
X298958Y253349D01*
X298956Y253447D01*
X298950Y253545D01*
X298940Y253643D01*
X298927Y253740D01*
X298909Y253837D01*
X298888Y253933D01*
X298863Y254027D01*
X298834Y254121D01*
X298802Y254214D01*
X298765Y254305D01*
X298726Y254395D01*
X298682Y254483D01*
X298635Y254569D01*
X298585Y254654D01*
X298532Y254736D01*
X298475Y254816D01*
X298415Y254894D01*
X298352Y254969D01*
X298286Y255042D01*
X298217Y255112D01*
X298146Y255179D01*
X298072Y255244D01*
X297995Y255305D01*
X297916Y255364D01*
X297835Y255419D01*
X297752Y255471D01*
X297666Y255519D01*
X297579Y255564D01*
X297490Y255606D01*
X297400Y255644D01*
X297308Y255678D01*
X297215Y255709D01*
X297120Y255736D01*
X297025Y255759D01*
X296928Y255779D01*
X296832Y255794D01*
X296734Y255806D01*
X296636Y255814D01*
X296538Y255818D01*
X296440Y255818D01*
X296342Y255814D01*
X296244Y255806D01*
X296146Y255794D01*
X296050Y255779D01*
X295953Y255759D01*
X295858Y255736D01*
X295763Y255709D01*
X295670Y255678D01*
X295578Y255644D01*
X295488Y255606D01*
X295399Y255564D01*
X295312Y255519D01*
X295226Y255471D01*
X295143Y255419D01*
X295062Y255364D01*
X294983Y255305D01*
X294906Y255244D01*
X294832Y255179D01*
X294761Y255112D01*
X294692Y255042D01*
X294626Y254969D01*
X294563Y254894D01*
X294503Y254816D01*
X294446Y254736D01*
X294393Y254654D01*
X294343Y254569D01*
X294296Y254483D01*
X294252Y254395D01*
X294213Y254305D01*
X294176Y254214D01*
X294144Y254121D01*
X294115Y254027D01*
X294090Y253933D01*
X294069Y253837D01*
X294051Y253740D01*
X294038Y253643D01*
X294028Y253545D01*
X294022Y253447D01*
X294020Y253349D01*
X294019Y253349D02*
X294019Y250879D01*
X294019Y253843D02*
X290068Y255818D01*
X296736Y264669D02*
X296828Y264667D01*
X296920Y264661D01*
X297011Y264652D01*
X297102Y264639D01*
X297192Y264622D01*
X297282Y264601D01*
X297370Y264577D01*
X297458Y264549D01*
X297544Y264517D01*
X297629Y264482D01*
X297712Y264443D01*
X297794Y264401D01*
X297874Y264356D01*
X297952Y264307D01*
X298028Y264255D01*
X298101Y264200D01*
X298173Y264142D01*
X298242Y264082D01*
X298308Y264018D01*
X298372Y263952D01*
X298432Y263883D01*
X298490Y263811D01*
X298545Y263738D01*
X298597Y263662D01*
X298646Y263584D01*
X298691Y263504D01*
X298733Y263422D01*
X298772Y263339D01*
X298807Y263254D01*
X298839Y263168D01*
X298867Y263080D01*
X298891Y262992D01*
X298912Y262902D01*
X298929Y262812D01*
X298942Y262721D01*
X298951Y262630D01*
X298957Y262538D01*
X298959Y262446D01*
X298958Y262446D02*
X298956Y262340D01*
X298950Y262235D01*
X298940Y262130D01*
X298927Y262025D01*
X298909Y261921D01*
X298888Y261818D01*
X298863Y261715D01*
X298834Y261613D01*
X298801Y261513D01*
X298765Y261414D01*
X298725Y261316D01*
X298681Y261220D01*
X298634Y261125D01*
X298584Y261033D01*
X298530Y260942D01*
X298472Y260853D01*
X298412Y260767D01*
X298348Y260683D01*
X298282Y260601D01*
X298212Y260521D01*
X298139Y260445D01*
X298064Y260371D01*
X297986Y260300D01*
X297905Y260232D01*
X297822Y260166D01*
X297736Y260104D01*
X297649Y260046D01*
X297559Y259990D01*
X297467Y259938D01*
X297373Y259889D01*
X297278Y259844D01*
X297181Y259802D01*
X297082Y259764D01*
X296983Y259730D01*
X295007Y263927D02*
X295076Y263996D01*
X295146Y264062D01*
X295220Y264125D01*
X295296Y264184D01*
X295374Y264241D01*
X295454Y264295D01*
X295537Y264345D01*
X295621Y264392D01*
X295708Y264435D01*
X295796Y264475D01*
X295885Y264511D01*
X295976Y264544D01*
X296068Y264573D01*
X296162Y264598D01*
X296256Y264619D01*
X296351Y264637D01*
X296447Y264650D01*
X296543Y264660D01*
X296639Y264666D01*
X296736Y264668D01*
X295007Y263927D02*
X290068Y259729D01*
X290068Y264668D01*
X289052Y270002D02*
X297942Y270002D01*
X297942Y272471D01*
X297940Y272569D01*
X297934Y272667D01*
X297924Y272765D01*
X297911Y272862D01*
X297893Y272959D01*
X297872Y273055D01*
X297847Y273149D01*
X297818Y273243D01*
X297786Y273336D01*
X297749Y273427D01*
X297710Y273517D01*
X297666Y273605D01*
X297619Y273691D01*
X297569Y273776D01*
X297516Y273858D01*
X297459Y273938D01*
X297399Y274016D01*
X297336Y274091D01*
X297270Y274164D01*
X297201Y274234D01*
X297130Y274301D01*
X297056Y274366D01*
X296979Y274427D01*
X296900Y274486D01*
X296819Y274541D01*
X296736Y274593D01*
X296650Y274641D01*
X296563Y274686D01*
X296474Y274728D01*
X296384Y274766D01*
X296292Y274800D01*
X296199Y274831D01*
X296104Y274858D01*
X296009Y274881D01*
X295912Y274901D01*
X295816Y274916D01*
X295718Y274928D01*
X295620Y274936D01*
X295522Y274940D01*
X295424Y274940D01*
X295326Y274936D01*
X295228Y274928D01*
X295130Y274916D01*
X295034Y274901D01*
X294937Y274881D01*
X294842Y274858D01*
X294747Y274831D01*
X294654Y274800D01*
X294562Y274766D01*
X294472Y274728D01*
X294383Y274686D01*
X294296Y274641D01*
X294210Y274593D01*
X294127Y274541D01*
X294046Y274486D01*
X293967Y274427D01*
X293890Y274366D01*
X293816Y274301D01*
X293745Y274234D01*
X293676Y274164D01*
X293610Y274091D01*
X293547Y274016D01*
X293487Y273938D01*
X293430Y273858D01*
X293377Y273776D01*
X293327Y273691D01*
X293280Y273605D01*
X293236Y273517D01*
X293197Y273427D01*
X293160Y273336D01*
X293128Y273243D01*
X293099Y273149D01*
X293074Y273055D01*
X293053Y272959D01*
X293035Y272862D01*
X293022Y272765D01*
X293012Y272667D01*
X293006Y272569D01*
X293004Y272471D01*
X293003Y272471D02*
X293003Y270002D01*
X293003Y272965D02*
X289052Y274941D01*
X289052Y278852D02*
X289052Y281321D01*
X289054Y281419D01*
X289060Y281517D01*
X289070Y281615D01*
X289083Y281712D01*
X289101Y281809D01*
X289122Y281905D01*
X289147Y281999D01*
X289176Y282093D01*
X289208Y282186D01*
X289245Y282277D01*
X289284Y282367D01*
X289328Y282455D01*
X289375Y282541D01*
X289425Y282626D01*
X289478Y282708D01*
X289535Y282788D01*
X289595Y282866D01*
X289658Y282941D01*
X289724Y283014D01*
X289793Y283084D01*
X289864Y283151D01*
X289938Y283216D01*
X290015Y283277D01*
X290094Y283336D01*
X290175Y283391D01*
X290258Y283443D01*
X290344Y283491D01*
X290431Y283536D01*
X290520Y283578D01*
X290610Y283616D01*
X290702Y283650D01*
X290795Y283681D01*
X290890Y283708D01*
X290985Y283731D01*
X291082Y283751D01*
X291178Y283766D01*
X291276Y283778D01*
X291374Y283786D01*
X291472Y283790D01*
X291570Y283790D01*
X291668Y283786D01*
X291766Y283778D01*
X291864Y283766D01*
X291960Y283751D01*
X292057Y283731D01*
X292152Y283708D01*
X292247Y283681D01*
X292340Y283650D01*
X292432Y283616D01*
X292522Y283578D01*
X292611Y283536D01*
X292698Y283491D01*
X292784Y283443D01*
X292867Y283391D01*
X292948Y283336D01*
X293027Y283277D01*
X293104Y283216D01*
X293178Y283151D01*
X293249Y283084D01*
X293318Y283014D01*
X293384Y282941D01*
X293447Y282866D01*
X293507Y282788D01*
X293564Y282708D01*
X293617Y282626D01*
X293667Y282541D01*
X293714Y282455D01*
X293758Y282367D01*
X293797Y282277D01*
X293834Y282186D01*
X293866Y282093D01*
X293895Y281999D01*
X293920Y281905D01*
X293941Y281809D01*
X293959Y281712D01*
X293972Y281615D01*
X293982Y281517D01*
X293988Y281419D01*
X293990Y281321D01*
X297942Y281815D02*
X297942Y278852D01*
X297942Y281815D02*
X297940Y281902D01*
X297934Y281990D01*
X297925Y282077D01*
X297911Y282163D01*
X297894Y282249D01*
X297873Y282333D01*
X297848Y282417D01*
X297819Y282500D01*
X297787Y282581D01*
X297752Y282661D01*
X297713Y282739D01*
X297670Y282816D01*
X297624Y282890D01*
X297575Y282962D01*
X297523Y283032D01*
X297467Y283100D01*
X297409Y283165D01*
X297348Y283228D01*
X297284Y283287D01*
X297217Y283344D01*
X297149Y283398D01*
X297077Y283449D01*
X297004Y283496D01*
X296929Y283541D01*
X296851Y283582D01*
X296772Y283619D01*
X296692Y283653D01*
X296610Y283683D01*
X296527Y283710D01*
X296442Y283733D01*
X296357Y283752D01*
X296271Y283767D01*
X296184Y283779D01*
X296097Y283787D01*
X296010Y283791D01*
X295922Y283791D01*
X295835Y283787D01*
X295748Y283779D01*
X295661Y283767D01*
X295575Y283752D01*
X295490Y283733D01*
X295405Y283710D01*
X295322Y283683D01*
X295240Y283653D01*
X295160Y283619D01*
X295081Y283582D01*
X295003Y283541D01*
X294928Y283496D01*
X294855Y283449D01*
X294783Y283398D01*
X294715Y283344D01*
X294648Y283287D01*
X294584Y283228D01*
X294523Y283165D01*
X294465Y283100D01*
X294409Y283032D01*
X294357Y282962D01*
X294308Y282890D01*
X294262Y282816D01*
X294219Y282739D01*
X294180Y282661D01*
X294145Y282581D01*
X294113Y282500D01*
X294084Y282417D01*
X294059Y282333D01*
X294038Y282249D01*
X294021Y282163D01*
X294007Y282077D01*
X293998Y281990D01*
X293992Y281902D01*
X293990Y281815D01*
X293991Y281815D02*
X293991Y279840D01*
X240538Y294132D02*
X240538Y303022D01*
X238069Y303022D01*
X237971Y303020D01*
X237873Y303014D01*
X237775Y303004D01*
X237678Y302991D01*
X237581Y302973D01*
X237485Y302952D01*
X237391Y302927D01*
X237297Y302898D01*
X237204Y302866D01*
X237113Y302829D01*
X237023Y302790D01*
X236935Y302746D01*
X236849Y302699D01*
X236764Y302649D01*
X236682Y302596D01*
X236602Y302539D01*
X236524Y302479D01*
X236449Y302416D01*
X236376Y302350D01*
X236306Y302281D01*
X236239Y302210D01*
X236174Y302136D01*
X236113Y302059D01*
X236054Y301980D01*
X235999Y301899D01*
X235947Y301816D01*
X235899Y301730D01*
X235854Y301643D01*
X235812Y301554D01*
X235774Y301464D01*
X235740Y301372D01*
X235709Y301279D01*
X235682Y301184D01*
X235659Y301089D01*
X235639Y300992D01*
X235624Y300896D01*
X235612Y300798D01*
X235604Y300700D01*
X235600Y300602D01*
X235600Y300504D01*
X235604Y300406D01*
X235612Y300308D01*
X235624Y300210D01*
X235639Y300114D01*
X235659Y300017D01*
X235682Y299922D01*
X235709Y299827D01*
X235740Y299734D01*
X235774Y299642D01*
X235812Y299552D01*
X235854Y299463D01*
X235899Y299376D01*
X235947Y299290D01*
X235999Y299207D01*
X236054Y299126D01*
X236113Y299047D01*
X236174Y298970D01*
X236239Y298896D01*
X236306Y298825D01*
X236376Y298756D01*
X236449Y298690D01*
X236524Y298627D01*
X236602Y298567D01*
X236682Y298510D01*
X236764Y298457D01*
X236849Y298407D01*
X236935Y298360D01*
X237023Y298316D01*
X237113Y298277D01*
X237204Y298240D01*
X237297Y298208D01*
X237391Y298179D01*
X237485Y298154D01*
X237581Y298133D01*
X237678Y298115D01*
X237775Y298102D01*
X237873Y298092D01*
X237971Y298086D01*
X238069Y298084D01*
X238069Y298083D02*
X240538Y298083D01*
X237575Y298083D02*
X235599Y294132D01*
X231688Y296108D02*
X229713Y303022D01*
X231688Y296108D02*
X226749Y296108D01*
X228231Y298083D02*
X228231Y294132D01*
X264741Y213868D02*
X264741Y204978D01*
X264741Y213868D02*
X262271Y213868D01*
X262173Y213866D01*
X262075Y213860D01*
X261977Y213850D01*
X261880Y213837D01*
X261783Y213819D01*
X261687Y213798D01*
X261593Y213773D01*
X261499Y213744D01*
X261406Y213712D01*
X261315Y213675D01*
X261225Y213636D01*
X261137Y213592D01*
X261051Y213545D01*
X260966Y213495D01*
X260884Y213442D01*
X260804Y213385D01*
X260726Y213325D01*
X260651Y213262D01*
X260578Y213196D01*
X260508Y213127D01*
X260441Y213056D01*
X260376Y212982D01*
X260315Y212905D01*
X260256Y212826D01*
X260201Y212745D01*
X260149Y212662D01*
X260101Y212576D01*
X260056Y212489D01*
X260014Y212400D01*
X259976Y212310D01*
X259942Y212218D01*
X259911Y212125D01*
X259884Y212030D01*
X259861Y211935D01*
X259841Y211838D01*
X259826Y211742D01*
X259814Y211644D01*
X259806Y211546D01*
X259802Y211448D01*
X259802Y211350D01*
X259806Y211252D01*
X259814Y211154D01*
X259826Y211056D01*
X259841Y210960D01*
X259861Y210863D01*
X259884Y210768D01*
X259911Y210673D01*
X259942Y210580D01*
X259976Y210488D01*
X260014Y210398D01*
X260056Y210309D01*
X260101Y210222D01*
X260149Y210136D01*
X260201Y210053D01*
X260256Y209972D01*
X260315Y209893D01*
X260376Y209816D01*
X260441Y209742D01*
X260508Y209671D01*
X260578Y209602D01*
X260651Y209536D01*
X260726Y209473D01*
X260804Y209413D01*
X260884Y209356D01*
X260966Y209303D01*
X261051Y209253D01*
X261137Y209206D01*
X261225Y209162D01*
X261315Y209123D01*
X261406Y209086D01*
X261499Y209054D01*
X261593Y209025D01*
X261687Y209000D01*
X261783Y208979D01*
X261880Y208961D01*
X261977Y208948D01*
X262075Y208938D01*
X262173Y208932D01*
X262271Y208930D01*
X262271Y208929D02*
X264741Y208929D01*
X261777Y208929D02*
X259802Y204978D01*
X255891Y204978D02*
X252928Y204978D01*
X252839Y204980D01*
X252751Y204986D01*
X252663Y204996D01*
X252575Y205010D01*
X252488Y205028D01*
X252402Y205049D01*
X252317Y205075D01*
X252234Y205104D01*
X252151Y205137D01*
X252071Y205174D01*
X251992Y205214D01*
X251915Y205258D01*
X251839Y205305D01*
X251767Y205355D01*
X251696Y205409D01*
X251628Y205466D01*
X251562Y205526D01*
X251500Y205588D01*
X251440Y205654D01*
X251383Y205722D01*
X251329Y205793D01*
X251279Y205865D01*
X251232Y205940D01*
X251188Y206018D01*
X251148Y206097D01*
X251111Y206177D01*
X251078Y206260D01*
X251049Y206343D01*
X251023Y206428D01*
X251002Y206514D01*
X250984Y206601D01*
X250970Y206689D01*
X250960Y206777D01*
X250954Y206865D01*
X250952Y206954D01*
X250952Y207941D01*
X250954Y208027D01*
X250960Y208113D01*
X250969Y208199D01*
X250982Y208284D01*
X250999Y208369D01*
X251019Y208452D01*
X251043Y208535D01*
X251071Y208617D01*
X251102Y208697D01*
X251137Y208776D01*
X251175Y208853D01*
X251217Y208929D01*
X251261Y209003D01*
X251309Y209074D01*
X251360Y209144D01*
X251414Y209211D01*
X251471Y209276D01*
X251531Y209338D01*
X251593Y209398D01*
X251658Y209455D01*
X251725Y209509D01*
X251795Y209560D01*
X251866Y209608D01*
X251940Y209652D01*
X252016Y209694D01*
X252093Y209732D01*
X252172Y209767D01*
X252252Y209798D01*
X252334Y209826D01*
X252417Y209850D01*
X252500Y209870D01*
X252585Y209887D01*
X252670Y209900D01*
X252756Y209909D01*
X252842Y209915D01*
X252928Y209917D01*
X255891Y209917D01*
X255891Y213868D01*
X250952Y213868D01*
X246888Y214122D02*
X246888Y205232D01*
X246888Y214122D02*
X244419Y214122D01*
X244321Y214120D01*
X244223Y214114D01*
X244125Y214104D01*
X244028Y214091D01*
X243931Y214073D01*
X243835Y214052D01*
X243741Y214027D01*
X243647Y213998D01*
X243554Y213966D01*
X243463Y213929D01*
X243373Y213890D01*
X243285Y213846D01*
X243199Y213799D01*
X243114Y213749D01*
X243032Y213696D01*
X242952Y213639D01*
X242874Y213579D01*
X242799Y213516D01*
X242726Y213450D01*
X242656Y213381D01*
X242589Y213310D01*
X242524Y213236D01*
X242463Y213159D01*
X242404Y213080D01*
X242349Y212999D01*
X242297Y212916D01*
X242249Y212830D01*
X242204Y212743D01*
X242162Y212654D01*
X242124Y212564D01*
X242090Y212472D01*
X242059Y212379D01*
X242032Y212284D01*
X242009Y212189D01*
X241989Y212092D01*
X241974Y211996D01*
X241962Y211898D01*
X241954Y211800D01*
X241950Y211702D01*
X241950Y211604D01*
X241954Y211506D01*
X241962Y211408D01*
X241974Y211310D01*
X241989Y211214D01*
X242009Y211117D01*
X242032Y211022D01*
X242059Y210927D01*
X242090Y210834D01*
X242124Y210742D01*
X242162Y210652D01*
X242204Y210563D01*
X242249Y210476D01*
X242297Y210390D01*
X242349Y210307D01*
X242404Y210226D01*
X242463Y210147D01*
X242524Y210070D01*
X242589Y209996D01*
X242656Y209925D01*
X242726Y209856D01*
X242799Y209790D01*
X242874Y209727D01*
X242952Y209667D01*
X243032Y209610D01*
X243114Y209557D01*
X243199Y209507D01*
X243285Y209460D01*
X243373Y209416D01*
X243463Y209377D01*
X243554Y209340D01*
X243647Y209308D01*
X243741Y209279D01*
X243835Y209254D01*
X243931Y209233D01*
X244028Y209215D01*
X244125Y209202D01*
X244223Y209192D01*
X244321Y209186D01*
X244419Y209184D01*
X244419Y209183D02*
X246888Y209183D01*
X243925Y209183D02*
X241949Y205232D01*
X238038Y210171D02*
X235075Y210171D01*
X234989Y210169D01*
X234903Y210163D01*
X234817Y210154D01*
X234732Y210141D01*
X234647Y210124D01*
X234564Y210104D01*
X234481Y210080D01*
X234399Y210052D01*
X234319Y210021D01*
X234240Y209986D01*
X234163Y209948D01*
X234087Y209906D01*
X234013Y209862D01*
X233942Y209814D01*
X233872Y209763D01*
X233805Y209709D01*
X233740Y209652D01*
X233678Y209592D01*
X233618Y209530D01*
X233561Y209465D01*
X233507Y209398D01*
X233456Y209328D01*
X233408Y209257D01*
X233364Y209183D01*
X233322Y209107D01*
X233284Y209030D01*
X233249Y208951D01*
X233218Y208871D01*
X233190Y208789D01*
X233166Y208706D01*
X233146Y208623D01*
X233129Y208538D01*
X233116Y208453D01*
X233107Y208367D01*
X233101Y208281D01*
X233099Y208195D01*
X233099Y207701D01*
X233100Y207701D02*
X233102Y207603D01*
X233108Y207505D01*
X233118Y207407D01*
X233131Y207310D01*
X233149Y207213D01*
X233170Y207117D01*
X233195Y207023D01*
X233224Y206929D01*
X233256Y206836D01*
X233293Y206745D01*
X233332Y206655D01*
X233376Y206567D01*
X233423Y206481D01*
X233473Y206396D01*
X233526Y206314D01*
X233583Y206234D01*
X233643Y206156D01*
X233706Y206081D01*
X233772Y206008D01*
X233841Y205938D01*
X233912Y205871D01*
X233986Y205806D01*
X234063Y205745D01*
X234142Y205686D01*
X234223Y205631D01*
X234306Y205579D01*
X234392Y205531D01*
X234479Y205486D01*
X234568Y205444D01*
X234658Y205406D01*
X234750Y205372D01*
X234843Y205341D01*
X234938Y205314D01*
X235033Y205291D01*
X235130Y205271D01*
X235226Y205256D01*
X235324Y205244D01*
X235422Y205236D01*
X235520Y205232D01*
X235618Y205232D01*
X235716Y205236D01*
X235814Y205244D01*
X235912Y205256D01*
X236008Y205271D01*
X236105Y205291D01*
X236200Y205314D01*
X236295Y205341D01*
X236388Y205372D01*
X236480Y205406D01*
X236570Y205444D01*
X236659Y205486D01*
X236746Y205531D01*
X236832Y205579D01*
X236915Y205631D01*
X236996Y205686D01*
X237075Y205745D01*
X237152Y205806D01*
X237226Y205871D01*
X237297Y205938D01*
X237366Y206008D01*
X237432Y206081D01*
X237495Y206156D01*
X237555Y206234D01*
X237612Y206314D01*
X237665Y206396D01*
X237715Y206481D01*
X237762Y206567D01*
X237806Y206655D01*
X237845Y206745D01*
X237882Y206836D01*
X237914Y206929D01*
X237943Y207023D01*
X237968Y207117D01*
X237989Y207213D01*
X238007Y207310D01*
X238020Y207407D01*
X238030Y207505D01*
X238036Y207603D01*
X238038Y207701D01*
X238038Y210171D01*
X238036Y210295D01*
X238030Y210419D01*
X238020Y210543D01*
X238007Y210666D01*
X237989Y210789D01*
X237968Y210911D01*
X237943Y211033D01*
X237914Y211154D01*
X237881Y211273D01*
X237845Y211392D01*
X237804Y211509D01*
X237761Y211625D01*
X237713Y211740D01*
X237662Y211853D01*
X237607Y211965D01*
X237549Y212074D01*
X237488Y212182D01*
X237423Y212288D01*
X237355Y212392D01*
X237283Y212493D01*
X237209Y212593D01*
X237131Y212689D01*
X237051Y212784D01*
X236967Y212876D01*
X236881Y212965D01*
X236792Y213051D01*
X236700Y213135D01*
X236605Y213215D01*
X236509Y213293D01*
X236409Y213367D01*
X236308Y213439D01*
X236204Y213507D01*
X236098Y213572D01*
X235990Y213633D01*
X235881Y213691D01*
X235769Y213746D01*
X235656Y213797D01*
X235542Y213845D01*
X235425Y213888D01*
X235308Y213929D01*
X235189Y213965D01*
X235070Y213998D01*
X234949Y214027D01*
X234827Y214052D01*
X234705Y214073D01*
X234582Y214091D01*
X234459Y214104D01*
X234335Y214114D01*
X234211Y214120D01*
X234087Y214122D01*
X230632Y271272D02*
X221742Y271272D01*
X230632Y271272D02*
X230632Y273741D01*
X230630Y273839D01*
X230624Y273937D01*
X230614Y274035D01*
X230601Y274132D01*
X230583Y274229D01*
X230562Y274325D01*
X230537Y274419D01*
X230508Y274513D01*
X230476Y274606D01*
X230439Y274697D01*
X230400Y274787D01*
X230356Y274875D01*
X230309Y274961D01*
X230259Y275046D01*
X230206Y275128D01*
X230149Y275208D01*
X230089Y275286D01*
X230026Y275361D01*
X229960Y275434D01*
X229891Y275504D01*
X229820Y275571D01*
X229746Y275636D01*
X229669Y275697D01*
X229590Y275756D01*
X229509Y275811D01*
X229426Y275863D01*
X229340Y275911D01*
X229253Y275956D01*
X229164Y275998D01*
X229074Y276036D01*
X228982Y276070D01*
X228889Y276101D01*
X228794Y276128D01*
X228699Y276151D01*
X228602Y276171D01*
X228506Y276186D01*
X228408Y276198D01*
X228310Y276206D01*
X228212Y276210D01*
X228114Y276210D01*
X228016Y276206D01*
X227918Y276198D01*
X227820Y276186D01*
X227724Y276171D01*
X227627Y276151D01*
X227532Y276128D01*
X227437Y276101D01*
X227344Y276070D01*
X227252Y276036D01*
X227162Y275998D01*
X227073Y275956D01*
X226986Y275911D01*
X226900Y275863D01*
X226817Y275811D01*
X226736Y275756D01*
X226657Y275697D01*
X226580Y275636D01*
X226506Y275571D01*
X226435Y275504D01*
X226366Y275434D01*
X226300Y275361D01*
X226237Y275286D01*
X226177Y275208D01*
X226120Y275128D01*
X226067Y275046D01*
X226017Y274961D01*
X225970Y274875D01*
X225926Y274787D01*
X225887Y274697D01*
X225850Y274606D01*
X225818Y274513D01*
X225789Y274419D01*
X225764Y274325D01*
X225743Y274229D01*
X225725Y274132D01*
X225712Y274035D01*
X225702Y273937D01*
X225696Y273839D01*
X225694Y273741D01*
X225693Y273741D02*
X225693Y271272D01*
X225693Y274235D02*
X221742Y276211D01*
X229644Y280122D02*
X230632Y280122D01*
X230632Y285061D01*
X221742Y282591D01*
X304111Y226568D02*
X304111Y217678D01*
X304111Y226568D02*
X301641Y226568D01*
X301543Y226566D01*
X301445Y226560D01*
X301347Y226550D01*
X301250Y226537D01*
X301153Y226519D01*
X301057Y226498D01*
X300963Y226473D01*
X300869Y226444D01*
X300776Y226412D01*
X300685Y226375D01*
X300595Y226336D01*
X300507Y226292D01*
X300421Y226245D01*
X300336Y226195D01*
X300254Y226142D01*
X300174Y226085D01*
X300096Y226025D01*
X300021Y225962D01*
X299948Y225896D01*
X299878Y225827D01*
X299811Y225756D01*
X299746Y225682D01*
X299685Y225605D01*
X299626Y225526D01*
X299571Y225445D01*
X299519Y225362D01*
X299471Y225276D01*
X299426Y225189D01*
X299384Y225100D01*
X299346Y225010D01*
X299312Y224918D01*
X299281Y224825D01*
X299254Y224730D01*
X299231Y224635D01*
X299211Y224538D01*
X299196Y224442D01*
X299184Y224344D01*
X299176Y224246D01*
X299172Y224148D01*
X299172Y224050D01*
X299176Y223952D01*
X299184Y223854D01*
X299196Y223756D01*
X299211Y223660D01*
X299231Y223563D01*
X299254Y223468D01*
X299281Y223373D01*
X299312Y223280D01*
X299346Y223188D01*
X299384Y223098D01*
X299426Y223009D01*
X299471Y222922D01*
X299519Y222836D01*
X299571Y222753D01*
X299626Y222672D01*
X299685Y222593D01*
X299746Y222516D01*
X299811Y222442D01*
X299878Y222371D01*
X299948Y222302D01*
X300021Y222236D01*
X300096Y222173D01*
X300174Y222113D01*
X300254Y222056D01*
X300336Y222003D01*
X300421Y221953D01*
X300507Y221906D01*
X300595Y221862D01*
X300685Y221823D01*
X300776Y221786D01*
X300869Y221754D01*
X300963Y221725D01*
X301057Y221700D01*
X301153Y221679D01*
X301250Y221661D01*
X301347Y221648D01*
X301445Y221638D01*
X301543Y221632D01*
X301641Y221630D01*
X301641Y221629D02*
X304111Y221629D01*
X301147Y221629D02*
X299172Y217678D01*
X295260Y220147D02*
X295258Y220245D01*
X295252Y220343D01*
X295242Y220441D01*
X295229Y220538D01*
X295211Y220635D01*
X295190Y220731D01*
X295165Y220825D01*
X295136Y220919D01*
X295104Y221012D01*
X295067Y221103D01*
X295028Y221193D01*
X294984Y221281D01*
X294937Y221367D01*
X294887Y221452D01*
X294834Y221534D01*
X294777Y221614D01*
X294717Y221692D01*
X294654Y221767D01*
X294588Y221840D01*
X294519Y221910D01*
X294448Y221977D01*
X294374Y222042D01*
X294297Y222103D01*
X294218Y222162D01*
X294137Y222217D01*
X294054Y222269D01*
X293968Y222317D01*
X293881Y222362D01*
X293792Y222404D01*
X293702Y222442D01*
X293610Y222476D01*
X293517Y222507D01*
X293422Y222534D01*
X293327Y222557D01*
X293230Y222577D01*
X293134Y222592D01*
X293036Y222604D01*
X292938Y222612D01*
X292840Y222616D01*
X292742Y222616D01*
X292644Y222612D01*
X292546Y222604D01*
X292448Y222592D01*
X292352Y222577D01*
X292255Y222557D01*
X292160Y222534D01*
X292065Y222507D01*
X291972Y222476D01*
X291880Y222442D01*
X291790Y222404D01*
X291701Y222362D01*
X291614Y222317D01*
X291528Y222269D01*
X291445Y222217D01*
X291364Y222162D01*
X291285Y222103D01*
X291208Y222042D01*
X291134Y221977D01*
X291063Y221910D01*
X290994Y221840D01*
X290928Y221767D01*
X290865Y221692D01*
X290805Y221614D01*
X290748Y221534D01*
X290695Y221452D01*
X290645Y221367D01*
X290598Y221281D01*
X290554Y221193D01*
X290515Y221103D01*
X290478Y221012D01*
X290446Y220919D01*
X290417Y220825D01*
X290392Y220731D01*
X290371Y220635D01*
X290353Y220538D01*
X290340Y220441D01*
X290330Y220343D01*
X290324Y220245D01*
X290322Y220147D01*
X290324Y220049D01*
X290330Y219951D01*
X290340Y219853D01*
X290353Y219756D01*
X290371Y219659D01*
X290392Y219563D01*
X290417Y219469D01*
X290446Y219375D01*
X290478Y219282D01*
X290515Y219191D01*
X290554Y219101D01*
X290598Y219013D01*
X290645Y218927D01*
X290695Y218842D01*
X290748Y218760D01*
X290805Y218680D01*
X290865Y218602D01*
X290928Y218527D01*
X290994Y218454D01*
X291063Y218384D01*
X291134Y218317D01*
X291208Y218252D01*
X291285Y218191D01*
X291364Y218132D01*
X291445Y218077D01*
X291528Y218025D01*
X291614Y217977D01*
X291701Y217932D01*
X291790Y217890D01*
X291880Y217852D01*
X291972Y217818D01*
X292065Y217787D01*
X292160Y217760D01*
X292255Y217737D01*
X292352Y217717D01*
X292448Y217702D01*
X292546Y217690D01*
X292644Y217682D01*
X292742Y217678D01*
X292840Y217678D01*
X292938Y217682D01*
X293036Y217690D01*
X293134Y217702D01*
X293230Y217717D01*
X293327Y217737D01*
X293422Y217760D01*
X293517Y217787D01*
X293610Y217818D01*
X293702Y217852D01*
X293792Y217890D01*
X293881Y217932D01*
X293968Y217977D01*
X294054Y218025D01*
X294137Y218077D01*
X294218Y218132D01*
X294297Y218191D01*
X294374Y218252D01*
X294448Y218317D01*
X294519Y218384D01*
X294588Y218454D01*
X294654Y218527D01*
X294717Y218602D01*
X294777Y218680D01*
X294834Y218760D01*
X294887Y218842D01*
X294937Y218927D01*
X294984Y219013D01*
X295028Y219101D01*
X295067Y219191D01*
X295104Y219282D01*
X295136Y219375D01*
X295165Y219469D01*
X295190Y219563D01*
X295211Y219659D01*
X295229Y219756D01*
X295242Y219853D01*
X295252Y219951D01*
X295258Y220049D01*
X295260Y220147D01*
X294767Y224592D02*
X294765Y224679D01*
X294759Y224767D01*
X294750Y224854D01*
X294736Y224940D01*
X294719Y225026D01*
X294698Y225110D01*
X294673Y225194D01*
X294644Y225277D01*
X294612Y225358D01*
X294577Y225438D01*
X294538Y225516D01*
X294495Y225593D01*
X294449Y225667D01*
X294400Y225739D01*
X294348Y225809D01*
X294292Y225877D01*
X294234Y225942D01*
X294173Y226005D01*
X294109Y226064D01*
X294042Y226121D01*
X293974Y226175D01*
X293902Y226226D01*
X293829Y226273D01*
X293754Y226318D01*
X293676Y226359D01*
X293597Y226396D01*
X293517Y226430D01*
X293435Y226460D01*
X293352Y226487D01*
X293267Y226510D01*
X293182Y226529D01*
X293096Y226544D01*
X293009Y226556D01*
X292922Y226564D01*
X292835Y226568D01*
X292747Y226568D01*
X292660Y226564D01*
X292573Y226556D01*
X292486Y226544D01*
X292400Y226529D01*
X292315Y226510D01*
X292230Y226487D01*
X292147Y226460D01*
X292065Y226430D01*
X291985Y226396D01*
X291906Y226359D01*
X291828Y226318D01*
X291753Y226273D01*
X291680Y226226D01*
X291608Y226175D01*
X291540Y226121D01*
X291473Y226064D01*
X291409Y226005D01*
X291348Y225942D01*
X291290Y225877D01*
X291234Y225809D01*
X291182Y225739D01*
X291133Y225667D01*
X291087Y225593D01*
X291044Y225516D01*
X291005Y225438D01*
X290970Y225358D01*
X290938Y225277D01*
X290909Y225194D01*
X290884Y225110D01*
X290863Y225026D01*
X290846Y224940D01*
X290832Y224854D01*
X290823Y224767D01*
X290817Y224679D01*
X290815Y224592D01*
X290817Y224505D01*
X290823Y224417D01*
X290832Y224330D01*
X290846Y224244D01*
X290863Y224158D01*
X290884Y224074D01*
X290909Y223990D01*
X290938Y223907D01*
X290970Y223826D01*
X291005Y223746D01*
X291044Y223668D01*
X291087Y223591D01*
X291133Y223517D01*
X291182Y223445D01*
X291234Y223375D01*
X291290Y223307D01*
X291348Y223242D01*
X291409Y223179D01*
X291473Y223120D01*
X291540Y223063D01*
X291608Y223009D01*
X291680Y222958D01*
X291753Y222911D01*
X291828Y222866D01*
X291906Y222825D01*
X291985Y222788D01*
X292065Y222754D01*
X292147Y222724D01*
X292230Y222697D01*
X292315Y222674D01*
X292400Y222655D01*
X292486Y222640D01*
X292573Y222628D01*
X292660Y222620D01*
X292747Y222616D01*
X292835Y222616D01*
X292922Y222620D01*
X293009Y222628D01*
X293096Y222640D01*
X293182Y222655D01*
X293267Y222674D01*
X293352Y222697D01*
X293435Y222724D01*
X293517Y222754D01*
X293597Y222788D01*
X293676Y222825D01*
X293754Y222866D01*
X293829Y222911D01*
X293902Y222958D01*
X293974Y223009D01*
X294042Y223063D01*
X294109Y223120D01*
X294173Y223179D01*
X294234Y223242D01*
X294292Y223307D01*
X294348Y223375D01*
X294400Y223445D01*
X294449Y223517D01*
X294495Y223591D01*
X294538Y223668D01*
X294577Y223746D01*
X294612Y223826D01*
X294644Y223907D01*
X294673Y223990D01*
X294698Y224074D01*
X294719Y224158D01*
X294736Y224244D01*
X294750Y224330D01*
X294759Y224417D01*
X294765Y224505D01*
X294767Y224592D01*
D11*
X220345Y247015D02*
X220345Y249555D01*
X220345Y247015D02*
X220347Y246915D01*
X220353Y246816D01*
X220363Y246716D01*
X220376Y246618D01*
X220394Y246519D01*
X220415Y246422D01*
X220440Y246326D01*
X220469Y246230D01*
X220502Y246136D01*
X220538Y246043D01*
X220578Y245952D01*
X220622Y245862D01*
X220669Y245774D01*
X220719Y245688D01*
X220773Y245604D01*
X220830Y245522D01*
X220890Y245443D01*
X220954Y245365D01*
X221020Y245291D01*
X221089Y245219D01*
X221161Y245150D01*
X221235Y245084D01*
X221313Y245020D01*
X221392Y244960D01*
X221474Y244903D01*
X221558Y244849D01*
X221644Y244799D01*
X221732Y244752D01*
X221822Y244708D01*
X221913Y244668D01*
X222006Y244632D01*
X222100Y244599D01*
X222196Y244570D01*
X222292Y244545D01*
X222389Y244524D01*
X222488Y244506D01*
X222586Y244493D01*
X222686Y244483D01*
X222785Y244477D01*
X222885Y244475D01*
X229235Y244475D01*
X229335Y244477D01*
X229434Y244483D01*
X229534Y244493D01*
X229632Y244506D01*
X229731Y244524D01*
X229828Y244545D01*
X229924Y244570D01*
X230020Y244599D01*
X230114Y244632D01*
X230207Y244668D01*
X230298Y244708D01*
X230388Y244752D01*
X230476Y244799D01*
X230562Y244849D01*
X230646Y244903D01*
X230728Y244960D01*
X230807Y245020D01*
X230885Y245084D01*
X230959Y245150D01*
X231031Y245219D01*
X231100Y245291D01*
X231166Y245365D01*
X231230Y245443D01*
X231290Y245522D01*
X231347Y245604D01*
X231401Y245688D01*
X231451Y245774D01*
X231498Y245862D01*
X231542Y245952D01*
X231582Y246043D01*
X231618Y246136D01*
X231651Y246230D01*
X231680Y246326D01*
X231705Y246422D01*
X231726Y246519D01*
X231744Y246618D01*
X231757Y246716D01*
X231767Y246816D01*
X231773Y246915D01*
X231775Y247015D01*
X231775Y249555D01*
X229235Y254037D02*
X231775Y257212D01*
X220345Y257212D01*
X220345Y254037D02*
X220345Y260387D01*
X302895Y202565D02*
X305435Y202565D01*
X305535Y202567D01*
X305634Y202573D01*
X305734Y202583D01*
X305832Y202596D01*
X305931Y202614D01*
X306028Y202635D01*
X306124Y202660D01*
X306220Y202689D01*
X306314Y202722D01*
X306407Y202758D01*
X306498Y202798D01*
X306588Y202842D01*
X306676Y202889D01*
X306762Y202939D01*
X306846Y202993D01*
X306928Y203050D01*
X307007Y203110D01*
X307085Y203174D01*
X307159Y203240D01*
X307231Y203309D01*
X307300Y203381D01*
X307366Y203455D01*
X307430Y203533D01*
X307490Y203612D01*
X307547Y203694D01*
X307601Y203778D01*
X307651Y203864D01*
X307698Y203952D01*
X307742Y204042D01*
X307782Y204133D01*
X307818Y204226D01*
X307851Y204320D01*
X307880Y204416D01*
X307905Y204512D01*
X307926Y204609D01*
X307944Y204708D01*
X307957Y204806D01*
X307967Y204906D01*
X307973Y205005D01*
X307975Y205105D01*
X307975Y211455D01*
X307973Y211555D01*
X307967Y211654D01*
X307957Y211754D01*
X307944Y211852D01*
X307926Y211951D01*
X307905Y212048D01*
X307880Y212144D01*
X307851Y212240D01*
X307818Y212334D01*
X307782Y212427D01*
X307742Y212518D01*
X307698Y212608D01*
X307651Y212696D01*
X307601Y212782D01*
X307547Y212866D01*
X307490Y212948D01*
X307430Y213027D01*
X307366Y213105D01*
X307300Y213179D01*
X307231Y213251D01*
X307159Y213320D01*
X307085Y213386D01*
X307007Y213450D01*
X306928Y213510D01*
X306846Y213567D01*
X306762Y213621D01*
X306676Y213671D01*
X306588Y213718D01*
X306498Y213762D01*
X306407Y213802D01*
X306314Y213838D01*
X306220Y213871D01*
X306124Y213900D01*
X306028Y213925D01*
X305931Y213946D01*
X305832Y213964D01*
X305734Y213977D01*
X305634Y213987D01*
X305535Y213993D01*
X305435Y213995D01*
X302895Y213995D01*
X294920Y213996D02*
X294816Y213994D01*
X294711Y213988D01*
X294607Y213979D01*
X294504Y213966D01*
X294401Y213948D01*
X294299Y213928D01*
X294197Y213903D01*
X294097Y213875D01*
X293997Y213843D01*
X293899Y213807D01*
X293802Y213768D01*
X293707Y213726D01*
X293613Y213680D01*
X293521Y213630D01*
X293431Y213578D01*
X293343Y213522D01*
X293257Y213462D01*
X293173Y213400D01*
X293092Y213335D01*
X293013Y213267D01*
X292936Y213195D01*
X292863Y213122D01*
X292791Y213045D01*
X292723Y212966D01*
X292658Y212885D01*
X292596Y212801D01*
X292536Y212715D01*
X292480Y212627D01*
X292428Y212537D01*
X292378Y212445D01*
X292332Y212351D01*
X292290Y212256D01*
X292251Y212159D01*
X292215Y212061D01*
X292183Y211961D01*
X292155Y211861D01*
X292130Y211759D01*
X292110Y211657D01*
X292092Y211554D01*
X292079Y211451D01*
X292070Y211347D01*
X292064Y211242D01*
X292062Y211138D01*
X294920Y213995D02*
X295038Y213993D01*
X295157Y213987D01*
X295275Y213978D01*
X295392Y213965D01*
X295509Y213947D01*
X295626Y213927D01*
X295742Y213902D01*
X295857Y213874D01*
X295970Y213841D01*
X296083Y213806D01*
X296195Y213766D01*
X296305Y213724D01*
X296414Y213677D01*
X296522Y213627D01*
X296627Y213574D01*
X296731Y213517D01*
X296833Y213457D01*
X296933Y213394D01*
X297031Y213327D01*
X297127Y213258D01*
X297220Y213185D01*
X297311Y213109D01*
X297400Y213031D01*
X297486Y212949D01*
X297569Y212865D01*
X297650Y212779D01*
X297727Y212689D01*
X297802Y212598D01*
X297874Y212504D01*
X297943Y212407D01*
X298008Y212309D01*
X298071Y212208D01*
X298130Y212105D01*
X298186Y212001D01*
X298238Y211895D01*
X298287Y211787D01*
X298332Y211678D01*
X298374Y211567D01*
X298412Y211455D01*
X293015Y208916D02*
X292939Y208991D01*
X292864Y209070D01*
X292793Y209151D01*
X292724Y209235D01*
X292659Y209321D01*
X292597Y209409D01*
X292537Y209499D01*
X292481Y209591D01*
X292428Y209686D01*
X292379Y209782D01*
X292333Y209880D01*
X292290Y209979D01*
X292251Y210080D01*
X292216Y210182D01*
X292184Y210285D01*
X292156Y210389D01*
X292131Y210494D01*
X292110Y210601D01*
X292093Y210707D01*
X292080Y210814D01*
X292071Y210922D01*
X292065Y211030D01*
X292063Y211138D01*
X293015Y208915D02*
X298413Y202565D01*
X292063Y202565D01*
D10*
X300228Y273059D02*
X300228Y275656D01*
X300228Y273059D02*
X300230Y272960D01*
X300236Y272860D01*
X300245Y272761D01*
X300258Y272663D01*
X300275Y272565D01*
X300296Y272467D01*
X300321Y272371D01*
X300349Y272276D01*
X300381Y272182D01*
X300416Y272089D01*
X300455Y271997D01*
X300498Y271907D01*
X300543Y271819D01*
X300593Y271732D01*
X300645Y271648D01*
X300701Y271565D01*
X300759Y271485D01*
X300821Y271407D01*
X300886Y271332D01*
X300954Y271259D01*
X301024Y271189D01*
X301097Y271121D01*
X301172Y271056D01*
X301250Y270994D01*
X301330Y270936D01*
X301413Y270880D01*
X301497Y270828D01*
X301584Y270778D01*
X301672Y270733D01*
X301762Y270690D01*
X301854Y270651D01*
X301947Y270616D01*
X302041Y270584D01*
X302136Y270556D01*
X302232Y270531D01*
X302330Y270510D01*
X302428Y270493D01*
X302526Y270480D01*
X302625Y270471D01*
X302725Y270465D01*
X302824Y270463D01*
X309316Y270463D01*
X309415Y270465D01*
X309515Y270471D01*
X309614Y270480D01*
X309712Y270493D01*
X309810Y270510D01*
X309908Y270531D01*
X310004Y270556D01*
X310099Y270584D01*
X310193Y270616D01*
X310286Y270651D01*
X310378Y270690D01*
X310468Y270733D01*
X310556Y270778D01*
X310643Y270828D01*
X310727Y270880D01*
X310810Y270936D01*
X310890Y270994D01*
X310968Y271056D01*
X311043Y271121D01*
X311116Y271189D01*
X311186Y271259D01*
X311254Y271332D01*
X311319Y271407D01*
X311381Y271485D01*
X311439Y271565D01*
X311495Y271648D01*
X311547Y271732D01*
X311597Y271819D01*
X311642Y271907D01*
X311685Y271997D01*
X311724Y272089D01*
X311759Y272181D01*
X311791Y272276D01*
X311819Y272371D01*
X311844Y272467D01*
X311865Y272565D01*
X311882Y272663D01*
X311895Y272761D01*
X311904Y272860D01*
X311910Y272960D01*
X311912Y273059D01*
X311912Y275656D01*
X311912Y282617D02*
X302824Y280021D01*
X302824Y286512D01*
X305421Y284565D02*
X300228Y284565D01*
X275581Y292608D02*
X272984Y292608D01*
X275581Y292608D02*
X275680Y292610D01*
X275780Y292616D01*
X275879Y292625D01*
X275977Y292638D01*
X276075Y292655D01*
X276173Y292676D01*
X276269Y292701D01*
X276364Y292729D01*
X276458Y292761D01*
X276551Y292796D01*
X276643Y292835D01*
X276733Y292878D01*
X276821Y292923D01*
X276908Y292973D01*
X276992Y293025D01*
X277075Y293081D01*
X277155Y293139D01*
X277233Y293201D01*
X277308Y293266D01*
X277381Y293334D01*
X277451Y293404D01*
X277519Y293477D01*
X277584Y293552D01*
X277646Y293630D01*
X277704Y293710D01*
X277760Y293793D01*
X277812Y293877D01*
X277862Y293964D01*
X277907Y294052D01*
X277950Y294142D01*
X277989Y294234D01*
X278024Y294327D01*
X278056Y294421D01*
X278084Y294516D01*
X278109Y294612D01*
X278130Y294710D01*
X278147Y294808D01*
X278160Y294906D01*
X278169Y295005D01*
X278175Y295105D01*
X278177Y295204D01*
X278177Y301696D01*
X278175Y301795D01*
X278169Y301895D01*
X278160Y301994D01*
X278147Y302092D01*
X278130Y302190D01*
X278109Y302288D01*
X278084Y302384D01*
X278056Y302479D01*
X278024Y302573D01*
X277989Y302666D01*
X277950Y302758D01*
X277907Y302848D01*
X277862Y302936D01*
X277812Y303023D01*
X277760Y303107D01*
X277704Y303190D01*
X277646Y303270D01*
X277584Y303348D01*
X277519Y303423D01*
X277451Y303496D01*
X277381Y303566D01*
X277308Y303634D01*
X277233Y303699D01*
X277155Y303761D01*
X277075Y303819D01*
X276992Y303875D01*
X276908Y303927D01*
X276821Y303977D01*
X276733Y304022D01*
X276643Y304065D01*
X276551Y304104D01*
X276458Y304139D01*
X276364Y304171D01*
X276269Y304199D01*
X276173Y304224D01*
X276075Y304245D01*
X275977Y304262D01*
X275879Y304275D01*
X275780Y304284D01*
X275680Y304290D01*
X275581Y304292D01*
X272984Y304292D01*
X268619Y292608D02*
X265374Y292608D01*
X265261Y292610D01*
X265148Y292616D01*
X265035Y292626D01*
X264922Y292640D01*
X264810Y292657D01*
X264699Y292679D01*
X264589Y292704D01*
X264479Y292734D01*
X264371Y292767D01*
X264264Y292804D01*
X264158Y292844D01*
X264054Y292889D01*
X263951Y292937D01*
X263850Y292988D01*
X263751Y293043D01*
X263654Y293101D01*
X263559Y293163D01*
X263466Y293228D01*
X263376Y293296D01*
X263288Y293367D01*
X263202Y293442D01*
X263119Y293519D01*
X263039Y293599D01*
X262962Y293682D01*
X262887Y293768D01*
X262816Y293856D01*
X262748Y293946D01*
X262683Y294039D01*
X262621Y294134D01*
X262563Y294231D01*
X262508Y294330D01*
X262457Y294431D01*
X262409Y294534D01*
X262364Y294638D01*
X262324Y294744D01*
X262287Y294851D01*
X262254Y294959D01*
X262224Y295069D01*
X262199Y295179D01*
X262177Y295290D01*
X262160Y295402D01*
X262146Y295515D01*
X262136Y295628D01*
X262130Y295741D01*
X262128Y295854D01*
X262130Y295967D01*
X262136Y296080D01*
X262146Y296193D01*
X262160Y296306D01*
X262177Y296418D01*
X262199Y296529D01*
X262224Y296639D01*
X262254Y296749D01*
X262287Y296857D01*
X262324Y296964D01*
X262364Y297070D01*
X262409Y297174D01*
X262457Y297277D01*
X262508Y297378D01*
X262563Y297477D01*
X262621Y297574D01*
X262683Y297669D01*
X262748Y297762D01*
X262816Y297852D01*
X262887Y297940D01*
X262962Y298026D01*
X263039Y298109D01*
X263119Y298189D01*
X263202Y298266D01*
X263288Y298341D01*
X263376Y298412D01*
X263466Y298480D01*
X263559Y298545D01*
X263654Y298607D01*
X263751Y298665D01*
X263850Y298720D01*
X263951Y298771D01*
X264054Y298819D01*
X264158Y298864D01*
X264264Y298904D01*
X264371Y298941D01*
X264479Y298974D01*
X264589Y299004D01*
X264699Y299029D01*
X264810Y299051D01*
X264922Y299068D01*
X265035Y299082D01*
X265148Y299092D01*
X265261Y299098D01*
X265374Y299100D01*
X264724Y304292D02*
X268619Y304292D01*
X264724Y304292D02*
X264623Y304290D01*
X264523Y304284D01*
X264423Y304274D01*
X264323Y304261D01*
X264224Y304243D01*
X264125Y304222D01*
X264028Y304197D01*
X263931Y304168D01*
X263836Y304135D01*
X263742Y304099D01*
X263650Y304059D01*
X263559Y304016D01*
X263470Y303969D01*
X263383Y303919D01*
X263297Y303865D01*
X263214Y303808D01*
X263134Y303748D01*
X263055Y303685D01*
X262979Y303618D01*
X262906Y303549D01*
X262836Y303477D01*
X262768Y303403D01*
X262703Y303326D01*
X262642Y303246D01*
X262583Y303164D01*
X262528Y303080D01*
X262476Y302994D01*
X262427Y302906D01*
X262382Y302816D01*
X262340Y302724D01*
X262302Y302631D01*
X262268Y302536D01*
X262237Y302441D01*
X262210Y302344D01*
X262187Y302246D01*
X262167Y302147D01*
X262152Y302047D01*
X262140Y301947D01*
X262132Y301847D01*
X262128Y301746D01*
X262128Y301646D01*
X262132Y301545D01*
X262140Y301445D01*
X262152Y301345D01*
X262167Y301245D01*
X262187Y301146D01*
X262210Y301048D01*
X262237Y300951D01*
X262268Y300856D01*
X262302Y300761D01*
X262340Y300668D01*
X262382Y300576D01*
X262427Y300486D01*
X262476Y300398D01*
X262528Y300312D01*
X262583Y300228D01*
X262642Y300146D01*
X262703Y300066D01*
X262768Y299989D01*
X262836Y299915D01*
X262906Y299843D01*
X262979Y299774D01*
X263055Y299707D01*
X263134Y299644D01*
X263214Y299584D01*
X263297Y299527D01*
X263383Y299473D01*
X263470Y299423D01*
X263559Y299376D01*
X263650Y299333D01*
X263742Y299293D01*
X263836Y299257D01*
X263931Y299224D01*
X264028Y299195D01*
X264125Y299170D01*
X264224Y299149D01*
X264323Y299131D01*
X264423Y299118D01*
X264523Y299108D01*
X264623Y299102D01*
X264724Y299100D01*
X264724Y299099D02*
X267321Y299099D01*
M02*
