G04 EAGLE Gerber RS-274X export*
G75*
%MOMM*%
%FSLAX34Y34*%
%LPD*%
%INSilkscreen Bottom*%
%IPPOS*%
%AMOC8*
5,1,8,0,0,1.08239X$1,22.5*%
G01*
%ADD10C,0.101600*%
%ADD11C,0.127000*%


D10*
X213941Y230378D02*
X213941Y239268D01*
X211471Y239268D01*
X211373Y239266D01*
X211275Y239260D01*
X211177Y239250D01*
X211080Y239237D01*
X210983Y239219D01*
X210887Y239198D01*
X210793Y239173D01*
X210699Y239144D01*
X210606Y239112D01*
X210515Y239075D01*
X210425Y239036D01*
X210337Y238992D01*
X210251Y238945D01*
X210166Y238895D01*
X210084Y238842D01*
X210004Y238785D01*
X209926Y238725D01*
X209851Y238662D01*
X209778Y238596D01*
X209708Y238527D01*
X209641Y238456D01*
X209576Y238382D01*
X209515Y238305D01*
X209456Y238226D01*
X209401Y238145D01*
X209349Y238062D01*
X209301Y237976D01*
X209256Y237889D01*
X209214Y237800D01*
X209176Y237710D01*
X209142Y237618D01*
X209111Y237525D01*
X209084Y237430D01*
X209061Y237335D01*
X209041Y237238D01*
X209026Y237142D01*
X209014Y237044D01*
X209006Y236946D01*
X209002Y236848D01*
X209002Y236750D01*
X209006Y236652D01*
X209014Y236554D01*
X209026Y236456D01*
X209041Y236360D01*
X209061Y236263D01*
X209084Y236168D01*
X209111Y236073D01*
X209142Y235980D01*
X209176Y235888D01*
X209214Y235798D01*
X209256Y235709D01*
X209301Y235622D01*
X209349Y235536D01*
X209401Y235453D01*
X209456Y235372D01*
X209515Y235293D01*
X209576Y235216D01*
X209641Y235142D01*
X209708Y235071D01*
X209778Y235002D01*
X209851Y234936D01*
X209926Y234873D01*
X210004Y234813D01*
X210084Y234756D01*
X210166Y234703D01*
X210251Y234653D01*
X210337Y234606D01*
X210425Y234562D01*
X210515Y234523D01*
X210606Y234486D01*
X210699Y234454D01*
X210793Y234425D01*
X210887Y234400D01*
X210983Y234379D01*
X211080Y234361D01*
X211177Y234348D01*
X211275Y234338D01*
X211373Y234332D01*
X211471Y234330D01*
X211471Y234329D02*
X213941Y234329D01*
X210977Y234329D02*
X209002Y230378D01*
X205091Y237292D02*
X202621Y239268D01*
X202621Y230378D01*
X200152Y230378D02*
X205091Y230378D01*
X253311Y215138D02*
X253311Y206248D01*
X253311Y215138D02*
X250841Y215138D01*
X250743Y215136D01*
X250645Y215130D01*
X250547Y215120D01*
X250450Y215107D01*
X250353Y215089D01*
X250257Y215068D01*
X250163Y215043D01*
X250069Y215014D01*
X249976Y214982D01*
X249885Y214945D01*
X249795Y214906D01*
X249707Y214862D01*
X249621Y214815D01*
X249536Y214765D01*
X249454Y214712D01*
X249374Y214655D01*
X249296Y214595D01*
X249221Y214532D01*
X249148Y214466D01*
X249078Y214397D01*
X249011Y214326D01*
X248946Y214252D01*
X248885Y214175D01*
X248826Y214096D01*
X248771Y214015D01*
X248719Y213932D01*
X248671Y213846D01*
X248626Y213759D01*
X248584Y213670D01*
X248546Y213580D01*
X248512Y213488D01*
X248481Y213395D01*
X248454Y213300D01*
X248431Y213205D01*
X248411Y213108D01*
X248396Y213012D01*
X248384Y212914D01*
X248376Y212816D01*
X248372Y212718D01*
X248372Y212620D01*
X248376Y212522D01*
X248384Y212424D01*
X248396Y212326D01*
X248411Y212230D01*
X248431Y212133D01*
X248454Y212038D01*
X248481Y211943D01*
X248512Y211850D01*
X248546Y211758D01*
X248584Y211668D01*
X248626Y211579D01*
X248671Y211492D01*
X248719Y211406D01*
X248771Y211323D01*
X248826Y211242D01*
X248885Y211163D01*
X248946Y211086D01*
X249011Y211012D01*
X249078Y210941D01*
X249148Y210872D01*
X249221Y210806D01*
X249296Y210743D01*
X249374Y210683D01*
X249454Y210626D01*
X249536Y210573D01*
X249621Y210523D01*
X249707Y210476D01*
X249795Y210432D01*
X249885Y210393D01*
X249976Y210356D01*
X250069Y210324D01*
X250163Y210295D01*
X250257Y210270D01*
X250353Y210249D01*
X250450Y210231D01*
X250547Y210218D01*
X250645Y210208D01*
X250743Y210202D01*
X250841Y210200D01*
X250841Y210199D02*
X253311Y210199D01*
X250347Y210199D02*
X248372Y206248D01*
X239522Y212916D02*
X239524Y213008D01*
X239530Y213100D01*
X239539Y213191D01*
X239552Y213282D01*
X239569Y213372D01*
X239590Y213462D01*
X239614Y213550D01*
X239642Y213638D01*
X239674Y213724D01*
X239709Y213809D01*
X239748Y213892D01*
X239790Y213974D01*
X239835Y214054D01*
X239884Y214132D01*
X239936Y214208D01*
X239991Y214281D01*
X240049Y214353D01*
X240109Y214422D01*
X240173Y214488D01*
X240239Y214552D01*
X240308Y214612D01*
X240380Y214670D01*
X240453Y214725D01*
X240529Y214777D01*
X240607Y214826D01*
X240687Y214871D01*
X240769Y214913D01*
X240852Y214952D01*
X240937Y214987D01*
X241023Y215019D01*
X241111Y215047D01*
X241199Y215071D01*
X241289Y215092D01*
X241379Y215109D01*
X241470Y215122D01*
X241561Y215131D01*
X241653Y215137D01*
X241745Y215139D01*
X241745Y215138D02*
X241851Y215136D01*
X241956Y215130D01*
X242061Y215120D01*
X242166Y215107D01*
X242270Y215089D01*
X242373Y215068D01*
X242476Y215043D01*
X242578Y215014D01*
X242678Y214981D01*
X242777Y214945D01*
X242875Y214905D01*
X242971Y214861D01*
X243066Y214814D01*
X243158Y214764D01*
X243249Y214710D01*
X243338Y214652D01*
X243424Y214592D01*
X243508Y214528D01*
X243590Y214462D01*
X243670Y214392D01*
X243746Y214319D01*
X243820Y214244D01*
X243891Y214166D01*
X243959Y214085D01*
X244025Y214002D01*
X244087Y213916D01*
X244145Y213829D01*
X244201Y213739D01*
X244253Y213647D01*
X244302Y213553D01*
X244347Y213458D01*
X244389Y213361D01*
X244427Y213262D01*
X244461Y213163D01*
X240263Y211187D02*
X240194Y211256D01*
X240128Y211326D01*
X240065Y211400D01*
X240006Y211476D01*
X239949Y211554D01*
X239895Y211634D01*
X239845Y211717D01*
X239798Y211801D01*
X239755Y211888D01*
X239715Y211976D01*
X239679Y212065D01*
X239646Y212156D01*
X239617Y212248D01*
X239592Y212342D01*
X239571Y212436D01*
X239553Y212531D01*
X239540Y212627D01*
X239530Y212723D01*
X239524Y212819D01*
X239522Y212916D01*
X240263Y211187D02*
X244461Y206248D01*
X239522Y206248D01*
X219202Y209042D02*
X210312Y209042D01*
X219202Y209042D02*
X219202Y211511D01*
X219200Y211609D01*
X219194Y211707D01*
X219184Y211805D01*
X219171Y211902D01*
X219153Y211999D01*
X219132Y212095D01*
X219107Y212189D01*
X219078Y212283D01*
X219046Y212376D01*
X219009Y212467D01*
X218970Y212557D01*
X218926Y212645D01*
X218879Y212731D01*
X218829Y212816D01*
X218776Y212898D01*
X218719Y212978D01*
X218659Y213056D01*
X218596Y213131D01*
X218530Y213204D01*
X218461Y213274D01*
X218390Y213341D01*
X218316Y213406D01*
X218239Y213467D01*
X218160Y213526D01*
X218079Y213581D01*
X217996Y213633D01*
X217910Y213681D01*
X217823Y213726D01*
X217734Y213768D01*
X217644Y213806D01*
X217552Y213840D01*
X217459Y213871D01*
X217364Y213898D01*
X217269Y213921D01*
X217172Y213941D01*
X217076Y213956D01*
X216978Y213968D01*
X216880Y213976D01*
X216782Y213980D01*
X216684Y213980D01*
X216586Y213976D01*
X216488Y213968D01*
X216390Y213956D01*
X216294Y213941D01*
X216197Y213921D01*
X216102Y213898D01*
X216007Y213871D01*
X215914Y213840D01*
X215822Y213806D01*
X215732Y213768D01*
X215643Y213726D01*
X215556Y213681D01*
X215470Y213633D01*
X215387Y213581D01*
X215306Y213526D01*
X215227Y213467D01*
X215150Y213406D01*
X215076Y213341D01*
X215005Y213274D01*
X214936Y213204D01*
X214870Y213131D01*
X214807Y213056D01*
X214747Y212978D01*
X214690Y212898D01*
X214637Y212816D01*
X214587Y212731D01*
X214540Y212645D01*
X214496Y212557D01*
X214457Y212467D01*
X214420Y212376D01*
X214388Y212283D01*
X214359Y212189D01*
X214334Y212095D01*
X214313Y211999D01*
X214295Y211902D01*
X214282Y211805D01*
X214272Y211707D01*
X214266Y211609D01*
X214264Y211511D01*
X214263Y211511D02*
X214263Y209042D01*
X214263Y212005D02*
X210312Y213981D01*
X210312Y217892D02*
X210312Y220361D01*
X210314Y220459D01*
X210320Y220557D01*
X210330Y220655D01*
X210343Y220752D01*
X210361Y220849D01*
X210382Y220945D01*
X210407Y221039D01*
X210436Y221133D01*
X210468Y221226D01*
X210505Y221317D01*
X210544Y221407D01*
X210588Y221495D01*
X210635Y221581D01*
X210685Y221666D01*
X210738Y221748D01*
X210795Y221828D01*
X210855Y221906D01*
X210918Y221981D01*
X210984Y222054D01*
X211053Y222124D01*
X211124Y222191D01*
X211198Y222256D01*
X211275Y222317D01*
X211354Y222376D01*
X211435Y222431D01*
X211518Y222483D01*
X211604Y222531D01*
X211691Y222576D01*
X211780Y222618D01*
X211870Y222656D01*
X211962Y222690D01*
X212055Y222721D01*
X212150Y222748D01*
X212245Y222771D01*
X212342Y222791D01*
X212438Y222806D01*
X212536Y222818D01*
X212634Y222826D01*
X212732Y222830D01*
X212830Y222830D01*
X212928Y222826D01*
X213026Y222818D01*
X213124Y222806D01*
X213220Y222791D01*
X213317Y222771D01*
X213412Y222748D01*
X213507Y222721D01*
X213600Y222690D01*
X213692Y222656D01*
X213782Y222618D01*
X213871Y222576D01*
X213958Y222531D01*
X214044Y222483D01*
X214127Y222431D01*
X214208Y222376D01*
X214287Y222317D01*
X214364Y222256D01*
X214438Y222191D01*
X214509Y222124D01*
X214578Y222054D01*
X214644Y221981D01*
X214707Y221906D01*
X214767Y221828D01*
X214824Y221748D01*
X214877Y221666D01*
X214927Y221581D01*
X214974Y221495D01*
X215018Y221407D01*
X215057Y221317D01*
X215094Y221226D01*
X215126Y221133D01*
X215155Y221039D01*
X215180Y220945D01*
X215201Y220849D01*
X215219Y220752D01*
X215232Y220655D01*
X215242Y220557D01*
X215248Y220459D01*
X215250Y220361D01*
X219202Y220855D02*
X219202Y217892D01*
X219202Y220855D02*
X219200Y220942D01*
X219194Y221030D01*
X219185Y221117D01*
X219171Y221203D01*
X219154Y221289D01*
X219133Y221373D01*
X219108Y221457D01*
X219079Y221540D01*
X219047Y221621D01*
X219012Y221701D01*
X218973Y221779D01*
X218930Y221856D01*
X218884Y221930D01*
X218835Y222002D01*
X218783Y222072D01*
X218727Y222140D01*
X218669Y222205D01*
X218608Y222268D01*
X218544Y222327D01*
X218477Y222384D01*
X218409Y222438D01*
X218337Y222489D01*
X218264Y222536D01*
X218189Y222581D01*
X218111Y222622D01*
X218032Y222659D01*
X217952Y222693D01*
X217870Y222723D01*
X217787Y222750D01*
X217702Y222773D01*
X217617Y222792D01*
X217531Y222807D01*
X217444Y222819D01*
X217357Y222827D01*
X217270Y222831D01*
X217182Y222831D01*
X217095Y222827D01*
X217008Y222819D01*
X216921Y222807D01*
X216835Y222792D01*
X216750Y222773D01*
X216665Y222750D01*
X216582Y222723D01*
X216500Y222693D01*
X216420Y222659D01*
X216341Y222622D01*
X216263Y222581D01*
X216188Y222536D01*
X216115Y222489D01*
X216043Y222438D01*
X215975Y222384D01*
X215908Y222327D01*
X215844Y222268D01*
X215783Y222205D01*
X215725Y222140D01*
X215669Y222072D01*
X215617Y222002D01*
X215568Y221930D01*
X215522Y221856D01*
X215479Y221779D01*
X215440Y221701D01*
X215405Y221621D01*
X215373Y221540D01*
X215344Y221457D01*
X215319Y221373D01*
X215298Y221289D01*
X215281Y221203D01*
X215267Y221117D01*
X215258Y221030D01*
X215252Y220942D01*
X215250Y220855D01*
X215251Y220855D02*
X215251Y218880D01*
X213941Y241808D02*
X213941Y250698D01*
X211471Y250698D01*
X211373Y250696D01*
X211275Y250690D01*
X211177Y250680D01*
X211080Y250667D01*
X210983Y250649D01*
X210887Y250628D01*
X210793Y250603D01*
X210699Y250574D01*
X210606Y250542D01*
X210515Y250505D01*
X210425Y250466D01*
X210337Y250422D01*
X210251Y250375D01*
X210166Y250325D01*
X210084Y250272D01*
X210004Y250215D01*
X209926Y250155D01*
X209851Y250092D01*
X209778Y250026D01*
X209708Y249957D01*
X209641Y249886D01*
X209576Y249812D01*
X209515Y249735D01*
X209456Y249656D01*
X209401Y249575D01*
X209349Y249492D01*
X209301Y249406D01*
X209256Y249319D01*
X209214Y249230D01*
X209176Y249140D01*
X209142Y249048D01*
X209111Y248955D01*
X209084Y248860D01*
X209061Y248765D01*
X209041Y248668D01*
X209026Y248572D01*
X209014Y248474D01*
X209006Y248376D01*
X209002Y248278D01*
X209002Y248180D01*
X209006Y248082D01*
X209014Y247984D01*
X209026Y247886D01*
X209041Y247790D01*
X209061Y247693D01*
X209084Y247598D01*
X209111Y247503D01*
X209142Y247410D01*
X209176Y247318D01*
X209214Y247228D01*
X209256Y247139D01*
X209301Y247052D01*
X209349Y246966D01*
X209401Y246883D01*
X209456Y246802D01*
X209515Y246723D01*
X209576Y246646D01*
X209641Y246572D01*
X209708Y246501D01*
X209778Y246432D01*
X209851Y246366D01*
X209926Y246303D01*
X210004Y246243D01*
X210084Y246186D01*
X210166Y246133D01*
X210251Y246083D01*
X210337Y246036D01*
X210425Y245992D01*
X210515Y245953D01*
X210606Y245916D01*
X210699Y245884D01*
X210793Y245855D01*
X210887Y245830D01*
X210983Y245809D01*
X211080Y245791D01*
X211177Y245778D01*
X211275Y245768D01*
X211373Y245762D01*
X211471Y245760D01*
X211471Y245759D02*
X213941Y245759D01*
X210977Y245759D02*
X209002Y241808D01*
X205091Y243784D02*
X203115Y250698D01*
X205091Y243784D02*
X200152Y243784D01*
X201634Y245759D02*
X201634Y241808D01*
X307921Y292608D02*
X307921Y301498D01*
X305451Y301498D01*
X305353Y301496D01*
X305255Y301490D01*
X305157Y301480D01*
X305060Y301467D01*
X304963Y301449D01*
X304867Y301428D01*
X304773Y301403D01*
X304679Y301374D01*
X304586Y301342D01*
X304495Y301305D01*
X304405Y301266D01*
X304317Y301222D01*
X304231Y301175D01*
X304146Y301125D01*
X304064Y301072D01*
X303984Y301015D01*
X303906Y300955D01*
X303831Y300892D01*
X303758Y300826D01*
X303688Y300757D01*
X303621Y300686D01*
X303556Y300612D01*
X303495Y300535D01*
X303436Y300456D01*
X303381Y300375D01*
X303329Y300292D01*
X303281Y300206D01*
X303236Y300119D01*
X303194Y300030D01*
X303156Y299940D01*
X303122Y299848D01*
X303091Y299755D01*
X303064Y299660D01*
X303041Y299565D01*
X303021Y299468D01*
X303006Y299372D01*
X302994Y299274D01*
X302986Y299176D01*
X302982Y299078D01*
X302982Y298980D01*
X302986Y298882D01*
X302994Y298784D01*
X303006Y298686D01*
X303021Y298590D01*
X303041Y298493D01*
X303064Y298398D01*
X303091Y298303D01*
X303122Y298210D01*
X303156Y298118D01*
X303194Y298028D01*
X303236Y297939D01*
X303281Y297852D01*
X303329Y297766D01*
X303381Y297683D01*
X303436Y297602D01*
X303495Y297523D01*
X303556Y297446D01*
X303621Y297372D01*
X303688Y297301D01*
X303758Y297232D01*
X303831Y297166D01*
X303906Y297103D01*
X303984Y297043D01*
X304064Y296986D01*
X304146Y296933D01*
X304231Y296883D01*
X304317Y296836D01*
X304405Y296792D01*
X304495Y296753D01*
X304586Y296716D01*
X304679Y296684D01*
X304773Y296655D01*
X304867Y296630D01*
X304963Y296609D01*
X305060Y296591D01*
X305157Y296578D01*
X305255Y296568D01*
X305353Y296562D01*
X305451Y296560D01*
X305451Y296559D02*
X307921Y296559D01*
X304957Y296559D02*
X302982Y292608D01*
X299071Y292608D02*
X296108Y292608D01*
X296019Y292610D01*
X295931Y292616D01*
X295843Y292626D01*
X295755Y292640D01*
X295668Y292658D01*
X295582Y292679D01*
X295497Y292705D01*
X295414Y292734D01*
X295331Y292767D01*
X295251Y292804D01*
X295172Y292844D01*
X295095Y292888D01*
X295019Y292935D01*
X294947Y292985D01*
X294876Y293039D01*
X294808Y293096D01*
X294742Y293156D01*
X294680Y293218D01*
X294620Y293284D01*
X294563Y293352D01*
X294509Y293423D01*
X294459Y293495D01*
X294412Y293570D01*
X294368Y293648D01*
X294328Y293727D01*
X294291Y293807D01*
X294258Y293890D01*
X294229Y293973D01*
X294203Y294058D01*
X294182Y294144D01*
X294164Y294231D01*
X294150Y294319D01*
X294140Y294407D01*
X294134Y294495D01*
X294132Y294584D01*
X294132Y295571D01*
X294134Y295657D01*
X294140Y295743D01*
X294149Y295829D01*
X294162Y295914D01*
X294179Y295999D01*
X294199Y296082D01*
X294223Y296165D01*
X294251Y296247D01*
X294282Y296327D01*
X294317Y296406D01*
X294355Y296483D01*
X294397Y296559D01*
X294441Y296633D01*
X294489Y296704D01*
X294540Y296774D01*
X294594Y296841D01*
X294651Y296906D01*
X294711Y296968D01*
X294773Y297028D01*
X294838Y297085D01*
X294905Y297139D01*
X294975Y297190D01*
X295046Y297238D01*
X295120Y297282D01*
X295196Y297324D01*
X295273Y297362D01*
X295352Y297397D01*
X295432Y297428D01*
X295514Y297456D01*
X295597Y297480D01*
X295680Y297500D01*
X295765Y297517D01*
X295850Y297530D01*
X295936Y297539D01*
X296022Y297545D01*
X296108Y297547D01*
X299071Y297547D01*
X299071Y301498D01*
X294132Y301498D01*
X281178Y301752D02*
X281178Y292862D01*
X281178Y301752D02*
X278709Y301752D01*
X278611Y301750D01*
X278513Y301744D01*
X278415Y301734D01*
X278318Y301721D01*
X278221Y301703D01*
X278125Y301682D01*
X278031Y301657D01*
X277937Y301628D01*
X277844Y301596D01*
X277753Y301559D01*
X277663Y301520D01*
X277575Y301476D01*
X277489Y301429D01*
X277404Y301379D01*
X277322Y301326D01*
X277242Y301269D01*
X277164Y301209D01*
X277089Y301146D01*
X277016Y301080D01*
X276946Y301011D01*
X276879Y300940D01*
X276814Y300866D01*
X276753Y300789D01*
X276694Y300710D01*
X276639Y300629D01*
X276587Y300546D01*
X276539Y300460D01*
X276494Y300373D01*
X276452Y300284D01*
X276414Y300194D01*
X276380Y300102D01*
X276349Y300009D01*
X276322Y299914D01*
X276299Y299819D01*
X276279Y299722D01*
X276264Y299626D01*
X276252Y299528D01*
X276244Y299430D01*
X276240Y299332D01*
X276240Y299234D01*
X276244Y299136D01*
X276252Y299038D01*
X276264Y298940D01*
X276279Y298844D01*
X276299Y298747D01*
X276322Y298652D01*
X276349Y298557D01*
X276380Y298464D01*
X276414Y298372D01*
X276452Y298282D01*
X276494Y298193D01*
X276539Y298106D01*
X276587Y298020D01*
X276639Y297937D01*
X276694Y297856D01*
X276753Y297777D01*
X276814Y297700D01*
X276879Y297626D01*
X276946Y297555D01*
X277016Y297486D01*
X277089Y297420D01*
X277164Y297357D01*
X277242Y297297D01*
X277322Y297240D01*
X277404Y297187D01*
X277489Y297137D01*
X277575Y297090D01*
X277663Y297046D01*
X277753Y297007D01*
X277844Y296970D01*
X277937Y296938D01*
X278031Y296909D01*
X278125Y296884D01*
X278221Y296863D01*
X278318Y296845D01*
X278415Y296832D01*
X278513Y296822D01*
X278611Y296816D01*
X278709Y296814D01*
X278709Y296813D02*
X281178Y296813D01*
X278215Y296813D02*
X276239Y292862D01*
X272328Y297801D02*
X269365Y297801D01*
X269279Y297799D01*
X269193Y297793D01*
X269107Y297784D01*
X269022Y297771D01*
X268937Y297754D01*
X268854Y297734D01*
X268771Y297710D01*
X268689Y297682D01*
X268609Y297651D01*
X268530Y297616D01*
X268453Y297578D01*
X268377Y297536D01*
X268303Y297492D01*
X268232Y297444D01*
X268162Y297393D01*
X268095Y297339D01*
X268030Y297282D01*
X267968Y297222D01*
X267908Y297160D01*
X267851Y297095D01*
X267797Y297028D01*
X267746Y296958D01*
X267698Y296887D01*
X267654Y296813D01*
X267612Y296737D01*
X267574Y296660D01*
X267539Y296581D01*
X267508Y296501D01*
X267480Y296419D01*
X267456Y296336D01*
X267436Y296253D01*
X267419Y296168D01*
X267406Y296083D01*
X267397Y295997D01*
X267391Y295911D01*
X267389Y295825D01*
X267389Y295331D01*
X267390Y295331D02*
X267392Y295233D01*
X267398Y295135D01*
X267408Y295037D01*
X267421Y294940D01*
X267439Y294843D01*
X267460Y294747D01*
X267485Y294653D01*
X267514Y294559D01*
X267546Y294466D01*
X267583Y294375D01*
X267622Y294285D01*
X267666Y294197D01*
X267713Y294111D01*
X267763Y294026D01*
X267816Y293944D01*
X267873Y293864D01*
X267933Y293786D01*
X267996Y293711D01*
X268062Y293638D01*
X268131Y293568D01*
X268202Y293501D01*
X268276Y293436D01*
X268353Y293375D01*
X268432Y293316D01*
X268513Y293261D01*
X268596Y293209D01*
X268682Y293161D01*
X268769Y293116D01*
X268858Y293074D01*
X268948Y293036D01*
X269040Y293002D01*
X269133Y292971D01*
X269228Y292944D01*
X269323Y292921D01*
X269420Y292901D01*
X269516Y292886D01*
X269614Y292874D01*
X269712Y292866D01*
X269810Y292862D01*
X269908Y292862D01*
X270006Y292866D01*
X270104Y292874D01*
X270202Y292886D01*
X270298Y292901D01*
X270395Y292921D01*
X270490Y292944D01*
X270585Y292971D01*
X270678Y293002D01*
X270770Y293036D01*
X270860Y293074D01*
X270949Y293116D01*
X271036Y293161D01*
X271122Y293209D01*
X271205Y293261D01*
X271286Y293316D01*
X271365Y293375D01*
X271442Y293436D01*
X271516Y293501D01*
X271587Y293568D01*
X271656Y293638D01*
X271722Y293711D01*
X271785Y293786D01*
X271845Y293864D01*
X271902Y293944D01*
X271955Y294026D01*
X272005Y294111D01*
X272052Y294197D01*
X272096Y294285D01*
X272135Y294375D01*
X272172Y294466D01*
X272204Y294559D01*
X272233Y294653D01*
X272258Y294747D01*
X272279Y294843D01*
X272297Y294940D01*
X272310Y295037D01*
X272320Y295135D01*
X272326Y295233D01*
X272328Y295331D01*
X272328Y297801D01*
X272326Y297925D01*
X272320Y298049D01*
X272310Y298173D01*
X272297Y298296D01*
X272279Y298419D01*
X272258Y298541D01*
X272233Y298663D01*
X272204Y298784D01*
X272171Y298903D01*
X272135Y299022D01*
X272094Y299139D01*
X272051Y299255D01*
X272003Y299370D01*
X271952Y299483D01*
X271897Y299595D01*
X271839Y299704D01*
X271778Y299812D01*
X271713Y299918D01*
X271645Y300022D01*
X271573Y300123D01*
X271499Y300223D01*
X271421Y300319D01*
X271341Y300414D01*
X271257Y300506D01*
X271171Y300595D01*
X271082Y300681D01*
X270990Y300765D01*
X270895Y300845D01*
X270799Y300923D01*
X270699Y300997D01*
X270598Y301069D01*
X270494Y301137D01*
X270388Y301202D01*
X270280Y301263D01*
X270171Y301321D01*
X270059Y301376D01*
X269946Y301427D01*
X269832Y301475D01*
X269715Y301518D01*
X269598Y301559D01*
X269479Y301595D01*
X269360Y301628D01*
X269239Y301657D01*
X269117Y301682D01*
X268995Y301703D01*
X268872Y301721D01*
X268749Y301734D01*
X268625Y301744D01*
X268501Y301750D01*
X268377Y301752D01*
X212671Y264668D02*
X212671Y255778D01*
X212671Y264668D02*
X210201Y264668D01*
X210103Y264666D01*
X210005Y264660D01*
X209907Y264650D01*
X209810Y264637D01*
X209713Y264619D01*
X209617Y264598D01*
X209523Y264573D01*
X209429Y264544D01*
X209336Y264512D01*
X209245Y264475D01*
X209155Y264436D01*
X209067Y264392D01*
X208981Y264345D01*
X208896Y264295D01*
X208814Y264242D01*
X208734Y264185D01*
X208656Y264125D01*
X208581Y264062D01*
X208508Y263996D01*
X208438Y263927D01*
X208371Y263856D01*
X208306Y263782D01*
X208245Y263705D01*
X208186Y263626D01*
X208131Y263545D01*
X208079Y263462D01*
X208031Y263376D01*
X207986Y263289D01*
X207944Y263200D01*
X207906Y263110D01*
X207872Y263018D01*
X207841Y262925D01*
X207814Y262830D01*
X207791Y262735D01*
X207771Y262638D01*
X207756Y262542D01*
X207744Y262444D01*
X207736Y262346D01*
X207732Y262248D01*
X207732Y262150D01*
X207736Y262052D01*
X207744Y261954D01*
X207756Y261856D01*
X207771Y261760D01*
X207791Y261663D01*
X207814Y261568D01*
X207841Y261473D01*
X207872Y261380D01*
X207906Y261288D01*
X207944Y261198D01*
X207986Y261109D01*
X208031Y261022D01*
X208079Y260936D01*
X208131Y260853D01*
X208186Y260772D01*
X208245Y260693D01*
X208306Y260616D01*
X208371Y260542D01*
X208438Y260471D01*
X208508Y260402D01*
X208581Y260336D01*
X208656Y260273D01*
X208734Y260213D01*
X208814Y260156D01*
X208896Y260103D01*
X208981Y260053D01*
X209067Y260006D01*
X209155Y259962D01*
X209245Y259923D01*
X209336Y259886D01*
X209429Y259854D01*
X209523Y259825D01*
X209617Y259800D01*
X209713Y259779D01*
X209810Y259761D01*
X209907Y259748D01*
X210005Y259738D01*
X210103Y259732D01*
X210201Y259730D01*
X210201Y259729D02*
X212671Y259729D01*
X209707Y259729D02*
X207732Y255778D01*
X203821Y263680D02*
X203821Y264668D01*
X198882Y264668D01*
X201351Y255778D01*
X199898Y273739D02*
X208788Y273739D01*
X208788Y276209D01*
X208786Y276307D01*
X208780Y276405D01*
X208770Y276503D01*
X208757Y276600D01*
X208739Y276697D01*
X208718Y276793D01*
X208693Y276887D01*
X208664Y276981D01*
X208632Y277074D01*
X208595Y277165D01*
X208556Y277255D01*
X208512Y277343D01*
X208465Y277429D01*
X208415Y277514D01*
X208362Y277596D01*
X208305Y277676D01*
X208245Y277754D01*
X208182Y277829D01*
X208116Y277902D01*
X208047Y277972D01*
X207976Y278039D01*
X207902Y278104D01*
X207825Y278165D01*
X207746Y278224D01*
X207665Y278279D01*
X207582Y278331D01*
X207496Y278379D01*
X207409Y278424D01*
X207320Y278466D01*
X207230Y278504D01*
X207138Y278538D01*
X207045Y278569D01*
X206950Y278596D01*
X206855Y278619D01*
X206758Y278639D01*
X206662Y278654D01*
X206564Y278666D01*
X206466Y278674D01*
X206368Y278678D01*
X206270Y278678D01*
X206172Y278674D01*
X206074Y278666D01*
X205976Y278654D01*
X205880Y278639D01*
X205783Y278619D01*
X205688Y278596D01*
X205593Y278569D01*
X205500Y278538D01*
X205408Y278504D01*
X205318Y278466D01*
X205229Y278424D01*
X205142Y278379D01*
X205056Y278331D01*
X204973Y278279D01*
X204892Y278224D01*
X204813Y278165D01*
X204736Y278104D01*
X204662Y278039D01*
X204591Y277972D01*
X204522Y277902D01*
X204456Y277829D01*
X204393Y277754D01*
X204333Y277676D01*
X204276Y277596D01*
X204223Y277514D01*
X204173Y277429D01*
X204126Y277343D01*
X204082Y277255D01*
X204043Y277165D01*
X204006Y277074D01*
X203974Y276981D01*
X203945Y276887D01*
X203920Y276793D01*
X203899Y276697D01*
X203881Y276600D01*
X203868Y276503D01*
X203858Y276405D01*
X203852Y276307D01*
X203850Y276209D01*
X203849Y276209D02*
X203849Y273739D01*
X203849Y276703D02*
X199898Y278678D01*
X202367Y282590D02*
X202465Y282592D01*
X202563Y282598D01*
X202661Y282608D01*
X202758Y282621D01*
X202855Y282639D01*
X202951Y282660D01*
X203045Y282685D01*
X203139Y282714D01*
X203232Y282746D01*
X203323Y282783D01*
X203413Y282822D01*
X203501Y282866D01*
X203587Y282913D01*
X203672Y282963D01*
X203754Y283016D01*
X203834Y283073D01*
X203912Y283133D01*
X203987Y283196D01*
X204060Y283262D01*
X204130Y283331D01*
X204197Y283402D01*
X204262Y283476D01*
X204323Y283553D01*
X204382Y283632D01*
X204437Y283713D01*
X204489Y283796D01*
X204537Y283882D01*
X204582Y283969D01*
X204624Y284058D01*
X204662Y284148D01*
X204696Y284240D01*
X204727Y284333D01*
X204754Y284428D01*
X204777Y284523D01*
X204797Y284620D01*
X204812Y284716D01*
X204824Y284814D01*
X204832Y284912D01*
X204836Y285010D01*
X204836Y285108D01*
X204832Y285206D01*
X204824Y285304D01*
X204812Y285402D01*
X204797Y285498D01*
X204777Y285595D01*
X204754Y285690D01*
X204727Y285785D01*
X204696Y285878D01*
X204662Y285970D01*
X204624Y286060D01*
X204582Y286149D01*
X204537Y286236D01*
X204489Y286322D01*
X204437Y286405D01*
X204382Y286486D01*
X204323Y286565D01*
X204262Y286642D01*
X204197Y286716D01*
X204130Y286787D01*
X204060Y286856D01*
X203987Y286922D01*
X203912Y286985D01*
X203834Y287045D01*
X203754Y287102D01*
X203672Y287155D01*
X203587Y287205D01*
X203501Y287252D01*
X203413Y287296D01*
X203323Y287335D01*
X203232Y287372D01*
X203139Y287404D01*
X203045Y287433D01*
X202951Y287458D01*
X202855Y287479D01*
X202758Y287497D01*
X202661Y287510D01*
X202563Y287520D01*
X202465Y287526D01*
X202367Y287528D01*
X202269Y287526D01*
X202171Y287520D01*
X202073Y287510D01*
X201976Y287497D01*
X201879Y287479D01*
X201783Y287458D01*
X201689Y287433D01*
X201595Y287404D01*
X201502Y287372D01*
X201411Y287335D01*
X201321Y287296D01*
X201233Y287252D01*
X201147Y287205D01*
X201062Y287155D01*
X200980Y287102D01*
X200900Y287045D01*
X200822Y286985D01*
X200747Y286922D01*
X200674Y286856D01*
X200604Y286787D01*
X200537Y286716D01*
X200472Y286642D01*
X200411Y286565D01*
X200352Y286486D01*
X200297Y286405D01*
X200245Y286322D01*
X200197Y286236D01*
X200152Y286149D01*
X200110Y286060D01*
X200072Y285970D01*
X200038Y285878D01*
X200007Y285785D01*
X199980Y285690D01*
X199957Y285595D01*
X199937Y285498D01*
X199922Y285402D01*
X199910Y285304D01*
X199902Y285206D01*
X199898Y285108D01*
X199898Y285010D01*
X199902Y284912D01*
X199910Y284814D01*
X199922Y284716D01*
X199937Y284620D01*
X199957Y284523D01*
X199980Y284428D01*
X200007Y284333D01*
X200038Y284240D01*
X200072Y284148D01*
X200110Y284058D01*
X200152Y283969D01*
X200197Y283882D01*
X200245Y283796D01*
X200297Y283713D01*
X200352Y283632D01*
X200411Y283553D01*
X200472Y283476D01*
X200537Y283402D01*
X200604Y283331D01*
X200674Y283262D01*
X200747Y283196D01*
X200822Y283133D01*
X200900Y283073D01*
X200980Y283016D01*
X201062Y282963D01*
X201147Y282913D01*
X201233Y282866D01*
X201321Y282822D01*
X201411Y282783D01*
X201502Y282746D01*
X201595Y282714D01*
X201689Y282685D01*
X201783Y282660D01*
X201879Y282639D01*
X201976Y282621D01*
X202073Y282608D01*
X202171Y282598D01*
X202269Y282592D01*
X202367Y282590D01*
X206812Y283083D02*
X206899Y283085D01*
X206987Y283091D01*
X207074Y283100D01*
X207160Y283114D01*
X207246Y283131D01*
X207330Y283152D01*
X207414Y283177D01*
X207497Y283206D01*
X207578Y283238D01*
X207658Y283273D01*
X207736Y283312D01*
X207813Y283355D01*
X207887Y283401D01*
X207959Y283450D01*
X208029Y283502D01*
X208097Y283558D01*
X208162Y283616D01*
X208225Y283677D01*
X208284Y283741D01*
X208341Y283808D01*
X208395Y283876D01*
X208446Y283948D01*
X208493Y284021D01*
X208538Y284096D01*
X208579Y284174D01*
X208616Y284253D01*
X208650Y284333D01*
X208680Y284415D01*
X208707Y284498D01*
X208730Y284583D01*
X208749Y284668D01*
X208764Y284754D01*
X208776Y284841D01*
X208784Y284928D01*
X208788Y285015D01*
X208788Y285103D01*
X208784Y285190D01*
X208776Y285277D01*
X208764Y285364D01*
X208749Y285450D01*
X208730Y285535D01*
X208707Y285620D01*
X208680Y285703D01*
X208650Y285785D01*
X208616Y285865D01*
X208579Y285944D01*
X208538Y286022D01*
X208493Y286097D01*
X208446Y286170D01*
X208395Y286242D01*
X208341Y286310D01*
X208284Y286377D01*
X208225Y286441D01*
X208162Y286502D01*
X208097Y286560D01*
X208029Y286616D01*
X207959Y286668D01*
X207887Y286717D01*
X207813Y286763D01*
X207736Y286806D01*
X207658Y286845D01*
X207578Y286880D01*
X207497Y286912D01*
X207414Y286941D01*
X207330Y286966D01*
X207246Y286987D01*
X207160Y287004D01*
X207074Y287018D01*
X206987Y287027D01*
X206899Y287033D01*
X206812Y287035D01*
X206725Y287033D01*
X206637Y287027D01*
X206550Y287018D01*
X206464Y287004D01*
X206378Y286987D01*
X206294Y286966D01*
X206210Y286941D01*
X206127Y286912D01*
X206046Y286880D01*
X205966Y286845D01*
X205888Y286806D01*
X205811Y286763D01*
X205737Y286717D01*
X205665Y286668D01*
X205595Y286616D01*
X205527Y286560D01*
X205462Y286502D01*
X205399Y286441D01*
X205340Y286377D01*
X205283Y286310D01*
X205229Y286242D01*
X205178Y286170D01*
X205131Y286097D01*
X205086Y286022D01*
X205045Y285944D01*
X205008Y285865D01*
X204974Y285785D01*
X204944Y285703D01*
X204917Y285620D01*
X204894Y285535D01*
X204875Y285450D01*
X204860Y285364D01*
X204848Y285277D01*
X204840Y285190D01*
X204836Y285103D01*
X204836Y285015D01*
X204840Y284928D01*
X204848Y284841D01*
X204860Y284754D01*
X204875Y284668D01*
X204894Y284583D01*
X204917Y284498D01*
X204944Y284415D01*
X204974Y284333D01*
X205008Y284253D01*
X205045Y284174D01*
X205086Y284096D01*
X205131Y284021D01*
X205178Y283948D01*
X205229Y283876D01*
X205283Y283808D01*
X205340Y283741D01*
X205399Y283677D01*
X205462Y283616D01*
X205527Y283558D01*
X205595Y283502D01*
X205665Y283450D01*
X205737Y283401D01*
X205811Y283355D01*
X205888Y283312D01*
X205966Y283273D01*
X206046Y283238D01*
X206127Y283206D01*
X206210Y283177D01*
X206294Y283152D01*
X206378Y283131D01*
X206464Y283114D01*
X206550Y283100D01*
X206637Y283091D01*
X206725Y283085D01*
X206812Y283083D01*
D11*
X186055Y279363D02*
X186055Y276823D01*
X186057Y276723D01*
X186063Y276624D01*
X186073Y276524D01*
X186086Y276426D01*
X186104Y276327D01*
X186125Y276230D01*
X186150Y276134D01*
X186179Y276038D01*
X186212Y275944D01*
X186248Y275851D01*
X186288Y275760D01*
X186332Y275670D01*
X186379Y275582D01*
X186429Y275496D01*
X186483Y275412D01*
X186540Y275330D01*
X186600Y275251D01*
X186664Y275173D01*
X186730Y275099D01*
X186799Y275027D01*
X186871Y274958D01*
X186945Y274892D01*
X187023Y274828D01*
X187102Y274768D01*
X187184Y274711D01*
X187268Y274657D01*
X187354Y274607D01*
X187442Y274560D01*
X187532Y274516D01*
X187623Y274476D01*
X187716Y274440D01*
X187810Y274407D01*
X187906Y274378D01*
X188002Y274353D01*
X188099Y274332D01*
X188198Y274314D01*
X188296Y274301D01*
X188396Y274291D01*
X188495Y274285D01*
X188595Y274283D01*
X194945Y274283D01*
X195045Y274285D01*
X195144Y274291D01*
X195244Y274301D01*
X195342Y274314D01*
X195441Y274332D01*
X195538Y274353D01*
X195634Y274378D01*
X195730Y274407D01*
X195824Y274440D01*
X195917Y274476D01*
X196008Y274516D01*
X196098Y274560D01*
X196186Y274607D01*
X196272Y274657D01*
X196356Y274711D01*
X196438Y274768D01*
X196517Y274828D01*
X196595Y274892D01*
X196669Y274958D01*
X196741Y275027D01*
X196810Y275099D01*
X196876Y275173D01*
X196940Y275251D01*
X197000Y275330D01*
X197057Y275412D01*
X197111Y275496D01*
X197161Y275582D01*
X197208Y275670D01*
X197252Y275760D01*
X197292Y275851D01*
X197328Y275944D01*
X197361Y276038D01*
X197390Y276134D01*
X197415Y276230D01*
X197436Y276327D01*
X197454Y276426D01*
X197467Y276524D01*
X197477Y276624D01*
X197483Y276723D01*
X197485Y276823D01*
X197485Y279363D01*
X194945Y283845D02*
X197485Y287020D01*
X186055Y287020D01*
X186055Y283845D02*
X186055Y290195D01*
X210185Y273685D02*
X210185Y271145D01*
X210187Y271045D01*
X210193Y270946D01*
X210203Y270846D01*
X210216Y270748D01*
X210234Y270649D01*
X210255Y270552D01*
X210280Y270456D01*
X210309Y270360D01*
X210342Y270266D01*
X210378Y270173D01*
X210418Y270082D01*
X210462Y269992D01*
X210509Y269904D01*
X210559Y269818D01*
X210613Y269734D01*
X210670Y269652D01*
X210730Y269573D01*
X210794Y269495D01*
X210860Y269421D01*
X210929Y269349D01*
X211001Y269280D01*
X211075Y269214D01*
X211153Y269150D01*
X211232Y269090D01*
X211314Y269033D01*
X211398Y268979D01*
X211484Y268929D01*
X211572Y268882D01*
X211662Y268838D01*
X211753Y268798D01*
X211846Y268762D01*
X211940Y268729D01*
X212036Y268700D01*
X212132Y268675D01*
X212229Y268654D01*
X212328Y268636D01*
X212426Y268623D01*
X212526Y268613D01*
X212625Y268607D01*
X212725Y268605D01*
X219075Y268605D01*
X219175Y268607D01*
X219274Y268613D01*
X219374Y268623D01*
X219472Y268636D01*
X219571Y268654D01*
X219668Y268675D01*
X219764Y268700D01*
X219860Y268729D01*
X219954Y268762D01*
X220047Y268798D01*
X220138Y268838D01*
X220228Y268882D01*
X220316Y268929D01*
X220402Y268979D01*
X220486Y269033D01*
X220568Y269090D01*
X220647Y269150D01*
X220725Y269214D01*
X220799Y269280D01*
X220871Y269349D01*
X220940Y269421D01*
X221006Y269495D01*
X221070Y269573D01*
X221130Y269652D01*
X221187Y269734D01*
X221241Y269818D01*
X221291Y269904D01*
X221338Y269992D01*
X221382Y270082D01*
X221422Y270173D01*
X221458Y270266D01*
X221491Y270360D01*
X221520Y270456D01*
X221545Y270552D01*
X221566Y270649D01*
X221584Y270748D01*
X221597Y270846D01*
X221607Y270946D01*
X221613Y271045D01*
X221615Y271145D01*
X221615Y273685D01*
X221616Y281660D02*
X221614Y281764D01*
X221608Y281869D01*
X221599Y281973D01*
X221586Y282076D01*
X221568Y282179D01*
X221548Y282281D01*
X221523Y282383D01*
X221495Y282483D01*
X221463Y282583D01*
X221427Y282681D01*
X221388Y282778D01*
X221346Y282873D01*
X221300Y282967D01*
X221250Y283059D01*
X221198Y283149D01*
X221142Y283237D01*
X221082Y283323D01*
X221020Y283407D01*
X220955Y283488D01*
X220887Y283567D01*
X220815Y283644D01*
X220742Y283717D01*
X220665Y283789D01*
X220586Y283857D01*
X220505Y283922D01*
X220421Y283984D01*
X220335Y284044D01*
X220247Y284100D01*
X220157Y284152D01*
X220065Y284202D01*
X219971Y284248D01*
X219876Y284290D01*
X219779Y284329D01*
X219681Y284365D01*
X219581Y284397D01*
X219481Y284425D01*
X219379Y284450D01*
X219277Y284470D01*
X219174Y284488D01*
X219071Y284501D01*
X218967Y284510D01*
X218862Y284516D01*
X218758Y284518D01*
X221615Y281660D02*
X221613Y281542D01*
X221607Y281423D01*
X221598Y281305D01*
X221585Y281188D01*
X221567Y281071D01*
X221547Y280954D01*
X221522Y280838D01*
X221494Y280723D01*
X221461Y280610D01*
X221426Y280497D01*
X221386Y280385D01*
X221344Y280275D01*
X221297Y280166D01*
X221247Y280058D01*
X221194Y279953D01*
X221137Y279849D01*
X221077Y279747D01*
X221014Y279647D01*
X220947Y279549D01*
X220878Y279453D01*
X220805Y279360D01*
X220729Y279269D01*
X220651Y279180D01*
X220569Y279094D01*
X220485Y279011D01*
X220399Y278930D01*
X220309Y278853D01*
X220218Y278778D01*
X220124Y278706D01*
X220027Y278637D01*
X219929Y278572D01*
X219828Y278509D01*
X219725Y278450D01*
X219621Y278394D01*
X219515Y278342D01*
X219407Y278293D01*
X219298Y278248D01*
X219187Y278206D01*
X219075Y278168D01*
X216536Y283565D02*
X216611Y283641D01*
X216690Y283716D01*
X216771Y283787D01*
X216855Y283856D01*
X216941Y283921D01*
X217029Y283983D01*
X217119Y284043D01*
X217211Y284099D01*
X217306Y284152D01*
X217402Y284201D01*
X217500Y284247D01*
X217599Y284290D01*
X217700Y284329D01*
X217802Y284364D01*
X217905Y284396D01*
X218009Y284424D01*
X218114Y284449D01*
X218221Y284470D01*
X218327Y284487D01*
X218434Y284500D01*
X218542Y284509D01*
X218650Y284515D01*
X218758Y284517D01*
X216535Y283565D02*
X210185Y278167D01*
X210185Y284517D01*
X278765Y203835D02*
X281305Y203835D01*
X281405Y203837D01*
X281504Y203843D01*
X281604Y203853D01*
X281702Y203866D01*
X281801Y203884D01*
X281898Y203905D01*
X281994Y203930D01*
X282090Y203959D01*
X282184Y203992D01*
X282277Y204028D01*
X282368Y204068D01*
X282458Y204112D01*
X282546Y204159D01*
X282632Y204209D01*
X282716Y204263D01*
X282798Y204320D01*
X282877Y204380D01*
X282955Y204444D01*
X283029Y204510D01*
X283101Y204579D01*
X283170Y204651D01*
X283236Y204725D01*
X283300Y204803D01*
X283360Y204882D01*
X283417Y204964D01*
X283471Y205048D01*
X283521Y205134D01*
X283568Y205222D01*
X283612Y205312D01*
X283652Y205403D01*
X283688Y205496D01*
X283721Y205590D01*
X283750Y205686D01*
X283775Y205782D01*
X283796Y205879D01*
X283814Y205978D01*
X283827Y206076D01*
X283837Y206176D01*
X283843Y206275D01*
X283845Y206375D01*
X283845Y212725D01*
X283843Y212825D01*
X283837Y212924D01*
X283827Y213024D01*
X283814Y213122D01*
X283796Y213221D01*
X283775Y213318D01*
X283750Y213414D01*
X283721Y213510D01*
X283688Y213604D01*
X283652Y213697D01*
X283612Y213788D01*
X283568Y213878D01*
X283521Y213966D01*
X283471Y214052D01*
X283417Y214136D01*
X283360Y214218D01*
X283300Y214297D01*
X283236Y214375D01*
X283170Y214449D01*
X283101Y214521D01*
X283029Y214590D01*
X282955Y214656D01*
X282877Y214720D01*
X282798Y214780D01*
X282716Y214837D01*
X282632Y214891D01*
X282546Y214941D01*
X282458Y214988D01*
X282368Y215032D01*
X282277Y215072D01*
X282184Y215108D01*
X282090Y215141D01*
X281994Y215170D01*
X281898Y215195D01*
X281801Y215216D01*
X281702Y215234D01*
X281604Y215247D01*
X281504Y215257D01*
X281405Y215263D01*
X281305Y215265D01*
X278765Y215265D01*
X274283Y203835D02*
X271108Y203835D01*
X270997Y203837D01*
X270887Y203843D01*
X270776Y203852D01*
X270666Y203866D01*
X270557Y203883D01*
X270448Y203904D01*
X270340Y203929D01*
X270233Y203958D01*
X270127Y203990D01*
X270022Y204026D01*
X269919Y204066D01*
X269817Y204109D01*
X269716Y204156D01*
X269617Y204207D01*
X269521Y204260D01*
X269426Y204317D01*
X269333Y204378D01*
X269242Y204441D01*
X269153Y204508D01*
X269067Y204578D01*
X268984Y204651D01*
X268902Y204726D01*
X268824Y204804D01*
X268749Y204886D01*
X268676Y204969D01*
X268606Y205055D01*
X268539Y205144D01*
X268476Y205235D01*
X268415Y205328D01*
X268358Y205423D01*
X268305Y205519D01*
X268254Y205618D01*
X268207Y205719D01*
X268164Y205821D01*
X268124Y205924D01*
X268088Y206029D01*
X268056Y206135D01*
X268027Y206242D01*
X268002Y206350D01*
X267981Y206459D01*
X267964Y206568D01*
X267950Y206678D01*
X267941Y206789D01*
X267935Y206899D01*
X267933Y207010D01*
X267935Y207121D01*
X267941Y207231D01*
X267950Y207342D01*
X267964Y207452D01*
X267981Y207561D01*
X268002Y207670D01*
X268027Y207778D01*
X268056Y207885D01*
X268088Y207991D01*
X268124Y208096D01*
X268164Y208199D01*
X268207Y208301D01*
X268254Y208402D01*
X268305Y208501D01*
X268358Y208598D01*
X268415Y208692D01*
X268476Y208785D01*
X268539Y208876D01*
X268606Y208965D01*
X268676Y209051D01*
X268749Y209134D01*
X268824Y209216D01*
X268902Y209294D01*
X268984Y209369D01*
X269067Y209442D01*
X269153Y209512D01*
X269242Y209579D01*
X269333Y209642D01*
X269426Y209703D01*
X269521Y209760D01*
X269617Y209813D01*
X269716Y209864D01*
X269817Y209911D01*
X269919Y209954D01*
X270022Y209994D01*
X270127Y210030D01*
X270233Y210062D01*
X270340Y210091D01*
X270448Y210116D01*
X270557Y210137D01*
X270666Y210154D01*
X270776Y210168D01*
X270887Y210177D01*
X270997Y210183D01*
X271108Y210185D01*
X270473Y215265D02*
X274283Y215265D01*
X270473Y215265D02*
X270373Y215263D01*
X270274Y215257D01*
X270174Y215247D01*
X270076Y215234D01*
X269977Y215216D01*
X269880Y215195D01*
X269784Y215170D01*
X269688Y215141D01*
X269594Y215108D01*
X269501Y215072D01*
X269410Y215032D01*
X269320Y214988D01*
X269232Y214941D01*
X269146Y214891D01*
X269062Y214837D01*
X268980Y214780D01*
X268901Y214720D01*
X268823Y214656D01*
X268749Y214590D01*
X268677Y214521D01*
X268608Y214449D01*
X268542Y214375D01*
X268478Y214297D01*
X268418Y214218D01*
X268361Y214136D01*
X268307Y214052D01*
X268257Y213966D01*
X268210Y213878D01*
X268166Y213788D01*
X268126Y213697D01*
X268090Y213604D01*
X268057Y213510D01*
X268028Y213414D01*
X268003Y213318D01*
X267982Y213221D01*
X267964Y213122D01*
X267951Y213024D01*
X267941Y212924D01*
X267935Y212825D01*
X267933Y212725D01*
X267935Y212625D01*
X267941Y212526D01*
X267951Y212426D01*
X267964Y212328D01*
X267982Y212229D01*
X268003Y212132D01*
X268028Y212036D01*
X268057Y211940D01*
X268090Y211846D01*
X268126Y211753D01*
X268166Y211662D01*
X268210Y211572D01*
X268257Y211484D01*
X268307Y211398D01*
X268361Y211314D01*
X268418Y211232D01*
X268478Y211153D01*
X268542Y211075D01*
X268608Y211001D01*
X268677Y210929D01*
X268749Y210860D01*
X268823Y210794D01*
X268901Y210730D01*
X268980Y210670D01*
X269062Y210613D01*
X269146Y210559D01*
X269232Y210509D01*
X269320Y210462D01*
X269410Y210418D01*
X269501Y210378D01*
X269594Y210342D01*
X269688Y210309D01*
X269784Y210280D01*
X269880Y210255D01*
X269977Y210234D01*
X270076Y210216D01*
X270174Y210203D01*
X270274Y210193D01*
X270373Y210187D01*
X270473Y210185D01*
X273013Y210185D01*
D10*
X196088Y213369D02*
X196088Y215966D01*
X196088Y213369D02*
X196090Y213270D01*
X196096Y213170D01*
X196105Y213071D01*
X196118Y212973D01*
X196135Y212875D01*
X196156Y212777D01*
X196181Y212681D01*
X196209Y212586D01*
X196241Y212492D01*
X196276Y212399D01*
X196315Y212307D01*
X196358Y212217D01*
X196403Y212129D01*
X196453Y212042D01*
X196505Y211958D01*
X196561Y211875D01*
X196619Y211795D01*
X196681Y211717D01*
X196746Y211642D01*
X196814Y211569D01*
X196884Y211499D01*
X196957Y211431D01*
X197032Y211366D01*
X197110Y211304D01*
X197190Y211246D01*
X197273Y211190D01*
X197357Y211138D01*
X197444Y211088D01*
X197532Y211043D01*
X197622Y211000D01*
X197714Y210961D01*
X197807Y210926D01*
X197901Y210894D01*
X197996Y210866D01*
X198092Y210841D01*
X198190Y210820D01*
X198288Y210803D01*
X198386Y210790D01*
X198485Y210781D01*
X198585Y210775D01*
X198684Y210773D01*
X205176Y210773D01*
X205275Y210775D01*
X205375Y210781D01*
X205474Y210790D01*
X205572Y210803D01*
X205670Y210820D01*
X205768Y210841D01*
X205864Y210866D01*
X205959Y210894D01*
X206053Y210926D01*
X206146Y210961D01*
X206238Y211000D01*
X206328Y211043D01*
X206416Y211088D01*
X206503Y211138D01*
X206587Y211190D01*
X206670Y211246D01*
X206750Y211304D01*
X206828Y211366D01*
X206903Y211431D01*
X206976Y211499D01*
X207046Y211569D01*
X207114Y211642D01*
X207179Y211717D01*
X207241Y211795D01*
X207299Y211875D01*
X207355Y211958D01*
X207407Y212042D01*
X207457Y212129D01*
X207502Y212217D01*
X207545Y212307D01*
X207584Y212399D01*
X207619Y212491D01*
X207651Y212586D01*
X207679Y212681D01*
X207704Y212777D01*
X207725Y212875D01*
X207742Y212973D01*
X207755Y213071D01*
X207764Y213170D01*
X207770Y213270D01*
X207772Y213369D01*
X207772Y215966D01*
X207772Y222927D02*
X198684Y220331D01*
X198684Y226822D01*
X201281Y224875D02*
X196088Y224875D01*
M02*
