G04 EAGLE Gerber RS-274X export*
G75*
%MOMM*%
%FSLAX34Y34*%
%LPD*%
%INBottom Copper*%
%IPPOS*%
%AMOC8*
5,1,8,0,0,1.08239X$1,22.5*%
G01*
%ADD10P,1.649562X8X22.500000*%
%ADD11C,1.524000*%
%ADD12C,0.756400*%
%ADD13C,0.152400*%

G36*
X40412Y27436D02*
X40412Y27436D01*
X40438Y27434D01*
X40585Y27456D01*
X40732Y27473D01*
X40757Y27481D01*
X40783Y27485D01*
X40921Y27540D01*
X41060Y27590D01*
X41082Y27604D01*
X41107Y27614D01*
X41228Y27699D01*
X41353Y27779D01*
X41371Y27798D01*
X41393Y27813D01*
X41492Y27923D01*
X41595Y28030D01*
X41609Y28052D01*
X41626Y28072D01*
X41698Y28202D01*
X41774Y28329D01*
X41782Y28354D01*
X41795Y28377D01*
X41835Y28520D01*
X41880Y28661D01*
X41882Y28687D01*
X41890Y28712D01*
X41909Y28956D01*
X41909Y33275D01*
X51054Y33275D01*
X51080Y33278D01*
X51106Y33276D01*
X51253Y33298D01*
X51400Y33315D01*
X51425Y33323D01*
X51451Y33327D01*
X51588Y33382D01*
X51728Y33432D01*
X51750Y33446D01*
X51775Y33456D01*
X51896Y33541D01*
X52021Y33621D01*
X52039Y33640D01*
X52061Y33655D01*
X52075Y33671D01*
X52160Y33589D01*
X52183Y33575D01*
X52202Y33558D01*
X52332Y33486D01*
X52459Y33410D01*
X52484Y33402D01*
X52507Y33389D01*
X52650Y33349D01*
X52791Y33304D01*
X52817Y33301D01*
X52842Y33294D01*
X53086Y33275D01*
X62231Y33275D01*
X62231Y28956D01*
X62234Y28930D01*
X62232Y28904D01*
X62254Y28757D01*
X62271Y28610D01*
X62279Y28585D01*
X62283Y28559D01*
X62338Y28421D01*
X62388Y28282D01*
X62402Y28260D01*
X62412Y28235D01*
X62497Y28114D01*
X62577Y27989D01*
X62596Y27971D01*
X62611Y27949D01*
X62721Y27850D01*
X62828Y27747D01*
X62850Y27733D01*
X62870Y27716D01*
X63000Y27644D01*
X63127Y27568D01*
X63152Y27560D01*
X63175Y27547D01*
X63318Y27507D01*
X63459Y27462D01*
X63485Y27460D01*
X63510Y27452D01*
X63754Y27433D01*
X66802Y27433D01*
X66828Y27436D01*
X66854Y27434D01*
X67001Y27456D01*
X67148Y27473D01*
X67173Y27481D01*
X67199Y27485D01*
X67337Y27540D01*
X67476Y27590D01*
X67498Y27604D01*
X67523Y27614D01*
X67644Y27699D01*
X67769Y27779D01*
X67787Y27798D01*
X67809Y27813D01*
X67908Y27923D01*
X68011Y28030D01*
X68025Y28052D01*
X68042Y28072D01*
X68114Y28202D01*
X68190Y28329D01*
X68198Y28354D01*
X68211Y28377D01*
X68251Y28520D01*
X68296Y28661D01*
X68298Y28687D01*
X68306Y28712D01*
X68325Y28956D01*
X68325Y45253D01*
X69718Y48614D01*
X72290Y51186D01*
X75651Y52579D01*
X76454Y52579D01*
X76480Y52582D01*
X76506Y52580D01*
X76653Y52602D01*
X76800Y52619D01*
X76825Y52627D01*
X76851Y52631D01*
X76989Y52686D01*
X77128Y52736D01*
X77150Y52750D01*
X77175Y52760D01*
X77296Y52845D01*
X77421Y52925D01*
X77439Y52944D01*
X77461Y52959D01*
X77560Y53069D01*
X77663Y53176D01*
X77677Y53198D01*
X77694Y53218D01*
X77766Y53348D01*
X77842Y53475D01*
X77850Y53500D01*
X77863Y53523D01*
X77903Y53666D01*
X77948Y53807D01*
X77950Y53833D01*
X77958Y53858D01*
X77977Y54102D01*
X77977Y152400D01*
X77973Y152436D01*
X77974Y152500D01*
X77863Y154190D01*
X77858Y154217D01*
X77859Y154245D01*
X77815Y154485D01*
X76939Y157752D01*
X76911Y157823D01*
X76892Y157898D01*
X76829Y158032D01*
X76811Y158076D01*
X76800Y158092D01*
X76787Y158119D01*
X75096Y161048D01*
X75050Y161109D01*
X75013Y161177D01*
X74917Y161289D01*
X74889Y161327D01*
X74874Y161340D01*
X74854Y161363D01*
X72463Y163754D01*
X72403Y163802D01*
X72349Y163857D01*
X72227Y163941D01*
X72190Y163971D01*
X72172Y163979D01*
X72148Y163996D01*
X69219Y165687D01*
X69148Y165718D01*
X69082Y165757D01*
X68943Y165807D01*
X68899Y165826D01*
X68880Y165829D01*
X68852Y165839D01*
X65585Y166715D01*
X65558Y166719D01*
X65532Y166728D01*
X65290Y166763D01*
X63600Y166874D01*
X63563Y166872D01*
X63500Y166877D01*
X63246Y166877D01*
X63220Y166874D01*
X63194Y166876D01*
X63047Y166854D01*
X62900Y166837D01*
X62875Y166829D01*
X62849Y166825D01*
X62711Y166770D01*
X62572Y166720D01*
X62550Y166706D01*
X62525Y166696D01*
X62404Y166611D01*
X62279Y166531D01*
X62261Y166512D01*
X62239Y166497D01*
X62140Y166387D01*
X62037Y166280D01*
X62023Y166258D01*
X62006Y166238D01*
X61934Y166108D01*
X61858Y165981D01*
X61850Y165956D01*
X61837Y165933D01*
X61797Y165790D01*
X61752Y165649D01*
X61750Y165623D01*
X61742Y165598D01*
X61723Y165354D01*
X61723Y160296D01*
X56366Y154939D01*
X48790Y154939D01*
X43433Y160296D01*
X43433Y165271D01*
X43425Y165346D01*
X43426Y165423D01*
X43405Y165519D01*
X43393Y165617D01*
X43368Y165689D01*
X43352Y165763D01*
X43309Y165852D01*
X43276Y165945D01*
X43235Y166009D01*
X43202Y166078D01*
X43140Y166155D01*
X43087Y166238D01*
X43032Y166291D01*
X42985Y166350D01*
X42907Y166411D01*
X42836Y166480D01*
X42771Y166519D01*
X42711Y166566D01*
X42622Y166608D01*
X42537Y166659D01*
X42465Y166682D01*
X42396Y166715D01*
X42299Y166735D01*
X42205Y166765D01*
X42129Y166771D01*
X42055Y166787D01*
X41904Y166789D01*
X41858Y166793D01*
X41839Y166790D01*
X41810Y166791D01*
X41058Y166741D01*
X41031Y166737D01*
X41004Y166737D01*
X40763Y166693D01*
X36856Y165646D01*
X36785Y165618D01*
X36710Y165599D01*
X36576Y165535D01*
X36532Y165518D01*
X36516Y165507D01*
X36489Y165494D01*
X32986Y163471D01*
X32924Y163425D01*
X32857Y163388D01*
X32745Y163292D01*
X32706Y163264D01*
X32694Y163249D01*
X32671Y163229D01*
X29811Y160369D01*
X29763Y160309D01*
X29707Y160255D01*
X29624Y160133D01*
X29594Y160096D01*
X29586Y160078D01*
X29569Y160054D01*
X27546Y156551D01*
X27516Y156480D01*
X27476Y156414D01*
X27427Y156275D01*
X27408Y156231D01*
X27404Y156212D01*
X27394Y156184D01*
X26347Y152277D01*
X26343Y152250D01*
X26334Y152224D01*
X26299Y151982D01*
X26166Y149960D01*
X26168Y149923D01*
X26163Y149860D01*
X26163Y54102D01*
X26166Y54076D01*
X26164Y54050D01*
X26186Y53903D01*
X26203Y53756D01*
X26211Y53731D01*
X26215Y53705D01*
X26270Y53567D01*
X26320Y53428D01*
X26334Y53406D01*
X26344Y53381D01*
X26429Y53260D01*
X26509Y53135D01*
X26528Y53117D01*
X26543Y53095D01*
X26653Y52996D01*
X26760Y52893D01*
X26782Y52879D01*
X26802Y52862D01*
X26932Y52790D01*
X27059Y52714D01*
X27084Y52706D01*
X27107Y52693D01*
X27250Y52653D01*
X27391Y52608D01*
X27417Y52606D01*
X27442Y52598D01*
X27686Y52579D01*
X28489Y52579D01*
X31850Y51186D01*
X34422Y48614D01*
X35815Y45253D01*
X35815Y28956D01*
X35818Y28930D01*
X35816Y28904D01*
X35838Y28757D01*
X35855Y28610D01*
X35863Y28585D01*
X35867Y28559D01*
X35922Y28421D01*
X35972Y28282D01*
X35986Y28260D01*
X35996Y28235D01*
X36081Y28114D01*
X36161Y27989D01*
X36180Y27971D01*
X36195Y27949D01*
X36305Y27850D01*
X36412Y27747D01*
X36434Y27733D01*
X36454Y27716D01*
X36584Y27644D01*
X36711Y27568D01*
X36736Y27560D01*
X36759Y27547D01*
X36902Y27507D01*
X37043Y27462D01*
X37069Y27460D01*
X37094Y27452D01*
X37338Y27433D01*
X40386Y27433D01*
X40412Y27436D01*
G37*
%LPC*%
G36*
X54609Y38353D02*
X54609Y38353D01*
X54609Y53293D01*
X55970Y52850D01*
X57395Y52124D01*
X58689Y51184D01*
X59820Y50053D01*
X60760Y48759D01*
X61486Y47334D01*
X61981Y45813D01*
X62231Y44234D01*
X62231Y38353D01*
X54609Y38353D01*
G37*
%LPD*%
%LPC*%
G36*
X41909Y38353D02*
X41909Y38353D01*
X41909Y44234D01*
X42159Y45813D01*
X42654Y47334D01*
X43380Y48759D01*
X44320Y50053D01*
X45451Y51184D01*
X46745Y52124D01*
X48170Y52850D01*
X49531Y53293D01*
X49531Y38353D01*
X41909Y38353D01*
G37*
%LPD*%
D10*
X52578Y164084D03*
D11*
X77470Y43434D02*
X77470Y28194D01*
X52070Y28194D02*
X52070Y43434D01*
X26670Y43434D02*
X26670Y28194D01*
D12*
X63754Y70358D03*
D13*
X52070Y58674D01*
X52070Y35814D01*
D12*
X73660Y147320D03*
M02*
