G04 EAGLE Gerber RS-274X export*
G75*
%MOMM*%
%FSLAX34Y34*%
%LPD*%
%INSilkscreen Top*%
%IPPOS*%
%AMOC8*
5,1,8,0,0,1.08239X$1,22.5*%
G01*
%ADD10C,0.101600*%
%ADD11C,0.050800*%
%ADD12C,0.152400*%
%ADD13C,0.200000*%


D10*
X67084Y155448D02*
X67084Y143764D01*
X65786Y143764D02*
X68382Y143764D01*
X68382Y155448D02*
X65786Y155448D01*
X73364Y155448D02*
X73364Y143764D01*
X79855Y143764D02*
X73364Y155448D01*
X79855Y155448D02*
X79855Y143764D01*
D11*
X17780Y57743D02*
X17780Y55033D01*
X17780Y57743D02*
X17782Y57824D01*
X17788Y57904D01*
X17797Y57984D01*
X17811Y58063D01*
X17828Y58142D01*
X17849Y58220D01*
X17873Y58297D01*
X17901Y58372D01*
X17933Y58446D01*
X17968Y58519D01*
X18007Y58590D01*
X18049Y58658D01*
X18094Y58725D01*
X18142Y58790D01*
X18194Y58852D01*
X18248Y58911D01*
X18305Y58968D01*
X18364Y59022D01*
X18426Y59074D01*
X18491Y59122D01*
X18558Y59167D01*
X18627Y59209D01*
X18697Y59248D01*
X18770Y59283D01*
X18844Y59315D01*
X18919Y59343D01*
X18996Y59367D01*
X19074Y59388D01*
X19153Y59405D01*
X19232Y59419D01*
X19312Y59428D01*
X19392Y59434D01*
X19473Y59436D01*
X19554Y59434D01*
X19634Y59428D01*
X19714Y59419D01*
X19793Y59405D01*
X19872Y59388D01*
X19950Y59367D01*
X20027Y59343D01*
X20102Y59315D01*
X20176Y59283D01*
X20249Y59248D01*
X20320Y59209D01*
X20388Y59167D01*
X20455Y59122D01*
X20520Y59074D01*
X20582Y59022D01*
X20641Y58968D01*
X20698Y58911D01*
X20752Y58852D01*
X20804Y58790D01*
X20852Y58725D01*
X20897Y58658D01*
X20939Y58590D01*
X20978Y58519D01*
X21013Y58446D01*
X21045Y58372D01*
X21073Y58297D01*
X21097Y58220D01*
X21118Y58142D01*
X21135Y58063D01*
X21149Y57984D01*
X21158Y57904D01*
X21164Y57824D01*
X21166Y57743D01*
X21167Y57743D02*
X21167Y55033D01*
X21166Y55033D02*
X21164Y54952D01*
X21158Y54872D01*
X21149Y54792D01*
X21135Y54713D01*
X21118Y54634D01*
X21097Y54556D01*
X21073Y54479D01*
X21045Y54404D01*
X21013Y54330D01*
X20978Y54257D01*
X20939Y54187D01*
X20897Y54118D01*
X20852Y54051D01*
X20804Y53986D01*
X20752Y53924D01*
X20698Y53865D01*
X20641Y53808D01*
X20582Y53754D01*
X20520Y53702D01*
X20455Y53654D01*
X20388Y53609D01*
X20320Y53567D01*
X20249Y53528D01*
X20176Y53493D01*
X20102Y53461D01*
X20027Y53433D01*
X19950Y53409D01*
X19872Y53388D01*
X19793Y53371D01*
X19714Y53357D01*
X19634Y53348D01*
X19554Y53342D01*
X19473Y53340D01*
X19392Y53342D01*
X19312Y53348D01*
X19232Y53357D01*
X19153Y53371D01*
X19074Y53388D01*
X18996Y53409D01*
X18919Y53433D01*
X18844Y53461D01*
X18770Y53493D01*
X18697Y53528D01*
X18626Y53567D01*
X18558Y53609D01*
X18491Y53654D01*
X18426Y53702D01*
X18364Y53754D01*
X18305Y53808D01*
X18248Y53865D01*
X18194Y53924D01*
X18142Y53986D01*
X18094Y54051D01*
X18049Y54118D01*
X18007Y54187D01*
X17968Y54257D01*
X17933Y54330D01*
X17901Y54404D01*
X17873Y54479D01*
X17849Y54556D01*
X17828Y54634D01*
X17811Y54713D01*
X17797Y54792D01*
X17788Y54872D01*
X17782Y54952D01*
X17780Y55033D01*
X23922Y55033D02*
X23922Y59436D01*
X23922Y55033D02*
X23924Y54952D01*
X23930Y54872D01*
X23939Y54792D01*
X23953Y54713D01*
X23970Y54634D01*
X23991Y54556D01*
X24015Y54479D01*
X24043Y54404D01*
X24075Y54330D01*
X24110Y54257D01*
X24149Y54187D01*
X24191Y54118D01*
X24236Y54051D01*
X24284Y53986D01*
X24336Y53924D01*
X24390Y53865D01*
X24447Y53808D01*
X24506Y53754D01*
X24568Y53702D01*
X24633Y53654D01*
X24700Y53609D01*
X24768Y53567D01*
X24839Y53528D01*
X24912Y53493D01*
X24986Y53461D01*
X25061Y53433D01*
X25138Y53409D01*
X25216Y53388D01*
X25295Y53371D01*
X25374Y53357D01*
X25454Y53348D01*
X25534Y53342D01*
X25615Y53340D01*
X25696Y53342D01*
X25776Y53348D01*
X25856Y53357D01*
X25935Y53371D01*
X26014Y53388D01*
X26092Y53409D01*
X26169Y53433D01*
X26244Y53461D01*
X26318Y53493D01*
X26391Y53528D01*
X26462Y53567D01*
X26530Y53609D01*
X26597Y53654D01*
X26662Y53702D01*
X26724Y53754D01*
X26783Y53808D01*
X26840Y53865D01*
X26894Y53924D01*
X26946Y53986D01*
X26994Y54051D01*
X27039Y54118D01*
X27081Y54187D01*
X27120Y54257D01*
X27155Y54330D01*
X27187Y54404D01*
X27215Y54479D01*
X27239Y54556D01*
X27260Y54634D01*
X27277Y54713D01*
X27291Y54792D01*
X27300Y54872D01*
X27306Y54952D01*
X27308Y55033D01*
X27308Y59436D01*
X31361Y59436D02*
X31361Y53340D01*
X29667Y59436D02*
X33054Y59436D01*
X44123Y56727D02*
X45139Y56727D01*
X45139Y53340D01*
X43107Y53340D01*
X43036Y53342D01*
X42965Y53347D01*
X42895Y53357D01*
X42825Y53370D01*
X42756Y53386D01*
X42688Y53406D01*
X42621Y53430D01*
X42556Y53457D01*
X42492Y53488D01*
X42430Y53522D01*
X42369Y53559D01*
X42311Y53599D01*
X42254Y53642D01*
X42200Y53688D01*
X42149Y53737D01*
X42100Y53788D01*
X42054Y53842D01*
X42011Y53899D01*
X41971Y53957D01*
X41934Y54018D01*
X41900Y54080D01*
X41869Y54144D01*
X41842Y54209D01*
X41818Y54276D01*
X41798Y54344D01*
X41782Y54413D01*
X41769Y54483D01*
X41759Y54553D01*
X41754Y54624D01*
X41752Y54695D01*
X41752Y58081D01*
X41754Y58154D01*
X41760Y58227D01*
X41770Y58300D01*
X41784Y58372D01*
X41801Y58443D01*
X41823Y58514D01*
X41848Y58583D01*
X41877Y58650D01*
X41910Y58716D01*
X41946Y58780D01*
X41985Y58841D01*
X42028Y58901D01*
X42074Y58958D01*
X42123Y59013D01*
X42175Y59065D01*
X42230Y59114D01*
X42287Y59160D01*
X42347Y59203D01*
X42408Y59242D01*
X42472Y59278D01*
X42538Y59311D01*
X42605Y59340D01*
X42674Y59365D01*
X42744Y59387D01*
X42816Y59404D01*
X42888Y59418D01*
X42960Y59428D01*
X43034Y59434D01*
X43107Y59436D01*
X45139Y59436D01*
X48092Y59436D02*
X48092Y53340D01*
X51479Y53340D02*
X48092Y59436D01*
X51479Y59436D02*
X51479Y53340D01*
X54432Y53340D02*
X54432Y59436D01*
X56125Y59436D01*
X56206Y59434D01*
X56286Y59428D01*
X56366Y59419D01*
X56445Y59405D01*
X56524Y59388D01*
X56602Y59367D01*
X56679Y59343D01*
X56754Y59315D01*
X56828Y59283D01*
X56901Y59248D01*
X56972Y59209D01*
X57040Y59167D01*
X57107Y59122D01*
X57172Y59074D01*
X57234Y59022D01*
X57293Y58968D01*
X57350Y58911D01*
X57404Y58852D01*
X57456Y58790D01*
X57504Y58725D01*
X57549Y58658D01*
X57591Y58590D01*
X57630Y58519D01*
X57665Y58446D01*
X57697Y58372D01*
X57725Y58297D01*
X57749Y58220D01*
X57770Y58142D01*
X57787Y58063D01*
X57801Y57984D01*
X57810Y57904D01*
X57816Y57824D01*
X57818Y57743D01*
X57819Y57743D02*
X57819Y55033D01*
X57818Y55033D02*
X57816Y54952D01*
X57810Y54872D01*
X57801Y54792D01*
X57787Y54713D01*
X57770Y54634D01*
X57749Y54556D01*
X57725Y54479D01*
X57697Y54404D01*
X57665Y54330D01*
X57630Y54257D01*
X57591Y54187D01*
X57549Y54118D01*
X57504Y54051D01*
X57456Y53986D01*
X57404Y53924D01*
X57350Y53865D01*
X57293Y53808D01*
X57234Y53754D01*
X57172Y53702D01*
X57107Y53654D01*
X57040Y53609D01*
X56972Y53567D01*
X56901Y53528D01*
X56828Y53493D01*
X56754Y53461D01*
X56679Y53433D01*
X56602Y53409D01*
X56524Y53388D01*
X56445Y53371D01*
X56366Y53357D01*
X56286Y53348D01*
X56206Y53342D01*
X56125Y53340D01*
X54432Y53340D01*
X66575Y59436D02*
X68607Y53340D01*
X70639Y59436D01*
X73055Y59436D02*
X73055Y53340D01*
X73055Y59436D02*
X74749Y59436D01*
X74830Y59434D01*
X74910Y59428D01*
X74990Y59419D01*
X75069Y59405D01*
X75148Y59388D01*
X75226Y59367D01*
X75303Y59343D01*
X75378Y59315D01*
X75452Y59283D01*
X75525Y59248D01*
X75596Y59209D01*
X75664Y59167D01*
X75731Y59122D01*
X75796Y59074D01*
X75858Y59022D01*
X75917Y58968D01*
X75974Y58911D01*
X76028Y58852D01*
X76080Y58790D01*
X76128Y58725D01*
X76173Y58658D01*
X76215Y58590D01*
X76254Y58519D01*
X76289Y58446D01*
X76321Y58372D01*
X76349Y58297D01*
X76373Y58220D01*
X76394Y58142D01*
X76411Y58063D01*
X76425Y57984D01*
X76434Y57904D01*
X76440Y57824D01*
X76442Y57743D01*
X76442Y55033D01*
X76440Y54952D01*
X76434Y54872D01*
X76425Y54792D01*
X76411Y54713D01*
X76394Y54634D01*
X76373Y54556D01*
X76349Y54479D01*
X76321Y54404D01*
X76289Y54330D01*
X76254Y54257D01*
X76215Y54187D01*
X76173Y54118D01*
X76128Y54051D01*
X76080Y53986D01*
X76028Y53924D01*
X75974Y53865D01*
X75917Y53808D01*
X75858Y53754D01*
X75796Y53702D01*
X75731Y53654D01*
X75664Y53609D01*
X75596Y53567D01*
X75525Y53528D01*
X75452Y53493D01*
X75378Y53461D01*
X75303Y53433D01*
X75226Y53409D01*
X75148Y53388D01*
X75069Y53371D01*
X74990Y53357D01*
X74910Y53348D01*
X74830Y53342D01*
X74749Y53340D01*
X73055Y53340D01*
X79395Y53340D02*
X79395Y59436D01*
X81088Y59436D01*
X81169Y59434D01*
X81249Y59428D01*
X81329Y59419D01*
X81408Y59405D01*
X81487Y59388D01*
X81565Y59367D01*
X81642Y59343D01*
X81717Y59315D01*
X81791Y59283D01*
X81864Y59248D01*
X81935Y59209D01*
X82003Y59167D01*
X82070Y59122D01*
X82135Y59074D01*
X82197Y59022D01*
X82256Y58968D01*
X82313Y58911D01*
X82367Y58852D01*
X82419Y58790D01*
X82467Y58725D01*
X82512Y58658D01*
X82554Y58590D01*
X82593Y58519D01*
X82628Y58446D01*
X82660Y58372D01*
X82688Y58297D01*
X82712Y58220D01*
X82733Y58142D01*
X82750Y58063D01*
X82764Y57984D01*
X82773Y57904D01*
X82779Y57824D01*
X82781Y57743D01*
X82782Y57743D02*
X82782Y55033D01*
X82781Y55033D02*
X82779Y54952D01*
X82773Y54872D01*
X82764Y54792D01*
X82750Y54713D01*
X82733Y54634D01*
X82712Y54556D01*
X82688Y54479D01*
X82660Y54404D01*
X82628Y54330D01*
X82593Y54257D01*
X82554Y54187D01*
X82512Y54118D01*
X82467Y54051D01*
X82419Y53986D01*
X82367Y53924D01*
X82313Y53865D01*
X82256Y53808D01*
X82197Y53754D01*
X82135Y53702D01*
X82070Y53654D01*
X82003Y53609D01*
X81935Y53567D01*
X81864Y53528D01*
X81791Y53493D01*
X81717Y53461D01*
X81642Y53433D01*
X81565Y53409D01*
X81487Y53388D01*
X81408Y53371D01*
X81329Y53357D01*
X81249Y53348D01*
X81169Y53342D01*
X81088Y53340D01*
X79395Y53340D01*
D12*
X58928Y176784D02*
X46228Y176784D01*
X58928Y176784D02*
X65278Y170434D01*
X65278Y157734D01*
X58928Y151384D01*
X39878Y157734D02*
X39878Y170434D01*
X46228Y176784D01*
X39878Y157734D02*
X46228Y151384D01*
X58928Y151384D01*
X71120Y23114D02*
X83820Y23114D01*
X71120Y23114D02*
X64770Y29464D01*
X64770Y42164D01*
X71120Y48514D01*
X64770Y29464D02*
X58420Y23114D01*
X45720Y23114D01*
X39370Y29464D01*
X39370Y42164D01*
X45720Y48514D01*
X58420Y48514D01*
X64770Y42164D01*
X90170Y42164D02*
X90170Y29464D01*
X83820Y23114D01*
X90170Y42164D02*
X83820Y48514D01*
X71120Y48514D01*
X39370Y29464D02*
X33020Y23114D01*
X20320Y23114D01*
X13970Y29464D01*
X13970Y42164D01*
X20320Y48514D01*
X33020Y48514D01*
X39370Y42164D01*
D13*
X57418Y93402D02*
X57418Y116402D01*
X57418Y93402D02*
X27418Y93402D01*
X27418Y116402D01*
X57418Y116402D01*
X57918Y119902D02*
X57918Y133902D01*
D10*
X33013Y109982D02*
X33013Y101544D01*
X33015Y101431D01*
X33021Y101318D01*
X33031Y101205D01*
X33045Y101092D01*
X33062Y100980D01*
X33084Y100869D01*
X33109Y100759D01*
X33139Y100649D01*
X33172Y100541D01*
X33209Y100434D01*
X33249Y100328D01*
X33294Y100224D01*
X33342Y100121D01*
X33393Y100020D01*
X33448Y99921D01*
X33506Y99824D01*
X33568Y99729D01*
X33633Y99636D01*
X33701Y99546D01*
X33772Y99458D01*
X33847Y99372D01*
X33924Y99289D01*
X34004Y99209D01*
X34087Y99132D01*
X34173Y99057D01*
X34261Y98986D01*
X34351Y98918D01*
X34444Y98853D01*
X34539Y98791D01*
X34636Y98733D01*
X34735Y98678D01*
X34836Y98627D01*
X34939Y98579D01*
X35043Y98534D01*
X35149Y98494D01*
X35256Y98457D01*
X35364Y98424D01*
X35474Y98394D01*
X35584Y98369D01*
X35695Y98347D01*
X35807Y98330D01*
X35920Y98316D01*
X36033Y98306D01*
X36146Y98300D01*
X36259Y98298D01*
X36372Y98300D01*
X36485Y98306D01*
X36598Y98316D01*
X36711Y98330D01*
X36823Y98347D01*
X36934Y98369D01*
X37044Y98394D01*
X37154Y98424D01*
X37262Y98457D01*
X37369Y98494D01*
X37475Y98534D01*
X37579Y98579D01*
X37682Y98627D01*
X37783Y98678D01*
X37882Y98733D01*
X37979Y98791D01*
X38074Y98853D01*
X38167Y98918D01*
X38257Y98986D01*
X38345Y99057D01*
X38431Y99132D01*
X38514Y99209D01*
X38594Y99289D01*
X38671Y99372D01*
X38746Y99458D01*
X38817Y99546D01*
X38885Y99636D01*
X38950Y99729D01*
X39012Y99824D01*
X39070Y99921D01*
X39125Y100020D01*
X39176Y100121D01*
X39224Y100224D01*
X39269Y100328D01*
X39309Y100434D01*
X39346Y100541D01*
X39379Y100649D01*
X39409Y100759D01*
X39434Y100869D01*
X39456Y100980D01*
X39473Y101092D01*
X39487Y101205D01*
X39497Y101318D01*
X39503Y101431D01*
X39505Y101544D01*
X39504Y101544D02*
X39504Y109982D01*
X44824Y107386D02*
X48069Y109982D01*
X48069Y98298D01*
X44824Y98298D02*
X51315Y98298D01*
M02*
