G04 EAGLE Gerber RS-274X export*
G75*
%MOMM*%
%FSLAX34Y34*%
%LPD*%
%INBottom Copper*%
%IPPOS*%
%AMOC8*
5,1,8,0,0,1.08239X$1,22.5*%
G01*
%ADD10P,1.429621X8X112.500000*%
%ADD11P,1.429621X8X292.500000*%
%ADD12P,1.429621X8X22.500000*%
%ADD13C,1.524000*%
%ADD14P,1.732040X8X112.500000*%
%ADD15P,1.732040X8X202.500000*%
%ADD16C,8.000000*%
%ADD17C,0.304800*%
%ADD18C,0.756400*%

G36*
X27458Y42168D02*
X27458Y42168D01*
X27484Y42166D01*
X27631Y42188D01*
X27778Y42205D01*
X27803Y42213D01*
X27829Y42217D01*
X27967Y42272D01*
X28106Y42322D01*
X28128Y42336D01*
X28153Y42346D01*
X28274Y42431D01*
X28399Y42511D01*
X28417Y42530D01*
X28439Y42545D01*
X28538Y42655D01*
X28641Y42762D01*
X28655Y42784D01*
X28672Y42804D01*
X28744Y42934D01*
X28820Y43061D01*
X28828Y43086D01*
X28841Y43109D01*
X28881Y43252D01*
X28926Y43393D01*
X28928Y43419D01*
X28936Y43444D01*
X28955Y43688D01*
X28955Y50079D01*
X30348Y53440D01*
X32920Y56012D01*
X36281Y57405D01*
X39919Y57405D01*
X43280Y56012D01*
X45852Y53440D01*
X47245Y50079D01*
X47245Y43688D01*
X47248Y43662D01*
X47246Y43636D01*
X47268Y43489D01*
X47285Y43342D01*
X47293Y43317D01*
X47297Y43291D01*
X47352Y43153D01*
X47402Y43014D01*
X47416Y42992D01*
X47426Y42967D01*
X47511Y42846D01*
X47591Y42721D01*
X47610Y42703D01*
X47625Y42681D01*
X47735Y42582D01*
X47842Y42479D01*
X47864Y42465D01*
X47884Y42448D01*
X48014Y42376D01*
X48141Y42300D01*
X48166Y42292D01*
X48189Y42279D01*
X48332Y42239D01*
X48473Y42194D01*
X48499Y42192D01*
X48524Y42184D01*
X48768Y42165D01*
X51816Y42165D01*
X51842Y42168D01*
X51868Y42166D01*
X52015Y42188D01*
X52162Y42205D01*
X52187Y42213D01*
X52213Y42217D01*
X52351Y42272D01*
X52490Y42322D01*
X52512Y42336D01*
X52537Y42346D01*
X52658Y42431D01*
X52783Y42511D01*
X52801Y42530D01*
X52823Y42545D01*
X52922Y42655D01*
X53025Y42762D01*
X53039Y42784D01*
X53056Y42804D01*
X53128Y42934D01*
X53204Y43061D01*
X53212Y43086D01*
X53225Y43109D01*
X53265Y43252D01*
X53310Y43393D01*
X53312Y43419D01*
X53320Y43444D01*
X53339Y43688D01*
X53339Y49060D01*
X53589Y50639D01*
X54084Y52160D01*
X54810Y53585D01*
X55750Y54879D01*
X56881Y56010D01*
X58175Y56950D01*
X59600Y57676D01*
X60961Y58119D01*
X60961Y43688D01*
X60964Y43662D01*
X60962Y43636D01*
X60984Y43489D01*
X61001Y43342D01*
X61009Y43317D01*
X61013Y43291D01*
X61068Y43153D01*
X61118Y43014D01*
X61132Y42992D01*
X61142Y42967D01*
X61227Y42846D01*
X61307Y42721D01*
X61326Y42703D01*
X61341Y42681D01*
X61451Y42582D01*
X61558Y42479D01*
X61580Y42465D01*
X61600Y42448D01*
X61730Y42376D01*
X61857Y42300D01*
X61882Y42292D01*
X61905Y42279D01*
X62048Y42239D01*
X62189Y42194D01*
X62215Y42192D01*
X62240Y42184D01*
X62484Y42165D01*
X64516Y42165D01*
X64542Y42168D01*
X64568Y42166D01*
X64715Y42188D01*
X64862Y42205D01*
X64887Y42213D01*
X64913Y42217D01*
X65051Y42272D01*
X65190Y42322D01*
X65212Y42336D01*
X65237Y42346D01*
X65358Y42431D01*
X65483Y42511D01*
X65501Y42530D01*
X65523Y42545D01*
X65622Y42655D01*
X65725Y42762D01*
X65739Y42784D01*
X65756Y42804D01*
X65828Y42934D01*
X65904Y43061D01*
X65912Y43086D01*
X65925Y43109D01*
X65965Y43252D01*
X66010Y43393D01*
X66012Y43419D01*
X66020Y43444D01*
X66039Y43688D01*
X66039Y58119D01*
X67400Y57676D01*
X68825Y56950D01*
X70119Y56010D01*
X71250Y54879D01*
X72190Y53585D01*
X72916Y52160D01*
X73411Y50639D01*
X73661Y49060D01*
X73661Y43688D01*
X73664Y43662D01*
X73662Y43636D01*
X73684Y43489D01*
X73701Y43342D01*
X73709Y43317D01*
X73713Y43291D01*
X73768Y43153D01*
X73818Y43014D01*
X73832Y42992D01*
X73842Y42967D01*
X73927Y42846D01*
X74007Y42721D01*
X74026Y42703D01*
X74041Y42681D01*
X74151Y42582D01*
X74258Y42479D01*
X74280Y42465D01*
X74300Y42448D01*
X74430Y42376D01*
X74557Y42300D01*
X74582Y42292D01*
X74605Y42279D01*
X74748Y42239D01*
X74889Y42194D01*
X74915Y42192D01*
X74940Y42184D01*
X75184Y42165D01*
X78232Y42165D01*
X78258Y42168D01*
X78284Y42166D01*
X78431Y42188D01*
X78578Y42205D01*
X78603Y42213D01*
X78629Y42217D01*
X78767Y42272D01*
X78906Y42322D01*
X78928Y42336D01*
X78953Y42346D01*
X79074Y42431D01*
X79199Y42511D01*
X79217Y42530D01*
X79239Y42545D01*
X79338Y42655D01*
X79441Y42762D01*
X79455Y42784D01*
X79472Y42804D01*
X79544Y42934D01*
X79620Y43061D01*
X79628Y43086D01*
X79641Y43109D01*
X79681Y43252D01*
X79726Y43393D01*
X79728Y43419D01*
X79736Y43444D01*
X79755Y43688D01*
X79755Y50079D01*
X81148Y53440D01*
X83720Y56012D01*
X87081Y57405D01*
X90719Y57405D01*
X94080Y56012D01*
X96652Y53440D01*
X98045Y50079D01*
X98045Y43688D01*
X98048Y43662D01*
X98046Y43636D01*
X98068Y43489D01*
X98085Y43342D01*
X98093Y43317D01*
X98097Y43291D01*
X98152Y43153D01*
X98202Y43014D01*
X98216Y42992D01*
X98226Y42967D01*
X98311Y42846D01*
X98391Y42721D01*
X98410Y42703D01*
X98425Y42681D01*
X98535Y42582D01*
X98642Y42479D01*
X98664Y42465D01*
X98684Y42448D01*
X98814Y42376D01*
X98941Y42300D01*
X98966Y42292D01*
X98989Y42279D01*
X99132Y42239D01*
X99273Y42194D01*
X99299Y42192D01*
X99324Y42184D01*
X99568Y42165D01*
X103632Y42165D01*
X103658Y42168D01*
X103684Y42166D01*
X103831Y42188D01*
X103978Y42205D01*
X104003Y42213D01*
X104029Y42217D01*
X104167Y42272D01*
X104306Y42322D01*
X104328Y42336D01*
X104353Y42346D01*
X104474Y42431D01*
X104599Y42511D01*
X104617Y42530D01*
X104639Y42545D01*
X104738Y42655D01*
X104841Y42762D01*
X104855Y42784D01*
X104872Y42804D01*
X104944Y42934D01*
X105020Y43061D01*
X105028Y43086D01*
X105041Y43109D01*
X105081Y43252D01*
X105126Y43393D01*
X105128Y43419D01*
X105136Y43444D01*
X105155Y43688D01*
X105155Y84201D01*
X105152Y84227D01*
X105154Y84253D01*
X105132Y84400D01*
X105115Y84547D01*
X105107Y84572D01*
X105103Y84598D01*
X105048Y84736D01*
X104998Y84875D01*
X104984Y84897D01*
X104974Y84922D01*
X104889Y85043D01*
X104809Y85168D01*
X104790Y85186D01*
X104775Y85208D01*
X104665Y85307D01*
X104558Y85410D01*
X104536Y85424D01*
X104516Y85441D01*
X104386Y85513D01*
X104259Y85589D01*
X104234Y85597D01*
X104211Y85610D01*
X104068Y85650D01*
X103927Y85695D01*
X103901Y85697D01*
X103876Y85705D01*
X103632Y85724D01*
X100194Y85724D01*
X94614Y91304D01*
X94614Y99196D01*
X100194Y104776D01*
X103632Y104776D01*
X103658Y104779D01*
X103684Y104777D01*
X103831Y104799D01*
X103978Y104816D01*
X104003Y104824D01*
X104029Y104828D01*
X104167Y104883D01*
X104306Y104933D01*
X104328Y104947D01*
X104353Y104957D01*
X104474Y105042D01*
X104599Y105122D01*
X104617Y105141D01*
X104639Y105156D01*
X104738Y105266D01*
X104841Y105373D01*
X104855Y105395D01*
X104872Y105415D01*
X104944Y105545D01*
X105020Y105672D01*
X105028Y105697D01*
X105041Y105720D01*
X105081Y105863D01*
X105126Y106004D01*
X105128Y106030D01*
X105136Y106055D01*
X105155Y106299D01*
X105155Y109601D01*
X105152Y109627D01*
X105154Y109653D01*
X105132Y109800D01*
X105115Y109947D01*
X105107Y109972D01*
X105103Y109998D01*
X105048Y110136D01*
X104998Y110275D01*
X104984Y110297D01*
X104974Y110322D01*
X104889Y110443D01*
X104809Y110568D01*
X104790Y110586D01*
X104775Y110608D01*
X104665Y110707D01*
X104558Y110810D01*
X104536Y110824D01*
X104516Y110841D01*
X104386Y110913D01*
X104259Y110989D01*
X104234Y110997D01*
X104211Y111010D01*
X104068Y111050D01*
X103927Y111095D01*
X103901Y111097D01*
X103876Y111105D01*
X103632Y111124D01*
X100194Y111124D01*
X94614Y116704D01*
X94614Y124596D01*
X100194Y130176D01*
X101031Y130176D01*
X101131Y130187D01*
X101231Y130189D01*
X101303Y130207D01*
X101377Y130216D01*
X101472Y130249D01*
X101569Y130274D01*
X101635Y130308D01*
X101705Y130333D01*
X101790Y130388D01*
X101879Y130434D01*
X101936Y130482D01*
X101998Y130522D01*
X102068Y130594D01*
X102144Y130659D01*
X102189Y130719D01*
X102240Y130773D01*
X102292Y130859D01*
X102352Y130940D01*
X102381Y131008D01*
X102419Y131072D01*
X102450Y131168D01*
X102490Y131260D01*
X102503Y131333D01*
X102525Y131404D01*
X102534Y131504D01*
X102551Y131603D01*
X102547Y131677D01*
X102553Y131751D01*
X102539Y131851D01*
X102533Y131951D01*
X102513Y132022D01*
X102502Y132096D01*
X102465Y132189D01*
X102437Y132286D01*
X102400Y132351D01*
X102373Y132420D01*
X102316Y132502D01*
X102267Y132590D01*
X102202Y132666D01*
X102174Y132706D01*
X102148Y132730D01*
X102108Y132776D01*
X97281Y137603D01*
X97281Y144337D01*
X102043Y149099D01*
X103632Y149099D01*
X103658Y149102D01*
X103684Y149100D01*
X103831Y149122D01*
X103978Y149139D01*
X104003Y149147D01*
X104029Y149151D01*
X104167Y149206D01*
X104306Y149256D01*
X104328Y149270D01*
X104353Y149280D01*
X104474Y149365D01*
X104599Y149445D01*
X104617Y149464D01*
X104639Y149479D01*
X104738Y149589D01*
X104841Y149696D01*
X104855Y149718D01*
X104872Y149738D01*
X104944Y149868D01*
X105020Y149995D01*
X105028Y150020D01*
X105041Y150043D01*
X105081Y150186D01*
X105126Y150327D01*
X105128Y150353D01*
X105136Y150378D01*
X105155Y150622D01*
X105155Y182118D01*
X105152Y182144D01*
X105154Y182170D01*
X105132Y182317D01*
X105115Y182464D01*
X105107Y182489D01*
X105103Y182515D01*
X105048Y182653D01*
X104998Y182792D01*
X104984Y182814D01*
X104974Y182839D01*
X104889Y182960D01*
X104809Y183085D01*
X104790Y183103D01*
X104775Y183125D01*
X104665Y183224D01*
X104558Y183327D01*
X104536Y183341D01*
X104516Y183358D01*
X104386Y183430D01*
X104259Y183506D01*
X104234Y183514D01*
X104211Y183527D01*
X104068Y183567D01*
X103927Y183612D01*
X103901Y183614D01*
X103876Y183622D01*
X103632Y183641D01*
X102043Y183641D01*
X97281Y188403D01*
X97281Y195137D01*
X102043Y199899D01*
X103632Y199899D01*
X103658Y199902D01*
X103684Y199900D01*
X103831Y199922D01*
X103978Y199939D01*
X104003Y199947D01*
X104029Y199951D01*
X104167Y200006D01*
X104306Y200056D01*
X104328Y200070D01*
X104353Y200080D01*
X104474Y200165D01*
X104599Y200245D01*
X104617Y200264D01*
X104639Y200279D01*
X104738Y200389D01*
X104841Y200496D01*
X104855Y200518D01*
X104872Y200538D01*
X104944Y200668D01*
X105020Y200795D01*
X105028Y200820D01*
X105041Y200843D01*
X105081Y200986D01*
X105126Y201127D01*
X105128Y201153D01*
X105136Y201178D01*
X105155Y201422D01*
X105155Y223154D01*
X105152Y223183D01*
X105154Y223212D01*
X105132Y223356D01*
X105115Y223501D01*
X105106Y223528D01*
X105101Y223556D01*
X105047Y223692D01*
X104998Y223829D01*
X104982Y223853D01*
X104972Y223880D01*
X104888Y223999D01*
X104809Y224122D01*
X104788Y224142D01*
X104772Y224165D01*
X104663Y224263D01*
X104558Y224364D01*
X104534Y224379D01*
X104512Y224398D01*
X104384Y224468D01*
X104259Y224543D01*
X104232Y224551D01*
X104207Y224565D01*
X104066Y224604D01*
X103927Y224649D01*
X103899Y224651D01*
X103871Y224659D01*
X103725Y224665D01*
X103580Y224677D01*
X103551Y224673D01*
X103523Y224674D01*
X103380Y224647D01*
X103235Y224625D01*
X103208Y224615D01*
X103180Y224609D01*
X103047Y224550D01*
X102911Y224496D01*
X102888Y224480D01*
X102861Y224468D01*
X102661Y224328D01*
X94294Y217406D01*
X80507Y210919D01*
X79688Y210762D01*
X79563Y210723D01*
X79436Y210691D01*
X79397Y210671D01*
X79356Y210658D01*
X79243Y210592D01*
X79126Y210532D01*
X79093Y210504D01*
X79055Y210482D01*
X78960Y210391D01*
X78860Y210306D01*
X78835Y210271D01*
X78803Y210241D01*
X78731Y210131D01*
X78653Y210025D01*
X78636Y209986D01*
X78612Y209949D01*
X78567Y209826D01*
X78515Y209705D01*
X78508Y209663D01*
X78493Y209622D01*
X78477Y209492D01*
X78454Y209362D01*
X78456Y209319D01*
X78451Y209276D01*
X78465Y209145D01*
X78471Y209014D01*
X78483Y208973D01*
X78488Y208930D01*
X78532Y208806D01*
X78568Y208680D01*
X78589Y208642D01*
X78603Y208601D01*
X78674Y208490D01*
X78738Y208375D01*
X78773Y208334D01*
X78791Y208307D01*
X78826Y208272D01*
X78897Y208189D01*
X83059Y204027D01*
X83059Y197293D01*
X78297Y192531D01*
X71563Y192531D01*
X66801Y197293D01*
X66801Y204027D01*
X68585Y205811D01*
X68629Y205865D01*
X68679Y205914D01*
X68737Y206002D01*
X68802Y206084D01*
X68832Y206147D01*
X68870Y206205D01*
X68906Y206304D01*
X68951Y206399D01*
X68966Y206467D01*
X68989Y206532D01*
X69002Y206637D01*
X69024Y206740D01*
X69023Y206809D01*
X69032Y206878D01*
X69020Y206983D01*
X69018Y207088D01*
X69001Y207156D01*
X68994Y207225D01*
X68959Y207324D01*
X68933Y207426D01*
X68902Y207488D01*
X68879Y207554D01*
X68822Y207643D01*
X68774Y207736D01*
X68729Y207789D01*
X68691Y207848D01*
X68616Y207922D01*
X68548Y208002D01*
X68492Y208043D01*
X68442Y208092D01*
X68352Y208146D01*
X68268Y208209D01*
X68204Y208236D01*
X68145Y208272D01*
X68044Y208305D01*
X67948Y208347D01*
X67879Y208359D01*
X67813Y208381D01*
X67709Y208390D01*
X67605Y208409D01*
X67535Y208405D01*
X67466Y208411D01*
X67298Y208393D01*
X67257Y208391D01*
X67244Y208387D01*
X67223Y208385D01*
X65539Y208063D01*
X50331Y209020D01*
X35839Y213729D01*
X24184Y221126D01*
X24087Y221172D01*
X23995Y221228D01*
X23931Y221248D01*
X23870Y221277D01*
X23766Y221301D01*
X23663Y221334D01*
X23596Y221339D01*
X23531Y221354D01*
X23423Y221353D01*
X23316Y221362D01*
X23249Y221352D01*
X23182Y221351D01*
X23078Y221326D01*
X22971Y221310D01*
X22909Y221285D01*
X22843Y221269D01*
X22747Y221221D01*
X22647Y221181D01*
X22592Y221143D01*
X22532Y221113D01*
X22449Y221044D01*
X22361Y220982D01*
X22316Y220933D01*
X22264Y220889D01*
X22200Y220803D01*
X22128Y220724D01*
X22095Y220665D01*
X22055Y220611D01*
X22011Y220513D01*
X21959Y220419D01*
X21941Y220354D01*
X21914Y220292D01*
X21894Y220187D01*
X21864Y220083D01*
X21857Y219995D01*
X21849Y219950D01*
X21850Y219910D01*
X21845Y219839D01*
X21845Y210312D01*
X21848Y210286D01*
X21846Y210260D01*
X21868Y210113D01*
X21885Y209966D01*
X21893Y209941D01*
X21897Y209915D01*
X21952Y209777D01*
X22002Y209638D01*
X22016Y209616D01*
X22026Y209591D01*
X22111Y209470D01*
X22191Y209345D01*
X22210Y209327D01*
X22225Y209305D01*
X22335Y209206D01*
X22442Y209103D01*
X22464Y209089D01*
X22484Y209072D01*
X22614Y209000D01*
X22741Y208924D01*
X22766Y208916D01*
X22789Y208903D01*
X22932Y208863D01*
X23073Y208818D01*
X23099Y208816D01*
X23124Y208808D01*
X23368Y208789D01*
X27497Y208789D01*
X32259Y204027D01*
X32259Y197293D01*
X27497Y192531D01*
X23368Y192531D01*
X23342Y192528D01*
X23316Y192530D01*
X23169Y192508D01*
X23022Y192491D01*
X22997Y192483D01*
X22971Y192479D01*
X22833Y192424D01*
X22694Y192374D01*
X22672Y192360D01*
X22647Y192350D01*
X22526Y192265D01*
X22401Y192185D01*
X22383Y192166D01*
X22361Y192151D01*
X22262Y192041D01*
X22159Y191934D01*
X22145Y191912D01*
X22128Y191892D01*
X22056Y191762D01*
X21980Y191635D01*
X21972Y191610D01*
X21959Y191587D01*
X21919Y191444D01*
X21874Y191303D01*
X21872Y191277D01*
X21864Y191252D01*
X21845Y191008D01*
X21845Y107315D01*
X21848Y107289D01*
X21846Y107263D01*
X21868Y107116D01*
X21885Y106969D01*
X21893Y106944D01*
X21897Y106918D01*
X21952Y106780D01*
X22002Y106641D01*
X22016Y106619D01*
X22026Y106594D01*
X22111Y106473D01*
X22191Y106348D01*
X22210Y106330D01*
X22225Y106308D01*
X22335Y106209D01*
X22442Y106106D01*
X22464Y106092D01*
X22484Y106075D01*
X22614Y106003D01*
X22741Y105927D01*
X22766Y105919D01*
X22789Y105906D01*
X22932Y105866D01*
X23073Y105821D01*
X23099Y105819D01*
X23124Y105811D01*
X23368Y105792D01*
X24639Y105792D01*
X24639Y95758D01*
X24642Y95732D01*
X24640Y95706D01*
X24662Y95559D01*
X24679Y95412D01*
X24687Y95387D01*
X24691Y95361D01*
X24734Y95254D01*
X24713Y95178D01*
X24668Y95037D01*
X24665Y95011D01*
X24658Y94986D01*
X24639Y94742D01*
X24639Y84708D01*
X23368Y84708D01*
X23342Y84705D01*
X23316Y84707D01*
X23169Y84685D01*
X23022Y84668D01*
X22997Y84660D01*
X22971Y84656D01*
X22833Y84601D01*
X22694Y84551D01*
X22672Y84537D01*
X22647Y84527D01*
X22526Y84442D01*
X22401Y84362D01*
X22383Y84343D01*
X22361Y84328D01*
X22262Y84218D01*
X22159Y84111D01*
X22145Y84089D01*
X22128Y84069D01*
X22056Y83939D01*
X21980Y83812D01*
X21972Y83787D01*
X21959Y83764D01*
X21919Y83621D01*
X21874Y83480D01*
X21872Y83454D01*
X21864Y83429D01*
X21845Y83185D01*
X21845Y43688D01*
X21848Y43662D01*
X21846Y43636D01*
X21868Y43489D01*
X21885Y43342D01*
X21893Y43317D01*
X21897Y43291D01*
X21952Y43153D01*
X22002Y43014D01*
X22016Y42992D01*
X22026Y42967D01*
X22111Y42846D01*
X22191Y42721D01*
X22210Y42703D01*
X22225Y42681D01*
X22335Y42582D01*
X22442Y42479D01*
X22464Y42465D01*
X22484Y42448D01*
X22614Y42376D01*
X22741Y42300D01*
X22766Y42292D01*
X22789Y42279D01*
X22932Y42239D01*
X23073Y42194D01*
X23099Y42192D01*
X23124Y42184D01*
X23368Y42165D01*
X27432Y42165D01*
X27458Y42168D01*
G37*
%LPC*%
G36*
X76643Y123951D02*
X76643Y123951D01*
X71881Y128713D01*
X71881Y135447D01*
X76784Y140350D01*
X76830Y140366D01*
X76914Y140421D01*
X77004Y140467D01*
X77060Y140515D01*
X77123Y140555D01*
X77192Y140627D01*
X77269Y140692D01*
X77313Y140752D01*
X77365Y140806D01*
X77416Y140892D01*
X77476Y140973D01*
X77506Y141041D01*
X77544Y141105D01*
X77574Y141201D01*
X77614Y141293D01*
X77627Y141366D01*
X77650Y141437D01*
X77658Y141537D01*
X77676Y141636D01*
X77672Y141710D01*
X77678Y141784D01*
X77663Y141884D01*
X77658Y141984D01*
X77637Y142055D01*
X77626Y142129D01*
X77589Y142222D01*
X77561Y142319D01*
X77525Y142384D01*
X77498Y142453D01*
X77440Y142535D01*
X77391Y142623D01*
X77326Y142699D01*
X77299Y142739D01*
X77272Y142763D01*
X77233Y142809D01*
X70738Y149303D01*
X70738Y151639D01*
X80772Y151639D01*
X80798Y151642D01*
X80824Y151640D01*
X80971Y151662D01*
X81118Y151679D01*
X81143Y151687D01*
X81169Y151691D01*
X81276Y151734D01*
X81352Y151713D01*
X81493Y151668D01*
X81519Y151665D01*
X81544Y151658D01*
X81788Y151639D01*
X91822Y151639D01*
X91822Y149303D01*
X85647Y143128D01*
X84135Y143128D01*
X84035Y143117D01*
X83935Y143115D01*
X83863Y143097D01*
X83789Y143088D01*
X83694Y143055D01*
X83597Y143030D01*
X83531Y142996D01*
X83461Y142971D01*
X83376Y142916D01*
X83287Y142870D01*
X83230Y142822D01*
X83168Y142782D01*
X83098Y142710D01*
X83022Y142645D01*
X82977Y142585D01*
X82926Y142531D01*
X82874Y142445D01*
X82814Y142364D01*
X82785Y142296D01*
X82747Y142232D01*
X82716Y142136D01*
X82676Y142044D01*
X82663Y141971D01*
X82641Y141900D01*
X82632Y141800D01*
X82615Y141701D01*
X82619Y141627D01*
X82613Y141553D01*
X82627Y141453D01*
X82633Y141353D01*
X82653Y141282D01*
X82664Y141208D01*
X82701Y141115D01*
X82729Y141018D01*
X82766Y140953D01*
X82793Y140884D01*
X82850Y140802D01*
X82899Y140714D01*
X82964Y140638D01*
X82992Y140598D01*
X83018Y140574D01*
X83058Y140528D01*
X88139Y135447D01*
X88139Y128713D01*
X83377Y123951D01*
X76643Y123951D01*
G37*
%LPD*%
%LPC*%
G36*
X77334Y169544D02*
X77334Y169544D01*
X71754Y175124D01*
X71754Y183016D01*
X77334Y188596D01*
X85226Y188596D01*
X90806Y183016D01*
X90806Y175124D01*
X85226Y169544D01*
X77334Y169544D01*
G37*
%LPD*%
%LPC*%
G36*
X48124Y85724D02*
X48124Y85724D01*
X42544Y91304D01*
X42544Y99196D01*
X48124Y104776D01*
X56016Y104776D01*
X61596Y99196D01*
X61596Y91304D01*
X56016Y85724D01*
X48124Y85724D01*
G37*
%LPD*%
%LPC*%
G36*
X28701Y97281D02*
X28701Y97281D01*
X28701Y105792D01*
X31037Y105792D01*
X37212Y99617D01*
X37212Y97281D01*
X28701Y97281D01*
G37*
%LPD*%
%LPC*%
G36*
X83311Y155701D02*
X83311Y155701D01*
X83311Y164212D01*
X85647Y164212D01*
X91822Y158037D01*
X91822Y155701D01*
X83311Y155701D01*
G37*
%LPD*%
%LPC*%
G36*
X70738Y155701D02*
X70738Y155701D01*
X70738Y158037D01*
X76913Y164212D01*
X79249Y164212D01*
X79249Y155701D01*
X70738Y155701D01*
G37*
%LPD*%
%LPC*%
G36*
X28701Y84708D02*
X28701Y84708D01*
X28701Y93219D01*
X37212Y93219D01*
X37212Y90883D01*
X31037Y84708D01*
X28701Y84708D01*
G37*
%LPD*%
%LPC*%
G36*
X82041Y83311D02*
X82041Y83311D01*
X82041Y90425D01*
X83798Y90425D01*
X89155Y85068D01*
X89155Y83311D01*
X82041Y83311D01*
G37*
%LPD*%
%LPC*%
G36*
X82041Y79249D02*
X82041Y79249D01*
X89155Y79249D01*
X89155Y77492D01*
X83798Y72135D01*
X82041Y72135D01*
X82041Y79249D01*
G37*
%LPD*%
%LPC*%
G36*
X70865Y83311D02*
X70865Y83311D01*
X70865Y85068D01*
X76222Y90425D01*
X77979Y90425D01*
X77979Y83311D01*
X70865Y83311D01*
G37*
%LPD*%
%LPC*%
G36*
X76222Y72135D02*
X76222Y72135D01*
X70865Y77492D01*
X70865Y79249D01*
X77979Y79249D01*
X77979Y72135D01*
X76222Y72135D01*
G37*
%LPD*%
D10*
X80010Y81280D03*
X80010Y132080D03*
D11*
X105410Y191770D03*
X105410Y140970D03*
D12*
X24130Y200660D03*
X74930Y200660D03*
D13*
X88900Y48260D02*
X88900Y33020D01*
X63500Y33020D02*
X63500Y48260D01*
X38100Y48260D02*
X38100Y33020D01*
D14*
X81280Y153670D03*
X81280Y179070D03*
X104140Y95250D03*
X104140Y120650D03*
D15*
X52070Y95250D03*
X26670Y95250D03*
D16*
X61722Y268732D03*
D17*
X82230Y153670D02*
X89662Y146238D01*
X82230Y153670D02*
X81280Y153670D01*
X89662Y146238D02*
X89662Y90932D01*
X80010Y81280D01*
X72559Y73829D01*
X48091Y73829D02*
X26670Y95250D01*
X48091Y73829D02*
X70019Y73829D01*
X72559Y73829D01*
X70019Y73829D02*
X63500Y67310D01*
X63500Y40640D01*
D18*
X91440Y204470D03*
M02*
