G04 EAGLE Gerber RS-274X export*
G75*
%MOMM*%
%FSLAX34Y34*%
%LPD*%
%INTop Copper*%
%IPPOS*%
%AMOC8*
5,1,8,0,0,1.08239X$1,22.5*%
G01*
%ADD10P,1.429621X8X112.500000*%
%ADD11P,1.429621X8X292.500000*%
%ADD12P,1.429621X8X22.500000*%
%ADD13C,1.524000*%
%ADD14P,1.732040X8X112.500000*%
%ADD15R,0.650000X1.528000*%
%ADD16P,1.732040X8X202.500000*%
%ADD17C,8.000000*%
%ADD18C,0.304800*%
%ADD19C,0.756400*%

G36*
X27458Y32008D02*
X27458Y32008D01*
X27484Y32006D01*
X27631Y32028D01*
X27778Y32045D01*
X27803Y32053D01*
X27829Y32057D01*
X27967Y32112D01*
X28106Y32162D01*
X28128Y32176D01*
X28153Y32186D01*
X28274Y32271D01*
X28399Y32351D01*
X28417Y32370D01*
X28439Y32385D01*
X28538Y32495D01*
X28641Y32602D01*
X28655Y32624D01*
X28672Y32644D01*
X28744Y32774D01*
X28820Y32901D01*
X28828Y32926D01*
X28841Y32949D01*
X28881Y33092D01*
X28926Y33233D01*
X28928Y33259D01*
X28936Y33284D01*
X28955Y33528D01*
X28955Y50079D01*
X30348Y53440D01*
X32920Y56013D01*
X35254Y56979D01*
X35321Y57016D01*
X35392Y57045D01*
X35473Y57101D01*
X35559Y57149D01*
X35615Y57200D01*
X35678Y57244D01*
X35744Y57317D01*
X35817Y57383D01*
X35860Y57446D01*
X35911Y57502D01*
X35959Y57588D01*
X36015Y57669D01*
X36043Y57741D01*
X36080Y57807D01*
X36107Y57902D01*
X36143Y57994D01*
X36154Y58069D01*
X36175Y58143D01*
X36187Y58292D01*
X36194Y58338D01*
X36192Y58358D01*
X36194Y58387D01*
X36194Y86189D01*
X36183Y86288D01*
X36181Y86389D01*
X36163Y86461D01*
X36154Y86535D01*
X36121Y86629D01*
X36096Y86727D01*
X36062Y86793D01*
X36037Y86863D01*
X35982Y86947D01*
X35936Y87037D01*
X35888Y87093D01*
X35848Y87156D01*
X35776Y87225D01*
X35711Y87302D01*
X35651Y87346D01*
X35597Y87398D01*
X35511Y87449D01*
X35430Y87509D01*
X35362Y87539D01*
X35298Y87577D01*
X35202Y87607D01*
X35110Y87647D01*
X35037Y87660D01*
X34966Y87683D01*
X34866Y87691D01*
X34767Y87709D01*
X34693Y87705D01*
X34619Y87711D01*
X34519Y87696D01*
X34419Y87691D01*
X34348Y87670D01*
X34274Y87659D01*
X34181Y87622D01*
X34084Y87594D01*
X34019Y87558D01*
X33950Y87531D01*
X33868Y87473D01*
X33780Y87424D01*
X33704Y87359D01*
X33664Y87332D01*
X33640Y87305D01*
X33594Y87266D01*
X31037Y84708D01*
X28701Y84708D01*
X28701Y94742D01*
X28698Y94768D01*
X28700Y94794D01*
X28678Y94941D01*
X28661Y95088D01*
X28653Y95113D01*
X28649Y95139D01*
X28606Y95246D01*
X28627Y95322D01*
X28672Y95463D01*
X28674Y95489D01*
X28682Y95514D01*
X28701Y95758D01*
X28701Y105792D01*
X31037Y105792D01*
X33594Y103234D01*
X33672Y103172D01*
X33745Y103102D01*
X33809Y103064D01*
X33867Y103018D01*
X33958Y102975D01*
X34044Y102923D01*
X34115Y102901D01*
X34182Y102869D01*
X34280Y102848D01*
X34376Y102817D01*
X34450Y102811D01*
X34523Y102795D01*
X34623Y102797D01*
X34723Y102789D01*
X34797Y102800D01*
X34871Y102801D01*
X34968Y102826D01*
X35068Y102841D01*
X35137Y102868D01*
X35209Y102886D01*
X35298Y102932D01*
X35392Y102969D01*
X35453Y103012D01*
X35519Y103046D01*
X35595Y103111D01*
X35678Y103168D01*
X35728Y103224D01*
X35784Y103272D01*
X35844Y103353D01*
X35911Y103427D01*
X35947Y103492D01*
X35992Y103552D01*
X36031Y103644D01*
X36080Y103732D01*
X36100Y103804D01*
X36130Y103872D01*
X36147Y103971D01*
X36175Y104068D01*
X36183Y104168D01*
X36191Y104215D01*
X36189Y104251D01*
X36194Y104311D01*
X36194Y105299D01*
X36180Y105425D01*
X36173Y105551D01*
X36160Y105597D01*
X36154Y105645D01*
X36112Y105764D01*
X36077Y105886D01*
X36053Y105928D01*
X36037Y105973D01*
X35968Y106079D01*
X35907Y106190D01*
X35867Y106236D01*
X35848Y106266D01*
X35813Y106300D01*
X35748Y106376D01*
X32203Y109921D01*
X31525Y110599D01*
X31426Y110678D01*
X31332Y110762D01*
X31290Y110786D01*
X31252Y110816D01*
X31138Y110870D01*
X31027Y110931D01*
X30981Y110944D01*
X30937Y110965D01*
X30813Y110991D01*
X30692Y111026D01*
X30631Y111031D01*
X30596Y111038D01*
X30548Y111037D01*
X30448Y111045D01*
X29138Y111045D01*
X28245Y111938D01*
X28245Y128482D01*
X29138Y129375D01*
X36902Y129375D01*
X37795Y128482D01*
X37795Y113583D01*
X37809Y113458D01*
X37816Y113332D01*
X37829Y113285D01*
X37835Y113237D01*
X37877Y113118D01*
X37912Y112997D01*
X37936Y112955D01*
X37952Y112909D01*
X38021Y112803D01*
X38082Y112693D01*
X38122Y112646D01*
X38141Y112616D01*
X38176Y112583D01*
X38241Y112506D01*
X38345Y112402D01*
X38423Y112340D01*
X38496Y112270D01*
X38560Y112232D01*
X38618Y112186D01*
X38709Y112143D01*
X38795Y112091D01*
X38866Y112069D01*
X38933Y112037D01*
X39031Y112016D01*
X39127Y111985D01*
X39201Y111979D01*
X39274Y111963D01*
X39374Y111965D01*
X39474Y111957D01*
X39548Y111968D01*
X39622Y111969D01*
X39719Y111994D01*
X39819Y112009D01*
X39888Y112036D01*
X39960Y112054D01*
X40050Y112100D01*
X40143Y112137D01*
X40204Y112180D01*
X40270Y112214D01*
X40347Y112279D01*
X40429Y112336D01*
X40479Y112392D01*
X40535Y112440D01*
X40595Y112521D01*
X40662Y112595D01*
X40698Y112660D01*
X40743Y112720D01*
X40782Y112812D01*
X40831Y112900D01*
X40851Y112972D01*
X40881Y113040D01*
X40898Y113139D01*
X40926Y113236D01*
X40934Y113336D01*
X40942Y113383D01*
X40940Y113419D01*
X40945Y113479D01*
X40945Y128482D01*
X41838Y129375D01*
X49602Y129375D01*
X50495Y128482D01*
X50495Y115738D01*
X50509Y115612D01*
X50516Y115486D01*
X50529Y115440D01*
X50535Y115392D01*
X50577Y115273D01*
X50612Y115151D01*
X50636Y115109D01*
X50652Y115063D01*
X50720Y114958D01*
X50782Y114847D01*
X50822Y114801D01*
X50841Y114771D01*
X50876Y114737D01*
X50941Y114661D01*
X51045Y114557D01*
X51123Y114494D01*
X51196Y114424D01*
X51260Y114386D01*
X51318Y114340D01*
X51409Y114297D01*
X51495Y114246D01*
X51566Y114223D01*
X51633Y114191D01*
X51731Y114170D01*
X51827Y114139D01*
X51901Y114133D01*
X51973Y114118D01*
X52074Y114119D01*
X52174Y114111D01*
X52248Y114122D01*
X52322Y114124D01*
X52419Y114148D01*
X52519Y114163D01*
X52588Y114191D01*
X52660Y114209D01*
X52749Y114255D01*
X52843Y114292D01*
X52904Y114334D01*
X52970Y114368D01*
X53046Y114433D01*
X53129Y114491D01*
X53179Y114546D01*
X53235Y114594D01*
X53295Y114675D01*
X53362Y114750D01*
X53398Y114815D01*
X53442Y114874D01*
X53482Y114966D01*
X53531Y115055D01*
X53551Y115126D01*
X53580Y115194D01*
X53598Y115293D01*
X53626Y115390D01*
X53634Y115490D01*
X53642Y115537D01*
X53640Y115573D01*
X53645Y115634D01*
X53645Y128482D01*
X54538Y129375D01*
X62302Y129375D01*
X63195Y128482D01*
X63195Y111938D01*
X62302Y111045D01*
X56642Y111045D01*
X56616Y111042D01*
X56590Y111044D01*
X56443Y111022D01*
X56296Y111005D01*
X56271Y110997D01*
X56245Y110993D01*
X56107Y110938D01*
X55968Y110888D01*
X55946Y110874D01*
X55921Y110864D01*
X55800Y110779D01*
X55675Y110699D01*
X55657Y110680D01*
X55635Y110665D01*
X55536Y110555D01*
X55433Y110448D01*
X55419Y110426D01*
X55402Y110406D01*
X55330Y110276D01*
X55254Y110149D01*
X55246Y110124D01*
X55233Y110101D01*
X55193Y109958D01*
X55148Y109817D01*
X55146Y109791D01*
X55138Y109766D01*
X55119Y109522D01*
X55119Y106299D01*
X55122Y106273D01*
X55120Y106247D01*
X55142Y106100D01*
X55144Y106047D01*
X55150Y106028D01*
X55159Y105953D01*
X55167Y105928D01*
X55171Y105902D01*
X55225Y105766D01*
X55241Y105712D01*
X55252Y105693D01*
X55276Y105625D01*
X55290Y105603D01*
X55300Y105578D01*
X55381Y105462D01*
X55411Y105408D01*
X55431Y105385D01*
X55465Y105332D01*
X55484Y105314D01*
X55499Y105292D01*
X55546Y105250D01*
X55570Y105222D01*
X61596Y99196D01*
X61596Y91304D01*
X60769Y90477D01*
X60752Y90457D01*
X60732Y90440D01*
X60644Y90320D01*
X60552Y90204D01*
X60541Y90181D01*
X60525Y90159D01*
X60466Y90023D01*
X60403Y89889D01*
X60398Y89863D01*
X60387Y89839D01*
X60361Y89693D01*
X60330Y89548D01*
X60330Y89522D01*
X60325Y89496D01*
X60333Y89348D01*
X60336Y89200D01*
X60342Y89174D01*
X60343Y89148D01*
X60384Y89006D01*
X60421Y88862D01*
X60433Y88839D01*
X60440Y88813D01*
X60512Y88684D01*
X60580Y88552D01*
X60597Y88532D01*
X60610Y88509D01*
X60769Y88323D01*
X68265Y80827D01*
X68343Y80764D01*
X68416Y80694D01*
X68480Y80656D01*
X68538Y80610D01*
X68629Y80567D01*
X68715Y80516D01*
X68786Y80493D01*
X68853Y80461D01*
X68951Y80440D01*
X69047Y80409D01*
X69121Y80403D01*
X69194Y80388D01*
X69294Y80389D01*
X69394Y80381D01*
X69468Y80392D01*
X69542Y80394D01*
X69639Y80418D01*
X69739Y80433D01*
X69808Y80461D01*
X69880Y80479D01*
X69970Y80525D01*
X70063Y80562D01*
X70124Y80604D01*
X70190Y80638D01*
X70267Y80704D01*
X70349Y80761D01*
X70399Y80816D01*
X70455Y80864D01*
X70515Y80945D01*
X70582Y81020D01*
X70618Y81085D01*
X70663Y81144D01*
X70702Y81237D01*
X70751Y81325D01*
X70771Y81396D01*
X70801Y81464D01*
X70818Y81563D01*
X70846Y81660D01*
X70854Y81760D01*
X70862Y81807D01*
X70860Y81843D01*
X70865Y81904D01*
X70865Y85068D01*
X76222Y90425D01*
X77979Y90425D01*
X77979Y81788D01*
X77982Y81762D01*
X77980Y81736D01*
X78002Y81589D01*
X78019Y81442D01*
X78027Y81417D01*
X78031Y81391D01*
X78086Y81254D01*
X78136Y81114D01*
X78150Y81092D01*
X78160Y81067D01*
X78245Y80946D01*
X78325Y80821D01*
X78344Y80803D01*
X78359Y80781D01*
X78469Y80682D01*
X78576Y80579D01*
X78598Y80565D01*
X78618Y80548D01*
X78748Y80476D01*
X78875Y80400D01*
X78900Y80392D01*
X78923Y80379D01*
X79061Y80340D01*
X79102Y80237D01*
X79152Y80098D01*
X79167Y80076D01*
X79176Y80051D01*
X79261Y79930D01*
X79341Y79805D01*
X79360Y79787D01*
X79375Y79765D01*
X79485Y79666D01*
X79592Y79563D01*
X79615Y79549D01*
X79634Y79532D01*
X79764Y79460D01*
X79891Y79384D01*
X79916Y79376D01*
X79939Y79363D01*
X80082Y79323D01*
X80223Y79278D01*
X80249Y79275D01*
X80274Y79268D01*
X80518Y79249D01*
X89155Y79249D01*
X89155Y77492D01*
X83798Y72135D01*
X80634Y72135D01*
X80534Y72124D01*
X80434Y72122D01*
X80361Y72104D01*
X80288Y72095D01*
X80193Y72062D01*
X80096Y72037D01*
X80029Y72003D01*
X79959Y71978D01*
X79875Y71923D01*
X79786Y71877D01*
X79729Y71829D01*
X79667Y71789D01*
X79597Y71717D01*
X79520Y71652D01*
X79476Y71592D01*
X79424Y71538D01*
X79373Y71452D01*
X79313Y71371D01*
X79284Y71303D01*
X79246Y71239D01*
X79215Y71143D01*
X79175Y71051D01*
X79162Y70978D01*
X79139Y70907D01*
X79131Y70807D01*
X79114Y70708D01*
X79117Y70634D01*
X79111Y70560D01*
X79126Y70460D01*
X79131Y70360D01*
X79152Y70289D01*
X79163Y70215D01*
X79200Y70122D01*
X79228Y70025D01*
X79264Y69960D01*
X79292Y69891D01*
X79349Y69809D01*
X79398Y69721D01*
X79463Y69645D01*
X79491Y69605D01*
X79517Y69581D01*
X79557Y69535D01*
X92157Y56935D01*
X92159Y56933D01*
X92160Y56932D01*
X92296Y56824D01*
X92430Y56718D01*
X92432Y56717D01*
X92433Y56716D01*
X92651Y56604D01*
X94080Y56013D01*
X96652Y53440D01*
X98045Y50079D01*
X98045Y33528D01*
X98048Y33502D01*
X98046Y33476D01*
X98068Y33329D01*
X98085Y33182D01*
X98093Y33157D01*
X98097Y33131D01*
X98152Y32993D01*
X98202Y32854D01*
X98216Y32832D01*
X98226Y32807D01*
X98311Y32686D01*
X98391Y32561D01*
X98410Y32543D01*
X98425Y32521D01*
X98535Y32422D01*
X98642Y32319D01*
X98664Y32305D01*
X98684Y32288D01*
X98814Y32216D01*
X98941Y32140D01*
X98966Y32132D01*
X98989Y32119D01*
X99132Y32079D01*
X99273Y32034D01*
X99299Y32032D01*
X99324Y32024D01*
X99568Y32005D01*
X103632Y32005D01*
X103658Y32008D01*
X103684Y32006D01*
X103831Y32028D01*
X103978Y32045D01*
X104003Y32053D01*
X104029Y32057D01*
X104167Y32112D01*
X104306Y32162D01*
X104328Y32176D01*
X104353Y32186D01*
X104474Y32271D01*
X104599Y32351D01*
X104617Y32370D01*
X104639Y32385D01*
X104738Y32495D01*
X104841Y32602D01*
X104855Y32624D01*
X104872Y32644D01*
X104944Y32774D01*
X105020Y32901D01*
X105028Y32926D01*
X105041Y32949D01*
X105081Y33092D01*
X105126Y33233D01*
X105128Y33259D01*
X105136Y33284D01*
X105155Y33528D01*
X105155Y84201D01*
X105152Y84227D01*
X105154Y84253D01*
X105132Y84400D01*
X105115Y84547D01*
X105107Y84572D01*
X105103Y84598D01*
X105048Y84736D01*
X104998Y84875D01*
X104984Y84897D01*
X104974Y84922D01*
X104889Y85043D01*
X104809Y85168D01*
X104790Y85186D01*
X104775Y85208D01*
X104665Y85307D01*
X104558Y85410D01*
X104536Y85424D01*
X104516Y85441D01*
X104386Y85513D01*
X104259Y85589D01*
X104234Y85597D01*
X104211Y85610D01*
X104068Y85650D01*
X103927Y85695D01*
X103901Y85697D01*
X103876Y85705D01*
X103632Y85724D01*
X100194Y85724D01*
X94235Y91684D01*
X94234Y91685D01*
X94231Y91688D01*
X94168Y91750D01*
X94116Y91791D01*
X94017Y91887D01*
X93995Y91901D01*
X93975Y91918D01*
X93914Y91952D01*
X93895Y91967D01*
X93841Y91992D01*
X93718Y92066D01*
X93693Y92074D01*
X93670Y92087D01*
X93599Y92107D01*
X93580Y92116D01*
X93526Y92128D01*
X93386Y92172D01*
X93360Y92174D01*
X93335Y92182D01*
X93240Y92189D01*
X93239Y92189D01*
X93091Y92201D01*
X91447Y92201D01*
X76961Y106687D01*
X76961Y123002D01*
X76947Y123128D01*
X76940Y123254D01*
X76927Y123300D01*
X76921Y123348D01*
X76879Y123467D01*
X76844Y123589D01*
X76820Y123631D01*
X76804Y123676D01*
X76735Y123783D01*
X76674Y123893D01*
X76634Y123939D01*
X76615Y123969D01*
X76580Y124003D01*
X76515Y124079D01*
X71881Y128713D01*
X71881Y135266D01*
X71867Y135392D01*
X71860Y135518D01*
X71847Y135564D01*
X71841Y135612D01*
X71799Y135731D01*
X71764Y135853D01*
X71740Y135895D01*
X71724Y135941D01*
X71655Y136047D01*
X71594Y136157D01*
X71554Y136203D01*
X71535Y136233D01*
X71500Y136267D01*
X71435Y136343D01*
X44903Y162875D01*
X42959Y164819D01*
X42860Y164898D01*
X42766Y164982D01*
X42724Y165006D01*
X42686Y165036D01*
X42572Y165090D01*
X42461Y165151D01*
X42415Y165164D01*
X42371Y165185D01*
X42248Y165211D01*
X42126Y165246D01*
X42065Y165251D01*
X42031Y165258D01*
X41983Y165257D01*
X41882Y165265D01*
X41838Y165265D01*
X40945Y166158D01*
X40945Y181546D01*
X40934Y181646D01*
X40932Y181747D01*
X40914Y181819D01*
X40905Y181892D01*
X40871Y181987D01*
X40847Y182085D01*
X40813Y182151D01*
X40788Y182221D01*
X40733Y182305D01*
X40687Y182394D01*
X40639Y182451D01*
X40599Y182513D01*
X40526Y182583D01*
X40461Y182660D01*
X40402Y182704D01*
X40348Y182756D01*
X40262Y182807D01*
X40181Y182867D01*
X40113Y182896D01*
X40049Y182934D01*
X39953Y182965D01*
X39861Y183005D01*
X39788Y183018D01*
X39717Y183041D01*
X39617Y183049D01*
X39518Y183066D01*
X39444Y183063D01*
X39370Y183069D01*
X39270Y183054D01*
X39170Y183049D01*
X39099Y183028D01*
X39025Y183017D01*
X38932Y182980D01*
X38835Y182952D01*
X38770Y182916D01*
X38701Y182888D01*
X38619Y182831D01*
X38531Y182782D01*
X38455Y182717D01*
X38415Y182689D01*
X38391Y182663D01*
X38345Y182623D01*
X38241Y182519D01*
X38162Y182420D01*
X38078Y182326D01*
X38054Y182284D01*
X38024Y182246D01*
X37970Y182132D01*
X37909Y182021D01*
X37896Y181975D01*
X37875Y181931D01*
X37849Y181808D01*
X37814Y181686D01*
X37809Y181625D01*
X37802Y181590D01*
X37803Y181542D01*
X37795Y181442D01*
X37795Y166158D01*
X36902Y165265D01*
X29138Y165265D01*
X28314Y166090D01*
X28274Y166122D01*
X28239Y166159D01*
X28137Y166230D01*
X28041Y166307D01*
X27995Y166328D01*
X27953Y166357D01*
X27837Y166403D01*
X27726Y166455D01*
X27676Y166466D01*
X27628Y166485D01*
X27506Y166503D01*
X27385Y166529D01*
X27334Y166528D01*
X27283Y166535D01*
X27160Y166525D01*
X27036Y166523D01*
X26987Y166510D01*
X26936Y166506D01*
X26818Y166468D01*
X26698Y166438D01*
X26653Y166415D01*
X26605Y166399D01*
X26499Y166335D01*
X26389Y166278D01*
X26350Y166245D01*
X26306Y166219D01*
X26217Y166133D01*
X26123Y166052D01*
X26093Y166011D01*
X26056Y165976D01*
X25917Y165774D01*
X25603Y165230D01*
X25130Y164757D01*
X24551Y164422D01*
X23905Y164249D01*
X23368Y164249D01*
X23342Y164246D01*
X23316Y164248D01*
X23169Y164226D01*
X23022Y164209D01*
X22997Y164201D01*
X22971Y164197D01*
X22833Y164142D01*
X22694Y164092D01*
X22672Y164078D01*
X22647Y164068D01*
X22526Y163983D01*
X22401Y163903D01*
X22383Y163884D01*
X22361Y163869D01*
X22262Y163759D01*
X22159Y163652D01*
X22145Y163630D01*
X22128Y163610D01*
X22056Y163480D01*
X21980Y163353D01*
X21972Y163328D01*
X21959Y163305D01*
X21919Y163162D01*
X21874Y163021D01*
X21872Y162995D01*
X21864Y162970D01*
X21845Y162726D01*
X21845Y130898D01*
X21848Y130872D01*
X21846Y130846D01*
X21868Y130699D01*
X21885Y130552D01*
X21893Y130527D01*
X21897Y130501D01*
X21952Y130363D01*
X22002Y130224D01*
X22016Y130202D01*
X22026Y130177D01*
X22111Y130056D01*
X22191Y129931D01*
X22210Y129913D01*
X22225Y129891D01*
X22335Y129792D01*
X22442Y129689D01*
X22464Y129675D01*
X22484Y129658D01*
X22614Y129586D01*
X22741Y129510D01*
X22766Y129502D01*
X22789Y129489D01*
X22932Y129449D01*
X23073Y129404D01*
X23099Y129402D01*
X23124Y129394D01*
X23368Y129375D01*
X24202Y129375D01*
X25095Y128482D01*
X25095Y111938D01*
X24202Y111045D01*
X23368Y111045D01*
X23342Y111042D01*
X23316Y111044D01*
X23169Y111022D01*
X23022Y111005D01*
X22997Y110997D01*
X22971Y110993D01*
X22833Y110938D01*
X22694Y110888D01*
X22672Y110874D01*
X22647Y110864D01*
X22526Y110779D01*
X22401Y110699D01*
X22383Y110680D01*
X22361Y110665D01*
X22262Y110555D01*
X22159Y110448D01*
X22145Y110426D01*
X22128Y110406D01*
X22056Y110276D01*
X21980Y110149D01*
X21972Y110124D01*
X21959Y110101D01*
X21919Y109958D01*
X21874Y109817D01*
X21872Y109791D01*
X21864Y109766D01*
X21845Y109522D01*
X21845Y107315D01*
X21848Y107289D01*
X21846Y107263D01*
X21868Y107116D01*
X21885Y106969D01*
X21893Y106944D01*
X21897Y106918D01*
X21952Y106780D01*
X22002Y106641D01*
X22016Y106619D01*
X22026Y106594D01*
X22111Y106473D01*
X22191Y106348D01*
X22210Y106330D01*
X22225Y106308D01*
X22335Y106209D01*
X22442Y106106D01*
X22464Y106092D01*
X22484Y106075D01*
X22614Y106003D01*
X22741Y105927D01*
X22766Y105919D01*
X22789Y105906D01*
X22932Y105866D01*
X23073Y105821D01*
X23099Y105819D01*
X23124Y105811D01*
X23368Y105792D01*
X24639Y105792D01*
X24639Y95758D01*
X24642Y95732D01*
X24640Y95706D01*
X24662Y95559D01*
X24679Y95412D01*
X24687Y95387D01*
X24691Y95361D01*
X24734Y95254D01*
X24713Y95178D01*
X24668Y95037D01*
X24665Y95011D01*
X24658Y94986D01*
X24639Y94742D01*
X24639Y84708D01*
X23368Y84708D01*
X23342Y84705D01*
X23316Y84707D01*
X23169Y84685D01*
X23022Y84668D01*
X22997Y84660D01*
X22971Y84656D01*
X22833Y84601D01*
X22694Y84551D01*
X22672Y84537D01*
X22647Y84527D01*
X22526Y84442D01*
X22401Y84362D01*
X22383Y84343D01*
X22361Y84328D01*
X22262Y84218D01*
X22159Y84111D01*
X22145Y84089D01*
X22128Y84069D01*
X22056Y83939D01*
X21980Y83812D01*
X21972Y83787D01*
X21959Y83764D01*
X21919Y83621D01*
X21874Y83480D01*
X21872Y83454D01*
X21864Y83429D01*
X21845Y83185D01*
X21845Y33528D01*
X21848Y33502D01*
X21846Y33476D01*
X21868Y33329D01*
X21885Y33182D01*
X21893Y33157D01*
X21897Y33131D01*
X21952Y32993D01*
X22002Y32854D01*
X22016Y32832D01*
X22026Y32807D01*
X22111Y32686D01*
X22191Y32561D01*
X22210Y32543D01*
X22225Y32521D01*
X22335Y32422D01*
X22442Y32319D01*
X22464Y32305D01*
X22484Y32288D01*
X22614Y32216D01*
X22741Y32140D01*
X22766Y32132D01*
X22789Y32119D01*
X22932Y32079D01*
X23073Y32034D01*
X23099Y32032D01*
X23124Y32024D01*
X23368Y32005D01*
X27432Y32005D01*
X27458Y32008D01*
G37*
G36*
X51842Y32008D02*
X51842Y32008D01*
X51868Y32006D01*
X52015Y32028D01*
X52162Y32045D01*
X52187Y32053D01*
X52213Y32057D01*
X52351Y32112D01*
X52490Y32162D01*
X52512Y32176D01*
X52537Y32186D01*
X52658Y32271D01*
X52783Y32351D01*
X52801Y32370D01*
X52823Y32385D01*
X52922Y32495D01*
X53025Y32602D01*
X53039Y32624D01*
X53056Y32644D01*
X53128Y32774D01*
X53204Y32901D01*
X53212Y32926D01*
X53225Y32949D01*
X53265Y33092D01*
X53310Y33233D01*
X53312Y33259D01*
X53320Y33284D01*
X53339Y33528D01*
X53339Y38101D01*
X62484Y38101D01*
X62510Y38104D01*
X62536Y38102D01*
X62683Y38124D01*
X62830Y38141D01*
X62855Y38149D01*
X62881Y38153D01*
X63018Y38208D01*
X63158Y38258D01*
X63180Y38272D01*
X63205Y38282D01*
X63326Y38367D01*
X63451Y38447D01*
X63469Y38466D01*
X63491Y38481D01*
X63505Y38497D01*
X63590Y38415D01*
X63613Y38401D01*
X63632Y38384D01*
X63762Y38312D01*
X63889Y38236D01*
X63914Y38228D01*
X63937Y38215D01*
X64080Y38175D01*
X64221Y38130D01*
X64247Y38127D01*
X64272Y38120D01*
X64516Y38101D01*
X73661Y38101D01*
X73661Y33528D01*
X73664Y33502D01*
X73662Y33476D01*
X73684Y33329D01*
X73701Y33182D01*
X73709Y33157D01*
X73713Y33131D01*
X73768Y32993D01*
X73818Y32854D01*
X73832Y32832D01*
X73842Y32807D01*
X73927Y32686D01*
X74007Y32561D01*
X74026Y32543D01*
X74041Y32521D01*
X74151Y32422D01*
X74258Y32319D01*
X74280Y32305D01*
X74300Y32288D01*
X74430Y32216D01*
X74557Y32140D01*
X74582Y32132D01*
X74605Y32119D01*
X74748Y32079D01*
X74889Y32034D01*
X74915Y32032D01*
X74940Y32024D01*
X75184Y32005D01*
X78232Y32005D01*
X78258Y32008D01*
X78284Y32006D01*
X78431Y32028D01*
X78578Y32045D01*
X78603Y32053D01*
X78629Y32057D01*
X78767Y32112D01*
X78906Y32162D01*
X78928Y32176D01*
X78953Y32186D01*
X79074Y32271D01*
X79199Y32351D01*
X79217Y32370D01*
X79239Y32385D01*
X79338Y32495D01*
X79441Y32602D01*
X79455Y32624D01*
X79472Y32644D01*
X79544Y32774D01*
X79620Y32901D01*
X79628Y32926D01*
X79641Y32949D01*
X79681Y33092D01*
X79726Y33233D01*
X79728Y33259D01*
X79736Y33284D01*
X79755Y33528D01*
X79755Y50079D01*
X81147Y53440D01*
X83011Y55303D01*
X83027Y55324D01*
X83047Y55341D01*
X83092Y55401D01*
X83139Y55451D01*
X83175Y55510D01*
X83227Y55576D01*
X83239Y55600D01*
X83254Y55621D01*
X83288Y55699D01*
X83318Y55750D01*
X83337Y55807D01*
X83376Y55892D01*
X83382Y55917D01*
X83392Y55941D01*
X83409Y56033D01*
X83424Y56082D01*
X83429Y56134D01*
X83450Y56232D01*
X83449Y56258D01*
X83454Y56284D01*
X83449Y56385D01*
X83452Y56429D01*
X83446Y56474D01*
X83444Y56581D01*
X83437Y56606D01*
X83436Y56632D01*
X83406Y56735D01*
X83401Y56774D01*
X83386Y56810D01*
X83359Y56919D01*
X83347Y56942D01*
X83339Y56967D01*
X83285Y57065D01*
X83272Y57097D01*
X83252Y57127D01*
X83199Y57228D01*
X83182Y57248D01*
X83169Y57271D01*
X83011Y57458D01*
X55190Y85278D01*
X55091Y85357D01*
X54997Y85441D01*
X54955Y85465D01*
X54917Y85495D01*
X54803Y85549D01*
X54692Y85610D01*
X54646Y85623D01*
X54602Y85644D01*
X54479Y85670D01*
X54357Y85705D01*
X54296Y85710D01*
X54261Y85717D01*
X54213Y85716D01*
X54113Y85724D01*
X48124Y85724D01*
X44892Y88957D01*
X44814Y89019D01*
X44741Y89089D01*
X44677Y89127D01*
X44619Y89173D01*
X44528Y89216D01*
X44442Y89268D01*
X44371Y89290D01*
X44304Y89322D01*
X44206Y89343D01*
X44110Y89374D01*
X44036Y89380D01*
X43963Y89395D01*
X43863Y89394D01*
X43763Y89402D01*
X43689Y89391D01*
X43615Y89389D01*
X43518Y89365D01*
X43418Y89350D01*
X43349Y89323D01*
X43277Y89304D01*
X43187Y89258D01*
X43094Y89221D01*
X43033Y89179D01*
X42967Y89145D01*
X42891Y89080D01*
X42808Y89022D01*
X42758Y88967D01*
X42702Y88919D01*
X42642Y88838D01*
X42575Y88764D01*
X42539Y88699D01*
X42494Y88639D01*
X42455Y88546D01*
X42406Y88459D01*
X42386Y88387D01*
X42356Y88319D01*
X42339Y88220D01*
X42311Y88123D01*
X42303Y88023D01*
X42295Y87976D01*
X42297Y87940D01*
X42292Y87879D01*
X42292Y57440D01*
X42300Y57364D01*
X42299Y57287D01*
X42320Y57191D01*
X42332Y57093D01*
X42357Y57021D01*
X42374Y56947D01*
X42416Y56858D01*
X42449Y56765D01*
X42491Y56701D01*
X42523Y56632D01*
X42585Y56555D01*
X42638Y56473D01*
X42693Y56419D01*
X42741Y56360D01*
X42818Y56299D01*
X42889Y56230D01*
X42954Y56191D01*
X43014Y56144D01*
X43147Y56076D01*
X43188Y56052D01*
X43206Y56046D01*
X43232Y56032D01*
X43280Y56012D01*
X45852Y53440D01*
X47245Y50079D01*
X47245Y33528D01*
X47248Y33502D01*
X47246Y33476D01*
X47268Y33329D01*
X47285Y33182D01*
X47293Y33157D01*
X47297Y33131D01*
X47352Y32993D01*
X47402Y32854D01*
X47416Y32832D01*
X47426Y32807D01*
X47511Y32686D01*
X47591Y32561D01*
X47610Y32543D01*
X47625Y32521D01*
X47735Y32422D01*
X47842Y32319D01*
X47864Y32305D01*
X47884Y32288D01*
X48014Y32216D01*
X48141Y32140D01*
X48166Y32132D01*
X48189Y32119D01*
X48332Y32079D01*
X48473Y32034D01*
X48499Y32032D01*
X48524Y32024D01*
X48768Y32005D01*
X51816Y32005D01*
X51842Y32008D01*
G37*
G36*
X69341Y147829D02*
X69341Y147829D01*
X69415Y147831D01*
X69512Y147855D01*
X69612Y147870D01*
X69681Y147898D01*
X69753Y147916D01*
X69843Y147962D01*
X69936Y147999D01*
X69997Y148041D01*
X70063Y148075D01*
X70140Y148141D01*
X70222Y148198D01*
X70272Y148253D01*
X70328Y148301D01*
X70388Y148382D01*
X70455Y148457D01*
X70491Y148522D01*
X70536Y148581D01*
X70575Y148674D01*
X70624Y148762D01*
X70644Y148833D01*
X70674Y148901D01*
X70691Y149000D01*
X70719Y149097D01*
X70727Y149197D01*
X70735Y149244D01*
X70733Y149280D01*
X70738Y149341D01*
X70738Y151639D01*
X80772Y151639D01*
X80798Y151642D01*
X80824Y151640D01*
X80971Y151662D01*
X81118Y151679D01*
X81143Y151687D01*
X81169Y151691D01*
X81306Y151746D01*
X81446Y151796D01*
X81468Y151810D01*
X81493Y151820D01*
X81614Y151905D01*
X81739Y151985D01*
X81757Y152004D01*
X81779Y152019D01*
X81878Y152129D01*
X81981Y152236D01*
X81995Y152258D01*
X82012Y152278D01*
X82084Y152408D01*
X82160Y152535D01*
X82168Y152560D01*
X82181Y152583D01*
X82220Y152721D01*
X82323Y152762D01*
X82462Y152812D01*
X82484Y152827D01*
X82509Y152836D01*
X82630Y152921D01*
X82755Y153001D01*
X82773Y153020D01*
X82795Y153035D01*
X82894Y153145D01*
X82997Y153252D01*
X83011Y153275D01*
X83028Y153294D01*
X83100Y153424D01*
X83176Y153551D01*
X83184Y153576D01*
X83197Y153599D01*
X83237Y153742D01*
X83282Y153883D01*
X83284Y153909D01*
X83292Y153934D01*
X83311Y154178D01*
X83311Y164212D01*
X85647Y164212D01*
X90871Y158987D01*
X90949Y158925D01*
X91022Y158855D01*
X91086Y158817D01*
X91144Y158771D01*
X91235Y158728D01*
X91321Y158676D01*
X91392Y158654D01*
X91459Y158622D01*
X91557Y158601D01*
X91653Y158570D01*
X91727Y158564D01*
X91800Y158548D01*
X91900Y158550D01*
X92000Y158542D01*
X92074Y158553D01*
X92148Y158554D01*
X92245Y158579D01*
X92345Y158594D01*
X92414Y158621D01*
X92486Y158639D01*
X92576Y158685D01*
X92669Y158722D01*
X92730Y158765D01*
X92796Y158799D01*
X92873Y158864D01*
X92955Y158921D01*
X93005Y158977D01*
X93061Y159025D01*
X93121Y159106D01*
X93188Y159180D01*
X93224Y159245D01*
X93269Y159305D01*
X93308Y159397D01*
X93357Y159485D01*
X93377Y159557D01*
X93407Y159625D01*
X93424Y159724D01*
X93452Y159821D01*
X93460Y159921D01*
X93468Y159968D01*
X93466Y160004D01*
X93471Y160064D01*
X93471Y174112D01*
X93460Y174212D01*
X93458Y174313D01*
X93440Y174385D01*
X93431Y174459D01*
X93398Y174553D01*
X93373Y174651D01*
X93339Y174717D01*
X93314Y174787D01*
X93259Y174871D01*
X93213Y174960D01*
X93165Y175017D01*
X93125Y175080D01*
X93053Y175149D01*
X92988Y175226D01*
X92928Y175270D01*
X92874Y175322D01*
X92788Y175373D01*
X92707Y175433D01*
X92639Y175462D01*
X92575Y175501D01*
X92479Y175531D01*
X92387Y175571D01*
X92314Y175584D01*
X92243Y175607D01*
X92143Y175615D01*
X92044Y175633D01*
X91970Y175629D01*
X91896Y175635D01*
X91796Y175620D01*
X91696Y175615D01*
X91625Y175594D01*
X91551Y175583D01*
X91458Y175546D01*
X91361Y175518D01*
X91296Y175482D01*
X91227Y175454D01*
X91145Y175397D01*
X91057Y175348D01*
X90981Y175283D01*
X90941Y175255D01*
X90917Y175229D01*
X90871Y175190D01*
X85226Y169544D01*
X77334Y169544D01*
X71754Y175124D01*
X71754Y183388D01*
X71751Y183414D01*
X71753Y183440D01*
X71731Y183587D01*
X71714Y183734D01*
X71706Y183759D01*
X71702Y183785D01*
X71647Y183923D01*
X71597Y184062D01*
X71583Y184084D01*
X71573Y184109D01*
X71488Y184230D01*
X71408Y184355D01*
X71389Y184373D01*
X71374Y184395D01*
X71264Y184494D01*
X71157Y184597D01*
X71135Y184611D01*
X71115Y184628D01*
X70985Y184700D01*
X70858Y184776D01*
X70833Y184784D01*
X70810Y184797D01*
X70667Y184837D01*
X70526Y184882D01*
X70500Y184884D01*
X70475Y184892D01*
X70231Y184911D01*
X64662Y184911D01*
X64563Y184900D01*
X64462Y184898D01*
X64390Y184880D01*
X64316Y184871D01*
X64222Y184838D01*
X64124Y184813D01*
X64058Y184779D01*
X63988Y184754D01*
X63903Y184699D01*
X63814Y184653D01*
X63758Y184605D01*
X63695Y184565D01*
X63625Y184493D01*
X63549Y184427D01*
X63505Y184368D01*
X63453Y184314D01*
X63402Y184228D01*
X63342Y184147D01*
X63312Y184079D01*
X63274Y184015D01*
X63244Y183919D01*
X63204Y183827D01*
X63191Y183754D01*
X63168Y183683D01*
X63160Y183583D01*
X63142Y183484D01*
X63146Y183410D01*
X63140Y183336D01*
X63155Y183236D01*
X63160Y183136D01*
X63181Y183065D01*
X63192Y182991D01*
X63195Y182984D01*
X63195Y166158D01*
X62302Y165265D01*
X54814Y165265D01*
X54714Y165254D01*
X54614Y165252D01*
X54541Y165234D01*
X54468Y165225D01*
X54373Y165192D01*
X54276Y165167D01*
X54209Y165133D01*
X54139Y165108D01*
X54055Y165053D01*
X53966Y165007D01*
X53909Y164959D01*
X53847Y164919D01*
X53777Y164847D01*
X53700Y164782D01*
X53656Y164722D01*
X53604Y164668D01*
X53553Y164582D01*
X53493Y164501D01*
X53464Y164433D01*
X53426Y164369D01*
X53395Y164273D01*
X53355Y164181D01*
X53342Y164108D01*
X53319Y164037D01*
X53311Y163937D01*
X53294Y163838D01*
X53297Y163764D01*
X53291Y163690D01*
X53306Y163590D01*
X53311Y163490D01*
X53332Y163419D01*
X53343Y163345D01*
X53380Y163252D01*
X53408Y163155D01*
X53444Y163090D01*
X53472Y163021D01*
X53529Y162939D01*
X53578Y162851D01*
X53643Y162775D01*
X53671Y162735D01*
X53697Y162711D01*
X53737Y162665D01*
X68138Y148264D01*
X68216Y148201D01*
X68289Y148131D01*
X68353Y148093D01*
X68411Y148047D01*
X68502Y148004D01*
X68588Y147953D01*
X68659Y147930D01*
X68726Y147898D01*
X68824Y147877D01*
X68920Y147846D01*
X68994Y147840D01*
X69067Y147825D01*
X69167Y147826D01*
X69267Y147818D01*
X69341Y147829D01*
G37*
G36*
X92074Y182516D02*
X92074Y182516D01*
X92148Y182518D01*
X92245Y182542D01*
X92345Y182557D01*
X92414Y182584D01*
X92486Y182603D01*
X92576Y182649D01*
X92669Y182686D01*
X92730Y182728D01*
X92796Y182762D01*
X92873Y182827D01*
X92955Y182885D01*
X93005Y182940D01*
X93061Y182988D01*
X93121Y183069D01*
X93188Y183143D01*
X93224Y183208D01*
X93269Y183268D01*
X93308Y183361D01*
X93357Y183448D01*
X93377Y183520D01*
X93407Y183588D01*
X93424Y183687D01*
X93452Y183784D01*
X93460Y183884D01*
X93468Y183931D01*
X93466Y183967D01*
X93471Y184028D01*
X93471Y184143D01*
X96835Y187507D01*
X96914Y187606D01*
X96998Y187700D01*
X97022Y187742D01*
X97052Y187780D01*
X97106Y187894D01*
X97167Y188005D01*
X97180Y188051D01*
X97201Y188095D01*
X97227Y188218D01*
X97262Y188340D01*
X97267Y188401D01*
X97274Y188436D01*
X97273Y188484D01*
X97281Y188584D01*
X97281Y195137D01*
X102043Y199899D01*
X103632Y199899D01*
X103658Y199902D01*
X103684Y199900D01*
X103831Y199922D01*
X103978Y199939D01*
X104003Y199947D01*
X104029Y199951D01*
X104167Y200006D01*
X104306Y200056D01*
X104328Y200070D01*
X104353Y200080D01*
X104474Y200165D01*
X104599Y200245D01*
X104617Y200264D01*
X104639Y200279D01*
X104738Y200389D01*
X104841Y200496D01*
X104855Y200518D01*
X104872Y200538D01*
X104944Y200668D01*
X105020Y200795D01*
X105028Y200820D01*
X105041Y200843D01*
X105081Y200986D01*
X105126Y201127D01*
X105128Y201153D01*
X105136Y201178D01*
X105155Y201422D01*
X105155Y223154D01*
X105152Y223183D01*
X105154Y223212D01*
X105132Y223356D01*
X105115Y223501D01*
X105106Y223528D01*
X105101Y223556D01*
X105047Y223692D01*
X104998Y223829D01*
X104982Y223853D01*
X104972Y223880D01*
X104888Y223999D01*
X104809Y224122D01*
X104788Y224142D01*
X104772Y224165D01*
X104663Y224263D01*
X104558Y224364D01*
X104534Y224379D01*
X104512Y224398D01*
X104384Y224468D01*
X104259Y224543D01*
X104232Y224551D01*
X104207Y224565D01*
X104066Y224604D01*
X103927Y224649D01*
X103899Y224651D01*
X103871Y224659D01*
X103725Y224665D01*
X103580Y224677D01*
X103551Y224673D01*
X103523Y224674D01*
X103380Y224647D01*
X103235Y224625D01*
X103208Y224615D01*
X103180Y224609D01*
X103047Y224550D01*
X102911Y224496D01*
X102888Y224480D01*
X102861Y224468D01*
X102661Y224328D01*
X94294Y217406D01*
X80507Y210919D01*
X79688Y210762D01*
X79563Y210723D01*
X79436Y210691D01*
X79397Y210671D01*
X79356Y210658D01*
X79243Y210592D01*
X79126Y210532D01*
X79093Y210504D01*
X79055Y210482D01*
X78960Y210391D01*
X78860Y210306D01*
X78835Y210271D01*
X78803Y210241D01*
X78731Y210131D01*
X78653Y210025D01*
X78636Y209986D01*
X78612Y209949D01*
X78567Y209826D01*
X78515Y209705D01*
X78508Y209663D01*
X78493Y209622D01*
X78477Y209492D01*
X78454Y209362D01*
X78456Y209319D01*
X78451Y209276D01*
X78465Y209145D01*
X78471Y209014D01*
X78483Y208973D01*
X78488Y208930D01*
X78532Y208806D01*
X78568Y208680D01*
X78589Y208642D01*
X78603Y208601D01*
X78674Y208490D01*
X78738Y208375D01*
X78773Y208334D01*
X78791Y208307D01*
X78826Y208272D01*
X78897Y208189D01*
X83059Y204027D01*
X83059Y197474D01*
X83073Y197348D01*
X83080Y197222D01*
X83093Y197176D01*
X83099Y197128D01*
X83141Y197009D01*
X83176Y196887D01*
X83200Y196845D01*
X83216Y196799D01*
X83285Y196693D01*
X83346Y196583D01*
X83386Y196537D01*
X83405Y196507D01*
X83440Y196473D01*
X83505Y196397D01*
X84329Y195573D01*
X84329Y190119D01*
X84332Y190093D01*
X84330Y190067D01*
X84352Y189920D01*
X84354Y189867D01*
X84360Y189848D01*
X84369Y189773D01*
X84377Y189748D01*
X84381Y189722D01*
X84435Y189586D01*
X84451Y189532D01*
X84462Y189513D01*
X84486Y189445D01*
X84500Y189423D01*
X84510Y189398D01*
X84591Y189281D01*
X84621Y189228D01*
X84641Y189205D01*
X84675Y189152D01*
X84694Y189134D01*
X84709Y189112D01*
X84756Y189070D01*
X84780Y189042D01*
X90871Y182950D01*
X90949Y182888D01*
X91022Y182818D01*
X91086Y182780D01*
X91144Y182734D01*
X91235Y182691D01*
X91321Y182639D01*
X91392Y182617D01*
X91459Y182585D01*
X91557Y182564D01*
X91653Y182533D01*
X91727Y182527D01*
X91800Y182512D01*
X91900Y182513D01*
X92000Y182505D01*
X92074Y182516D01*
G37*
%LPC*%
G36*
X66039Y43179D02*
X66039Y43179D01*
X66039Y58119D01*
X67400Y57676D01*
X68825Y56950D01*
X70119Y56010D01*
X71250Y54879D01*
X72190Y53585D01*
X72916Y52160D01*
X73411Y50639D01*
X73661Y49060D01*
X73661Y43179D01*
X66039Y43179D01*
G37*
%LPD*%
%LPC*%
G36*
X53339Y43179D02*
X53339Y43179D01*
X53339Y49060D01*
X53589Y50639D01*
X54084Y52160D01*
X54810Y53585D01*
X55750Y54879D01*
X56881Y56010D01*
X58175Y56950D01*
X59600Y57676D01*
X60961Y58119D01*
X60961Y43179D01*
X53339Y43179D01*
G37*
%LPD*%
%LPC*%
G36*
X70738Y155701D02*
X70738Y155701D01*
X70738Y158037D01*
X76913Y164212D01*
X79249Y164212D01*
X79249Y155701D01*
X70738Y155701D01*
G37*
%LPD*%
%LPC*%
G36*
X82041Y83311D02*
X82041Y83311D01*
X82041Y90425D01*
X83798Y90425D01*
X89155Y85068D01*
X89155Y83311D01*
X82041Y83311D01*
G37*
%LPD*%
D10*
X80010Y81280D03*
X80010Y132080D03*
D11*
X105410Y191770D03*
X105410Y140970D03*
D12*
X24130Y200660D03*
X74930Y200660D03*
D13*
X88900Y48260D02*
X88900Y33020D01*
X63500Y33020D02*
X63500Y48260D01*
X38100Y48260D02*
X38100Y33020D01*
D14*
X81280Y153670D03*
X81280Y179070D03*
X104140Y95250D03*
X104140Y120650D03*
D15*
X58420Y174430D03*
X45720Y174430D03*
X33020Y174430D03*
X20320Y174430D03*
X20320Y120210D03*
X33020Y120210D03*
X45720Y120210D03*
X58420Y120210D03*
D16*
X52070Y95250D03*
X26670Y95250D03*
D17*
X61722Y268732D03*
D18*
X20320Y150300D02*
X26670Y143950D01*
X20320Y150300D02*
X20320Y174430D01*
X26670Y143950D02*
X26670Y95250D01*
D19*
X91440Y204470D03*
D18*
X52070Y109220D02*
X52070Y95250D01*
X52070Y109220D02*
X45720Y115570D01*
X45720Y120210D01*
X88900Y55880D02*
X88900Y40640D01*
X88900Y55880D02*
X52070Y92710D01*
X52070Y95250D01*
X102870Y138430D02*
X105410Y140970D01*
X102870Y138430D02*
X102870Y121920D01*
X104140Y120650D01*
X39243Y107193D02*
X33020Y113416D01*
X33020Y120210D01*
X38100Y40640D02*
X38608Y40640D01*
X39243Y41275D01*
X39243Y107193D01*
X96520Y182880D02*
X105410Y191770D01*
X96520Y182880D02*
X96520Y148590D01*
X80010Y132080D01*
X45720Y166370D01*
X45720Y174430D01*
X92710Y95250D02*
X104140Y95250D01*
X92710Y95250D02*
X80010Y107950D01*
X80010Y132080D01*
X81280Y194310D02*
X74930Y200660D01*
X81280Y194310D02*
X81280Y179070D01*
X72390Y187960D01*
X39370Y187960D01*
X33020Y181610D01*
X33020Y174430D01*
X31496Y200660D02*
X24130Y200660D01*
X61722Y230886D02*
X61722Y268732D01*
X61722Y230886D02*
X31496Y200660D01*
M02*
