G04 EAGLE Gerber RS-274X export*
G75*
%MOMM*%
%FSLAX34Y34*%
%LPD*%
%IN*%
%IPPOS*%
%AMOC8*
5,1,8,0,0,1.08239X$1,22.5*%
G01*
%ADD10C,0.254000*%


D10*
X10160Y27940D02*
X10189Y27276D01*
X10276Y26617D01*
X10420Y25968D01*
X10620Y25334D01*
X10874Y24720D01*
X11181Y24130D01*
X11538Y23569D01*
X11943Y23042D01*
X12392Y22552D01*
X12882Y22103D01*
X13409Y21698D01*
X13970Y21341D01*
X14560Y21034D01*
X15174Y20780D01*
X15808Y20580D01*
X16457Y20436D01*
X17116Y20349D01*
X17780Y20320D01*
X109220Y20320D01*
X109884Y20349D01*
X110543Y20436D01*
X111192Y20580D01*
X111826Y20780D01*
X112440Y21034D01*
X113030Y21341D01*
X113591Y21698D01*
X114118Y22103D01*
X114608Y22552D01*
X115057Y23042D01*
X115462Y23569D01*
X115819Y24130D01*
X116126Y24720D01*
X116380Y25334D01*
X116580Y25968D01*
X116724Y26617D01*
X116811Y27276D01*
X116840Y27940D01*
X116840Y276860D01*
X116753Y278852D01*
X116493Y280830D01*
X116061Y282777D01*
X115461Y284679D01*
X114698Y286521D01*
X113777Y288290D01*
X112706Y289972D01*
X111492Y291554D01*
X110144Y293024D01*
X108674Y294372D01*
X107092Y295586D01*
X105410Y296657D01*
X103641Y297578D01*
X101799Y298341D01*
X99897Y298941D01*
X97950Y299373D01*
X95972Y299633D01*
X93980Y299720D01*
X35560Y299720D01*
X33346Y299623D01*
X31149Y299334D01*
X28986Y298855D01*
X26873Y298188D01*
X24826Y297340D01*
X22860Y296317D01*
X20991Y295126D01*
X19233Y293778D01*
X17600Y292281D01*
X16102Y290647D01*
X14754Y288889D01*
X13563Y287020D01*
X12540Y285055D01*
X11692Y283007D01*
X11025Y280894D01*
X10546Y278731D01*
X10257Y276534D01*
X10160Y274320D01*
X10160Y27940D01*
M02*
