G04 EAGLE Gerber RS-274X export*
G75*
%MOMM*%
%FSLAX34Y34*%
%LPD*%
%INSilkscreen Top*%
%IPPOS*%
%AMOC8*
5,1,8,0,0,1.08239X$1,22.5*%
G01*
%ADD10C,0.152400*%
%ADD11C,0.101600*%
%ADD12C,0.254000*%
%ADD13C,0.127000*%
%ADD14C,0.200000*%
%ADD15C,0.203200*%


D10*
X90198Y232918D02*
X90198Y216662D01*
X88392Y216662D02*
X92004Y216662D01*
X92004Y232918D02*
X88392Y232918D01*
X98709Y232918D02*
X98709Y216662D01*
X107740Y216662D02*
X98709Y232918D01*
X107740Y232918D02*
X107740Y216662D01*
X71120Y91440D02*
X71122Y91340D01*
X71128Y91241D01*
X71138Y91141D01*
X71151Y91043D01*
X71169Y90944D01*
X71190Y90847D01*
X71215Y90751D01*
X71244Y90655D01*
X71277Y90561D01*
X71313Y90468D01*
X71353Y90377D01*
X71397Y90287D01*
X71444Y90199D01*
X71494Y90113D01*
X71548Y90029D01*
X71605Y89947D01*
X71665Y89868D01*
X71729Y89790D01*
X71795Y89716D01*
X71864Y89644D01*
X71936Y89575D01*
X72010Y89509D01*
X72088Y89445D01*
X72167Y89385D01*
X72249Y89328D01*
X72333Y89274D01*
X72419Y89224D01*
X72507Y89177D01*
X72597Y89133D01*
X72688Y89093D01*
X72781Y89057D01*
X72875Y89024D01*
X72971Y88995D01*
X73067Y88970D01*
X73164Y88949D01*
X73263Y88931D01*
X73361Y88918D01*
X73461Y88908D01*
X73560Y88902D01*
X73660Y88900D01*
X86360Y88900D02*
X86460Y88902D01*
X86559Y88908D01*
X86659Y88918D01*
X86757Y88931D01*
X86856Y88949D01*
X86953Y88970D01*
X87049Y88995D01*
X87145Y89024D01*
X87239Y89057D01*
X87332Y89093D01*
X87423Y89133D01*
X87513Y89177D01*
X87601Y89224D01*
X87687Y89274D01*
X87771Y89328D01*
X87853Y89385D01*
X87932Y89445D01*
X88010Y89509D01*
X88084Y89575D01*
X88156Y89644D01*
X88225Y89716D01*
X88291Y89790D01*
X88355Y89868D01*
X88415Y89947D01*
X88472Y90029D01*
X88526Y90113D01*
X88576Y90199D01*
X88623Y90287D01*
X88667Y90377D01*
X88707Y90468D01*
X88743Y90561D01*
X88776Y90655D01*
X88805Y90751D01*
X88830Y90847D01*
X88851Y90944D01*
X88869Y91043D01*
X88882Y91141D01*
X88892Y91241D01*
X88898Y91340D01*
X88900Y91440D01*
X88900Y121920D02*
X88898Y122020D01*
X88892Y122119D01*
X88882Y122219D01*
X88869Y122317D01*
X88851Y122416D01*
X88830Y122513D01*
X88805Y122609D01*
X88776Y122705D01*
X88743Y122799D01*
X88707Y122892D01*
X88667Y122983D01*
X88623Y123073D01*
X88576Y123161D01*
X88526Y123247D01*
X88472Y123331D01*
X88415Y123413D01*
X88355Y123492D01*
X88291Y123570D01*
X88225Y123644D01*
X88156Y123716D01*
X88084Y123785D01*
X88010Y123851D01*
X87932Y123915D01*
X87853Y123975D01*
X87771Y124032D01*
X87687Y124086D01*
X87601Y124136D01*
X87513Y124183D01*
X87423Y124227D01*
X87332Y124267D01*
X87239Y124303D01*
X87145Y124336D01*
X87049Y124365D01*
X86953Y124390D01*
X86856Y124411D01*
X86757Y124429D01*
X86659Y124442D01*
X86559Y124452D01*
X86460Y124458D01*
X86360Y124460D01*
X73660Y124460D02*
X73560Y124458D01*
X73461Y124452D01*
X73361Y124442D01*
X73263Y124429D01*
X73164Y124411D01*
X73067Y124390D01*
X72971Y124365D01*
X72875Y124336D01*
X72781Y124303D01*
X72688Y124267D01*
X72597Y124227D01*
X72507Y124183D01*
X72419Y124136D01*
X72333Y124086D01*
X72249Y124032D01*
X72167Y123975D01*
X72088Y123915D01*
X72010Y123851D01*
X71936Y123785D01*
X71864Y123716D01*
X71795Y123644D01*
X71729Y123570D01*
X71665Y123492D01*
X71605Y123413D01*
X71548Y123331D01*
X71494Y123247D01*
X71444Y123161D01*
X71397Y123073D01*
X71353Y122983D01*
X71313Y122892D01*
X71277Y122799D01*
X71244Y122705D01*
X71215Y122609D01*
X71190Y122513D01*
X71169Y122416D01*
X71151Y122317D01*
X71138Y122219D01*
X71128Y122119D01*
X71122Y122020D01*
X71120Y121920D01*
X71120Y93980D02*
X71120Y91440D01*
X71120Y93980D02*
X72390Y95250D01*
X88900Y93980D02*
X88900Y91440D01*
X88900Y93980D02*
X87630Y95250D01*
X72390Y118110D02*
X71120Y119380D01*
X72390Y118110D02*
X72390Y95250D01*
X87630Y118110D02*
X88900Y119380D01*
X87630Y118110D02*
X87630Y95250D01*
X71120Y119380D02*
X71120Y121920D01*
X88900Y121920D02*
X88900Y119380D01*
D11*
X84582Y102289D02*
X75692Y102289D01*
X75692Y104759D01*
X75694Y104857D01*
X75700Y104955D01*
X75710Y105053D01*
X75723Y105150D01*
X75741Y105247D01*
X75762Y105343D01*
X75787Y105437D01*
X75816Y105531D01*
X75848Y105624D01*
X75885Y105715D01*
X75924Y105805D01*
X75968Y105893D01*
X76015Y105979D01*
X76065Y106064D01*
X76118Y106146D01*
X76175Y106226D01*
X76235Y106304D01*
X76298Y106379D01*
X76364Y106452D01*
X76433Y106522D01*
X76504Y106589D01*
X76578Y106654D01*
X76655Y106715D01*
X76734Y106774D01*
X76815Y106829D01*
X76898Y106881D01*
X76984Y106929D01*
X77071Y106974D01*
X77160Y107016D01*
X77250Y107054D01*
X77342Y107088D01*
X77435Y107119D01*
X77530Y107146D01*
X77625Y107169D01*
X77722Y107189D01*
X77818Y107204D01*
X77916Y107216D01*
X78014Y107224D01*
X78112Y107228D01*
X78210Y107228D01*
X78308Y107224D01*
X78406Y107216D01*
X78504Y107204D01*
X78600Y107189D01*
X78697Y107169D01*
X78792Y107146D01*
X78887Y107119D01*
X78980Y107088D01*
X79072Y107054D01*
X79162Y107016D01*
X79251Y106974D01*
X79338Y106929D01*
X79424Y106881D01*
X79507Y106829D01*
X79588Y106774D01*
X79667Y106715D01*
X79744Y106654D01*
X79818Y106589D01*
X79889Y106522D01*
X79958Y106452D01*
X80024Y106379D01*
X80087Y106304D01*
X80147Y106226D01*
X80204Y106146D01*
X80257Y106064D01*
X80307Y105979D01*
X80354Y105893D01*
X80398Y105805D01*
X80437Y105715D01*
X80474Y105624D01*
X80506Y105531D01*
X80535Y105437D01*
X80560Y105343D01*
X80581Y105247D01*
X80599Y105150D01*
X80612Y105053D01*
X80622Y104955D01*
X80628Y104857D01*
X80630Y104759D01*
X80631Y104759D02*
X80631Y102289D01*
X80631Y105253D02*
X84582Y107228D01*
X77668Y111139D02*
X75692Y113609D01*
X84582Y113609D01*
X84582Y116078D02*
X84582Y111139D01*
D10*
X114300Y181610D02*
X114298Y181710D01*
X114292Y181809D01*
X114282Y181909D01*
X114269Y182007D01*
X114251Y182106D01*
X114230Y182203D01*
X114205Y182299D01*
X114176Y182395D01*
X114143Y182489D01*
X114107Y182582D01*
X114067Y182673D01*
X114023Y182763D01*
X113976Y182851D01*
X113926Y182937D01*
X113872Y183021D01*
X113815Y183103D01*
X113755Y183182D01*
X113691Y183260D01*
X113625Y183334D01*
X113556Y183406D01*
X113484Y183475D01*
X113410Y183541D01*
X113332Y183605D01*
X113253Y183665D01*
X113171Y183722D01*
X113087Y183776D01*
X113001Y183826D01*
X112913Y183873D01*
X112823Y183917D01*
X112732Y183957D01*
X112639Y183993D01*
X112545Y184026D01*
X112449Y184055D01*
X112353Y184080D01*
X112256Y184101D01*
X112157Y184119D01*
X112059Y184132D01*
X111959Y184142D01*
X111860Y184148D01*
X111760Y184150D01*
X99060Y184150D02*
X98960Y184148D01*
X98861Y184142D01*
X98761Y184132D01*
X98663Y184119D01*
X98564Y184101D01*
X98467Y184080D01*
X98371Y184055D01*
X98275Y184026D01*
X98181Y183993D01*
X98088Y183957D01*
X97997Y183917D01*
X97907Y183873D01*
X97819Y183826D01*
X97733Y183776D01*
X97649Y183722D01*
X97567Y183665D01*
X97488Y183605D01*
X97410Y183541D01*
X97336Y183475D01*
X97264Y183406D01*
X97195Y183334D01*
X97129Y183260D01*
X97065Y183182D01*
X97005Y183103D01*
X96948Y183021D01*
X96894Y182937D01*
X96844Y182851D01*
X96797Y182763D01*
X96753Y182673D01*
X96713Y182582D01*
X96677Y182489D01*
X96644Y182395D01*
X96615Y182299D01*
X96590Y182203D01*
X96569Y182106D01*
X96551Y182007D01*
X96538Y181909D01*
X96528Y181809D01*
X96522Y181710D01*
X96520Y181610D01*
X96520Y151130D02*
X96522Y151030D01*
X96528Y150931D01*
X96538Y150831D01*
X96551Y150733D01*
X96569Y150634D01*
X96590Y150537D01*
X96615Y150441D01*
X96644Y150345D01*
X96677Y150251D01*
X96713Y150158D01*
X96753Y150067D01*
X96797Y149977D01*
X96844Y149889D01*
X96894Y149803D01*
X96948Y149719D01*
X97005Y149637D01*
X97065Y149558D01*
X97129Y149480D01*
X97195Y149406D01*
X97264Y149334D01*
X97336Y149265D01*
X97410Y149199D01*
X97488Y149135D01*
X97567Y149075D01*
X97649Y149018D01*
X97733Y148964D01*
X97819Y148914D01*
X97907Y148867D01*
X97997Y148823D01*
X98088Y148783D01*
X98181Y148747D01*
X98275Y148714D01*
X98371Y148685D01*
X98467Y148660D01*
X98564Y148639D01*
X98663Y148621D01*
X98761Y148608D01*
X98861Y148598D01*
X98960Y148592D01*
X99060Y148590D01*
X111760Y148590D02*
X111860Y148592D01*
X111959Y148598D01*
X112059Y148608D01*
X112157Y148621D01*
X112256Y148639D01*
X112353Y148660D01*
X112449Y148685D01*
X112545Y148714D01*
X112639Y148747D01*
X112732Y148783D01*
X112823Y148823D01*
X112913Y148867D01*
X113001Y148914D01*
X113087Y148964D01*
X113171Y149018D01*
X113253Y149075D01*
X113332Y149135D01*
X113410Y149199D01*
X113484Y149265D01*
X113556Y149334D01*
X113625Y149406D01*
X113691Y149480D01*
X113755Y149558D01*
X113815Y149637D01*
X113872Y149719D01*
X113926Y149803D01*
X113976Y149889D01*
X114023Y149977D01*
X114067Y150067D01*
X114107Y150158D01*
X114143Y150251D01*
X114176Y150345D01*
X114205Y150441D01*
X114230Y150537D01*
X114251Y150634D01*
X114269Y150733D01*
X114282Y150831D01*
X114292Y150931D01*
X114298Y151030D01*
X114300Y151130D01*
X114300Y179070D02*
X114300Y181610D01*
X114300Y179070D02*
X113030Y177800D01*
X96520Y179070D02*
X96520Y181610D01*
X96520Y179070D02*
X97790Y177800D01*
X113030Y154940D02*
X114300Y153670D01*
X113030Y154940D02*
X113030Y177800D01*
X97790Y154940D02*
X96520Y153670D01*
X97790Y154940D02*
X97790Y177800D01*
X114300Y153670D02*
X114300Y151130D01*
X96520Y151130D02*
X96520Y153670D01*
D11*
X101092Y160709D02*
X109982Y160709D01*
X101092Y160709D02*
X101092Y163179D01*
X101094Y163277D01*
X101100Y163375D01*
X101110Y163473D01*
X101123Y163570D01*
X101141Y163667D01*
X101162Y163763D01*
X101187Y163857D01*
X101216Y163951D01*
X101248Y164044D01*
X101285Y164135D01*
X101324Y164225D01*
X101368Y164313D01*
X101415Y164399D01*
X101465Y164484D01*
X101518Y164566D01*
X101575Y164646D01*
X101635Y164724D01*
X101698Y164799D01*
X101764Y164872D01*
X101833Y164942D01*
X101904Y165009D01*
X101978Y165074D01*
X102055Y165135D01*
X102134Y165194D01*
X102215Y165249D01*
X102298Y165301D01*
X102384Y165349D01*
X102471Y165394D01*
X102560Y165436D01*
X102650Y165474D01*
X102742Y165508D01*
X102835Y165539D01*
X102930Y165566D01*
X103025Y165589D01*
X103122Y165609D01*
X103218Y165624D01*
X103316Y165636D01*
X103414Y165644D01*
X103512Y165648D01*
X103610Y165648D01*
X103708Y165644D01*
X103806Y165636D01*
X103904Y165624D01*
X104000Y165609D01*
X104097Y165589D01*
X104192Y165566D01*
X104287Y165539D01*
X104380Y165508D01*
X104472Y165474D01*
X104562Y165436D01*
X104651Y165394D01*
X104738Y165349D01*
X104824Y165301D01*
X104907Y165249D01*
X104988Y165194D01*
X105067Y165135D01*
X105144Y165074D01*
X105218Y165009D01*
X105289Y164942D01*
X105358Y164872D01*
X105424Y164799D01*
X105487Y164724D01*
X105547Y164646D01*
X105604Y164566D01*
X105657Y164484D01*
X105707Y164399D01*
X105754Y164313D01*
X105798Y164225D01*
X105837Y164135D01*
X105874Y164044D01*
X105906Y163951D01*
X105935Y163857D01*
X105960Y163763D01*
X105981Y163667D01*
X105999Y163570D01*
X106012Y163473D01*
X106022Y163375D01*
X106028Y163277D01*
X106030Y163179D01*
X106031Y163179D02*
X106031Y160709D01*
X106031Y163673D02*
X109982Y165648D01*
X103315Y174499D02*
X103223Y174497D01*
X103131Y174491D01*
X103040Y174482D01*
X102949Y174469D01*
X102859Y174452D01*
X102769Y174431D01*
X102681Y174407D01*
X102593Y174379D01*
X102507Y174347D01*
X102422Y174312D01*
X102339Y174273D01*
X102257Y174231D01*
X102177Y174186D01*
X102099Y174137D01*
X102023Y174085D01*
X101950Y174030D01*
X101878Y173972D01*
X101809Y173912D01*
X101743Y173848D01*
X101679Y173782D01*
X101619Y173713D01*
X101561Y173641D01*
X101506Y173568D01*
X101454Y173492D01*
X101405Y173414D01*
X101360Y173334D01*
X101318Y173252D01*
X101279Y173169D01*
X101244Y173084D01*
X101212Y172998D01*
X101184Y172910D01*
X101160Y172822D01*
X101139Y172732D01*
X101122Y172642D01*
X101109Y172551D01*
X101100Y172460D01*
X101094Y172368D01*
X101092Y172276D01*
X101094Y172170D01*
X101100Y172065D01*
X101110Y171960D01*
X101123Y171855D01*
X101141Y171751D01*
X101162Y171648D01*
X101187Y171545D01*
X101216Y171443D01*
X101249Y171343D01*
X101285Y171244D01*
X101325Y171146D01*
X101369Y171050D01*
X101416Y170955D01*
X101466Y170863D01*
X101520Y170772D01*
X101578Y170683D01*
X101638Y170597D01*
X101702Y170513D01*
X101768Y170431D01*
X101838Y170351D01*
X101911Y170275D01*
X101986Y170201D01*
X102064Y170130D01*
X102145Y170062D01*
X102228Y169996D01*
X102314Y169934D01*
X102401Y169876D01*
X102491Y169820D01*
X102583Y169768D01*
X102677Y169719D01*
X102772Y169674D01*
X102869Y169632D01*
X102968Y169594D01*
X103067Y169560D01*
X105044Y173757D02*
X104975Y173826D01*
X104905Y173892D01*
X104831Y173955D01*
X104755Y174014D01*
X104677Y174071D01*
X104597Y174125D01*
X104514Y174175D01*
X104430Y174222D01*
X104343Y174265D01*
X104255Y174305D01*
X104166Y174341D01*
X104075Y174374D01*
X103983Y174403D01*
X103889Y174428D01*
X103795Y174449D01*
X103700Y174467D01*
X103604Y174480D01*
X103508Y174490D01*
X103412Y174496D01*
X103315Y174498D01*
X105043Y173757D02*
X109982Y169559D01*
X109982Y174498D01*
D10*
X34290Y209550D02*
X34190Y209548D01*
X34091Y209542D01*
X33991Y209532D01*
X33893Y209519D01*
X33794Y209501D01*
X33697Y209480D01*
X33601Y209455D01*
X33505Y209426D01*
X33411Y209393D01*
X33318Y209357D01*
X33227Y209317D01*
X33137Y209273D01*
X33049Y209226D01*
X32963Y209176D01*
X32879Y209122D01*
X32797Y209065D01*
X32718Y209005D01*
X32640Y208941D01*
X32566Y208875D01*
X32494Y208806D01*
X32425Y208734D01*
X32359Y208660D01*
X32295Y208582D01*
X32235Y208503D01*
X32178Y208421D01*
X32124Y208337D01*
X32074Y208251D01*
X32027Y208163D01*
X31983Y208073D01*
X31943Y207982D01*
X31907Y207889D01*
X31874Y207795D01*
X31845Y207699D01*
X31820Y207603D01*
X31799Y207506D01*
X31781Y207407D01*
X31768Y207309D01*
X31758Y207209D01*
X31752Y207110D01*
X31750Y207010D01*
X31750Y194310D02*
X31752Y194210D01*
X31758Y194111D01*
X31768Y194011D01*
X31781Y193913D01*
X31799Y193814D01*
X31820Y193717D01*
X31845Y193621D01*
X31874Y193525D01*
X31907Y193431D01*
X31943Y193338D01*
X31983Y193247D01*
X32027Y193157D01*
X32074Y193069D01*
X32124Y192983D01*
X32178Y192899D01*
X32235Y192817D01*
X32295Y192738D01*
X32359Y192660D01*
X32425Y192586D01*
X32494Y192514D01*
X32566Y192445D01*
X32640Y192379D01*
X32718Y192315D01*
X32797Y192255D01*
X32879Y192198D01*
X32963Y192144D01*
X33049Y192094D01*
X33137Y192047D01*
X33227Y192003D01*
X33318Y191963D01*
X33411Y191927D01*
X33505Y191894D01*
X33601Y191865D01*
X33697Y191840D01*
X33794Y191819D01*
X33893Y191801D01*
X33991Y191788D01*
X34091Y191778D01*
X34190Y191772D01*
X34290Y191770D01*
X64770Y191770D02*
X64870Y191772D01*
X64969Y191778D01*
X65069Y191788D01*
X65167Y191801D01*
X65266Y191819D01*
X65363Y191840D01*
X65459Y191865D01*
X65555Y191894D01*
X65649Y191927D01*
X65742Y191963D01*
X65833Y192003D01*
X65923Y192047D01*
X66011Y192094D01*
X66097Y192144D01*
X66181Y192198D01*
X66263Y192255D01*
X66342Y192315D01*
X66420Y192379D01*
X66494Y192445D01*
X66566Y192514D01*
X66635Y192586D01*
X66701Y192660D01*
X66765Y192738D01*
X66825Y192817D01*
X66882Y192899D01*
X66936Y192983D01*
X66986Y193069D01*
X67033Y193157D01*
X67077Y193247D01*
X67117Y193338D01*
X67153Y193431D01*
X67186Y193525D01*
X67215Y193621D01*
X67240Y193717D01*
X67261Y193814D01*
X67279Y193913D01*
X67292Y194011D01*
X67302Y194111D01*
X67308Y194210D01*
X67310Y194310D01*
X67310Y207010D02*
X67308Y207110D01*
X67302Y207209D01*
X67292Y207309D01*
X67279Y207407D01*
X67261Y207506D01*
X67240Y207603D01*
X67215Y207699D01*
X67186Y207795D01*
X67153Y207889D01*
X67117Y207982D01*
X67077Y208073D01*
X67033Y208163D01*
X66986Y208251D01*
X66936Y208337D01*
X66882Y208421D01*
X66825Y208503D01*
X66765Y208582D01*
X66701Y208660D01*
X66635Y208734D01*
X66566Y208806D01*
X66494Y208875D01*
X66420Y208941D01*
X66342Y209005D01*
X66263Y209065D01*
X66181Y209122D01*
X66097Y209176D01*
X66011Y209226D01*
X65923Y209273D01*
X65833Y209317D01*
X65742Y209357D01*
X65649Y209393D01*
X65555Y209426D01*
X65459Y209455D01*
X65363Y209480D01*
X65266Y209501D01*
X65167Y209519D01*
X65069Y209532D01*
X64969Y209542D01*
X64870Y209548D01*
X64770Y209550D01*
X36830Y209550D02*
X34290Y209550D01*
X36830Y209550D02*
X38100Y208280D01*
X36830Y191770D02*
X34290Y191770D01*
X36830Y191770D02*
X38100Y193040D01*
X60960Y208280D02*
X62230Y209550D01*
X60960Y208280D02*
X38100Y208280D01*
X60960Y193040D02*
X62230Y191770D01*
X60960Y193040D02*
X38100Y193040D01*
X62230Y209550D02*
X64770Y209550D01*
X64770Y191770D02*
X62230Y191770D01*
D11*
X18469Y212598D02*
X18469Y221488D01*
X20939Y221488D01*
X21037Y221486D01*
X21135Y221480D01*
X21233Y221470D01*
X21330Y221457D01*
X21427Y221439D01*
X21523Y221418D01*
X21617Y221393D01*
X21711Y221364D01*
X21804Y221332D01*
X21895Y221295D01*
X21985Y221256D01*
X22073Y221212D01*
X22159Y221165D01*
X22244Y221115D01*
X22326Y221062D01*
X22406Y221005D01*
X22484Y220945D01*
X22559Y220882D01*
X22632Y220816D01*
X22702Y220747D01*
X22769Y220676D01*
X22834Y220602D01*
X22895Y220525D01*
X22954Y220446D01*
X23009Y220365D01*
X23061Y220282D01*
X23109Y220196D01*
X23154Y220109D01*
X23196Y220020D01*
X23234Y219930D01*
X23268Y219838D01*
X23299Y219745D01*
X23326Y219650D01*
X23349Y219555D01*
X23369Y219458D01*
X23384Y219362D01*
X23396Y219264D01*
X23404Y219166D01*
X23408Y219068D01*
X23408Y218970D01*
X23404Y218872D01*
X23396Y218774D01*
X23384Y218676D01*
X23369Y218580D01*
X23349Y218483D01*
X23326Y218388D01*
X23299Y218293D01*
X23268Y218200D01*
X23234Y218108D01*
X23196Y218018D01*
X23154Y217929D01*
X23109Y217842D01*
X23061Y217756D01*
X23009Y217673D01*
X22954Y217592D01*
X22895Y217513D01*
X22834Y217436D01*
X22769Y217362D01*
X22702Y217291D01*
X22632Y217222D01*
X22559Y217156D01*
X22484Y217093D01*
X22406Y217033D01*
X22326Y216976D01*
X22244Y216923D01*
X22159Y216873D01*
X22073Y216826D01*
X21985Y216782D01*
X21895Y216743D01*
X21804Y216706D01*
X21711Y216674D01*
X21617Y216645D01*
X21523Y216620D01*
X21427Y216599D01*
X21330Y216581D01*
X21233Y216568D01*
X21135Y216558D01*
X21037Y216552D01*
X20939Y216550D01*
X20939Y216549D02*
X18469Y216549D01*
X21433Y216549D02*
X23408Y212598D01*
X27319Y212598D02*
X29789Y212598D01*
X29887Y212600D01*
X29985Y212606D01*
X30083Y212616D01*
X30180Y212629D01*
X30277Y212647D01*
X30373Y212668D01*
X30467Y212693D01*
X30561Y212722D01*
X30654Y212754D01*
X30745Y212791D01*
X30835Y212830D01*
X30923Y212874D01*
X31009Y212921D01*
X31094Y212971D01*
X31176Y213024D01*
X31256Y213081D01*
X31334Y213141D01*
X31409Y213204D01*
X31482Y213270D01*
X31552Y213339D01*
X31619Y213410D01*
X31684Y213484D01*
X31745Y213561D01*
X31804Y213640D01*
X31859Y213721D01*
X31911Y213804D01*
X31959Y213890D01*
X32004Y213977D01*
X32046Y214066D01*
X32084Y214156D01*
X32118Y214248D01*
X32149Y214341D01*
X32176Y214436D01*
X32199Y214531D01*
X32219Y214628D01*
X32234Y214724D01*
X32246Y214822D01*
X32254Y214920D01*
X32258Y215018D01*
X32258Y215116D01*
X32254Y215214D01*
X32246Y215312D01*
X32234Y215410D01*
X32219Y215506D01*
X32199Y215603D01*
X32176Y215698D01*
X32149Y215793D01*
X32118Y215886D01*
X32084Y215978D01*
X32046Y216068D01*
X32004Y216157D01*
X31959Y216244D01*
X31911Y216330D01*
X31859Y216413D01*
X31804Y216494D01*
X31745Y216573D01*
X31684Y216650D01*
X31619Y216724D01*
X31552Y216795D01*
X31482Y216864D01*
X31409Y216930D01*
X31334Y216993D01*
X31256Y217053D01*
X31176Y217110D01*
X31094Y217163D01*
X31009Y217213D01*
X30923Y217260D01*
X30835Y217304D01*
X30745Y217343D01*
X30654Y217380D01*
X30561Y217412D01*
X30467Y217441D01*
X30373Y217466D01*
X30277Y217487D01*
X30180Y217505D01*
X30083Y217518D01*
X29985Y217528D01*
X29887Y217534D01*
X29789Y217536D01*
X30282Y221488D02*
X27319Y221488D01*
X30282Y221488D02*
X30369Y221486D01*
X30457Y221480D01*
X30544Y221471D01*
X30630Y221457D01*
X30716Y221440D01*
X30800Y221419D01*
X30884Y221394D01*
X30967Y221365D01*
X31048Y221333D01*
X31128Y221298D01*
X31206Y221259D01*
X31283Y221216D01*
X31357Y221170D01*
X31429Y221121D01*
X31499Y221069D01*
X31567Y221013D01*
X31632Y220955D01*
X31695Y220894D01*
X31754Y220830D01*
X31811Y220763D01*
X31865Y220695D01*
X31916Y220623D01*
X31963Y220550D01*
X32008Y220475D01*
X32049Y220397D01*
X32086Y220318D01*
X32120Y220238D01*
X32150Y220156D01*
X32177Y220073D01*
X32200Y219988D01*
X32219Y219903D01*
X32234Y219817D01*
X32246Y219730D01*
X32254Y219643D01*
X32258Y219556D01*
X32258Y219468D01*
X32254Y219381D01*
X32246Y219294D01*
X32234Y219207D01*
X32219Y219121D01*
X32200Y219036D01*
X32177Y218951D01*
X32150Y218868D01*
X32120Y218786D01*
X32086Y218706D01*
X32049Y218627D01*
X32008Y218549D01*
X31963Y218474D01*
X31916Y218401D01*
X31865Y218329D01*
X31811Y218261D01*
X31754Y218194D01*
X31695Y218130D01*
X31632Y218069D01*
X31567Y218011D01*
X31499Y217955D01*
X31429Y217903D01*
X31357Y217854D01*
X31283Y217808D01*
X31206Y217765D01*
X31128Y217726D01*
X31048Y217691D01*
X30967Y217659D01*
X30884Y217630D01*
X30800Y217605D01*
X30716Y217584D01*
X30630Y217567D01*
X30544Y217553D01*
X30457Y217544D01*
X30369Y217538D01*
X30282Y217536D01*
X30282Y217537D02*
X28307Y217537D01*
D10*
X82550Y27940D02*
X95250Y27940D01*
X82550Y27940D02*
X76200Y34290D01*
X76200Y46990D01*
X82550Y53340D01*
X76200Y34290D02*
X69850Y27940D01*
X57150Y27940D01*
X50800Y34290D01*
X50800Y46990D01*
X57150Y53340D01*
X69850Y53340D01*
X76200Y46990D01*
X101600Y46990D02*
X101600Y34290D01*
X95250Y27940D01*
X101600Y46990D02*
X95250Y53340D01*
X82550Y53340D01*
X50800Y34290D02*
X44450Y27940D01*
X31750Y27940D01*
X25400Y34290D01*
X25400Y46990D01*
X31750Y53340D01*
X44450Y53340D01*
X50800Y46990D01*
X68580Y144780D02*
X68580Y187960D01*
X93980Y187960D02*
X93980Y144780D01*
X91440Y190500D02*
X71120Y190500D01*
X71120Y142240D02*
X91440Y142240D01*
X68580Y187960D02*
X68582Y188060D01*
X68588Y188159D01*
X68598Y188259D01*
X68611Y188357D01*
X68629Y188456D01*
X68650Y188553D01*
X68675Y188649D01*
X68704Y188745D01*
X68737Y188839D01*
X68773Y188932D01*
X68813Y189023D01*
X68857Y189113D01*
X68904Y189201D01*
X68954Y189287D01*
X69008Y189371D01*
X69065Y189453D01*
X69125Y189532D01*
X69189Y189610D01*
X69255Y189684D01*
X69324Y189756D01*
X69396Y189825D01*
X69470Y189891D01*
X69548Y189955D01*
X69627Y190015D01*
X69709Y190072D01*
X69793Y190126D01*
X69879Y190176D01*
X69967Y190223D01*
X70057Y190267D01*
X70148Y190307D01*
X70241Y190343D01*
X70335Y190376D01*
X70431Y190405D01*
X70527Y190430D01*
X70624Y190451D01*
X70723Y190469D01*
X70821Y190482D01*
X70921Y190492D01*
X71020Y190498D01*
X71120Y190500D01*
X68580Y144780D02*
X68582Y144680D01*
X68588Y144581D01*
X68598Y144481D01*
X68611Y144383D01*
X68629Y144284D01*
X68650Y144187D01*
X68675Y144091D01*
X68704Y143995D01*
X68737Y143901D01*
X68773Y143808D01*
X68813Y143717D01*
X68857Y143627D01*
X68904Y143539D01*
X68954Y143453D01*
X69008Y143369D01*
X69065Y143287D01*
X69125Y143208D01*
X69189Y143130D01*
X69255Y143056D01*
X69324Y142984D01*
X69396Y142915D01*
X69470Y142849D01*
X69548Y142785D01*
X69627Y142725D01*
X69709Y142668D01*
X69793Y142614D01*
X69879Y142564D01*
X69967Y142517D01*
X70057Y142473D01*
X70148Y142433D01*
X70241Y142397D01*
X70335Y142364D01*
X70431Y142335D01*
X70527Y142310D01*
X70624Y142289D01*
X70723Y142271D01*
X70821Y142258D01*
X70921Y142248D01*
X71020Y142242D01*
X71120Y142240D01*
X93980Y187960D02*
X93978Y188060D01*
X93972Y188159D01*
X93962Y188259D01*
X93949Y188357D01*
X93931Y188456D01*
X93910Y188553D01*
X93885Y188649D01*
X93856Y188745D01*
X93823Y188839D01*
X93787Y188932D01*
X93747Y189023D01*
X93703Y189113D01*
X93656Y189201D01*
X93606Y189287D01*
X93552Y189371D01*
X93495Y189453D01*
X93435Y189532D01*
X93371Y189610D01*
X93305Y189684D01*
X93236Y189756D01*
X93164Y189825D01*
X93090Y189891D01*
X93012Y189955D01*
X92933Y190015D01*
X92851Y190072D01*
X92767Y190126D01*
X92681Y190176D01*
X92593Y190223D01*
X92503Y190267D01*
X92412Y190307D01*
X92319Y190343D01*
X92225Y190376D01*
X92129Y190405D01*
X92033Y190430D01*
X91936Y190451D01*
X91837Y190469D01*
X91739Y190482D01*
X91639Y190492D01*
X91540Y190498D01*
X91440Y190500D01*
X93980Y144780D02*
X93978Y144680D01*
X93972Y144581D01*
X93962Y144481D01*
X93949Y144383D01*
X93931Y144284D01*
X93910Y144187D01*
X93885Y144091D01*
X93856Y143995D01*
X93823Y143901D01*
X93787Y143808D01*
X93747Y143717D01*
X93703Y143627D01*
X93656Y143539D01*
X93606Y143453D01*
X93552Y143369D01*
X93495Y143287D01*
X93435Y143208D01*
X93371Y143130D01*
X93305Y143056D01*
X93236Y142984D01*
X93164Y142915D01*
X93090Y142849D01*
X93012Y142785D01*
X92933Y142725D01*
X92851Y142668D01*
X92767Y142614D01*
X92681Y142564D01*
X92593Y142517D01*
X92503Y142473D01*
X92412Y142433D01*
X92319Y142397D01*
X92225Y142364D01*
X92129Y142335D01*
X92033Y142310D01*
X91936Y142289D01*
X91837Y142271D01*
X91739Y142258D01*
X91639Y142248D01*
X91540Y142242D01*
X91440Y142240D01*
X81280Y168910D02*
X81280Y170180D01*
D12*
X81280Y168910D02*
X73660Y168910D01*
X81280Y168910D02*
X88900Y168910D01*
X81280Y163830D02*
X73660Y163830D01*
X81280Y163830D02*
X88900Y163830D01*
D10*
X81280Y163830D02*
X81280Y162560D01*
D13*
X95885Y194945D02*
X95885Y197485D01*
X95885Y194945D02*
X95883Y194845D01*
X95877Y194746D01*
X95867Y194646D01*
X95854Y194548D01*
X95836Y194449D01*
X95815Y194352D01*
X95790Y194256D01*
X95761Y194160D01*
X95728Y194066D01*
X95692Y193973D01*
X95652Y193882D01*
X95608Y193792D01*
X95561Y193704D01*
X95511Y193618D01*
X95457Y193534D01*
X95400Y193452D01*
X95340Y193373D01*
X95276Y193295D01*
X95210Y193221D01*
X95141Y193149D01*
X95069Y193080D01*
X94995Y193014D01*
X94917Y192950D01*
X94838Y192890D01*
X94756Y192833D01*
X94672Y192779D01*
X94586Y192729D01*
X94498Y192682D01*
X94408Y192638D01*
X94317Y192598D01*
X94224Y192562D01*
X94130Y192529D01*
X94034Y192500D01*
X93938Y192475D01*
X93841Y192454D01*
X93742Y192436D01*
X93644Y192423D01*
X93544Y192413D01*
X93445Y192407D01*
X93345Y192405D01*
X86995Y192405D01*
X86895Y192407D01*
X86796Y192413D01*
X86696Y192423D01*
X86598Y192436D01*
X86499Y192454D01*
X86402Y192475D01*
X86306Y192500D01*
X86210Y192529D01*
X86116Y192562D01*
X86023Y192598D01*
X85932Y192638D01*
X85842Y192682D01*
X85754Y192729D01*
X85668Y192779D01*
X85584Y192833D01*
X85502Y192890D01*
X85423Y192950D01*
X85345Y193014D01*
X85271Y193080D01*
X85199Y193149D01*
X85130Y193221D01*
X85064Y193295D01*
X85000Y193373D01*
X84940Y193452D01*
X84883Y193534D01*
X84829Y193618D01*
X84779Y193704D01*
X84732Y193792D01*
X84688Y193882D01*
X84648Y193973D01*
X84612Y194066D01*
X84579Y194160D01*
X84550Y194256D01*
X84525Y194352D01*
X84504Y194449D01*
X84486Y194548D01*
X84473Y194646D01*
X84463Y194746D01*
X84457Y194845D01*
X84455Y194945D01*
X84455Y197485D01*
X86995Y201967D02*
X84455Y205142D01*
X95885Y205142D01*
X95885Y201967D02*
X95885Y208317D01*
D10*
X91440Y129540D02*
X91440Y86360D01*
X116840Y86360D02*
X116840Y129540D01*
X114300Y132080D02*
X93980Y132080D01*
X93980Y83820D02*
X114300Y83820D01*
X91440Y129540D02*
X91442Y129640D01*
X91448Y129739D01*
X91458Y129839D01*
X91471Y129937D01*
X91489Y130036D01*
X91510Y130133D01*
X91535Y130229D01*
X91564Y130325D01*
X91597Y130419D01*
X91633Y130512D01*
X91673Y130603D01*
X91717Y130693D01*
X91764Y130781D01*
X91814Y130867D01*
X91868Y130951D01*
X91925Y131033D01*
X91985Y131112D01*
X92049Y131190D01*
X92115Y131264D01*
X92184Y131336D01*
X92256Y131405D01*
X92330Y131471D01*
X92408Y131535D01*
X92487Y131595D01*
X92569Y131652D01*
X92653Y131706D01*
X92739Y131756D01*
X92827Y131803D01*
X92917Y131847D01*
X93008Y131887D01*
X93101Y131923D01*
X93195Y131956D01*
X93291Y131985D01*
X93387Y132010D01*
X93484Y132031D01*
X93583Y132049D01*
X93681Y132062D01*
X93781Y132072D01*
X93880Y132078D01*
X93980Y132080D01*
X91440Y86360D02*
X91442Y86260D01*
X91448Y86161D01*
X91458Y86061D01*
X91471Y85963D01*
X91489Y85864D01*
X91510Y85767D01*
X91535Y85671D01*
X91564Y85575D01*
X91597Y85481D01*
X91633Y85388D01*
X91673Y85297D01*
X91717Y85207D01*
X91764Y85119D01*
X91814Y85033D01*
X91868Y84949D01*
X91925Y84867D01*
X91985Y84788D01*
X92049Y84710D01*
X92115Y84636D01*
X92184Y84564D01*
X92256Y84495D01*
X92330Y84429D01*
X92408Y84365D01*
X92487Y84305D01*
X92569Y84248D01*
X92653Y84194D01*
X92739Y84144D01*
X92827Y84097D01*
X92917Y84053D01*
X93008Y84013D01*
X93101Y83977D01*
X93195Y83944D01*
X93291Y83915D01*
X93387Y83890D01*
X93484Y83869D01*
X93583Y83851D01*
X93681Y83838D01*
X93781Y83828D01*
X93880Y83822D01*
X93980Y83820D01*
X116840Y129540D02*
X116838Y129640D01*
X116832Y129739D01*
X116822Y129839D01*
X116809Y129937D01*
X116791Y130036D01*
X116770Y130133D01*
X116745Y130229D01*
X116716Y130325D01*
X116683Y130419D01*
X116647Y130512D01*
X116607Y130603D01*
X116563Y130693D01*
X116516Y130781D01*
X116466Y130867D01*
X116412Y130951D01*
X116355Y131033D01*
X116295Y131112D01*
X116231Y131190D01*
X116165Y131264D01*
X116096Y131336D01*
X116024Y131405D01*
X115950Y131471D01*
X115872Y131535D01*
X115793Y131595D01*
X115711Y131652D01*
X115627Y131706D01*
X115541Y131756D01*
X115453Y131803D01*
X115363Y131847D01*
X115272Y131887D01*
X115179Y131923D01*
X115085Y131956D01*
X114989Y131985D01*
X114893Y132010D01*
X114796Y132031D01*
X114697Y132049D01*
X114599Y132062D01*
X114499Y132072D01*
X114400Y132078D01*
X114300Y132080D01*
X116840Y86360D02*
X116838Y86260D01*
X116832Y86161D01*
X116822Y86061D01*
X116809Y85963D01*
X116791Y85864D01*
X116770Y85767D01*
X116745Y85671D01*
X116716Y85575D01*
X116683Y85481D01*
X116647Y85388D01*
X116607Y85297D01*
X116563Y85207D01*
X116516Y85119D01*
X116466Y85033D01*
X116412Y84949D01*
X116355Y84867D01*
X116295Y84788D01*
X116231Y84710D01*
X116165Y84636D01*
X116096Y84564D01*
X116024Y84495D01*
X115950Y84429D01*
X115872Y84365D01*
X115793Y84305D01*
X115711Y84248D01*
X115627Y84194D01*
X115541Y84144D01*
X115453Y84097D01*
X115363Y84053D01*
X115272Y84013D01*
X115179Y83977D01*
X115085Y83944D01*
X114989Y83915D01*
X114893Y83890D01*
X114796Y83869D01*
X114697Y83851D01*
X114599Y83838D01*
X114499Y83828D01*
X114400Y83822D01*
X114300Y83820D01*
X104140Y110490D02*
X104140Y111760D01*
D12*
X104140Y110490D02*
X96520Y110490D01*
X104140Y110490D02*
X111760Y110490D01*
X104140Y105410D02*
X96520Y105410D01*
X104140Y105410D02*
X111760Y105410D01*
D10*
X104140Y105410D02*
X104140Y104140D01*
D13*
X97155Y70485D02*
X94615Y70485D01*
X94515Y70487D01*
X94416Y70493D01*
X94316Y70503D01*
X94218Y70516D01*
X94119Y70534D01*
X94022Y70555D01*
X93926Y70580D01*
X93830Y70609D01*
X93736Y70642D01*
X93643Y70678D01*
X93552Y70718D01*
X93462Y70762D01*
X93374Y70809D01*
X93288Y70859D01*
X93204Y70913D01*
X93122Y70970D01*
X93043Y71030D01*
X92965Y71094D01*
X92891Y71160D01*
X92819Y71229D01*
X92750Y71301D01*
X92684Y71375D01*
X92620Y71453D01*
X92560Y71532D01*
X92503Y71614D01*
X92449Y71698D01*
X92399Y71784D01*
X92352Y71872D01*
X92308Y71962D01*
X92268Y72053D01*
X92232Y72146D01*
X92199Y72240D01*
X92170Y72336D01*
X92145Y72432D01*
X92124Y72529D01*
X92106Y72628D01*
X92093Y72726D01*
X92083Y72826D01*
X92077Y72925D01*
X92075Y73025D01*
X92075Y79375D01*
X92077Y79475D01*
X92083Y79574D01*
X92093Y79674D01*
X92106Y79772D01*
X92124Y79871D01*
X92145Y79968D01*
X92170Y80064D01*
X92199Y80160D01*
X92232Y80254D01*
X92268Y80347D01*
X92308Y80438D01*
X92352Y80528D01*
X92399Y80616D01*
X92449Y80702D01*
X92503Y80786D01*
X92560Y80868D01*
X92620Y80947D01*
X92684Y81025D01*
X92750Y81099D01*
X92819Y81171D01*
X92891Y81240D01*
X92965Y81306D01*
X93043Y81370D01*
X93122Y81430D01*
X93204Y81487D01*
X93288Y81541D01*
X93374Y81591D01*
X93462Y81638D01*
X93552Y81682D01*
X93643Y81722D01*
X93736Y81758D01*
X93830Y81791D01*
X93926Y81820D01*
X94022Y81845D01*
X94119Y81866D01*
X94218Y81884D01*
X94316Y81897D01*
X94416Y81907D01*
X94515Y81913D01*
X94615Y81915D01*
X97155Y81915D01*
X105130Y81916D02*
X105234Y81914D01*
X105339Y81908D01*
X105443Y81899D01*
X105546Y81886D01*
X105649Y81868D01*
X105751Y81848D01*
X105853Y81823D01*
X105953Y81795D01*
X106053Y81763D01*
X106151Y81727D01*
X106248Y81688D01*
X106343Y81646D01*
X106437Y81600D01*
X106529Y81550D01*
X106619Y81498D01*
X106707Y81442D01*
X106793Y81382D01*
X106877Y81320D01*
X106958Y81255D01*
X107037Y81187D01*
X107114Y81115D01*
X107187Y81042D01*
X107259Y80965D01*
X107327Y80886D01*
X107392Y80805D01*
X107454Y80721D01*
X107514Y80635D01*
X107570Y80547D01*
X107622Y80457D01*
X107672Y80365D01*
X107718Y80271D01*
X107760Y80176D01*
X107799Y80079D01*
X107835Y79981D01*
X107867Y79881D01*
X107895Y79781D01*
X107920Y79679D01*
X107940Y79577D01*
X107958Y79474D01*
X107971Y79371D01*
X107980Y79267D01*
X107986Y79162D01*
X107988Y79058D01*
X105130Y81915D02*
X105012Y81913D01*
X104893Y81907D01*
X104775Y81898D01*
X104658Y81885D01*
X104541Y81867D01*
X104424Y81847D01*
X104308Y81822D01*
X104193Y81794D01*
X104080Y81761D01*
X103967Y81726D01*
X103855Y81686D01*
X103745Y81644D01*
X103636Y81597D01*
X103528Y81547D01*
X103423Y81494D01*
X103319Y81437D01*
X103217Y81377D01*
X103117Y81314D01*
X103019Y81247D01*
X102923Y81178D01*
X102830Y81105D01*
X102739Y81029D01*
X102650Y80951D01*
X102564Y80869D01*
X102481Y80785D01*
X102400Y80699D01*
X102323Y80609D01*
X102248Y80518D01*
X102176Y80424D01*
X102107Y80327D01*
X102042Y80229D01*
X101979Y80128D01*
X101920Y80025D01*
X101864Y79921D01*
X101812Y79815D01*
X101763Y79707D01*
X101718Y79598D01*
X101676Y79487D01*
X101638Y79375D01*
X107035Y76836D02*
X107111Y76911D01*
X107186Y76990D01*
X107257Y77071D01*
X107326Y77155D01*
X107391Y77241D01*
X107453Y77329D01*
X107513Y77419D01*
X107569Y77511D01*
X107622Y77606D01*
X107671Y77702D01*
X107717Y77800D01*
X107760Y77899D01*
X107799Y78000D01*
X107834Y78102D01*
X107866Y78205D01*
X107894Y78309D01*
X107919Y78414D01*
X107940Y78521D01*
X107957Y78627D01*
X107970Y78734D01*
X107979Y78842D01*
X107985Y78950D01*
X107987Y79058D01*
X107035Y76835D02*
X101637Y70485D01*
X107987Y70485D01*
D14*
X63890Y131340D02*
X63890Y163300D01*
X63890Y131340D02*
X14850Y131340D01*
X14850Y163300D01*
X63890Y163300D01*
X65170Y166800D02*
X65170Y182070D01*
D11*
X27178Y154432D02*
X27178Y145994D01*
X27180Y145881D01*
X27186Y145768D01*
X27196Y145655D01*
X27210Y145542D01*
X27227Y145430D01*
X27249Y145319D01*
X27274Y145209D01*
X27304Y145099D01*
X27337Y144991D01*
X27374Y144884D01*
X27414Y144778D01*
X27459Y144674D01*
X27507Y144571D01*
X27558Y144470D01*
X27613Y144371D01*
X27671Y144274D01*
X27733Y144179D01*
X27798Y144086D01*
X27866Y143996D01*
X27937Y143908D01*
X28012Y143822D01*
X28089Y143739D01*
X28169Y143659D01*
X28252Y143582D01*
X28338Y143507D01*
X28426Y143436D01*
X28516Y143368D01*
X28609Y143303D01*
X28704Y143241D01*
X28801Y143183D01*
X28900Y143128D01*
X29001Y143077D01*
X29104Y143029D01*
X29208Y142984D01*
X29314Y142944D01*
X29421Y142907D01*
X29529Y142874D01*
X29639Y142844D01*
X29749Y142819D01*
X29860Y142797D01*
X29972Y142780D01*
X30085Y142766D01*
X30198Y142756D01*
X30311Y142750D01*
X30424Y142748D01*
X30537Y142750D01*
X30650Y142756D01*
X30763Y142766D01*
X30876Y142780D01*
X30988Y142797D01*
X31099Y142819D01*
X31209Y142844D01*
X31319Y142874D01*
X31427Y142907D01*
X31534Y142944D01*
X31640Y142984D01*
X31744Y143029D01*
X31847Y143077D01*
X31948Y143128D01*
X32047Y143183D01*
X32144Y143241D01*
X32239Y143303D01*
X32332Y143368D01*
X32422Y143436D01*
X32510Y143507D01*
X32596Y143582D01*
X32679Y143659D01*
X32759Y143739D01*
X32836Y143822D01*
X32911Y143908D01*
X32982Y143996D01*
X33050Y144086D01*
X33115Y144179D01*
X33177Y144274D01*
X33235Y144371D01*
X33290Y144470D01*
X33341Y144571D01*
X33389Y144674D01*
X33434Y144778D01*
X33474Y144884D01*
X33511Y144991D01*
X33544Y145099D01*
X33574Y145209D01*
X33599Y145319D01*
X33621Y145430D01*
X33638Y145542D01*
X33652Y145655D01*
X33662Y145768D01*
X33668Y145881D01*
X33670Y145994D01*
X33669Y145994D02*
X33669Y154432D01*
X38989Y151836D02*
X42235Y154432D01*
X42235Y142748D01*
X45480Y142748D02*
X38989Y142748D01*
D10*
X17780Y82550D02*
X60960Y82550D01*
X60960Y107950D02*
X17780Y107950D01*
X15240Y105410D02*
X15240Y85090D01*
X63500Y85090D02*
X63500Y105410D01*
X17780Y82550D02*
X17680Y82552D01*
X17581Y82558D01*
X17481Y82568D01*
X17383Y82581D01*
X17284Y82599D01*
X17187Y82620D01*
X17091Y82645D01*
X16995Y82674D01*
X16901Y82707D01*
X16808Y82743D01*
X16717Y82783D01*
X16627Y82827D01*
X16539Y82874D01*
X16453Y82924D01*
X16369Y82978D01*
X16287Y83035D01*
X16208Y83095D01*
X16130Y83159D01*
X16056Y83225D01*
X15984Y83294D01*
X15915Y83366D01*
X15849Y83440D01*
X15785Y83518D01*
X15725Y83597D01*
X15668Y83679D01*
X15614Y83763D01*
X15564Y83849D01*
X15517Y83937D01*
X15473Y84027D01*
X15433Y84118D01*
X15397Y84211D01*
X15364Y84305D01*
X15335Y84401D01*
X15310Y84497D01*
X15289Y84594D01*
X15271Y84693D01*
X15258Y84791D01*
X15248Y84891D01*
X15242Y84990D01*
X15240Y85090D01*
X60960Y82550D02*
X61060Y82552D01*
X61159Y82558D01*
X61259Y82568D01*
X61357Y82581D01*
X61456Y82599D01*
X61553Y82620D01*
X61649Y82645D01*
X61745Y82674D01*
X61839Y82707D01*
X61932Y82743D01*
X62023Y82783D01*
X62113Y82827D01*
X62201Y82874D01*
X62287Y82924D01*
X62371Y82978D01*
X62453Y83035D01*
X62532Y83095D01*
X62610Y83159D01*
X62684Y83225D01*
X62756Y83294D01*
X62825Y83366D01*
X62891Y83440D01*
X62955Y83518D01*
X63015Y83597D01*
X63072Y83679D01*
X63126Y83763D01*
X63176Y83849D01*
X63223Y83937D01*
X63267Y84027D01*
X63307Y84118D01*
X63343Y84211D01*
X63376Y84305D01*
X63405Y84401D01*
X63430Y84497D01*
X63451Y84594D01*
X63469Y84693D01*
X63482Y84791D01*
X63492Y84891D01*
X63498Y84990D01*
X63500Y85090D01*
X17780Y107950D02*
X17680Y107948D01*
X17581Y107942D01*
X17481Y107932D01*
X17383Y107919D01*
X17284Y107901D01*
X17187Y107880D01*
X17091Y107855D01*
X16995Y107826D01*
X16901Y107793D01*
X16808Y107757D01*
X16717Y107717D01*
X16627Y107673D01*
X16539Y107626D01*
X16453Y107576D01*
X16369Y107522D01*
X16287Y107465D01*
X16208Y107405D01*
X16130Y107341D01*
X16056Y107275D01*
X15984Y107206D01*
X15915Y107134D01*
X15849Y107060D01*
X15785Y106982D01*
X15725Y106903D01*
X15668Y106821D01*
X15614Y106737D01*
X15564Y106651D01*
X15517Y106563D01*
X15473Y106473D01*
X15433Y106382D01*
X15397Y106289D01*
X15364Y106195D01*
X15335Y106099D01*
X15310Y106003D01*
X15289Y105906D01*
X15271Y105807D01*
X15258Y105709D01*
X15248Y105609D01*
X15242Y105510D01*
X15240Y105410D01*
X60960Y107950D02*
X61060Y107948D01*
X61159Y107942D01*
X61259Y107932D01*
X61357Y107919D01*
X61456Y107901D01*
X61553Y107880D01*
X61649Y107855D01*
X61745Y107826D01*
X61839Y107793D01*
X61932Y107757D01*
X62023Y107717D01*
X62113Y107673D01*
X62201Y107626D01*
X62287Y107576D01*
X62371Y107522D01*
X62453Y107465D01*
X62532Y107405D01*
X62610Y107341D01*
X62684Y107275D01*
X62756Y107206D01*
X62825Y107134D01*
X62891Y107060D01*
X62955Y106982D01*
X63015Y106903D01*
X63072Y106821D01*
X63126Y106737D01*
X63176Y106651D01*
X63223Y106563D01*
X63267Y106473D01*
X63307Y106382D01*
X63343Y106289D01*
X63376Y106195D01*
X63405Y106099D01*
X63430Y106003D01*
X63451Y105906D01*
X63469Y105807D01*
X63482Y105709D01*
X63492Y105609D01*
X63498Y105510D01*
X63500Y105410D01*
X36830Y95250D02*
X35560Y95250D01*
D12*
X36830Y95250D02*
X36830Y87630D01*
X36830Y95250D02*
X36830Y102870D01*
X41910Y95250D02*
X41910Y87630D01*
X41910Y95250D02*
X41910Y102870D01*
D10*
X41910Y95250D02*
X43180Y95250D01*
D13*
X45085Y67945D02*
X47625Y67945D01*
X45085Y67945D02*
X44985Y67947D01*
X44886Y67953D01*
X44786Y67963D01*
X44688Y67976D01*
X44589Y67994D01*
X44492Y68015D01*
X44396Y68040D01*
X44300Y68069D01*
X44206Y68102D01*
X44113Y68138D01*
X44022Y68178D01*
X43932Y68222D01*
X43844Y68269D01*
X43758Y68319D01*
X43674Y68373D01*
X43592Y68430D01*
X43513Y68490D01*
X43435Y68554D01*
X43361Y68620D01*
X43289Y68689D01*
X43220Y68761D01*
X43154Y68835D01*
X43090Y68913D01*
X43030Y68992D01*
X42973Y69074D01*
X42919Y69158D01*
X42869Y69244D01*
X42822Y69332D01*
X42778Y69422D01*
X42738Y69513D01*
X42702Y69606D01*
X42669Y69700D01*
X42640Y69796D01*
X42615Y69892D01*
X42594Y69989D01*
X42576Y70088D01*
X42563Y70186D01*
X42553Y70286D01*
X42547Y70385D01*
X42545Y70485D01*
X42545Y76835D01*
X42547Y76935D01*
X42553Y77034D01*
X42563Y77134D01*
X42576Y77232D01*
X42594Y77331D01*
X42615Y77428D01*
X42640Y77524D01*
X42669Y77620D01*
X42702Y77714D01*
X42738Y77807D01*
X42778Y77898D01*
X42822Y77988D01*
X42869Y78076D01*
X42919Y78162D01*
X42973Y78246D01*
X43030Y78328D01*
X43090Y78407D01*
X43154Y78485D01*
X43220Y78559D01*
X43289Y78631D01*
X43361Y78700D01*
X43435Y78766D01*
X43513Y78830D01*
X43592Y78890D01*
X43674Y78947D01*
X43758Y79001D01*
X43844Y79051D01*
X43932Y79098D01*
X44022Y79142D01*
X44113Y79182D01*
X44206Y79218D01*
X44300Y79251D01*
X44396Y79280D01*
X44492Y79305D01*
X44589Y79326D01*
X44688Y79344D01*
X44786Y79357D01*
X44886Y79367D01*
X44985Y79373D01*
X45085Y79375D01*
X47625Y79375D01*
X52107Y67945D02*
X55282Y67945D01*
X55393Y67947D01*
X55503Y67953D01*
X55614Y67962D01*
X55724Y67976D01*
X55833Y67993D01*
X55942Y68014D01*
X56050Y68039D01*
X56157Y68068D01*
X56263Y68100D01*
X56368Y68136D01*
X56471Y68176D01*
X56573Y68219D01*
X56674Y68266D01*
X56773Y68317D01*
X56869Y68370D01*
X56964Y68427D01*
X57057Y68488D01*
X57148Y68551D01*
X57237Y68618D01*
X57323Y68688D01*
X57406Y68761D01*
X57488Y68836D01*
X57566Y68914D01*
X57641Y68996D01*
X57714Y69079D01*
X57784Y69165D01*
X57851Y69254D01*
X57914Y69345D01*
X57975Y69438D01*
X58032Y69532D01*
X58085Y69629D01*
X58136Y69728D01*
X58183Y69829D01*
X58226Y69931D01*
X58266Y70034D01*
X58302Y70139D01*
X58334Y70245D01*
X58363Y70352D01*
X58388Y70460D01*
X58409Y70569D01*
X58426Y70678D01*
X58440Y70788D01*
X58449Y70899D01*
X58455Y71009D01*
X58457Y71120D01*
X58455Y71231D01*
X58449Y71341D01*
X58440Y71452D01*
X58426Y71562D01*
X58409Y71671D01*
X58388Y71780D01*
X58363Y71888D01*
X58334Y71995D01*
X58302Y72101D01*
X58266Y72206D01*
X58226Y72309D01*
X58183Y72411D01*
X58136Y72512D01*
X58085Y72611D01*
X58032Y72707D01*
X57975Y72802D01*
X57914Y72895D01*
X57851Y72986D01*
X57784Y73075D01*
X57714Y73161D01*
X57641Y73244D01*
X57566Y73326D01*
X57488Y73404D01*
X57406Y73479D01*
X57323Y73552D01*
X57237Y73622D01*
X57148Y73689D01*
X57057Y73752D01*
X56964Y73813D01*
X56870Y73870D01*
X56773Y73923D01*
X56674Y73974D01*
X56573Y74021D01*
X56471Y74064D01*
X56368Y74104D01*
X56263Y74140D01*
X56157Y74172D01*
X56050Y74201D01*
X55942Y74226D01*
X55833Y74247D01*
X55724Y74264D01*
X55614Y74278D01*
X55503Y74287D01*
X55393Y74293D01*
X55282Y74295D01*
X55917Y79375D02*
X52107Y79375D01*
X55917Y79375D02*
X56017Y79373D01*
X56116Y79367D01*
X56216Y79357D01*
X56314Y79344D01*
X56413Y79326D01*
X56510Y79305D01*
X56606Y79280D01*
X56702Y79251D01*
X56796Y79218D01*
X56889Y79182D01*
X56980Y79142D01*
X57070Y79098D01*
X57158Y79051D01*
X57244Y79001D01*
X57328Y78947D01*
X57410Y78890D01*
X57489Y78830D01*
X57567Y78766D01*
X57641Y78700D01*
X57713Y78631D01*
X57782Y78559D01*
X57848Y78485D01*
X57912Y78407D01*
X57972Y78328D01*
X58029Y78246D01*
X58083Y78162D01*
X58133Y78076D01*
X58180Y77988D01*
X58224Y77898D01*
X58264Y77807D01*
X58300Y77714D01*
X58333Y77620D01*
X58362Y77524D01*
X58387Y77428D01*
X58408Y77331D01*
X58426Y77232D01*
X58439Y77134D01*
X58449Y77034D01*
X58455Y76935D01*
X58457Y76835D01*
X58455Y76735D01*
X58449Y76636D01*
X58439Y76536D01*
X58426Y76438D01*
X58408Y76339D01*
X58387Y76242D01*
X58362Y76146D01*
X58333Y76050D01*
X58300Y75956D01*
X58264Y75863D01*
X58224Y75772D01*
X58180Y75682D01*
X58133Y75594D01*
X58083Y75508D01*
X58029Y75424D01*
X57972Y75342D01*
X57912Y75263D01*
X57848Y75185D01*
X57782Y75111D01*
X57713Y75039D01*
X57641Y74970D01*
X57567Y74904D01*
X57489Y74840D01*
X57410Y74780D01*
X57328Y74723D01*
X57244Y74669D01*
X57158Y74619D01*
X57070Y74572D01*
X56980Y74528D01*
X56889Y74488D01*
X56796Y74452D01*
X56702Y74419D01*
X56606Y74390D01*
X56510Y74365D01*
X56413Y74344D01*
X56314Y74326D01*
X56216Y74313D01*
X56116Y74303D01*
X56017Y74297D01*
X55917Y74295D01*
X53377Y74295D01*
D10*
X16002Y268732D02*
X16016Y269854D01*
X16057Y270975D01*
X16126Y272095D01*
X16222Y273213D01*
X16346Y274329D01*
X16497Y275441D01*
X16675Y276548D01*
X16880Y277652D01*
X17113Y278749D01*
X17372Y279841D01*
X17658Y280926D01*
X17971Y282004D01*
X18310Y283074D01*
X18675Y284135D01*
X19066Y285186D01*
X19482Y286228D01*
X19924Y287260D01*
X20392Y288280D01*
X20884Y289288D01*
X21401Y290284D01*
X21942Y291267D01*
X22507Y292237D01*
X23095Y293192D01*
X23707Y294133D01*
X24342Y295058D01*
X24999Y295967D01*
X25679Y296860D01*
X26380Y297736D01*
X27102Y298595D01*
X27846Y299436D01*
X28609Y300258D01*
X29393Y301061D01*
X30196Y301845D01*
X31018Y302608D01*
X31859Y303352D01*
X32718Y304074D01*
X33594Y304775D01*
X34487Y305455D01*
X35396Y306112D01*
X36321Y306747D01*
X37262Y307359D01*
X38217Y307947D01*
X39187Y308512D01*
X40170Y309053D01*
X41166Y309570D01*
X42174Y310062D01*
X43194Y310530D01*
X44226Y310972D01*
X45268Y311388D01*
X46319Y311779D01*
X47380Y312144D01*
X48450Y312483D01*
X49528Y312796D01*
X50613Y313082D01*
X51705Y313341D01*
X52802Y313574D01*
X53906Y313779D01*
X55013Y313957D01*
X56125Y314108D01*
X57241Y314232D01*
X58359Y314328D01*
X59479Y314397D01*
X60600Y314438D01*
X61722Y314452D01*
X62844Y314438D01*
X63965Y314397D01*
X65085Y314328D01*
X66203Y314232D01*
X67319Y314108D01*
X68431Y313957D01*
X69538Y313779D01*
X70642Y313574D01*
X71739Y313341D01*
X72831Y313082D01*
X73916Y312796D01*
X74994Y312483D01*
X76064Y312144D01*
X77125Y311779D01*
X78176Y311388D01*
X79218Y310972D01*
X80250Y310530D01*
X81270Y310062D01*
X82278Y309570D01*
X83274Y309053D01*
X84257Y308512D01*
X85227Y307947D01*
X86182Y307359D01*
X87123Y306747D01*
X88048Y306112D01*
X88957Y305455D01*
X89850Y304775D01*
X90726Y304074D01*
X91585Y303352D01*
X92426Y302608D01*
X93248Y301845D01*
X94051Y301061D01*
X94835Y300258D01*
X95598Y299436D01*
X96342Y298595D01*
X97064Y297736D01*
X97765Y296860D01*
X98445Y295967D01*
X99102Y295058D01*
X99737Y294133D01*
X100349Y293192D01*
X100937Y292237D01*
X101502Y291267D01*
X102043Y290284D01*
X102560Y289288D01*
X103052Y288280D01*
X103520Y287260D01*
X103962Y286228D01*
X104378Y285186D01*
X104769Y284135D01*
X105134Y283074D01*
X105473Y282004D01*
X105786Y280926D01*
X106072Y279841D01*
X106331Y278749D01*
X106564Y277652D01*
X106769Y276548D01*
X106947Y275441D01*
X107098Y274329D01*
X107222Y273213D01*
X107318Y272095D01*
X107387Y270975D01*
X107428Y269854D01*
X107442Y268732D01*
X107428Y267610D01*
X107387Y266489D01*
X107318Y265369D01*
X107222Y264251D01*
X107098Y263135D01*
X106947Y262023D01*
X106769Y260916D01*
X106564Y259812D01*
X106331Y258715D01*
X106072Y257623D01*
X105786Y256538D01*
X105473Y255460D01*
X105134Y254390D01*
X104769Y253329D01*
X104378Y252278D01*
X103962Y251236D01*
X103520Y250204D01*
X103052Y249184D01*
X102560Y248176D01*
X102043Y247180D01*
X101502Y246197D01*
X100937Y245227D01*
X100349Y244272D01*
X99737Y243331D01*
X99102Y242406D01*
X98445Y241497D01*
X97765Y240604D01*
X97064Y239728D01*
X96342Y238869D01*
X95598Y238028D01*
X94835Y237206D01*
X94051Y236403D01*
X93248Y235619D01*
X92426Y234856D01*
X91585Y234112D01*
X90726Y233390D01*
X89850Y232689D01*
X88957Y232009D01*
X88048Y231352D01*
X87123Y230717D01*
X86182Y230105D01*
X85227Y229517D01*
X84257Y228952D01*
X83274Y228411D01*
X82278Y227894D01*
X81270Y227402D01*
X80250Y226934D01*
X79218Y226492D01*
X78176Y226076D01*
X77125Y225685D01*
X76064Y225320D01*
X74994Y224981D01*
X73916Y224668D01*
X72831Y224382D01*
X71739Y224123D01*
X70642Y223890D01*
X69538Y223685D01*
X68431Y223507D01*
X67319Y223356D01*
X66203Y223232D01*
X65085Y223136D01*
X63965Y223067D01*
X62844Y223026D01*
X61722Y223012D01*
X60600Y223026D01*
X59479Y223067D01*
X58359Y223136D01*
X57241Y223232D01*
X56125Y223356D01*
X55013Y223507D01*
X53906Y223685D01*
X52802Y223890D01*
X51705Y224123D01*
X50613Y224382D01*
X49528Y224668D01*
X48450Y224981D01*
X47380Y225320D01*
X46319Y225685D01*
X45268Y226076D01*
X44226Y226492D01*
X43194Y226934D01*
X42174Y227402D01*
X41166Y227894D01*
X40170Y228411D01*
X39187Y228952D01*
X38217Y229517D01*
X37262Y230105D01*
X36321Y230717D01*
X35396Y231352D01*
X34487Y232009D01*
X33594Y232689D01*
X32718Y233390D01*
X31859Y234112D01*
X31018Y234856D01*
X30196Y235619D01*
X29393Y236403D01*
X28609Y237206D01*
X27846Y238028D01*
X27102Y238869D01*
X26380Y239728D01*
X25679Y240604D01*
X24999Y241497D01*
X24342Y242406D01*
X23707Y243331D01*
X23095Y244272D01*
X22507Y245227D01*
X21942Y246197D01*
X21401Y247180D01*
X20884Y248176D01*
X20392Y249184D01*
X19924Y250204D01*
X19482Y251236D01*
X19066Y252278D01*
X18675Y253329D01*
X18310Y254390D01*
X17971Y255460D01*
X17658Y256538D01*
X17372Y257623D01*
X17113Y258715D01*
X16880Y259812D01*
X16675Y260916D01*
X16497Y262023D01*
X16346Y263135D01*
X16222Y264251D01*
X16126Y265369D01*
X16057Y266489D01*
X16016Y267610D01*
X16002Y268732D01*
D15*
X40222Y268732D02*
X40228Y269260D01*
X40248Y269787D01*
X40280Y270314D01*
X40326Y270839D01*
X40384Y271364D01*
X40455Y271887D01*
X40539Y272408D01*
X40635Y272926D01*
X40744Y273443D01*
X40866Y273956D01*
X41001Y274466D01*
X41148Y274973D01*
X41307Y275476D01*
X41479Y275975D01*
X41663Y276470D01*
X41859Y276960D01*
X42066Y277445D01*
X42286Y277924D01*
X42518Y278399D01*
X42761Y278867D01*
X43015Y279329D01*
X43281Y279785D01*
X43558Y280234D01*
X43845Y280677D01*
X44144Y281112D01*
X44453Y281540D01*
X44773Y281959D01*
X45102Y282371D01*
X45442Y282775D01*
X45792Y283171D01*
X46151Y283557D01*
X46519Y283935D01*
X46897Y284303D01*
X47283Y284662D01*
X47679Y285012D01*
X48083Y285352D01*
X48495Y285681D01*
X48914Y286001D01*
X49342Y286310D01*
X49777Y286609D01*
X50220Y286896D01*
X50669Y287173D01*
X51125Y287439D01*
X51587Y287693D01*
X52055Y287936D01*
X52530Y288168D01*
X53009Y288388D01*
X53494Y288595D01*
X53984Y288791D01*
X54479Y288975D01*
X54978Y289147D01*
X55481Y289306D01*
X55988Y289453D01*
X56498Y289588D01*
X57011Y289710D01*
X57528Y289819D01*
X58046Y289915D01*
X58567Y289999D01*
X59090Y290070D01*
X59615Y290128D01*
X60140Y290174D01*
X60667Y290206D01*
X61194Y290226D01*
X61722Y290232D01*
X62250Y290226D01*
X62777Y290206D01*
X63304Y290174D01*
X63829Y290128D01*
X64354Y290070D01*
X64877Y289999D01*
X65398Y289915D01*
X65916Y289819D01*
X66433Y289710D01*
X66946Y289588D01*
X67456Y289453D01*
X67963Y289306D01*
X68466Y289147D01*
X68965Y288975D01*
X69460Y288791D01*
X69950Y288595D01*
X70435Y288388D01*
X70914Y288168D01*
X71389Y287936D01*
X71857Y287693D01*
X72319Y287439D01*
X72775Y287173D01*
X73224Y286896D01*
X73667Y286609D01*
X74102Y286310D01*
X74530Y286001D01*
X74949Y285681D01*
X75361Y285352D01*
X75765Y285012D01*
X76161Y284662D01*
X76547Y284303D01*
X76925Y283935D01*
X77293Y283557D01*
X77652Y283171D01*
X78002Y282775D01*
X78342Y282371D01*
X78671Y281959D01*
X78991Y281540D01*
X79300Y281112D01*
X79599Y280677D01*
X79886Y280234D01*
X80163Y279785D01*
X80429Y279329D01*
X80683Y278867D01*
X80926Y278399D01*
X81158Y277924D01*
X81378Y277445D01*
X81585Y276960D01*
X81781Y276470D01*
X81965Y275975D01*
X82137Y275476D01*
X82296Y274973D01*
X82443Y274466D01*
X82578Y273956D01*
X82700Y273443D01*
X82809Y272926D01*
X82905Y272408D01*
X82989Y271887D01*
X83060Y271364D01*
X83118Y270839D01*
X83164Y270314D01*
X83196Y269787D01*
X83216Y269260D01*
X83222Y268732D01*
X83216Y268204D01*
X83196Y267677D01*
X83164Y267150D01*
X83118Y266625D01*
X83060Y266100D01*
X82989Y265577D01*
X82905Y265056D01*
X82809Y264538D01*
X82700Y264021D01*
X82578Y263508D01*
X82443Y262998D01*
X82296Y262491D01*
X82137Y261988D01*
X81965Y261489D01*
X81781Y260994D01*
X81585Y260504D01*
X81378Y260019D01*
X81158Y259540D01*
X80926Y259065D01*
X80683Y258597D01*
X80429Y258135D01*
X80163Y257679D01*
X79886Y257230D01*
X79599Y256787D01*
X79300Y256352D01*
X78991Y255924D01*
X78671Y255505D01*
X78342Y255093D01*
X78002Y254689D01*
X77652Y254293D01*
X77293Y253907D01*
X76925Y253529D01*
X76547Y253161D01*
X76161Y252802D01*
X75765Y252452D01*
X75361Y252112D01*
X74949Y251783D01*
X74530Y251463D01*
X74102Y251154D01*
X73667Y250855D01*
X73224Y250568D01*
X72775Y250291D01*
X72319Y250025D01*
X71857Y249771D01*
X71389Y249528D01*
X70914Y249296D01*
X70435Y249076D01*
X69950Y248869D01*
X69460Y248673D01*
X68965Y248489D01*
X68466Y248317D01*
X67963Y248158D01*
X67456Y248011D01*
X66946Y247876D01*
X66433Y247754D01*
X65916Y247645D01*
X65398Y247549D01*
X64877Y247465D01*
X64354Y247394D01*
X63829Y247336D01*
X63304Y247290D01*
X62777Y247258D01*
X62250Y247238D01*
X61722Y247232D01*
X61194Y247238D01*
X60667Y247258D01*
X60140Y247290D01*
X59615Y247336D01*
X59090Y247394D01*
X58567Y247465D01*
X58046Y247549D01*
X57528Y247645D01*
X57011Y247754D01*
X56498Y247876D01*
X55988Y248011D01*
X55481Y248158D01*
X54978Y248317D01*
X54479Y248489D01*
X53984Y248673D01*
X53494Y248869D01*
X53009Y249076D01*
X52530Y249296D01*
X52055Y249528D01*
X51587Y249771D01*
X51125Y250025D01*
X50669Y250291D01*
X50220Y250568D01*
X49777Y250855D01*
X49342Y251154D01*
X48914Y251463D01*
X48495Y251783D01*
X48083Y252112D01*
X47679Y252452D01*
X47283Y252802D01*
X46897Y253161D01*
X46519Y253529D01*
X46151Y253907D01*
X45792Y254293D01*
X45442Y254689D01*
X45102Y255093D01*
X44773Y255505D01*
X44453Y255924D01*
X44144Y256352D01*
X43845Y256787D01*
X43558Y257230D01*
X43281Y257679D01*
X43015Y258135D01*
X42761Y258597D01*
X42518Y259065D01*
X42286Y259540D01*
X42066Y260019D01*
X41859Y260504D01*
X41663Y260994D01*
X41479Y261489D01*
X41307Y261988D01*
X41148Y262491D01*
X41001Y262998D01*
X40866Y263508D01*
X40744Y264021D01*
X40635Y264538D01*
X40539Y265056D01*
X40455Y265577D01*
X40384Y266100D01*
X40326Y266625D01*
X40280Y267150D01*
X40248Y267677D01*
X40228Y268204D01*
X40222Y268732D01*
M02*
