G04 EAGLE Gerber RS-274X export*
G75*
%MOMM*%
%FSLAX34Y34*%
%LPD*%
%INSilkscreen Bottom*%
%IPPOS*%
%AMOC8*
5,1,8,0,0,1.08239X$1,22.5*%
G01*
%ADD10C,0.152400*%
%ADD11C,0.076200*%


D10*
X110462Y232918D02*
X110462Y216662D01*
X112268Y216662D02*
X108656Y216662D01*
X108656Y232918D02*
X112268Y232918D01*
X101951Y232918D02*
X101951Y216662D01*
X92920Y216662D02*
X101951Y232918D01*
X92920Y232918D02*
X92920Y216662D01*
D11*
X106048Y68199D02*
X102915Y58801D01*
X99782Y68199D01*
X96077Y68199D02*
X96077Y58801D01*
X96077Y68199D02*
X93466Y68199D01*
X93366Y68197D01*
X93266Y68191D01*
X93167Y68182D01*
X93067Y68168D01*
X92969Y68151D01*
X92871Y68130D01*
X92774Y68106D01*
X92678Y68077D01*
X92583Y68045D01*
X92490Y68010D01*
X92398Y67971D01*
X92307Y67928D01*
X92219Y67882D01*
X92132Y67832D01*
X92047Y67780D01*
X91964Y67724D01*
X91883Y67665D01*
X91805Y67602D01*
X91729Y67537D01*
X91655Y67469D01*
X91585Y67399D01*
X91517Y67325D01*
X91452Y67249D01*
X91389Y67171D01*
X91330Y67090D01*
X91274Y67007D01*
X91222Y66922D01*
X91172Y66835D01*
X91126Y66747D01*
X91083Y66656D01*
X91044Y66564D01*
X91009Y66471D01*
X90977Y66376D01*
X90948Y66280D01*
X90924Y66183D01*
X90903Y66085D01*
X90886Y65987D01*
X90872Y65887D01*
X90863Y65788D01*
X90857Y65688D01*
X90855Y65588D01*
X90856Y65588D02*
X90856Y61412D01*
X90855Y61412D02*
X90857Y61312D01*
X90863Y61212D01*
X90872Y61113D01*
X90886Y61013D01*
X90903Y60915D01*
X90924Y60817D01*
X90948Y60720D01*
X90977Y60624D01*
X91009Y60529D01*
X91044Y60436D01*
X91083Y60344D01*
X91126Y60253D01*
X91172Y60165D01*
X91222Y60078D01*
X91274Y59993D01*
X91330Y59910D01*
X91389Y59829D01*
X91452Y59751D01*
X91517Y59675D01*
X91585Y59601D01*
X91655Y59531D01*
X91729Y59463D01*
X91805Y59398D01*
X91883Y59335D01*
X91964Y59276D01*
X92047Y59220D01*
X92132Y59168D01*
X92219Y59118D01*
X92307Y59072D01*
X92398Y59029D01*
X92490Y58990D01*
X92583Y58955D01*
X92678Y58923D01*
X92774Y58894D01*
X92871Y58870D01*
X92969Y58849D01*
X93067Y58832D01*
X93167Y58818D01*
X93266Y58809D01*
X93366Y58803D01*
X93466Y58801D01*
X96077Y58801D01*
X86323Y58801D02*
X86323Y68199D01*
X83713Y68199D01*
X83613Y68197D01*
X83513Y68191D01*
X83414Y68182D01*
X83314Y68168D01*
X83216Y68151D01*
X83118Y68130D01*
X83021Y68106D01*
X82925Y68077D01*
X82830Y68045D01*
X82737Y68010D01*
X82645Y67971D01*
X82554Y67928D01*
X82466Y67882D01*
X82379Y67832D01*
X82294Y67780D01*
X82211Y67724D01*
X82130Y67665D01*
X82052Y67602D01*
X81976Y67537D01*
X81902Y67469D01*
X81832Y67399D01*
X81764Y67325D01*
X81699Y67249D01*
X81636Y67171D01*
X81577Y67090D01*
X81521Y67007D01*
X81469Y66922D01*
X81419Y66835D01*
X81373Y66747D01*
X81330Y66656D01*
X81291Y66564D01*
X81256Y66471D01*
X81224Y66376D01*
X81195Y66280D01*
X81171Y66183D01*
X81150Y66085D01*
X81133Y65987D01*
X81119Y65887D01*
X81110Y65788D01*
X81104Y65688D01*
X81102Y65588D01*
X81102Y61412D01*
X81104Y61312D01*
X81110Y61212D01*
X81119Y61113D01*
X81133Y61013D01*
X81150Y60915D01*
X81171Y60817D01*
X81195Y60720D01*
X81224Y60624D01*
X81256Y60529D01*
X81291Y60436D01*
X81330Y60344D01*
X81373Y60253D01*
X81419Y60165D01*
X81469Y60078D01*
X81521Y59993D01*
X81577Y59910D01*
X81636Y59829D01*
X81699Y59751D01*
X81764Y59675D01*
X81832Y59601D01*
X81902Y59531D01*
X81976Y59463D01*
X82052Y59398D01*
X82130Y59335D01*
X82211Y59276D01*
X82294Y59220D01*
X82379Y59168D01*
X82466Y59118D01*
X82554Y59072D01*
X82645Y59029D01*
X82737Y58990D01*
X82830Y58955D01*
X82925Y58923D01*
X83021Y58894D01*
X83118Y58870D01*
X83216Y58849D01*
X83314Y58832D01*
X83414Y58818D01*
X83513Y58809D01*
X83613Y58803D01*
X83713Y58801D01*
X86323Y58801D01*
X68038Y64022D02*
X66472Y64022D01*
X66472Y58801D01*
X69604Y58801D01*
X69693Y58803D01*
X69781Y58809D01*
X69869Y58818D01*
X69957Y58831D01*
X70044Y58848D01*
X70130Y58868D01*
X70215Y58893D01*
X70300Y58920D01*
X70383Y58952D01*
X70464Y58986D01*
X70544Y59025D01*
X70622Y59066D01*
X70699Y59111D01*
X70773Y59159D01*
X70846Y59210D01*
X70916Y59264D01*
X70983Y59322D01*
X71049Y59382D01*
X71111Y59444D01*
X71171Y59510D01*
X71229Y59577D01*
X71283Y59647D01*
X71334Y59720D01*
X71382Y59794D01*
X71427Y59871D01*
X71468Y59949D01*
X71507Y60029D01*
X71541Y60110D01*
X71573Y60193D01*
X71600Y60278D01*
X71625Y60363D01*
X71645Y60449D01*
X71662Y60536D01*
X71675Y60624D01*
X71684Y60712D01*
X71690Y60800D01*
X71692Y60889D01*
X71693Y60889D02*
X71693Y66111D01*
X71692Y66111D02*
X71690Y66200D01*
X71684Y66288D01*
X71675Y66376D01*
X71662Y66464D01*
X71645Y66551D01*
X71625Y66637D01*
X71600Y66722D01*
X71573Y66807D01*
X71541Y66890D01*
X71507Y66971D01*
X71468Y67051D01*
X71427Y67129D01*
X71382Y67206D01*
X71334Y67280D01*
X71283Y67353D01*
X71229Y67423D01*
X71171Y67490D01*
X71111Y67556D01*
X71049Y67618D01*
X70983Y67678D01*
X70916Y67736D01*
X70846Y67790D01*
X70773Y67841D01*
X70699Y67889D01*
X70622Y67934D01*
X70544Y67975D01*
X70464Y68014D01*
X70383Y68048D01*
X70300Y68080D01*
X70215Y68107D01*
X70130Y68132D01*
X70044Y68152D01*
X69957Y68169D01*
X69869Y68182D01*
X69781Y68191D01*
X69693Y68197D01*
X69604Y68199D01*
X66472Y68199D01*
X61939Y68199D02*
X61939Y58801D01*
X56718Y58801D02*
X61939Y68199D01*
X56718Y68199D02*
X56718Y58801D01*
X52186Y58801D02*
X52186Y68199D01*
X49575Y68199D01*
X49475Y68197D01*
X49375Y68191D01*
X49276Y68182D01*
X49176Y68168D01*
X49078Y68151D01*
X48980Y68130D01*
X48883Y68106D01*
X48787Y68077D01*
X48692Y68045D01*
X48599Y68010D01*
X48507Y67971D01*
X48416Y67928D01*
X48328Y67882D01*
X48241Y67832D01*
X48156Y67780D01*
X48073Y67724D01*
X47992Y67665D01*
X47914Y67602D01*
X47838Y67537D01*
X47764Y67469D01*
X47694Y67399D01*
X47626Y67325D01*
X47561Y67249D01*
X47498Y67171D01*
X47439Y67090D01*
X47383Y67007D01*
X47331Y66922D01*
X47281Y66835D01*
X47235Y66747D01*
X47192Y66656D01*
X47153Y66564D01*
X47118Y66471D01*
X47086Y66376D01*
X47057Y66280D01*
X47033Y66183D01*
X47012Y66085D01*
X46995Y65987D01*
X46981Y65887D01*
X46972Y65788D01*
X46966Y65688D01*
X46964Y65588D01*
X46965Y65588D02*
X46965Y61412D01*
X46964Y61412D02*
X46966Y61312D01*
X46972Y61212D01*
X46981Y61113D01*
X46995Y61013D01*
X47012Y60915D01*
X47033Y60817D01*
X47057Y60720D01*
X47086Y60624D01*
X47118Y60529D01*
X47153Y60436D01*
X47192Y60344D01*
X47235Y60253D01*
X47281Y60165D01*
X47331Y60078D01*
X47383Y59993D01*
X47439Y59910D01*
X47498Y59829D01*
X47561Y59751D01*
X47626Y59675D01*
X47694Y59601D01*
X47764Y59531D01*
X47838Y59463D01*
X47914Y59398D01*
X47992Y59335D01*
X48073Y59276D01*
X48156Y59220D01*
X48241Y59168D01*
X48328Y59118D01*
X48416Y59072D01*
X48507Y59029D01*
X48599Y58990D01*
X48692Y58955D01*
X48787Y58923D01*
X48883Y58894D01*
X48980Y58870D01*
X49078Y58849D01*
X49176Y58832D01*
X49276Y58818D01*
X49375Y58809D01*
X49475Y58803D01*
X49575Y58801D01*
X52186Y58801D01*
X37860Y61412D02*
X37860Y65588D01*
X37861Y65588D02*
X37859Y65689D01*
X37853Y65790D01*
X37843Y65891D01*
X37830Y65991D01*
X37812Y66091D01*
X37791Y66190D01*
X37765Y66288D01*
X37736Y66385D01*
X37704Y66481D01*
X37667Y66575D01*
X37627Y66668D01*
X37583Y66760D01*
X37536Y66849D01*
X37485Y66937D01*
X37431Y67023D01*
X37374Y67106D01*
X37314Y67188D01*
X37250Y67266D01*
X37184Y67343D01*
X37114Y67416D01*
X37042Y67487D01*
X36967Y67555D01*
X36889Y67620D01*
X36809Y67682D01*
X36727Y67741D01*
X36642Y67797D01*
X36556Y67849D01*
X36467Y67898D01*
X36376Y67944D01*
X36284Y67985D01*
X36190Y68024D01*
X36095Y68058D01*
X35999Y68089D01*
X35901Y68116D01*
X35803Y68140D01*
X35703Y68159D01*
X35603Y68175D01*
X35503Y68187D01*
X35402Y68195D01*
X35301Y68199D01*
X35199Y68199D01*
X35098Y68195D01*
X34997Y68187D01*
X34897Y68175D01*
X34797Y68159D01*
X34697Y68140D01*
X34599Y68116D01*
X34501Y68089D01*
X34405Y68058D01*
X34310Y68024D01*
X34216Y67985D01*
X34124Y67944D01*
X34033Y67898D01*
X33945Y67849D01*
X33858Y67797D01*
X33773Y67741D01*
X33691Y67682D01*
X33611Y67620D01*
X33533Y67555D01*
X33458Y67487D01*
X33386Y67416D01*
X33316Y67343D01*
X33250Y67266D01*
X33186Y67188D01*
X33126Y67106D01*
X33069Y67023D01*
X33015Y66937D01*
X32964Y66849D01*
X32917Y66760D01*
X32873Y66668D01*
X32833Y66575D01*
X32796Y66481D01*
X32764Y66385D01*
X32735Y66288D01*
X32709Y66190D01*
X32688Y66091D01*
X32670Y65991D01*
X32657Y65891D01*
X32647Y65790D01*
X32641Y65689D01*
X32639Y65588D01*
X32639Y61412D01*
X32641Y61311D01*
X32647Y61210D01*
X32657Y61109D01*
X32670Y61009D01*
X32688Y60909D01*
X32709Y60810D01*
X32735Y60712D01*
X32764Y60615D01*
X32796Y60519D01*
X32833Y60425D01*
X32873Y60332D01*
X32917Y60240D01*
X32964Y60151D01*
X33015Y60063D01*
X33069Y59977D01*
X33126Y59894D01*
X33186Y59812D01*
X33250Y59734D01*
X33316Y59657D01*
X33386Y59584D01*
X33458Y59513D01*
X33533Y59445D01*
X33611Y59380D01*
X33691Y59318D01*
X33773Y59259D01*
X33858Y59203D01*
X33944Y59151D01*
X34033Y59102D01*
X34124Y59056D01*
X34216Y59015D01*
X34310Y58976D01*
X34405Y58942D01*
X34501Y58911D01*
X34599Y58884D01*
X34697Y58860D01*
X34797Y58841D01*
X34897Y58825D01*
X34997Y58813D01*
X35098Y58805D01*
X35199Y58801D01*
X35301Y58801D01*
X35402Y58805D01*
X35503Y58813D01*
X35603Y58825D01*
X35703Y58841D01*
X35803Y58860D01*
X35901Y58884D01*
X35999Y58911D01*
X36095Y58942D01*
X36190Y58976D01*
X36284Y59015D01*
X36376Y59056D01*
X36467Y59102D01*
X36555Y59151D01*
X36642Y59203D01*
X36727Y59259D01*
X36809Y59318D01*
X36889Y59380D01*
X36967Y59445D01*
X37042Y59513D01*
X37114Y59584D01*
X37184Y59657D01*
X37250Y59734D01*
X37314Y59812D01*
X37374Y59894D01*
X37431Y59977D01*
X37485Y60063D01*
X37536Y60151D01*
X37583Y60240D01*
X37627Y60332D01*
X37667Y60425D01*
X37704Y60519D01*
X37736Y60615D01*
X37765Y60712D01*
X37791Y60810D01*
X37812Y60909D01*
X37830Y61009D01*
X37843Y61109D01*
X37853Y61210D01*
X37859Y61311D01*
X37861Y61412D01*
X28411Y61412D02*
X28411Y68199D01*
X28412Y61412D02*
X28410Y61311D01*
X28404Y61210D01*
X28394Y61109D01*
X28381Y61009D01*
X28363Y60909D01*
X28342Y60810D01*
X28316Y60712D01*
X28287Y60615D01*
X28255Y60519D01*
X28218Y60425D01*
X28178Y60332D01*
X28134Y60240D01*
X28087Y60151D01*
X28036Y60063D01*
X27982Y59977D01*
X27925Y59894D01*
X27865Y59812D01*
X27801Y59734D01*
X27735Y59657D01*
X27665Y59584D01*
X27593Y59513D01*
X27518Y59445D01*
X27440Y59380D01*
X27360Y59318D01*
X27278Y59259D01*
X27193Y59203D01*
X27106Y59151D01*
X27018Y59102D01*
X26927Y59056D01*
X26835Y59015D01*
X26741Y58976D01*
X26646Y58942D01*
X26550Y58911D01*
X26452Y58884D01*
X26354Y58860D01*
X26254Y58841D01*
X26154Y58825D01*
X26054Y58813D01*
X25953Y58805D01*
X25852Y58801D01*
X25750Y58801D01*
X25649Y58805D01*
X25548Y58813D01*
X25448Y58825D01*
X25348Y58841D01*
X25248Y58860D01*
X25150Y58884D01*
X25052Y58911D01*
X24956Y58942D01*
X24861Y58976D01*
X24767Y59015D01*
X24675Y59056D01*
X24584Y59102D01*
X24495Y59151D01*
X24409Y59203D01*
X24324Y59259D01*
X24242Y59318D01*
X24162Y59380D01*
X24084Y59445D01*
X24009Y59513D01*
X23937Y59584D01*
X23867Y59657D01*
X23801Y59734D01*
X23737Y59812D01*
X23677Y59894D01*
X23620Y59977D01*
X23566Y60063D01*
X23515Y60151D01*
X23468Y60240D01*
X23424Y60332D01*
X23384Y60425D01*
X23347Y60519D01*
X23315Y60615D01*
X23286Y60712D01*
X23260Y60810D01*
X23239Y60909D01*
X23221Y61009D01*
X23208Y61109D01*
X23198Y61210D01*
X23192Y61311D01*
X23190Y61412D01*
X23190Y68199D01*
X16962Y68199D02*
X16962Y58801D01*
X19572Y68199D02*
X14351Y68199D01*
M02*
