M48
;GenerationSoftware,Autodesk,EAGLE,9.6.2*%
;CreationDate,2023-09-16T18:35:26Z*%
FMAT,2
ICI,OFF
METRIC,TZ,000.000
T4C0.350
T3C0.770
T2C0.813
T1C1.016
%
G90
M71
T1
X38862Y26543
X38862Y29083
X14605Y24130
X14605Y26670
X38862Y24003
X38862Y21463
T2
X36449Y19558
X29337Y32131
X24257Y32131
X34290Y32131
X21971Y32004
X19431Y32004
X27178Y16256
X27178Y18796
X31750Y32131
X19939Y19431
X25019Y19431
X25019Y17399
X19939Y17399
X25019Y15240
X19939Y15240
X29718Y14478
X29718Y19558
X36449Y15494
X31369Y15494
X31369Y17526
X36449Y17526
X31369Y19558
T3
X29210Y21430
X19050Y21430
X21590Y21430
X24130Y21430
X26670Y21430
X31750Y21430
X34290Y21430
X34290Y29370
X31750Y29370
X29210Y29370
X21590Y29370
X24130Y29370
X26670Y29370
X19050Y29370
T4
X38862Y18288
M30