G04 EAGLE Gerber RS-274X export*
G75*
%MOMM*%
%FSLAX34Y34*%
%LPD*%
%INBottom Copper*%
%IPPOS*%
%AMOC8*
5,1,8,0,0,1.08239X$1,22.5*%
G01*
%ADD10C,1.524000*%
%ADD11P,2.763017X8X112.500000*%
%ADD12C,8.000000*%
%ADD13P,2.763017X8X22.500000*%
%ADD14C,0.756400*%
%ADD15C,0.152400*%
%ADD16C,0.254000*%

G36*
X316338Y206550D02*
X316338Y206550D01*
X316481Y206563D01*
X316496Y206569D01*
X316513Y206571D01*
X316646Y206622D01*
X316780Y206671D01*
X316794Y206680D01*
X316809Y206686D01*
X316925Y206769D01*
X317043Y206849D01*
X317054Y206862D01*
X317068Y206871D01*
X317159Y206981D01*
X317254Y207088D01*
X317261Y207103D01*
X317272Y207115D01*
X317333Y207244D01*
X317398Y207371D01*
X317402Y207387D01*
X317409Y207402D01*
X317437Y207542D01*
X317468Y207681D01*
X317467Y207698D01*
X317471Y207714D01*
X317463Y207856D01*
X317458Y207999D01*
X317454Y208015D01*
X317453Y208032D01*
X317410Y208167D01*
X317370Y208305D01*
X317361Y208319D01*
X317356Y208335D01*
X317281Y208455D01*
X317208Y208579D01*
X317193Y208596D01*
X317188Y208604D01*
X317174Y208617D01*
X317102Y208699D01*
X316351Y209450D01*
X314959Y212811D01*
X314959Y216449D01*
X316351Y219810D01*
X318924Y222383D01*
X322285Y223775D01*
X330708Y223775D01*
X330826Y223790D01*
X330945Y223797D01*
X330983Y223810D01*
X331024Y223815D01*
X331134Y223858D01*
X331247Y223895D01*
X331282Y223917D01*
X331319Y223932D01*
X331415Y224001D01*
X331516Y224065D01*
X331544Y224095D01*
X331577Y224118D01*
X331653Y224210D01*
X331734Y224297D01*
X331754Y224332D01*
X331779Y224363D01*
X331830Y224471D01*
X331888Y224575D01*
X331898Y224615D01*
X331915Y224651D01*
X331937Y224768D01*
X331967Y224883D01*
X331971Y224943D01*
X331975Y224963D01*
X331973Y224984D01*
X331977Y225044D01*
X331977Y238760D01*
X331962Y238878D01*
X331955Y238997D01*
X331942Y239035D01*
X331937Y239075D01*
X331894Y239186D01*
X331857Y239299D01*
X331835Y239333D01*
X331820Y239371D01*
X331751Y239467D01*
X331723Y239511D01*
X331723Y240541D01*
X331734Y240553D01*
X331754Y240588D01*
X331779Y240620D01*
X331830Y240727D01*
X331888Y240832D01*
X331898Y240871D01*
X331915Y240907D01*
X331937Y241024D01*
X331967Y241139D01*
X331971Y241200D01*
X331975Y241220D01*
X331973Y241240D01*
X331977Y241300D01*
X331977Y255016D01*
X331962Y255134D01*
X331955Y255253D01*
X331942Y255291D01*
X331937Y255332D01*
X331894Y255442D01*
X331857Y255555D01*
X331835Y255590D01*
X331820Y255627D01*
X331751Y255723D01*
X331687Y255824D01*
X331657Y255852D01*
X331634Y255885D01*
X331542Y255961D01*
X331455Y256042D01*
X331420Y256062D01*
X331389Y256087D01*
X331281Y256138D01*
X331177Y256196D01*
X331137Y256206D01*
X331101Y256223D01*
X330984Y256245D01*
X330869Y256275D01*
X330809Y256279D01*
X330789Y256283D01*
X330768Y256281D01*
X330708Y256285D01*
X322285Y256285D01*
X318924Y257677D01*
X316351Y260250D01*
X314959Y263611D01*
X314959Y267249D01*
X316351Y270610D01*
X318924Y273183D01*
X322285Y274575D01*
X330708Y274575D01*
X330826Y274590D01*
X330945Y274597D01*
X330983Y274610D01*
X331024Y274615D01*
X331134Y274658D01*
X331247Y274695D01*
X331282Y274717D01*
X331319Y274732D01*
X331415Y274801D01*
X331516Y274865D01*
X331544Y274895D01*
X331577Y274918D01*
X331653Y275010D01*
X331734Y275097D01*
X331754Y275132D01*
X331779Y275163D01*
X331830Y275271D01*
X331888Y275375D01*
X331898Y275415D01*
X331915Y275451D01*
X331937Y275568D01*
X331967Y275683D01*
X331971Y275743D01*
X331975Y275763D01*
X331973Y275784D01*
X331977Y275844D01*
X331977Y280416D01*
X331962Y280534D01*
X331955Y280653D01*
X331942Y280691D01*
X331937Y280732D01*
X331894Y280842D01*
X331857Y280955D01*
X331835Y280990D01*
X331820Y281027D01*
X331751Y281123D01*
X331687Y281224D01*
X331657Y281252D01*
X331634Y281285D01*
X331542Y281361D01*
X331455Y281442D01*
X331420Y281462D01*
X331389Y281487D01*
X331281Y281538D01*
X331177Y281596D01*
X331137Y281606D01*
X331101Y281623D01*
X330984Y281645D01*
X330869Y281675D01*
X330809Y281679D01*
X330789Y281683D01*
X330768Y281681D01*
X330708Y281685D01*
X322285Y281685D01*
X318924Y283077D01*
X316351Y285650D01*
X315688Y287252D01*
X315673Y287277D01*
X315664Y287305D01*
X315595Y287415D01*
X315530Y287528D01*
X315510Y287549D01*
X315494Y287574D01*
X315399Y287663D01*
X315309Y287756D01*
X315284Y287772D01*
X315262Y287792D01*
X315149Y287855D01*
X315038Y287923D01*
X315010Y287931D01*
X314984Y287946D01*
X314858Y287978D01*
X314734Y288016D01*
X314705Y288018D01*
X314676Y288025D01*
X314515Y288035D01*
X306483Y288035D01*
X306385Y288023D01*
X306286Y288020D01*
X306228Y288003D01*
X306168Y287995D01*
X306076Y287959D01*
X305981Y287931D01*
X305928Y287901D01*
X305872Y287878D01*
X305792Y287820D01*
X305707Y287770D01*
X305631Y287704D01*
X305615Y287692D01*
X305607Y287682D01*
X305586Y287664D01*
X295494Y277572D01*
X295433Y277493D01*
X295365Y277421D01*
X295336Y277368D01*
X295299Y277320D01*
X295260Y277229D01*
X295212Y277143D01*
X295197Y277084D01*
X295173Y277029D01*
X295157Y276931D01*
X295132Y276835D01*
X295126Y276735D01*
X295123Y276714D01*
X295124Y276702D01*
X295122Y276674D01*
X295122Y254592D01*
X289116Y248586D01*
X289055Y248508D01*
X288987Y248436D01*
X288958Y248383D01*
X288921Y248335D01*
X288882Y248244D01*
X288834Y248157D01*
X288819Y248099D01*
X288795Y248043D01*
X288779Y247945D01*
X288754Y247849D01*
X288748Y247749D01*
X288745Y247729D01*
X288746Y247717D01*
X288744Y247689D01*
X288744Y245804D01*
X287936Y243854D01*
X286444Y242361D01*
X284493Y241553D01*
X282382Y241553D01*
X281074Y242095D01*
X280959Y242126D01*
X280847Y242165D01*
X280806Y242168D01*
X280767Y242179D01*
X280648Y242181D01*
X280530Y242190D01*
X280490Y242183D01*
X280449Y242184D01*
X280334Y242156D01*
X280216Y242136D01*
X280179Y242119D01*
X280140Y242110D01*
X280035Y242054D01*
X279926Y242005D01*
X279895Y241980D01*
X279859Y241961D01*
X279771Y241881D01*
X279678Y241807D01*
X279654Y241774D01*
X279624Y241747D01*
X279558Y241648D01*
X279487Y241553D01*
X279460Y241499D01*
X279449Y241481D01*
X279442Y241462D01*
X279416Y241408D01*
X279073Y240580D01*
X277580Y239087D01*
X275630Y238279D01*
X273518Y238279D01*
X271568Y239087D01*
X270075Y240580D01*
X269267Y242530D01*
X269267Y244415D01*
X269255Y244513D01*
X269252Y244612D01*
X269235Y244670D01*
X269227Y244730D01*
X269191Y244822D01*
X269163Y244917D01*
X269133Y244970D01*
X269110Y245026D01*
X269052Y245106D01*
X269002Y245191D01*
X268936Y245267D01*
X268924Y245283D01*
X268914Y245291D01*
X268896Y245312D01*
X262358Y251850D01*
X262280Y251910D01*
X262208Y251978D01*
X262155Y252007D01*
X262107Y252044D01*
X262016Y252084D01*
X261929Y252132D01*
X261871Y252147D01*
X261815Y252171D01*
X261717Y252186D01*
X261621Y252211D01*
X261521Y252217D01*
X261501Y252221D01*
X261489Y252219D01*
X261461Y252221D01*
X257080Y252221D01*
X257011Y252213D01*
X256941Y252214D01*
X256854Y252193D01*
X256764Y252181D01*
X256700Y252156D01*
X256632Y252139D01*
X256552Y252097D01*
X256469Y252064D01*
X256412Y252023D01*
X256351Y251991D01*
X256284Y251930D01*
X256211Y251878D01*
X256167Y251824D01*
X256115Y251777D01*
X256066Y251702D01*
X256009Y251633D01*
X255979Y251569D01*
X255940Y251511D01*
X255911Y251426D01*
X255873Y251345D01*
X255860Y251276D01*
X255837Y251210D01*
X255830Y251121D01*
X255813Y251033D01*
X255818Y250963D01*
X255812Y250893D01*
X255827Y250805D01*
X255833Y250715D01*
X255855Y250649D01*
X255866Y250580D01*
X255903Y250498D01*
X255931Y250413D01*
X255968Y250354D01*
X255997Y250290D01*
X256053Y250220D01*
X256101Y250144D01*
X256152Y250096D01*
X256196Y250042D01*
X256267Y249987D01*
X256333Y249926D01*
X256394Y249892D01*
X256450Y249850D01*
X256594Y249779D01*
X257006Y249609D01*
X258499Y248116D01*
X259307Y246166D01*
X259307Y244054D01*
X258499Y242104D01*
X257006Y240611D01*
X255056Y239803D01*
X252944Y239803D01*
X250994Y240611D01*
X249662Y241944D01*
X249583Y242004D01*
X249511Y242072D01*
X249458Y242101D01*
X249410Y242138D01*
X249320Y242178D01*
X249233Y242226D01*
X249174Y242241D01*
X249119Y242265D01*
X249021Y242280D01*
X248925Y242305D01*
X248825Y242311D01*
X248804Y242315D01*
X248792Y242313D01*
X248764Y242315D01*
X234093Y242315D01*
X233995Y242303D01*
X233896Y242300D01*
X233838Y242283D01*
X233778Y242275D01*
X233686Y242239D01*
X233591Y242211D01*
X233538Y242181D01*
X233482Y242158D01*
X233402Y242100D01*
X233317Y242050D01*
X233241Y241984D01*
X233225Y241972D01*
X233217Y241962D01*
X233196Y241944D01*
X207795Y216543D01*
X207722Y216448D01*
X207643Y216359D01*
X207625Y216323D01*
X207600Y216291D01*
X207553Y216182D01*
X207499Y216076D01*
X207490Y216037D01*
X207474Y216000D01*
X207455Y215882D01*
X207429Y215766D01*
X207430Y215725D01*
X207424Y215685D01*
X207435Y215567D01*
X207439Y215448D01*
X207450Y215409D01*
X207454Y215369D01*
X207494Y215257D01*
X207527Y215142D01*
X207548Y215108D01*
X207561Y215070D01*
X207628Y214971D01*
X207689Y214868D01*
X207728Y214823D01*
X207740Y214806D01*
X207755Y214793D01*
X207795Y214748D01*
X209106Y213436D01*
X209106Y208420D01*
X209121Y208306D01*
X209127Y208190D01*
X209141Y208148D01*
X209146Y208104D01*
X209189Y207997D01*
X209223Y207887D01*
X209247Y207850D01*
X209263Y207809D01*
X209331Y207715D01*
X209392Y207618D01*
X209424Y207587D01*
X209450Y207551D01*
X209539Y207478D01*
X209622Y207398D01*
X209661Y207377D01*
X209695Y207349D01*
X209799Y207300D01*
X209900Y207243D01*
X209943Y207232D01*
X209983Y207213D01*
X210096Y207191D01*
X210207Y207162D01*
X210274Y207157D01*
X210295Y207153D01*
X210314Y207154D01*
X210368Y207151D01*
X316197Y206533D01*
X316338Y206550D01*
G37*
%LPC*%
G36*
X314245Y242569D02*
X314245Y242569D01*
X314688Y243930D01*
X315414Y245355D01*
X316354Y246649D01*
X317485Y247780D01*
X318779Y248720D01*
X320204Y249446D01*
X321725Y249941D01*
X323304Y250191D01*
X329185Y250191D01*
X329185Y242569D01*
X314245Y242569D01*
G37*
%LPD*%
%LPC*%
G36*
X323304Y229869D02*
X323304Y229869D01*
X321725Y230119D01*
X320204Y230614D01*
X318779Y231340D01*
X317485Y232280D01*
X316354Y233411D01*
X315414Y234705D01*
X314688Y236130D01*
X314245Y237491D01*
X329185Y237491D01*
X329185Y229869D01*
X323304Y229869D01*
G37*
%LPD*%
D10*
X324104Y290830D02*
X339344Y290830D01*
X339344Y265430D02*
X324104Y265430D01*
X324104Y240030D02*
X339344Y240030D01*
X339344Y214630D02*
X324104Y214630D01*
D11*
X194818Y207518D03*
D12*
X137414Y255524D03*
D13*
X194310Y297942D03*
D14*
X297434Y244122D03*
D15*
X327632Y244122D01*
X331724Y240030D01*
D14*
X254000Y245110D03*
D16*
X232410Y245110D02*
X194818Y207518D01*
X232410Y245110D02*
X254000Y245110D01*
D14*
X274574Y243586D03*
D16*
X263144Y255016D01*
X137922Y255016D02*
X137414Y255524D01*
X137922Y255016D02*
X263144Y255016D01*
D14*
X283438Y246860D03*
D16*
X304800Y290830D02*
X331724Y290830D01*
X292328Y278358D02*
X292328Y255750D01*
X283438Y246860D01*
X292328Y278358D02*
X304800Y290830D01*
X229235Y263017D02*
X194310Y297942D01*
X229235Y263017D02*
X260477Y263017D01*
D14*
X260477Y263017D03*
M02*
