G04 EAGLE Gerber RS-274X export*
G75*
%MOMM*%
%FSLAX34Y34*%
%LPD*%
%INSoldermask Top*%
%IPPOS*%
%AMOC8*
5,1,8,0,0,1.08239X$1,22.5*%
G01*
%ADD10C,0.506016*%
%ADD11R,0.803200X0.903200*%
%ADD12R,0.903200X0.803200*%
%ADD13R,0.903200X1.103200*%
%ADD14C,1.727200*%
%ADD15P,2.982959X8X112.500000*%
%ADD16C,8.203200*%
%ADD17P,2.982959X8X22.500000*%
%ADD18C,0.959600*%


D10*
X230086Y237586D02*
X230086Y220914D01*
X227114Y220914D01*
X227114Y237586D01*
X230086Y237586D01*
X230086Y225721D02*
X227114Y225721D01*
X227114Y230528D02*
X230086Y230528D01*
X230086Y235335D02*
X227114Y235335D01*
X242786Y237586D02*
X242786Y220914D01*
X239814Y220914D01*
X239814Y237586D01*
X242786Y237586D01*
X242786Y225721D02*
X239814Y225721D01*
X239814Y230528D02*
X242786Y230528D01*
X242786Y235335D02*
X239814Y235335D01*
X255486Y237586D02*
X255486Y220914D01*
X252514Y220914D01*
X252514Y237586D01*
X255486Y237586D01*
X255486Y225721D02*
X252514Y225721D01*
X252514Y230528D02*
X255486Y230528D01*
X255486Y235335D02*
X252514Y235335D01*
X268186Y237586D02*
X268186Y220914D01*
X265214Y220914D01*
X265214Y237586D01*
X268186Y237586D01*
X268186Y225721D02*
X265214Y225721D01*
X265214Y230528D02*
X268186Y230528D01*
X268186Y235335D02*
X265214Y235335D01*
X280886Y237586D02*
X280886Y220914D01*
X277914Y220914D01*
X277914Y237586D01*
X280886Y237586D01*
X280886Y225721D02*
X277914Y225721D01*
X277914Y230528D02*
X280886Y230528D01*
X280886Y235335D02*
X277914Y235335D01*
X293586Y237586D02*
X293586Y220914D01*
X290614Y220914D01*
X290614Y237586D01*
X293586Y237586D01*
X293586Y225721D02*
X290614Y225721D01*
X290614Y230528D02*
X293586Y230528D01*
X293586Y235335D02*
X290614Y235335D01*
X306286Y237586D02*
X306286Y220914D01*
X303314Y220914D01*
X303314Y237586D01*
X306286Y237586D01*
X306286Y225721D02*
X303314Y225721D01*
X303314Y230528D02*
X306286Y230528D01*
X306286Y235335D02*
X303314Y235335D01*
X306286Y270414D02*
X306286Y287086D01*
X306286Y270414D02*
X303314Y270414D01*
X303314Y287086D01*
X306286Y287086D01*
X306286Y275221D02*
X303314Y275221D01*
X303314Y280028D02*
X306286Y280028D01*
X306286Y284835D02*
X303314Y284835D01*
X293586Y287086D02*
X293586Y270414D01*
X290614Y270414D01*
X290614Y287086D01*
X293586Y287086D01*
X293586Y275221D02*
X290614Y275221D01*
X290614Y280028D02*
X293586Y280028D01*
X293586Y284835D02*
X290614Y284835D01*
X280886Y287086D02*
X280886Y270414D01*
X277914Y270414D01*
X277914Y287086D01*
X280886Y287086D01*
X280886Y275221D02*
X277914Y275221D01*
X277914Y280028D02*
X280886Y280028D01*
X280886Y284835D02*
X277914Y284835D01*
X268186Y287086D02*
X268186Y270414D01*
X265214Y270414D01*
X265214Y287086D01*
X268186Y287086D01*
X268186Y275221D02*
X265214Y275221D01*
X265214Y280028D02*
X268186Y280028D01*
X268186Y284835D02*
X265214Y284835D01*
X255486Y287086D02*
X255486Y270414D01*
X252514Y270414D01*
X252514Y287086D01*
X255486Y287086D01*
X255486Y275221D02*
X252514Y275221D01*
X252514Y280028D02*
X255486Y280028D01*
X255486Y284835D02*
X252514Y284835D01*
X242786Y287086D02*
X242786Y270414D01*
X239814Y270414D01*
X239814Y287086D01*
X242786Y287086D01*
X242786Y275221D02*
X239814Y275221D01*
X239814Y280028D02*
X242786Y280028D01*
X242786Y284835D02*
X239814Y284835D01*
X230086Y287086D02*
X230086Y270414D01*
X227114Y270414D01*
X227114Y287086D01*
X230086Y287086D01*
X230086Y275221D02*
X227114Y275221D01*
X227114Y280028D02*
X230086Y280028D01*
X230086Y284835D02*
X227114Y284835D01*
D11*
X214296Y233426D03*
X204296Y233426D03*
X252650Y210820D03*
X242650Y210820D03*
X228266Y210566D03*
X218266Y210566D03*
X204042Y244094D03*
X214042Y244094D03*
X282020Y297180D03*
X292020Y297180D03*
X257890Y297180D03*
X267890Y297180D03*
X214042Y254508D03*
X204042Y254508D03*
D12*
X215646Y297862D03*
X215646Y287862D03*
D13*
X201526Y265684D03*
X214526Y265684D03*
X242720Y296672D03*
X229720Y296672D03*
X279550Y210820D03*
X266550Y210820D03*
D14*
X324104Y290830D02*
X339344Y290830D01*
X339344Y265430D02*
X324104Y265430D01*
X324104Y240030D02*
X339344Y240030D01*
X339344Y214630D02*
X324104Y214630D01*
D15*
X194818Y207518D03*
D16*
X137414Y255524D03*
D17*
X194310Y297942D03*
D18*
X297434Y244122D03*
X254000Y245110D03*
X274574Y243586D03*
X283438Y246860D03*
X260477Y263017D03*
M02*
