G04 EAGLE Gerber RS-274X export*
G75*
%MOMM*%
%FSLAX34Y34*%
%LPD*%
%INBottom Copper*%
%IPPOS*%
%AMOC8*
5,1,8,0,0,1.08239X$1,22.5*%
G01*
%ADD10R,1.278000X1.278000*%
%ADD11C,1.278000*%
%ADD12P,1.429621X8X22.500000*%
%ADD13P,1.429621X8X202.500000*%
%ADD14P,1.429621X8X112.500000*%
%ADD15P,1.732040X8X202.500000*%
%ADD16P,1.732040X8X112.500000*%
%ADD17C,1.524000*%
%ADD18C,0.254000*%
%ADD19C,0.756400*%

G36*
X289107Y138448D02*
X289107Y138448D01*
X289246Y138461D01*
X289265Y138468D01*
X289285Y138471D01*
X289414Y138522D01*
X289545Y138569D01*
X289562Y138580D01*
X289581Y138588D01*
X289693Y138669D01*
X289808Y138747D01*
X289821Y138763D01*
X289838Y138774D01*
X289927Y138882D01*
X290019Y138986D01*
X290028Y139004D01*
X290041Y139019D01*
X290100Y139145D01*
X290163Y139269D01*
X290168Y139289D01*
X290176Y139307D01*
X290202Y139444D01*
X290233Y139579D01*
X290232Y139600D01*
X290236Y139619D01*
X290227Y139758D01*
X290223Y139897D01*
X290217Y139917D01*
X290216Y139937D01*
X290174Y140069D01*
X290135Y140203D01*
X290124Y140220D01*
X290118Y140239D01*
X290044Y140357D01*
X289973Y140477D01*
X289955Y140498D01*
X289948Y140508D01*
X289933Y140522D01*
X289867Y140597D01*
X289051Y141413D01*
X289051Y148147D01*
X293813Y152909D01*
X300547Y152909D01*
X302379Y151077D01*
X302488Y150992D01*
X302595Y150903D01*
X302614Y150895D01*
X302630Y150882D01*
X302758Y150827D01*
X302883Y150768D01*
X302903Y150764D01*
X302922Y150756D01*
X303060Y150734D01*
X303196Y150708D01*
X303216Y150709D01*
X303236Y150706D01*
X303375Y150719D01*
X303513Y150728D01*
X303532Y150734D01*
X303552Y150736D01*
X303684Y150783D01*
X303815Y150826D01*
X303833Y150837D01*
X303852Y150843D01*
X303967Y150922D01*
X304084Y150996D01*
X304098Y151011D01*
X304115Y151022D01*
X304207Y151126D01*
X304302Y151228D01*
X304312Y151245D01*
X304325Y151260D01*
X304389Y151385D01*
X304456Y151506D01*
X304461Y151526D01*
X304470Y151544D01*
X304500Y151680D01*
X304535Y151814D01*
X304537Y151842D01*
X304540Y151854D01*
X304539Y151875D01*
X304545Y151975D01*
X304545Y152909D01*
X311659Y152909D01*
X311659Y145795D01*
X309902Y145795D01*
X307475Y148222D01*
X307394Y148285D01*
X307334Y148342D01*
X307304Y148358D01*
X307259Y148396D01*
X307240Y148404D01*
X307224Y148417D01*
X307099Y148471D01*
X307056Y148495D01*
X307039Y148499D01*
X306971Y148531D01*
X306951Y148535D01*
X306932Y148543D01*
X306794Y148565D01*
X306754Y148573D01*
X306748Y148575D01*
X306744Y148575D01*
X306658Y148591D01*
X306638Y148590D01*
X306618Y148593D01*
X306479Y148580D01*
X306341Y148571D01*
X306322Y148565D01*
X306302Y148563D01*
X306170Y148516D01*
X306039Y148473D01*
X306021Y148463D01*
X306002Y148456D01*
X305887Y148378D01*
X305770Y148303D01*
X305756Y148288D01*
X305739Y148277D01*
X305647Y148173D01*
X305552Y148072D01*
X305542Y148054D01*
X305529Y148039D01*
X305508Y147997D01*
X305507Y147996D01*
X305502Y147987D01*
X305465Y147915D01*
X305398Y147793D01*
X305393Y147774D01*
X305384Y147755D01*
X305376Y147718D01*
X305371Y147708D01*
X305357Y147633D01*
X305354Y147620D01*
X305319Y147485D01*
X305317Y147457D01*
X305314Y147445D01*
X305315Y147425D01*
X305314Y147412D01*
X305311Y147396D01*
X305312Y147380D01*
X305309Y147324D01*
X305309Y141413D01*
X304493Y140597D01*
X304408Y140488D01*
X304319Y140381D01*
X304311Y140362D01*
X304298Y140346D01*
X304243Y140219D01*
X304184Y140093D01*
X304180Y140073D01*
X304172Y140054D01*
X304150Y139916D01*
X304124Y139780D01*
X304125Y139760D01*
X304122Y139740D01*
X304135Y139601D01*
X304144Y139463D01*
X304150Y139444D01*
X304152Y139424D01*
X304199Y139292D01*
X304242Y139161D01*
X304253Y139143D01*
X304259Y139124D01*
X304338Y139009D01*
X304412Y138892D01*
X304427Y138878D01*
X304438Y138861D01*
X304542Y138769D01*
X304644Y138674D01*
X304661Y138664D01*
X304676Y138651D01*
X304800Y138588D01*
X304922Y138520D01*
X304942Y138515D01*
X304960Y138506D01*
X305096Y138476D01*
X305230Y138441D01*
X305258Y138439D01*
X305270Y138436D01*
X305291Y138437D01*
X305391Y138431D01*
X391160Y138431D01*
X391181Y138433D01*
X391243Y138433D01*
X393895Y138607D01*
X393939Y138616D01*
X393983Y138616D01*
X394141Y138648D01*
X399265Y140021D01*
X399344Y140053D01*
X399426Y140076D01*
X399549Y140137D01*
X399559Y140141D01*
X399563Y140143D01*
X399571Y140148D01*
X404165Y142800D01*
X404233Y142852D01*
X404307Y142895D01*
X404410Y142986D01*
X404418Y142992D01*
X404421Y142995D01*
X404428Y143002D01*
X408178Y146752D01*
X408231Y146820D01*
X408291Y146881D01*
X408338Y146953D01*
X408352Y146969D01*
X408359Y146983D01*
X408367Y146996D01*
X408373Y147004D01*
X408375Y147008D01*
X408380Y147015D01*
X411032Y151609D01*
X411066Y151688D01*
X411108Y151763D01*
X411152Y151892D01*
X411156Y151902D01*
X411156Y151907D01*
X411159Y151915D01*
X412532Y157039D01*
X412538Y157083D01*
X412552Y157125D01*
X412573Y157285D01*
X412747Y159937D01*
X412745Y159958D01*
X412749Y160020D01*
X412749Y309880D01*
X412747Y309901D01*
X412747Y309963D01*
X412573Y312615D01*
X412564Y312659D01*
X412564Y312703D01*
X412532Y312861D01*
X411159Y317985D01*
X411127Y318064D01*
X411104Y318146D01*
X411043Y318269D01*
X411039Y318279D01*
X411037Y318283D01*
X411032Y318291D01*
X408380Y322885D01*
X408328Y322953D01*
X408285Y323027D01*
X408194Y323130D01*
X408188Y323138D01*
X408185Y323141D01*
X408178Y323148D01*
X404428Y326898D01*
X404360Y326951D01*
X404299Y327011D01*
X404185Y327087D01*
X404176Y327093D01*
X404172Y327095D01*
X404165Y327100D01*
X399571Y329752D01*
X399492Y329786D01*
X399417Y329828D01*
X399288Y329872D01*
X399278Y329876D01*
X399273Y329876D01*
X399265Y329879D01*
X394141Y331252D01*
X394097Y331258D01*
X394055Y331272D01*
X393895Y331293D01*
X391243Y331467D01*
X391222Y331465D01*
X391160Y331469D01*
X349276Y331469D01*
X349139Y331452D01*
X349000Y331439D01*
X348981Y331432D01*
X348961Y331429D01*
X348832Y331378D01*
X348701Y331331D01*
X348684Y331320D01*
X348665Y331312D01*
X348553Y331231D01*
X348438Y331153D01*
X348424Y331137D01*
X348408Y331126D01*
X348319Y331018D01*
X348227Y330914D01*
X348218Y330896D01*
X348205Y330881D01*
X348146Y330755D01*
X348083Y330631D01*
X348078Y330611D01*
X348069Y330593D01*
X348043Y330457D01*
X348013Y330321D01*
X348013Y330300D01*
X348010Y330281D01*
X348018Y330142D01*
X348023Y330003D01*
X348028Y329983D01*
X348029Y329963D01*
X348072Y329831D01*
X348111Y329697D01*
X348121Y329680D01*
X348127Y329661D01*
X348202Y329543D01*
X348272Y329423D01*
X348291Y329402D01*
X348298Y329392D01*
X348313Y329378D01*
X348379Y329303D01*
X352426Y325256D01*
X352426Y317364D01*
X346846Y311784D01*
X338932Y311784D01*
X338855Y311852D01*
X338819Y311871D01*
X338787Y311896D01*
X338677Y311943D01*
X338571Y311997D01*
X338532Y312006D01*
X338495Y312022D01*
X338377Y312041D01*
X338261Y312067D01*
X338221Y312065D01*
X338181Y312072D01*
X338063Y312061D01*
X337943Y312057D01*
X337904Y312046D01*
X337864Y312042D01*
X337752Y312002D01*
X337638Y311969D01*
X337603Y311948D01*
X337565Y311934D01*
X337466Y311868D01*
X337364Y311807D01*
X337319Y311767D01*
X337302Y311756D01*
X337288Y311741D01*
X337243Y311701D01*
X331336Y305794D01*
X263282Y305794D01*
X263184Y305781D01*
X263085Y305778D01*
X263026Y305762D01*
X262966Y305754D01*
X262874Y305718D01*
X262779Y305690D01*
X262727Y305659D01*
X262671Y305637D01*
X262591Y305579D01*
X262505Y305529D01*
X262430Y305462D01*
X262413Y305450D01*
X262406Y305441D01*
X262384Y305422D01*
X259850Y302887D01*
X259828Y302860D01*
X259802Y302837D01*
X259731Y302735D01*
X259655Y302636D01*
X259641Y302604D01*
X259621Y302575D01*
X259578Y302459D01*
X259528Y302344D01*
X259523Y302310D01*
X259511Y302277D01*
X259498Y302153D01*
X259479Y302030D01*
X259482Y301995D01*
X259478Y301960D01*
X259497Y301838D01*
X259508Y301714D01*
X259520Y301681D01*
X259525Y301646D01*
X259574Y301531D01*
X259616Y301414D01*
X259636Y301385D01*
X259649Y301353D01*
X259725Y301254D01*
X259795Y301151D01*
X259821Y301128D01*
X259842Y301100D01*
X259940Y301023D01*
X260033Y300941D01*
X260064Y300925D01*
X260092Y300903D01*
X260205Y300853D01*
X260316Y300796D01*
X260350Y300788D01*
X260382Y300774D01*
X260505Y300754D01*
X260627Y300726D01*
X260661Y300727D01*
X260696Y300722D01*
X260820Y300732D01*
X260944Y300736D01*
X260978Y300746D01*
X261013Y300749D01*
X261131Y300790D01*
X261250Y300824D01*
X261280Y300842D01*
X261313Y300854D01*
X261452Y300935D01*
X262470Y301614D01*
X264095Y302288D01*
X264776Y302423D01*
X264776Y294355D01*
X264791Y294237D01*
X264798Y294118D01*
X264810Y294080D01*
X264816Y294040D01*
X264859Y293929D01*
X264896Y293816D01*
X264918Y293782D01*
X264933Y293744D01*
X264963Y293702D01*
X264923Y293618D01*
X264865Y293513D01*
X264855Y293474D01*
X264838Y293438D01*
X264816Y293321D01*
X264786Y293205D01*
X264782Y293145D01*
X264778Y293125D01*
X264780Y293105D01*
X264776Y293045D01*
X264776Y284977D01*
X264095Y285112D01*
X262470Y285786D01*
X261007Y286763D01*
X259736Y288034D01*
X259707Y288068D01*
X259645Y288152D01*
X259603Y288187D01*
X259567Y288229D01*
X259481Y288288D01*
X259400Y288355D01*
X259351Y288378D01*
X259305Y288410D01*
X259207Y288446D01*
X259113Y288491D01*
X259059Y288501D01*
X259007Y288520D01*
X258903Y288531D01*
X258800Y288550D01*
X258745Y288547D01*
X258691Y288553D01*
X258587Y288537D01*
X258483Y288531D01*
X258431Y288514D01*
X258376Y288505D01*
X258280Y288465D01*
X258180Y288433D01*
X258134Y288403D01*
X258083Y288382D01*
X258000Y288318D01*
X257912Y288262D01*
X257874Y288222D01*
X257830Y288189D01*
X257766Y288107D01*
X257694Y288031D01*
X257667Y287983D01*
X257633Y287939D01*
X257591Y287844D01*
X257540Y287752D01*
X257527Y287699D01*
X257504Y287649D01*
X257487Y287545D01*
X257461Y287444D01*
X257455Y287357D01*
X257452Y287335D01*
X257453Y287320D01*
X257451Y287284D01*
X257451Y284279D01*
X257463Y284181D01*
X257466Y284082D01*
X257483Y284024D01*
X257490Y283964D01*
X257527Y283872D01*
X257554Y283777D01*
X257585Y283724D01*
X257608Y283668D01*
X257666Y283588D01*
X257716Y283503D01*
X257782Y283427D01*
X257794Y283411D01*
X257804Y283403D01*
X257822Y283382D01*
X305628Y235576D01*
X305706Y235516D01*
X305778Y235448D01*
X305831Y235419D01*
X305879Y235382D01*
X305970Y235342D01*
X306057Y235294D01*
X306115Y235279D01*
X306171Y235255D01*
X306269Y235240D01*
X306364Y235215D01*
X306464Y235209D01*
X306485Y235205D01*
X306497Y235207D01*
X306525Y235205D01*
X344058Y235205D01*
X346066Y233196D01*
X362736Y216526D01*
X364745Y214518D01*
X364745Y204978D01*
X364760Y204860D01*
X364767Y204741D01*
X364780Y204703D01*
X364785Y204662D01*
X364828Y204552D01*
X364865Y204439D01*
X364887Y204404D01*
X364902Y204367D01*
X364971Y204271D01*
X365035Y204170D01*
X365065Y204142D01*
X365088Y204109D01*
X365180Y204033D01*
X365267Y203952D01*
X365302Y203932D01*
X365333Y203907D01*
X365441Y203856D01*
X365545Y203798D01*
X365585Y203788D01*
X365621Y203771D01*
X365738Y203749D01*
X365853Y203719D01*
X365913Y203715D01*
X365933Y203711D01*
X365954Y203713D01*
X366014Y203709D01*
X367857Y203709D01*
X372619Y198947D01*
X372619Y192213D01*
X370279Y189873D01*
X370194Y189764D01*
X370105Y189657D01*
X370097Y189638D01*
X370084Y189622D01*
X370029Y189494D01*
X369970Y189369D01*
X369966Y189349D01*
X369958Y189330D01*
X369936Y189192D01*
X369910Y189056D01*
X369911Y189036D01*
X369908Y189016D01*
X369921Y188877D01*
X369930Y188739D01*
X369936Y188720D01*
X369938Y188700D01*
X369985Y188568D01*
X370028Y188437D01*
X370039Y188419D01*
X370045Y188400D01*
X370124Y188285D01*
X370198Y188168D01*
X370213Y188154D01*
X370224Y188137D01*
X370328Y188045D01*
X370430Y187950D01*
X370447Y187940D01*
X370462Y187927D01*
X370587Y187863D01*
X370708Y187796D01*
X370728Y187791D01*
X370746Y187782D01*
X370882Y187752D01*
X371016Y187717D01*
X371044Y187715D01*
X371056Y187712D01*
X371077Y187713D01*
X371177Y187707D01*
X386153Y187707D01*
X386162Y187708D01*
X386172Y187707D01*
X386320Y187728D01*
X386469Y187747D01*
X386477Y187750D01*
X386487Y187751D01*
X386639Y187803D01*
X387564Y188187D01*
X389676Y188187D01*
X391626Y187379D01*
X393119Y185886D01*
X393927Y183936D01*
X393927Y181824D01*
X393119Y179874D01*
X391626Y178381D01*
X389676Y177573D01*
X387564Y177573D01*
X385614Y178381D01*
X384121Y179874D01*
X383517Y181334D01*
X383502Y181359D01*
X383493Y181387D01*
X383423Y181497D01*
X383359Y181610D01*
X383338Y181631D01*
X383323Y181656D01*
X383228Y181745D01*
X383138Y181838D01*
X383113Y181854D01*
X383091Y181874D01*
X382977Y181937D01*
X382867Y182005D01*
X382838Y182013D01*
X382813Y182028D01*
X382687Y182060D01*
X382563Y182098D01*
X382533Y182100D01*
X382505Y182107D01*
X382344Y182117D01*
X372193Y182117D01*
X372055Y182100D01*
X371916Y182087D01*
X371897Y182080D01*
X371877Y182077D01*
X371748Y182026D01*
X371617Y181979D01*
X371600Y181968D01*
X371581Y181960D01*
X371469Y181879D01*
X371354Y181801D01*
X371341Y181785D01*
X371324Y181774D01*
X371235Y181666D01*
X371143Y181562D01*
X371134Y181544D01*
X371121Y181529D01*
X371062Y181403D01*
X370999Y181279D01*
X370994Y181259D01*
X370986Y181241D01*
X370960Y181104D01*
X370929Y180969D01*
X370930Y180948D01*
X370926Y180929D01*
X370935Y180790D01*
X370939Y180651D01*
X370945Y180631D01*
X370946Y180611D01*
X370988Y180479D01*
X371027Y180345D01*
X371038Y180328D01*
X371044Y180309D01*
X371118Y180191D01*
X371189Y180071D01*
X371207Y180050D01*
X371214Y180040D01*
X371229Y180026D01*
X371295Y179951D01*
X372619Y178627D01*
X372619Y171893D01*
X367857Y167131D01*
X361123Y167131D01*
X356361Y171893D01*
X356361Y178627D01*
X357685Y179951D01*
X357770Y180060D01*
X357859Y180167D01*
X357867Y180186D01*
X357880Y180202D01*
X357935Y180330D01*
X357994Y180455D01*
X357998Y180475D01*
X358006Y180494D01*
X358028Y180632D01*
X358054Y180768D01*
X358053Y180788D01*
X358056Y180808D01*
X358043Y180947D01*
X358034Y181085D01*
X358028Y181104D01*
X358026Y181124D01*
X357979Y181256D01*
X357936Y181387D01*
X357925Y181405D01*
X357919Y181424D01*
X357840Y181539D01*
X357766Y181656D01*
X357751Y181670D01*
X357740Y181687D01*
X357636Y181779D01*
X357534Y181874D01*
X357517Y181884D01*
X357502Y181897D01*
X357377Y181961D01*
X357256Y182028D01*
X357236Y182033D01*
X357218Y182042D01*
X357082Y182072D01*
X356948Y182107D01*
X356920Y182109D01*
X356908Y182112D01*
X356887Y182111D01*
X356787Y182117D01*
X322830Y182117D01*
X322692Y182100D01*
X322553Y182087D01*
X322534Y182080D01*
X322514Y182077D01*
X322385Y182026D01*
X322254Y181979D01*
X322237Y181968D01*
X322218Y181960D01*
X322106Y181879D01*
X321991Y181801D01*
X321977Y181785D01*
X321961Y181774D01*
X321872Y181666D01*
X321780Y181562D01*
X321771Y181544D01*
X321758Y181529D01*
X321699Y181403D01*
X321636Y181279D01*
X321631Y181259D01*
X321623Y181241D01*
X321597Y181104D01*
X321566Y180969D01*
X321567Y180948D01*
X321563Y180929D01*
X321571Y180790D01*
X321576Y180651D01*
X321581Y180631D01*
X321583Y180611D01*
X321625Y180479D01*
X321664Y180345D01*
X321674Y180328D01*
X321681Y180309D01*
X321755Y180191D01*
X321826Y180071D01*
X321844Y180050D01*
X321851Y180040D01*
X321866Y180026D01*
X321932Y179951D01*
X322835Y179048D01*
X322835Y177291D01*
X314452Y177291D01*
X314334Y177276D01*
X314215Y177269D01*
X314177Y177256D01*
X314137Y177251D01*
X314026Y177208D01*
X313913Y177171D01*
X313879Y177149D01*
X313841Y177134D01*
X313745Y177065D01*
X313693Y177031D01*
X313675Y177048D01*
X313640Y177068D01*
X313608Y177093D01*
X313501Y177144D01*
X313396Y177202D01*
X313357Y177212D01*
X313321Y177229D01*
X313204Y177251D01*
X313088Y177281D01*
X313028Y177285D01*
X313008Y177289D01*
X312988Y177287D01*
X312928Y177291D01*
X304545Y177291D01*
X304545Y179048D01*
X305448Y179951D01*
X305533Y180060D01*
X305622Y180167D01*
X305631Y180186D01*
X305643Y180202D01*
X305698Y180329D01*
X305757Y180455D01*
X305761Y180475D01*
X305769Y180494D01*
X305791Y180632D01*
X305817Y180768D01*
X305816Y180788D01*
X305819Y180808D01*
X305806Y180947D01*
X305797Y181085D01*
X305791Y181104D01*
X305789Y181124D01*
X305742Y181256D01*
X305699Y181387D01*
X305689Y181405D01*
X305682Y181424D01*
X305604Y181539D01*
X305529Y181656D01*
X305514Y181670D01*
X305503Y181687D01*
X305399Y181779D01*
X305298Y181874D01*
X305280Y181884D01*
X305265Y181897D01*
X305141Y181961D01*
X305019Y182028D01*
X305000Y182033D01*
X304981Y182042D01*
X304846Y182072D01*
X304711Y182107D01*
X304683Y182109D01*
X304671Y182112D01*
X304651Y182111D01*
X304550Y182117D01*
X279934Y182117D01*
X279836Y182105D01*
X279737Y182102D01*
X279679Y182085D01*
X279619Y182077D01*
X279527Y182041D01*
X279432Y182013D01*
X279380Y181983D01*
X279323Y181960D01*
X279243Y181902D01*
X279158Y181852D01*
X279082Y181786D01*
X279066Y181774D01*
X279058Y181764D01*
X279037Y181746D01*
X275726Y178434D01*
X267834Y178434D01*
X262254Y184014D01*
X262254Y191906D01*
X267834Y197486D01*
X271526Y197486D01*
X271644Y197501D01*
X271763Y197508D01*
X271801Y197521D01*
X271842Y197526D01*
X271952Y197569D01*
X272065Y197606D01*
X272100Y197628D01*
X272137Y197643D01*
X272233Y197712D01*
X272334Y197776D01*
X272362Y197806D01*
X272395Y197829D01*
X272471Y197921D01*
X272552Y198008D01*
X272572Y198043D01*
X272597Y198074D01*
X272648Y198182D01*
X272706Y198286D01*
X272716Y198326D01*
X272733Y198362D01*
X272755Y198479D01*
X272785Y198594D01*
X272789Y198654D01*
X272793Y198674D01*
X272791Y198695D01*
X272795Y198755D01*
X272795Y203727D01*
X272783Y203825D01*
X272780Y203924D01*
X272763Y203982D01*
X272755Y204042D01*
X272719Y204134D01*
X272691Y204229D01*
X272661Y204282D01*
X272638Y204338D01*
X272580Y204418D01*
X272530Y204503D01*
X272464Y204579D01*
X272452Y204595D01*
X272442Y204603D01*
X272424Y204624D01*
X270563Y206485D01*
X270539Y206503D01*
X270520Y206526D01*
X270414Y206600D01*
X270311Y206680D01*
X270284Y206692D01*
X270260Y206709D01*
X270139Y206755D01*
X270020Y206806D01*
X269990Y206811D01*
X269963Y206821D01*
X269834Y206836D01*
X269705Y206856D01*
X269676Y206853D01*
X269647Y206857D01*
X269518Y206839D01*
X269389Y206826D01*
X269361Y206816D01*
X269332Y206812D01*
X269179Y206760D01*
X268274Y206385D01*
X265126Y206385D01*
X262217Y207590D01*
X259990Y209817D01*
X258785Y212726D01*
X258785Y215874D01*
X259990Y218783D01*
X262217Y221010D01*
X265126Y222215D01*
X268274Y222215D01*
X271183Y221010D01*
X273410Y218783D01*
X274615Y215874D01*
X274615Y212726D01*
X274240Y211821D01*
X274232Y211792D01*
X274219Y211766D01*
X274190Y211639D01*
X274156Y211514D01*
X274155Y211484D01*
X274149Y211455D01*
X274153Y211326D01*
X274151Y211196D01*
X274158Y211167D01*
X274159Y211138D01*
X274195Y211013D01*
X274225Y210887D01*
X274239Y210860D01*
X274247Y210832D01*
X274313Y210721D01*
X274374Y210605D01*
X274394Y210584D01*
X274409Y210558D01*
X274515Y210437D01*
X276376Y208576D01*
X278385Y206568D01*
X278385Y195352D01*
X278397Y195254D01*
X278400Y195155D01*
X278417Y195097D01*
X278425Y195037D01*
X278461Y194945D01*
X278489Y194850D01*
X278519Y194798D01*
X278542Y194741D01*
X278600Y194661D01*
X278650Y194576D01*
X278716Y194500D01*
X278728Y194484D01*
X278738Y194476D01*
X278756Y194455D01*
X281306Y191906D01*
X281306Y188976D01*
X281321Y188858D01*
X281328Y188739D01*
X281341Y188701D01*
X281346Y188660D01*
X281389Y188550D01*
X281426Y188437D01*
X281448Y188402D01*
X281463Y188365D01*
X281532Y188269D01*
X281596Y188168D01*
X281626Y188140D01*
X281649Y188107D01*
X281741Y188031D01*
X281828Y187950D01*
X281863Y187930D01*
X281894Y187905D01*
X282002Y187854D01*
X282106Y187796D01*
X282146Y187786D01*
X282182Y187769D01*
X282299Y187747D01*
X282414Y187717D01*
X282474Y187713D01*
X282494Y187709D01*
X282515Y187711D01*
X282575Y187707D01*
X290493Y187707D01*
X290631Y187724D01*
X290770Y187737D01*
X290789Y187744D01*
X290809Y187747D01*
X290938Y187798D01*
X291069Y187845D01*
X291086Y187856D01*
X291105Y187864D01*
X291217Y187945D01*
X291332Y188023D01*
X291345Y188039D01*
X291362Y188050D01*
X291451Y188158D01*
X291543Y188262D01*
X291552Y188280D01*
X291565Y188295D01*
X291624Y188421D01*
X291687Y188545D01*
X291692Y188565D01*
X291700Y188583D01*
X291726Y188719D01*
X291757Y188855D01*
X291756Y188876D01*
X291760Y188895D01*
X291751Y189034D01*
X291747Y189173D01*
X291741Y189193D01*
X291740Y189213D01*
X291697Y189345D01*
X291659Y189479D01*
X291648Y189496D01*
X291642Y189515D01*
X291568Y189633D01*
X291497Y189753D01*
X291479Y189774D01*
X291472Y189784D01*
X291457Y189798D01*
X291391Y189873D01*
X289051Y192213D01*
X289051Y198947D01*
X293813Y203709D01*
X300547Y203709D01*
X304538Y199718D01*
X304619Y199655D01*
X304680Y199598D01*
X304694Y199590D01*
X304721Y199566D01*
X304757Y199548D01*
X304789Y199523D01*
X304898Y199476D01*
X304936Y199457D01*
X304958Y199444D01*
X304962Y199443D01*
X305004Y199422D01*
X305043Y199413D01*
X305081Y199397D01*
X305198Y199378D01*
X305314Y199352D01*
X305355Y199353D01*
X305395Y199347D01*
X305513Y199358D01*
X305632Y199362D01*
X305671Y199373D01*
X305711Y199377D01*
X305824Y199417D01*
X305938Y199450D01*
X305973Y199471D01*
X306011Y199485D01*
X306045Y199508D01*
X306054Y199512D01*
X306110Y199552D01*
X306212Y199612D01*
X306257Y199652D01*
X306274Y199663D01*
X306287Y199678D01*
X306302Y199691D01*
X306312Y199698D01*
X306317Y199704D01*
X306333Y199718D01*
X310323Y203709D01*
X317057Y203709D01*
X321809Y198957D01*
X321903Y198883D01*
X321993Y198805D01*
X322028Y198786D01*
X322060Y198762D01*
X322170Y198714D01*
X322276Y198660D01*
X322315Y198651D01*
X322352Y198635D01*
X322470Y198617D01*
X322586Y198591D01*
X322626Y198592D01*
X322666Y198585D01*
X322785Y198597D01*
X322904Y198600D01*
X322943Y198611D01*
X322983Y198615D01*
X323095Y198656D01*
X323209Y198689D01*
X323244Y198709D01*
X323282Y198723D01*
X323381Y198790D01*
X323483Y198850D01*
X323529Y198890D01*
X323545Y198901D01*
X323559Y198917D01*
X323604Y198957D01*
X335085Y210437D01*
X335103Y210461D01*
X335126Y210480D01*
X335200Y210586D01*
X335280Y210689D01*
X335292Y210716D01*
X335309Y210740D01*
X335355Y210861D01*
X335406Y210980D01*
X335411Y211010D01*
X335421Y211037D01*
X335436Y211166D01*
X335456Y211295D01*
X335453Y211324D01*
X335457Y211353D01*
X335439Y211482D01*
X335426Y211611D01*
X335416Y211639D01*
X335412Y211668D01*
X335360Y211821D01*
X334985Y212726D01*
X334985Y215874D01*
X336190Y218783D01*
X338417Y221010D01*
X341326Y222215D01*
X344474Y222215D01*
X346549Y221355D01*
X346616Y221337D01*
X346680Y221309D01*
X346769Y221295D01*
X346856Y221271D01*
X346925Y221270D01*
X346994Y221259D01*
X347084Y221268D01*
X347174Y221266D01*
X347242Y221283D01*
X347311Y221289D01*
X347396Y221320D01*
X347483Y221341D01*
X347545Y221373D01*
X347610Y221397D01*
X347685Y221447D01*
X347764Y221489D01*
X347816Y221536D01*
X347873Y221575D01*
X347933Y221643D01*
X347999Y221703D01*
X348038Y221762D01*
X348084Y221814D01*
X348125Y221894D01*
X348174Y221969D01*
X348197Y222035D01*
X348229Y222097D01*
X348248Y222185D01*
X348277Y222270D01*
X348283Y222339D01*
X348298Y222407D01*
X348295Y222497D01*
X348303Y222587D01*
X348291Y222655D01*
X348289Y222725D01*
X348264Y222812D01*
X348248Y222900D01*
X348220Y222964D01*
X348200Y223031D01*
X348154Y223108D01*
X348118Y223190D01*
X348074Y223244D01*
X348039Y223305D01*
X347932Y223426D01*
X342114Y229244D01*
X342036Y229304D01*
X341964Y229372D01*
X341911Y229401D01*
X341863Y229438D01*
X341772Y229478D01*
X341685Y229526D01*
X341627Y229541D01*
X341571Y229565D01*
X341473Y229580D01*
X341377Y229605D01*
X341277Y229611D01*
X341257Y229615D01*
X341245Y229613D01*
X341217Y229615D01*
X303684Y229615D01*
X301676Y231624D01*
X301675Y231624D01*
X253870Y279429D01*
X253870Y279430D01*
X251861Y281438D01*
X251861Y302804D01*
X258432Y309374D01*
X258432Y309375D01*
X260441Y311383D01*
X288737Y311383D01*
X288874Y311401D01*
X289013Y311414D01*
X289032Y311421D01*
X289052Y311423D01*
X289181Y311474D01*
X289312Y311521D01*
X289329Y311533D01*
X289348Y311540D01*
X289460Y311622D01*
X289575Y311700D01*
X289589Y311715D01*
X289605Y311727D01*
X289694Y311834D01*
X289786Y311938D01*
X289795Y311956D01*
X289808Y311972D01*
X289867Y312098D01*
X289931Y312222D01*
X289935Y312241D01*
X289944Y312260D01*
X289970Y312396D01*
X290000Y312532D01*
X290000Y312552D01*
X290003Y312572D01*
X289995Y312710D01*
X289991Y312850D01*
X289985Y312869D01*
X289984Y312889D01*
X289941Y313022D01*
X289902Y313155D01*
X289892Y313173D01*
X289886Y313192D01*
X289811Y313310D01*
X289741Y313429D01*
X289722Y313450D01*
X289715Y313461D01*
X289700Y313475D01*
X289634Y313550D01*
X285241Y317943D01*
X285241Y324677D01*
X289867Y329303D01*
X289952Y329412D01*
X290041Y329519D01*
X290049Y329538D01*
X290062Y329554D01*
X290117Y329682D01*
X290176Y329807D01*
X290180Y329827D01*
X290188Y329846D01*
X290210Y329984D01*
X290236Y330120D01*
X290235Y330140D01*
X290238Y330160D01*
X290225Y330299D01*
X290216Y330437D01*
X290210Y330456D01*
X290208Y330476D01*
X290161Y330608D01*
X290118Y330739D01*
X290107Y330757D01*
X290101Y330776D01*
X290022Y330891D01*
X289948Y331008D01*
X289933Y331022D01*
X289922Y331039D01*
X289818Y331131D01*
X289716Y331226D01*
X289699Y331236D01*
X289684Y331249D01*
X289559Y331313D01*
X289438Y331380D01*
X289418Y331385D01*
X289400Y331394D01*
X289264Y331424D01*
X289130Y331459D01*
X289102Y331461D01*
X289090Y331464D01*
X289069Y331463D01*
X288969Y331469D01*
X246971Y331469D01*
X246833Y331452D01*
X246694Y331439D01*
X246675Y331432D01*
X246655Y331429D01*
X246526Y331378D01*
X246395Y331331D01*
X246378Y331320D01*
X246359Y331312D01*
X246247Y331231D01*
X246132Y331153D01*
X246119Y331137D01*
X246102Y331126D01*
X246013Y331018D01*
X245921Y330914D01*
X245912Y330896D01*
X245899Y330881D01*
X245840Y330755D01*
X245777Y330631D01*
X245772Y330611D01*
X245764Y330593D01*
X245738Y330457D01*
X245707Y330321D01*
X245708Y330300D01*
X245704Y330281D01*
X245713Y330142D01*
X245717Y330003D01*
X245723Y329983D01*
X245724Y329963D01*
X245767Y329831D01*
X245805Y329697D01*
X245816Y329680D01*
X245822Y329661D01*
X245896Y329543D01*
X245967Y329423D01*
X245985Y329402D01*
X245992Y329392D01*
X246007Y329378D01*
X246073Y329303D01*
X250699Y324677D01*
X250699Y317943D01*
X245937Y313181D01*
X239203Y313181D01*
X234441Y317943D01*
X234441Y324677D01*
X239067Y329303D01*
X239152Y329412D01*
X239241Y329519D01*
X239249Y329538D01*
X239262Y329554D01*
X239317Y329682D01*
X239376Y329807D01*
X239380Y329827D01*
X239388Y329846D01*
X239410Y329984D01*
X239436Y330120D01*
X239435Y330140D01*
X239438Y330160D01*
X239425Y330299D01*
X239416Y330437D01*
X239410Y330456D01*
X239408Y330476D01*
X239361Y330608D01*
X239318Y330739D01*
X239307Y330757D01*
X239301Y330776D01*
X239222Y330891D01*
X239148Y331008D01*
X239133Y331022D01*
X239122Y331039D01*
X239018Y331131D01*
X238916Y331226D01*
X238899Y331236D01*
X238884Y331249D01*
X238759Y331313D01*
X238638Y331380D01*
X238618Y331385D01*
X238600Y331394D01*
X238464Y331424D01*
X238330Y331459D01*
X238302Y331461D01*
X238290Y331464D01*
X238269Y331463D01*
X238169Y331469D01*
X224816Y331469D01*
X224679Y331452D01*
X224540Y331439D01*
X224521Y331432D01*
X224501Y331429D01*
X224372Y331378D01*
X224241Y331331D01*
X224224Y331320D01*
X224205Y331312D01*
X224093Y331231D01*
X223978Y331153D01*
X223964Y331137D01*
X223948Y331126D01*
X223859Y331018D01*
X223767Y330914D01*
X223758Y330896D01*
X223745Y330881D01*
X223686Y330755D01*
X223623Y330631D01*
X223618Y330611D01*
X223609Y330593D01*
X223583Y330457D01*
X223553Y330321D01*
X223553Y330300D01*
X223550Y330281D01*
X223558Y330142D01*
X223563Y330003D01*
X223568Y329983D01*
X223569Y329963D01*
X223612Y329831D01*
X223651Y329697D01*
X223661Y329680D01*
X223667Y329661D01*
X223742Y329543D01*
X223812Y329423D01*
X223831Y329402D01*
X223838Y329392D01*
X223853Y329378D01*
X223919Y329303D01*
X229236Y323986D01*
X229236Y316094D01*
X223656Y310514D01*
X215764Y310514D01*
X210184Y316094D01*
X210184Y323986D01*
X215501Y329303D01*
X215586Y329412D01*
X215675Y329519D01*
X215684Y329538D01*
X215696Y329554D01*
X215752Y329682D01*
X215811Y329807D01*
X215814Y329827D01*
X215822Y329846D01*
X215844Y329984D01*
X215870Y330120D01*
X215869Y330140D01*
X215872Y330160D01*
X215859Y330299D01*
X215851Y330437D01*
X215844Y330456D01*
X215842Y330476D01*
X215795Y330608D01*
X215753Y330739D01*
X215742Y330757D01*
X215735Y330776D01*
X215657Y330891D01*
X215582Y331008D01*
X215568Y331022D01*
X215556Y331039D01*
X215452Y331131D01*
X215351Y331226D01*
X215333Y331236D01*
X215318Y331249D01*
X215194Y331313D01*
X215072Y331380D01*
X215053Y331385D01*
X215035Y331394D01*
X214899Y331424D01*
X214764Y331459D01*
X214736Y331461D01*
X214724Y331464D01*
X214704Y331463D01*
X214604Y331469D01*
X199416Y331469D01*
X199279Y331452D01*
X199140Y331439D01*
X199121Y331432D01*
X199101Y331429D01*
X198972Y331378D01*
X198841Y331331D01*
X198824Y331320D01*
X198805Y331312D01*
X198693Y331231D01*
X198578Y331153D01*
X198564Y331137D01*
X198548Y331126D01*
X198459Y331018D01*
X198367Y330914D01*
X198358Y330896D01*
X198345Y330881D01*
X198286Y330755D01*
X198223Y330631D01*
X198218Y330611D01*
X198209Y330593D01*
X198183Y330457D01*
X198153Y330321D01*
X198153Y330300D01*
X198150Y330281D01*
X198158Y330142D01*
X198163Y330003D01*
X198168Y329983D01*
X198169Y329963D01*
X198212Y329831D01*
X198251Y329697D01*
X198261Y329680D01*
X198267Y329661D01*
X198342Y329543D01*
X198412Y329423D01*
X198431Y329402D01*
X198438Y329392D01*
X198453Y329378D01*
X198519Y329303D01*
X203836Y323986D01*
X203836Y316094D01*
X198256Y310514D01*
X190364Y310514D01*
X184784Y316094D01*
X184784Y323986D01*
X190101Y329303D01*
X190186Y329412D01*
X190275Y329519D01*
X190284Y329538D01*
X190296Y329554D01*
X190352Y329682D01*
X190411Y329807D01*
X190414Y329827D01*
X190422Y329846D01*
X190444Y329984D01*
X190470Y330120D01*
X190469Y330140D01*
X190472Y330160D01*
X190459Y330299D01*
X190451Y330437D01*
X190444Y330456D01*
X190442Y330476D01*
X190395Y330608D01*
X190353Y330739D01*
X190342Y330757D01*
X190335Y330776D01*
X190257Y330891D01*
X190182Y331008D01*
X190168Y331022D01*
X190156Y331039D01*
X190052Y331131D01*
X189951Y331226D01*
X189933Y331236D01*
X189918Y331249D01*
X189794Y331313D01*
X189672Y331380D01*
X189653Y331385D01*
X189635Y331394D01*
X189499Y331424D01*
X189364Y331459D01*
X189336Y331461D01*
X189324Y331464D01*
X189304Y331463D01*
X189204Y331469D01*
X162560Y331469D01*
X162539Y331467D01*
X162477Y331467D01*
X159162Y331249D01*
X159118Y331241D01*
X159074Y331240D01*
X158916Y331209D01*
X152511Y329493D01*
X152432Y329460D01*
X152349Y329437D01*
X152227Y329376D01*
X152217Y329372D01*
X152213Y329370D01*
X152205Y329366D01*
X146463Y326050D01*
X146395Y325999D01*
X146321Y325955D01*
X146218Y325864D01*
X146210Y325858D01*
X146207Y325855D01*
X146200Y325849D01*
X141511Y321160D01*
X141459Y321092D01*
X141399Y321031D01*
X141323Y320917D01*
X141316Y320909D01*
X141315Y320905D01*
X141310Y320897D01*
X137994Y315155D01*
X137961Y315076D01*
X137919Y315001D01*
X137875Y314872D01*
X137871Y314862D01*
X137870Y314857D01*
X137867Y314849D01*
X136151Y308444D01*
X136145Y308400D01*
X136131Y308358D01*
X136111Y308198D01*
X136053Y307322D01*
X136053Y307321D01*
X135893Y304883D01*
X135895Y304862D01*
X135891Y304800D01*
X135891Y277114D01*
X135906Y276996D01*
X135913Y276877D01*
X135926Y276839D01*
X135931Y276798D01*
X135974Y276688D01*
X136011Y276575D01*
X136033Y276540D01*
X136048Y276503D01*
X136117Y276407D01*
X136181Y276306D01*
X136211Y276278D01*
X136234Y276245D01*
X136326Y276169D01*
X136413Y276088D01*
X136448Y276068D01*
X136479Y276043D01*
X136587Y275992D01*
X136691Y275934D01*
X136731Y275924D01*
X136767Y275907D01*
X136884Y275885D01*
X136999Y275855D01*
X137059Y275851D01*
X137079Y275847D01*
X137100Y275849D01*
X137160Y275845D01*
X155489Y275845D01*
X158850Y274453D01*
X161423Y271880D01*
X162815Y268519D01*
X162815Y264881D01*
X161423Y261520D01*
X158850Y258947D01*
X155489Y257555D01*
X137160Y257555D01*
X137042Y257540D01*
X136923Y257533D01*
X136885Y257520D01*
X136844Y257515D01*
X136734Y257472D01*
X136621Y257435D01*
X136586Y257413D01*
X136549Y257398D01*
X136453Y257329D01*
X136352Y257265D01*
X136324Y257235D01*
X136291Y257212D01*
X136215Y257120D01*
X136134Y257033D01*
X136114Y256998D01*
X136089Y256967D01*
X136038Y256859D01*
X135980Y256755D01*
X135970Y256715D01*
X135953Y256679D01*
X135931Y256562D01*
X135901Y256447D01*
X135897Y256387D01*
X135893Y256367D01*
X135895Y256346D01*
X135891Y256286D01*
X135891Y251714D01*
X135906Y251596D01*
X135913Y251477D01*
X135926Y251439D01*
X135931Y251398D01*
X135974Y251288D01*
X136011Y251175D01*
X136033Y251140D01*
X136048Y251103D01*
X136117Y251007D01*
X136181Y250906D01*
X136211Y250878D01*
X136234Y250845D01*
X136326Y250769D01*
X136413Y250688D01*
X136448Y250668D01*
X136479Y250643D01*
X136587Y250592D01*
X136691Y250534D01*
X136731Y250524D01*
X136767Y250507D01*
X136884Y250485D01*
X136999Y250455D01*
X137059Y250451D01*
X137079Y250447D01*
X137100Y250449D01*
X137160Y250445D01*
X155489Y250445D01*
X158850Y249053D01*
X161423Y246480D01*
X162815Y243119D01*
X162815Y239481D01*
X161423Y236120D01*
X158850Y233547D01*
X155489Y232155D01*
X137160Y232155D01*
X137042Y232140D01*
X136923Y232133D01*
X136885Y232120D01*
X136844Y232115D01*
X136734Y232072D01*
X136621Y232035D01*
X136586Y232013D01*
X136549Y231998D01*
X136453Y231929D01*
X136352Y231865D01*
X136324Y231835D01*
X136291Y231812D01*
X136215Y231720D01*
X136134Y231633D01*
X136114Y231598D01*
X136089Y231567D01*
X136038Y231459D01*
X135980Y231355D01*
X135970Y231315D01*
X135953Y231279D01*
X135931Y231162D01*
X135901Y231047D01*
X135897Y230987D01*
X135893Y230967D01*
X135895Y230946D01*
X135891Y230886D01*
X135891Y170180D01*
X135893Y170161D01*
X135893Y170109D01*
X136084Y166696D01*
X136089Y166670D01*
X136088Y166644D01*
X136114Y166485D01*
X137633Y159831D01*
X137654Y159772D01*
X137666Y159712D01*
X137727Y159562D01*
X140688Y153413D01*
X140722Y153361D01*
X140747Y153304D01*
X140839Y153172D01*
X145095Y147836D01*
X145139Y147793D01*
X145177Y147743D01*
X145296Y147635D01*
X150632Y143379D01*
X150685Y143347D01*
X150733Y143307D01*
X150873Y143228D01*
X157022Y140267D01*
X157081Y140247D01*
X157136Y140219D01*
X157291Y140173D01*
X163945Y138654D01*
X163971Y138652D01*
X163996Y138644D01*
X164156Y138624D01*
X167569Y138433D01*
X167588Y138434D01*
X167640Y138431D01*
X288969Y138431D01*
X289107Y138448D01*
G37*
%LPC*%
G36*
X379181Y205485D02*
X379181Y205485D01*
X375820Y206877D01*
X373247Y209450D01*
X371855Y212811D01*
X371855Y216449D01*
X373247Y219810D01*
X375820Y222383D01*
X379181Y223775D01*
X398059Y223775D01*
X401420Y222383D01*
X403993Y219810D01*
X405385Y216449D01*
X405385Y212811D01*
X403993Y209450D01*
X401420Y206877D01*
X398059Y205485D01*
X379181Y205485D01*
G37*
%LPD*%
%LPC*%
G36*
X379181Y281685D02*
X379181Y281685D01*
X375820Y283077D01*
X373247Y285650D01*
X371855Y289011D01*
X371855Y292649D01*
X373247Y296010D01*
X375820Y298583D01*
X379181Y299975D01*
X398059Y299975D01*
X401420Y298583D01*
X403993Y296010D01*
X405385Y292649D01*
X405385Y289011D01*
X403993Y285650D01*
X401420Y283077D01*
X398059Y281685D01*
X379181Y281685D01*
G37*
%LPD*%
%LPC*%
G36*
X379181Y256285D02*
X379181Y256285D01*
X375820Y257677D01*
X373247Y260250D01*
X371855Y263611D01*
X371855Y267249D01*
X373247Y270610D01*
X375820Y273183D01*
X379181Y274575D01*
X398059Y274575D01*
X401420Y273183D01*
X403993Y270610D01*
X405385Y267249D01*
X405385Y263611D01*
X403993Y260250D01*
X401420Y257677D01*
X398059Y256285D01*
X379181Y256285D01*
G37*
%LPD*%
%LPC*%
G36*
X183478Y206385D02*
X183478Y206385D01*
X182585Y207278D01*
X182585Y221322D01*
X183478Y222215D01*
X197522Y222215D01*
X198415Y221322D01*
X198415Y207278D01*
X197522Y206385D01*
X183478Y206385D01*
G37*
%LPD*%
%LPC*%
G36*
X196023Y144271D02*
X196023Y144271D01*
X191261Y149033D01*
X191261Y155767D01*
X196023Y160529D01*
X202757Y160529D01*
X207519Y155767D01*
X207519Y149033D01*
X202757Y144271D01*
X196023Y144271D01*
G37*
%LPD*%
%LPC*%
G36*
X361123Y146811D02*
X361123Y146811D01*
X356361Y151573D01*
X356361Y158307D01*
X361123Y163069D01*
X367857Y163069D01*
X372619Y158307D01*
X372619Y151573D01*
X367857Y146811D01*
X361123Y146811D01*
G37*
%LPD*%
%LPC*%
G36*
X196023Y165861D02*
X196023Y165861D01*
X191261Y170623D01*
X191261Y177357D01*
X196023Y182119D01*
X202757Y182119D01*
X207519Y177357D01*
X207519Y170623D01*
X202757Y165861D01*
X196023Y165861D01*
G37*
%LPD*%
%LPC*%
G36*
X196023Y186181D02*
X196023Y186181D01*
X191261Y190943D01*
X191261Y197677D01*
X196023Y202439D01*
X202757Y202439D01*
X207519Y197677D01*
X207519Y190943D01*
X202757Y186181D01*
X196023Y186181D01*
G37*
%LPD*%
%LPC*%
G36*
X246823Y186181D02*
X246823Y186181D01*
X242061Y190943D01*
X242061Y197677D01*
X246823Y202439D01*
X253557Y202439D01*
X258319Y197677D01*
X258319Y190943D01*
X253557Y186181D01*
X246823Y186181D01*
G37*
%LPD*%
%LPC*%
G36*
X246823Y144271D02*
X246823Y144271D01*
X242061Y149033D01*
X242061Y155767D01*
X246823Y160529D01*
X253557Y160529D01*
X258319Y155767D01*
X258319Y149033D01*
X253557Y144271D01*
X246823Y144271D01*
G37*
%LPD*%
%LPC*%
G36*
X214326Y285785D02*
X214326Y285785D01*
X211417Y286990D01*
X209190Y289217D01*
X207985Y292126D01*
X207985Y295274D01*
X209190Y298183D01*
X211417Y300410D01*
X214326Y301615D01*
X217474Y301615D01*
X220383Y300410D01*
X222610Y298183D01*
X223815Y295274D01*
X223815Y292126D01*
X222610Y289217D01*
X220383Y286990D01*
X217474Y285785D01*
X214326Y285785D01*
G37*
%LPD*%
%LPC*%
G36*
X315926Y285785D02*
X315926Y285785D01*
X313017Y286990D01*
X310790Y289217D01*
X309585Y292126D01*
X309585Y295274D01*
X310790Y298183D01*
X313017Y300410D01*
X315926Y301615D01*
X319074Y301615D01*
X321983Y300410D01*
X324210Y298183D01*
X325415Y295274D01*
X325415Y292126D01*
X324210Y289217D01*
X321983Y286990D01*
X319074Y285785D01*
X315926Y285785D01*
G37*
%LPD*%
%LPC*%
G36*
X341326Y285785D02*
X341326Y285785D01*
X338417Y286990D01*
X336190Y289217D01*
X334985Y292126D01*
X334985Y295274D01*
X336190Y298183D01*
X338417Y300410D01*
X341326Y301615D01*
X344474Y301615D01*
X347383Y300410D01*
X349610Y298183D01*
X350815Y295274D01*
X350815Y292126D01*
X349610Y289217D01*
X347383Y286990D01*
X344474Y285785D01*
X341326Y285785D01*
G37*
%LPD*%
%LPC*%
G36*
X239726Y285785D02*
X239726Y285785D01*
X236817Y286990D01*
X234590Y289217D01*
X233385Y292126D01*
X233385Y295274D01*
X234590Y298183D01*
X236817Y300410D01*
X239726Y301615D01*
X242874Y301615D01*
X245783Y300410D01*
X248010Y298183D01*
X249215Y295274D01*
X249215Y292126D01*
X248010Y289217D01*
X245783Y286990D01*
X242874Y285785D01*
X239726Y285785D01*
G37*
%LPD*%
%LPC*%
G36*
X188926Y285785D02*
X188926Y285785D01*
X186017Y286990D01*
X183790Y289217D01*
X182585Y292126D01*
X182585Y295274D01*
X183790Y298183D01*
X186017Y300410D01*
X188926Y301615D01*
X192074Y301615D01*
X194983Y300410D01*
X197210Y298183D01*
X198415Y295274D01*
X198415Y292126D01*
X197210Y289217D01*
X194983Y286990D01*
X192074Y285785D01*
X188926Y285785D01*
G37*
%LPD*%
%LPC*%
G36*
X290526Y285785D02*
X290526Y285785D01*
X287617Y286990D01*
X285390Y289217D01*
X284185Y292126D01*
X284185Y295274D01*
X285390Y298183D01*
X287617Y300410D01*
X290526Y301615D01*
X293674Y301615D01*
X296583Y300410D01*
X298810Y298183D01*
X300015Y295274D01*
X300015Y292126D01*
X298810Y289217D01*
X296583Y286990D01*
X293674Y285785D01*
X290526Y285785D01*
G37*
%LPD*%
%LPC*%
G36*
X239726Y206385D02*
X239726Y206385D01*
X236817Y207590D01*
X234590Y209817D01*
X233385Y212726D01*
X233385Y215874D01*
X234590Y218783D01*
X236817Y221010D01*
X239726Y222215D01*
X242874Y222215D01*
X245783Y221010D01*
X248010Y218783D01*
X249215Y215874D01*
X249215Y212726D01*
X248010Y209817D01*
X245783Y207590D01*
X242874Y206385D01*
X239726Y206385D01*
G37*
%LPD*%
%LPC*%
G36*
X315926Y206385D02*
X315926Y206385D01*
X313017Y207590D01*
X310790Y209817D01*
X309585Y212726D01*
X309585Y215874D01*
X310790Y218783D01*
X313017Y221010D01*
X315926Y222215D01*
X319074Y222215D01*
X321983Y221010D01*
X324210Y218783D01*
X325415Y215874D01*
X325415Y212726D01*
X324210Y209817D01*
X321983Y207590D01*
X319074Y206385D01*
X315926Y206385D01*
G37*
%LPD*%
%LPC*%
G36*
X290526Y206385D02*
X290526Y206385D01*
X287617Y207590D01*
X285390Y209817D01*
X284185Y212726D01*
X284185Y215874D01*
X285390Y218783D01*
X287617Y221010D01*
X290526Y222215D01*
X293674Y222215D01*
X296583Y221010D01*
X298810Y218783D01*
X300015Y215874D01*
X300015Y212726D01*
X298810Y209817D01*
X296583Y207590D01*
X293674Y206385D01*
X290526Y206385D01*
G37*
%LPD*%
%LPC*%
G36*
X214326Y206385D02*
X214326Y206385D01*
X211417Y207590D01*
X209190Y209817D01*
X207985Y212726D01*
X207985Y215874D01*
X209190Y218783D01*
X211417Y221010D01*
X214326Y222215D01*
X217474Y222215D01*
X220383Y221010D01*
X222610Y218783D01*
X223815Y215874D01*
X223815Y212726D01*
X222610Y209817D01*
X220383Y207590D01*
X217474Y206385D01*
X214326Y206385D01*
G37*
%LPD*%
%LPC*%
G36*
X391159Y242569D02*
X391159Y242569D01*
X391159Y250191D01*
X397040Y250191D01*
X398619Y249941D01*
X400140Y249446D01*
X401565Y248720D01*
X402791Y247829D01*
X402792Y247829D01*
X402859Y247780D01*
X403990Y246649D01*
X404930Y245355D01*
X405656Y243930D01*
X406099Y242569D01*
X391159Y242569D01*
G37*
%LPD*%
%LPC*%
G36*
X371141Y242569D02*
X371141Y242569D01*
X371584Y243930D01*
X372310Y245355D01*
X373250Y246649D01*
X374381Y247780D01*
X375675Y248720D01*
X377100Y249446D01*
X378621Y249941D01*
X380200Y250191D01*
X386081Y250191D01*
X386081Y242569D01*
X371141Y242569D01*
G37*
%LPD*%
%LPC*%
G36*
X391159Y229869D02*
X391159Y229869D01*
X391159Y237491D01*
X406099Y237491D01*
X405656Y236130D01*
X404930Y234705D01*
X403990Y233411D01*
X402859Y232280D01*
X401565Y231340D01*
X400140Y230614D01*
X398619Y230119D01*
X397040Y229869D01*
X391159Y229869D01*
G37*
%LPD*%
%LPC*%
G36*
X380200Y229869D02*
X380200Y229869D01*
X378621Y230119D01*
X377100Y230614D01*
X375675Y231340D01*
X374381Y232280D01*
X373250Y233411D01*
X372310Y234705D01*
X371584Y236130D01*
X371141Y237491D01*
X386081Y237491D01*
X386081Y229869D01*
X380200Y229869D01*
G37*
%LPD*%
%LPC*%
G36*
X315721Y156971D02*
X315721Y156971D01*
X315721Y173229D01*
X322835Y173229D01*
X322835Y171472D01*
X317360Y165997D01*
X317287Y165903D01*
X317208Y165814D01*
X317190Y165778D01*
X317165Y165746D01*
X317118Y165637D01*
X317064Y165531D01*
X317055Y165492D01*
X317039Y165454D01*
X317020Y165337D01*
X316994Y165221D01*
X316995Y165180D01*
X316989Y165140D01*
X317000Y165022D01*
X317004Y164903D01*
X317015Y164864D01*
X317019Y164824D01*
X317059Y164711D01*
X317092Y164597D01*
X317113Y164562D01*
X317126Y164524D01*
X317193Y164426D01*
X317254Y164323D01*
X317292Y164280D01*
X317294Y164277D01*
X317295Y164276D01*
X317305Y164261D01*
X317320Y164248D01*
X317360Y164202D01*
X322835Y158728D01*
X322835Y156971D01*
X315721Y156971D01*
G37*
%LPD*%
%LPC*%
G36*
X304545Y156971D02*
X304545Y156971D01*
X304545Y158728D01*
X310020Y164202D01*
X310093Y164297D01*
X310172Y164386D01*
X310190Y164422D01*
X310215Y164454D01*
X310262Y164563D01*
X310316Y164669D01*
X310325Y164708D01*
X310341Y164746D01*
X310360Y164863D01*
X310386Y164979D01*
X310385Y165020D01*
X310391Y165060D01*
X310380Y165178D01*
X310376Y165297D01*
X310365Y165336D01*
X310361Y165376D01*
X310321Y165489D01*
X310288Y165603D01*
X310267Y165637D01*
X310254Y165676D01*
X310187Y165774D01*
X310126Y165877D01*
X310086Y165922D01*
X310075Y165939D01*
X310060Y165952D01*
X310020Y165997D01*
X304545Y171472D01*
X304545Y173229D01*
X311659Y173229D01*
X311659Y156971D01*
X304545Y156971D01*
G37*
%LPD*%
%LPC*%
G36*
X273811Y164591D02*
X273811Y164591D01*
X273811Y173102D01*
X276147Y173102D01*
X282322Y166927D01*
X282322Y164591D01*
X273811Y164591D01*
G37*
%LPD*%
%LPC*%
G36*
X261238Y164591D02*
X261238Y164591D01*
X261238Y166927D01*
X267413Y173102D01*
X269749Y173102D01*
X269749Y164591D01*
X261238Y164591D01*
G37*
%LPD*%
%LPC*%
G36*
X273811Y152018D02*
X273811Y152018D01*
X273811Y160529D01*
X282322Y160529D01*
X282322Y158193D01*
X276147Y152018D01*
X273811Y152018D01*
G37*
%LPD*%
%LPC*%
G36*
X267413Y152018D02*
X267413Y152018D01*
X261238Y158193D01*
X261238Y160529D01*
X269749Y160529D01*
X269749Y152018D01*
X267413Y152018D01*
G37*
%LPD*%
%LPC*%
G36*
X252221Y176021D02*
X252221Y176021D01*
X252221Y183135D01*
X253978Y183135D01*
X259335Y177778D01*
X259335Y176021D01*
X252221Y176021D01*
G37*
%LPD*%
%LPC*%
G36*
X241045Y176021D02*
X241045Y176021D01*
X241045Y177778D01*
X246402Y183135D01*
X248159Y183135D01*
X248159Y176021D01*
X241045Y176021D01*
G37*
%LPD*%
%LPC*%
G36*
X252221Y164845D02*
X252221Y164845D01*
X252221Y171959D01*
X259335Y171959D01*
X259335Y170202D01*
X253978Y164845D01*
X252221Y164845D01*
G37*
%LPD*%
%LPC*%
G36*
X315721Y145795D02*
X315721Y145795D01*
X315721Y152909D01*
X322835Y152909D01*
X322835Y151152D01*
X317478Y145795D01*
X315721Y145795D01*
G37*
%LPD*%
%LPC*%
G36*
X246402Y164845D02*
X246402Y164845D01*
X241045Y170202D01*
X241045Y171959D01*
X248159Y171959D01*
X248159Y164845D01*
X246402Y164845D01*
G37*
%LPD*%
%LPC*%
G36*
X268624Y295624D02*
X268624Y295624D01*
X268624Y302423D01*
X269305Y302288D01*
X270930Y301614D01*
X272393Y300637D01*
X273637Y299393D01*
X274614Y297930D01*
X275288Y296305D01*
X275423Y295624D01*
X268624Y295624D01*
G37*
%LPD*%
%LPC*%
G36*
X268624Y291776D02*
X268624Y291776D01*
X275423Y291776D01*
X275288Y291095D01*
X274614Y289470D01*
X273637Y288007D01*
X272393Y286763D01*
X270930Y285786D01*
X269305Y285112D01*
X268624Y284977D01*
X268624Y291776D01*
G37*
%LPD*%
%LPC*%
G36*
X388619Y240029D02*
X388619Y240029D01*
X388619Y240031D01*
X388621Y240031D01*
X388621Y240029D01*
X388619Y240029D01*
G37*
%LPD*%
D10*
X190500Y214300D03*
D11*
X215900Y214300D03*
X241300Y214300D03*
X266700Y214300D03*
X292100Y214300D03*
X317500Y214300D03*
X342900Y214300D03*
X342900Y293700D03*
X317500Y293700D03*
X292100Y293700D03*
X266700Y293700D03*
X241300Y293700D03*
X215900Y293700D03*
X190500Y293700D03*
D12*
X199390Y194310D03*
X250190Y194310D03*
D13*
X250190Y173990D03*
X199390Y173990D03*
X250190Y152400D03*
X199390Y152400D03*
D14*
X297180Y144780D03*
X297180Y195580D03*
D13*
X364490Y154940D03*
X313690Y154940D03*
D12*
X313690Y175260D03*
X364490Y175260D03*
X313690Y195580D03*
X364490Y195580D03*
D13*
X293370Y321310D03*
X242570Y321310D03*
D15*
X342900Y321310D03*
X317500Y321310D03*
X219710Y320040D03*
X194310Y320040D03*
D16*
X271780Y162560D03*
X271780Y187960D03*
D17*
X153670Y266700D02*
X138430Y266700D01*
X138430Y241300D02*
X153670Y241300D01*
X381000Y290830D02*
X396240Y290830D01*
X396240Y265430D02*
X381000Y265430D01*
X381000Y240030D02*
X396240Y240030D01*
X396240Y214630D02*
X381000Y214630D01*
D18*
X388620Y240030D02*
X320370Y240030D01*
X266700Y293700D01*
X313690Y165100D02*
X313690Y154940D01*
X313690Y165100D02*
X313690Y175260D01*
X313690Y165100D02*
X389890Y165100D01*
X313690Y154940D02*
X270510Y154940D01*
X271780Y156210D01*
X271780Y162560D01*
X389890Y165100D02*
X407670Y182880D01*
X407670Y223520D01*
X391160Y240030D01*
X388620Y240030D01*
X270510Y154940D02*
X269240Y154940D01*
X250190Y173990D01*
X330179Y308589D02*
X342900Y321310D01*
X330179Y308589D02*
X261599Y308589D01*
X254656Y282596D02*
X304842Y232410D01*
X342900Y232410D02*
X361950Y213360D01*
X361950Y198120D01*
X364490Y195580D01*
X342900Y232410D02*
X304842Y232410D01*
X254656Y282596D02*
X254656Y301646D01*
X261599Y308589D01*
X297180Y195580D02*
X313690Y195580D01*
X324180Y195580D01*
X342900Y214300D01*
X275590Y205410D02*
X266700Y214300D01*
X275590Y205410D02*
X275590Y191770D01*
X271780Y187960D01*
D19*
X388620Y182880D03*
D18*
X271780Y184912D02*
X271780Y187960D01*
X386588Y184912D02*
X388620Y182880D01*
X386588Y184912D02*
X271780Y184912D01*
M02*
