G04 EAGLE Gerber RS-274X export*
G75*
%MOMM*%
%FSLAX34Y34*%
%LPD*%
%INSoldermask Top*%
%IPPOS*%
%AMOC8*
5,1,8,0,0,1.08239X$1,22.5*%
G01*
%ADD10R,1.481200X1.481200*%
%ADD11C,1.481200*%
%ADD12P,1.649562X8X22.500000*%
%ADD13P,1.649562X8X202.500000*%
%ADD14P,1.649562X8X112.500000*%
%ADD15P,1.951982X8X202.500000*%
%ADD16P,1.951982X8X112.500000*%
%ADD17C,1.727200*%
%ADD18C,0.959600*%


D10*
X190500Y214300D03*
D11*
X215900Y214300D03*
X241300Y214300D03*
X266700Y214300D03*
X292100Y214300D03*
X317500Y214300D03*
X342900Y214300D03*
X342900Y293700D03*
X317500Y293700D03*
X292100Y293700D03*
X266700Y293700D03*
X241300Y293700D03*
X215900Y293700D03*
X190500Y293700D03*
D12*
X199390Y194310D03*
X250190Y194310D03*
D13*
X250190Y173990D03*
X199390Y173990D03*
X250190Y152400D03*
X199390Y152400D03*
D14*
X297180Y144780D03*
X297180Y195580D03*
D13*
X364490Y154940D03*
X313690Y154940D03*
D12*
X313690Y175260D03*
X364490Y175260D03*
X313690Y195580D03*
X364490Y195580D03*
D13*
X293370Y321310D03*
X242570Y321310D03*
D15*
X342900Y321310D03*
X317500Y321310D03*
X219710Y320040D03*
X194310Y320040D03*
D16*
X271780Y162560D03*
X271780Y187960D03*
D17*
X381000Y290830D02*
X396240Y290830D01*
X396240Y265430D02*
X381000Y265430D01*
X381000Y240030D02*
X396240Y240030D01*
X396240Y214630D02*
X381000Y214630D01*
X154959Y278594D02*
X139719Y278594D01*
X139719Y253194D02*
X154959Y253194D01*
X154959Y227794D02*
X139719Y227794D01*
D18*
X259881Y262090D03*
X388620Y182880D03*
X241190Y274334D03*
M02*
