G04 EAGLE Gerber RS-274X export*
G75*
%MOMM*%
%FSLAX34Y34*%
%LPD*%
%INBottom Copper*%
%IPPOS*%
%AMOC8*
5,1,8,0,0,1.08239X$1,22.5*%
G01*
%ADD10C,1.524000*%
%ADD11C,8.000000*%
%ADD12C,0.756400*%
%ADD13C,0.152400*%

G36*
X40412Y27436D02*
X40412Y27436D01*
X40438Y27434D01*
X40585Y27456D01*
X40732Y27473D01*
X40757Y27481D01*
X40783Y27485D01*
X40921Y27540D01*
X41060Y27590D01*
X41082Y27604D01*
X41107Y27614D01*
X41228Y27699D01*
X41353Y27779D01*
X41371Y27798D01*
X41393Y27813D01*
X41492Y27923D01*
X41595Y28030D01*
X41609Y28052D01*
X41626Y28072D01*
X41698Y28202D01*
X41774Y28329D01*
X41782Y28354D01*
X41795Y28377D01*
X41835Y28520D01*
X41880Y28661D01*
X41882Y28687D01*
X41890Y28712D01*
X41909Y28956D01*
X41909Y33275D01*
X51054Y33275D01*
X51080Y33278D01*
X51106Y33276D01*
X51253Y33298D01*
X51400Y33315D01*
X51425Y33323D01*
X51451Y33327D01*
X51588Y33382D01*
X51728Y33432D01*
X51750Y33446D01*
X51775Y33456D01*
X51896Y33541D01*
X52021Y33621D01*
X52039Y33640D01*
X52061Y33655D01*
X52075Y33671D01*
X52160Y33589D01*
X52183Y33575D01*
X52202Y33558D01*
X52332Y33486D01*
X52459Y33410D01*
X52484Y33402D01*
X52507Y33389D01*
X52650Y33349D01*
X52791Y33304D01*
X52817Y33301D01*
X52842Y33294D01*
X53086Y33275D01*
X62231Y33275D01*
X62231Y28956D01*
X62234Y28930D01*
X62232Y28904D01*
X62254Y28757D01*
X62271Y28610D01*
X62279Y28585D01*
X62283Y28559D01*
X62338Y28421D01*
X62388Y28282D01*
X62402Y28260D01*
X62412Y28235D01*
X62497Y28114D01*
X62577Y27989D01*
X62596Y27971D01*
X62611Y27949D01*
X62721Y27850D01*
X62828Y27747D01*
X62850Y27733D01*
X62870Y27716D01*
X63000Y27644D01*
X63127Y27568D01*
X63152Y27560D01*
X63175Y27547D01*
X63318Y27507D01*
X63459Y27462D01*
X63485Y27460D01*
X63510Y27452D01*
X63754Y27433D01*
X66802Y27433D01*
X66828Y27436D01*
X66854Y27434D01*
X67001Y27456D01*
X67148Y27473D01*
X67173Y27481D01*
X67199Y27485D01*
X67337Y27540D01*
X67476Y27590D01*
X67498Y27604D01*
X67523Y27614D01*
X67644Y27699D01*
X67769Y27779D01*
X67787Y27798D01*
X67809Y27813D01*
X67908Y27923D01*
X68011Y28030D01*
X68025Y28052D01*
X68042Y28072D01*
X68114Y28202D01*
X68190Y28329D01*
X68198Y28354D01*
X68211Y28377D01*
X68251Y28520D01*
X68296Y28661D01*
X68298Y28687D01*
X68306Y28712D01*
X68325Y28956D01*
X68325Y45253D01*
X69718Y48614D01*
X72290Y51186D01*
X75651Y52579D01*
X76454Y52579D01*
X76480Y52582D01*
X76506Y52580D01*
X76653Y52602D01*
X76800Y52619D01*
X76825Y52627D01*
X76851Y52631D01*
X76989Y52686D01*
X77128Y52736D01*
X77150Y52750D01*
X77175Y52760D01*
X77296Y52845D01*
X77421Y52925D01*
X77439Y52944D01*
X77461Y52959D01*
X77560Y53069D01*
X77663Y53176D01*
X77677Y53198D01*
X77694Y53218D01*
X77766Y53348D01*
X77842Y53475D01*
X77850Y53500D01*
X77863Y53523D01*
X77903Y53666D01*
X77948Y53807D01*
X77950Y53833D01*
X77958Y53858D01*
X77977Y54102D01*
X77977Y152688D01*
X77976Y152700D01*
X77977Y152712D01*
X77956Y152873D01*
X77937Y153034D01*
X77933Y153045D01*
X77932Y153057D01*
X77874Y153210D01*
X77820Y153362D01*
X77813Y153372D01*
X77809Y153383D01*
X77719Y153518D01*
X77631Y153655D01*
X77622Y153663D01*
X77616Y153673D01*
X77498Y153784D01*
X77380Y153897D01*
X77370Y153903D01*
X77361Y153911D01*
X77221Y153993D01*
X77081Y154076D01*
X77070Y154080D01*
X77060Y154086D01*
X76904Y154133D01*
X76749Y154182D01*
X76737Y154183D01*
X76726Y154187D01*
X76563Y154197D01*
X76402Y154210D01*
X76390Y154209D01*
X76378Y154209D01*
X76217Y154183D01*
X76057Y154159D01*
X76046Y154154D01*
X76034Y154152D01*
X75805Y154066D01*
X70855Y151737D01*
X55887Y148881D01*
X40679Y149838D01*
X28157Y153907D01*
X28068Y153925D01*
X27981Y153953D01*
X27898Y153959D01*
X27815Y153976D01*
X27724Y153973D01*
X27634Y153981D01*
X27551Y153968D01*
X27467Y153966D01*
X27379Y153942D01*
X27289Y153929D01*
X27211Y153898D01*
X27130Y153876D01*
X27050Y153834D01*
X26965Y153800D01*
X26896Y153752D01*
X26822Y153713D01*
X26754Y153653D01*
X26679Y153601D01*
X26623Y153539D01*
X26560Y153484D01*
X26506Y153410D01*
X26446Y153343D01*
X26405Y153269D01*
X26356Y153201D01*
X26321Y153117D01*
X26277Y153037D01*
X26254Y152957D01*
X26222Y152879D01*
X26207Y152790D01*
X26182Y152702D01*
X26173Y152585D01*
X26165Y152535D01*
X26167Y152506D01*
X26163Y152458D01*
X26163Y54102D01*
X26166Y54076D01*
X26164Y54050D01*
X26186Y53903D01*
X26203Y53756D01*
X26211Y53731D01*
X26215Y53705D01*
X26270Y53567D01*
X26320Y53428D01*
X26334Y53406D01*
X26344Y53381D01*
X26429Y53260D01*
X26509Y53135D01*
X26528Y53117D01*
X26543Y53095D01*
X26653Y52996D01*
X26760Y52893D01*
X26782Y52879D01*
X26802Y52862D01*
X26932Y52790D01*
X27059Y52714D01*
X27084Y52706D01*
X27107Y52693D01*
X27250Y52653D01*
X27391Y52608D01*
X27417Y52606D01*
X27442Y52598D01*
X27686Y52579D01*
X28489Y52579D01*
X31850Y51186D01*
X34422Y48614D01*
X35815Y45253D01*
X35815Y28956D01*
X35818Y28930D01*
X35816Y28904D01*
X35838Y28757D01*
X35855Y28610D01*
X35863Y28585D01*
X35867Y28559D01*
X35922Y28421D01*
X35972Y28282D01*
X35986Y28260D01*
X35996Y28235D01*
X36081Y28114D01*
X36161Y27989D01*
X36180Y27971D01*
X36195Y27949D01*
X36305Y27850D01*
X36412Y27747D01*
X36434Y27733D01*
X36454Y27716D01*
X36584Y27644D01*
X36711Y27568D01*
X36736Y27560D01*
X36759Y27547D01*
X36902Y27507D01*
X37043Y27462D01*
X37069Y27460D01*
X37094Y27452D01*
X37338Y27433D01*
X40386Y27433D01*
X40412Y27436D01*
G37*
%LPC*%
G36*
X54609Y38353D02*
X54609Y38353D01*
X54609Y53293D01*
X55970Y52850D01*
X57395Y52124D01*
X58689Y51184D01*
X59820Y50053D01*
X60760Y48759D01*
X61486Y47334D01*
X61981Y45813D01*
X62231Y44234D01*
X62231Y38353D01*
X54609Y38353D01*
G37*
%LPD*%
%LPC*%
G36*
X41909Y38353D02*
X41909Y38353D01*
X41909Y44234D01*
X42159Y45813D01*
X42654Y47334D01*
X43380Y48759D01*
X44320Y50053D01*
X45451Y51184D01*
X46745Y52124D01*
X48170Y52850D01*
X49531Y53293D01*
X49531Y38353D01*
X41909Y38353D01*
G37*
%LPD*%
D10*
X77470Y43434D02*
X77470Y28194D01*
X52070Y28194D02*
X52070Y43434D01*
X26670Y43434D02*
X26670Y28194D01*
D11*
X52070Y209550D03*
D12*
X63754Y70358D03*
D13*
X52070Y58674D01*
X52070Y35814D01*
D12*
X73660Y144780D03*
M02*
