G04 EAGLE Gerber RS-274X export*
G75*
%MOMM*%
%FSLAX34Y34*%
%LPD*%
%INBottom Copper*%
%IPPOS*%
%AMOC8*
5,1,8,0,0,1.08239X$1,22.5*%
G01*
%ADD10C,1.524000*%
%ADD11C,8.000000*%
%ADD12C,0.756400*%
%ADD13C,0.152400*%

G36*
X40412Y36326D02*
X40412Y36326D01*
X40438Y36324D01*
X40585Y36346D01*
X40732Y36363D01*
X40757Y36371D01*
X40783Y36375D01*
X40921Y36430D01*
X41060Y36480D01*
X41082Y36494D01*
X41107Y36504D01*
X41228Y36589D01*
X41353Y36669D01*
X41371Y36688D01*
X41393Y36703D01*
X41492Y36813D01*
X41595Y36920D01*
X41609Y36942D01*
X41626Y36962D01*
X41698Y37092D01*
X41774Y37219D01*
X41782Y37244D01*
X41795Y37267D01*
X41835Y37410D01*
X41880Y37551D01*
X41882Y37577D01*
X41890Y37602D01*
X41909Y37846D01*
X41909Y44234D01*
X42159Y45813D01*
X42654Y47334D01*
X43380Y48759D01*
X44320Y50053D01*
X45451Y51184D01*
X46745Y52124D01*
X48170Y52850D01*
X49531Y53293D01*
X49531Y37846D01*
X49534Y37820D01*
X49532Y37794D01*
X49554Y37647D01*
X49571Y37500D01*
X49579Y37475D01*
X49583Y37449D01*
X49638Y37311D01*
X49688Y37172D01*
X49702Y37150D01*
X49712Y37125D01*
X49797Y37004D01*
X49877Y36879D01*
X49896Y36861D01*
X49911Y36839D01*
X50021Y36740D01*
X50128Y36637D01*
X50150Y36623D01*
X50170Y36606D01*
X50300Y36534D01*
X50427Y36458D01*
X50452Y36450D01*
X50475Y36437D01*
X50618Y36397D01*
X50759Y36352D01*
X50785Y36350D01*
X50810Y36342D01*
X51054Y36323D01*
X53086Y36323D01*
X53112Y36326D01*
X53138Y36324D01*
X53285Y36346D01*
X53432Y36363D01*
X53457Y36371D01*
X53483Y36375D01*
X53621Y36430D01*
X53760Y36480D01*
X53782Y36494D01*
X53807Y36504D01*
X53928Y36589D01*
X54053Y36669D01*
X54071Y36688D01*
X54093Y36703D01*
X54192Y36813D01*
X54295Y36920D01*
X54309Y36942D01*
X54326Y36962D01*
X54398Y37092D01*
X54474Y37219D01*
X54482Y37244D01*
X54495Y37267D01*
X54535Y37410D01*
X54580Y37551D01*
X54582Y37577D01*
X54590Y37602D01*
X54609Y37846D01*
X54609Y53293D01*
X55970Y52850D01*
X57395Y52124D01*
X58689Y51184D01*
X59820Y50053D01*
X60760Y48759D01*
X61486Y47334D01*
X61981Y45813D01*
X62231Y44234D01*
X62231Y37846D01*
X62234Y37820D01*
X62232Y37794D01*
X62254Y37647D01*
X62271Y37500D01*
X62279Y37475D01*
X62283Y37449D01*
X62338Y37311D01*
X62388Y37172D01*
X62402Y37150D01*
X62412Y37125D01*
X62497Y37004D01*
X62577Y36879D01*
X62596Y36861D01*
X62611Y36839D01*
X62721Y36740D01*
X62828Y36637D01*
X62850Y36623D01*
X62870Y36606D01*
X63000Y36534D01*
X63127Y36458D01*
X63152Y36450D01*
X63175Y36437D01*
X63318Y36397D01*
X63459Y36352D01*
X63485Y36350D01*
X63510Y36342D01*
X63754Y36323D01*
X66802Y36323D01*
X66828Y36326D01*
X66854Y36324D01*
X67001Y36346D01*
X67148Y36363D01*
X67173Y36371D01*
X67199Y36375D01*
X67337Y36430D01*
X67476Y36480D01*
X67498Y36494D01*
X67523Y36504D01*
X67644Y36589D01*
X67769Y36669D01*
X67787Y36688D01*
X67809Y36703D01*
X67908Y36813D01*
X68011Y36920D01*
X68025Y36942D01*
X68042Y36962D01*
X68114Y37092D01*
X68190Y37219D01*
X68198Y37244D01*
X68211Y37267D01*
X68251Y37410D01*
X68296Y37551D01*
X68298Y37577D01*
X68306Y37602D01*
X68325Y37846D01*
X68325Y45253D01*
X69718Y48614D01*
X72290Y51186D01*
X75651Y52579D01*
X76454Y52579D01*
X76480Y52582D01*
X76506Y52580D01*
X76653Y52602D01*
X76800Y52619D01*
X76825Y52627D01*
X76851Y52631D01*
X76989Y52686D01*
X77128Y52736D01*
X77150Y52750D01*
X77175Y52760D01*
X77296Y52845D01*
X77421Y52925D01*
X77439Y52944D01*
X77461Y52959D01*
X77560Y53069D01*
X77663Y53176D01*
X77677Y53198D01*
X77694Y53218D01*
X77766Y53348D01*
X77842Y53475D01*
X77850Y53500D01*
X77863Y53523D01*
X77903Y53666D01*
X77948Y53807D01*
X77950Y53833D01*
X77958Y53858D01*
X77977Y54102D01*
X77977Y152688D01*
X77976Y152700D01*
X77977Y152712D01*
X77956Y152873D01*
X77937Y153034D01*
X77933Y153045D01*
X77932Y153057D01*
X77874Y153210D01*
X77820Y153362D01*
X77813Y153372D01*
X77809Y153383D01*
X77719Y153518D01*
X77631Y153655D01*
X77622Y153663D01*
X77616Y153673D01*
X77498Y153784D01*
X77380Y153897D01*
X77370Y153903D01*
X77361Y153911D01*
X77221Y153993D01*
X77081Y154076D01*
X77070Y154080D01*
X77060Y154086D01*
X76904Y154133D01*
X76749Y154182D01*
X76737Y154183D01*
X76726Y154187D01*
X76563Y154197D01*
X76402Y154210D01*
X76390Y154209D01*
X76378Y154209D01*
X76217Y154183D01*
X76057Y154159D01*
X76046Y154154D01*
X76034Y154152D01*
X75805Y154066D01*
X70855Y151737D01*
X55887Y148881D01*
X40679Y149838D01*
X28157Y153907D01*
X28068Y153925D01*
X27981Y153953D01*
X27898Y153959D01*
X27815Y153976D01*
X27724Y153973D01*
X27634Y153981D01*
X27551Y153968D01*
X27467Y153966D01*
X27379Y153942D01*
X27289Y153929D01*
X27211Y153898D01*
X27130Y153876D01*
X27050Y153834D01*
X26965Y153800D01*
X26896Y153752D01*
X26822Y153713D01*
X26754Y153653D01*
X26679Y153601D01*
X26623Y153539D01*
X26560Y153484D01*
X26506Y153410D01*
X26446Y153343D01*
X26405Y153269D01*
X26356Y153201D01*
X26321Y153117D01*
X26277Y153037D01*
X26254Y152957D01*
X26222Y152879D01*
X26207Y152790D01*
X26182Y152702D01*
X26173Y152585D01*
X26165Y152535D01*
X26167Y152506D01*
X26163Y152458D01*
X26163Y54102D01*
X26166Y54076D01*
X26164Y54050D01*
X26186Y53903D01*
X26203Y53756D01*
X26211Y53731D01*
X26215Y53705D01*
X26270Y53567D01*
X26320Y53428D01*
X26334Y53406D01*
X26344Y53381D01*
X26429Y53260D01*
X26509Y53135D01*
X26528Y53117D01*
X26543Y53095D01*
X26653Y52996D01*
X26760Y52893D01*
X26782Y52879D01*
X26802Y52862D01*
X26932Y52790D01*
X27059Y52714D01*
X27084Y52706D01*
X27107Y52693D01*
X27250Y52653D01*
X27391Y52608D01*
X27417Y52606D01*
X27442Y52598D01*
X27686Y52579D01*
X28489Y52579D01*
X31850Y51186D01*
X34422Y48614D01*
X35815Y45253D01*
X35815Y37846D01*
X35818Y37820D01*
X35816Y37794D01*
X35838Y37647D01*
X35855Y37500D01*
X35863Y37475D01*
X35867Y37449D01*
X35922Y37311D01*
X35972Y37172D01*
X35986Y37150D01*
X35996Y37125D01*
X36081Y37004D01*
X36161Y36879D01*
X36180Y36861D01*
X36195Y36839D01*
X36305Y36740D01*
X36412Y36637D01*
X36434Y36623D01*
X36454Y36606D01*
X36584Y36534D01*
X36711Y36458D01*
X36736Y36450D01*
X36759Y36437D01*
X36902Y36397D01*
X37043Y36352D01*
X37069Y36350D01*
X37094Y36342D01*
X37338Y36323D01*
X40386Y36323D01*
X40412Y36326D01*
G37*
D10*
X77470Y43434D02*
X77470Y28194D01*
X52070Y28194D02*
X52070Y43434D01*
X26670Y43434D02*
X26670Y28194D01*
D11*
X52070Y209550D03*
D12*
X63754Y70358D03*
D13*
X63754Y65278D01*
X52070Y53594D01*
X52070Y35814D01*
D12*
X73660Y144780D03*
M02*
