G04 EAGLE Gerber RS-274X export*
G75*
%MOMM*%
%FSLAX34Y34*%
%LPD*%
%INTop Copper*%
%IPPOS*%
%AMOC8*
5,1,8,0,0,1.08239X$1,22.5*%
G01*
%ADD10R,0.700000X0.600000*%
%ADD11R,0.600000X0.700000*%
%ADD12C,1.524000*%
%ADD13R,0.900000X0.700000*%
%ADD14R,0.700000X0.900000*%
%ADD15R,0.450000X1.400000*%
%ADD16C,8.000000*%
%ADD17C,0.152400*%
%ADD18C,0.756400*%
%ADD19C,0.304800*%

G36*
X74474Y52186D02*
X74474Y52186D01*
X74572Y52188D01*
X74647Y52206D01*
X74722Y52215D01*
X74864Y52261D01*
X74910Y52273D01*
X74928Y52282D01*
X74955Y52291D01*
X75651Y52579D01*
X76454Y52579D01*
X76480Y52582D01*
X76506Y52580D01*
X76653Y52602D01*
X76800Y52619D01*
X76825Y52627D01*
X76851Y52631D01*
X76989Y52686D01*
X77128Y52736D01*
X77150Y52750D01*
X77175Y52760D01*
X77296Y52845D01*
X77421Y52925D01*
X77439Y52944D01*
X77461Y52959D01*
X77560Y53069D01*
X77663Y53176D01*
X77677Y53198D01*
X77694Y53218D01*
X77766Y53348D01*
X77842Y53475D01*
X77850Y53500D01*
X77863Y53523D01*
X77903Y53666D01*
X77948Y53807D01*
X77950Y53833D01*
X77958Y53858D01*
X77977Y54102D01*
X77977Y76614D01*
X77974Y76640D01*
X77976Y76666D01*
X77954Y76813D01*
X77937Y76960D01*
X77929Y76985D01*
X77925Y77011D01*
X77870Y77148D01*
X77820Y77288D01*
X77806Y77310D01*
X77796Y77335D01*
X77711Y77456D01*
X77631Y77581D01*
X77612Y77599D01*
X77597Y77621D01*
X77487Y77720D01*
X77380Y77823D01*
X77358Y77837D01*
X77338Y77854D01*
X77208Y77926D01*
X77081Y78002D01*
X77056Y78010D01*
X77033Y78023D01*
X76890Y78063D01*
X76749Y78108D01*
X76723Y78110D01*
X76698Y78118D01*
X76454Y78137D01*
X76425Y78137D01*
X76425Y83952D01*
X76422Y83978D01*
X76424Y84004D01*
X76403Y84149D01*
X76406Y84160D01*
X76425Y84404D01*
X76425Y90630D01*
X76422Y90656D01*
X76424Y90682D01*
X76402Y90829D01*
X76385Y90976D01*
X76377Y91001D01*
X76373Y91027D01*
X76318Y91165D01*
X76268Y91304D01*
X76254Y91326D01*
X76244Y91351D01*
X76159Y91472D01*
X76079Y91597D01*
X76060Y91615D01*
X76045Y91637D01*
X75935Y91736D01*
X75828Y91839D01*
X75806Y91853D01*
X75786Y91870D01*
X75656Y91942D01*
X75529Y92018D01*
X75504Y92026D01*
X75481Y92039D01*
X75338Y92079D01*
X75197Y92124D01*
X75171Y92126D01*
X75146Y92134D01*
X74902Y92153D01*
X74450Y92153D01*
X74424Y92150D01*
X74398Y92152D01*
X74251Y92130D01*
X74104Y92113D01*
X74079Y92105D01*
X74053Y92101D01*
X73915Y92046D01*
X73776Y91996D01*
X73754Y91982D01*
X73729Y91972D01*
X73608Y91887D01*
X73483Y91807D01*
X73465Y91788D01*
X73443Y91773D01*
X73344Y91663D01*
X73241Y91556D01*
X73227Y91534D01*
X73210Y91514D01*
X73138Y91384D01*
X73062Y91257D01*
X73054Y91232D01*
X73041Y91209D01*
X73001Y91066D01*
X72956Y90925D01*
X72953Y90899D01*
X72946Y90874D01*
X72927Y90630D01*
X72927Y84404D01*
X72930Y84378D01*
X72928Y84352D01*
X72949Y84207D01*
X72946Y84196D01*
X72927Y83952D01*
X72927Y78137D01*
X69841Y78137D01*
X69195Y78310D01*
X68616Y78645D01*
X68586Y78675D01*
X68487Y78754D01*
X68393Y78838D01*
X68351Y78862D01*
X68313Y78892D01*
X68198Y78946D01*
X68088Y79007D01*
X68041Y79020D01*
X67998Y79041D01*
X67874Y79067D01*
X67752Y79102D01*
X67692Y79107D01*
X67657Y79114D01*
X67609Y79113D01*
X67509Y79121D01*
X65023Y79121D01*
X65023Y84662D01*
X65020Y84688D01*
X65022Y84714D01*
X65000Y84861D01*
X64984Y85008D01*
X64975Y85033D01*
X64971Y85059D01*
X64916Y85196D01*
X64866Y85336D01*
X64852Y85358D01*
X64842Y85382D01*
X64758Y85504D01*
X64677Y85629D01*
X64658Y85647D01*
X64643Y85669D01*
X64533Y85768D01*
X64426Y85871D01*
X64403Y85885D01*
X64384Y85902D01*
X64254Y85974D01*
X64127Y86050D01*
X64102Y86058D01*
X64079Y86071D01*
X63936Y86111D01*
X63795Y86157D01*
X63769Y86159D01*
X63743Y86166D01*
X63500Y86185D01*
X57459Y86185D01*
X57459Y87997D01*
X57632Y88643D01*
X57967Y89222D01*
X58048Y89303D01*
X58065Y89324D01*
X58085Y89342D01*
X58173Y89461D01*
X58265Y89576D01*
X58276Y89601D01*
X58292Y89622D01*
X58351Y89758D01*
X58414Y89891D01*
X58419Y89918D01*
X58430Y89942D01*
X58456Y90087D01*
X58487Y90232D01*
X58487Y90259D01*
X58491Y90285D01*
X58484Y90433D01*
X58481Y90580D01*
X58475Y90604D01*
X58475Y94679D01*
X58461Y94805D01*
X58454Y94931D01*
X58441Y94977D01*
X58435Y95025D01*
X58393Y95144D01*
X58358Y95266D01*
X58334Y95308D01*
X58318Y95353D01*
X58249Y95460D01*
X58188Y95570D01*
X58148Y95616D01*
X58129Y95646D01*
X58094Y95680D01*
X58029Y95756D01*
X43396Y110389D01*
X43396Y115262D01*
X43382Y115387D01*
X43375Y115514D01*
X43362Y115560D01*
X43357Y115608D01*
X43314Y115727D01*
X43279Y115849D01*
X43255Y115891D01*
X43239Y115936D01*
X43170Y116042D01*
X43109Y116153D01*
X43069Y116199D01*
X43050Y116229D01*
X43015Y116263D01*
X42950Y116339D01*
X41358Y117931D01*
X41259Y118010D01*
X41165Y118094D01*
X41123Y118118D01*
X41085Y118148D01*
X40971Y118202D01*
X40860Y118263D01*
X40814Y118276D01*
X40770Y118297D01*
X40647Y118323D01*
X40525Y118358D01*
X40464Y118363D01*
X40429Y118370D01*
X40381Y118369D01*
X40281Y118377D01*
X35077Y118377D01*
X34952Y118363D01*
X34825Y118356D01*
X34779Y118343D01*
X34731Y118337D01*
X34612Y118295D01*
X34491Y118260D01*
X34448Y118236D01*
X34403Y118220D01*
X34297Y118151D01*
X34186Y118090D01*
X34140Y118050D01*
X34110Y118031D01*
X34077Y117996D01*
X34000Y117931D01*
X33938Y117869D01*
X33359Y117534D01*
X32713Y117361D01*
X31651Y117361D01*
X31651Y126902D01*
X31651Y136443D01*
X32056Y136443D01*
X32082Y136446D01*
X32108Y136444D01*
X32255Y136466D01*
X32402Y136483D01*
X32427Y136491D01*
X32453Y136495D01*
X32591Y136550D01*
X32730Y136600D01*
X32752Y136614D01*
X32777Y136624D01*
X32898Y136708D01*
X33023Y136789D01*
X33041Y136808D01*
X33063Y136823D01*
X33162Y136933D01*
X33265Y137040D01*
X33279Y137062D01*
X33296Y137082D01*
X33368Y137212D01*
X33444Y137339D01*
X33452Y137364D01*
X33465Y137387D01*
X33505Y137530D01*
X33550Y137671D01*
X33552Y137697D01*
X33560Y137722D01*
X33579Y137966D01*
X33579Y142713D01*
X33971Y143105D01*
X34050Y143204D01*
X34134Y143298D01*
X34158Y143340D01*
X34188Y143378D01*
X34242Y143492D01*
X34303Y143603D01*
X34316Y143649D01*
X34337Y143693D01*
X34363Y143816D01*
X34398Y143938D01*
X34403Y143999D01*
X34410Y144034D01*
X34409Y144082D01*
X34417Y144182D01*
X34417Y147896D01*
X35661Y149140D01*
X35684Y149168D01*
X35711Y149191D01*
X35792Y149304D01*
X35878Y149413D01*
X35893Y149445D01*
X35914Y149474D01*
X35968Y149603D01*
X36027Y149728D01*
X36035Y149763D01*
X36048Y149796D01*
X36071Y149933D01*
X36100Y150069D01*
X36100Y150104D01*
X36106Y150140D01*
X36097Y150279D01*
X36094Y150417D01*
X36086Y150452D01*
X36083Y150488D01*
X36043Y150621D01*
X36009Y150755D01*
X35993Y150787D01*
X35983Y150821D01*
X35913Y150942D01*
X35850Y151065D01*
X35827Y151092D01*
X35809Y151123D01*
X35714Y151225D01*
X35624Y151330D01*
X35595Y151352D01*
X35571Y151378D01*
X35455Y151455D01*
X35344Y151537D01*
X35311Y151552D01*
X35281Y151572D01*
X35055Y151666D01*
X28157Y153907D01*
X28068Y153925D01*
X27981Y153953D01*
X27898Y153959D01*
X27815Y153976D01*
X27724Y153973D01*
X27634Y153981D01*
X27551Y153968D01*
X27467Y153966D01*
X27379Y153942D01*
X27289Y153929D01*
X27211Y153898D01*
X27130Y153876D01*
X27050Y153834D01*
X26965Y153800D01*
X26896Y153752D01*
X26822Y153713D01*
X26753Y153653D01*
X26679Y153601D01*
X26623Y153539D01*
X26560Y153484D01*
X26506Y153410D01*
X26446Y153343D01*
X26405Y153269D01*
X26356Y153201D01*
X26321Y153117D01*
X26277Y153037D01*
X26254Y152957D01*
X26222Y152879D01*
X26207Y152790D01*
X26182Y152702D01*
X26173Y152585D01*
X26165Y152535D01*
X26167Y152506D01*
X26163Y152458D01*
X26163Y137966D01*
X26166Y137940D01*
X26164Y137914D01*
X26186Y137767D01*
X26203Y137620D01*
X26211Y137595D01*
X26215Y137569D01*
X26270Y137431D01*
X26320Y137292D01*
X26334Y137270D01*
X26344Y137245D01*
X26429Y137124D01*
X26509Y136999D01*
X26528Y136981D01*
X26543Y136959D01*
X26653Y136860D01*
X26760Y136757D01*
X26782Y136743D01*
X26802Y136726D01*
X26932Y136654D01*
X27059Y136578D01*
X27084Y136570D01*
X27107Y136557D01*
X27250Y136517D01*
X27391Y136472D01*
X27417Y136470D01*
X27442Y136462D01*
X27686Y136443D01*
X28605Y136443D01*
X28605Y126902D01*
X28605Y117361D01*
X27686Y117361D01*
X27660Y117358D01*
X27634Y117360D01*
X27487Y117338D01*
X27340Y117321D01*
X27315Y117313D01*
X27289Y117309D01*
X27151Y117254D01*
X27012Y117204D01*
X26990Y117190D01*
X26965Y117180D01*
X26844Y117095D01*
X26719Y117015D01*
X26701Y116996D01*
X26679Y116981D01*
X26580Y116871D01*
X26477Y116764D01*
X26463Y116742D01*
X26446Y116722D01*
X26374Y116592D01*
X26298Y116465D01*
X26290Y116440D01*
X26277Y116417D01*
X26237Y116274D01*
X26192Y116133D01*
X26190Y116107D01*
X26182Y116082D01*
X26163Y115838D01*
X26163Y92950D01*
X26166Y92924D01*
X26164Y92898D01*
X26186Y92751D01*
X26203Y92604D01*
X26211Y92579D01*
X26215Y92553D01*
X26270Y92415D01*
X26320Y92276D01*
X26334Y92254D01*
X26344Y92229D01*
X26429Y92108D01*
X26509Y91983D01*
X26528Y91965D01*
X26543Y91943D01*
X26653Y91844D01*
X26760Y91741D01*
X26782Y91727D01*
X26802Y91710D01*
X26932Y91638D01*
X27059Y91562D01*
X27084Y91554D01*
X27107Y91541D01*
X27250Y91501D01*
X27391Y91456D01*
X27417Y91454D01*
X27442Y91446D01*
X27686Y91427D01*
X52510Y91427D01*
X53403Y90534D01*
X53403Y75270D01*
X52497Y74365D01*
X52436Y74364D01*
X52364Y74346D01*
X52290Y74337D01*
X52196Y74304D01*
X52098Y74279D01*
X52032Y74245D01*
X51962Y74220D01*
X51878Y74165D01*
X51788Y74119D01*
X51732Y74071D01*
X51669Y74031D01*
X51600Y73959D01*
X51523Y73894D01*
X51479Y73834D01*
X51427Y73780D01*
X51376Y73694D01*
X51316Y73613D01*
X51286Y73545D01*
X51248Y73481D01*
X51218Y73386D01*
X51178Y73293D01*
X51165Y73220D01*
X51142Y73149D01*
X51134Y73049D01*
X51116Y72950D01*
X51120Y72876D01*
X51114Y72802D01*
X51129Y72703D01*
X51134Y72602D01*
X51155Y72531D01*
X51166Y72457D01*
X51203Y72364D01*
X51231Y72267D01*
X51267Y72202D01*
X51295Y72133D01*
X51352Y72051D01*
X51401Y71963D01*
X51403Y71961D01*
X51403Y70612D01*
X51406Y70586D01*
X51404Y70560D01*
X51426Y70413D01*
X51443Y70266D01*
X51451Y70241D01*
X51455Y70215D01*
X51510Y70077D01*
X51560Y69938D01*
X51574Y69916D01*
X51584Y69891D01*
X51669Y69770D01*
X51749Y69645D01*
X51768Y69627D01*
X51783Y69605D01*
X51893Y69506D01*
X52000Y69403D01*
X52022Y69389D01*
X52042Y69372D01*
X52172Y69300D01*
X52299Y69224D01*
X52324Y69216D01*
X52347Y69203D01*
X52490Y69163D01*
X52631Y69118D01*
X52657Y69116D01*
X52682Y69108D01*
X52926Y69089D01*
X56827Y69089D01*
X58613Y67303D01*
X73295Y52621D01*
X73355Y52573D01*
X73408Y52518D01*
X73491Y52465D01*
X73568Y52404D01*
X73637Y52371D01*
X73702Y52330D01*
X73794Y52297D01*
X73883Y52255D01*
X73958Y52239D01*
X74030Y52214D01*
X74128Y52202D01*
X74224Y52182D01*
X74300Y52183D01*
X74376Y52175D01*
X74474Y52186D01*
G37*
G36*
X53112Y36326D02*
X53112Y36326D01*
X53138Y36324D01*
X53285Y36346D01*
X53432Y36363D01*
X53457Y36371D01*
X53483Y36375D01*
X53621Y36430D01*
X53760Y36480D01*
X53782Y36494D01*
X53807Y36504D01*
X53928Y36589D01*
X54053Y36669D01*
X54071Y36688D01*
X54093Y36703D01*
X54192Y36813D01*
X54295Y36920D01*
X54309Y36942D01*
X54326Y36962D01*
X54398Y37092D01*
X54474Y37219D01*
X54482Y37244D01*
X54495Y37267D01*
X54535Y37410D01*
X54580Y37551D01*
X54582Y37577D01*
X54590Y37602D01*
X54609Y37846D01*
X54609Y53293D01*
X55970Y52850D01*
X57395Y52124D01*
X58689Y51184D01*
X59820Y50053D01*
X60760Y48759D01*
X61486Y47334D01*
X61981Y45813D01*
X62231Y44234D01*
X62231Y37846D01*
X62234Y37820D01*
X62232Y37794D01*
X62254Y37647D01*
X62271Y37500D01*
X62279Y37475D01*
X62283Y37449D01*
X62338Y37311D01*
X62388Y37172D01*
X62402Y37150D01*
X62412Y37125D01*
X62497Y37004D01*
X62577Y36879D01*
X62596Y36861D01*
X62611Y36839D01*
X62721Y36740D01*
X62828Y36637D01*
X62850Y36623D01*
X62870Y36606D01*
X63000Y36534D01*
X63127Y36458D01*
X63152Y36450D01*
X63175Y36437D01*
X63318Y36397D01*
X63459Y36352D01*
X63485Y36350D01*
X63510Y36342D01*
X63754Y36323D01*
X66802Y36323D01*
X66828Y36326D01*
X66854Y36324D01*
X67001Y36346D01*
X67148Y36363D01*
X67173Y36371D01*
X67199Y36375D01*
X67337Y36430D01*
X67476Y36480D01*
X67498Y36494D01*
X67523Y36504D01*
X67644Y36589D01*
X67769Y36669D01*
X67787Y36688D01*
X67809Y36703D01*
X67908Y36813D01*
X68011Y36920D01*
X68025Y36942D01*
X68042Y36962D01*
X68114Y37092D01*
X68190Y37219D01*
X68198Y37244D01*
X68211Y37267D01*
X68251Y37410D01*
X68296Y37551D01*
X68298Y37577D01*
X68306Y37602D01*
X68325Y37846D01*
X68325Y45253D01*
X69655Y48463D01*
X69676Y48537D01*
X69706Y48607D01*
X69724Y48704D01*
X69751Y48798D01*
X69754Y48875D01*
X69768Y48950D01*
X69763Y49048D01*
X69768Y49146D01*
X69754Y49222D01*
X69750Y49298D01*
X69723Y49392D01*
X69705Y49489D01*
X69675Y49559D01*
X69653Y49633D01*
X69605Y49719D01*
X69566Y49809D01*
X69521Y49870D01*
X69483Y49937D01*
X69387Y50051D01*
X69358Y50089D01*
X69344Y50101D01*
X69325Y50123D01*
X55379Y64069D01*
X55280Y64148D01*
X55186Y64232D01*
X55144Y64256D01*
X55106Y64286D01*
X54992Y64340D01*
X54881Y64401D01*
X54835Y64414D01*
X54791Y64435D01*
X54667Y64461D01*
X54546Y64496D01*
X54485Y64501D01*
X54450Y64508D01*
X54402Y64507D01*
X54302Y64515D01*
X52926Y64515D01*
X52900Y64512D01*
X52874Y64514D01*
X52727Y64492D01*
X52580Y64475D01*
X52555Y64467D01*
X52529Y64463D01*
X52391Y64408D01*
X52252Y64358D01*
X52230Y64344D01*
X52205Y64334D01*
X52084Y64249D01*
X51959Y64169D01*
X51941Y64150D01*
X51919Y64135D01*
X51820Y64025D01*
X51717Y63918D01*
X51703Y63896D01*
X51686Y63876D01*
X51614Y63746D01*
X51538Y63619D01*
X51530Y63594D01*
X51517Y63571D01*
X51477Y63428D01*
X51432Y63287D01*
X51430Y63261D01*
X51422Y63236D01*
X51403Y62992D01*
X51403Y61670D01*
X50510Y60777D01*
X43740Y60777D01*
X43714Y60774D01*
X43688Y60776D01*
X43541Y60754D01*
X43394Y60737D01*
X43369Y60729D01*
X43343Y60725D01*
X43205Y60670D01*
X43066Y60620D01*
X43044Y60606D01*
X43019Y60596D01*
X42898Y60511D01*
X42773Y60431D01*
X42755Y60412D01*
X42733Y60397D01*
X42634Y60287D01*
X42531Y60180D01*
X42517Y60158D01*
X42500Y60138D01*
X42428Y60008D01*
X42352Y59881D01*
X42344Y59856D01*
X42331Y59833D01*
X42291Y59690D01*
X42246Y59549D01*
X42244Y59523D01*
X42236Y59498D01*
X42217Y59254D01*
X42217Y51628D01*
X42228Y51528D01*
X42230Y51427D01*
X42248Y51355D01*
X42257Y51281D01*
X42290Y51187D01*
X42315Y51089D01*
X42349Y51023D01*
X42374Y50953D01*
X42429Y50869D01*
X42475Y50780D01*
X42523Y50723D01*
X42563Y50660D01*
X42635Y50591D01*
X42700Y50514D01*
X42760Y50470D01*
X42814Y50418D01*
X42900Y50367D01*
X42981Y50307D01*
X43049Y50278D01*
X43113Y50239D01*
X43208Y50209D01*
X43301Y50169D01*
X43374Y50156D01*
X43445Y50133D01*
X43545Y50125D01*
X43644Y50107D01*
X43718Y50111D01*
X43792Y50105D01*
X43891Y50120D01*
X43992Y50125D01*
X44063Y50146D01*
X44137Y50157D01*
X44230Y50194D01*
X44327Y50222D01*
X44392Y50258D01*
X44461Y50286D01*
X44543Y50343D01*
X44631Y50392D01*
X44707Y50457D01*
X44747Y50485D01*
X44771Y50511D01*
X44817Y50551D01*
X45451Y51184D01*
X46745Y52124D01*
X48170Y52850D01*
X49531Y53293D01*
X49531Y37846D01*
X49534Y37820D01*
X49532Y37794D01*
X49554Y37647D01*
X49571Y37500D01*
X49579Y37475D01*
X49583Y37449D01*
X49638Y37311D01*
X49688Y37172D01*
X49702Y37150D01*
X49712Y37125D01*
X49797Y37004D01*
X49877Y36879D01*
X49896Y36861D01*
X49911Y36839D01*
X50021Y36740D01*
X50128Y36637D01*
X50150Y36623D01*
X50170Y36606D01*
X50300Y36534D01*
X50427Y36458D01*
X50452Y36450D01*
X50475Y36437D01*
X50618Y36397D01*
X50759Y36352D01*
X50785Y36350D01*
X50810Y36342D01*
X51054Y36323D01*
X53086Y36323D01*
X53112Y36326D01*
G37*
G36*
X76580Y132401D02*
X76580Y132401D01*
X76654Y132402D01*
X76751Y132427D01*
X76851Y132441D01*
X76920Y132469D01*
X76992Y132487D01*
X77082Y132533D01*
X77175Y132570D01*
X77236Y132613D01*
X77302Y132647D01*
X77379Y132712D01*
X77461Y132769D01*
X77511Y132824D01*
X77567Y132873D01*
X77627Y132953D01*
X77694Y133028D01*
X77730Y133093D01*
X77775Y133153D01*
X77814Y133245D01*
X77863Y133333D01*
X77883Y133405D01*
X77913Y133473D01*
X77930Y133572D01*
X77958Y133668D01*
X77966Y133768D01*
X77974Y133816D01*
X77972Y133852D01*
X77977Y133912D01*
X77977Y152688D01*
X77976Y152700D01*
X77977Y152712D01*
X77956Y152873D01*
X77937Y153034D01*
X77933Y153045D01*
X77932Y153057D01*
X77874Y153210D01*
X77820Y153362D01*
X77813Y153372D01*
X77809Y153383D01*
X77719Y153518D01*
X77631Y153655D01*
X77622Y153663D01*
X77616Y153673D01*
X77498Y153784D01*
X77380Y153897D01*
X77370Y153903D01*
X77361Y153911D01*
X77221Y153993D01*
X77081Y154076D01*
X77070Y154080D01*
X77060Y154086D01*
X76904Y154133D01*
X76749Y154182D01*
X76737Y154183D01*
X76726Y154187D01*
X76563Y154197D01*
X76402Y154210D01*
X76390Y154209D01*
X76378Y154209D01*
X76217Y154183D01*
X76057Y154159D01*
X76046Y154154D01*
X76034Y154152D01*
X75805Y154066D01*
X70855Y151737D01*
X56357Y148971D01*
X56302Y148954D01*
X56245Y148945D01*
X56136Y148902D01*
X56024Y148867D01*
X55975Y148838D01*
X55921Y148817D01*
X55825Y148750D01*
X55724Y148690D01*
X55682Y148650D01*
X55635Y148618D01*
X55556Y148531D01*
X55471Y148449D01*
X55440Y148401D01*
X55402Y148359D01*
X55345Y148256D01*
X55281Y148158D01*
X55261Y148104D01*
X55233Y148054D01*
X55201Y147941D01*
X55161Y147831D01*
X55154Y147774D01*
X55138Y147718D01*
X55121Y147503D01*
X55119Y147485D01*
X55119Y147481D01*
X55119Y147475D01*
X55119Y147073D01*
X53913Y145867D01*
X53834Y145768D01*
X53750Y145674D01*
X53726Y145632D01*
X53696Y145594D01*
X53642Y145480D01*
X53581Y145369D01*
X53568Y145323D01*
X53547Y145279D01*
X53521Y145156D01*
X53486Y145034D01*
X53481Y144973D01*
X53474Y144939D01*
X53475Y144891D01*
X53467Y144790D01*
X53467Y140518D01*
X53470Y140492D01*
X53468Y140466D01*
X53490Y140319D01*
X53507Y140172D01*
X53515Y140147D01*
X53519Y140121D01*
X53574Y139983D01*
X53624Y139844D01*
X53638Y139822D01*
X53648Y139797D01*
X53733Y139676D01*
X53813Y139551D01*
X53832Y139533D01*
X53847Y139511D01*
X53957Y139412D01*
X54064Y139309D01*
X54086Y139295D01*
X54106Y139278D01*
X54236Y139206D01*
X54363Y139130D01*
X54388Y139122D01*
X54411Y139109D01*
X54554Y139069D01*
X54695Y139024D01*
X54721Y139022D01*
X54746Y139014D01*
X54990Y138995D01*
X69217Y138995D01*
X75377Y132835D01*
X75455Y132773D01*
X75528Y132703D01*
X75592Y132665D01*
X75650Y132618D01*
X75741Y132575D01*
X75827Y132524D01*
X75898Y132501D01*
X75965Y132469D01*
X76063Y132448D01*
X76159Y132418D01*
X76233Y132412D01*
X76306Y132396D01*
X76406Y132398D01*
X76506Y132390D01*
X76580Y132401D01*
G37*
G36*
X35382Y48349D02*
X35382Y48349D01*
X35529Y48351D01*
X35555Y48358D01*
X35581Y48359D01*
X35724Y48400D01*
X35867Y48436D01*
X35891Y48448D01*
X35916Y48456D01*
X36045Y48528D01*
X36177Y48596D01*
X36197Y48613D01*
X36220Y48626D01*
X36406Y48784D01*
X37197Y49575D01*
X37276Y49674D01*
X37360Y49768D01*
X37384Y49810D01*
X37414Y49848D01*
X37468Y49962D01*
X37529Y50073D01*
X37542Y50120D01*
X37563Y50163D01*
X37589Y50287D01*
X37624Y50408D01*
X37629Y50469D01*
X37636Y50504D01*
X37635Y50552D01*
X37643Y50652D01*
X37643Y58238D01*
X37640Y58264D01*
X37642Y58290D01*
X37620Y58437D01*
X37603Y58584D01*
X37595Y58609D01*
X37591Y58635D01*
X37536Y58773D01*
X37486Y58912D01*
X37472Y58934D01*
X37462Y58959D01*
X37377Y59080D01*
X37297Y59205D01*
X37278Y59223D01*
X37263Y59245D01*
X37153Y59344D01*
X37046Y59447D01*
X37024Y59461D01*
X37004Y59478D01*
X36874Y59550D01*
X36747Y59626D01*
X36722Y59634D01*
X36699Y59647D01*
X36556Y59687D01*
X36415Y59732D01*
X36389Y59734D01*
X36364Y59742D01*
X36120Y59761D01*
X35127Y59761D01*
X35127Y66576D01*
X35124Y66602D01*
X35126Y66628D01*
X35104Y66775D01*
X35087Y66922D01*
X35079Y66947D01*
X35075Y66973D01*
X35020Y67110D01*
X34970Y67250D01*
X34956Y67272D01*
X34946Y67297D01*
X34861Y67418D01*
X34781Y67543D01*
X34762Y67561D01*
X34747Y67583D01*
X34637Y67682D01*
X34530Y67785D01*
X34508Y67799D01*
X34488Y67816D01*
X34421Y67853D01*
X34409Y67870D01*
X34329Y67995D01*
X34310Y68013D01*
X34295Y68035D01*
X34185Y68134D01*
X34078Y68237D01*
X34055Y68251D01*
X34036Y68268D01*
X33906Y68340D01*
X33779Y68416D01*
X33754Y68424D01*
X33731Y68437D01*
X33588Y68477D01*
X33447Y68522D01*
X33421Y68524D01*
X33396Y68532D01*
X33152Y68551D01*
X27686Y68551D01*
X27660Y68548D01*
X27634Y68550D01*
X27487Y68528D01*
X27340Y68511D01*
X27315Y68503D01*
X27289Y68499D01*
X27151Y68444D01*
X27012Y68394D01*
X26990Y68380D01*
X26965Y68370D01*
X26844Y68285D01*
X26719Y68205D01*
X26701Y68186D01*
X26679Y68171D01*
X26580Y68061D01*
X26477Y67954D01*
X26463Y67932D01*
X26446Y67912D01*
X26374Y67782D01*
X26298Y67655D01*
X26290Y67630D01*
X26277Y67607D01*
X26237Y67464D01*
X26192Y67323D01*
X26190Y67297D01*
X26182Y67272D01*
X26163Y67028D01*
X26163Y66576D01*
X26166Y66550D01*
X26164Y66524D01*
X26186Y66377D01*
X26203Y66230D01*
X26211Y66205D01*
X26215Y66179D01*
X26270Y66041D01*
X26320Y65902D01*
X26334Y65880D01*
X26344Y65855D01*
X26429Y65734D01*
X26509Y65609D01*
X26528Y65591D01*
X26543Y65569D01*
X26653Y65470D01*
X26760Y65367D01*
X26782Y65353D01*
X26802Y65336D01*
X26932Y65264D01*
X27059Y65188D01*
X27084Y65180D01*
X27107Y65167D01*
X27250Y65127D01*
X27391Y65082D01*
X27417Y65079D01*
X27442Y65072D01*
X27686Y65053D01*
X31629Y65053D01*
X31629Y59761D01*
X29543Y59761D01*
X28897Y59934D01*
X28448Y60194D01*
X28378Y60224D01*
X28313Y60263D01*
X28219Y60293D01*
X28128Y60333D01*
X28053Y60346D01*
X27981Y60369D01*
X27883Y60377D01*
X27785Y60395D01*
X27709Y60391D01*
X27634Y60397D01*
X27536Y60383D01*
X27437Y60378D01*
X27364Y60357D01*
X27289Y60346D01*
X27197Y60309D01*
X27102Y60282D01*
X27036Y60245D01*
X26965Y60217D01*
X26884Y60160D01*
X26797Y60112D01*
X26741Y60061D01*
X26679Y60018D01*
X26613Y59944D01*
X26539Y59878D01*
X26496Y59815D01*
X26446Y59759D01*
X26398Y59672D01*
X26342Y59591D01*
X26314Y59520D01*
X26277Y59454D01*
X26250Y59359D01*
X26214Y59267D01*
X26203Y59192D01*
X26182Y59119D01*
X26170Y58968D01*
X26163Y58922D01*
X26165Y58903D01*
X26163Y58875D01*
X26163Y54102D01*
X26166Y54076D01*
X26164Y54050D01*
X26186Y53903D01*
X26203Y53756D01*
X26211Y53731D01*
X26215Y53705D01*
X26270Y53567D01*
X26320Y53428D01*
X26334Y53406D01*
X26344Y53381D01*
X26429Y53260D01*
X26509Y53135D01*
X26528Y53117D01*
X26543Y53095D01*
X26653Y52996D01*
X26760Y52893D01*
X26782Y52879D01*
X26802Y52862D01*
X26932Y52790D01*
X27059Y52714D01*
X27084Y52706D01*
X27107Y52693D01*
X27250Y52653D01*
X27391Y52608D01*
X27417Y52606D01*
X27442Y52598D01*
X27686Y52579D01*
X28489Y52579D01*
X31850Y51187D01*
X34252Y48784D01*
X34273Y48768D01*
X34290Y48748D01*
X34409Y48660D01*
X34525Y48568D01*
X34549Y48557D01*
X34570Y48541D01*
X34706Y48482D01*
X34840Y48419D01*
X34866Y48413D01*
X34890Y48403D01*
X35037Y48377D01*
X35181Y48345D01*
X35207Y48346D01*
X35233Y48341D01*
X35382Y48349D01*
G37*
%LPC*%
G36*
X59665Y79121D02*
X59665Y79121D01*
X59019Y79294D01*
X58440Y79629D01*
X57967Y80102D01*
X57632Y80681D01*
X57459Y81327D01*
X57459Y83139D01*
X61977Y83139D01*
X61977Y79121D01*
X59665Y79121D01*
G37*
%LPD*%
D10*
X63500Y84662D03*
X63500Y94662D03*
X73660Y118030D03*
X73660Y108030D03*
D11*
X48942Y143764D03*
X38942Y143764D03*
D12*
X77470Y43434D02*
X77470Y28194D01*
X52070Y28194D02*
X52070Y43434D01*
X26670Y43434D02*
X26670Y28194D01*
D13*
X74676Y84178D03*
X74676Y97178D03*
X63246Y120546D03*
X63246Y107546D03*
D14*
X33378Y66802D03*
X46378Y66802D03*
D15*
X49628Y126902D03*
X43128Y126902D03*
X36628Y126902D03*
X30128Y126902D03*
X30128Y82902D03*
X36628Y82902D03*
X43128Y82902D03*
X49628Y82902D03*
D16*
X52070Y209550D03*
D17*
X30128Y117458D02*
X30128Y116684D01*
X30128Y117458D02*
X30128Y126902D01*
X30128Y117458D02*
X25042Y112372D01*
X25042Y73868D01*
X32108Y66802D01*
X33378Y66802D01*
D18*
X63754Y70358D03*
D17*
X63754Y83058D01*
X30128Y116684D01*
X74676Y84502D02*
X74676Y84178D01*
X63754Y84408D02*
X63500Y84662D01*
X63754Y84408D02*
X63754Y83058D01*
X63984Y84178D02*
X74676Y84178D01*
X63984Y84178D02*
X63754Y84408D01*
D18*
X73660Y144780D03*
D17*
X43128Y75132D02*
X46378Y71882D01*
X46378Y66802D01*
X43128Y75132D02*
X43128Y82902D01*
X46378Y66802D02*
X55880Y66802D01*
X77470Y45212D02*
X77470Y35814D01*
X77470Y45212D02*
X55880Y66802D01*
X60756Y107546D02*
X63246Y107546D01*
X72197Y108030D02*
X73660Y108030D01*
X72197Y108030D02*
X71374Y107207D01*
X63585Y107207D02*
X63246Y107546D01*
X63585Y107207D02*
X71374Y107207D01*
X36628Y82902D02*
X36628Y75282D01*
X39930Y71980D01*
X39930Y49074D01*
X26670Y35814D01*
X43060Y126834D02*
X43128Y126902D01*
X43060Y126834D02*
X43060Y119463D01*
X45683Y116840D01*
X54436Y114300D02*
X58166Y118030D01*
X60730Y118030D02*
X73660Y118030D01*
X54436Y114300D02*
X45683Y114300D01*
X71120Y118030D02*
X73660Y118030D01*
X63246Y120546D02*
X61468Y120546D01*
X62357Y94662D02*
X63500Y94662D01*
X62357Y94662D02*
X45683Y111336D01*
X45683Y114300D01*
X45683Y116840D01*
X60730Y118030D02*
X63246Y120546D01*
X60730Y118030D02*
X58166Y118030D01*
X37403Y136708D02*
X36560Y135865D01*
X37403Y136708D02*
X68270Y136708D01*
X79756Y125222D02*
X79756Y99718D01*
X77216Y97178D01*
X74676Y97178D01*
X79756Y125222D02*
X68270Y136708D01*
D19*
X38942Y143764D02*
X36628Y141450D01*
X36628Y126902D01*
X36560Y133858D02*
X36560Y135636D01*
X36560Y126970D02*
X36628Y126902D01*
X36560Y126970D02*
X36560Y135865D01*
X36560Y135636D02*
X36628Y135568D01*
X36628Y126902D01*
X48942Y143764D02*
X48942Y145208D01*
X52070Y148336D02*
X52070Y209550D01*
X52070Y148336D02*
X48942Y145208D01*
M02*
