G04 EAGLE Gerber RS-274X export*
G75*
%MOMM*%
%FSLAX34Y34*%
%LPD*%
%INTop Copper*%
%IPPOS*%
%AMOC8*
5,1,8,0,0,1.08239X$1,22.5*%
G01*
%ADD10R,0.700000X0.600000*%
%ADD11R,0.600000X0.700000*%
%ADD12C,1.524000*%
%ADD13R,0.900000X0.700000*%
%ADD14R,0.700000X0.900000*%
%ADD15R,0.450000X1.400000*%
%ADD16C,8.000000*%
%ADD17C,0.152400*%
%ADD18C,0.756400*%
%ADD19C,0.304800*%

G36*
X74474Y52186D02*
X74474Y52186D01*
X74572Y52188D01*
X74647Y52206D01*
X74722Y52215D01*
X74864Y52261D01*
X74910Y52273D01*
X74928Y52282D01*
X74955Y52291D01*
X75651Y52579D01*
X76454Y52579D01*
X76480Y52582D01*
X76506Y52580D01*
X76653Y52602D01*
X76800Y52619D01*
X76825Y52627D01*
X76851Y52631D01*
X76989Y52686D01*
X77128Y52736D01*
X77150Y52750D01*
X77175Y52760D01*
X77296Y52845D01*
X77421Y52925D01*
X77439Y52944D01*
X77461Y52959D01*
X77560Y53069D01*
X77663Y53176D01*
X77677Y53198D01*
X77694Y53218D01*
X77766Y53348D01*
X77842Y53475D01*
X77850Y53500D01*
X77863Y53523D01*
X77903Y53666D01*
X77948Y53807D01*
X77950Y53833D01*
X77958Y53858D01*
X77977Y54102D01*
X77977Y76614D01*
X77974Y76640D01*
X77976Y76666D01*
X77954Y76813D01*
X77937Y76960D01*
X77929Y76985D01*
X77925Y77011D01*
X77870Y77149D01*
X77820Y77288D01*
X77806Y77310D01*
X77796Y77335D01*
X77711Y77456D01*
X77631Y77581D01*
X77612Y77599D01*
X77597Y77621D01*
X77488Y77720D01*
X77380Y77823D01*
X77358Y77837D01*
X77338Y77854D01*
X77209Y77926D01*
X77081Y78002D01*
X77056Y78010D01*
X77033Y78023D01*
X76890Y78063D01*
X76749Y78108D01*
X76723Y78110D01*
X76698Y78118D01*
X76454Y78137D01*
X72381Y78137D01*
X71735Y78310D01*
X71156Y78645D01*
X71126Y78675D01*
X71027Y78754D01*
X70933Y78838D01*
X70891Y78862D01*
X70853Y78892D01*
X70738Y78946D01*
X70628Y79007D01*
X70581Y79020D01*
X70538Y79041D01*
X70414Y79067D01*
X70292Y79102D01*
X70232Y79107D01*
X70197Y79114D01*
X70149Y79113D01*
X70049Y79121D01*
X67563Y79121D01*
X67563Y84662D01*
X67560Y84688D01*
X67562Y84714D01*
X67540Y84861D01*
X67524Y85008D01*
X67515Y85033D01*
X67511Y85059D01*
X67456Y85196D01*
X67406Y85336D01*
X67392Y85358D01*
X67382Y85382D01*
X67298Y85504D01*
X67217Y85629D01*
X67198Y85647D01*
X67183Y85669D01*
X67073Y85768D01*
X66966Y85871D01*
X66943Y85885D01*
X66924Y85902D01*
X66794Y85974D01*
X66667Y86050D01*
X66642Y86058D01*
X66619Y86071D01*
X66476Y86111D01*
X66335Y86157D01*
X66309Y86159D01*
X66283Y86166D01*
X66040Y86185D01*
X59999Y86185D01*
X59999Y87997D01*
X60172Y88643D01*
X60507Y89222D01*
X60588Y89303D01*
X60605Y89324D01*
X60625Y89342D01*
X60713Y89461D01*
X60805Y89576D01*
X60816Y89601D01*
X60832Y89622D01*
X60891Y89758D01*
X60954Y89891D01*
X60959Y89918D01*
X60970Y89942D01*
X60996Y90087D01*
X61027Y90232D01*
X61027Y90259D01*
X61031Y90285D01*
X61024Y90433D01*
X61021Y90580D01*
X61015Y90604D01*
X61015Y94679D01*
X61001Y94805D01*
X60994Y94931D01*
X60981Y94977D01*
X60975Y95025D01*
X60933Y95144D01*
X60898Y95266D01*
X60874Y95308D01*
X60858Y95353D01*
X60789Y95460D01*
X60728Y95570D01*
X60688Y95616D01*
X60669Y95646D01*
X60634Y95680D01*
X60569Y95756D01*
X45936Y110389D01*
X45936Y115262D01*
X45922Y115387D01*
X45915Y115514D01*
X45902Y115560D01*
X45897Y115608D01*
X45854Y115727D01*
X45819Y115849D01*
X45795Y115891D01*
X45779Y115936D01*
X45710Y116042D01*
X45649Y116153D01*
X45609Y116199D01*
X45590Y116229D01*
X45555Y116263D01*
X45490Y116339D01*
X43898Y117931D01*
X43799Y118010D01*
X43705Y118094D01*
X43663Y118118D01*
X43625Y118148D01*
X43511Y118202D01*
X43400Y118263D01*
X43354Y118276D01*
X43310Y118297D01*
X43187Y118323D01*
X43065Y118358D01*
X43004Y118363D01*
X42969Y118370D01*
X42921Y118369D01*
X42821Y118377D01*
X37617Y118377D01*
X37492Y118363D01*
X37365Y118356D01*
X37319Y118343D01*
X37271Y118337D01*
X37152Y118295D01*
X37031Y118260D01*
X36988Y118236D01*
X36943Y118220D01*
X36837Y118151D01*
X36726Y118090D01*
X36680Y118050D01*
X36650Y118031D01*
X36617Y117996D01*
X36540Y117931D01*
X36478Y117869D01*
X35899Y117534D01*
X35253Y117361D01*
X34191Y117361D01*
X34191Y126902D01*
X34191Y136471D01*
X34202Y136474D01*
X34276Y136483D01*
X34370Y136516D01*
X34468Y136541D01*
X34534Y136575D01*
X34604Y136600D01*
X34688Y136655D01*
X34778Y136701D01*
X34834Y136749D01*
X34897Y136789D01*
X34966Y136861D01*
X35043Y136926D01*
X35087Y136986D01*
X35139Y137040D01*
X35190Y137126D01*
X35250Y137207D01*
X35280Y137275D01*
X35318Y137339D01*
X35348Y137435D01*
X35388Y137527D01*
X35401Y137600D01*
X35424Y137671D01*
X35432Y137771D01*
X35450Y137870D01*
X35446Y137944D01*
X35452Y138018D01*
X35437Y138117D01*
X35432Y138218D01*
X35411Y138289D01*
X35400Y138363D01*
X35363Y138456D01*
X35335Y138553D01*
X35299Y138618D01*
X35272Y138687D01*
X35214Y138769D01*
X35165Y138857D01*
X35100Y138933D01*
X35073Y138973D01*
X35046Y138997D01*
X35007Y139043D01*
X34417Y139632D01*
X34417Y147896D01*
X35661Y149140D01*
X35684Y149168D01*
X35711Y149191D01*
X35792Y149304D01*
X35878Y149413D01*
X35893Y149445D01*
X35914Y149474D01*
X35968Y149603D01*
X36027Y149728D01*
X36035Y149763D01*
X36048Y149796D01*
X36071Y149933D01*
X36100Y150069D01*
X36100Y150104D01*
X36106Y150140D01*
X36097Y150279D01*
X36094Y150417D01*
X36086Y150452D01*
X36083Y150488D01*
X36043Y150621D01*
X36009Y150755D01*
X35993Y150787D01*
X35983Y150821D01*
X35913Y150942D01*
X35850Y151065D01*
X35827Y151092D01*
X35809Y151123D01*
X35714Y151225D01*
X35624Y151330D01*
X35595Y151352D01*
X35571Y151378D01*
X35455Y151455D01*
X35344Y151537D01*
X35311Y151552D01*
X35281Y151572D01*
X35055Y151666D01*
X28157Y153907D01*
X28068Y153925D01*
X27981Y153953D01*
X27898Y153959D01*
X27815Y153976D01*
X27724Y153973D01*
X27634Y153981D01*
X27551Y153968D01*
X27467Y153966D01*
X27379Y153942D01*
X27289Y153929D01*
X27211Y153898D01*
X27130Y153876D01*
X27050Y153834D01*
X26965Y153800D01*
X26896Y153752D01*
X26822Y153713D01*
X26753Y153653D01*
X26679Y153601D01*
X26623Y153539D01*
X26560Y153484D01*
X26506Y153410D01*
X26446Y153343D01*
X26405Y153269D01*
X26356Y153201D01*
X26321Y153117D01*
X26277Y153037D01*
X26254Y152957D01*
X26222Y152879D01*
X26207Y152790D01*
X26182Y152702D01*
X26173Y152585D01*
X26165Y152535D01*
X26167Y152506D01*
X26163Y152458D01*
X26163Y136917D01*
X26174Y136818D01*
X26176Y136717D01*
X26194Y136645D01*
X26203Y136571D01*
X26236Y136477D01*
X26261Y136379D01*
X26295Y136313D01*
X26320Y136243D01*
X26375Y136158D01*
X26421Y136069D01*
X26469Y136013D01*
X26509Y135950D01*
X26582Y135880D01*
X26647Y135804D01*
X26706Y135760D01*
X26760Y135708D01*
X26846Y135656D01*
X26927Y135597D01*
X26995Y135567D01*
X27059Y135529D01*
X27155Y135499D01*
X27247Y135459D01*
X27320Y135446D01*
X27391Y135423D01*
X27491Y135415D01*
X27590Y135397D01*
X27664Y135401D01*
X27738Y135395D01*
X27837Y135410D01*
X27938Y135415D01*
X28009Y135436D01*
X28083Y135447D01*
X28176Y135484D01*
X28273Y135512D01*
X28338Y135548D01*
X28407Y135575D01*
X28489Y135633D01*
X28577Y135682D01*
X28653Y135747D01*
X28693Y135774D01*
X28717Y135801D01*
X28763Y135840D01*
X28858Y135935D01*
X29437Y136270D01*
X30083Y136443D01*
X31145Y136443D01*
X31145Y126902D01*
X31145Y117361D01*
X30083Y117361D01*
X29437Y117534D01*
X28858Y117869D01*
X28763Y117964D01*
X28685Y118026D01*
X28612Y118096D01*
X28548Y118134D01*
X28490Y118180D01*
X28399Y118223D01*
X28313Y118275D01*
X28242Y118297D01*
X28175Y118329D01*
X28077Y118350D01*
X27981Y118381D01*
X27907Y118387D01*
X27834Y118403D01*
X27734Y118401D01*
X27634Y118409D01*
X27560Y118398D01*
X27486Y118397D01*
X27388Y118372D01*
X27289Y118357D01*
X27220Y118330D01*
X27148Y118312D01*
X27059Y118266D01*
X26965Y118229D01*
X26904Y118186D01*
X26838Y118152D01*
X26761Y118087D01*
X26679Y118030D01*
X26629Y117975D01*
X26573Y117926D01*
X26513Y117846D01*
X26446Y117771D01*
X26410Y117706D01*
X26366Y117646D01*
X26326Y117554D01*
X26277Y117466D01*
X26257Y117394D01*
X26227Y117326D01*
X26210Y117227D01*
X26182Y117130D01*
X26174Y117030D01*
X26166Y116983D01*
X26168Y116947D01*
X26163Y116887D01*
X26163Y91480D01*
X26174Y91381D01*
X26176Y91280D01*
X26194Y91208D01*
X26203Y91134D01*
X26236Y91040D01*
X26261Y90942D01*
X26295Y90876D01*
X26320Y90806D01*
X26375Y90722D01*
X26421Y90632D01*
X26469Y90576D01*
X26509Y90513D01*
X26581Y90444D01*
X26646Y90367D01*
X26706Y90323D01*
X26760Y90271D01*
X26846Y90220D01*
X26927Y90160D01*
X26995Y90130D01*
X27059Y90092D01*
X27155Y90062D01*
X27247Y90022D01*
X27320Y90009D01*
X27391Y89986D01*
X27491Y89978D01*
X27590Y89960D01*
X27664Y89964D01*
X27738Y89958D01*
X27838Y89973D01*
X27938Y89978D01*
X28009Y89999D01*
X28083Y90010D01*
X28176Y90047D01*
X28273Y90075D01*
X28338Y90111D01*
X28407Y90139D01*
X28489Y90196D01*
X28577Y90245D01*
X28653Y90310D01*
X28693Y90337D01*
X28717Y90364D01*
X28763Y90403D01*
X29786Y91427D01*
X55050Y91427D01*
X55943Y90534D01*
X55943Y75270D01*
X55050Y74377D01*
X52636Y74377D01*
X52537Y74366D01*
X52436Y74364D01*
X52364Y74346D01*
X52290Y74337D01*
X52196Y74304D01*
X52098Y74279D01*
X52032Y74245D01*
X51962Y74220D01*
X51878Y74165D01*
X51788Y74119D01*
X51732Y74071D01*
X51669Y74031D01*
X51600Y73959D01*
X51523Y73894D01*
X51479Y73834D01*
X51427Y73780D01*
X51376Y73694D01*
X51316Y73613D01*
X51286Y73545D01*
X51248Y73481D01*
X51218Y73386D01*
X51178Y73293D01*
X51165Y73220D01*
X51142Y73149D01*
X51134Y73049D01*
X51116Y72950D01*
X51120Y72876D01*
X51114Y72802D01*
X51129Y72703D01*
X51134Y72602D01*
X51155Y72531D01*
X51166Y72457D01*
X51203Y72364D01*
X51231Y72267D01*
X51267Y72202D01*
X51295Y72133D01*
X51352Y72051D01*
X51401Y71963D01*
X51403Y71961D01*
X51403Y70612D01*
X51406Y70586D01*
X51404Y70560D01*
X51426Y70413D01*
X51443Y70266D01*
X51451Y70241D01*
X51455Y70215D01*
X51510Y70077D01*
X51560Y69938D01*
X51574Y69916D01*
X51584Y69891D01*
X51669Y69770D01*
X51749Y69645D01*
X51768Y69627D01*
X51783Y69605D01*
X51893Y69506D01*
X52000Y69403D01*
X52022Y69389D01*
X52042Y69372D01*
X52172Y69300D01*
X52299Y69224D01*
X52324Y69216D01*
X52347Y69203D01*
X52490Y69163D01*
X52631Y69118D01*
X52657Y69116D01*
X52682Y69108D01*
X52926Y69089D01*
X56827Y69089D01*
X58613Y67303D01*
X73295Y52621D01*
X73355Y52573D01*
X73408Y52518D01*
X73491Y52465D01*
X73568Y52404D01*
X73637Y52371D01*
X73702Y52330D01*
X73794Y52297D01*
X73883Y52255D01*
X73958Y52239D01*
X74030Y52214D01*
X74128Y52202D01*
X74224Y52182D01*
X74300Y52183D01*
X74376Y52175D01*
X74474Y52186D01*
G37*
G36*
X40412Y27436D02*
X40412Y27436D01*
X40438Y27434D01*
X40585Y27456D01*
X40732Y27473D01*
X40757Y27481D01*
X40783Y27485D01*
X40921Y27540D01*
X41060Y27590D01*
X41082Y27604D01*
X41107Y27614D01*
X41228Y27699D01*
X41353Y27779D01*
X41371Y27798D01*
X41393Y27813D01*
X41492Y27923D01*
X41595Y28030D01*
X41609Y28052D01*
X41626Y28072D01*
X41698Y28202D01*
X41774Y28329D01*
X41782Y28354D01*
X41795Y28377D01*
X41835Y28520D01*
X41880Y28661D01*
X41882Y28687D01*
X41890Y28712D01*
X41909Y28956D01*
X41909Y33275D01*
X51054Y33275D01*
X51080Y33278D01*
X51106Y33276D01*
X51253Y33298D01*
X51400Y33315D01*
X51425Y33323D01*
X51451Y33327D01*
X51588Y33382D01*
X51728Y33432D01*
X51750Y33446D01*
X51775Y33456D01*
X51896Y33541D01*
X52021Y33621D01*
X52039Y33640D01*
X52061Y33655D01*
X52075Y33671D01*
X52160Y33589D01*
X52183Y33575D01*
X52202Y33558D01*
X52332Y33486D01*
X52459Y33410D01*
X52484Y33402D01*
X52507Y33389D01*
X52650Y33349D01*
X52791Y33304D01*
X52817Y33301D01*
X52842Y33294D01*
X53086Y33275D01*
X62231Y33275D01*
X62231Y28956D01*
X62234Y28930D01*
X62232Y28904D01*
X62254Y28757D01*
X62271Y28610D01*
X62279Y28585D01*
X62283Y28559D01*
X62338Y28421D01*
X62388Y28282D01*
X62402Y28260D01*
X62412Y28235D01*
X62497Y28114D01*
X62577Y27989D01*
X62596Y27971D01*
X62611Y27949D01*
X62721Y27850D01*
X62828Y27747D01*
X62850Y27733D01*
X62870Y27716D01*
X63000Y27644D01*
X63127Y27568D01*
X63152Y27560D01*
X63175Y27547D01*
X63318Y27507D01*
X63459Y27462D01*
X63485Y27460D01*
X63510Y27452D01*
X63754Y27433D01*
X66802Y27433D01*
X66828Y27436D01*
X66854Y27434D01*
X67001Y27456D01*
X67148Y27473D01*
X67173Y27481D01*
X67199Y27485D01*
X67337Y27540D01*
X67476Y27590D01*
X67498Y27604D01*
X67523Y27614D01*
X67644Y27699D01*
X67769Y27779D01*
X67787Y27798D01*
X67809Y27813D01*
X67908Y27923D01*
X68011Y28030D01*
X68025Y28052D01*
X68042Y28072D01*
X68114Y28202D01*
X68190Y28329D01*
X68198Y28354D01*
X68211Y28377D01*
X68251Y28520D01*
X68296Y28661D01*
X68298Y28687D01*
X68306Y28712D01*
X68325Y28956D01*
X68325Y45253D01*
X69655Y48463D01*
X69676Y48537D01*
X69706Y48607D01*
X69724Y48704D01*
X69751Y48798D01*
X69754Y48875D01*
X69768Y48950D01*
X69763Y49048D01*
X69768Y49146D01*
X69754Y49222D01*
X69750Y49298D01*
X69723Y49392D01*
X69705Y49489D01*
X69675Y49559D01*
X69653Y49633D01*
X69605Y49719D01*
X69566Y49809D01*
X69521Y49870D01*
X69483Y49937D01*
X69387Y50051D01*
X69358Y50089D01*
X69344Y50101D01*
X69325Y50123D01*
X55379Y64069D01*
X55280Y64148D01*
X55186Y64232D01*
X55144Y64256D01*
X55106Y64286D01*
X54992Y64340D01*
X54881Y64401D01*
X54835Y64414D01*
X54791Y64435D01*
X54667Y64461D01*
X54546Y64496D01*
X54485Y64501D01*
X54450Y64508D01*
X54402Y64507D01*
X54302Y64515D01*
X52926Y64515D01*
X52900Y64512D01*
X52874Y64514D01*
X52727Y64492D01*
X52580Y64475D01*
X52555Y64467D01*
X52529Y64463D01*
X52391Y64408D01*
X52252Y64358D01*
X52230Y64344D01*
X52205Y64334D01*
X52084Y64249D01*
X51959Y64169D01*
X51941Y64150D01*
X51919Y64135D01*
X51820Y64025D01*
X51717Y63918D01*
X51703Y63896D01*
X51686Y63876D01*
X51614Y63746D01*
X51538Y63619D01*
X51530Y63594D01*
X51517Y63571D01*
X51477Y63428D01*
X51432Y63287D01*
X51430Y63261D01*
X51422Y63236D01*
X51403Y62992D01*
X51403Y61670D01*
X50510Y60777D01*
X43740Y60777D01*
X43714Y60774D01*
X43688Y60776D01*
X43541Y60754D01*
X43394Y60737D01*
X43369Y60729D01*
X43343Y60725D01*
X43205Y60670D01*
X43066Y60620D01*
X43044Y60606D01*
X43019Y60596D01*
X42898Y60511D01*
X42773Y60431D01*
X42755Y60412D01*
X42733Y60397D01*
X42634Y60287D01*
X42531Y60180D01*
X42517Y60158D01*
X42500Y60138D01*
X42428Y60008D01*
X42352Y59881D01*
X42344Y59856D01*
X42331Y59833D01*
X42291Y59690D01*
X42246Y59549D01*
X42244Y59523D01*
X42236Y59498D01*
X42217Y59254D01*
X42217Y51628D01*
X42228Y51528D01*
X42230Y51427D01*
X42248Y51355D01*
X42257Y51281D01*
X42290Y51187D01*
X42315Y51089D01*
X42349Y51023D01*
X42374Y50953D01*
X42429Y50869D01*
X42475Y50780D01*
X42523Y50723D01*
X42563Y50660D01*
X42635Y50591D01*
X42700Y50514D01*
X42760Y50470D01*
X42814Y50418D01*
X42900Y50367D01*
X42981Y50307D01*
X43049Y50278D01*
X43113Y50239D01*
X43208Y50209D01*
X43301Y50169D01*
X43374Y50156D01*
X43445Y50133D01*
X43545Y50125D01*
X43644Y50107D01*
X43718Y50111D01*
X43792Y50105D01*
X43891Y50120D01*
X43992Y50125D01*
X44063Y50146D01*
X44137Y50157D01*
X44230Y50194D01*
X44327Y50222D01*
X44392Y50258D01*
X44461Y50286D01*
X44543Y50343D01*
X44631Y50392D01*
X44707Y50457D01*
X44747Y50485D01*
X44771Y50511D01*
X44817Y50551D01*
X45451Y51184D01*
X46745Y52124D01*
X48170Y52850D01*
X49531Y53293D01*
X49531Y38353D01*
X41909Y38353D01*
X41909Y44142D01*
X41898Y44242D01*
X41896Y44342D01*
X41878Y44414D01*
X41869Y44488D01*
X41836Y44583D01*
X41811Y44680D01*
X41777Y44746D01*
X41752Y44816D01*
X41697Y44901D01*
X41651Y44990D01*
X41603Y45047D01*
X41563Y45109D01*
X41491Y45179D01*
X41426Y45255D01*
X41366Y45299D01*
X41312Y45351D01*
X41226Y45403D01*
X41145Y45462D01*
X41077Y45492D01*
X41013Y45530D01*
X40917Y45561D01*
X40825Y45600D01*
X40752Y45614D01*
X40681Y45636D01*
X40581Y45644D01*
X40482Y45662D01*
X40408Y45658D01*
X40334Y45664D01*
X40234Y45649D01*
X40134Y45644D01*
X40063Y45624D01*
X39989Y45613D01*
X39896Y45575D01*
X39799Y45548D01*
X39734Y45511D01*
X39665Y45484D01*
X39583Y45427D01*
X39495Y45377D01*
X39419Y45312D01*
X39379Y45285D01*
X39355Y45258D01*
X39309Y45219D01*
X36261Y42171D01*
X36191Y42083D01*
X36177Y42068D01*
X36173Y42061D01*
X36098Y41978D01*
X36074Y41936D01*
X36044Y41898D01*
X35990Y41784D01*
X35929Y41673D01*
X35916Y41627D01*
X35895Y41583D01*
X35869Y41459D01*
X35834Y41338D01*
X35829Y41277D01*
X35822Y41242D01*
X35823Y41194D01*
X35815Y41094D01*
X35815Y28956D01*
X35818Y28930D01*
X35816Y28904D01*
X35838Y28757D01*
X35855Y28610D01*
X35863Y28585D01*
X35867Y28559D01*
X35922Y28421D01*
X35972Y28282D01*
X35986Y28260D01*
X35996Y28235D01*
X36081Y28114D01*
X36161Y27989D01*
X36180Y27971D01*
X36195Y27949D01*
X36305Y27850D01*
X36412Y27747D01*
X36434Y27733D01*
X36454Y27716D01*
X36584Y27644D01*
X36711Y27568D01*
X36736Y27560D01*
X36759Y27547D01*
X36902Y27507D01*
X37043Y27462D01*
X37069Y27460D01*
X37094Y27452D01*
X37338Y27433D01*
X40386Y27433D01*
X40412Y27436D01*
G37*
G36*
X76580Y134941D02*
X76580Y134941D01*
X76654Y134942D01*
X76751Y134967D01*
X76851Y134981D01*
X76920Y135009D01*
X76992Y135027D01*
X77082Y135073D01*
X77175Y135110D01*
X77236Y135153D01*
X77302Y135187D01*
X77379Y135252D01*
X77461Y135309D01*
X77511Y135364D01*
X77567Y135413D01*
X77627Y135493D01*
X77694Y135568D01*
X77730Y135633D01*
X77775Y135693D01*
X77814Y135785D01*
X77863Y135873D01*
X77883Y135945D01*
X77913Y136013D01*
X77930Y136112D01*
X77958Y136208D01*
X77966Y136308D01*
X77974Y136356D01*
X77972Y136392D01*
X77977Y136452D01*
X77977Y152688D01*
X77976Y152700D01*
X77977Y152712D01*
X77956Y152873D01*
X77937Y153034D01*
X77933Y153045D01*
X77932Y153057D01*
X77874Y153210D01*
X77820Y153362D01*
X77813Y153372D01*
X77809Y153383D01*
X77719Y153518D01*
X77631Y153655D01*
X77622Y153663D01*
X77616Y153673D01*
X77498Y153784D01*
X77380Y153897D01*
X77370Y153903D01*
X77361Y153911D01*
X77221Y153993D01*
X77081Y154076D01*
X77070Y154080D01*
X77060Y154086D01*
X76904Y154133D01*
X76749Y154182D01*
X76737Y154183D01*
X76726Y154187D01*
X76563Y154197D01*
X76402Y154210D01*
X76390Y154209D01*
X76378Y154209D01*
X76217Y154183D01*
X76057Y154159D01*
X76046Y154154D01*
X76034Y154152D01*
X75805Y154066D01*
X70855Y151737D01*
X56357Y148971D01*
X56302Y148954D01*
X56245Y148945D01*
X56136Y148902D01*
X56024Y148867D01*
X55975Y148838D01*
X55921Y148817D01*
X55825Y148750D01*
X55724Y148690D01*
X55682Y148650D01*
X55635Y148618D01*
X55556Y148531D01*
X55471Y148449D01*
X55440Y148401D01*
X55402Y148359D01*
X55345Y148256D01*
X55281Y148158D01*
X55261Y148104D01*
X55233Y148054D01*
X55201Y147941D01*
X55161Y147831D01*
X55154Y147774D01*
X55138Y147718D01*
X55121Y147503D01*
X55119Y147485D01*
X55119Y147481D01*
X55119Y147475D01*
X55119Y147073D01*
X53913Y145867D01*
X53834Y145768D01*
X53750Y145674D01*
X53726Y145632D01*
X53696Y145594D01*
X53642Y145480D01*
X53581Y145369D01*
X53568Y145323D01*
X53547Y145279D01*
X53521Y145156D01*
X53486Y145034D01*
X53481Y144973D01*
X53474Y144939D01*
X53475Y144891D01*
X53467Y144790D01*
X53467Y140518D01*
X53470Y140492D01*
X53468Y140466D01*
X53490Y140319D01*
X53507Y140172D01*
X53515Y140147D01*
X53519Y140121D01*
X53574Y139983D01*
X53624Y139844D01*
X53638Y139822D01*
X53648Y139797D01*
X53733Y139676D01*
X53813Y139551D01*
X53832Y139533D01*
X53847Y139511D01*
X53957Y139412D01*
X54064Y139309D01*
X54086Y139295D01*
X54106Y139278D01*
X54236Y139206D01*
X54363Y139130D01*
X54388Y139122D01*
X54411Y139109D01*
X54554Y139069D01*
X54695Y139024D01*
X54721Y139022D01*
X54746Y139014D01*
X54990Y138995D01*
X71757Y138995D01*
X75377Y135375D01*
X75455Y135313D01*
X75528Y135243D01*
X75592Y135205D01*
X75650Y135158D01*
X75741Y135115D01*
X75827Y135064D01*
X75898Y135041D01*
X75965Y135009D01*
X76063Y134988D01*
X76159Y134958D01*
X76233Y134952D01*
X76306Y134936D01*
X76406Y134938D01*
X76506Y134930D01*
X76580Y134941D01*
G37*
G36*
X35382Y48349D02*
X35382Y48349D01*
X35529Y48351D01*
X35555Y48358D01*
X35581Y48359D01*
X35724Y48400D01*
X35867Y48436D01*
X35891Y48448D01*
X35916Y48456D01*
X36045Y48528D01*
X36177Y48596D01*
X36197Y48613D01*
X36220Y48626D01*
X36406Y48784D01*
X37197Y49575D01*
X37276Y49674D01*
X37360Y49768D01*
X37384Y49810D01*
X37414Y49848D01*
X37468Y49962D01*
X37529Y50073D01*
X37542Y50120D01*
X37563Y50163D01*
X37589Y50287D01*
X37624Y50408D01*
X37629Y50469D01*
X37636Y50504D01*
X37635Y50552D01*
X37643Y50652D01*
X37643Y58238D01*
X37640Y58264D01*
X37642Y58290D01*
X37620Y58437D01*
X37603Y58584D01*
X37595Y58609D01*
X37591Y58635D01*
X37536Y58773D01*
X37486Y58912D01*
X37472Y58934D01*
X37462Y58959D01*
X37377Y59080D01*
X37297Y59205D01*
X37278Y59223D01*
X37263Y59245D01*
X37153Y59344D01*
X37046Y59447D01*
X37024Y59461D01*
X37004Y59478D01*
X36874Y59550D01*
X36747Y59626D01*
X36722Y59634D01*
X36699Y59647D01*
X36556Y59687D01*
X36415Y59732D01*
X36389Y59734D01*
X36364Y59742D01*
X36120Y59761D01*
X35127Y59761D01*
X35127Y66576D01*
X35124Y66602D01*
X35126Y66628D01*
X35104Y66775D01*
X35087Y66922D01*
X35079Y66947D01*
X35075Y66973D01*
X35020Y67110D01*
X34970Y67250D01*
X34956Y67272D01*
X34946Y67297D01*
X34861Y67418D01*
X34781Y67543D01*
X34762Y67561D01*
X34747Y67583D01*
X34637Y67682D01*
X34530Y67785D01*
X34508Y67799D01*
X34488Y67816D01*
X34421Y67853D01*
X34409Y67870D01*
X34329Y67995D01*
X34310Y68013D01*
X34295Y68035D01*
X34185Y68134D01*
X34078Y68237D01*
X34055Y68251D01*
X34036Y68268D01*
X33906Y68340D01*
X33779Y68416D01*
X33754Y68424D01*
X33731Y68437D01*
X33588Y68477D01*
X33447Y68522D01*
X33421Y68524D01*
X33396Y68532D01*
X33152Y68551D01*
X27686Y68551D01*
X27660Y68548D01*
X27634Y68550D01*
X27487Y68528D01*
X27340Y68511D01*
X27315Y68503D01*
X27289Y68499D01*
X27151Y68444D01*
X27012Y68394D01*
X26990Y68380D01*
X26965Y68370D01*
X26844Y68285D01*
X26719Y68205D01*
X26701Y68186D01*
X26679Y68171D01*
X26580Y68061D01*
X26477Y67954D01*
X26463Y67932D01*
X26446Y67912D01*
X26374Y67782D01*
X26298Y67655D01*
X26290Y67630D01*
X26277Y67607D01*
X26237Y67464D01*
X26192Y67323D01*
X26190Y67297D01*
X26182Y67272D01*
X26163Y67028D01*
X26163Y66576D01*
X26166Y66550D01*
X26164Y66524D01*
X26186Y66377D01*
X26203Y66230D01*
X26211Y66205D01*
X26215Y66179D01*
X26270Y66041D01*
X26320Y65902D01*
X26334Y65880D01*
X26344Y65855D01*
X26429Y65734D01*
X26509Y65609D01*
X26528Y65591D01*
X26543Y65569D01*
X26653Y65470D01*
X26760Y65367D01*
X26782Y65353D01*
X26802Y65336D01*
X26932Y65264D01*
X27059Y65188D01*
X27084Y65180D01*
X27107Y65167D01*
X27250Y65127D01*
X27391Y65082D01*
X27417Y65079D01*
X27442Y65072D01*
X27686Y65053D01*
X31629Y65053D01*
X31629Y59761D01*
X29543Y59761D01*
X28897Y59934D01*
X28448Y60194D01*
X28378Y60224D01*
X28313Y60263D01*
X28219Y60293D01*
X28128Y60333D01*
X28053Y60346D01*
X27981Y60369D01*
X27883Y60377D01*
X27785Y60395D01*
X27709Y60391D01*
X27634Y60397D01*
X27536Y60383D01*
X27437Y60378D01*
X27364Y60357D01*
X27289Y60346D01*
X27197Y60309D01*
X27102Y60282D01*
X27036Y60245D01*
X26965Y60217D01*
X26884Y60160D01*
X26797Y60112D01*
X26741Y60061D01*
X26679Y60018D01*
X26613Y59944D01*
X26539Y59878D01*
X26496Y59815D01*
X26446Y59759D01*
X26398Y59672D01*
X26342Y59591D01*
X26314Y59520D01*
X26277Y59454D01*
X26250Y59359D01*
X26214Y59267D01*
X26203Y59192D01*
X26182Y59119D01*
X26170Y58968D01*
X26163Y58922D01*
X26165Y58903D01*
X26163Y58875D01*
X26163Y54102D01*
X26166Y54076D01*
X26164Y54050D01*
X26186Y53903D01*
X26203Y53756D01*
X26211Y53731D01*
X26215Y53705D01*
X26270Y53567D01*
X26320Y53428D01*
X26334Y53406D01*
X26344Y53381D01*
X26429Y53260D01*
X26509Y53135D01*
X26528Y53117D01*
X26543Y53095D01*
X26653Y52996D01*
X26760Y52893D01*
X26782Y52879D01*
X26802Y52862D01*
X26932Y52790D01*
X27059Y52714D01*
X27084Y52706D01*
X27107Y52693D01*
X27250Y52653D01*
X27391Y52608D01*
X27417Y52606D01*
X27442Y52598D01*
X27686Y52579D01*
X28489Y52579D01*
X31850Y51187D01*
X34252Y48784D01*
X34273Y48768D01*
X34290Y48748D01*
X34409Y48660D01*
X34525Y48568D01*
X34549Y48557D01*
X34570Y48541D01*
X34706Y48482D01*
X34840Y48419D01*
X34866Y48413D01*
X34890Y48403D01*
X35037Y48377D01*
X35181Y48345D01*
X35207Y48346D01*
X35233Y48341D01*
X35382Y48349D01*
G37*
%LPC*%
G36*
X54609Y38353D02*
X54609Y38353D01*
X54609Y53293D01*
X55970Y52850D01*
X57395Y52124D01*
X58689Y51184D01*
X59820Y50053D01*
X60760Y48759D01*
X61486Y47334D01*
X61981Y45813D01*
X62231Y44234D01*
X62231Y38353D01*
X54609Y38353D01*
G37*
%LPD*%
%LPC*%
G36*
X62205Y79121D02*
X62205Y79121D01*
X61559Y79294D01*
X60980Y79629D01*
X60507Y80102D01*
X60172Y80681D01*
X59999Y81327D01*
X59999Y83139D01*
X64517Y83139D01*
X64517Y79121D01*
X62205Y79121D01*
G37*
%LPD*%
D10*
X66040Y84662D03*
X66040Y94662D03*
X76200Y118030D03*
X76200Y108030D03*
D11*
X48942Y143764D03*
X38942Y143764D03*
D12*
X77470Y43434D02*
X77470Y28194D01*
X52070Y28194D02*
X52070Y43434D01*
X26670Y43434D02*
X26670Y28194D01*
D13*
X77216Y84178D03*
X77216Y97178D03*
X65786Y120546D03*
X65786Y107546D03*
D14*
X33378Y66802D03*
X46378Y66802D03*
D15*
X52168Y126902D03*
X45668Y126902D03*
X39168Y126902D03*
X32668Y126902D03*
X32668Y82902D03*
X39168Y82902D03*
X45668Y82902D03*
X52168Y82902D03*
D16*
X52070Y209550D03*
D17*
X32668Y117458D02*
X32668Y116684D01*
X32668Y117458D02*
X32668Y126902D01*
X32668Y117458D02*
X27582Y112372D01*
X27582Y71328D01*
X32108Y66802D01*
X33378Y66802D01*
D18*
X63754Y70358D03*
D17*
X66294Y72898D01*
X66294Y83058D01*
X32668Y116684D01*
X77216Y84502D02*
X77216Y84178D01*
X66294Y84408D02*
X66040Y84662D01*
X66294Y84408D02*
X66294Y83058D01*
X66524Y84178D02*
X77216Y84178D01*
X66524Y84178D02*
X66294Y84408D01*
D18*
X73660Y144780D03*
D17*
X45668Y67512D02*
X46378Y66802D01*
X45668Y67512D02*
X45668Y82902D01*
X46378Y66802D02*
X55880Y66802D01*
X77470Y45212D02*
X77470Y35814D01*
X77470Y45212D02*
X55880Y66802D01*
X63296Y107546D02*
X65786Y107546D01*
X74737Y108030D02*
X76200Y108030D01*
X74737Y108030D02*
X73914Y107207D01*
X66125Y107207D02*
X65786Y107546D01*
X66125Y107207D02*
X73914Y107207D01*
X39930Y82140D02*
X39168Y82902D01*
X39930Y82140D02*
X39930Y49074D01*
X26670Y35814D01*
X45600Y126834D02*
X45668Y126902D01*
X45600Y126834D02*
X45600Y119463D01*
X48223Y116840D01*
X56976Y114300D02*
X60706Y118030D01*
X63270Y118030D02*
X76200Y118030D01*
X56976Y114300D02*
X48223Y114300D01*
X73660Y118030D02*
X76200Y118030D01*
X65786Y120546D02*
X64008Y120546D01*
X64897Y94662D02*
X66040Y94662D01*
X64897Y94662D02*
X48223Y111336D01*
X48223Y114300D01*
X48223Y116840D01*
X63270Y118030D02*
X65786Y120546D01*
X63270Y118030D02*
X60706Y118030D01*
X39943Y136708D02*
X39100Y135865D01*
X39943Y136708D02*
X70810Y136708D01*
X82296Y125222D02*
X82296Y99718D01*
X79756Y97178D01*
X77216Y97178D01*
X82296Y125222D02*
X70810Y136708D01*
D19*
X39168Y143538D02*
X38942Y143764D01*
X39168Y143538D02*
X39168Y126902D01*
X39100Y133858D02*
X39100Y135636D01*
X39100Y126970D02*
X39168Y126902D01*
X39100Y126970D02*
X39100Y135865D01*
X39100Y135636D02*
X39168Y135568D01*
X39168Y126902D01*
X48942Y143764D02*
X48942Y145208D01*
X52070Y148336D02*
X52070Y209550D01*
X52070Y148336D02*
X48942Y145208D01*
M02*
