G04 EAGLE Gerber RS-274X export*
G75*
%MOMM*%
%FSLAX34Y34*%
%LPD*%
%INSilkscreen Bottom*%
%IPPOS*%
%AMOC8*
5,1,8,0,0,1.08239X$1,22.5*%
G01*
%ADD10C,0.101600*%
%ADD11C,0.076200*%


D10*
X58928Y82550D02*
X67818Y82550D01*
X67818Y85019D01*
X67816Y85117D01*
X67810Y85215D01*
X67800Y85313D01*
X67787Y85410D01*
X67769Y85507D01*
X67748Y85603D01*
X67723Y85697D01*
X67694Y85791D01*
X67662Y85884D01*
X67625Y85975D01*
X67586Y86065D01*
X67542Y86153D01*
X67495Y86239D01*
X67445Y86324D01*
X67392Y86406D01*
X67335Y86486D01*
X67275Y86564D01*
X67212Y86639D01*
X67146Y86712D01*
X67077Y86782D01*
X67006Y86849D01*
X66932Y86914D01*
X66855Y86975D01*
X66776Y87034D01*
X66695Y87089D01*
X66612Y87141D01*
X66526Y87189D01*
X66439Y87234D01*
X66350Y87276D01*
X66260Y87314D01*
X66168Y87348D01*
X66075Y87379D01*
X65980Y87406D01*
X65885Y87429D01*
X65788Y87449D01*
X65692Y87464D01*
X65594Y87476D01*
X65496Y87484D01*
X65398Y87488D01*
X65300Y87488D01*
X65202Y87484D01*
X65104Y87476D01*
X65006Y87464D01*
X64910Y87449D01*
X64813Y87429D01*
X64718Y87406D01*
X64623Y87379D01*
X64530Y87348D01*
X64438Y87314D01*
X64348Y87276D01*
X64259Y87234D01*
X64172Y87189D01*
X64086Y87141D01*
X64003Y87089D01*
X63922Y87034D01*
X63843Y86975D01*
X63766Y86914D01*
X63692Y86849D01*
X63621Y86782D01*
X63552Y86712D01*
X63486Y86639D01*
X63423Y86564D01*
X63363Y86486D01*
X63306Y86406D01*
X63253Y86324D01*
X63203Y86239D01*
X63156Y86153D01*
X63112Y86065D01*
X63073Y85975D01*
X63036Y85884D01*
X63004Y85791D01*
X62975Y85697D01*
X62950Y85603D01*
X62929Y85507D01*
X62911Y85410D01*
X62898Y85313D01*
X62888Y85215D01*
X62882Y85117D01*
X62880Y85019D01*
X62879Y85019D02*
X62879Y82550D01*
X62879Y85513D02*
X58928Y87489D01*
X65842Y91400D02*
X67818Y93869D01*
X58928Y93869D01*
X58928Y91400D02*
X58928Y96339D01*
X69850Y107369D02*
X78740Y107369D01*
X78740Y109839D01*
X78738Y109937D01*
X78732Y110035D01*
X78722Y110133D01*
X78709Y110230D01*
X78691Y110327D01*
X78670Y110423D01*
X78645Y110517D01*
X78616Y110611D01*
X78584Y110704D01*
X78547Y110795D01*
X78508Y110885D01*
X78464Y110973D01*
X78417Y111059D01*
X78367Y111144D01*
X78314Y111226D01*
X78257Y111306D01*
X78197Y111384D01*
X78134Y111459D01*
X78068Y111532D01*
X77999Y111602D01*
X77928Y111669D01*
X77854Y111734D01*
X77777Y111795D01*
X77698Y111854D01*
X77617Y111909D01*
X77534Y111961D01*
X77448Y112009D01*
X77361Y112054D01*
X77272Y112096D01*
X77182Y112134D01*
X77090Y112168D01*
X76997Y112199D01*
X76902Y112226D01*
X76807Y112249D01*
X76710Y112269D01*
X76614Y112284D01*
X76516Y112296D01*
X76418Y112304D01*
X76320Y112308D01*
X76222Y112308D01*
X76124Y112304D01*
X76026Y112296D01*
X75928Y112284D01*
X75832Y112269D01*
X75735Y112249D01*
X75640Y112226D01*
X75545Y112199D01*
X75452Y112168D01*
X75360Y112134D01*
X75270Y112096D01*
X75181Y112054D01*
X75094Y112009D01*
X75008Y111961D01*
X74925Y111909D01*
X74844Y111854D01*
X74765Y111795D01*
X74688Y111734D01*
X74614Y111669D01*
X74543Y111602D01*
X74474Y111532D01*
X74408Y111459D01*
X74345Y111384D01*
X74285Y111306D01*
X74228Y111226D01*
X74175Y111144D01*
X74125Y111059D01*
X74078Y110973D01*
X74034Y110885D01*
X73995Y110795D01*
X73958Y110704D01*
X73926Y110611D01*
X73897Y110517D01*
X73872Y110423D01*
X73851Y110327D01*
X73833Y110230D01*
X73820Y110133D01*
X73810Y110035D01*
X73804Y109937D01*
X73802Y109839D01*
X73801Y109839D02*
X73801Y107369D01*
X73801Y110333D02*
X69850Y112308D01*
X76518Y121159D02*
X76610Y121157D01*
X76702Y121151D01*
X76793Y121142D01*
X76884Y121129D01*
X76974Y121112D01*
X77064Y121091D01*
X77152Y121067D01*
X77240Y121039D01*
X77326Y121007D01*
X77411Y120972D01*
X77494Y120933D01*
X77576Y120891D01*
X77656Y120846D01*
X77734Y120797D01*
X77810Y120745D01*
X77883Y120690D01*
X77955Y120632D01*
X78024Y120572D01*
X78090Y120508D01*
X78154Y120442D01*
X78214Y120373D01*
X78272Y120301D01*
X78327Y120228D01*
X78379Y120152D01*
X78428Y120074D01*
X78473Y119994D01*
X78515Y119912D01*
X78554Y119829D01*
X78589Y119744D01*
X78621Y119658D01*
X78649Y119570D01*
X78673Y119482D01*
X78694Y119392D01*
X78711Y119302D01*
X78724Y119211D01*
X78733Y119120D01*
X78739Y119028D01*
X78741Y118936D01*
X78740Y118936D02*
X78738Y118830D01*
X78732Y118725D01*
X78722Y118620D01*
X78709Y118515D01*
X78691Y118411D01*
X78670Y118308D01*
X78645Y118205D01*
X78616Y118103D01*
X78583Y118003D01*
X78547Y117904D01*
X78507Y117806D01*
X78463Y117710D01*
X78416Y117615D01*
X78366Y117523D01*
X78312Y117432D01*
X78254Y117343D01*
X78194Y117257D01*
X78130Y117173D01*
X78064Y117091D01*
X77994Y117011D01*
X77921Y116935D01*
X77846Y116861D01*
X77768Y116790D01*
X77687Y116722D01*
X77604Y116656D01*
X77518Y116594D01*
X77431Y116536D01*
X77341Y116480D01*
X77249Y116428D01*
X77155Y116379D01*
X77060Y116334D01*
X76963Y116292D01*
X76864Y116254D01*
X76765Y116220D01*
X74789Y120417D02*
X74858Y120486D01*
X74928Y120552D01*
X75002Y120615D01*
X75078Y120674D01*
X75156Y120731D01*
X75236Y120785D01*
X75319Y120835D01*
X75403Y120882D01*
X75490Y120925D01*
X75578Y120965D01*
X75667Y121001D01*
X75758Y121034D01*
X75850Y121063D01*
X75944Y121088D01*
X76038Y121109D01*
X76133Y121127D01*
X76229Y121140D01*
X76325Y121150D01*
X76421Y121156D01*
X76518Y121158D01*
X74789Y120417D02*
X69850Y116219D01*
X69850Y121158D01*
X49530Y139954D02*
X49530Y148844D01*
X47061Y148844D01*
X46963Y148842D01*
X46865Y148836D01*
X46767Y148826D01*
X46670Y148813D01*
X46573Y148795D01*
X46477Y148774D01*
X46383Y148749D01*
X46289Y148720D01*
X46196Y148688D01*
X46105Y148651D01*
X46015Y148612D01*
X45927Y148568D01*
X45841Y148521D01*
X45756Y148471D01*
X45674Y148418D01*
X45594Y148361D01*
X45516Y148301D01*
X45441Y148238D01*
X45368Y148172D01*
X45298Y148103D01*
X45231Y148032D01*
X45166Y147958D01*
X45105Y147881D01*
X45046Y147802D01*
X44991Y147721D01*
X44939Y147638D01*
X44891Y147552D01*
X44846Y147465D01*
X44804Y147376D01*
X44766Y147286D01*
X44732Y147194D01*
X44701Y147101D01*
X44674Y147006D01*
X44651Y146911D01*
X44631Y146814D01*
X44616Y146718D01*
X44604Y146620D01*
X44596Y146522D01*
X44592Y146424D01*
X44592Y146326D01*
X44596Y146228D01*
X44604Y146130D01*
X44616Y146032D01*
X44631Y145936D01*
X44651Y145839D01*
X44674Y145744D01*
X44701Y145649D01*
X44732Y145556D01*
X44766Y145464D01*
X44804Y145374D01*
X44846Y145285D01*
X44891Y145198D01*
X44939Y145112D01*
X44991Y145029D01*
X45046Y144948D01*
X45105Y144869D01*
X45166Y144792D01*
X45231Y144718D01*
X45298Y144647D01*
X45368Y144578D01*
X45441Y144512D01*
X45516Y144449D01*
X45594Y144389D01*
X45674Y144332D01*
X45756Y144279D01*
X45841Y144229D01*
X45927Y144182D01*
X46015Y144138D01*
X46105Y144099D01*
X46196Y144062D01*
X46289Y144030D01*
X46383Y144001D01*
X46477Y143976D01*
X46573Y143955D01*
X46670Y143937D01*
X46767Y143924D01*
X46865Y143914D01*
X46963Y143908D01*
X47061Y143906D01*
X47061Y143905D02*
X49530Y143905D01*
X46567Y143905D02*
X44591Y139954D01*
X40680Y139954D02*
X38211Y139954D01*
X38113Y139956D01*
X38015Y139962D01*
X37917Y139972D01*
X37820Y139985D01*
X37723Y140003D01*
X37627Y140024D01*
X37533Y140049D01*
X37439Y140078D01*
X37346Y140110D01*
X37255Y140147D01*
X37165Y140186D01*
X37077Y140230D01*
X36991Y140277D01*
X36906Y140327D01*
X36824Y140380D01*
X36744Y140437D01*
X36666Y140497D01*
X36591Y140560D01*
X36518Y140626D01*
X36448Y140695D01*
X36381Y140766D01*
X36316Y140840D01*
X36255Y140917D01*
X36196Y140996D01*
X36141Y141077D01*
X36089Y141160D01*
X36041Y141246D01*
X35996Y141333D01*
X35954Y141422D01*
X35916Y141512D01*
X35882Y141604D01*
X35851Y141697D01*
X35824Y141792D01*
X35801Y141887D01*
X35781Y141984D01*
X35766Y142080D01*
X35754Y142178D01*
X35746Y142276D01*
X35742Y142374D01*
X35742Y142472D01*
X35746Y142570D01*
X35754Y142668D01*
X35766Y142766D01*
X35781Y142862D01*
X35801Y142959D01*
X35824Y143054D01*
X35851Y143149D01*
X35882Y143242D01*
X35916Y143334D01*
X35954Y143424D01*
X35996Y143513D01*
X36041Y143600D01*
X36089Y143686D01*
X36141Y143769D01*
X36196Y143850D01*
X36255Y143929D01*
X36316Y144006D01*
X36381Y144080D01*
X36448Y144151D01*
X36518Y144220D01*
X36591Y144286D01*
X36666Y144349D01*
X36744Y144409D01*
X36824Y144466D01*
X36906Y144519D01*
X36991Y144569D01*
X37077Y144616D01*
X37165Y144660D01*
X37255Y144699D01*
X37346Y144736D01*
X37439Y144768D01*
X37533Y144797D01*
X37627Y144822D01*
X37723Y144843D01*
X37820Y144861D01*
X37917Y144874D01*
X38015Y144884D01*
X38113Y144890D01*
X38211Y144892D01*
X37717Y148844D02*
X40680Y148844D01*
X37717Y148844D02*
X37630Y148842D01*
X37542Y148836D01*
X37455Y148827D01*
X37369Y148813D01*
X37283Y148796D01*
X37199Y148775D01*
X37115Y148750D01*
X37032Y148721D01*
X36951Y148689D01*
X36871Y148654D01*
X36793Y148615D01*
X36716Y148572D01*
X36642Y148526D01*
X36570Y148477D01*
X36500Y148425D01*
X36432Y148369D01*
X36367Y148311D01*
X36304Y148250D01*
X36245Y148186D01*
X36188Y148119D01*
X36134Y148051D01*
X36083Y147979D01*
X36036Y147906D01*
X35991Y147831D01*
X35950Y147753D01*
X35913Y147674D01*
X35879Y147594D01*
X35849Y147512D01*
X35822Y147429D01*
X35799Y147344D01*
X35780Y147259D01*
X35765Y147173D01*
X35753Y147086D01*
X35745Y146999D01*
X35741Y146912D01*
X35741Y146824D01*
X35745Y146737D01*
X35753Y146650D01*
X35765Y146563D01*
X35780Y146477D01*
X35799Y146392D01*
X35822Y146307D01*
X35849Y146224D01*
X35879Y146142D01*
X35913Y146062D01*
X35950Y145983D01*
X35991Y145905D01*
X36036Y145830D01*
X36083Y145757D01*
X36134Y145685D01*
X36188Y145617D01*
X36245Y145550D01*
X36304Y145486D01*
X36367Y145425D01*
X36432Y145367D01*
X36500Y145311D01*
X36570Y145259D01*
X36642Y145210D01*
X36716Y145164D01*
X36793Y145121D01*
X36871Y145082D01*
X36951Y145047D01*
X37032Y145015D01*
X37115Y144986D01*
X37199Y144961D01*
X37283Y144940D01*
X37369Y144923D01*
X37455Y144909D01*
X37542Y144900D01*
X37630Y144894D01*
X37717Y144892D01*
X37717Y144893D02*
X39692Y144893D01*
D11*
X70739Y86854D02*
X70739Y84765D01*
X70741Y84676D01*
X70747Y84588D01*
X70756Y84500D01*
X70769Y84412D01*
X70786Y84325D01*
X70806Y84239D01*
X70831Y84154D01*
X70858Y84069D01*
X70890Y83986D01*
X70924Y83905D01*
X70963Y83825D01*
X71004Y83747D01*
X71049Y83670D01*
X71097Y83596D01*
X71148Y83523D01*
X71202Y83453D01*
X71260Y83386D01*
X71320Y83320D01*
X71382Y83258D01*
X71448Y83198D01*
X71515Y83140D01*
X71585Y83086D01*
X71658Y83035D01*
X71732Y82987D01*
X71809Y82942D01*
X71887Y82901D01*
X71967Y82862D01*
X72048Y82828D01*
X72131Y82796D01*
X72216Y82769D01*
X72301Y82744D01*
X72387Y82724D01*
X72474Y82707D01*
X72562Y82694D01*
X72650Y82685D01*
X72738Y82679D01*
X72827Y82677D01*
X78049Y82677D01*
X78140Y82679D01*
X78231Y82685D01*
X78322Y82695D01*
X78412Y82709D01*
X78501Y82726D01*
X78589Y82748D01*
X78677Y82774D01*
X78763Y82803D01*
X78848Y82836D01*
X78931Y82873D01*
X79013Y82913D01*
X79093Y82957D01*
X79171Y83004D01*
X79247Y83055D01*
X79320Y83108D01*
X79391Y83165D01*
X79460Y83226D01*
X79525Y83289D01*
X79588Y83354D01*
X79648Y83423D01*
X79706Y83494D01*
X79759Y83567D01*
X79810Y83643D01*
X79857Y83721D01*
X79901Y83801D01*
X79941Y83883D01*
X79978Y83966D01*
X80011Y84051D01*
X80040Y84137D01*
X80066Y84225D01*
X80088Y84313D01*
X80105Y84402D01*
X80119Y84492D01*
X80129Y84583D01*
X80135Y84674D01*
X80137Y84765D01*
X80137Y86854D01*
X78049Y90323D02*
X80137Y92933D01*
X70739Y92933D01*
X70739Y90323D02*
X70739Y95544D01*
X59309Y107879D02*
X59309Y109968D01*
X59309Y107879D02*
X59311Y107790D01*
X59317Y107702D01*
X59326Y107614D01*
X59339Y107526D01*
X59356Y107439D01*
X59376Y107353D01*
X59401Y107268D01*
X59428Y107183D01*
X59460Y107100D01*
X59494Y107019D01*
X59533Y106939D01*
X59574Y106861D01*
X59619Y106784D01*
X59667Y106710D01*
X59718Y106637D01*
X59772Y106567D01*
X59830Y106500D01*
X59890Y106434D01*
X59952Y106372D01*
X60018Y106312D01*
X60085Y106254D01*
X60155Y106200D01*
X60228Y106149D01*
X60302Y106101D01*
X60379Y106056D01*
X60457Y106015D01*
X60537Y105976D01*
X60618Y105942D01*
X60701Y105910D01*
X60786Y105883D01*
X60871Y105858D01*
X60957Y105838D01*
X61044Y105821D01*
X61132Y105808D01*
X61220Y105799D01*
X61308Y105793D01*
X61397Y105791D01*
X66619Y105791D01*
X66710Y105793D01*
X66801Y105799D01*
X66892Y105809D01*
X66982Y105823D01*
X67071Y105840D01*
X67159Y105862D01*
X67247Y105888D01*
X67333Y105917D01*
X67418Y105950D01*
X67501Y105987D01*
X67583Y106027D01*
X67663Y106071D01*
X67741Y106118D01*
X67817Y106169D01*
X67890Y106222D01*
X67961Y106279D01*
X68030Y106340D01*
X68095Y106403D01*
X68158Y106468D01*
X68218Y106537D01*
X68276Y106608D01*
X68329Y106681D01*
X68380Y106757D01*
X68427Y106835D01*
X68471Y106915D01*
X68511Y106997D01*
X68548Y107080D01*
X68581Y107165D01*
X68610Y107251D01*
X68636Y107339D01*
X68658Y107427D01*
X68675Y107516D01*
X68689Y107606D01*
X68699Y107697D01*
X68705Y107788D01*
X68707Y107879D01*
X68707Y109968D01*
X68708Y116308D02*
X68706Y116403D01*
X68700Y116497D01*
X68691Y116591D01*
X68678Y116685D01*
X68661Y116778D01*
X68640Y116870D01*
X68615Y116962D01*
X68587Y117052D01*
X68555Y117141D01*
X68520Y117229D01*
X68481Y117315D01*
X68439Y117400D01*
X68393Y117483D01*
X68344Y117564D01*
X68292Y117643D01*
X68237Y117720D01*
X68178Y117794D01*
X68117Y117866D01*
X68053Y117936D01*
X67986Y118003D01*
X67916Y118067D01*
X67844Y118128D01*
X67770Y118187D01*
X67693Y118242D01*
X67614Y118294D01*
X67533Y118343D01*
X67450Y118389D01*
X67365Y118431D01*
X67279Y118470D01*
X67191Y118505D01*
X67102Y118537D01*
X67012Y118565D01*
X66920Y118590D01*
X66828Y118611D01*
X66735Y118628D01*
X66641Y118641D01*
X66547Y118650D01*
X66453Y118656D01*
X66358Y118658D01*
X68707Y116308D02*
X68705Y116200D01*
X68699Y116091D01*
X68689Y115983D01*
X68676Y115876D01*
X68658Y115769D01*
X68637Y115662D01*
X68612Y115557D01*
X68583Y115452D01*
X68551Y115349D01*
X68514Y115247D01*
X68474Y115146D01*
X68431Y115047D01*
X68384Y114949D01*
X68333Y114853D01*
X68279Y114759D01*
X68222Y114667D01*
X68161Y114577D01*
X68097Y114489D01*
X68031Y114404D01*
X67961Y114321D01*
X67888Y114241D01*
X67812Y114163D01*
X67734Y114088D01*
X67653Y114016D01*
X67569Y113947D01*
X67483Y113881D01*
X67395Y113818D01*
X67304Y113759D01*
X67212Y113702D01*
X67117Y113649D01*
X67021Y113600D01*
X66922Y113554D01*
X66823Y113511D01*
X66721Y113472D01*
X66619Y113437D01*
X64530Y117875D02*
X64599Y117944D01*
X64670Y118010D01*
X64743Y118074D01*
X64819Y118135D01*
X64898Y118193D01*
X64978Y118247D01*
X65061Y118299D01*
X65145Y118347D01*
X65231Y118393D01*
X65319Y118434D01*
X65409Y118473D01*
X65500Y118508D01*
X65592Y118539D01*
X65685Y118567D01*
X65779Y118591D01*
X65874Y118611D01*
X65970Y118628D01*
X66067Y118641D01*
X66164Y118650D01*
X66261Y118656D01*
X66358Y118658D01*
X64530Y117875D02*
X59309Y113437D01*
X59309Y118658D01*
X47061Y61849D02*
X44972Y61849D01*
X47061Y61849D02*
X47150Y61851D01*
X47238Y61857D01*
X47326Y61866D01*
X47414Y61879D01*
X47501Y61896D01*
X47587Y61916D01*
X47672Y61941D01*
X47757Y61968D01*
X47840Y62000D01*
X47921Y62034D01*
X48001Y62073D01*
X48079Y62114D01*
X48156Y62159D01*
X48230Y62207D01*
X48303Y62258D01*
X48373Y62312D01*
X48440Y62370D01*
X48506Y62430D01*
X48568Y62492D01*
X48628Y62558D01*
X48686Y62625D01*
X48740Y62695D01*
X48791Y62768D01*
X48839Y62842D01*
X48884Y62919D01*
X48925Y62997D01*
X48964Y63077D01*
X48998Y63158D01*
X49030Y63241D01*
X49057Y63326D01*
X49082Y63411D01*
X49102Y63497D01*
X49119Y63584D01*
X49132Y63672D01*
X49141Y63760D01*
X49147Y63848D01*
X49149Y63937D01*
X49149Y69159D01*
X49147Y69248D01*
X49141Y69336D01*
X49132Y69424D01*
X49119Y69512D01*
X49102Y69599D01*
X49082Y69685D01*
X49057Y69770D01*
X49030Y69855D01*
X48998Y69938D01*
X48964Y70019D01*
X48925Y70099D01*
X48884Y70177D01*
X48839Y70254D01*
X48791Y70328D01*
X48740Y70401D01*
X48686Y70471D01*
X48628Y70538D01*
X48568Y70604D01*
X48506Y70666D01*
X48440Y70726D01*
X48373Y70784D01*
X48303Y70838D01*
X48230Y70889D01*
X48156Y70937D01*
X48079Y70982D01*
X48001Y71023D01*
X47921Y71062D01*
X47840Y71096D01*
X47757Y71128D01*
X47672Y71155D01*
X47587Y71180D01*
X47501Y71200D01*
X47414Y71217D01*
X47326Y71230D01*
X47238Y71239D01*
X47150Y71245D01*
X47061Y71247D01*
X44972Y71247D01*
X41503Y61849D02*
X38893Y61849D01*
X38792Y61851D01*
X38691Y61857D01*
X38590Y61867D01*
X38490Y61880D01*
X38390Y61898D01*
X38291Y61919D01*
X38193Y61945D01*
X38096Y61974D01*
X38000Y62006D01*
X37906Y62043D01*
X37813Y62083D01*
X37721Y62127D01*
X37632Y62174D01*
X37544Y62225D01*
X37458Y62279D01*
X37375Y62336D01*
X37293Y62396D01*
X37215Y62460D01*
X37138Y62526D01*
X37065Y62596D01*
X36994Y62668D01*
X36926Y62743D01*
X36861Y62821D01*
X36799Y62901D01*
X36740Y62983D01*
X36684Y63068D01*
X36632Y63155D01*
X36583Y63243D01*
X36537Y63334D01*
X36496Y63426D01*
X36457Y63520D01*
X36423Y63615D01*
X36392Y63711D01*
X36365Y63809D01*
X36341Y63907D01*
X36322Y64007D01*
X36306Y64107D01*
X36294Y64207D01*
X36286Y64308D01*
X36282Y64409D01*
X36282Y64511D01*
X36286Y64612D01*
X36294Y64713D01*
X36306Y64813D01*
X36322Y64913D01*
X36341Y65013D01*
X36365Y65111D01*
X36392Y65209D01*
X36423Y65305D01*
X36457Y65400D01*
X36496Y65494D01*
X36537Y65586D01*
X36583Y65677D01*
X36632Y65766D01*
X36684Y65852D01*
X36740Y65937D01*
X36799Y66019D01*
X36861Y66099D01*
X36926Y66177D01*
X36994Y66252D01*
X37065Y66324D01*
X37138Y66394D01*
X37215Y66460D01*
X37293Y66524D01*
X37375Y66584D01*
X37458Y66641D01*
X37544Y66695D01*
X37632Y66746D01*
X37721Y66793D01*
X37813Y66837D01*
X37906Y66877D01*
X38000Y66914D01*
X38096Y66946D01*
X38193Y66975D01*
X38291Y67001D01*
X38390Y67022D01*
X38490Y67040D01*
X38590Y67053D01*
X38691Y67063D01*
X38792Y67069D01*
X38893Y67071D01*
X38371Y71247D02*
X41503Y71247D01*
X38371Y71247D02*
X38281Y71245D01*
X38192Y71239D01*
X38102Y71230D01*
X38013Y71216D01*
X37925Y71199D01*
X37838Y71178D01*
X37751Y71153D01*
X37666Y71124D01*
X37582Y71092D01*
X37500Y71057D01*
X37419Y71017D01*
X37340Y70975D01*
X37263Y70929D01*
X37188Y70879D01*
X37115Y70827D01*
X37044Y70771D01*
X36976Y70713D01*
X36911Y70651D01*
X36848Y70587D01*
X36788Y70520D01*
X36731Y70451D01*
X36677Y70379D01*
X36626Y70305D01*
X36578Y70229D01*
X36534Y70151D01*
X36493Y70071D01*
X36455Y69989D01*
X36421Y69906D01*
X36391Y69821D01*
X36364Y69735D01*
X36341Y69649D01*
X36322Y69561D01*
X36307Y69472D01*
X36295Y69383D01*
X36287Y69294D01*
X36283Y69204D01*
X36283Y69114D01*
X36287Y69024D01*
X36295Y68935D01*
X36307Y68846D01*
X36322Y68757D01*
X36341Y68669D01*
X36364Y68583D01*
X36391Y68497D01*
X36421Y68412D01*
X36455Y68329D01*
X36493Y68247D01*
X36534Y68167D01*
X36578Y68089D01*
X36626Y68013D01*
X36677Y67939D01*
X36731Y67867D01*
X36788Y67798D01*
X36848Y67731D01*
X36911Y67667D01*
X36976Y67605D01*
X37044Y67547D01*
X37115Y67491D01*
X37188Y67439D01*
X37263Y67389D01*
X37340Y67343D01*
X37419Y67301D01*
X37500Y67261D01*
X37582Y67226D01*
X37666Y67194D01*
X37751Y67165D01*
X37838Y67140D01*
X37925Y67119D01*
X38013Y67102D01*
X38102Y67088D01*
X38192Y67079D01*
X38281Y67073D01*
X38371Y67071D01*
X38371Y67070D02*
X40459Y67070D01*
M02*
