G04 EAGLE Gerber RS-274X export*
G75*
%MOMM*%
%FSLAX34Y34*%
%LPD*%
%INSilkscreen Top*%
%IPPOS*%
%AMOC8*
5,1,8,0,0,1.08239X$1,22.5*%
G01*
%ADD10C,0.127000*%
%ADD11C,0.200000*%
%ADD12C,0.152400*%
%ADD13C,0.203200*%


D10*
X309950Y242300D02*
X309950Y265700D01*
X223450Y265700D02*
X223450Y242300D01*
D11*
X224700Y213500D02*
X224702Y213563D01*
X224708Y213625D01*
X224718Y213687D01*
X224731Y213749D01*
X224749Y213809D01*
X224770Y213868D01*
X224795Y213926D01*
X224824Y213982D01*
X224856Y214036D01*
X224891Y214088D01*
X224929Y214137D01*
X224971Y214185D01*
X225015Y214229D01*
X225063Y214271D01*
X225112Y214309D01*
X225164Y214344D01*
X225218Y214376D01*
X225274Y214405D01*
X225332Y214430D01*
X225391Y214451D01*
X225451Y214469D01*
X225513Y214482D01*
X225575Y214492D01*
X225637Y214498D01*
X225700Y214500D01*
X225763Y214498D01*
X225825Y214492D01*
X225887Y214482D01*
X225949Y214469D01*
X226009Y214451D01*
X226068Y214430D01*
X226126Y214405D01*
X226182Y214376D01*
X226236Y214344D01*
X226288Y214309D01*
X226337Y214271D01*
X226385Y214229D01*
X226429Y214185D01*
X226471Y214137D01*
X226509Y214088D01*
X226544Y214036D01*
X226576Y213982D01*
X226605Y213926D01*
X226630Y213868D01*
X226651Y213809D01*
X226669Y213749D01*
X226682Y213687D01*
X226692Y213625D01*
X226698Y213563D01*
X226700Y213500D01*
X226698Y213437D01*
X226692Y213375D01*
X226682Y213313D01*
X226669Y213251D01*
X226651Y213191D01*
X226630Y213132D01*
X226605Y213074D01*
X226576Y213018D01*
X226544Y212964D01*
X226509Y212912D01*
X226471Y212863D01*
X226429Y212815D01*
X226385Y212771D01*
X226337Y212729D01*
X226288Y212691D01*
X226236Y212656D01*
X226182Y212624D01*
X226126Y212595D01*
X226068Y212570D01*
X226009Y212549D01*
X225949Y212531D01*
X225887Y212518D01*
X225825Y212508D01*
X225763Y212502D01*
X225700Y212500D01*
X225637Y212502D01*
X225575Y212508D01*
X225513Y212518D01*
X225451Y212531D01*
X225391Y212549D01*
X225332Y212570D01*
X225274Y212595D01*
X225218Y212624D01*
X225164Y212656D01*
X225112Y212691D01*
X225063Y212729D01*
X225015Y212771D01*
X224971Y212815D01*
X224929Y212863D01*
X224891Y212912D01*
X224856Y212964D01*
X224824Y213018D01*
X224795Y213074D01*
X224770Y213132D01*
X224749Y213191D01*
X224731Y213251D01*
X224718Y213313D01*
X224708Y213375D01*
X224702Y213437D01*
X224700Y213500D01*
D12*
X338074Y252730D02*
X344424Y246380D01*
X344424Y233680D01*
X338074Y227330D01*
X325374Y227330D01*
X319024Y233680D01*
X319024Y246380D01*
X325374Y252730D01*
X344424Y284480D02*
X344424Y297180D01*
X344424Y284480D02*
X338074Y278130D01*
X325374Y278130D01*
X319024Y284480D01*
X338074Y278130D02*
X344424Y271780D01*
X344424Y259080D01*
X338074Y252730D01*
X325374Y252730D01*
X319024Y259080D01*
X319024Y271780D01*
X325374Y278130D01*
X325374Y303530D02*
X338074Y303530D01*
X344424Y297180D01*
X325374Y303530D02*
X319024Y297180D01*
X319024Y284480D01*
X344424Y220980D02*
X344424Y208280D01*
X338074Y201930D01*
X325374Y201930D01*
X319024Y208280D01*
X338074Y227330D02*
X344424Y220980D01*
X325374Y227330D02*
X319024Y220980D01*
X319024Y208280D01*
X90424Y252730D02*
X90438Y253852D01*
X90479Y254973D01*
X90548Y256093D01*
X90644Y257211D01*
X90768Y258327D01*
X90919Y259439D01*
X91097Y260546D01*
X91302Y261650D01*
X91535Y262747D01*
X91794Y263839D01*
X92080Y264924D01*
X92393Y266002D01*
X92732Y267072D01*
X93097Y268133D01*
X93488Y269184D01*
X93904Y270226D01*
X94346Y271258D01*
X94814Y272278D01*
X95306Y273286D01*
X95823Y274282D01*
X96364Y275265D01*
X96929Y276235D01*
X97517Y277190D01*
X98129Y278131D01*
X98764Y279056D01*
X99421Y279965D01*
X100101Y280858D01*
X100802Y281734D01*
X101524Y282593D01*
X102268Y283434D01*
X103031Y284256D01*
X103815Y285059D01*
X104618Y285843D01*
X105440Y286606D01*
X106281Y287350D01*
X107140Y288072D01*
X108016Y288773D01*
X108909Y289453D01*
X109818Y290110D01*
X110743Y290745D01*
X111684Y291357D01*
X112639Y291945D01*
X113609Y292510D01*
X114592Y293051D01*
X115588Y293568D01*
X116596Y294060D01*
X117616Y294528D01*
X118648Y294970D01*
X119690Y295386D01*
X120741Y295777D01*
X121802Y296142D01*
X122872Y296481D01*
X123950Y296794D01*
X125035Y297080D01*
X126127Y297339D01*
X127224Y297572D01*
X128328Y297777D01*
X129435Y297955D01*
X130547Y298106D01*
X131663Y298230D01*
X132781Y298326D01*
X133901Y298395D01*
X135022Y298436D01*
X136144Y298450D01*
X137266Y298436D01*
X138387Y298395D01*
X139507Y298326D01*
X140625Y298230D01*
X141741Y298106D01*
X142853Y297955D01*
X143960Y297777D01*
X145064Y297572D01*
X146161Y297339D01*
X147253Y297080D01*
X148338Y296794D01*
X149416Y296481D01*
X150486Y296142D01*
X151547Y295777D01*
X152598Y295386D01*
X153640Y294970D01*
X154672Y294528D01*
X155692Y294060D01*
X156700Y293568D01*
X157696Y293051D01*
X158679Y292510D01*
X159649Y291945D01*
X160604Y291357D01*
X161545Y290745D01*
X162470Y290110D01*
X163379Y289453D01*
X164272Y288773D01*
X165148Y288072D01*
X166007Y287350D01*
X166848Y286606D01*
X167670Y285843D01*
X168473Y285059D01*
X169257Y284256D01*
X170020Y283434D01*
X170764Y282593D01*
X171486Y281734D01*
X172187Y280858D01*
X172867Y279965D01*
X173524Y279056D01*
X174159Y278131D01*
X174771Y277190D01*
X175359Y276235D01*
X175924Y275265D01*
X176465Y274282D01*
X176982Y273286D01*
X177474Y272278D01*
X177942Y271258D01*
X178384Y270226D01*
X178800Y269184D01*
X179191Y268133D01*
X179556Y267072D01*
X179895Y266002D01*
X180208Y264924D01*
X180494Y263839D01*
X180753Y262747D01*
X180986Y261650D01*
X181191Y260546D01*
X181369Y259439D01*
X181520Y258327D01*
X181644Y257211D01*
X181740Y256093D01*
X181809Y254973D01*
X181850Y253852D01*
X181864Y252730D01*
X181850Y251608D01*
X181809Y250487D01*
X181740Y249367D01*
X181644Y248249D01*
X181520Y247133D01*
X181369Y246021D01*
X181191Y244914D01*
X180986Y243810D01*
X180753Y242713D01*
X180494Y241621D01*
X180208Y240536D01*
X179895Y239458D01*
X179556Y238388D01*
X179191Y237327D01*
X178800Y236276D01*
X178384Y235234D01*
X177942Y234202D01*
X177474Y233182D01*
X176982Y232174D01*
X176465Y231178D01*
X175924Y230195D01*
X175359Y229225D01*
X174771Y228270D01*
X174159Y227329D01*
X173524Y226404D01*
X172867Y225495D01*
X172187Y224602D01*
X171486Y223726D01*
X170764Y222867D01*
X170020Y222026D01*
X169257Y221204D01*
X168473Y220401D01*
X167670Y219617D01*
X166848Y218854D01*
X166007Y218110D01*
X165148Y217388D01*
X164272Y216687D01*
X163379Y216007D01*
X162470Y215350D01*
X161545Y214715D01*
X160604Y214103D01*
X159649Y213515D01*
X158679Y212950D01*
X157696Y212409D01*
X156700Y211892D01*
X155692Y211400D01*
X154672Y210932D01*
X153640Y210490D01*
X152598Y210074D01*
X151547Y209683D01*
X150486Y209318D01*
X149416Y208979D01*
X148338Y208666D01*
X147253Y208380D01*
X146161Y208121D01*
X145064Y207888D01*
X143960Y207683D01*
X142853Y207505D01*
X141741Y207354D01*
X140625Y207230D01*
X139507Y207134D01*
X138387Y207065D01*
X137266Y207024D01*
X136144Y207010D01*
X135022Y207024D01*
X133901Y207065D01*
X132781Y207134D01*
X131663Y207230D01*
X130547Y207354D01*
X129435Y207505D01*
X128328Y207683D01*
X127224Y207888D01*
X126127Y208121D01*
X125035Y208380D01*
X123950Y208666D01*
X122872Y208979D01*
X121802Y209318D01*
X120741Y209683D01*
X119690Y210074D01*
X118648Y210490D01*
X117616Y210932D01*
X116596Y211400D01*
X115588Y211892D01*
X114592Y212409D01*
X113609Y212950D01*
X112639Y213515D01*
X111684Y214103D01*
X110743Y214715D01*
X109818Y215350D01*
X108909Y216007D01*
X108016Y216687D01*
X107140Y217388D01*
X106281Y218110D01*
X105440Y218854D01*
X104618Y219617D01*
X103815Y220401D01*
X103031Y221204D01*
X102268Y222026D01*
X101524Y222867D01*
X100802Y223726D01*
X100101Y224602D01*
X99421Y225495D01*
X98764Y226404D01*
X98129Y227329D01*
X97517Y228270D01*
X96929Y229225D01*
X96364Y230195D01*
X95823Y231178D01*
X95306Y232174D01*
X94814Y233182D01*
X94346Y234202D01*
X93904Y235234D01*
X93488Y236276D01*
X93097Y237327D01*
X92732Y238388D01*
X92393Y239458D01*
X92080Y240536D01*
X91794Y241621D01*
X91535Y242713D01*
X91302Y243810D01*
X91097Y244914D01*
X90919Y246021D01*
X90768Y247133D01*
X90644Y248249D01*
X90548Y249367D01*
X90479Y250487D01*
X90438Y251608D01*
X90424Y252730D01*
D13*
X114644Y252730D02*
X114650Y253258D01*
X114670Y253785D01*
X114702Y254312D01*
X114748Y254837D01*
X114806Y255362D01*
X114877Y255885D01*
X114961Y256406D01*
X115057Y256924D01*
X115166Y257441D01*
X115288Y257954D01*
X115423Y258464D01*
X115570Y258971D01*
X115729Y259474D01*
X115901Y259973D01*
X116085Y260468D01*
X116281Y260958D01*
X116488Y261443D01*
X116708Y261922D01*
X116940Y262397D01*
X117183Y262865D01*
X117437Y263327D01*
X117703Y263783D01*
X117980Y264232D01*
X118267Y264675D01*
X118566Y265110D01*
X118875Y265538D01*
X119195Y265957D01*
X119524Y266369D01*
X119864Y266773D01*
X120214Y267169D01*
X120573Y267555D01*
X120941Y267933D01*
X121319Y268301D01*
X121705Y268660D01*
X122101Y269010D01*
X122505Y269350D01*
X122917Y269679D01*
X123336Y269999D01*
X123764Y270308D01*
X124199Y270607D01*
X124642Y270894D01*
X125091Y271171D01*
X125547Y271437D01*
X126009Y271691D01*
X126477Y271934D01*
X126952Y272166D01*
X127431Y272386D01*
X127916Y272593D01*
X128406Y272789D01*
X128901Y272973D01*
X129400Y273145D01*
X129903Y273304D01*
X130410Y273451D01*
X130920Y273586D01*
X131433Y273708D01*
X131950Y273817D01*
X132468Y273913D01*
X132989Y273997D01*
X133512Y274068D01*
X134037Y274126D01*
X134562Y274172D01*
X135089Y274204D01*
X135616Y274224D01*
X136144Y274230D01*
X136672Y274224D01*
X137199Y274204D01*
X137726Y274172D01*
X138251Y274126D01*
X138776Y274068D01*
X139299Y273997D01*
X139820Y273913D01*
X140338Y273817D01*
X140855Y273708D01*
X141368Y273586D01*
X141878Y273451D01*
X142385Y273304D01*
X142888Y273145D01*
X143387Y272973D01*
X143882Y272789D01*
X144372Y272593D01*
X144857Y272386D01*
X145336Y272166D01*
X145811Y271934D01*
X146279Y271691D01*
X146741Y271437D01*
X147197Y271171D01*
X147646Y270894D01*
X148089Y270607D01*
X148524Y270308D01*
X148952Y269999D01*
X149371Y269679D01*
X149783Y269350D01*
X150187Y269010D01*
X150583Y268660D01*
X150969Y268301D01*
X151347Y267933D01*
X151715Y267555D01*
X152074Y267169D01*
X152424Y266773D01*
X152764Y266369D01*
X153093Y265957D01*
X153413Y265538D01*
X153722Y265110D01*
X154021Y264675D01*
X154308Y264232D01*
X154585Y263783D01*
X154851Y263327D01*
X155105Y262865D01*
X155348Y262397D01*
X155580Y261922D01*
X155800Y261443D01*
X156007Y260958D01*
X156203Y260468D01*
X156387Y259973D01*
X156559Y259474D01*
X156718Y258971D01*
X156865Y258464D01*
X157000Y257954D01*
X157122Y257441D01*
X157231Y256924D01*
X157327Y256406D01*
X157411Y255885D01*
X157482Y255362D01*
X157540Y254837D01*
X157586Y254312D01*
X157618Y253785D01*
X157638Y253258D01*
X157644Y252730D01*
X157638Y252202D01*
X157618Y251675D01*
X157586Y251148D01*
X157540Y250623D01*
X157482Y250098D01*
X157411Y249575D01*
X157327Y249054D01*
X157231Y248536D01*
X157122Y248019D01*
X157000Y247506D01*
X156865Y246996D01*
X156718Y246489D01*
X156559Y245986D01*
X156387Y245487D01*
X156203Y244992D01*
X156007Y244502D01*
X155800Y244017D01*
X155580Y243538D01*
X155348Y243063D01*
X155105Y242595D01*
X154851Y242133D01*
X154585Y241677D01*
X154308Y241228D01*
X154021Y240785D01*
X153722Y240350D01*
X153413Y239922D01*
X153093Y239503D01*
X152764Y239091D01*
X152424Y238687D01*
X152074Y238291D01*
X151715Y237905D01*
X151347Y237527D01*
X150969Y237159D01*
X150583Y236800D01*
X150187Y236450D01*
X149783Y236110D01*
X149371Y235781D01*
X148952Y235461D01*
X148524Y235152D01*
X148089Y234853D01*
X147646Y234566D01*
X147197Y234289D01*
X146741Y234023D01*
X146279Y233769D01*
X145811Y233526D01*
X145336Y233294D01*
X144857Y233074D01*
X144372Y232867D01*
X143882Y232671D01*
X143387Y232487D01*
X142888Y232315D01*
X142385Y232156D01*
X141878Y232009D01*
X141368Y231874D01*
X140855Y231752D01*
X140338Y231643D01*
X139820Y231547D01*
X139299Y231463D01*
X138776Y231392D01*
X138251Y231334D01*
X137726Y231288D01*
X137199Y231256D01*
X136672Y231236D01*
X136144Y231230D01*
X135616Y231236D01*
X135089Y231256D01*
X134562Y231288D01*
X134037Y231334D01*
X133512Y231392D01*
X132989Y231463D01*
X132468Y231547D01*
X131950Y231643D01*
X131433Y231752D01*
X130920Y231874D01*
X130410Y232009D01*
X129903Y232156D01*
X129400Y232315D01*
X128901Y232487D01*
X128406Y232671D01*
X127916Y232867D01*
X127431Y233074D01*
X126952Y233294D01*
X126477Y233526D01*
X126009Y233769D01*
X125547Y234023D01*
X125091Y234289D01*
X124642Y234566D01*
X124199Y234853D01*
X123764Y235152D01*
X123336Y235461D01*
X122917Y235781D01*
X122505Y236110D01*
X122101Y236450D01*
X121705Y236800D01*
X121319Y237159D01*
X120941Y237527D01*
X120573Y237905D01*
X120214Y238291D01*
X119864Y238687D01*
X119524Y239091D01*
X119195Y239503D01*
X118875Y239922D01*
X118566Y240350D01*
X118267Y240785D01*
X117980Y241228D01*
X117703Y241677D01*
X117437Y242133D01*
X117183Y242595D01*
X116940Y243063D01*
X116708Y243538D01*
X116488Y244017D01*
X116281Y244502D01*
X116085Y244992D01*
X115901Y245487D01*
X115729Y245986D01*
X115570Y246489D01*
X115423Y246996D01*
X115288Y247506D01*
X115166Y248019D01*
X115057Y248536D01*
X114961Y249054D01*
X114877Y249575D01*
X114806Y250098D01*
X114748Y250623D01*
X114702Y251148D01*
X114670Y251675D01*
X114650Y252202D01*
X114644Y252730D01*
M02*
