G04 EAGLE Gerber RS-274X export*
G75*
%MOMM*%
%FSLAX34Y34*%
%LPD*%
%INTop Copper*%
%IPPOS*%
%AMOC8*
5,1,8,0,0,1.08239X$1,22.5*%
G01*
%ADD10C,0.300000*%
%ADD11R,0.600000X0.700000*%
%ADD12R,0.700000X0.600000*%
%ADD13R,0.700000X0.900000*%
%ADD14C,1.524000*%
%ADD15P,2.763017X8X112.500000*%
%ADD16C,8.000000*%
%ADD17P,2.763017X8X22.500000*%
%ADD18C,0.152400*%
%ADD19C,0.756400*%
%ADD20C,0.254000*%

G36*
X280032Y207717D02*
X280032Y207717D01*
X280149Y207732D01*
X280267Y207739D01*
X280306Y207752D01*
X280348Y207757D01*
X280457Y207801D01*
X280569Y207837D01*
X280605Y207859D01*
X280643Y207875D01*
X280738Y207944D01*
X280838Y208007D01*
X280867Y208037D01*
X280900Y208062D01*
X280975Y208153D01*
X281056Y208239D01*
X281076Y208275D01*
X281103Y208307D01*
X281153Y208414D01*
X281210Y208517D01*
X281220Y208558D01*
X281238Y208595D01*
X281260Y208711D01*
X281289Y208825D01*
X281293Y208887D01*
X281297Y208908D01*
X281296Y208928D01*
X281299Y208986D01*
X281299Y209071D01*
X285591Y209071D01*
X285591Y208998D01*
X285606Y208879D01*
X285613Y208759D01*
X285626Y208722D01*
X285631Y208683D01*
X285675Y208571D01*
X285712Y208457D01*
X285733Y208424D01*
X285748Y208387D01*
X285818Y208290D01*
X285883Y208188D01*
X285911Y208162D01*
X285934Y208130D01*
X286027Y208053D01*
X286115Y207971D01*
X286149Y207952D01*
X286179Y207927D01*
X286288Y207876D01*
X286393Y207818D01*
X286432Y207808D01*
X286467Y207791D01*
X286585Y207769D01*
X286702Y207739D01*
X286760Y207735D01*
X286779Y207732D01*
X286800Y207733D01*
X286862Y207729D01*
X288546Y207732D01*
X288663Y207747D01*
X288781Y207754D01*
X288820Y207767D01*
X288862Y207772D01*
X288971Y207816D01*
X289083Y207852D01*
X289119Y207875D01*
X289157Y207890D01*
X289252Y207959D01*
X289352Y208023D01*
X289381Y208053D01*
X289414Y208077D01*
X289489Y208168D01*
X289570Y208254D01*
X289590Y208291D01*
X289617Y208323D01*
X289667Y208429D01*
X289724Y208533D01*
X289734Y208573D01*
X289752Y208611D01*
X289774Y208727D01*
X289803Y208841D01*
X289807Y208903D01*
X289811Y208923D01*
X289810Y208943D01*
X289813Y209001D01*
X289813Y216883D01*
X289801Y216982D01*
X289798Y217081D01*
X289781Y217139D01*
X289773Y217199D01*
X289737Y217291D01*
X289709Y217386D01*
X289679Y217438D01*
X289656Y217495D01*
X289598Y217575D01*
X289548Y217660D01*
X289482Y217735D01*
X289470Y217752D01*
X289460Y217760D01*
X289442Y217781D01*
X287575Y219647D01*
X287575Y238853D01*
X289347Y240625D01*
X294853Y240625D01*
X296625Y238853D01*
X296625Y219647D01*
X294758Y217781D01*
X294698Y217703D01*
X294630Y217630D01*
X294601Y217577D01*
X294564Y217530D01*
X294524Y217439D01*
X294476Y217352D01*
X294461Y217293D01*
X294437Y217238D01*
X294422Y217140D01*
X294397Y217044D01*
X294391Y216944D01*
X294387Y216924D01*
X294389Y216911D01*
X294387Y216883D01*
X294387Y209014D01*
X294402Y208895D01*
X294409Y208775D01*
X294422Y208738D01*
X294427Y208699D01*
X294471Y208587D01*
X294508Y208473D01*
X294529Y208439D01*
X294544Y208403D01*
X294614Y208306D01*
X294679Y208204D01*
X294707Y208177D01*
X294730Y208146D01*
X294823Y208069D01*
X294911Y207987D01*
X294945Y207968D01*
X294975Y207943D01*
X295084Y207892D01*
X295189Y207834D01*
X295228Y207824D01*
X295263Y207807D01*
X295381Y207785D01*
X295498Y207755D01*
X295556Y207751D01*
X295575Y207747D01*
X295596Y207749D01*
X295658Y207745D01*
X308717Y207768D01*
X308725Y207769D01*
X308734Y207769D01*
X308764Y207773D01*
X311150Y207773D01*
X311172Y207775D01*
X311250Y207777D01*
X312720Y207892D01*
X312788Y207906D01*
X312856Y207911D01*
X313012Y207951D01*
X314749Y208515D01*
X314758Y208519D01*
X314767Y208521D01*
X314903Y208587D01*
X315037Y208650D01*
X315044Y208656D01*
X315053Y208661D01*
X315167Y208758D01*
X315282Y208853D01*
X315288Y208861D01*
X315295Y208867D01*
X315381Y208989D01*
X315469Y209110D01*
X315473Y209119D01*
X315478Y209127D01*
X315531Y209266D01*
X315586Y209406D01*
X315587Y209415D01*
X315591Y209424D01*
X315607Y209573D01*
X315626Y209721D01*
X315625Y209731D01*
X315626Y209740D01*
X315605Y209888D01*
X315587Y210037D01*
X315583Y210046D01*
X315582Y210055D01*
X315530Y210208D01*
X314451Y212811D01*
X314451Y216449D01*
X315028Y217840D01*
X315035Y217869D01*
X315049Y217895D01*
X315077Y218022D01*
X315112Y218147D01*
X315112Y218177D01*
X315118Y218205D01*
X315115Y218335D01*
X315117Y218465D01*
X315110Y218494D01*
X315109Y218523D01*
X315073Y218648D01*
X315042Y218774D01*
X315029Y218801D01*
X315020Y218829D01*
X314955Y218940D01*
X314894Y219055D01*
X314874Y219077D01*
X314859Y219103D01*
X314752Y219224D01*
X311845Y222131D01*
X311492Y222485D01*
X311382Y222570D01*
X311275Y222658D01*
X311256Y222667D01*
X311240Y222680D01*
X311113Y222735D01*
X310987Y222794D01*
X310967Y222798D01*
X310948Y222806D01*
X310811Y222828D01*
X310674Y222854D01*
X310654Y222853D01*
X310634Y222856D01*
X310496Y222843D01*
X310357Y222834D01*
X310338Y222828D01*
X310318Y222826D01*
X310186Y222779D01*
X310055Y222736D01*
X310038Y222725D01*
X310018Y222718D01*
X309903Y222640D01*
X309786Y222566D01*
X309772Y222551D01*
X309755Y222540D01*
X309663Y222436D01*
X309568Y222334D01*
X309558Y222317D01*
X309545Y222301D01*
X309481Y222177D01*
X309414Y222056D01*
X309409Y222036D01*
X309400Y222018D01*
X309370Y221882D01*
X309335Y221748D01*
X309333Y221720D01*
X309330Y221708D01*
X309331Y221687D01*
X309325Y221587D01*
X309325Y219647D01*
X307553Y217875D01*
X302047Y217875D01*
X300275Y219647D01*
X300275Y238853D01*
X302142Y240719D01*
X302202Y240797D01*
X302270Y240869D01*
X302299Y240922D01*
X302336Y240970D01*
X302376Y241061D01*
X302424Y241148D01*
X302439Y241207D01*
X302463Y241262D01*
X302478Y241360D01*
X302503Y241456D01*
X302509Y241556D01*
X302513Y241576D01*
X302511Y241589D01*
X302513Y241617D01*
X302513Y248717D01*
X302501Y248815D01*
X302498Y248914D01*
X302481Y248972D01*
X302473Y249033D01*
X302437Y249125D01*
X302409Y249220D01*
X302379Y249272D01*
X302356Y249328D01*
X302298Y249408D01*
X302248Y249494D01*
X302182Y249569D01*
X302170Y249586D01*
X302160Y249593D01*
X302142Y249615D01*
X301685Y250072D01*
X301606Y250132D01*
X301534Y250200D01*
X301481Y250229D01*
X301433Y250266D01*
X301342Y250306D01*
X301256Y250354D01*
X301197Y250369D01*
X301141Y250393D01*
X301043Y250408D01*
X300948Y250433D01*
X300848Y250439D01*
X300827Y250443D01*
X300815Y250441D01*
X300787Y250443D01*
X289214Y250443D01*
X289165Y250437D01*
X289115Y250439D01*
X289008Y250417D01*
X288899Y250403D01*
X288852Y250385D01*
X288804Y250375D01*
X288705Y250327D01*
X288603Y250286D01*
X288563Y250257D01*
X288518Y250235D01*
X288434Y250164D01*
X288345Y250100D01*
X288314Y250061D01*
X288276Y250029D01*
X288213Y249939D01*
X288143Y249855D01*
X288121Y249810D01*
X288093Y249769D01*
X288054Y249666D01*
X288007Y249567D01*
X287998Y249518D01*
X287980Y249472D01*
X287968Y249362D01*
X287947Y249255D01*
X287950Y249205D01*
X287945Y249156D01*
X287960Y249047D01*
X287967Y248937D01*
X287982Y248890D01*
X287989Y248841D01*
X288041Y248688D01*
X288771Y246928D01*
X288771Y244816D01*
X287963Y242866D01*
X286470Y241373D01*
X284643Y240616D01*
X284600Y240592D01*
X284553Y240575D01*
X284462Y240513D01*
X284367Y240459D01*
X284331Y240424D01*
X284290Y240396D01*
X284217Y240314D01*
X284138Y240238D01*
X284112Y240195D01*
X284079Y240158D01*
X284030Y240060D01*
X283972Y239966D01*
X283957Y239919D01*
X283935Y239874D01*
X283911Y239767D01*
X283879Y239663D01*
X283876Y239613D01*
X283865Y239564D01*
X283869Y239455D01*
X283863Y239345D01*
X283873Y239296D01*
X283875Y239246D01*
X283905Y239141D01*
X283925Y239048D01*
X283925Y219647D01*
X283891Y219613D01*
X283814Y219514D01*
X283732Y219419D01*
X283717Y219389D01*
X283696Y219362D01*
X283646Y219247D01*
X283590Y219134D01*
X283583Y219101D01*
X283570Y219070D01*
X283550Y218946D01*
X283524Y218823D01*
X283525Y218789D01*
X283520Y218756D01*
X283532Y218631D01*
X283537Y218505D01*
X283546Y218473D01*
X283550Y218439D01*
X283592Y218321D01*
X283628Y218201D01*
X283646Y218172D01*
X283657Y218140D01*
X283728Y218036D01*
X283793Y217928D01*
X283817Y217905D01*
X283836Y217877D01*
X283930Y217794D01*
X284020Y217706D01*
X284060Y217679D01*
X284074Y217667D01*
X284093Y217657D01*
X284154Y217617D01*
X284610Y217353D01*
X285083Y216880D01*
X285418Y216301D01*
X285591Y215654D01*
X285591Y212569D01*
X280030Y212569D01*
X279912Y212554D01*
X279793Y212547D01*
X279755Y212534D01*
X279715Y212529D01*
X279604Y212486D01*
X279491Y212449D01*
X279457Y212427D01*
X279419Y212412D01*
X279323Y212343D01*
X279222Y212279D01*
X279194Y212249D01*
X279162Y212226D01*
X279086Y212134D01*
X279004Y212047D01*
X278985Y212012D01*
X278959Y211981D01*
X278908Y211873D01*
X278851Y211769D01*
X278841Y211729D01*
X278823Y211693D01*
X278801Y211576D01*
X278795Y211574D01*
X278754Y211569D01*
X278644Y211525D01*
X278531Y211489D01*
X278496Y211467D01*
X278459Y211452D01*
X278362Y211382D01*
X278262Y211319D01*
X278234Y211289D01*
X278201Y211265D01*
X278125Y211174D01*
X278044Y211087D01*
X278024Y211052D01*
X277999Y211020D01*
X277948Y210913D01*
X277890Y210808D01*
X277880Y210769D01*
X277863Y210733D01*
X277841Y210616D01*
X277811Y210500D01*
X277807Y210440D01*
X277803Y210420D01*
X277805Y210400D01*
X277801Y210340D01*
X277801Y208984D01*
X277816Y208865D01*
X277823Y208745D01*
X277836Y208708D01*
X277841Y208669D01*
X277885Y208557D01*
X277922Y208443D01*
X277943Y208410D01*
X277958Y208373D01*
X278028Y208276D01*
X278093Y208174D01*
X278121Y208147D01*
X278144Y208116D01*
X278237Y208039D01*
X278325Y207957D01*
X278359Y207938D01*
X278389Y207913D01*
X278498Y207862D01*
X278603Y207804D01*
X278642Y207794D01*
X278677Y207777D01*
X278795Y207755D01*
X278912Y207725D01*
X278970Y207721D01*
X278989Y207718D01*
X279010Y207719D01*
X279072Y207715D01*
X280032Y207717D01*
G37*
G36*
X286661Y263157D02*
X286661Y263157D01*
X286760Y263160D01*
X286818Y263177D01*
X286879Y263185D01*
X286971Y263221D01*
X287066Y263249D01*
X287118Y263279D01*
X287174Y263302D01*
X287254Y263360D01*
X287340Y263410D01*
X287415Y263476D01*
X287432Y263488D01*
X287439Y263498D01*
X287461Y263516D01*
X289436Y265492D01*
X289509Y265586D01*
X289587Y265675D01*
X289606Y265711D01*
X289631Y265743D01*
X289678Y265852D01*
X289732Y265958D01*
X289741Y265998D01*
X289757Y266035D01*
X289776Y266153D01*
X289802Y266269D01*
X289801Y266309D01*
X289807Y266349D01*
X289796Y266468D01*
X289792Y266586D01*
X289781Y266625D01*
X289777Y266666D01*
X289737Y266778D01*
X289704Y266892D01*
X289683Y266927D01*
X289669Y266965D01*
X289602Y267063D01*
X289542Y267166D01*
X289502Y267211D01*
X289491Y267228D01*
X289476Y267241D01*
X289436Y267287D01*
X287575Y269147D01*
X287575Y288353D01*
X289240Y290017D01*
X289313Y290111D01*
X289391Y290200D01*
X289410Y290236D01*
X289434Y290268D01*
X289482Y290378D01*
X289536Y290484D01*
X289545Y290523D01*
X289561Y290560D01*
X289580Y290678D01*
X289606Y290794D01*
X289604Y290834D01*
X289611Y290874D01*
X289600Y290993D01*
X289596Y291112D01*
X289585Y291151D01*
X289581Y291191D01*
X289541Y291303D01*
X289507Y291417D01*
X289487Y291452D01*
X289473Y291490D01*
X289406Y291589D01*
X289346Y291691D01*
X289306Y291737D01*
X289295Y291753D01*
X289279Y291767D01*
X289240Y291812D01*
X288679Y292372D01*
X288592Y292440D01*
X288554Y292476D01*
X288545Y292481D01*
X288496Y292524D01*
X288460Y292542D01*
X288428Y292567D01*
X288319Y292615D01*
X288213Y292669D01*
X288174Y292677D01*
X288136Y292693D01*
X288019Y292712D01*
X287903Y292738D01*
X287862Y292737D01*
X287822Y292743D01*
X287704Y292732D01*
X287585Y292729D01*
X287546Y292717D01*
X287506Y292714D01*
X287394Y292673D01*
X287279Y292640D01*
X287244Y292620D01*
X287206Y292606D01*
X287108Y292539D01*
X287005Y292479D01*
X286960Y292439D01*
X286943Y292427D01*
X286930Y292412D01*
X286884Y292372D01*
X286414Y291901D01*
X283441Y291901D01*
X283303Y291884D01*
X283164Y291871D01*
X283145Y291864D01*
X283125Y291861D01*
X282996Y291810D01*
X282865Y291763D01*
X282848Y291752D01*
X282829Y291744D01*
X282717Y291663D01*
X282602Y291585D01*
X282588Y291569D01*
X282572Y291558D01*
X282483Y291450D01*
X282391Y291346D01*
X282382Y291328D01*
X282369Y291313D01*
X282310Y291187D01*
X282247Y291063D01*
X282242Y291043D01*
X282234Y291025D01*
X282208Y290888D01*
X282177Y290753D01*
X282178Y290732D01*
X282174Y290713D01*
X282183Y290574D01*
X282187Y290435D01*
X282192Y290415D01*
X282194Y290395D01*
X282236Y290263D01*
X282275Y290129D01*
X282285Y290112D01*
X282292Y290093D01*
X282366Y289975D01*
X282437Y289855D01*
X282455Y289834D01*
X282462Y289824D01*
X282477Y289810D01*
X282543Y289735D01*
X283925Y288353D01*
X283925Y269147D01*
X282153Y267375D01*
X276647Y267375D01*
X274875Y269147D01*
X274875Y288467D01*
X274863Y288565D01*
X274860Y288664D01*
X274843Y288722D01*
X274835Y288783D01*
X274799Y288875D01*
X274771Y288970D01*
X274741Y289022D01*
X274718Y289078D01*
X274660Y289158D01*
X274610Y289244D01*
X274544Y289319D01*
X274532Y289336D01*
X274522Y289343D01*
X274504Y289365D01*
X274128Y289740D01*
X274013Y289830D01*
X273899Y289921D01*
X273887Y289927D01*
X273877Y289935D01*
X273743Y289993D01*
X273610Y290054D01*
X273597Y290056D01*
X273585Y290062D01*
X273442Y290084D01*
X273297Y290110D01*
X273284Y290109D01*
X273271Y290111D01*
X273126Y290098D01*
X272980Y290087D01*
X272967Y290083D01*
X272954Y290082D01*
X272817Y290032D01*
X272679Y289986D01*
X272667Y289979D01*
X272655Y289974D01*
X272534Y289892D01*
X272412Y289813D01*
X272403Y289803D01*
X272392Y289795D01*
X272295Y289686D01*
X272196Y289579D01*
X272190Y289567D01*
X272181Y289557D01*
X272115Y289427D01*
X272046Y289299D01*
X272043Y289286D01*
X272036Y289274D01*
X272004Y289131D01*
X271970Y288990D01*
X271970Y288977D01*
X271967Y288963D01*
X271971Y288817D01*
X271973Y288672D01*
X271976Y288654D01*
X271976Y288646D01*
X271981Y288629D01*
X272004Y288514D01*
X272241Y287632D01*
X272241Y280249D01*
X268199Y280249D01*
X268199Y290378D01*
X268184Y290496D01*
X268177Y290615D01*
X268164Y290653D01*
X268159Y290694D01*
X268116Y290804D01*
X268079Y290917D01*
X268057Y290952D01*
X268042Y290989D01*
X267973Y291085D01*
X267909Y291186D01*
X267879Y291214D01*
X267856Y291247D01*
X267764Y291323D01*
X267677Y291404D01*
X267642Y291424D01*
X267611Y291449D01*
X267503Y291500D01*
X267399Y291558D01*
X267359Y291568D01*
X267323Y291585D01*
X267206Y291607D01*
X267091Y291637D01*
X267031Y291641D01*
X267011Y291645D01*
X266990Y291643D01*
X266930Y291647D01*
X266470Y291647D01*
X266352Y291632D01*
X266233Y291625D01*
X266195Y291612D01*
X266154Y291607D01*
X266044Y291564D01*
X265931Y291527D01*
X265896Y291505D01*
X265859Y291490D01*
X265762Y291421D01*
X265662Y291357D01*
X265634Y291327D01*
X265601Y291304D01*
X265525Y291212D01*
X265444Y291125D01*
X265424Y291090D01*
X265399Y291059D01*
X265348Y290951D01*
X265290Y290847D01*
X265280Y290807D01*
X265263Y290771D01*
X265241Y290654D01*
X265211Y290539D01*
X265207Y290479D01*
X265203Y290459D01*
X265205Y290438D01*
X265201Y290378D01*
X265201Y280249D01*
X261159Y280249D01*
X261159Y287632D01*
X261435Y288660D01*
X261759Y289222D01*
X261795Y289307D01*
X261840Y289388D01*
X261856Y289453D01*
X261882Y289515D01*
X261896Y289606D01*
X261919Y289696D01*
X261926Y289813D01*
X261929Y289830D01*
X261928Y289838D01*
X261929Y289856D01*
X261929Y296332D01*
X261914Y296452D01*
X261907Y296572D01*
X261894Y296609D01*
X261889Y296648D01*
X261845Y296760D01*
X261808Y296874D01*
X261787Y296907D01*
X261772Y296944D01*
X261702Y297041D01*
X261637Y297142D01*
X261609Y297169D01*
X261586Y297201D01*
X261493Y297278D01*
X261405Y297360D01*
X261371Y297379D01*
X261341Y297404D01*
X261232Y297455D01*
X261126Y297513D01*
X261088Y297523D01*
X261053Y297539D01*
X260935Y297562D01*
X260818Y297592D01*
X260760Y297595D01*
X260741Y297599D01*
X260720Y297598D01*
X260658Y297602D01*
X260198Y297601D01*
X260081Y297586D01*
X259963Y297578D01*
X259923Y297566D01*
X259882Y297560D01*
X259773Y297517D01*
X259661Y297480D01*
X259625Y297458D01*
X259587Y297443D01*
X259491Y297373D01*
X259392Y297310D01*
X259363Y297280D01*
X259330Y297255D01*
X259255Y297165D01*
X259174Y297079D01*
X259154Y297042D01*
X259127Y297010D01*
X259077Y296903D01*
X259020Y296800D01*
X259010Y296760D01*
X258992Y296722D01*
X258970Y296606D01*
X258941Y296492D01*
X258937Y296430D01*
X258933Y296410D01*
X258934Y296390D01*
X258931Y296332D01*
X258931Y290566D01*
X258866Y290540D01*
X258735Y290493D01*
X258718Y290482D01*
X258699Y290474D01*
X258587Y290393D01*
X258472Y290315D01*
X258458Y290299D01*
X258442Y290288D01*
X258353Y290180D01*
X258261Y290076D01*
X258252Y290058D01*
X258239Y290043D01*
X258180Y289917D01*
X258117Y289793D01*
X258112Y289773D01*
X258104Y289755D01*
X258078Y289619D01*
X258047Y289483D01*
X258048Y289462D01*
X258044Y289442D01*
X258053Y289304D01*
X258057Y289165D01*
X258062Y289145D01*
X258064Y289125D01*
X258106Y288993D01*
X258145Y288859D01*
X258155Y288842D01*
X258162Y288823D01*
X258236Y288705D01*
X258307Y288585D01*
X258325Y288564D01*
X258332Y288554D01*
X258347Y288540D01*
X258413Y288464D01*
X258525Y288353D01*
X258525Y269147D01*
X257657Y268279D01*
X257584Y268185D01*
X257505Y268096D01*
X257487Y268060D01*
X257462Y268028D01*
X257415Y267919D01*
X257360Y267813D01*
X257352Y267773D01*
X257335Y267736D01*
X257317Y267618D01*
X257291Y267502D01*
X257292Y267462D01*
X257286Y267422D01*
X257297Y267303D01*
X257300Y267184D01*
X257312Y267146D01*
X257315Y267105D01*
X257356Y266993D01*
X257389Y266879D01*
X257409Y266844D01*
X257423Y266806D01*
X257490Y266708D01*
X257550Y266605D01*
X257590Y266560D01*
X257602Y266543D01*
X257617Y266529D01*
X257657Y266484D01*
X259007Y265134D01*
X259506Y263928D01*
X259521Y263903D01*
X259530Y263875D01*
X259599Y263765D01*
X259664Y263652D01*
X259684Y263631D01*
X259700Y263606D01*
X259795Y263517D01*
X259885Y263424D01*
X259910Y263408D01*
X259932Y263388D01*
X260045Y263325D01*
X260156Y263257D01*
X260184Y263249D01*
X260210Y263234D01*
X260336Y263202D01*
X260460Y263164D01*
X260490Y263162D01*
X260518Y263155D01*
X260679Y263145D01*
X286563Y263145D01*
X286661Y263157D01*
G37*
G36*
X316034Y247316D02*
X316034Y247316D01*
X316173Y247321D01*
X316193Y247326D01*
X316213Y247327D01*
X316345Y247370D01*
X316479Y247409D01*
X316496Y247419D01*
X316515Y247425D01*
X316633Y247500D01*
X316753Y247571D01*
X316774Y247589D01*
X316784Y247596D01*
X316798Y247611D01*
X316874Y247677D01*
X316977Y247780D01*
X318271Y248720D01*
X319696Y249446D01*
X320940Y249851D01*
X321012Y249885D01*
X321087Y249909D01*
X321155Y249952D01*
X321228Y249986D01*
X321289Y250037D01*
X321356Y250079D01*
X321411Y250138D01*
X321473Y250189D01*
X321520Y250253D01*
X321574Y250311D01*
X321613Y250381D01*
X321660Y250446D01*
X321689Y250520D01*
X321728Y250589D01*
X321748Y250667D01*
X321777Y250742D01*
X321787Y250820D01*
X321807Y250897D01*
X321817Y251057D01*
X321817Y251058D01*
X321817Y255421D01*
X321814Y255450D01*
X321816Y255479D01*
X321794Y255607D01*
X321777Y255736D01*
X321767Y255763D01*
X321762Y255793D01*
X321708Y255911D01*
X321660Y256032D01*
X321643Y256056D01*
X321631Y256083D01*
X321550Y256184D01*
X321474Y256289D01*
X321451Y256308D01*
X321432Y256331D01*
X321329Y256409D01*
X321229Y256492D01*
X321202Y256504D01*
X321178Y256522D01*
X321034Y256593D01*
X318416Y257677D01*
X315843Y260250D01*
X314451Y263611D01*
X314451Y267249D01*
X315843Y270610D01*
X318398Y273164D01*
X318458Y273242D01*
X318526Y273314D01*
X318555Y273367D01*
X318592Y273415D01*
X318632Y273506D01*
X318680Y273593D01*
X318695Y273652D01*
X318719Y273707D01*
X318734Y273805D01*
X318759Y273901D01*
X318765Y274001D01*
X318769Y274021D01*
X318767Y274034D01*
X318769Y274062D01*
X318769Y276657D01*
X318757Y276755D01*
X318754Y276854D01*
X318737Y276912D01*
X318729Y276973D01*
X318693Y277065D01*
X318665Y277160D01*
X318635Y277212D01*
X318612Y277268D01*
X318554Y277348D01*
X318504Y277434D01*
X318438Y277509D01*
X318426Y277526D01*
X318416Y277533D01*
X318398Y277555D01*
X311491Y284461D01*
X311382Y284546D01*
X311275Y284634D01*
X311256Y284643D01*
X311240Y284656D01*
X311112Y284711D01*
X310987Y284770D01*
X310967Y284774D01*
X310948Y284782D01*
X310810Y284804D01*
X310674Y284830D01*
X310654Y284829D01*
X310634Y284832D01*
X310495Y284819D01*
X310357Y284810D01*
X310338Y284804D01*
X310318Y284802D01*
X310186Y284755D01*
X310055Y284712D01*
X310037Y284701D01*
X310018Y284694D01*
X309903Y284616D01*
X309786Y284542D01*
X309772Y284527D01*
X309755Y284516D01*
X309663Y284411D01*
X309568Y284310D01*
X309558Y284293D01*
X309545Y284277D01*
X309481Y284153D01*
X309414Y284032D01*
X309409Y284012D01*
X309400Y283994D01*
X309370Y283858D01*
X309335Y283724D01*
X309333Y283696D01*
X309330Y283684D01*
X309331Y283663D01*
X309325Y283563D01*
X309325Y269147D01*
X307458Y267281D01*
X307398Y267203D01*
X307330Y267131D01*
X307301Y267078D01*
X307264Y267030D01*
X307224Y266939D01*
X307176Y266852D01*
X307161Y266793D01*
X307137Y266738D01*
X307122Y266640D01*
X307097Y266544D01*
X307091Y266444D01*
X307087Y266424D01*
X307089Y266411D01*
X307087Y266383D01*
X307087Y264737D01*
X302632Y260283D01*
X302582Y260232D01*
X302496Y260122D01*
X302408Y260015D01*
X302399Y259996D01*
X302387Y259981D01*
X302331Y259853D01*
X302272Y259727D01*
X302268Y259707D01*
X302260Y259689D01*
X302238Y259551D01*
X302212Y259414D01*
X302213Y259394D01*
X302210Y259375D01*
X302223Y259236D01*
X302232Y259097D01*
X302238Y259078D01*
X302240Y259058D01*
X302287Y258927D01*
X302330Y258795D01*
X302341Y258778D01*
X302347Y258759D01*
X302426Y258643D01*
X302500Y258526D01*
X302515Y258512D01*
X302526Y258496D01*
X302630Y258403D01*
X302732Y258308D01*
X302749Y258298D01*
X302764Y258285D01*
X302889Y258222D01*
X303010Y258154D01*
X303030Y258149D01*
X303048Y258140D01*
X303184Y258110D01*
X303318Y258075D01*
X303346Y258073D01*
X303358Y258071D01*
X303378Y258071D01*
X303479Y258065D01*
X307779Y258065D01*
X314707Y251137D01*
X314707Y248574D01*
X314724Y248437D01*
X314737Y248298D01*
X314744Y248279D01*
X314747Y248259D01*
X314798Y248130D01*
X314845Y247999D01*
X314856Y247982D01*
X314864Y247963D01*
X314945Y247850D01*
X315023Y247736D01*
X315039Y247722D01*
X315050Y247706D01*
X315158Y247617D01*
X315262Y247525D01*
X315280Y247516D01*
X315295Y247503D01*
X315421Y247444D01*
X315545Y247381D01*
X315565Y247376D01*
X315583Y247367D01*
X315720Y247341D01*
X315855Y247311D01*
X315876Y247312D01*
X315895Y247308D01*
X316034Y247316D01*
G37*
G36*
X260258Y207681D02*
X260258Y207681D01*
X260375Y207696D01*
X260493Y207703D01*
X260532Y207716D01*
X260574Y207721D01*
X260684Y207765D01*
X260795Y207801D01*
X260831Y207824D01*
X260869Y207839D01*
X260965Y207908D01*
X261064Y207972D01*
X261093Y208002D01*
X261126Y208026D01*
X261201Y208117D01*
X261282Y208203D01*
X261302Y208240D01*
X261329Y208272D01*
X261379Y208378D01*
X261436Y208482D01*
X261446Y208522D01*
X261464Y208560D01*
X261486Y208676D01*
X261515Y208790D01*
X261519Y208852D01*
X261523Y208872D01*
X261522Y208892D01*
X261525Y208950D01*
X261525Y215952D01*
X262699Y217125D01*
X262752Y217161D01*
X262766Y217177D01*
X262782Y217188D01*
X262871Y217296D01*
X262963Y217400D01*
X262972Y217418D01*
X262985Y217433D01*
X263044Y217559D01*
X263107Y217683D01*
X263112Y217703D01*
X263120Y217721D01*
X263146Y217858D01*
X263177Y217993D01*
X263176Y218014D01*
X263180Y218033D01*
X263172Y218172D01*
X263167Y218311D01*
X263162Y218331D01*
X263160Y218351D01*
X263118Y218483D01*
X263079Y218617D01*
X263069Y218634D01*
X263062Y218653D01*
X262988Y218771D01*
X262917Y218891D01*
X262899Y218912D01*
X262892Y218922D01*
X262877Y218936D01*
X262811Y219011D01*
X262175Y219647D01*
X262175Y238853D01*
X263534Y240211D01*
X263594Y240289D01*
X263662Y240362D01*
X263691Y240415D01*
X263728Y240462D01*
X263768Y240553D01*
X263816Y240640D01*
X263831Y240699D01*
X263855Y240754D01*
X263870Y240852D01*
X263895Y240948D01*
X263901Y241048D01*
X263905Y241068D01*
X263903Y241081D01*
X263905Y241109D01*
X263905Y249174D01*
X263890Y249292D01*
X263883Y249411D01*
X263870Y249449D01*
X263865Y249490D01*
X263822Y249600D01*
X263785Y249713D01*
X263763Y249748D01*
X263748Y249785D01*
X263679Y249881D01*
X263615Y249982D01*
X263585Y250010D01*
X263562Y250043D01*
X263470Y250119D01*
X263383Y250200D01*
X263348Y250220D01*
X263317Y250245D01*
X263209Y250296D01*
X263105Y250354D01*
X263065Y250364D01*
X263029Y250381D01*
X262912Y250403D01*
X262797Y250433D01*
X262737Y250437D01*
X262717Y250441D01*
X262696Y250439D01*
X262636Y250443D01*
X259236Y250443D01*
X259098Y250426D01*
X258959Y250413D01*
X258940Y250406D01*
X258920Y250403D01*
X258791Y250352D01*
X258660Y250305D01*
X258643Y250294D01*
X258625Y250286D01*
X258512Y250205D01*
X258397Y250127D01*
X258384Y250111D01*
X258367Y250100D01*
X258279Y249992D01*
X258187Y249888D01*
X258177Y249870D01*
X258164Y249855D01*
X258105Y249729D01*
X258042Y249605D01*
X258037Y249585D01*
X258029Y249567D01*
X258003Y249431D01*
X257972Y249295D01*
X257973Y249274D01*
X257969Y249255D01*
X257978Y249116D01*
X257982Y248977D01*
X257988Y248957D01*
X257989Y248937D01*
X258032Y248805D01*
X258070Y248671D01*
X258081Y248654D01*
X258087Y248635D01*
X258161Y248517D01*
X258232Y248397D01*
X258251Y248376D01*
X258257Y248366D01*
X258272Y248352D01*
X258338Y248276D01*
X258499Y248116D01*
X259307Y246166D01*
X259307Y244054D01*
X258499Y242104D01*
X257784Y241389D01*
X257711Y241295D01*
X257632Y241206D01*
X257614Y241170D01*
X257589Y241138D01*
X257541Y241028D01*
X257487Y240922D01*
X257479Y240883D01*
X257462Y240846D01*
X257444Y240728D01*
X257418Y240612D01*
X257419Y240572D01*
X257413Y240532D01*
X257424Y240413D01*
X257427Y240294D01*
X257439Y240255D01*
X257442Y240215D01*
X257483Y240103D01*
X257516Y239989D01*
X257536Y239954D01*
X257550Y239916D01*
X257617Y239817D01*
X257677Y239715D01*
X257717Y239669D01*
X257729Y239653D01*
X257744Y239639D01*
X257784Y239594D01*
X258525Y238853D01*
X258525Y219647D01*
X257118Y218240D01*
X257045Y218146D01*
X256966Y218057D01*
X256948Y218021D01*
X256923Y217989D01*
X256876Y217880D01*
X256822Y217774D01*
X256813Y217734D01*
X256797Y217697D01*
X256778Y217579D01*
X256752Y217463D01*
X256753Y217423D01*
X256747Y217383D01*
X256758Y217264D01*
X256762Y217146D01*
X256773Y217107D01*
X256777Y217066D01*
X256817Y216954D01*
X256850Y216840D01*
X256870Y216805D01*
X256884Y216767D01*
X256951Y216669D01*
X257011Y216566D01*
X257051Y216521D01*
X257063Y216504D01*
X257078Y216491D01*
X257118Y216445D01*
X257683Y215880D01*
X258018Y215301D01*
X258191Y214654D01*
X258191Y212319D01*
X252880Y212319D01*
X252762Y212304D01*
X252643Y212297D01*
X252605Y212284D01*
X252565Y212279D01*
X252454Y212236D01*
X252341Y212199D01*
X252307Y212177D01*
X252269Y212162D01*
X252173Y212093D01*
X252072Y212029D01*
X252044Y211999D01*
X252012Y211976D01*
X251936Y211884D01*
X251854Y211797D01*
X251835Y211762D01*
X251809Y211731D01*
X251758Y211623D01*
X251701Y211519D01*
X251691Y211479D01*
X251673Y211443D01*
X251651Y211326D01*
X251621Y211211D01*
X251617Y211151D01*
X251614Y211131D01*
X251615Y211110D01*
X251611Y211050D01*
X251611Y210590D01*
X251626Y210472D01*
X251633Y210353D01*
X251646Y210315D01*
X251651Y210274D01*
X251695Y210164D01*
X251731Y210051D01*
X251753Y210016D01*
X251768Y209979D01*
X251838Y209882D01*
X251901Y209782D01*
X251931Y209754D01*
X251955Y209721D01*
X252046Y209645D01*
X252133Y209564D01*
X252168Y209544D01*
X252200Y209519D01*
X252307Y209468D01*
X252412Y209410D01*
X252451Y209400D01*
X252487Y209383D01*
X252604Y209361D01*
X252720Y209331D01*
X252780Y209327D01*
X252800Y209323D01*
X252820Y209325D01*
X252880Y209321D01*
X258191Y209321D01*
X258191Y208949D01*
X258206Y208830D01*
X258213Y208710D01*
X258226Y208672D01*
X258231Y208633D01*
X258275Y208522D01*
X258312Y208407D01*
X258333Y208374D01*
X258348Y208338D01*
X258418Y208240D01*
X258483Y208139D01*
X258511Y208112D01*
X258534Y208080D01*
X258627Y208004D01*
X258715Y207921D01*
X258749Y207903D01*
X258779Y207877D01*
X258888Y207826D01*
X258993Y207768D01*
X259032Y207759D01*
X259067Y207742D01*
X259185Y207719D01*
X259302Y207690D01*
X259360Y207686D01*
X259379Y207682D01*
X259400Y207683D01*
X259462Y207680D01*
X260258Y207681D01*
G37*
%LPC*%
G36*
X268199Y266359D02*
X268199Y266359D01*
X268199Y277251D01*
X272241Y277251D01*
X272241Y269868D01*
X271965Y268840D01*
X271433Y267919D01*
X270681Y267167D01*
X269760Y266635D01*
X268732Y266359D01*
X268199Y266359D01*
G37*
%LPD*%
%LPC*%
G36*
X264668Y266359D02*
X264668Y266359D01*
X263640Y266635D01*
X262719Y267167D01*
X261967Y267919D01*
X261435Y268840D01*
X261159Y269868D01*
X261159Y277251D01*
X265201Y277251D01*
X265201Y266359D01*
X264668Y266359D01*
G37*
%LPD*%
D10*
X230100Y237600D02*
X230100Y220900D01*
X227100Y220900D01*
X227100Y237600D01*
X230100Y237600D01*
X230100Y223750D02*
X227100Y223750D01*
X227100Y226600D02*
X230100Y226600D01*
X230100Y229450D02*
X227100Y229450D01*
X227100Y232300D02*
X230100Y232300D01*
X230100Y235150D02*
X227100Y235150D01*
X242800Y237600D02*
X242800Y220900D01*
X239800Y220900D01*
X239800Y237600D01*
X242800Y237600D01*
X242800Y223750D02*
X239800Y223750D01*
X239800Y226600D02*
X242800Y226600D01*
X242800Y229450D02*
X239800Y229450D01*
X239800Y232300D02*
X242800Y232300D01*
X242800Y235150D02*
X239800Y235150D01*
X255500Y237600D02*
X255500Y220900D01*
X252500Y220900D01*
X252500Y237600D01*
X255500Y237600D01*
X255500Y223750D02*
X252500Y223750D01*
X252500Y226600D02*
X255500Y226600D01*
X255500Y229450D02*
X252500Y229450D01*
X252500Y232300D02*
X255500Y232300D01*
X255500Y235150D02*
X252500Y235150D01*
X268200Y237600D02*
X268200Y220900D01*
X265200Y220900D01*
X265200Y237600D01*
X268200Y237600D01*
X268200Y223750D02*
X265200Y223750D01*
X265200Y226600D02*
X268200Y226600D01*
X268200Y229450D02*
X265200Y229450D01*
X265200Y232300D02*
X268200Y232300D01*
X268200Y235150D02*
X265200Y235150D01*
X280900Y237600D02*
X280900Y220900D01*
X277900Y220900D01*
X277900Y237600D01*
X280900Y237600D01*
X280900Y223750D02*
X277900Y223750D01*
X277900Y226600D02*
X280900Y226600D01*
X280900Y229450D02*
X277900Y229450D01*
X277900Y232300D02*
X280900Y232300D01*
X280900Y235150D02*
X277900Y235150D01*
X293600Y237600D02*
X293600Y220900D01*
X290600Y220900D01*
X290600Y237600D01*
X293600Y237600D01*
X293600Y223750D02*
X290600Y223750D01*
X290600Y226600D02*
X293600Y226600D01*
X293600Y229450D02*
X290600Y229450D01*
X290600Y232300D02*
X293600Y232300D01*
X293600Y235150D02*
X290600Y235150D01*
X306300Y237600D02*
X306300Y220900D01*
X303300Y220900D01*
X303300Y237600D01*
X306300Y237600D01*
X306300Y223750D02*
X303300Y223750D01*
X303300Y226600D02*
X306300Y226600D01*
X306300Y229450D02*
X303300Y229450D01*
X303300Y232300D02*
X306300Y232300D01*
X306300Y235150D02*
X303300Y235150D01*
X306300Y270400D02*
X306300Y287100D01*
X306300Y270400D02*
X303300Y270400D01*
X303300Y287100D01*
X306300Y287100D01*
X306300Y273250D02*
X303300Y273250D01*
X303300Y276100D02*
X306300Y276100D01*
X306300Y278950D02*
X303300Y278950D01*
X303300Y281800D02*
X306300Y281800D01*
X306300Y284650D02*
X303300Y284650D01*
X293600Y287100D02*
X293600Y270400D01*
X290600Y270400D01*
X290600Y287100D01*
X293600Y287100D01*
X293600Y273250D02*
X290600Y273250D01*
X290600Y276100D02*
X293600Y276100D01*
X293600Y278950D02*
X290600Y278950D01*
X290600Y281800D02*
X293600Y281800D01*
X293600Y284650D02*
X290600Y284650D01*
X280900Y287100D02*
X280900Y270400D01*
X277900Y270400D01*
X277900Y287100D01*
X280900Y287100D01*
X280900Y273250D02*
X277900Y273250D01*
X277900Y276100D02*
X280900Y276100D01*
X280900Y278950D02*
X277900Y278950D01*
X277900Y281800D02*
X280900Y281800D01*
X280900Y284650D02*
X277900Y284650D01*
X268200Y287100D02*
X268200Y270400D01*
X265200Y270400D01*
X265200Y287100D01*
X268200Y287100D01*
X268200Y273250D02*
X265200Y273250D01*
X265200Y276100D02*
X268200Y276100D01*
X268200Y278950D02*
X265200Y278950D01*
X265200Y281800D02*
X268200Y281800D01*
X268200Y284650D02*
X265200Y284650D01*
X255500Y287100D02*
X255500Y270400D01*
X252500Y270400D01*
X252500Y287100D01*
X255500Y287100D01*
X255500Y273250D02*
X252500Y273250D01*
X252500Y276100D02*
X255500Y276100D01*
X255500Y278950D02*
X252500Y278950D01*
X252500Y281800D02*
X255500Y281800D01*
X255500Y284650D02*
X252500Y284650D01*
X242800Y287100D02*
X242800Y270400D01*
X239800Y270400D01*
X239800Y287100D01*
X242800Y287100D01*
X242800Y273250D02*
X239800Y273250D01*
X239800Y276100D02*
X242800Y276100D01*
X242800Y278950D02*
X239800Y278950D01*
X239800Y281800D02*
X242800Y281800D01*
X242800Y284650D02*
X239800Y284650D01*
X230100Y287100D02*
X230100Y270400D01*
X227100Y270400D01*
X227100Y287100D01*
X230100Y287100D01*
X230100Y273250D02*
X227100Y273250D01*
X227100Y276100D02*
X230100Y276100D01*
X230100Y278950D02*
X227100Y278950D01*
X227100Y281800D02*
X230100Y281800D01*
X230100Y284650D02*
X227100Y284650D01*
D11*
X214296Y233426D03*
X204296Y233426D03*
X252650Y210820D03*
X242650Y210820D03*
X228266Y210566D03*
X218266Y210566D03*
X204042Y244094D03*
X214042Y244094D03*
X282782Y296926D03*
X292782Y296926D03*
X260430Y296672D03*
X270430Y296672D03*
X214042Y254508D03*
X204042Y254508D03*
D12*
X214376Y296592D03*
X214376Y286592D03*
D13*
X202542Y264922D03*
X215542Y264922D03*
X242974Y296418D03*
X229974Y296418D03*
X279550Y210820D03*
X266550Y210820D03*
D14*
X323596Y290830D02*
X338836Y290830D01*
X338836Y265430D02*
X323596Y265430D01*
X323596Y240030D02*
X338836Y240030D01*
X338836Y214630D02*
X323596Y214630D01*
D15*
X190754Y196850D03*
D16*
X137414Y255524D03*
D17*
X190246Y307848D03*
D13*
X203304Y223012D03*
X216304Y223012D03*
D18*
X259563Y204034D02*
X273537Y204034D01*
X252777Y210820D02*
X252650Y210820D01*
X279550Y210820D02*
X279550Y210047D01*
X273537Y204034D01*
X259563Y204034D02*
X252777Y210820D01*
X266780Y290322D02*
X260430Y296672D01*
X266780Y290322D02*
X266780Y278830D01*
X266700Y278750D01*
D19*
X298196Y244122D03*
D18*
X285900Y238684D02*
X285900Y217170D01*
X279550Y210820D01*
X285900Y238684D02*
X291338Y244122D01*
X298196Y244122D01*
X282214Y265344D02*
X269982Y265344D01*
X286814Y288668D02*
X289032Y290886D01*
X266700Y268626D02*
X269982Y265344D01*
X266700Y268626D02*
X266700Y278750D01*
X282214Y265344D02*
X286814Y269944D01*
X286814Y288668D01*
X307868Y290886D02*
X310134Y288620D01*
X310134Y262375D02*
X321056Y251453D01*
X321056Y243840D01*
X307868Y290886D02*
X289032Y290886D01*
X310134Y288620D02*
X310134Y262375D01*
X324866Y240030D02*
X331216Y240030D01*
X324866Y240030D02*
X321056Y243840D01*
X204042Y254508D02*
X204042Y258064D01*
X203558Y258548D01*
X203558Y263906D02*
X202542Y264922D01*
X203558Y263906D02*
X203558Y258548D01*
D19*
X254000Y245110D03*
D18*
X254000Y229250D01*
X292782Y296926D02*
X309372Y296926D01*
X313690Y292608D02*
X313690Y285496D01*
X321056Y278130D01*
X321056Y269748D01*
X321056Y265430D01*
X313690Y292608D02*
X309372Y296926D01*
X325374Y265430D02*
X331216Y265430D01*
X325374Y265430D02*
X321056Y269748D01*
D19*
X273304Y242570D03*
D18*
X279400Y236474D01*
X279400Y229250D01*
X292100Y229250D02*
X292100Y207010D01*
X286076Y200986D02*
X212678Y200986D01*
X204296Y209368D01*
X204296Y233426D01*
X286076Y200986D02*
X292100Y207010D01*
X204296Y243840D02*
X204042Y244094D01*
X204296Y243840D02*
X204296Y233426D01*
X270645Y296890D02*
X282782Y296926D01*
X270645Y296890D02*
X270430Y296672D01*
X279400Y287702D01*
X279400Y278750D01*
X229974Y296418D02*
X218533Y286592D01*
X214376Y286592D01*
X226897Y280453D02*
X228600Y278750D01*
X226897Y280453D02*
X229974Y296418D01*
X228600Y278750D02*
X228600Y267970D01*
X240792Y255778D02*
X306832Y255778D01*
X312420Y224790D02*
X322580Y214630D01*
X331216Y214630D01*
X240792Y255778D02*
X228600Y267970D01*
X306832Y255778D02*
X312420Y250190D01*
X312420Y224790D01*
X222678Y252730D02*
X214042Y244094D01*
X214042Y254508D01*
X222678Y252730D02*
X302260Y252730D01*
X304800Y250190D02*
X304800Y229250D01*
X304800Y250190D02*
X302260Y252730D01*
X228600Y229250D02*
X226060Y231790D01*
X215932Y231790D01*
X216234Y210566D02*
X218266Y210566D01*
X216234Y210566D02*
X210138Y216662D01*
X215932Y231790D02*
X214296Y233426D01*
X210138Y229268D01*
X210138Y216662D01*
X266550Y210820D02*
X266550Y229100D01*
X266700Y229250D01*
X266982Y229532D01*
D19*
X283464Y245872D03*
D20*
X266700Y249174D02*
X266700Y229250D01*
X283464Y245872D02*
X280162Y249174D01*
X266700Y249174D01*
D18*
X241300Y212170D02*
X242650Y210820D01*
X241300Y212170D02*
X241300Y229250D01*
X228266Y210820D02*
X228266Y210566D01*
X228266Y210820D02*
X242650Y210820D01*
X228266Y211050D02*
X216304Y223012D01*
X228266Y211050D02*
X228266Y210820D01*
X214550Y296418D02*
X214376Y296592D01*
X214550Y296418D02*
X242974Y296418D01*
X241300Y295886D01*
X241300Y278750D01*
X215542Y274320D02*
X215542Y264922D01*
X215542Y274320D02*
X208026Y281836D01*
X210566Y296592D02*
X214376Y296592D01*
X210566Y296592D02*
X208026Y294052D01*
X208026Y281836D01*
X304800Y278750D02*
X304800Y265684D01*
X299974Y260858D01*
X288036Y260858D01*
X255778Y260858D01*
X254508Y262128D01*
D19*
X254508Y262128D03*
D18*
X254508Y278242D02*
X254000Y278750D01*
X254508Y278242D02*
X254508Y262128D01*
X292100Y264922D02*
X292100Y278750D01*
X292100Y264922D02*
X288036Y260858D01*
M02*
