G04 EAGLE Gerber RS-274X export*
G75*
%MOMM*%
%FSLAX34Y34*%
%LPD*%
%INSilkscreen Top*%
%IPPOS*%
%AMOC8*
5,1,8,0,0,1.08239X$1,22.5*%
G01*
%ADD10C,0.127000*%
%ADD11C,0.200000*%
%ADD12C,0.152400*%
%ADD13C,0.203200*%
%ADD14C,0.101600*%


D10*
X309950Y242300D02*
X309950Y265700D01*
X223450Y265700D02*
X223450Y242300D01*
D11*
X224700Y213500D02*
X224702Y213563D01*
X224708Y213625D01*
X224718Y213687D01*
X224731Y213749D01*
X224749Y213809D01*
X224770Y213868D01*
X224795Y213926D01*
X224824Y213982D01*
X224856Y214036D01*
X224891Y214088D01*
X224929Y214137D01*
X224971Y214185D01*
X225015Y214229D01*
X225063Y214271D01*
X225112Y214309D01*
X225164Y214344D01*
X225218Y214376D01*
X225274Y214405D01*
X225332Y214430D01*
X225391Y214451D01*
X225451Y214469D01*
X225513Y214482D01*
X225575Y214492D01*
X225637Y214498D01*
X225700Y214500D01*
X225763Y214498D01*
X225825Y214492D01*
X225887Y214482D01*
X225949Y214469D01*
X226009Y214451D01*
X226068Y214430D01*
X226126Y214405D01*
X226182Y214376D01*
X226236Y214344D01*
X226288Y214309D01*
X226337Y214271D01*
X226385Y214229D01*
X226429Y214185D01*
X226471Y214137D01*
X226509Y214088D01*
X226544Y214036D01*
X226576Y213982D01*
X226605Y213926D01*
X226630Y213868D01*
X226651Y213809D01*
X226669Y213749D01*
X226682Y213687D01*
X226692Y213625D01*
X226698Y213563D01*
X226700Y213500D01*
X226698Y213437D01*
X226692Y213375D01*
X226682Y213313D01*
X226669Y213251D01*
X226651Y213191D01*
X226630Y213132D01*
X226605Y213074D01*
X226576Y213018D01*
X226544Y212964D01*
X226509Y212912D01*
X226471Y212863D01*
X226429Y212815D01*
X226385Y212771D01*
X226337Y212729D01*
X226288Y212691D01*
X226236Y212656D01*
X226182Y212624D01*
X226126Y212595D01*
X226068Y212570D01*
X226009Y212549D01*
X225949Y212531D01*
X225887Y212518D01*
X225825Y212508D01*
X225763Y212502D01*
X225700Y212500D01*
X225637Y212502D01*
X225575Y212508D01*
X225513Y212518D01*
X225451Y212531D01*
X225391Y212549D01*
X225332Y212570D01*
X225274Y212595D01*
X225218Y212624D01*
X225164Y212656D01*
X225112Y212691D01*
X225063Y212729D01*
X225015Y212771D01*
X224971Y212815D01*
X224929Y212863D01*
X224891Y212912D01*
X224856Y212964D01*
X224824Y213018D01*
X224795Y213074D01*
X224770Y213132D01*
X224749Y213191D01*
X224731Y213251D01*
X224718Y213313D01*
X224708Y213375D01*
X224702Y213437D01*
X224700Y213500D01*
D12*
X337566Y252730D02*
X343916Y246380D01*
X343916Y233680D01*
X337566Y227330D01*
X324866Y227330D01*
X318516Y233680D01*
X318516Y246380D01*
X324866Y252730D01*
X343916Y284480D02*
X343916Y297180D01*
X343916Y284480D02*
X337566Y278130D01*
X324866Y278130D01*
X318516Y284480D01*
X337566Y278130D02*
X343916Y271780D01*
X343916Y259080D01*
X337566Y252730D01*
X324866Y252730D01*
X318516Y259080D01*
X318516Y271780D01*
X324866Y278130D01*
X324866Y303530D02*
X337566Y303530D01*
X343916Y297180D01*
X324866Y303530D02*
X318516Y297180D01*
X318516Y284480D01*
X343916Y220980D02*
X343916Y208280D01*
X337566Y201930D01*
X324866Y201930D01*
X318516Y208280D01*
X337566Y227330D02*
X343916Y220980D01*
X324866Y227330D02*
X318516Y220980D01*
X318516Y208280D01*
X91694Y255524D02*
X91708Y256646D01*
X91749Y257767D01*
X91818Y258887D01*
X91914Y260005D01*
X92038Y261121D01*
X92189Y262233D01*
X92367Y263340D01*
X92572Y264444D01*
X92805Y265541D01*
X93064Y266633D01*
X93350Y267718D01*
X93663Y268796D01*
X94002Y269866D01*
X94367Y270927D01*
X94758Y271978D01*
X95174Y273020D01*
X95616Y274052D01*
X96084Y275072D01*
X96576Y276080D01*
X97093Y277076D01*
X97634Y278059D01*
X98199Y279029D01*
X98787Y279984D01*
X99399Y280925D01*
X100034Y281850D01*
X100691Y282759D01*
X101371Y283652D01*
X102072Y284528D01*
X102794Y285387D01*
X103538Y286228D01*
X104301Y287050D01*
X105085Y287853D01*
X105888Y288637D01*
X106710Y289400D01*
X107551Y290144D01*
X108410Y290866D01*
X109286Y291567D01*
X110179Y292247D01*
X111088Y292904D01*
X112013Y293539D01*
X112954Y294151D01*
X113909Y294739D01*
X114879Y295304D01*
X115862Y295845D01*
X116858Y296362D01*
X117866Y296854D01*
X118886Y297322D01*
X119918Y297764D01*
X120960Y298180D01*
X122011Y298571D01*
X123072Y298936D01*
X124142Y299275D01*
X125220Y299588D01*
X126305Y299874D01*
X127397Y300133D01*
X128494Y300366D01*
X129598Y300571D01*
X130705Y300749D01*
X131817Y300900D01*
X132933Y301024D01*
X134051Y301120D01*
X135171Y301189D01*
X136292Y301230D01*
X137414Y301244D01*
X138536Y301230D01*
X139657Y301189D01*
X140777Y301120D01*
X141895Y301024D01*
X143011Y300900D01*
X144123Y300749D01*
X145230Y300571D01*
X146334Y300366D01*
X147431Y300133D01*
X148523Y299874D01*
X149608Y299588D01*
X150686Y299275D01*
X151756Y298936D01*
X152817Y298571D01*
X153868Y298180D01*
X154910Y297764D01*
X155942Y297322D01*
X156962Y296854D01*
X157970Y296362D01*
X158966Y295845D01*
X159949Y295304D01*
X160919Y294739D01*
X161874Y294151D01*
X162815Y293539D01*
X163740Y292904D01*
X164649Y292247D01*
X165542Y291567D01*
X166418Y290866D01*
X167277Y290144D01*
X168118Y289400D01*
X168940Y288637D01*
X169743Y287853D01*
X170527Y287050D01*
X171290Y286228D01*
X172034Y285387D01*
X172756Y284528D01*
X173457Y283652D01*
X174137Y282759D01*
X174794Y281850D01*
X175429Y280925D01*
X176041Y279984D01*
X176629Y279029D01*
X177194Y278059D01*
X177735Y277076D01*
X178252Y276080D01*
X178744Y275072D01*
X179212Y274052D01*
X179654Y273020D01*
X180070Y271978D01*
X180461Y270927D01*
X180826Y269866D01*
X181165Y268796D01*
X181478Y267718D01*
X181764Y266633D01*
X182023Y265541D01*
X182256Y264444D01*
X182461Y263340D01*
X182639Y262233D01*
X182790Y261121D01*
X182914Y260005D01*
X183010Y258887D01*
X183079Y257767D01*
X183120Y256646D01*
X183134Y255524D01*
X183120Y254402D01*
X183079Y253281D01*
X183010Y252161D01*
X182914Y251043D01*
X182790Y249927D01*
X182639Y248815D01*
X182461Y247708D01*
X182256Y246604D01*
X182023Y245507D01*
X181764Y244415D01*
X181478Y243330D01*
X181165Y242252D01*
X180826Y241182D01*
X180461Y240121D01*
X180070Y239070D01*
X179654Y238028D01*
X179212Y236996D01*
X178744Y235976D01*
X178252Y234968D01*
X177735Y233972D01*
X177194Y232989D01*
X176629Y232019D01*
X176041Y231064D01*
X175429Y230123D01*
X174794Y229198D01*
X174137Y228289D01*
X173457Y227396D01*
X172756Y226520D01*
X172034Y225661D01*
X171290Y224820D01*
X170527Y223998D01*
X169743Y223195D01*
X168940Y222411D01*
X168118Y221648D01*
X167277Y220904D01*
X166418Y220182D01*
X165542Y219481D01*
X164649Y218801D01*
X163740Y218144D01*
X162815Y217509D01*
X161874Y216897D01*
X160919Y216309D01*
X159949Y215744D01*
X158966Y215203D01*
X157970Y214686D01*
X156962Y214194D01*
X155942Y213726D01*
X154910Y213284D01*
X153868Y212868D01*
X152817Y212477D01*
X151756Y212112D01*
X150686Y211773D01*
X149608Y211460D01*
X148523Y211174D01*
X147431Y210915D01*
X146334Y210682D01*
X145230Y210477D01*
X144123Y210299D01*
X143011Y210148D01*
X141895Y210024D01*
X140777Y209928D01*
X139657Y209859D01*
X138536Y209818D01*
X137414Y209804D01*
X136292Y209818D01*
X135171Y209859D01*
X134051Y209928D01*
X132933Y210024D01*
X131817Y210148D01*
X130705Y210299D01*
X129598Y210477D01*
X128494Y210682D01*
X127397Y210915D01*
X126305Y211174D01*
X125220Y211460D01*
X124142Y211773D01*
X123072Y212112D01*
X122011Y212477D01*
X120960Y212868D01*
X119918Y213284D01*
X118886Y213726D01*
X117866Y214194D01*
X116858Y214686D01*
X115862Y215203D01*
X114879Y215744D01*
X113909Y216309D01*
X112954Y216897D01*
X112013Y217509D01*
X111088Y218144D01*
X110179Y218801D01*
X109286Y219481D01*
X108410Y220182D01*
X107551Y220904D01*
X106710Y221648D01*
X105888Y222411D01*
X105085Y223195D01*
X104301Y223998D01*
X103538Y224820D01*
X102794Y225661D01*
X102072Y226520D01*
X101371Y227396D01*
X100691Y228289D01*
X100034Y229198D01*
X99399Y230123D01*
X98787Y231064D01*
X98199Y232019D01*
X97634Y232989D01*
X97093Y233972D01*
X96576Y234968D01*
X96084Y235976D01*
X95616Y236996D01*
X95174Y238028D01*
X94758Y239070D01*
X94367Y240121D01*
X94002Y241182D01*
X93663Y242252D01*
X93350Y243330D01*
X93064Y244415D01*
X92805Y245507D01*
X92572Y246604D01*
X92367Y247708D01*
X92189Y248815D01*
X92038Y249927D01*
X91914Y251043D01*
X91818Y252161D01*
X91749Y253281D01*
X91708Y254402D01*
X91694Y255524D01*
D13*
X115914Y255524D02*
X115920Y256052D01*
X115940Y256579D01*
X115972Y257106D01*
X116018Y257631D01*
X116076Y258156D01*
X116147Y258679D01*
X116231Y259200D01*
X116327Y259718D01*
X116436Y260235D01*
X116558Y260748D01*
X116693Y261258D01*
X116840Y261765D01*
X116999Y262268D01*
X117171Y262767D01*
X117355Y263262D01*
X117551Y263752D01*
X117758Y264237D01*
X117978Y264716D01*
X118210Y265191D01*
X118453Y265659D01*
X118707Y266121D01*
X118973Y266577D01*
X119250Y267026D01*
X119537Y267469D01*
X119836Y267904D01*
X120145Y268332D01*
X120465Y268751D01*
X120794Y269163D01*
X121134Y269567D01*
X121484Y269963D01*
X121843Y270349D01*
X122211Y270727D01*
X122589Y271095D01*
X122975Y271454D01*
X123371Y271804D01*
X123775Y272144D01*
X124187Y272473D01*
X124606Y272793D01*
X125034Y273102D01*
X125469Y273401D01*
X125912Y273688D01*
X126361Y273965D01*
X126817Y274231D01*
X127279Y274485D01*
X127747Y274728D01*
X128222Y274960D01*
X128701Y275180D01*
X129186Y275387D01*
X129676Y275583D01*
X130171Y275767D01*
X130670Y275939D01*
X131173Y276098D01*
X131680Y276245D01*
X132190Y276380D01*
X132703Y276502D01*
X133220Y276611D01*
X133738Y276707D01*
X134259Y276791D01*
X134782Y276862D01*
X135307Y276920D01*
X135832Y276966D01*
X136359Y276998D01*
X136886Y277018D01*
X137414Y277024D01*
X137942Y277018D01*
X138469Y276998D01*
X138996Y276966D01*
X139521Y276920D01*
X140046Y276862D01*
X140569Y276791D01*
X141090Y276707D01*
X141608Y276611D01*
X142125Y276502D01*
X142638Y276380D01*
X143148Y276245D01*
X143655Y276098D01*
X144158Y275939D01*
X144657Y275767D01*
X145152Y275583D01*
X145642Y275387D01*
X146127Y275180D01*
X146606Y274960D01*
X147081Y274728D01*
X147549Y274485D01*
X148011Y274231D01*
X148467Y273965D01*
X148916Y273688D01*
X149359Y273401D01*
X149794Y273102D01*
X150222Y272793D01*
X150641Y272473D01*
X151053Y272144D01*
X151457Y271804D01*
X151853Y271454D01*
X152239Y271095D01*
X152617Y270727D01*
X152985Y270349D01*
X153344Y269963D01*
X153694Y269567D01*
X154034Y269163D01*
X154363Y268751D01*
X154683Y268332D01*
X154992Y267904D01*
X155291Y267469D01*
X155578Y267026D01*
X155855Y266577D01*
X156121Y266121D01*
X156375Y265659D01*
X156618Y265191D01*
X156850Y264716D01*
X157070Y264237D01*
X157277Y263752D01*
X157473Y263262D01*
X157657Y262767D01*
X157829Y262268D01*
X157988Y261765D01*
X158135Y261258D01*
X158270Y260748D01*
X158392Y260235D01*
X158501Y259718D01*
X158597Y259200D01*
X158681Y258679D01*
X158752Y258156D01*
X158810Y257631D01*
X158856Y257106D01*
X158888Y256579D01*
X158908Y256052D01*
X158914Y255524D01*
X158908Y254996D01*
X158888Y254469D01*
X158856Y253942D01*
X158810Y253417D01*
X158752Y252892D01*
X158681Y252369D01*
X158597Y251848D01*
X158501Y251330D01*
X158392Y250813D01*
X158270Y250300D01*
X158135Y249790D01*
X157988Y249283D01*
X157829Y248780D01*
X157657Y248281D01*
X157473Y247786D01*
X157277Y247296D01*
X157070Y246811D01*
X156850Y246332D01*
X156618Y245857D01*
X156375Y245389D01*
X156121Y244927D01*
X155855Y244471D01*
X155578Y244022D01*
X155291Y243579D01*
X154992Y243144D01*
X154683Y242716D01*
X154363Y242297D01*
X154034Y241885D01*
X153694Y241481D01*
X153344Y241085D01*
X152985Y240699D01*
X152617Y240321D01*
X152239Y239953D01*
X151853Y239594D01*
X151457Y239244D01*
X151053Y238904D01*
X150641Y238575D01*
X150222Y238255D01*
X149794Y237946D01*
X149359Y237647D01*
X148916Y237360D01*
X148467Y237083D01*
X148011Y236817D01*
X147549Y236563D01*
X147081Y236320D01*
X146606Y236088D01*
X146127Y235868D01*
X145642Y235661D01*
X145152Y235465D01*
X144657Y235281D01*
X144158Y235109D01*
X143655Y234950D01*
X143148Y234803D01*
X142638Y234668D01*
X142125Y234546D01*
X141608Y234437D01*
X141090Y234341D01*
X140569Y234257D01*
X140046Y234186D01*
X139521Y234128D01*
X138996Y234082D01*
X138469Y234050D01*
X137942Y234030D01*
X137414Y234024D01*
X136886Y234030D01*
X136359Y234050D01*
X135832Y234082D01*
X135307Y234128D01*
X134782Y234186D01*
X134259Y234257D01*
X133738Y234341D01*
X133220Y234437D01*
X132703Y234546D01*
X132190Y234668D01*
X131680Y234803D01*
X131173Y234950D01*
X130670Y235109D01*
X130171Y235281D01*
X129676Y235465D01*
X129186Y235661D01*
X128701Y235868D01*
X128222Y236088D01*
X127747Y236320D01*
X127279Y236563D01*
X126817Y236817D01*
X126361Y237083D01*
X125912Y237360D01*
X125469Y237647D01*
X125034Y237946D01*
X124606Y238255D01*
X124187Y238575D01*
X123775Y238904D01*
X123371Y239244D01*
X122975Y239594D01*
X122589Y239953D01*
X122211Y240321D01*
X121843Y240699D01*
X121484Y241085D01*
X121134Y241481D01*
X120794Y241885D01*
X120465Y242297D01*
X120145Y242716D01*
X119836Y243144D01*
X119537Y243579D01*
X119250Y244022D01*
X118973Y244471D01*
X118707Y244927D01*
X118453Y245389D01*
X118210Y245857D01*
X117978Y246332D01*
X117758Y246811D01*
X117551Y247296D01*
X117355Y247786D01*
X117171Y248281D01*
X116999Y248780D01*
X116840Y249283D01*
X116693Y249790D01*
X116558Y250300D01*
X116436Y250813D01*
X116327Y251330D01*
X116231Y251848D01*
X116147Y252369D01*
X116076Y252892D01*
X116018Y253417D01*
X115972Y253942D01*
X115940Y254469D01*
X115920Y254996D01*
X115914Y255524D01*
D14*
X206558Y229870D02*
X209155Y229870D01*
X206558Y229870D02*
X206459Y229872D01*
X206359Y229878D01*
X206260Y229887D01*
X206162Y229900D01*
X206064Y229917D01*
X205966Y229938D01*
X205870Y229963D01*
X205775Y229991D01*
X205681Y230023D01*
X205588Y230058D01*
X205496Y230097D01*
X205406Y230140D01*
X205318Y230185D01*
X205231Y230235D01*
X205147Y230287D01*
X205064Y230343D01*
X204984Y230401D01*
X204906Y230463D01*
X204831Y230528D01*
X204758Y230596D01*
X204688Y230666D01*
X204620Y230739D01*
X204555Y230814D01*
X204493Y230892D01*
X204435Y230972D01*
X204379Y231055D01*
X204327Y231139D01*
X204277Y231226D01*
X204232Y231314D01*
X204189Y231404D01*
X204150Y231496D01*
X204115Y231589D01*
X204083Y231683D01*
X204055Y231778D01*
X204030Y231874D01*
X204009Y231972D01*
X203992Y232070D01*
X203979Y232168D01*
X203970Y232267D01*
X203964Y232367D01*
X203962Y232466D01*
X203962Y238958D01*
X203964Y239057D01*
X203970Y239157D01*
X203979Y239256D01*
X203992Y239354D01*
X204009Y239452D01*
X204030Y239550D01*
X204055Y239646D01*
X204083Y239741D01*
X204115Y239835D01*
X204150Y239928D01*
X204189Y240020D01*
X204232Y240110D01*
X204277Y240198D01*
X204327Y240285D01*
X204379Y240369D01*
X204435Y240452D01*
X204493Y240532D01*
X204555Y240610D01*
X204620Y240685D01*
X204688Y240758D01*
X204758Y240828D01*
X204831Y240896D01*
X204906Y240961D01*
X204984Y241023D01*
X205064Y241081D01*
X205147Y241137D01*
X205231Y241189D01*
X205318Y241239D01*
X205406Y241284D01*
X205496Y241327D01*
X205588Y241366D01*
X205680Y241401D01*
X205775Y241433D01*
X205870Y241461D01*
X205966Y241486D01*
X206064Y241507D01*
X206162Y241524D01*
X206260Y241537D01*
X206359Y241546D01*
X206459Y241552D01*
X206558Y241554D01*
X209155Y241554D01*
X216117Y241554D02*
X213520Y232466D01*
X220011Y232466D01*
X218064Y235063D02*
X218064Y229870D01*
M02*
