G04 EAGLE Gerber RS-274X export*
G75*
%MOMM*%
%FSLAX34Y34*%
%LPD*%
%INBottom Copper*%
%IPPOS*%
%AMOC8*
5,1,8,0,0,1.08239X$1,22.5*%
G01*
%ADD10C,1.524000*%
%ADD11P,2.763017X8X112.500000*%
%ADD12C,8.000000*%
%ADD13P,2.763017X8X22.500000*%
%ADD14C,0.756400*%
%ADD15C,0.152400*%
%ADD16C,0.254000*%

G36*
X402708Y171466D02*
X402708Y171466D01*
X402827Y171473D01*
X402865Y171486D01*
X402906Y171491D01*
X403016Y171534D01*
X403129Y171571D01*
X403164Y171593D01*
X403201Y171608D01*
X403297Y171678D01*
X403398Y171741D01*
X403426Y171771D01*
X403459Y171794D01*
X403535Y171886D01*
X403616Y171973D01*
X403636Y172008D01*
X403661Y172039D01*
X403712Y172147D01*
X403770Y172251D01*
X403780Y172291D01*
X403797Y172327D01*
X403819Y172444D01*
X403849Y172559D01*
X403853Y172620D01*
X403857Y172640D01*
X403855Y172660D01*
X403859Y172720D01*
X403859Y332740D01*
X403844Y332858D01*
X403837Y332977D01*
X403824Y333015D01*
X403819Y333056D01*
X403776Y333166D01*
X403739Y333279D01*
X403717Y333314D01*
X403702Y333351D01*
X403633Y333447D01*
X403569Y333548D01*
X403539Y333576D01*
X403516Y333609D01*
X403424Y333685D01*
X403337Y333766D01*
X403302Y333786D01*
X403271Y333811D01*
X403163Y333862D01*
X403059Y333920D01*
X403019Y333930D01*
X402983Y333947D01*
X402866Y333969D01*
X402751Y333999D01*
X402691Y334003D01*
X402671Y334007D01*
X402650Y334005D01*
X402590Y334009D01*
X100330Y334009D01*
X100212Y333994D01*
X100093Y333987D01*
X100055Y333974D01*
X100014Y333969D01*
X99904Y333926D01*
X99791Y333889D01*
X99756Y333867D01*
X99719Y333852D01*
X99623Y333783D01*
X99522Y333719D01*
X99494Y333689D01*
X99461Y333666D01*
X99386Y333574D01*
X99304Y333487D01*
X99284Y333452D01*
X99259Y333421D01*
X99208Y333313D01*
X99150Y333209D01*
X99140Y333169D01*
X99123Y333133D01*
X99101Y333016D01*
X99071Y332901D01*
X99067Y332841D01*
X99063Y332821D01*
X99065Y332800D01*
X99061Y332740D01*
X99061Y304924D01*
X99085Y304732D01*
X99100Y304609D01*
X99101Y304609D01*
X99167Y304441D01*
X99217Y304313D01*
X99218Y304313D01*
X99322Y304170D01*
X99404Y304056D01*
X99538Y303945D01*
X99649Y303853D01*
X99777Y303793D01*
X99937Y303717D01*
X100081Y303690D01*
X100249Y303657D01*
X100249Y303658D01*
X100250Y303657D01*
X100412Y303668D01*
X100566Y303677D01*
X100567Y303677D01*
X100730Y303730D01*
X100869Y303775D01*
X100870Y303776D01*
X101010Y303852D01*
X111531Y310529D01*
X126023Y315238D01*
X141231Y316195D01*
X146798Y315133D01*
X146850Y315129D01*
X146902Y315117D01*
X147008Y315120D01*
X147115Y315113D01*
X147167Y315123D01*
X147220Y315124D01*
X147322Y315152D01*
X147428Y315172D01*
X147475Y315195D01*
X147526Y315209D01*
X147670Y315280D01*
X149409Y316284D01*
X160585Y319279D01*
X166354Y319279D01*
X166355Y319279D01*
X166356Y319279D01*
X180973Y319305D01*
X181070Y319317D01*
X181168Y319320D01*
X181227Y319337D01*
X181288Y319345D01*
X181379Y319381D01*
X181473Y319409D01*
X181526Y319440D01*
X181584Y319463D01*
X181663Y319521D01*
X181747Y319570D01*
X181825Y319638D01*
X181841Y319650D01*
X181848Y319659D01*
X181868Y319677D01*
X184328Y322136D01*
X196164Y322136D01*
X198591Y319710D01*
X198670Y319648D01*
X198743Y319580D01*
X198795Y319551D01*
X198842Y319515D01*
X198934Y319475D01*
X199022Y319427D01*
X199079Y319412D01*
X199134Y319388D01*
X199233Y319373D01*
X199330Y319348D01*
X199427Y319342D01*
X199448Y319339D01*
X199461Y319340D01*
X199491Y319338D01*
X306177Y319528D01*
X306186Y319530D01*
X306195Y319529D01*
X306224Y319533D01*
X308599Y319533D01*
X308600Y319533D01*
X308601Y319533D01*
X310958Y319537D01*
X311024Y319533D01*
X313225Y319533D01*
X322140Y317144D01*
X330133Y312529D01*
X336659Y306003D01*
X339773Y300609D01*
X339837Y300525D01*
X339894Y300436D01*
X339933Y300399D01*
X339965Y300356D01*
X340048Y300290D01*
X340125Y300218D01*
X340172Y300192D01*
X340215Y300158D01*
X340311Y300115D01*
X340404Y300064D01*
X340456Y300051D01*
X340505Y300029D01*
X340537Y300024D01*
X344016Y298583D01*
X346589Y296010D01*
X347981Y292649D01*
X347981Y289011D01*
X346589Y285650D01*
X344034Y283096D01*
X343974Y283018D01*
X343906Y282946D01*
X343877Y282893D01*
X343840Y282845D01*
X343800Y282754D01*
X343752Y282667D01*
X343737Y282608D01*
X343713Y282553D01*
X343698Y282455D01*
X343673Y282359D01*
X343667Y282259D01*
X343663Y282239D01*
X343665Y282226D01*
X343663Y282198D01*
X343663Y274062D01*
X343675Y273963D01*
X343678Y273864D01*
X343695Y273806D01*
X343703Y273746D01*
X343739Y273654D01*
X343767Y273559D01*
X343797Y273507D01*
X343820Y273450D01*
X343878Y273370D01*
X343928Y273285D01*
X343994Y273210D01*
X344006Y273193D01*
X344016Y273185D01*
X344034Y273164D01*
X346589Y270610D01*
X347981Y267249D01*
X347981Y263611D01*
X346589Y260250D01*
X344034Y257696D01*
X343974Y257618D01*
X343906Y257546D01*
X343877Y257493D01*
X343840Y257445D01*
X343800Y257354D01*
X343752Y257267D01*
X343737Y257208D01*
X343713Y257153D01*
X343698Y257055D01*
X343673Y256959D01*
X343667Y256859D01*
X343663Y256839D01*
X343665Y256826D01*
X343663Y256798D01*
X343663Y249729D01*
X343668Y249690D01*
X343665Y249651D01*
X343688Y249533D01*
X343703Y249414D01*
X343717Y249377D01*
X343724Y249338D01*
X343775Y249230D01*
X343820Y249118D01*
X343843Y249086D01*
X343860Y249050D01*
X343936Y248958D01*
X344006Y248861D01*
X344037Y248836D01*
X344062Y248805D01*
X344186Y248702D01*
X345455Y247780D01*
X346586Y246649D01*
X347526Y245355D01*
X348252Y243930D01*
X348695Y242569D01*
X344932Y242569D01*
X344814Y242554D01*
X344695Y242547D01*
X344657Y242534D01*
X344616Y242529D01*
X344506Y242486D01*
X344393Y242449D01*
X344358Y242427D01*
X344321Y242412D01*
X344225Y242342D01*
X344124Y242279D01*
X344096Y242249D01*
X344063Y242225D01*
X343987Y242134D01*
X343906Y242047D01*
X343886Y242012D01*
X343861Y241981D01*
X343810Y241873D01*
X343752Y241769D01*
X343742Y241729D01*
X343725Y241693D01*
X343703Y241576D01*
X343673Y241461D01*
X343669Y241400D01*
X343665Y241380D01*
X343667Y241360D01*
X343663Y241300D01*
X343663Y238760D01*
X343678Y238642D01*
X343685Y238523D01*
X343698Y238485D01*
X343703Y238444D01*
X343746Y238334D01*
X343783Y238221D01*
X343805Y238186D01*
X343820Y238149D01*
X343889Y238053D01*
X343953Y237952D01*
X343983Y237924D01*
X344006Y237891D01*
X344098Y237816D01*
X344185Y237734D01*
X344220Y237714D01*
X344251Y237689D01*
X344359Y237638D01*
X344463Y237580D01*
X344503Y237570D01*
X344539Y237553D01*
X344656Y237531D01*
X344771Y237501D01*
X344831Y237497D01*
X344851Y237493D01*
X344872Y237495D01*
X344932Y237491D01*
X348695Y237491D01*
X348252Y236130D01*
X347526Y234705D01*
X346586Y233411D01*
X345455Y232280D01*
X344186Y231358D01*
X344157Y231331D01*
X344124Y231310D01*
X344041Y231222D01*
X343954Y231140D01*
X343933Y231107D01*
X343906Y231078D01*
X343848Y230973D01*
X343784Y230871D01*
X343771Y230834D01*
X343752Y230799D01*
X343722Y230683D01*
X343685Y230569D01*
X343683Y230530D01*
X343673Y230491D01*
X343663Y230331D01*
X343663Y223262D01*
X343675Y223163D01*
X343678Y223064D01*
X343695Y223006D01*
X343703Y222946D01*
X343739Y222854D01*
X343767Y222759D01*
X343797Y222707D01*
X343820Y222650D01*
X343878Y222570D01*
X343928Y222485D01*
X343994Y222410D01*
X344006Y222393D01*
X344016Y222385D01*
X344034Y222364D01*
X346589Y219810D01*
X347981Y216449D01*
X347981Y212811D01*
X346589Y209450D01*
X344016Y206877D01*
X341741Y205935D01*
X341612Y205861D01*
X341481Y205790D01*
X341474Y205783D01*
X341464Y205777D01*
X341358Y205674D01*
X341249Y205573D01*
X341244Y205564D01*
X341236Y205556D01*
X341159Y205430D01*
X341079Y205304D01*
X341073Y205291D01*
X341070Y205285D01*
X341065Y205271D01*
X341019Y205155D01*
X340480Y203496D01*
X334427Y195163D01*
X326094Y189110D01*
X316300Y185927D01*
X311171Y185927D01*
X311170Y185927D01*
X311169Y185927D01*
X200362Y185728D01*
X200265Y185715D01*
X200167Y185712D01*
X200107Y185695D01*
X200046Y185687D01*
X199955Y185651D01*
X199861Y185624D01*
X199808Y185593D01*
X199751Y185570D01*
X199672Y185512D01*
X199587Y185462D01*
X199510Y185394D01*
X199494Y185382D01*
X199486Y185373D01*
X199466Y185356D01*
X196672Y182562D01*
X184836Y182562D01*
X182076Y185321D01*
X181997Y185383D01*
X181924Y185451D01*
X181872Y185480D01*
X181825Y185516D01*
X181733Y185556D01*
X181645Y185604D01*
X181588Y185619D01*
X181533Y185643D01*
X181434Y185658D01*
X181337Y185683D01*
X181240Y185689D01*
X181219Y185692D01*
X181206Y185691D01*
X181176Y185693D01*
X172613Y185678D01*
X172605Y185677D01*
X172596Y185677D01*
X172566Y185673D01*
X170193Y185673D01*
X170192Y185673D01*
X170191Y185673D01*
X167833Y185669D01*
X167766Y185673D01*
X163893Y185673D01*
X151748Y188928D01*
X141773Y194687D01*
X141725Y194707D01*
X141680Y194735D01*
X141579Y194768D01*
X141480Y194810D01*
X141428Y194818D01*
X141378Y194834D01*
X141218Y194854D01*
X126023Y195810D01*
X111531Y200519D01*
X101011Y207195D01*
X101010Y207195D01*
X101010Y207196D01*
X100850Y207271D01*
X100723Y207331D01*
X100722Y207331D01*
X100546Y207365D01*
X100411Y207391D01*
X100410Y207391D01*
X100247Y207380D01*
X100093Y207371D01*
X99917Y207314D01*
X99791Y207273D01*
X99790Y207273D01*
X99647Y207182D01*
X99522Y207103D01*
X99522Y207102D01*
X99521Y207102D01*
X99418Y206992D01*
X99304Y206871D01*
X99209Y206699D01*
X99150Y206592D01*
X99107Y206424D01*
X99071Y206285D01*
X99071Y206284D01*
X99061Y206124D01*
X99061Y172720D01*
X99076Y172602D01*
X99083Y172483D01*
X99096Y172445D01*
X99101Y172404D01*
X99144Y172294D01*
X99181Y172181D01*
X99203Y172146D01*
X99218Y172109D01*
X99288Y172013D01*
X99351Y171912D01*
X99381Y171884D01*
X99404Y171851D01*
X99496Y171776D01*
X99583Y171694D01*
X99618Y171674D01*
X99649Y171649D01*
X99757Y171598D01*
X99861Y171540D01*
X99901Y171530D01*
X99937Y171513D01*
X100054Y171491D01*
X100169Y171461D01*
X100230Y171457D01*
X100250Y171453D01*
X100270Y171455D01*
X100330Y171451D01*
X402590Y171451D01*
X402708Y171466D01*
G37*
G36*
X308717Y207768D02*
X308717Y207768D01*
X308725Y207769D01*
X308734Y207769D01*
X308764Y207773D01*
X311150Y207773D01*
X311172Y207775D01*
X311250Y207777D01*
X312720Y207892D01*
X312788Y207906D01*
X312856Y207911D01*
X313012Y207951D01*
X314749Y208515D01*
X314758Y208519D01*
X314767Y208521D01*
X314903Y208587D01*
X315037Y208650D01*
X315044Y208656D01*
X315053Y208661D01*
X315167Y208758D01*
X315282Y208853D01*
X315288Y208861D01*
X315295Y208867D01*
X315381Y208989D01*
X315469Y209110D01*
X315473Y209119D01*
X315478Y209127D01*
X315531Y209266D01*
X315586Y209406D01*
X315587Y209415D01*
X315591Y209424D01*
X315607Y209573D01*
X315626Y209721D01*
X315625Y209731D01*
X315626Y209740D01*
X315605Y209888D01*
X315587Y210037D01*
X315583Y210046D01*
X315582Y210055D01*
X315530Y210208D01*
X314451Y212811D01*
X314451Y216449D01*
X315843Y219810D01*
X318416Y222383D01*
X321034Y223467D01*
X321059Y223481D01*
X321087Y223491D01*
X321197Y223560D01*
X321310Y223624D01*
X321331Y223645D01*
X321356Y223661D01*
X321445Y223755D01*
X321538Y223846D01*
X321554Y223871D01*
X321574Y223892D01*
X321637Y224006D01*
X321705Y224117D01*
X321713Y224145D01*
X321728Y224171D01*
X321760Y224297D01*
X321798Y224421D01*
X321800Y224450D01*
X321807Y224479D01*
X321817Y224639D01*
X321817Y229002D01*
X321807Y229081D01*
X321807Y229160D01*
X321787Y229238D01*
X321777Y229318D01*
X321748Y229391D01*
X321729Y229468D01*
X321690Y229539D01*
X321660Y229613D01*
X321614Y229678D01*
X321576Y229747D01*
X321521Y229806D01*
X321474Y229871D01*
X321412Y229921D01*
X321358Y229979D01*
X321290Y230022D01*
X321229Y230074D01*
X321157Y230107D01*
X321090Y230150D01*
X320941Y230209D01*
X320940Y230209D01*
X319696Y230614D01*
X318271Y231340D01*
X316977Y232280D01*
X315846Y233411D01*
X314906Y234705D01*
X314180Y236130D01*
X313737Y237491D01*
X320548Y237491D01*
X320666Y237506D01*
X320785Y237513D01*
X320823Y237526D01*
X320864Y237531D01*
X320974Y237574D01*
X321087Y237611D01*
X321122Y237633D01*
X321159Y237648D01*
X321255Y237718D01*
X321356Y237781D01*
X321384Y237811D01*
X321417Y237834D01*
X321493Y237926D01*
X321574Y238013D01*
X321594Y238048D01*
X321619Y238079D01*
X321670Y238187D01*
X321728Y238291D01*
X321738Y238331D01*
X321755Y238367D01*
X321777Y238484D01*
X321807Y238599D01*
X321811Y238660D01*
X321815Y238680D01*
X321813Y238700D01*
X321817Y238760D01*
X321817Y241300D01*
X321802Y241418D01*
X321795Y241537D01*
X321782Y241575D01*
X321777Y241615D01*
X321734Y241726D01*
X321697Y241839D01*
X321675Y241874D01*
X321660Y241911D01*
X321591Y242007D01*
X321527Y242108D01*
X321497Y242136D01*
X321474Y242169D01*
X321382Y242244D01*
X321295Y242326D01*
X321260Y242346D01*
X321229Y242371D01*
X321121Y242422D01*
X321017Y242480D01*
X320977Y242490D01*
X320941Y242507D01*
X320824Y242529D01*
X320709Y242559D01*
X320649Y242563D01*
X320629Y242567D01*
X320608Y242565D01*
X320548Y242569D01*
X313737Y242569D01*
X314180Y243930D01*
X314906Y245355D01*
X315846Y246649D01*
X316977Y247780D01*
X318271Y248720D01*
X319696Y249446D01*
X320940Y249851D01*
X321012Y249884D01*
X321087Y249909D01*
X321155Y249952D01*
X321228Y249986D01*
X321289Y250037D01*
X321356Y250079D01*
X321411Y250138D01*
X321473Y250189D01*
X321520Y250253D01*
X321574Y250311D01*
X321613Y250381D01*
X321660Y250446D01*
X321689Y250520D01*
X321728Y250589D01*
X321748Y250667D01*
X321777Y250742D01*
X321787Y250820D01*
X321807Y250897D01*
X321817Y251056D01*
X321817Y251057D01*
X321817Y251058D01*
X321817Y255421D01*
X321814Y255450D01*
X321816Y255479D01*
X321794Y255607D01*
X321777Y255736D01*
X321767Y255763D01*
X321762Y255793D01*
X321708Y255911D01*
X321660Y256032D01*
X321643Y256056D01*
X321631Y256083D01*
X321550Y256184D01*
X321474Y256289D01*
X321451Y256308D01*
X321432Y256331D01*
X321329Y256409D01*
X321229Y256492D01*
X321202Y256504D01*
X321178Y256522D01*
X321034Y256593D01*
X318416Y257677D01*
X315843Y260250D01*
X314451Y263611D01*
X314451Y267249D01*
X315843Y270610D01*
X318416Y273183D01*
X321034Y274267D01*
X321059Y274281D01*
X321087Y274291D01*
X321197Y274360D01*
X321310Y274424D01*
X321331Y274445D01*
X321356Y274461D01*
X321445Y274555D01*
X321538Y274646D01*
X321554Y274671D01*
X321574Y274692D01*
X321637Y274806D01*
X321705Y274917D01*
X321713Y274945D01*
X321728Y274971D01*
X321760Y275097D01*
X321798Y275221D01*
X321800Y275250D01*
X321807Y275279D01*
X321817Y275439D01*
X321817Y280821D01*
X321814Y280850D01*
X321816Y280879D01*
X321794Y281007D01*
X321777Y281136D01*
X321767Y281163D01*
X321762Y281193D01*
X321708Y281311D01*
X321660Y281432D01*
X321643Y281456D01*
X321631Y281483D01*
X321550Y281584D01*
X321474Y281689D01*
X321451Y281708D01*
X321432Y281731D01*
X321329Y281809D01*
X321229Y281892D01*
X321202Y281904D01*
X321178Y281922D01*
X321034Y281993D01*
X318416Y283077D01*
X315685Y285808D01*
X315591Y285881D01*
X315502Y285960D01*
X315466Y285978D01*
X315434Y286003D01*
X315325Y286050D01*
X315219Y286104D01*
X315179Y286113D01*
X315142Y286129D01*
X315025Y286148D01*
X314909Y286174D01*
X314868Y286173D01*
X314828Y286179D01*
X314710Y286168D01*
X314591Y286164D01*
X314552Y286153D01*
X314512Y286149D01*
X314399Y286109D01*
X314285Y286076D01*
X314250Y286055D01*
X314212Y286042D01*
X314114Y285975D01*
X314011Y285914D01*
X313966Y285875D01*
X313949Y285863D01*
X313936Y285848D01*
X313890Y285808D01*
X306696Y278614D01*
X306636Y278536D01*
X306568Y278464D01*
X306539Y278411D01*
X306502Y278363D01*
X306462Y278272D01*
X306414Y278185D01*
X306399Y278127D01*
X306375Y278071D01*
X306360Y277973D01*
X306335Y277877D01*
X306329Y277777D01*
X306325Y277757D01*
X306327Y277745D01*
X306325Y277717D01*
X306325Y264780D01*
X289142Y247598D01*
X289082Y247520D01*
X289014Y247448D01*
X288985Y247395D01*
X288948Y247347D01*
X288908Y247256D01*
X288860Y247169D01*
X288845Y247111D01*
X288821Y247055D01*
X288806Y246957D01*
X288781Y246861D01*
X288775Y246761D01*
X288771Y246741D01*
X288773Y246729D01*
X288771Y246701D01*
X288771Y244816D01*
X287963Y242866D01*
X286470Y241373D01*
X284520Y240565D01*
X282408Y240565D01*
X280458Y241373D01*
X280454Y241377D01*
X280414Y241408D01*
X280381Y241445D01*
X280289Y241505D01*
X280202Y241572D01*
X280157Y241592D01*
X280115Y241620D01*
X280011Y241655D01*
X279911Y241699D01*
X279861Y241707D01*
X279814Y241723D01*
X279705Y241731D01*
X279596Y241749D01*
X279547Y241744D01*
X279497Y241748D01*
X279389Y241729D01*
X279280Y241719D01*
X279233Y241702D01*
X279184Y241694D01*
X279084Y241648D01*
X278981Y241611D01*
X278939Y241583D01*
X278894Y241563D01*
X278808Y241494D01*
X278717Y241433D01*
X278685Y241395D01*
X278646Y241364D01*
X278580Y241277D01*
X278507Y241194D01*
X278484Y241150D01*
X278454Y241110D01*
X278383Y240966D01*
X277803Y239564D01*
X276310Y238071D01*
X274360Y237263D01*
X272248Y237263D01*
X270298Y238071D01*
X268805Y239564D01*
X267997Y241514D01*
X267997Y243399D01*
X267985Y243497D01*
X267982Y243596D01*
X267965Y243654D01*
X267957Y243714D01*
X267921Y243806D01*
X267893Y243901D01*
X267863Y243954D01*
X267840Y244010D01*
X267782Y244090D01*
X267732Y244175D01*
X267666Y244251D01*
X267654Y244267D01*
X267644Y244275D01*
X267626Y244296D01*
X260072Y251850D01*
X259994Y251910D01*
X259922Y251978D01*
X259869Y252007D01*
X259821Y252044D01*
X259730Y252084D01*
X259643Y252132D01*
X259585Y252147D01*
X259529Y252171D01*
X259431Y252186D01*
X259335Y252211D01*
X259235Y252217D01*
X259215Y252221D01*
X259203Y252219D01*
X259175Y252221D01*
X257080Y252221D01*
X257011Y252213D01*
X256941Y252214D01*
X256854Y252193D01*
X256764Y252181D01*
X256700Y252156D01*
X256632Y252139D01*
X256552Y252097D01*
X256469Y252064D01*
X256412Y252023D01*
X256351Y251991D01*
X256284Y251930D01*
X256211Y251878D01*
X256167Y251824D01*
X256115Y251777D01*
X256066Y251702D01*
X256009Y251633D01*
X255979Y251569D01*
X255940Y251511D01*
X255911Y251426D01*
X255873Y251345D01*
X255860Y251276D01*
X255837Y251210D01*
X255830Y251121D01*
X255813Y251033D01*
X255818Y250963D01*
X255812Y250893D01*
X255827Y250805D01*
X255833Y250715D01*
X255855Y250649D01*
X255866Y250580D01*
X255903Y250498D01*
X255931Y250413D01*
X255968Y250354D01*
X255997Y250290D01*
X256053Y250220D01*
X256101Y250144D01*
X256152Y250096D01*
X256196Y250042D01*
X256268Y249987D01*
X256333Y249926D01*
X256394Y249892D01*
X256450Y249850D01*
X256594Y249779D01*
X257006Y249609D01*
X258499Y248116D01*
X259307Y246166D01*
X259307Y244054D01*
X258499Y242104D01*
X257006Y240611D01*
X255056Y239803D01*
X252944Y239803D01*
X250994Y240611D01*
X249662Y241944D01*
X249583Y242004D01*
X249511Y242072D01*
X249458Y242101D01*
X249410Y242138D01*
X249320Y242178D01*
X249233Y242226D01*
X249174Y242241D01*
X249119Y242265D01*
X249021Y242280D01*
X248925Y242305D01*
X248825Y242311D01*
X248804Y242315D01*
X248792Y242313D01*
X248764Y242315D01*
X232569Y242315D01*
X232471Y242303D01*
X232372Y242300D01*
X232314Y242283D01*
X232254Y242275D01*
X232162Y242239D01*
X232067Y242211D01*
X232014Y242181D01*
X231958Y242158D01*
X231878Y242100D01*
X231793Y242050D01*
X231717Y241984D01*
X231701Y241972D01*
X231693Y241962D01*
X231672Y241944D01*
X199667Y209939D01*
X199594Y209845D01*
X199515Y209755D01*
X199497Y209719D01*
X199472Y209687D01*
X199425Y209578D01*
X199371Y209472D01*
X199362Y209433D01*
X199346Y209396D01*
X199327Y209278D01*
X199301Y209162D01*
X199302Y209121D01*
X199296Y209081D01*
X199307Y208963D01*
X199311Y208844D01*
X199322Y208805D01*
X199326Y208765D01*
X199366Y208653D01*
X199399Y208539D01*
X199420Y208504D01*
X199433Y208466D01*
X199500Y208367D01*
X199561Y208265D01*
X199600Y208219D01*
X199612Y208202D01*
X199627Y208189D01*
X199667Y208144D01*
X199865Y207946D01*
X199944Y207884D01*
X200017Y207816D01*
X200069Y207787D01*
X200116Y207751D01*
X200208Y207711D01*
X200296Y207663D01*
X200353Y207648D01*
X200408Y207624D01*
X200507Y207609D01*
X200604Y207584D01*
X200702Y207578D01*
X200722Y207575D01*
X200735Y207576D01*
X200765Y207574D01*
X308717Y207768D01*
G37*
D10*
X323596Y290830D02*
X338836Y290830D01*
X338836Y265430D02*
X323596Y265430D01*
X323596Y240030D02*
X338836Y240030D01*
X338836Y214630D02*
X323596Y214630D01*
D11*
X190754Y196850D03*
D12*
X137414Y255524D03*
D13*
X190246Y307848D03*
D14*
X298196Y244122D03*
D15*
X327124Y244122D01*
X331216Y240030D01*
D14*
X254000Y245110D03*
D16*
X230886Y245110D02*
X190754Y204978D01*
X190754Y196850D01*
X230886Y245110D02*
X254000Y245110D01*
D14*
X273304Y242570D03*
D16*
X260858Y255016D01*
D15*
X137922Y255016D02*
X137414Y255524D01*
D16*
X137922Y255016D02*
X260858Y255016D01*
X314960Y290830D02*
X331216Y290830D01*
X314960Y290830D02*
X303530Y279400D01*
X303530Y265938D01*
X283464Y245872D01*
D14*
X283464Y245872D03*
X254508Y262128D03*
D15*
X227076Y262128D01*
X193802Y295402D01*
X193802Y304292D02*
X190246Y307848D01*
X193802Y304292D02*
X193802Y295402D01*
M02*
