G04 EAGLE Gerber RS-274X export*
G75*
%MOMM*%
%FSLAX34Y34*%
%LPD*%
%IN*%
%IPPOS*%
%AMOC8*
5,1,8,0,0,1.08239X$1,22.5*%
G01*
%ADD10C,0.254000*%


D10*
X124460Y170180D02*
X124624Y166417D01*
X125116Y162682D01*
X125931Y159004D01*
X127064Y155412D01*
X128506Y151931D01*
X130245Y148590D01*
X132269Y145413D01*
X134562Y142424D01*
X137107Y139647D01*
X139884Y137102D01*
X142873Y134809D01*
X146050Y132785D01*
X149391Y131046D01*
X152872Y129604D01*
X156464Y128471D01*
X160142Y127656D01*
X163877Y127164D01*
X167640Y127000D01*
X391160Y127000D01*
X394038Y127126D01*
X396894Y127502D01*
X399706Y128125D01*
X402454Y128991D01*
X405115Y130094D01*
X407670Y131424D01*
X410100Y132972D01*
X412385Y134725D01*
X414509Y136671D01*
X416455Y138795D01*
X418208Y141081D01*
X419756Y143510D01*
X421086Y146065D01*
X422189Y148727D01*
X423055Y151474D01*
X423678Y154286D01*
X424054Y157142D01*
X424180Y160020D01*
X424180Y309880D01*
X424054Y312758D01*
X423678Y315614D01*
X423055Y318426D01*
X422189Y321174D01*
X421086Y323835D01*
X419756Y326390D01*
X418208Y328820D01*
X416455Y331105D01*
X414509Y333229D01*
X412385Y335175D01*
X410100Y336928D01*
X407670Y338476D01*
X405115Y339806D01*
X402454Y340909D01*
X399706Y341775D01*
X396894Y342398D01*
X394038Y342774D01*
X391160Y342900D01*
X162560Y342900D01*
X159239Y342755D01*
X155944Y342321D01*
X152699Y341602D01*
X149529Y340602D01*
X146458Y339330D01*
X143510Y337796D01*
X140707Y336010D01*
X138070Y333986D01*
X135619Y331741D01*
X133374Y329290D01*
X131350Y326653D01*
X129564Y323850D01*
X128030Y320902D01*
X126758Y317831D01*
X125758Y314661D01*
X125039Y311416D01*
X124605Y308121D01*
X124460Y304800D01*
X124460Y170180D01*
M02*
