G04 EAGLE Gerber RS-274X export*
G75*
%MOMM*%
%FSLAX34Y34*%
%LPD*%
%INBottom Copper*%
%IPPOS*%
%AMOC8*
5,1,8,0,0,1.08239X$1,22.5*%
G01*
%ADD10C,1.524000*%
%ADD11P,2.763017X8X112.500000*%
%ADD12C,8.000000*%
%ADD13C,0.756400*%
%ADD14C,0.152400*%
%ADD15C,0.254000*%

G36*
X313640Y207734D02*
X313640Y207734D01*
X313689Y207740D01*
X313738Y207738D01*
X313846Y207760D01*
X313956Y207774D01*
X314001Y207792D01*
X314049Y207802D01*
X314149Y207851D01*
X314251Y207892D01*
X314291Y207920D01*
X314335Y207942D01*
X314419Y208014D01*
X314508Y208079D01*
X314540Y208116D01*
X314577Y208148D01*
X314640Y208238D01*
X314711Y208324D01*
X314732Y208368D01*
X314760Y208408D01*
X314799Y208512D01*
X314846Y208612D01*
X314855Y208660D01*
X314873Y208706D01*
X314885Y208816D01*
X314906Y208924D01*
X314902Y208973D01*
X314908Y209022D01*
X314892Y209131D01*
X314885Y209242D01*
X314870Y209288D01*
X314863Y209336D01*
X314811Y209489D01*
X313435Y212811D01*
X313435Y216449D01*
X314827Y219810D01*
X317400Y222383D01*
X320761Y223775D01*
X339639Y223775D01*
X343000Y222383D01*
X345573Y219810D01*
X346965Y216449D01*
X346965Y212811D01*
X345837Y210088D01*
X345813Y210002D01*
X345780Y209919D01*
X345771Y209849D01*
X345753Y209782D01*
X345752Y209692D01*
X345740Y209603D01*
X345749Y209534D01*
X345748Y209464D01*
X345769Y209376D01*
X345780Y209288D01*
X345806Y209223D01*
X345822Y209154D01*
X345864Y209075D01*
X345897Y208992D01*
X345938Y208935D01*
X345971Y208873D01*
X346031Y208807D01*
X346084Y208735D01*
X346138Y208690D01*
X346185Y208638D01*
X346260Y208589D01*
X346328Y208532D01*
X346392Y208502D01*
X346450Y208463D01*
X346535Y208434D01*
X346616Y208396D01*
X346685Y208383D01*
X346751Y208360D01*
X346840Y208353D01*
X346928Y208336D01*
X346998Y208340D01*
X347068Y208335D01*
X347157Y208350D01*
X347246Y208356D01*
X347367Y208387D01*
X347382Y208389D01*
X347388Y208392D01*
X347402Y208396D01*
X348829Y208859D01*
X348936Y208910D01*
X349047Y208953D01*
X349098Y208986D01*
X349117Y208995D01*
X349132Y209007D01*
X349183Y209039D01*
X351561Y210768D01*
X351648Y210849D01*
X351740Y210925D01*
X351778Y210971D01*
X351793Y210985D01*
X351804Y211003D01*
X351842Y211049D01*
X353571Y213427D01*
X353628Y213531D01*
X353691Y213632D01*
X353714Y213688D01*
X353724Y213706D01*
X353729Y213726D01*
X353751Y213781D01*
X354659Y216578D01*
X354672Y216645D01*
X354695Y216711D01*
X354718Y216870D01*
X354833Y218340D01*
X354832Y218362D01*
X354837Y218440D01*
X354837Y284480D01*
X354835Y284501D01*
X354835Y284563D01*
X354732Y286121D01*
X354724Y286165D01*
X354724Y286209D01*
X354692Y286367D01*
X353885Y289377D01*
X353853Y289456D01*
X353830Y289539D01*
X353769Y289661D01*
X353765Y289671D01*
X353762Y289675D01*
X353758Y289683D01*
X352200Y292382D01*
X352149Y292450D01*
X352105Y292524D01*
X352015Y292627D01*
X352008Y292635D01*
X352005Y292638D01*
X351999Y292645D01*
X349795Y294849D01*
X349727Y294901D01*
X349666Y294961D01*
X349552Y295037D01*
X349544Y295043D01*
X349540Y295045D01*
X349532Y295050D01*
X348089Y295884D01*
X348030Y295908D01*
X347977Y295941D01*
X347884Y295969D01*
X347795Y296007D01*
X347733Y296016D01*
X347673Y296035D01*
X347576Y296039D01*
X347481Y296053D01*
X347418Y296047D01*
X347355Y296050D01*
X347261Y296030D01*
X347165Y296020D01*
X347105Y295998D01*
X347044Y295985D01*
X346957Y295943D01*
X346866Y295909D01*
X346815Y295873D01*
X346758Y295846D01*
X346685Y295783D01*
X346605Y295728D01*
X346564Y295680D01*
X346516Y295639D01*
X346460Y295561D01*
X346397Y295488D01*
X346369Y295431D01*
X346333Y295379D01*
X346299Y295289D01*
X346256Y295203D01*
X346242Y295141D01*
X346220Y295082D01*
X346209Y294986D01*
X346189Y294892D01*
X346192Y294829D01*
X346185Y294766D01*
X346198Y294670D01*
X346202Y294574D01*
X346221Y294514D01*
X346229Y294451D01*
X346281Y294299D01*
X346965Y292649D01*
X346965Y289011D01*
X345573Y285650D01*
X343000Y283077D01*
X339639Y281685D01*
X320761Y281685D01*
X317400Y283077D01*
X314827Y285650D01*
X313435Y289011D01*
X313435Y292649D01*
X314781Y295897D01*
X314794Y295945D01*
X314815Y295991D01*
X314836Y296098D01*
X314865Y296204D01*
X314865Y296254D01*
X314875Y296304D01*
X314868Y296412D01*
X314870Y296522D01*
X314858Y296571D01*
X314855Y296621D01*
X314821Y296725D01*
X314795Y296831D01*
X314772Y296875D01*
X314756Y296923D01*
X314698Y297015D01*
X314647Y297112D01*
X314613Y297149D01*
X314586Y297192D01*
X314506Y297267D01*
X314433Y297347D01*
X314391Y297375D01*
X314354Y297410D01*
X314258Y297462D01*
X314167Y297522D01*
X314119Y297538D01*
X314075Y297563D01*
X313969Y297590D01*
X313866Y297625D01*
X313816Y297629D01*
X313767Y297642D01*
X313606Y297652D01*
X183964Y297488D01*
X183925Y297483D01*
X183886Y297485D01*
X183768Y297463D01*
X183648Y297447D01*
X183612Y297433D01*
X183574Y297426D01*
X183465Y297374D01*
X183353Y297330D01*
X183321Y297307D01*
X183286Y297291D01*
X183193Y297214D01*
X183096Y297143D01*
X183071Y297113D01*
X183041Y297088D01*
X182970Y296991D01*
X182893Y296898D01*
X182877Y296862D01*
X182854Y296831D01*
X182809Y296719D01*
X182758Y296610D01*
X182751Y296571D01*
X182736Y296535D01*
X182721Y296416D01*
X182699Y296297D01*
X182701Y296259D01*
X182696Y296220D01*
X182711Y296100D01*
X182719Y295980D01*
X182731Y295943D01*
X182736Y295904D01*
X182780Y295792D01*
X182817Y295678D01*
X182838Y295645D01*
X182852Y295608D01*
X182939Y295472D01*
X190685Y284810D01*
X196295Y270642D01*
X197776Y258921D01*
X197785Y258882D01*
X197788Y258843D01*
X197825Y258729D01*
X197855Y258613D01*
X197874Y258578D01*
X197886Y258541D01*
X197950Y258439D01*
X198008Y258334D01*
X198035Y258305D01*
X198056Y258272D01*
X198143Y258190D01*
X198225Y258102D01*
X198259Y258081D01*
X198288Y258054D01*
X198393Y257996D01*
X198494Y257932D01*
X198532Y257920D01*
X198566Y257900D01*
X198682Y257871D01*
X198796Y257833D01*
X198836Y257831D01*
X198874Y257821D01*
X199035Y257811D01*
X269382Y257811D01*
X276404Y250788D01*
X276482Y250728D01*
X276554Y250660D01*
X276607Y250631D01*
X276655Y250594D01*
X276746Y250554D01*
X276833Y250506D01*
X276891Y250491D01*
X276947Y250467D01*
X277045Y250452D01*
X277141Y250427D01*
X277241Y250421D01*
X277261Y250417D01*
X277273Y250419D01*
X277301Y250417D01*
X279186Y250417D01*
X281136Y249609D01*
X282629Y248116D01*
X283437Y246166D01*
X283437Y244054D01*
X282629Y242104D01*
X281136Y240611D01*
X279186Y239803D01*
X277074Y239803D01*
X275124Y240611D01*
X273631Y242104D01*
X272823Y244054D01*
X272823Y245939D01*
X272811Y246037D01*
X272808Y246136D01*
X272791Y246194D01*
X272783Y246254D01*
X272747Y246346D01*
X272719Y246441D01*
X272689Y246494D01*
X272666Y246550D01*
X272608Y246630D01*
X272558Y246715D01*
X272492Y246791D01*
X272480Y246807D01*
X272470Y246815D01*
X272452Y246836D01*
X267438Y251850D01*
X267360Y251910D01*
X267288Y251978D01*
X267235Y252007D01*
X267187Y252044D01*
X267096Y252084D01*
X267009Y252132D01*
X266951Y252147D01*
X266895Y252171D01*
X266797Y252186D01*
X266701Y252211D01*
X266601Y252217D01*
X266581Y252221D01*
X266569Y252219D01*
X266541Y252221D01*
X257080Y252221D01*
X257011Y252213D01*
X256941Y252214D01*
X256854Y252193D01*
X256764Y252181D01*
X256700Y252156D01*
X256632Y252139D01*
X256552Y252097D01*
X256469Y252064D01*
X256412Y252023D01*
X256351Y251991D01*
X256284Y251930D01*
X256211Y251878D01*
X256167Y251824D01*
X256115Y251777D01*
X256066Y251702D01*
X256009Y251633D01*
X255979Y251569D01*
X255940Y251511D01*
X255911Y251426D01*
X255873Y251345D01*
X255860Y251276D01*
X255837Y251210D01*
X255830Y251121D01*
X255813Y251033D01*
X255818Y250963D01*
X255812Y250893D01*
X255827Y250805D01*
X255833Y250715D01*
X255855Y250649D01*
X255866Y250580D01*
X255903Y250498D01*
X255931Y250413D01*
X255968Y250354D01*
X255997Y250290D01*
X256053Y250220D01*
X256101Y250144D01*
X256152Y250096D01*
X256196Y250042D01*
X256267Y249987D01*
X256333Y249926D01*
X256394Y249892D01*
X256450Y249850D01*
X256594Y249779D01*
X257006Y249609D01*
X258499Y248116D01*
X259307Y246166D01*
X259307Y244054D01*
X258499Y242104D01*
X257006Y240611D01*
X255056Y239803D01*
X252944Y239803D01*
X250994Y240611D01*
X249662Y241944D01*
X249583Y242004D01*
X249511Y242072D01*
X249458Y242101D01*
X249410Y242138D01*
X249320Y242178D01*
X249233Y242226D01*
X249174Y242241D01*
X249119Y242265D01*
X249021Y242280D01*
X248925Y242305D01*
X248825Y242311D01*
X248804Y242315D01*
X248792Y242313D01*
X248764Y242315D01*
X230029Y242315D01*
X229931Y242303D01*
X229832Y242300D01*
X229774Y242283D01*
X229714Y242275D01*
X229622Y242239D01*
X229527Y242211D01*
X229474Y242181D01*
X229418Y242158D01*
X229338Y242100D01*
X229253Y242050D01*
X229177Y241984D01*
X229161Y241972D01*
X229153Y241962D01*
X229132Y241944D01*
X210081Y222893D01*
X210008Y222798D01*
X209929Y222709D01*
X209911Y222673D01*
X209886Y222641D01*
X209839Y222532D01*
X209785Y222426D01*
X209776Y222387D01*
X209760Y222350D01*
X209741Y222232D01*
X209715Y222116D01*
X209716Y222075D01*
X209710Y222035D01*
X209721Y221917D01*
X209725Y221798D01*
X209736Y221759D01*
X209740Y221719D01*
X209780Y221607D01*
X209813Y221492D01*
X209834Y221458D01*
X209847Y221420D01*
X209914Y221321D01*
X209975Y221218D01*
X210014Y221173D01*
X210026Y221156D01*
X210041Y221143D01*
X210081Y221098D01*
X211392Y219786D01*
X211392Y208874D01*
X211407Y208756D01*
X211415Y208636D01*
X211427Y208598D01*
X211432Y208559D01*
X211476Y208448D01*
X211513Y208334D01*
X211535Y208300D01*
X211549Y208263D01*
X211619Y208166D01*
X211684Y208065D01*
X211713Y208038D01*
X211736Y208006D01*
X211828Y207929D01*
X211916Y207847D01*
X211950Y207828D01*
X211981Y207803D01*
X212089Y207752D01*
X212194Y207694D01*
X212233Y207684D01*
X212269Y207668D01*
X212386Y207645D01*
X212502Y207615D01*
X212561Y207612D01*
X212581Y207608D01*
X212601Y207609D01*
X212663Y207605D01*
X313640Y207734D01*
G37*
%LPC*%
G36*
X320761Y256285D02*
X320761Y256285D01*
X317400Y257677D01*
X314827Y260250D01*
X313435Y263611D01*
X313435Y267249D01*
X314827Y270610D01*
X317400Y273183D01*
X320761Y274575D01*
X339639Y274575D01*
X343000Y273183D01*
X345573Y270610D01*
X346965Y267249D01*
X346965Y263611D01*
X345573Y260250D01*
X343000Y257677D01*
X339639Y256285D01*
X320761Y256285D01*
G37*
%LPD*%
%LPC*%
G36*
X332739Y242569D02*
X332739Y242569D01*
X332739Y250191D01*
X338620Y250191D01*
X340199Y249941D01*
X341720Y249446D01*
X343145Y248720D01*
X344439Y247780D01*
X345570Y246649D01*
X346510Y245355D01*
X347236Y243930D01*
X347679Y242569D01*
X332739Y242569D01*
G37*
%LPD*%
%LPC*%
G36*
X312721Y242569D02*
X312721Y242569D01*
X313164Y243930D01*
X313890Y245355D01*
X314830Y246649D01*
X315961Y247780D01*
X317255Y248720D01*
X318680Y249446D01*
X320201Y249941D01*
X321780Y250191D01*
X327661Y250191D01*
X327661Y242569D01*
X312721Y242569D01*
G37*
%LPD*%
%LPC*%
G36*
X332739Y229869D02*
X332739Y229869D01*
X332739Y237491D01*
X347679Y237491D01*
X347236Y236130D01*
X346510Y234705D01*
X345570Y233411D01*
X344439Y232280D01*
X343145Y231340D01*
X341720Y230614D01*
X340199Y230119D01*
X338620Y229869D01*
X332739Y229869D01*
G37*
%LPD*%
%LPC*%
G36*
X321780Y229869D02*
X321780Y229869D01*
X320201Y230119D01*
X318680Y230614D01*
X317255Y231340D01*
X315961Y232280D01*
X314830Y233411D01*
X313890Y234705D01*
X313164Y236130D01*
X312721Y237491D01*
X327661Y237491D01*
X327661Y229869D01*
X321780Y229869D01*
G37*
%LPD*%
%LPC*%
G36*
X330199Y240029D02*
X330199Y240029D01*
X330199Y240031D01*
X330201Y240031D01*
X330201Y240029D01*
X330199Y240029D01*
G37*
%LPD*%
D10*
X322580Y290830D02*
X337820Y290830D01*
X337820Y265430D02*
X322580Y265430D01*
X322580Y240030D02*
X337820Y240030D01*
X337820Y214630D02*
X322580Y214630D01*
D11*
X197104Y213868D03*
D12*
X137414Y255524D03*
D13*
X288290Y244122D03*
D14*
X326108Y244122D01*
X330200Y240030D01*
D13*
X254000Y245110D03*
D15*
X228346Y245110D02*
X197104Y213868D01*
X228346Y245110D02*
X254000Y245110D01*
D13*
X278130Y245110D03*
D15*
X268224Y255016D01*
X192024Y255016D01*
D14*
X137922Y255016D01*
X137414Y255524D01*
M02*
