G04 EAGLE Gerber RS-274X export*
G75*
%MOMM*%
%FSLAX34Y34*%
%LPD*%
%INBottom Copper*%
%IPPOS*%
%AMOC8*
5,1,8,0,0,1.08239X$1,22.5*%
G01*
%ADD10C,1.524000*%
%ADD11P,2.763017X8X112.500000*%
%ADD12C,8.000000*%
%ADD13C,0.756400*%
%ADD14C,0.152400*%
%ADD15C,0.254000*%

G36*
X314805Y206559D02*
X314805Y206559D01*
X314948Y206572D01*
X314963Y206578D01*
X314980Y206580D01*
X315113Y206631D01*
X315247Y206680D01*
X315261Y206689D01*
X315276Y206695D01*
X315392Y206778D01*
X315510Y206858D01*
X315521Y206871D01*
X315535Y206880D01*
X315626Y206990D01*
X315721Y207097D01*
X315728Y207112D01*
X315739Y207124D01*
X315800Y207253D01*
X315865Y207380D01*
X315869Y207396D01*
X315876Y207411D01*
X315904Y207551D01*
X315935Y207690D01*
X315934Y207707D01*
X315938Y207723D01*
X315930Y207865D01*
X315925Y208008D01*
X315921Y208024D01*
X315920Y208041D01*
X315877Y208176D01*
X315837Y208314D01*
X315828Y208328D01*
X315824Y208344D01*
X315748Y208464D01*
X315675Y208588D01*
X315660Y208605D01*
X315655Y208613D01*
X315641Y208626D01*
X315569Y208708D01*
X314827Y209450D01*
X313435Y212811D01*
X313435Y216449D01*
X314827Y219810D01*
X317400Y222383D01*
X320761Y223775D01*
X330708Y223775D01*
X330826Y223790D01*
X330945Y223797D01*
X330983Y223810D01*
X331024Y223815D01*
X331134Y223858D01*
X331247Y223895D01*
X331282Y223917D01*
X331319Y223932D01*
X331415Y224001D01*
X331516Y224065D01*
X331544Y224095D01*
X331577Y224118D01*
X331653Y224210D01*
X331734Y224297D01*
X331754Y224332D01*
X331779Y224363D01*
X331830Y224471D01*
X331888Y224575D01*
X331898Y224615D01*
X331915Y224651D01*
X331937Y224768D01*
X331967Y224883D01*
X331971Y224943D01*
X331975Y224963D01*
X331973Y224984D01*
X331977Y225044D01*
X331977Y238760D01*
X331962Y238878D01*
X331955Y238997D01*
X331942Y239035D01*
X331937Y239075D01*
X331894Y239186D01*
X331857Y239299D01*
X331835Y239333D01*
X331820Y239371D01*
X331751Y239467D01*
X331687Y239568D01*
X331657Y239596D01*
X331634Y239628D01*
X331542Y239704D01*
X331455Y239786D01*
X331420Y239805D01*
X331389Y239831D01*
X331281Y239882D01*
X331177Y239939D01*
X331137Y239950D01*
X331101Y239967D01*
X330984Y239989D01*
X330869Y240019D01*
X330809Y240023D01*
X330789Y240027D01*
X330768Y240025D01*
X330708Y240029D01*
X330199Y240029D01*
X330199Y240031D01*
X330708Y240031D01*
X330826Y240046D01*
X330945Y240053D01*
X330983Y240066D01*
X331024Y240071D01*
X331134Y240115D01*
X331247Y240151D01*
X331282Y240173D01*
X331319Y240188D01*
X331415Y240258D01*
X331516Y240321D01*
X331544Y240351D01*
X331577Y240375D01*
X331653Y240466D01*
X331734Y240553D01*
X331754Y240588D01*
X331779Y240620D01*
X331830Y240727D01*
X331888Y240832D01*
X331898Y240871D01*
X331915Y240907D01*
X331937Y241024D01*
X331967Y241139D01*
X331971Y241200D01*
X331975Y241220D01*
X331973Y241240D01*
X331977Y241300D01*
X331977Y255016D01*
X331962Y255134D01*
X331955Y255253D01*
X331942Y255291D01*
X331937Y255332D01*
X331894Y255442D01*
X331857Y255555D01*
X331835Y255590D01*
X331820Y255627D01*
X331751Y255723D01*
X331687Y255824D01*
X331657Y255852D01*
X331634Y255885D01*
X331542Y255961D01*
X331455Y256042D01*
X331420Y256062D01*
X331389Y256087D01*
X331281Y256138D01*
X331177Y256196D01*
X331137Y256206D01*
X331101Y256223D01*
X330984Y256245D01*
X330869Y256275D01*
X330809Y256279D01*
X330789Y256283D01*
X330768Y256281D01*
X330708Y256285D01*
X320761Y256285D01*
X317400Y257677D01*
X314827Y260250D01*
X313435Y263611D01*
X313435Y267249D01*
X314827Y270610D01*
X317400Y273183D01*
X320761Y274575D01*
X330708Y274575D01*
X330826Y274590D01*
X330945Y274597D01*
X330983Y274610D01*
X331024Y274615D01*
X331134Y274658D01*
X331247Y274695D01*
X331282Y274717D01*
X331319Y274732D01*
X331415Y274801D01*
X331516Y274865D01*
X331544Y274895D01*
X331577Y274918D01*
X331653Y275010D01*
X331734Y275097D01*
X331754Y275132D01*
X331779Y275163D01*
X331830Y275271D01*
X331888Y275375D01*
X331898Y275415D01*
X331915Y275451D01*
X331937Y275568D01*
X331967Y275683D01*
X331971Y275743D01*
X331975Y275763D01*
X331973Y275784D01*
X331977Y275844D01*
X331977Y280416D01*
X331962Y280534D01*
X331955Y280653D01*
X331942Y280691D01*
X331937Y280732D01*
X331894Y280842D01*
X331857Y280955D01*
X331835Y280990D01*
X331820Y281027D01*
X331751Y281123D01*
X331687Y281224D01*
X331657Y281252D01*
X331634Y281285D01*
X331542Y281361D01*
X331455Y281442D01*
X331420Y281462D01*
X331389Y281487D01*
X331281Y281538D01*
X331177Y281596D01*
X331137Y281606D01*
X331101Y281623D01*
X330984Y281645D01*
X330869Y281675D01*
X330809Y281679D01*
X330789Y281683D01*
X330768Y281681D01*
X330708Y281685D01*
X320761Y281685D01*
X317400Y283077D01*
X314827Y285650D01*
X313954Y287760D01*
X313939Y287785D01*
X313930Y287813D01*
X313860Y287923D01*
X313796Y288036D01*
X313775Y288057D01*
X313760Y288082D01*
X313665Y288171D01*
X313575Y288264D01*
X313550Y288280D01*
X313528Y288300D01*
X313414Y288363D01*
X313304Y288431D01*
X313275Y288439D01*
X313250Y288454D01*
X313124Y288486D01*
X313000Y288524D01*
X312970Y288526D01*
X312942Y288533D01*
X312781Y288543D01*
X307290Y288543D01*
X307192Y288531D01*
X307093Y288528D01*
X307035Y288511D01*
X306975Y288503D01*
X306883Y288467D01*
X306788Y288439D01*
X306736Y288409D01*
X306679Y288386D01*
X306599Y288328D01*
X306514Y288278D01*
X306438Y288212D01*
X306422Y288200D01*
X306414Y288190D01*
X306393Y288172D01*
X286350Y268129D01*
X286289Y268050D01*
X286221Y267978D01*
X286192Y267925D01*
X286155Y267877D01*
X286116Y267786D01*
X286068Y267700D01*
X286053Y267641D01*
X286029Y267585D01*
X286013Y267487D01*
X285988Y267392D01*
X285982Y267292D01*
X285979Y267271D01*
X285980Y267259D01*
X285978Y267231D01*
X285978Y258601D01*
X285982Y258571D01*
X285980Y258542D01*
X286002Y258414D01*
X286018Y258285D01*
X286029Y258258D01*
X286034Y258229D01*
X286087Y258110D01*
X286135Y257990D01*
X286152Y257966D01*
X286165Y257939D01*
X286246Y257837D01*
X286322Y257732D01*
X286345Y257713D01*
X286363Y257690D01*
X286467Y257612D01*
X286567Y257529D01*
X286594Y257517D01*
X286617Y257499D01*
X286688Y257464D01*
X288190Y255962D01*
X288998Y254012D01*
X288998Y251900D01*
X288190Y249950D01*
X286698Y248457D01*
X284747Y247649D01*
X284706Y247649D01*
X284588Y247634D01*
X284469Y247627D01*
X284431Y247614D01*
X284390Y247609D01*
X284280Y247566D01*
X284167Y247529D01*
X284132Y247507D01*
X284095Y247492D01*
X283999Y247423D01*
X283898Y247359D01*
X283870Y247329D01*
X283837Y247306D01*
X283761Y247214D01*
X283680Y247127D01*
X283660Y247092D01*
X283635Y247061D01*
X283584Y246953D01*
X283526Y246849D01*
X283516Y246809D01*
X283499Y246773D01*
X283477Y246656D01*
X283447Y246541D01*
X283443Y246481D01*
X283439Y246461D01*
X283441Y246440D01*
X283437Y246380D01*
X283437Y244054D01*
X282629Y242104D01*
X281136Y240611D01*
X279186Y239803D01*
X277074Y239803D01*
X275124Y240611D01*
X273631Y242104D01*
X272823Y244054D01*
X272823Y245939D01*
X272811Y246037D01*
X272808Y246136D01*
X272791Y246194D01*
X272783Y246254D01*
X272747Y246346D01*
X272719Y246441D01*
X272689Y246494D01*
X272666Y246550D01*
X272608Y246630D01*
X272558Y246715D01*
X272492Y246791D01*
X272480Y246807D01*
X272470Y246815D01*
X272452Y246836D01*
X267438Y251850D01*
X267360Y251910D01*
X267288Y251978D01*
X267235Y252007D01*
X267187Y252044D01*
X267096Y252084D01*
X267009Y252132D01*
X266951Y252147D01*
X266895Y252171D01*
X266797Y252186D01*
X266701Y252211D01*
X266601Y252217D01*
X266581Y252221D01*
X266569Y252219D01*
X266541Y252221D01*
X257080Y252221D01*
X257011Y252213D01*
X256941Y252214D01*
X256854Y252193D01*
X256764Y252181D01*
X256700Y252156D01*
X256632Y252139D01*
X256552Y252097D01*
X256469Y252064D01*
X256412Y252023D01*
X256351Y251991D01*
X256284Y251930D01*
X256211Y251878D01*
X256167Y251824D01*
X256115Y251777D01*
X256066Y251702D01*
X256009Y251633D01*
X255979Y251569D01*
X255940Y251511D01*
X255911Y251426D01*
X255873Y251345D01*
X255860Y251276D01*
X255837Y251210D01*
X255830Y251121D01*
X255813Y251033D01*
X255818Y250963D01*
X255812Y250893D01*
X255827Y250805D01*
X255833Y250715D01*
X255855Y250649D01*
X255866Y250580D01*
X255903Y250498D01*
X255931Y250413D01*
X255968Y250354D01*
X255997Y250290D01*
X256053Y250220D01*
X256101Y250144D01*
X256152Y250096D01*
X256196Y250042D01*
X256267Y249987D01*
X256333Y249926D01*
X256394Y249892D01*
X256450Y249850D01*
X256594Y249779D01*
X257006Y249609D01*
X258499Y248116D01*
X259307Y246166D01*
X259307Y244054D01*
X258499Y242104D01*
X257006Y240611D01*
X255056Y239803D01*
X252944Y239803D01*
X250994Y240611D01*
X249662Y241944D01*
X249583Y242004D01*
X249511Y242072D01*
X249458Y242101D01*
X249410Y242138D01*
X249320Y242178D01*
X249233Y242226D01*
X249174Y242241D01*
X249119Y242265D01*
X249021Y242280D01*
X248925Y242305D01*
X248825Y242311D01*
X248804Y242315D01*
X248792Y242313D01*
X248764Y242315D01*
X236379Y242315D01*
X236281Y242303D01*
X236182Y242300D01*
X236124Y242283D01*
X236064Y242275D01*
X235972Y242239D01*
X235877Y242211D01*
X235824Y242181D01*
X235768Y242158D01*
X235688Y242100D01*
X235603Y242050D01*
X235527Y241984D01*
X235511Y241972D01*
X235503Y241962D01*
X235482Y241944D01*
X210081Y216543D01*
X210008Y216448D01*
X209929Y216359D01*
X209911Y216323D01*
X209886Y216291D01*
X209839Y216182D01*
X209785Y216076D01*
X209776Y216037D01*
X209760Y216000D01*
X209741Y215882D01*
X209715Y215766D01*
X209716Y215725D01*
X209710Y215685D01*
X209721Y215567D01*
X209725Y215448D01*
X209736Y215409D01*
X209740Y215369D01*
X209780Y215257D01*
X209813Y215142D01*
X209834Y215108D01*
X209847Y215070D01*
X209914Y214971D01*
X209975Y214868D01*
X210014Y214823D01*
X210026Y214806D01*
X210041Y214793D01*
X210081Y214748D01*
X211392Y213436D01*
X211392Y208407D01*
X211407Y208292D01*
X211413Y208177D01*
X211427Y208135D01*
X211432Y208091D01*
X211475Y207984D01*
X211509Y207874D01*
X211533Y207836D01*
X211549Y207795D01*
X211617Y207702D01*
X211678Y207604D01*
X211710Y207574D01*
X211736Y207538D01*
X211825Y207465D01*
X211908Y207385D01*
X211947Y207363D01*
X211981Y207335D01*
X212085Y207286D01*
X212186Y207230D01*
X212229Y207219D01*
X212269Y207200D01*
X212382Y207178D01*
X212493Y207149D01*
X212560Y207144D01*
X212581Y207140D01*
X212600Y207141D01*
X212654Y207137D01*
X314664Y206542D01*
X314805Y206559D01*
G37*
%LPC*%
G36*
X312721Y242569D02*
X312721Y242569D01*
X313164Y243930D01*
X313890Y245355D01*
X314830Y246649D01*
X315961Y247780D01*
X317255Y248720D01*
X318680Y249446D01*
X320201Y249941D01*
X321780Y250191D01*
X327661Y250191D01*
X327661Y242569D01*
X312721Y242569D01*
G37*
%LPD*%
%LPC*%
G36*
X321780Y229869D02*
X321780Y229869D01*
X320201Y230119D01*
X318680Y230614D01*
X317255Y231340D01*
X316782Y231683D01*
X316781Y231684D01*
X315961Y232280D01*
X314830Y233411D01*
X313890Y234705D01*
X313164Y236130D01*
X312721Y237491D01*
X327661Y237491D01*
X327661Y229869D01*
X321780Y229869D01*
G37*
%LPD*%
D10*
X322580Y290830D02*
X337820Y290830D01*
X337820Y265430D02*
X322580Y265430D01*
X322580Y240030D02*
X337820Y240030D01*
X337820Y214630D02*
X322580Y214630D01*
D11*
X197104Y207518D03*
D12*
X137414Y255524D03*
D13*
X288290Y244122D03*
D14*
X312674Y244122D01*
X326108Y244122D01*
X330200Y240030D01*
D13*
X313106Y278130D03*
D14*
X312674Y277698D02*
X312674Y244122D01*
X312674Y277698D02*
X313106Y278130D01*
D13*
X254000Y245110D03*
D15*
X234696Y245110D02*
X197104Y207518D01*
X234696Y245110D02*
X254000Y245110D01*
D13*
X278130Y245110D03*
D15*
X268224Y255016D01*
X192024Y255016D01*
D14*
X137922Y255016D01*
X137414Y255524D01*
X305818Y290830D02*
X330200Y290830D01*
X283692Y268704D02*
X283692Y252956D01*
X283692Y268704D02*
X305818Y290830D01*
D13*
X283692Y252956D03*
M02*
