G04 EAGLE Gerber RS-274X export*
G75*
%MOMM*%
%FSLAX34Y34*%
%LPD*%
%INTop Copper*%
%IPPOS*%
%AMOC8*
5,1,8,0,0,1.08239X$1,22.5*%
G01*
%ADD10C,0.300000*%
%ADD11R,0.600000X0.700000*%
%ADD12R,0.700000X0.600000*%
%ADD13R,0.700000X0.900000*%
%ADD14R,0.900000X0.700000*%
%ADD15C,1.524000*%
%ADD16P,2.763017X8X112.500000*%
%ADD17C,8.000000*%
%ADD18C,0.152400*%
%ADD19C,0.756400*%

G36*
X260370Y206874D02*
X260370Y206874D01*
X260493Y206882D01*
X260528Y206893D01*
X260564Y206897D01*
X260679Y206942D01*
X260795Y206980D01*
X260826Y206999D01*
X260861Y207013D01*
X260960Y207084D01*
X261064Y207150D01*
X261089Y207177D01*
X261119Y207198D01*
X261198Y207292D01*
X261282Y207382D01*
X261300Y207414D01*
X261323Y207442D01*
X261376Y207553D01*
X261436Y207660D01*
X261445Y207696D01*
X261461Y207729D01*
X261484Y207849D01*
X261515Y207968D01*
X261518Y208022D01*
X261522Y208041D01*
X261521Y208062D01*
X261525Y208129D01*
X261525Y215952D01*
X262699Y217125D01*
X262752Y217161D01*
X262766Y217177D01*
X262782Y217188D01*
X262871Y217296D01*
X262963Y217400D01*
X262972Y217418D01*
X262985Y217433D01*
X263044Y217559D01*
X263107Y217683D01*
X263112Y217703D01*
X263120Y217721D01*
X263146Y217858D01*
X263177Y217993D01*
X263176Y218014D01*
X263180Y218033D01*
X263172Y218172D01*
X263167Y218311D01*
X263162Y218331D01*
X263160Y218351D01*
X263118Y218483D01*
X263079Y218617D01*
X263069Y218634D01*
X263062Y218653D01*
X262988Y218771D01*
X262917Y218891D01*
X262899Y218912D01*
X262892Y218922D01*
X262877Y218936D01*
X262811Y219011D01*
X262175Y219647D01*
X262175Y238853D01*
X264042Y240719D01*
X264102Y240797D01*
X264170Y240870D01*
X264199Y240923D01*
X264236Y240970D01*
X264276Y241061D01*
X264324Y241148D01*
X264339Y241207D01*
X264363Y241262D01*
X264378Y241360D01*
X264403Y241456D01*
X264409Y241556D01*
X264413Y241576D01*
X264411Y241589D01*
X264413Y241617D01*
X264413Y249359D01*
X270189Y255135D01*
X270274Y255244D01*
X270362Y255351D01*
X270371Y255370D01*
X270384Y255386D01*
X270439Y255514D01*
X270498Y255639D01*
X270502Y255659D01*
X270510Y255678D01*
X270532Y255816D01*
X270558Y255952D01*
X270557Y255972D01*
X270560Y255992D01*
X270547Y256131D01*
X270538Y256269D01*
X270532Y256288D01*
X270530Y256308D01*
X270483Y256440D01*
X270440Y256571D01*
X270429Y256589D01*
X270422Y256608D01*
X270344Y256723D01*
X270270Y256840D01*
X270255Y256854D01*
X270244Y256871D01*
X270139Y256963D01*
X270038Y257058D01*
X270021Y257068D01*
X270005Y257081D01*
X269881Y257145D01*
X269760Y257212D01*
X269740Y257217D01*
X269722Y257226D01*
X269586Y257256D01*
X269452Y257291D01*
X269424Y257293D01*
X269412Y257296D01*
X269391Y257295D01*
X269291Y257301D01*
X219836Y257301D01*
X219718Y257286D01*
X219599Y257279D01*
X219561Y257266D01*
X219520Y257261D01*
X219410Y257218D01*
X219297Y257181D01*
X219262Y257159D01*
X219225Y257144D01*
X219129Y257075D01*
X219028Y257011D01*
X219000Y256981D01*
X218967Y256958D01*
X218891Y256866D01*
X218810Y256779D01*
X218790Y256744D01*
X218765Y256713D01*
X218714Y256605D01*
X218656Y256501D01*
X218646Y256461D01*
X218629Y256425D01*
X218607Y256308D01*
X218577Y256193D01*
X218573Y256133D01*
X218569Y256113D01*
X218571Y256092D01*
X218567Y256032D01*
X218567Y250376D01*
X218389Y250199D01*
X218316Y250104D01*
X218237Y250015D01*
X218219Y249979D01*
X218194Y249947D01*
X218147Y249838D01*
X218092Y249732D01*
X218084Y249693D01*
X218068Y249655D01*
X218049Y249538D01*
X218023Y249422D01*
X218024Y249381D01*
X218018Y249341D01*
X218029Y249223D01*
X218032Y249104D01*
X218044Y249065D01*
X218047Y249025D01*
X218088Y248913D01*
X218121Y248798D01*
X218141Y248763D01*
X218155Y248725D01*
X218222Y248627D01*
X218282Y248524D01*
X218322Y248479D01*
X218334Y248462D01*
X218349Y248449D01*
X218389Y248404D01*
X218567Y248226D01*
X218567Y239962D01*
X218389Y239784D01*
X218316Y239690D01*
X218237Y239601D01*
X218219Y239565D01*
X218194Y239533D01*
X218146Y239424D01*
X218092Y239318D01*
X218084Y239279D01*
X218068Y239241D01*
X218049Y239124D01*
X218023Y239008D01*
X218024Y238967D01*
X218018Y238927D01*
X218029Y238809D01*
X218032Y238690D01*
X218044Y238651D01*
X218047Y238611D01*
X218088Y238499D01*
X218121Y238384D01*
X218141Y238349D01*
X218155Y238311D01*
X218222Y238213D01*
X218282Y238110D01*
X218322Y238065D01*
X218334Y238048D01*
X218349Y238035D01*
X218389Y237989D01*
X218821Y237558D01*
X218821Y232806D01*
X218836Y232688D01*
X218843Y232569D01*
X218856Y232531D01*
X218861Y232490D01*
X218904Y232380D01*
X218941Y232267D01*
X218963Y232232D01*
X218978Y232195D01*
X219047Y232099D01*
X219111Y231998D01*
X219141Y231970D01*
X219164Y231937D01*
X219256Y231861D01*
X219343Y231780D01*
X219378Y231760D01*
X219409Y231735D01*
X219517Y231684D01*
X219621Y231626D01*
X219661Y231616D01*
X219697Y231599D01*
X219814Y231577D01*
X219929Y231547D01*
X219989Y231543D01*
X220009Y231539D01*
X220030Y231541D01*
X220090Y231537D01*
X222806Y231537D01*
X222924Y231552D01*
X223043Y231559D01*
X223081Y231572D01*
X223122Y231577D01*
X223232Y231620D01*
X223345Y231657D01*
X223380Y231679D01*
X223417Y231694D01*
X223513Y231763D01*
X223614Y231827D01*
X223642Y231857D01*
X223675Y231880D01*
X223751Y231972D01*
X223832Y232059D01*
X223852Y232094D01*
X223877Y232125D01*
X223928Y232233D01*
X223986Y232337D01*
X223996Y232377D01*
X224013Y232413D01*
X224035Y232530D01*
X224065Y232645D01*
X224069Y232705D01*
X224073Y232725D01*
X224071Y232746D01*
X224075Y232806D01*
X224075Y238853D01*
X225847Y240625D01*
X231353Y240625D01*
X233125Y238853D01*
X233125Y219647D01*
X231235Y217757D01*
X231150Y217648D01*
X231061Y217541D01*
X231053Y217522D01*
X231040Y217506D01*
X230985Y217378D01*
X230926Y217253D01*
X230922Y217233D01*
X230914Y217214D01*
X230892Y217076D01*
X230866Y216940D01*
X230867Y216920D01*
X230864Y216900D01*
X230877Y216761D01*
X230886Y216623D01*
X230892Y216604D01*
X230894Y216584D01*
X230941Y216452D01*
X230984Y216321D01*
X230994Y216303D01*
X231001Y216284D01*
X231080Y216169D01*
X231154Y216052D01*
X231169Y216038D01*
X231180Y216021D01*
X231284Y215929D01*
X231385Y215834D01*
X231403Y215824D01*
X231418Y215811D01*
X231542Y215747D01*
X231664Y215680D01*
X231684Y215675D01*
X231702Y215666D01*
X231837Y215636D01*
X231858Y215630D01*
X232791Y214698D01*
X232791Y214376D01*
X232806Y214258D01*
X232813Y214139D01*
X232826Y214101D01*
X232831Y214060D01*
X232874Y213950D01*
X232911Y213837D01*
X232933Y213802D01*
X232948Y213765D01*
X233017Y213669D01*
X233081Y213568D01*
X233111Y213540D01*
X233134Y213507D01*
X233226Y213431D01*
X233313Y213350D01*
X233348Y213330D01*
X233379Y213305D01*
X233487Y213254D01*
X233591Y213196D01*
X233631Y213186D01*
X233667Y213169D01*
X233784Y213147D01*
X233899Y213117D01*
X233959Y213113D01*
X233979Y213109D01*
X234000Y213111D01*
X234060Y213107D01*
X236856Y213107D01*
X236974Y213122D01*
X237093Y213129D01*
X237131Y213142D01*
X237172Y213147D01*
X237282Y213190D01*
X237395Y213227D01*
X237430Y213249D01*
X237467Y213264D01*
X237563Y213333D01*
X237664Y213397D01*
X237692Y213427D01*
X237725Y213450D01*
X237801Y213542D01*
X237882Y213629D01*
X237902Y213664D01*
X237927Y213695D01*
X237978Y213803D01*
X238036Y213907D01*
X238046Y213947D01*
X238063Y213983D01*
X238085Y214100D01*
X238115Y214215D01*
X238119Y214275D01*
X238123Y214295D01*
X238121Y214316D01*
X238125Y214376D01*
X238125Y214952D01*
X238642Y215468D01*
X238702Y215546D01*
X238770Y215618D01*
X238799Y215671D01*
X238836Y215719D01*
X238876Y215810D01*
X238924Y215897D01*
X238939Y215955D01*
X238963Y216011D01*
X238978Y216109D01*
X239003Y216205D01*
X239009Y216305D01*
X239013Y216325D01*
X239011Y216337D01*
X239013Y216365D01*
X239013Y216883D01*
X239001Y216982D01*
X238998Y217081D01*
X238981Y217139D01*
X238973Y217199D01*
X238937Y217291D01*
X238909Y217386D01*
X238879Y217438D01*
X238856Y217495D01*
X238798Y217575D01*
X238748Y217660D01*
X238682Y217735D01*
X238670Y217752D01*
X238660Y217760D01*
X238642Y217781D01*
X236775Y219647D01*
X236775Y238853D01*
X238547Y240625D01*
X244053Y240625D01*
X245825Y238853D01*
X245825Y219647D01*
X244189Y218011D01*
X244103Y217901D01*
X244015Y217795D01*
X244007Y217776D01*
X243994Y217760D01*
X243939Y217632D01*
X243880Y217507D01*
X243876Y217487D01*
X243868Y217468D01*
X243846Y217330D01*
X243820Y217194D01*
X243821Y217174D01*
X243818Y217154D01*
X243831Y217014D01*
X243840Y216877D01*
X243846Y216858D01*
X243848Y216838D01*
X243895Y216706D01*
X243938Y216575D01*
X243948Y216557D01*
X243955Y216538D01*
X244033Y216423D01*
X244108Y216306D01*
X244123Y216292D01*
X244134Y216275D01*
X244238Y216183D01*
X244339Y216088D01*
X244357Y216078D01*
X244372Y216065D01*
X244496Y216001D01*
X244618Y215934D01*
X244638Y215929D01*
X244656Y215920D01*
X244791Y215890D01*
X244926Y215855D01*
X244954Y215853D01*
X244966Y215850D01*
X244986Y215851D01*
X245087Y215845D01*
X246405Y215845D01*
X246501Y215796D01*
X246540Y215787D01*
X246577Y215771D01*
X246695Y215752D01*
X246811Y215726D01*
X246851Y215727D01*
X246891Y215721D01*
X247010Y215732D01*
X247129Y215736D01*
X247168Y215747D01*
X247208Y215751D01*
X247320Y215791D01*
X247434Y215824D01*
X247469Y215845D01*
X247507Y215858D01*
X247606Y215925D01*
X247708Y215986D01*
X247753Y216026D01*
X247770Y216037D01*
X247784Y216052D01*
X247829Y216092D01*
X248090Y216353D01*
X248669Y216688D01*
X249405Y216885D01*
X249474Y216891D01*
X249493Y216898D01*
X249513Y216901D01*
X249642Y216952D01*
X249773Y216999D01*
X249790Y217010D01*
X249809Y217018D01*
X249921Y217099D01*
X250036Y217177D01*
X250050Y217193D01*
X250066Y217204D01*
X250155Y217312D01*
X250247Y217416D01*
X250256Y217434D01*
X250269Y217449D01*
X250328Y217575D01*
X250391Y217699D01*
X250396Y217719D01*
X250404Y217737D01*
X250430Y217874D01*
X250461Y218009D01*
X250460Y218030D01*
X250464Y218049D01*
X250455Y218188D01*
X250451Y218327D01*
X250446Y218347D01*
X250444Y218367D01*
X250402Y218499D01*
X250363Y218633D01*
X250353Y218650D01*
X250346Y218669D01*
X250272Y218787D01*
X250201Y218907D01*
X250183Y218928D01*
X250176Y218938D01*
X250161Y218952D01*
X250095Y219027D01*
X249475Y219647D01*
X249475Y238853D01*
X250216Y239594D01*
X250289Y239688D01*
X250368Y239777D01*
X250386Y239813D01*
X250411Y239845D01*
X250458Y239954D01*
X250513Y240060D01*
X250521Y240100D01*
X250538Y240137D01*
X250556Y240255D01*
X250582Y240371D01*
X250581Y240411D01*
X250587Y240451D01*
X250576Y240570D01*
X250573Y240689D01*
X250561Y240727D01*
X250558Y240768D01*
X250517Y240880D01*
X250484Y240994D01*
X250464Y241029D01*
X250450Y241067D01*
X250383Y241165D01*
X250323Y241268D01*
X250283Y241313D01*
X250271Y241330D01*
X250256Y241344D01*
X250216Y241389D01*
X249501Y242104D01*
X248693Y244054D01*
X248693Y246166D01*
X249501Y248116D01*
X250994Y249609D01*
X252944Y250417D01*
X255056Y250417D01*
X257006Y249609D01*
X258499Y248116D01*
X259307Y246166D01*
X259307Y244054D01*
X258499Y242104D01*
X257784Y241389D01*
X257711Y241295D01*
X257632Y241206D01*
X257614Y241170D01*
X257589Y241138D01*
X257541Y241028D01*
X257487Y240922D01*
X257479Y240883D01*
X257462Y240846D01*
X257444Y240728D01*
X257418Y240612D01*
X257419Y240572D01*
X257413Y240532D01*
X257424Y240413D01*
X257427Y240294D01*
X257439Y240255D01*
X257442Y240215D01*
X257483Y240103D01*
X257516Y239989D01*
X257536Y239954D01*
X257550Y239916D01*
X257617Y239817D01*
X257677Y239715D01*
X257717Y239669D01*
X257729Y239653D01*
X257744Y239639D01*
X257784Y239594D01*
X258525Y238853D01*
X258525Y219647D01*
X257118Y218240D01*
X257045Y218146D01*
X256966Y218057D01*
X256948Y218021D01*
X256923Y217989D01*
X256876Y217880D01*
X256822Y217774D01*
X256813Y217734D01*
X256797Y217697D01*
X256778Y217579D01*
X256752Y217463D01*
X256753Y217423D01*
X256747Y217383D01*
X256758Y217264D01*
X256762Y217146D01*
X256773Y217107D01*
X256777Y217066D01*
X256817Y216954D01*
X256850Y216840D01*
X256870Y216805D01*
X256884Y216767D01*
X256951Y216669D01*
X257011Y216566D01*
X257051Y216521D01*
X257063Y216504D01*
X257078Y216491D01*
X257118Y216445D01*
X257683Y215880D01*
X258018Y215301D01*
X258191Y214654D01*
X258191Y212319D01*
X252880Y212319D01*
X252762Y212304D01*
X252643Y212297D01*
X252605Y212284D01*
X252565Y212279D01*
X252454Y212236D01*
X252341Y212199D01*
X252307Y212177D01*
X252269Y212162D01*
X252173Y212093D01*
X252072Y212029D01*
X252044Y211999D01*
X252012Y211976D01*
X251936Y211884D01*
X251854Y211797D01*
X251835Y211762D01*
X251809Y211731D01*
X251758Y211623D01*
X251701Y211519D01*
X251691Y211479D01*
X251673Y211443D01*
X251651Y211326D01*
X251621Y211211D01*
X251617Y211151D01*
X251614Y211131D01*
X251615Y211110D01*
X251611Y211050D01*
X251611Y210590D01*
X251626Y210472D01*
X251633Y210353D01*
X251646Y210315D01*
X251651Y210274D01*
X251695Y210164D01*
X251731Y210051D01*
X251753Y210016D01*
X251768Y209979D01*
X251838Y209882D01*
X251901Y209782D01*
X251931Y209754D01*
X251955Y209721D01*
X252046Y209645D01*
X252133Y209564D01*
X252168Y209544D01*
X252200Y209519D01*
X252307Y209468D01*
X252412Y209410D01*
X252451Y209400D01*
X252487Y209383D01*
X252604Y209361D01*
X252720Y209331D01*
X252780Y209327D01*
X252800Y209323D01*
X252820Y209325D01*
X252880Y209321D01*
X258191Y209321D01*
X258191Y208133D01*
X258205Y208019D01*
X258212Y207904D01*
X258225Y207862D01*
X258231Y207818D01*
X258273Y207711D01*
X258308Y207601D01*
X258331Y207563D01*
X258348Y207522D01*
X258415Y207429D01*
X258477Y207331D01*
X258509Y207301D01*
X258534Y207265D01*
X258623Y207191D01*
X258707Y207112D01*
X258745Y207090D01*
X258779Y207062D01*
X258884Y207013D01*
X258984Y206957D01*
X259027Y206945D01*
X259067Y206926D01*
X259180Y206905D01*
X259292Y206875D01*
X259359Y206871D01*
X259379Y206867D01*
X259399Y206868D01*
X259453Y206864D01*
X260249Y206859D01*
X260370Y206874D01*
G37*
G36*
X314805Y206559D02*
X314805Y206559D01*
X314948Y206572D01*
X314963Y206578D01*
X314980Y206580D01*
X315113Y206631D01*
X315247Y206680D01*
X315261Y206689D01*
X315276Y206695D01*
X315392Y206778D01*
X315510Y206858D01*
X315521Y206871D01*
X315535Y206880D01*
X315626Y206990D01*
X315721Y207097D01*
X315728Y207112D01*
X315739Y207124D01*
X315800Y207253D01*
X315865Y207380D01*
X315869Y207396D01*
X315876Y207411D01*
X315904Y207551D01*
X315935Y207690D01*
X315934Y207707D01*
X315938Y207723D01*
X315930Y207865D01*
X315925Y208008D01*
X315921Y208024D01*
X315920Y208041D01*
X315877Y208176D01*
X315837Y208314D01*
X315828Y208328D01*
X315824Y208344D01*
X315748Y208464D01*
X315675Y208588D01*
X315660Y208605D01*
X315655Y208613D01*
X315641Y208626D01*
X315569Y208708D01*
X314827Y209450D01*
X313435Y212811D01*
X313435Y216449D01*
X314309Y218559D01*
X314317Y218587D01*
X314330Y218614D01*
X314359Y218740D01*
X314393Y218866D01*
X314394Y218895D01*
X314400Y218924D01*
X314396Y219054D01*
X314398Y219184D01*
X314391Y219212D01*
X314390Y219242D01*
X314354Y219366D01*
X314324Y219493D01*
X314310Y219519D01*
X314302Y219547D01*
X314236Y219659D01*
X314175Y219774D01*
X314155Y219796D01*
X314140Y219821D01*
X314034Y219942D01*
X311491Y222485D01*
X311382Y222570D01*
X311275Y222658D01*
X311256Y222667D01*
X311240Y222680D01*
X311112Y222735D01*
X310987Y222794D01*
X310967Y222798D01*
X310948Y222806D01*
X310810Y222828D01*
X310674Y222854D01*
X310654Y222853D01*
X310634Y222856D01*
X310495Y222843D01*
X310357Y222834D01*
X310338Y222828D01*
X310318Y222826D01*
X310186Y222779D01*
X310055Y222736D01*
X310037Y222725D01*
X310018Y222718D01*
X309903Y222640D01*
X309786Y222566D01*
X309772Y222551D01*
X309755Y222540D01*
X309663Y222435D01*
X309568Y222334D01*
X309558Y222317D01*
X309545Y222301D01*
X309481Y222177D01*
X309414Y222056D01*
X309409Y222036D01*
X309400Y222018D01*
X309370Y221882D01*
X309335Y221748D01*
X309333Y221720D01*
X309330Y221708D01*
X309331Y221687D01*
X309325Y221587D01*
X309325Y219647D01*
X307553Y217875D01*
X302047Y217875D01*
X300275Y219647D01*
X300275Y238853D01*
X302142Y240719D01*
X302202Y240797D01*
X302270Y240869D01*
X302299Y240922D01*
X302336Y240970D01*
X302376Y241061D01*
X302424Y241148D01*
X302439Y241207D01*
X302463Y241262D01*
X302478Y241360D01*
X302503Y241456D01*
X302509Y241556D01*
X302513Y241576D01*
X302511Y241589D01*
X302513Y241617D01*
X302513Y248717D01*
X302501Y248815D01*
X302498Y248914D01*
X302481Y248972D01*
X302473Y249033D01*
X302437Y249125D01*
X302409Y249220D01*
X302379Y249272D01*
X302356Y249328D01*
X302298Y249408D01*
X302248Y249494D01*
X302182Y249569D01*
X302170Y249586D01*
X302160Y249593D01*
X302142Y249615D01*
X294827Y256930D01*
X294748Y256990D01*
X294676Y257058D01*
X294623Y257087D01*
X294575Y257124D01*
X294484Y257164D01*
X294398Y257212D01*
X294339Y257227D01*
X294283Y257251D01*
X294185Y257266D01*
X294090Y257291D01*
X293990Y257297D01*
X293969Y257301D01*
X293957Y257299D01*
X293929Y257301D01*
X289535Y257301D01*
X289486Y257295D01*
X289436Y257297D01*
X289329Y257275D01*
X289220Y257261D01*
X289173Y257243D01*
X289125Y257233D01*
X289026Y257185D01*
X288924Y257144D01*
X288884Y257115D01*
X288839Y257093D01*
X288756Y257022D01*
X288667Y256958D01*
X288635Y256919D01*
X288597Y256887D01*
X288534Y256797D01*
X288464Y256713D01*
X288443Y256668D01*
X288414Y256627D01*
X288375Y256524D01*
X288328Y256425D01*
X288319Y256376D01*
X288301Y256330D01*
X288289Y256220D01*
X288268Y256113D01*
X288272Y256063D01*
X288266Y256014D01*
X288281Y255905D01*
X288288Y255795D01*
X288304Y255748D01*
X288310Y255699D01*
X288363Y255546D01*
X288998Y254012D01*
X288998Y251900D01*
X288190Y249950D01*
X286698Y248457D01*
X284747Y247649D01*
X284706Y247649D01*
X284588Y247634D01*
X284469Y247627D01*
X284431Y247614D01*
X284390Y247609D01*
X284280Y247566D01*
X284167Y247529D01*
X284132Y247507D01*
X284095Y247492D01*
X283999Y247423D01*
X283898Y247359D01*
X283870Y247329D01*
X283837Y247306D01*
X283761Y247214D01*
X283680Y247127D01*
X283660Y247092D01*
X283635Y247061D01*
X283584Y246953D01*
X283526Y246849D01*
X283516Y246809D01*
X283499Y246773D01*
X283477Y246656D01*
X283447Y246541D01*
X283443Y246481D01*
X283439Y246461D01*
X283441Y246440D01*
X283437Y246380D01*
X283437Y244054D01*
X282629Y242104D01*
X282549Y242024D01*
X282476Y241930D01*
X282397Y241841D01*
X282379Y241805D01*
X282354Y241773D01*
X282306Y241663D01*
X282252Y241557D01*
X282244Y241518D01*
X282227Y241481D01*
X282209Y241363D01*
X282183Y241247D01*
X282184Y241207D01*
X282178Y241167D01*
X282189Y241048D01*
X282192Y240929D01*
X282204Y240890D01*
X282207Y240850D01*
X282248Y240738D01*
X282281Y240624D01*
X282301Y240589D01*
X282315Y240551D01*
X282382Y240452D01*
X282442Y240350D01*
X282482Y240305D01*
X282494Y240288D01*
X282509Y240274D01*
X282549Y240229D01*
X283925Y238853D01*
X283925Y219647D01*
X283891Y219613D01*
X283814Y219514D01*
X283732Y219419D01*
X283717Y219389D01*
X283696Y219362D01*
X283646Y219247D01*
X283590Y219134D01*
X283583Y219101D01*
X283570Y219070D01*
X283550Y218946D01*
X283524Y218823D01*
X283525Y218789D01*
X283520Y218756D01*
X283532Y218631D01*
X283537Y218505D01*
X283546Y218473D01*
X283550Y218439D01*
X283592Y218321D01*
X283628Y218201D01*
X283646Y218172D01*
X283657Y218140D01*
X283728Y218036D01*
X283793Y217928D01*
X283817Y217905D01*
X283836Y217877D01*
X283930Y217794D01*
X284020Y217706D01*
X284060Y217679D01*
X284074Y217667D01*
X284093Y217657D01*
X284154Y217617D01*
X284610Y217353D01*
X285083Y216880D01*
X285418Y216301D01*
X285591Y215654D01*
X285591Y212569D01*
X280030Y212569D01*
X279912Y212554D01*
X279793Y212547D01*
X279755Y212534D01*
X279715Y212529D01*
X279604Y212486D01*
X279491Y212449D01*
X279457Y212427D01*
X279419Y212412D01*
X279323Y212343D01*
X279222Y212279D01*
X279194Y212249D01*
X279162Y212226D01*
X279086Y212134D01*
X279004Y212047D01*
X278985Y212012D01*
X278959Y211981D01*
X278908Y211873D01*
X278851Y211769D01*
X278841Y211729D01*
X278823Y211693D01*
X278801Y211576D01*
X278795Y211574D01*
X278754Y211569D01*
X278644Y211525D01*
X278531Y211489D01*
X278496Y211467D01*
X278459Y211452D01*
X278362Y211382D01*
X278262Y211319D01*
X278234Y211289D01*
X278201Y211265D01*
X278125Y211174D01*
X278044Y211087D01*
X278024Y211052D01*
X277999Y211020D01*
X277948Y210913D01*
X277890Y210808D01*
X277880Y210769D01*
X277863Y210733D01*
X277841Y210616D01*
X277811Y210500D01*
X277807Y210440D01*
X277803Y210420D01*
X277805Y210400D01*
X277801Y210340D01*
X277801Y208019D01*
X277815Y207905D01*
X277822Y207789D01*
X277835Y207747D01*
X277841Y207703D01*
X277883Y207596D01*
X277918Y207486D01*
X277941Y207449D01*
X277958Y207408D01*
X278025Y207314D01*
X278087Y207216D01*
X278118Y207186D01*
X278144Y207150D01*
X278233Y207077D01*
X278317Y206997D01*
X278355Y206976D01*
X278389Y206947D01*
X278494Y206898D01*
X278594Y206842D01*
X278637Y206831D01*
X278677Y206812D01*
X278790Y206790D01*
X278902Y206761D01*
X278969Y206756D01*
X278989Y206752D01*
X279009Y206753D01*
X279063Y206750D01*
X280023Y206744D01*
X280144Y206759D01*
X280267Y206766D01*
X280302Y206778D01*
X280338Y206782D01*
X280453Y206827D01*
X280569Y206864D01*
X280600Y206884D01*
X280635Y206897D01*
X280735Y206969D01*
X280838Y207034D01*
X280863Y207061D01*
X280893Y207083D01*
X280972Y207177D01*
X281056Y207266D01*
X281074Y207298D01*
X281097Y207326D01*
X281150Y207437D01*
X281210Y207545D01*
X281219Y207580D01*
X281235Y207613D01*
X281258Y207734D01*
X281289Y207853D01*
X281292Y207906D01*
X281296Y207925D01*
X281295Y207947D01*
X281299Y208013D01*
X281299Y209071D01*
X285591Y209071D01*
X285591Y207973D01*
X285605Y207859D01*
X285612Y207744D01*
X285625Y207702D01*
X285631Y207658D01*
X285673Y207551D01*
X285708Y207441D01*
X285731Y207403D01*
X285748Y207362D01*
X285815Y207269D01*
X285877Y207171D01*
X285909Y207141D01*
X285934Y207105D01*
X286023Y207031D01*
X286107Y206952D01*
X286145Y206930D01*
X286179Y206902D01*
X286284Y206853D01*
X286384Y206797D01*
X286427Y206785D01*
X286467Y206766D01*
X286580Y206745D01*
X286692Y206715D01*
X286759Y206711D01*
X286779Y206707D01*
X286799Y206708D01*
X286853Y206704D01*
X288020Y206697D01*
X288122Y206710D01*
X288225Y206713D01*
X288280Y206729D01*
X288336Y206735D01*
X288432Y206773D01*
X288530Y206801D01*
X288579Y206830D01*
X288632Y206851D01*
X288716Y206910D01*
X288804Y206963D01*
X288873Y207024D01*
X288891Y207036D01*
X288900Y207047D01*
X288925Y207069D01*
X289442Y207585D01*
X289502Y207664D01*
X289570Y207736D01*
X289599Y207789D01*
X289636Y207837D01*
X289676Y207928D01*
X289724Y208014D01*
X289739Y208073D01*
X289763Y208129D01*
X289778Y208226D01*
X289803Y208322D01*
X289809Y208422D01*
X289813Y208443D01*
X289811Y208455D01*
X289813Y208483D01*
X289813Y216883D01*
X289801Y216982D01*
X289798Y217081D01*
X289781Y217139D01*
X289773Y217199D01*
X289737Y217291D01*
X289709Y217386D01*
X289679Y217438D01*
X289656Y217495D01*
X289598Y217575D01*
X289548Y217660D01*
X289482Y217735D01*
X289470Y217752D01*
X289460Y217760D01*
X289442Y217781D01*
X287575Y219647D01*
X287575Y238853D01*
X289347Y240625D01*
X294853Y240625D01*
X296625Y238853D01*
X296625Y219647D01*
X294758Y217781D01*
X294698Y217703D01*
X294630Y217630D01*
X294601Y217577D01*
X294564Y217530D01*
X294524Y217439D01*
X294476Y217352D01*
X294461Y217293D01*
X294437Y217238D01*
X294422Y217140D01*
X294397Y217044D01*
X294391Y216944D01*
X294387Y216924D01*
X294389Y216911D01*
X294387Y216883D01*
X294387Y207922D01*
X294401Y207808D01*
X294408Y207692D01*
X294421Y207650D01*
X294427Y207606D01*
X294469Y207499D01*
X294504Y207389D01*
X294527Y207352D01*
X294544Y207311D01*
X294611Y207217D01*
X294673Y207120D01*
X294704Y207089D01*
X294730Y207053D01*
X294819Y206980D01*
X294903Y206900D01*
X294941Y206879D01*
X294975Y206851D01*
X295080Y206802D01*
X295180Y206745D01*
X295223Y206734D01*
X295263Y206715D01*
X295376Y206693D01*
X295488Y206664D01*
X295555Y206659D01*
X295575Y206655D01*
X295595Y206656D01*
X295649Y206653D01*
X314664Y206542D01*
X314805Y206559D01*
G37*
G36*
X312915Y267974D02*
X312915Y267974D01*
X312945Y267972D01*
X313073Y267994D01*
X313202Y268011D01*
X313229Y268021D01*
X313258Y268026D01*
X313377Y268080D01*
X313497Y268128D01*
X313521Y268145D01*
X313548Y268157D01*
X313650Y268238D01*
X313755Y268314D01*
X313774Y268337D01*
X313797Y268356D01*
X313875Y268459D01*
X313958Y268559D01*
X313970Y268586D01*
X313988Y268610D01*
X314059Y268754D01*
X314827Y270610D01*
X317400Y273183D01*
X320761Y274575D01*
X330708Y274575D01*
X330826Y274590D01*
X330945Y274597D01*
X330983Y274610D01*
X331024Y274615D01*
X331134Y274658D01*
X331247Y274695D01*
X331282Y274717D01*
X331319Y274732D01*
X331415Y274801D01*
X331516Y274865D01*
X331544Y274895D01*
X331577Y274918D01*
X331653Y275010D01*
X331734Y275097D01*
X331754Y275132D01*
X331779Y275163D01*
X331830Y275271D01*
X331888Y275375D01*
X331898Y275415D01*
X331915Y275451D01*
X331937Y275568D01*
X331967Y275683D01*
X331971Y275743D01*
X331975Y275763D01*
X331973Y275784D01*
X331977Y275844D01*
X331977Y280416D01*
X331962Y280534D01*
X331955Y280653D01*
X331942Y280691D01*
X331937Y280732D01*
X331894Y280842D01*
X331857Y280955D01*
X331835Y280990D01*
X331820Y281027D01*
X331751Y281123D01*
X331687Y281224D01*
X331657Y281252D01*
X331634Y281285D01*
X331542Y281361D01*
X331455Y281442D01*
X331420Y281462D01*
X331389Y281487D01*
X331281Y281538D01*
X331177Y281596D01*
X331137Y281606D01*
X331101Y281623D01*
X330984Y281645D01*
X330869Y281675D01*
X330809Y281679D01*
X330789Y281683D01*
X330768Y281681D01*
X330708Y281685D01*
X320761Y281685D01*
X317400Y283077D01*
X314827Y285650D01*
X313435Y289011D01*
X313435Y292649D01*
X314283Y294695D01*
X314295Y294739D01*
X314315Y294781D01*
X314337Y294892D01*
X314367Y295002D01*
X314367Y295048D01*
X314376Y295093D01*
X314370Y295206D01*
X314372Y295320D01*
X314361Y295364D01*
X314358Y295410D01*
X314324Y295518D01*
X314298Y295629D01*
X314276Y295670D01*
X314262Y295713D01*
X314202Y295810D01*
X314149Y295910D01*
X314118Y295944D01*
X314093Y295983D01*
X314011Y296061D01*
X313935Y296145D01*
X313896Y296171D01*
X313863Y296202D01*
X313764Y296258D01*
X313669Y296320D01*
X313626Y296335D01*
X313586Y296357D01*
X313476Y296386D01*
X313368Y296423D01*
X313323Y296427D01*
X313278Y296439D01*
X313117Y296450D01*
X298837Y296533D01*
X298715Y296518D01*
X298593Y296510D01*
X298558Y296499D01*
X298522Y296495D01*
X298407Y296450D01*
X298291Y296412D01*
X298260Y296393D01*
X298225Y296379D01*
X298126Y296308D01*
X298022Y296242D01*
X297997Y296215D01*
X297967Y296194D01*
X297888Y296100D01*
X297804Y296011D01*
X297786Y295978D01*
X297763Y295950D01*
X297710Y295840D01*
X297650Y295732D01*
X297641Y295696D01*
X297625Y295663D01*
X297602Y295543D01*
X297571Y295424D01*
X297568Y295370D01*
X297564Y295351D01*
X297565Y295330D01*
X297561Y295263D01*
X297561Y293346D01*
X297388Y292699D01*
X297053Y292120D01*
X296580Y291647D01*
X295953Y291285D01*
X295853Y291209D01*
X295748Y291138D01*
X295726Y291113D01*
X295699Y291092D01*
X295621Y290994D01*
X295538Y290900D01*
X295523Y290870D01*
X295502Y290843D01*
X295450Y290728D01*
X295393Y290616D01*
X295386Y290584D01*
X295372Y290553D01*
X295351Y290428D01*
X295324Y290306D01*
X295325Y290272D01*
X295319Y290239D01*
X295330Y290114D01*
X295333Y289988D01*
X295343Y289956D01*
X295346Y289922D01*
X295387Y289803D01*
X295422Y289683D01*
X295439Y289654D01*
X295450Y289622D01*
X295520Y289517D01*
X295583Y289409D01*
X295616Y289372D01*
X295626Y289357D01*
X295642Y289342D01*
X295690Y289288D01*
X296625Y288353D01*
X296625Y282306D01*
X296640Y282188D01*
X296647Y282069D01*
X296660Y282031D01*
X296665Y281990D01*
X296708Y281880D01*
X296745Y281767D01*
X296767Y281732D01*
X296782Y281695D01*
X296851Y281599D01*
X296915Y281498D01*
X296945Y281470D01*
X296968Y281437D01*
X297060Y281361D01*
X297147Y281280D01*
X297182Y281260D01*
X297213Y281235D01*
X297321Y281184D01*
X297425Y281126D01*
X297465Y281116D01*
X297501Y281099D01*
X297618Y281077D01*
X297733Y281047D01*
X297793Y281043D01*
X297813Y281039D01*
X297834Y281041D01*
X297894Y281037D01*
X299006Y281037D01*
X299124Y281052D01*
X299243Y281059D01*
X299281Y281072D01*
X299322Y281077D01*
X299432Y281120D01*
X299545Y281157D01*
X299580Y281179D01*
X299617Y281194D01*
X299713Y281263D01*
X299814Y281327D01*
X299842Y281357D01*
X299875Y281380D01*
X299951Y281472D01*
X300032Y281559D01*
X300052Y281594D01*
X300077Y281625D01*
X300128Y281733D01*
X300186Y281837D01*
X300196Y281877D01*
X300213Y281913D01*
X300235Y282030D01*
X300265Y282145D01*
X300269Y282205D01*
X300273Y282225D01*
X300271Y282246D01*
X300275Y282306D01*
X300275Y288353D01*
X302047Y290125D01*
X307553Y290125D01*
X309325Y288353D01*
X309325Y269240D01*
X309340Y269122D01*
X309347Y269003D01*
X309360Y268965D01*
X309365Y268924D01*
X309408Y268814D01*
X309445Y268701D01*
X309467Y268666D01*
X309482Y268629D01*
X309551Y268533D01*
X309615Y268432D01*
X309645Y268404D01*
X309668Y268371D01*
X309760Y268295D01*
X309847Y268214D01*
X309882Y268194D01*
X309913Y268169D01*
X310021Y268118D01*
X310125Y268060D01*
X310165Y268050D01*
X310201Y268033D01*
X310318Y268011D01*
X310433Y267981D01*
X310493Y267977D01*
X310513Y267973D01*
X310534Y267975D01*
X310594Y267971D01*
X312886Y267971D01*
X312915Y267974D01*
G37*
G36*
X330826Y240046D02*
X330826Y240046D01*
X330945Y240053D01*
X330983Y240066D01*
X331024Y240071D01*
X331134Y240115D01*
X331247Y240151D01*
X331282Y240173D01*
X331319Y240188D01*
X331415Y240258D01*
X331516Y240321D01*
X331544Y240351D01*
X331577Y240375D01*
X331653Y240466D01*
X331734Y240553D01*
X331754Y240588D01*
X331779Y240620D01*
X331830Y240727D01*
X331888Y240832D01*
X331898Y240871D01*
X331915Y240907D01*
X331937Y241024D01*
X331967Y241139D01*
X331971Y241200D01*
X331975Y241220D01*
X331973Y241240D01*
X331977Y241300D01*
X331977Y255016D01*
X331962Y255134D01*
X331955Y255253D01*
X331942Y255291D01*
X331937Y255332D01*
X331894Y255442D01*
X331857Y255555D01*
X331835Y255590D01*
X331820Y255627D01*
X331751Y255723D01*
X331687Y255824D01*
X331657Y255852D01*
X331634Y255885D01*
X331542Y255961D01*
X331455Y256042D01*
X331420Y256062D01*
X331389Y256087D01*
X331281Y256138D01*
X331177Y256196D01*
X331137Y256206D01*
X331101Y256223D01*
X330984Y256245D01*
X330869Y256275D01*
X330809Y256279D01*
X330789Y256283D01*
X330768Y256281D01*
X330708Y256285D01*
X320761Y256285D01*
X317400Y257677D01*
X314827Y260250D01*
X313848Y262614D01*
X313834Y262639D01*
X313825Y262667D01*
X313755Y262777D01*
X313691Y262890D01*
X313670Y262911D01*
X313654Y262936D01*
X313560Y263025D01*
X313470Y263118D01*
X313444Y263134D01*
X313423Y263154D01*
X313309Y263217D01*
X313198Y263285D01*
X313170Y263293D01*
X313144Y263308D01*
X313019Y263340D01*
X312894Y263378D01*
X312865Y263380D01*
X312836Y263387D01*
X312676Y263397D01*
X309321Y263397D01*
X309183Y263380D01*
X309045Y263367D01*
X309025Y263360D01*
X309005Y263357D01*
X308876Y263306D01*
X308745Y263259D01*
X308728Y263248D01*
X308710Y263240D01*
X308597Y263159D01*
X308482Y263081D01*
X308469Y263065D01*
X308452Y263054D01*
X308364Y262946D01*
X308272Y262842D01*
X308262Y262824D01*
X308250Y262809D01*
X308190Y262683D01*
X308127Y262559D01*
X308123Y262539D01*
X308114Y262521D01*
X308088Y262385D01*
X308057Y262249D01*
X308058Y262228D01*
X308054Y262209D01*
X308063Y262070D01*
X308067Y261931D01*
X308073Y261911D01*
X308074Y261891D01*
X308117Y261759D01*
X308155Y261625D01*
X308166Y261608D01*
X308172Y261589D01*
X308247Y261471D01*
X308317Y261351D01*
X308336Y261330D01*
X308342Y261320D01*
X308357Y261306D01*
X308423Y261231D01*
X312995Y256658D01*
X314707Y254947D01*
X314707Y249360D01*
X314712Y249321D01*
X314709Y249281D01*
X314732Y249163D01*
X314747Y249045D01*
X314761Y249008D01*
X314769Y248969D01*
X314820Y248860D01*
X314864Y248749D01*
X314887Y248717D01*
X314904Y248681D01*
X314980Y248588D01*
X315050Y248492D01*
X315081Y248466D01*
X315106Y248435D01*
X315203Y248365D01*
X315295Y248289D01*
X315331Y248272D01*
X315364Y248248D01*
X315475Y248204D01*
X315583Y248153D01*
X315622Y248146D01*
X315659Y248131D01*
X315778Y248116D01*
X315895Y248093D01*
X315935Y248096D01*
X315975Y248091D01*
X316093Y248106D01*
X316213Y248113D01*
X316251Y248125D01*
X316290Y248130D01*
X316402Y248174D01*
X316515Y248211D01*
X316549Y248233D01*
X316586Y248247D01*
X316722Y248333D01*
X317255Y248720D01*
X318680Y249446D01*
X320201Y249941D01*
X321780Y250191D01*
X327661Y250191D01*
X327661Y241300D01*
X327676Y241182D01*
X327683Y241063D01*
X327696Y241025D01*
X327701Y240985D01*
X327744Y240874D01*
X327781Y240761D01*
X327803Y240727D01*
X327818Y240689D01*
X327888Y240593D01*
X327951Y240492D01*
X327981Y240464D01*
X328004Y240432D01*
X328096Y240356D01*
X328183Y240274D01*
X328218Y240255D01*
X328249Y240229D01*
X328357Y240178D01*
X328461Y240121D01*
X328501Y240110D01*
X328537Y240093D01*
X328654Y240071D01*
X328769Y240041D01*
X328830Y240037D01*
X328850Y240033D01*
X328870Y240035D01*
X328930Y240031D01*
X330708Y240031D01*
X330826Y240046D01*
G37*
G36*
X273724Y267986D02*
X273724Y267986D01*
X273843Y267993D01*
X273881Y268006D01*
X273922Y268011D01*
X274032Y268054D01*
X274145Y268091D01*
X274180Y268113D01*
X274217Y268128D01*
X274313Y268197D01*
X274414Y268261D01*
X274442Y268291D01*
X274475Y268314D01*
X274551Y268406D01*
X274632Y268493D01*
X274652Y268528D01*
X274677Y268559D01*
X274728Y268667D01*
X274786Y268771D01*
X274796Y268811D01*
X274813Y268847D01*
X274835Y268964D01*
X274865Y269079D01*
X274869Y269139D01*
X274873Y269159D01*
X274871Y269180D01*
X274875Y269240D01*
X274875Y286435D01*
X274863Y286533D01*
X274860Y286632D01*
X274843Y286690D01*
X274835Y286751D01*
X274799Y286842D01*
X274772Y286938D01*
X274741Y286990D01*
X274718Y287046D01*
X274660Y287126D01*
X274610Y287212D01*
X274544Y287287D01*
X274532Y287304D01*
X274522Y287311D01*
X274504Y287332D01*
X274408Y287428D01*
X274320Y287497D01*
X274284Y287531D01*
X274265Y287541D01*
X274191Y287602D01*
X274172Y287611D01*
X274156Y287623D01*
X274029Y287679D01*
X273903Y287738D01*
X273883Y287742D01*
X273865Y287750D01*
X273727Y287772D01*
X273590Y287798D01*
X273570Y287797D01*
X273550Y287800D01*
X273412Y287787D01*
X273273Y287778D01*
X273254Y287772D01*
X273234Y287770D01*
X273103Y287723D01*
X272971Y287680D01*
X272954Y287669D01*
X272935Y287662D01*
X272819Y287584D01*
X272702Y287510D01*
X272688Y287495D01*
X272671Y287484D01*
X272579Y287380D01*
X272484Y287278D01*
X272474Y287261D01*
X272461Y287245D01*
X272398Y287121D01*
X272330Y287000D01*
X272325Y286980D01*
X272316Y286962D01*
X272286Y286826D01*
X272251Y286692D01*
X272249Y286664D01*
X272247Y286652D01*
X272247Y286632D01*
X272245Y286592D01*
X272243Y286585D01*
X272244Y286578D01*
X272241Y286531D01*
X272241Y280249D01*
X268199Y280249D01*
X268199Y290886D01*
X268184Y291004D01*
X268177Y291123D01*
X268164Y291161D01*
X268159Y291202D01*
X268116Y291312D01*
X268079Y291425D01*
X268057Y291460D01*
X268042Y291497D01*
X267973Y291593D01*
X267909Y291694D01*
X267879Y291722D01*
X267856Y291755D01*
X267764Y291831D01*
X267677Y291912D01*
X267642Y291932D01*
X267611Y291957D01*
X267503Y292008D01*
X267399Y292066D01*
X267359Y292076D01*
X267323Y292093D01*
X267206Y292115D01*
X267091Y292145D01*
X267031Y292149D01*
X267011Y292153D01*
X266990Y292151D01*
X266930Y292155D01*
X266470Y292155D01*
X266352Y292140D01*
X266233Y292133D01*
X266195Y292120D01*
X266154Y292115D01*
X266044Y292072D01*
X265931Y292035D01*
X265896Y292013D01*
X265859Y291998D01*
X265762Y291929D01*
X265662Y291865D01*
X265634Y291835D01*
X265601Y291812D01*
X265525Y291720D01*
X265444Y291633D01*
X265424Y291598D01*
X265399Y291567D01*
X265348Y291459D01*
X265290Y291355D01*
X265280Y291315D01*
X265263Y291279D01*
X265241Y291162D01*
X265211Y291047D01*
X265207Y290987D01*
X265203Y290967D01*
X265205Y290946D01*
X265201Y290886D01*
X265201Y280249D01*
X261159Y280249D01*
X261159Y287632D01*
X261435Y288660D01*
X261767Y289235D01*
X261818Y289358D01*
X261875Y289477D01*
X261880Y289504D01*
X261890Y289529D01*
X261910Y289660D01*
X261935Y289790D01*
X261933Y289816D01*
X261937Y289843D01*
X261923Y289975D01*
X261915Y290107D01*
X261906Y290133D01*
X261904Y290159D01*
X261858Y290283D01*
X261817Y290409D01*
X261802Y290432D01*
X261793Y290458D01*
X261717Y290566D01*
X261647Y290678D01*
X261627Y290697D01*
X261612Y290719D01*
X261511Y290805D01*
X261415Y290896D01*
X261391Y290909D01*
X261371Y290927D01*
X261252Y290986D01*
X261136Y291050D01*
X261110Y291056D01*
X261086Y291068D01*
X260956Y291096D01*
X260829Y291129D01*
X260790Y291131D01*
X260775Y291135D01*
X260753Y291134D01*
X260668Y291139D01*
X258803Y291139D01*
X258665Y291122D01*
X258526Y291109D01*
X258507Y291102D01*
X258487Y291099D01*
X258358Y291048D01*
X258227Y291001D01*
X258210Y290990D01*
X258191Y290982D01*
X258079Y290901D01*
X257964Y290823D01*
X257950Y290807D01*
X257934Y290796D01*
X257845Y290688D01*
X257753Y290584D01*
X257744Y290566D01*
X257731Y290551D01*
X257672Y290425D01*
X257609Y290301D01*
X257604Y290281D01*
X257596Y290263D01*
X257570Y290126D01*
X257539Y289991D01*
X257540Y289970D01*
X257536Y289951D01*
X257545Y289812D01*
X257549Y289673D01*
X257554Y289653D01*
X257556Y289633D01*
X257598Y289501D01*
X257637Y289367D01*
X257647Y289350D01*
X257654Y289331D01*
X257728Y289213D01*
X257799Y289093D01*
X257817Y289072D01*
X257824Y289062D01*
X257839Y289048D01*
X257905Y288973D01*
X258525Y288353D01*
X258525Y271015D01*
X258537Y270917D01*
X258540Y270818D01*
X258557Y270760D01*
X258565Y270699D01*
X258601Y270608D01*
X258628Y270512D01*
X258659Y270460D01*
X258682Y270404D01*
X258740Y270324D01*
X258790Y270238D01*
X258856Y270163D01*
X258868Y270146D01*
X258878Y270139D01*
X258896Y270118D01*
X258992Y270022D01*
X259102Y269936D01*
X259209Y269848D01*
X259228Y269839D01*
X259244Y269827D01*
X259371Y269771D01*
X259497Y269712D01*
X259517Y269708D01*
X259535Y269700D01*
X259673Y269678D01*
X259810Y269652D01*
X259830Y269653D01*
X259850Y269650D01*
X259988Y269663D01*
X260127Y269672D01*
X260146Y269678D01*
X260166Y269680D01*
X260297Y269727D01*
X260429Y269770D01*
X260446Y269781D01*
X260465Y269788D01*
X260581Y269866D01*
X260698Y269940D01*
X260712Y269955D01*
X260729Y269966D01*
X260821Y270070D01*
X260916Y270172D01*
X260926Y270189D01*
X260939Y270205D01*
X261002Y270329D01*
X261070Y270450D01*
X261075Y270470D01*
X261084Y270488D01*
X261114Y270624D01*
X261149Y270758D01*
X261151Y270786D01*
X261153Y270798D01*
X261153Y270818D01*
X261159Y270919D01*
X261159Y277251D01*
X266470Y277251D01*
X266588Y277266D01*
X266707Y277273D01*
X266714Y277275D01*
X266770Y277261D01*
X266830Y277257D01*
X266850Y277253D01*
X266870Y277255D01*
X266930Y277251D01*
X272241Y277251D01*
X272241Y269868D01*
X272160Y269569D01*
X272143Y269444D01*
X272120Y269320D01*
X272122Y269287D01*
X272117Y269253D01*
X272132Y269128D01*
X272140Y269003D01*
X272150Y268971D01*
X272154Y268938D01*
X272199Y268820D01*
X272238Y268701D01*
X272256Y268672D01*
X272268Y268641D01*
X272340Y268538D01*
X272408Y268432D01*
X272432Y268409D01*
X272452Y268381D01*
X272548Y268300D01*
X272639Y268214D01*
X272669Y268198D01*
X272695Y268176D01*
X272808Y268121D01*
X272918Y268060D01*
X272950Y268052D01*
X272981Y268037D01*
X273104Y268012D01*
X273226Y267981D01*
X273274Y267978D01*
X273292Y267974D01*
X273314Y267975D01*
X273386Y267971D01*
X273606Y267971D01*
X273724Y267986D01*
G37*
G36*
X318312Y222822D02*
X318312Y222822D01*
X318442Y222835D01*
X318470Y222845D01*
X318499Y222849D01*
X318651Y222901D01*
X320761Y223775D01*
X330708Y223775D01*
X330826Y223790D01*
X330945Y223797D01*
X330983Y223810D01*
X331024Y223815D01*
X331134Y223858D01*
X331247Y223895D01*
X331282Y223917D01*
X331319Y223932D01*
X331415Y224001D01*
X331516Y224065D01*
X331544Y224095D01*
X331577Y224118D01*
X331653Y224210D01*
X331734Y224297D01*
X331754Y224332D01*
X331779Y224363D01*
X331830Y224471D01*
X331888Y224575D01*
X331898Y224615D01*
X331915Y224651D01*
X331937Y224768D01*
X331967Y224883D01*
X331971Y224943D01*
X331975Y224963D01*
X331973Y224984D01*
X331977Y225044D01*
X331977Y238760D01*
X331962Y238878D01*
X331955Y238997D01*
X331942Y239035D01*
X331937Y239075D01*
X331894Y239186D01*
X331857Y239299D01*
X331835Y239333D01*
X331820Y239371D01*
X331751Y239467D01*
X331687Y239568D01*
X331657Y239596D01*
X331634Y239628D01*
X331542Y239704D01*
X331455Y239786D01*
X331420Y239805D01*
X331389Y239831D01*
X331281Y239882D01*
X331177Y239939D01*
X331137Y239950D01*
X331101Y239967D01*
X330984Y239989D01*
X330869Y240019D01*
X330809Y240023D01*
X330789Y240027D01*
X330768Y240025D01*
X330708Y240029D01*
X328930Y240029D01*
X328812Y240014D01*
X328693Y240007D01*
X328655Y239994D01*
X328614Y239989D01*
X328504Y239945D01*
X328391Y239909D01*
X328356Y239887D01*
X328319Y239872D01*
X328223Y239802D01*
X328122Y239739D01*
X328094Y239709D01*
X328061Y239685D01*
X327986Y239594D01*
X327904Y239507D01*
X327884Y239472D01*
X327859Y239440D01*
X327808Y239333D01*
X327750Y239228D01*
X327740Y239189D01*
X327723Y239153D01*
X327701Y239036D01*
X327671Y238921D01*
X327667Y238860D01*
X327663Y238840D01*
X327665Y238820D01*
X327661Y238760D01*
X327661Y229869D01*
X321780Y229869D01*
X320201Y230119D01*
X318680Y230614D01*
X317255Y231340D01*
X316782Y231683D01*
X316782Y231684D01*
X316781Y231684D01*
X316722Y231727D01*
X316687Y231746D01*
X316657Y231771D01*
X316548Y231822D01*
X316443Y231880D01*
X316405Y231890D01*
X316369Y231907D01*
X316252Y231929D01*
X316135Y231959D01*
X316095Y231959D01*
X316056Y231967D01*
X315937Y231959D01*
X315817Y231959D01*
X315779Y231949D01*
X315739Y231947D01*
X315625Y231910D01*
X315509Y231880D01*
X315474Y231861D01*
X315437Y231849D01*
X315335Y231785D01*
X315231Y231727D01*
X315202Y231700D01*
X315168Y231679D01*
X315086Y231591D01*
X314999Y231510D01*
X314977Y231476D01*
X314950Y231447D01*
X314892Y231342D01*
X314828Y231241D01*
X314816Y231203D01*
X314796Y231169D01*
X314767Y231053D01*
X314729Y230939D01*
X314727Y230899D01*
X314717Y230861D01*
X314707Y230700D01*
X314707Y226263D01*
X314719Y226165D01*
X314722Y226066D01*
X314739Y226008D01*
X314747Y225947D01*
X314783Y225855D01*
X314811Y225760D01*
X314841Y225708D01*
X314864Y225652D01*
X314922Y225572D01*
X314972Y225486D01*
X315038Y225411D01*
X315050Y225394D01*
X315060Y225387D01*
X315078Y225365D01*
X317268Y223176D01*
X317291Y223158D01*
X317310Y223135D01*
X317416Y223061D01*
X317519Y222981D01*
X317546Y222969D01*
X317571Y222952D01*
X317692Y222906D01*
X317811Y222855D01*
X317840Y222850D01*
X317868Y222840D01*
X317997Y222825D01*
X318125Y222805D01*
X318155Y222808D01*
X318184Y222804D01*
X318312Y222822D01*
G37*
D10*
X230100Y237600D02*
X230100Y220900D01*
X227100Y220900D01*
X227100Y237600D01*
X230100Y237600D01*
X230100Y223750D02*
X227100Y223750D01*
X227100Y226600D02*
X230100Y226600D01*
X230100Y229450D02*
X227100Y229450D01*
X227100Y232300D02*
X230100Y232300D01*
X230100Y235150D02*
X227100Y235150D01*
X242800Y237600D02*
X242800Y220900D01*
X239800Y220900D01*
X239800Y237600D01*
X242800Y237600D01*
X242800Y223750D02*
X239800Y223750D01*
X239800Y226600D02*
X242800Y226600D01*
X242800Y229450D02*
X239800Y229450D01*
X239800Y232300D02*
X242800Y232300D01*
X242800Y235150D02*
X239800Y235150D01*
X255500Y237600D02*
X255500Y220900D01*
X252500Y220900D01*
X252500Y237600D01*
X255500Y237600D01*
X255500Y223750D02*
X252500Y223750D01*
X252500Y226600D02*
X255500Y226600D01*
X255500Y229450D02*
X252500Y229450D01*
X252500Y232300D02*
X255500Y232300D01*
X255500Y235150D02*
X252500Y235150D01*
X268200Y237600D02*
X268200Y220900D01*
X265200Y220900D01*
X265200Y237600D01*
X268200Y237600D01*
X268200Y223750D02*
X265200Y223750D01*
X265200Y226600D02*
X268200Y226600D01*
X268200Y229450D02*
X265200Y229450D01*
X265200Y232300D02*
X268200Y232300D01*
X268200Y235150D02*
X265200Y235150D01*
X280900Y237600D02*
X280900Y220900D01*
X277900Y220900D01*
X277900Y237600D01*
X280900Y237600D01*
X280900Y223750D02*
X277900Y223750D01*
X277900Y226600D02*
X280900Y226600D01*
X280900Y229450D02*
X277900Y229450D01*
X277900Y232300D02*
X280900Y232300D01*
X280900Y235150D02*
X277900Y235150D01*
X293600Y237600D02*
X293600Y220900D01*
X290600Y220900D01*
X290600Y237600D01*
X293600Y237600D01*
X293600Y223750D02*
X290600Y223750D01*
X290600Y226600D02*
X293600Y226600D01*
X293600Y229450D02*
X290600Y229450D01*
X290600Y232300D02*
X293600Y232300D01*
X293600Y235150D02*
X290600Y235150D01*
X306300Y237600D02*
X306300Y220900D01*
X303300Y220900D01*
X303300Y237600D01*
X306300Y237600D01*
X306300Y223750D02*
X303300Y223750D01*
X303300Y226600D02*
X306300Y226600D01*
X306300Y229450D02*
X303300Y229450D01*
X303300Y232300D02*
X306300Y232300D01*
X306300Y235150D02*
X303300Y235150D01*
X306300Y270400D02*
X306300Y287100D01*
X306300Y270400D02*
X303300Y270400D01*
X303300Y287100D01*
X306300Y287100D01*
X306300Y273250D02*
X303300Y273250D01*
X303300Y276100D02*
X306300Y276100D01*
X306300Y278950D02*
X303300Y278950D01*
X303300Y281800D02*
X306300Y281800D01*
X306300Y284650D02*
X303300Y284650D01*
X293600Y287100D02*
X293600Y270400D01*
X290600Y270400D01*
X290600Y287100D01*
X293600Y287100D01*
X293600Y273250D02*
X290600Y273250D01*
X290600Y276100D02*
X293600Y276100D01*
X293600Y278950D02*
X290600Y278950D01*
X290600Y281800D02*
X293600Y281800D01*
X293600Y284650D02*
X290600Y284650D01*
X280900Y287100D02*
X280900Y270400D01*
X277900Y270400D01*
X277900Y287100D01*
X280900Y287100D01*
X280900Y273250D02*
X277900Y273250D01*
X277900Y276100D02*
X280900Y276100D01*
X280900Y278950D02*
X277900Y278950D01*
X277900Y281800D02*
X280900Y281800D01*
X280900Y284650D02*
X277900Y284650D01*
X268200Y287100D02*
X268200Y270400D01*
X265200Y270400D01*
X265200Y287100D01*
X268200Y287100D01*
X268200Y273250D02*
X265200Y273250D01*
X265200Y276100D02*
X268200Y276100D01*
X268200Y278950D02*
X265200Y278950D01*
X265200Y281800D02*
X268200Y281800D01*
X268200Y284650D02*
X265200Y284650D01*
X255500Y287100D02*
X255500Y270400D01*
X252500Y270400D01*
X252500Y287100D01*
X255500Y287100D01*
X255500Y273250D02*
X252500Y273250D01*
X252500Y276100D02*
X255500Y276100D01*
X255500Y278950D02*
X252500Y278950D01*
X252500Y281800D02*
X255500Y281800D01*
X255500Y284650D02*
X252500Y284650D01*
X242800Y287100D02*
X242800Y270400D01*
X239800Y270400D01*
X239800Y287100D01*
X242800Y287100D01*
X242800Y273250D02*
X239800Y273250D01*
X239800Y276100D02*
X242800Y276100D01*
X242800Y278950D02*
X239800Y278950D01*
X239800Y281800D02*
X242800Y281800D01*
X242800Y284650D02*
X239800Y284650D01*
X230100Y287100D02*
X230100Y270400D01*
X227100Y270400D01*
X227100Y287100D01*
X230100Y287100D01*
X230100Y273250D02*
X227100Y273250D01*
X227100Y276100D02*
X230100Y276100D01*
X230100Y278950D02*
X227100Y278950D01*
X227100Y281800D02*
X230100Y281800D01*
X230100Y284650D02*
X227100Y284650D01*
D11*
X214296Y233426D03*
X204296Y233426D03*
X252650Y210820D03*
X242650Y210820D03*
X228266Y210566D03*
X218266Y210566D03*
X204042Y244094D03*
X214042Y244094D03*
X282020Y297180D03*
X292020Y297180D03*
X257890Y297180D03*
X267890Y297180D03*
X214042Y254508D03*
X204042Y254508D03*
D12*
X202438Y293036D03*
X202438Y283036D03*
D13*
X199240Y265684D03*
X212240Y265684D03*
D14*
X213868Y293520D03*
X213868Y280520D03*
D13*
X279550Y210820D03*
X266550Y210820D03*
D15*
X322580Y290830D02*
X337820Y290830D01*
X337820Y265430D02*
X322580Y265430D01*
X322580Y240030D02*
X337820Y240030D01*
X337820Y214630D02*
X322580Y214630D01*
D16*
X197104Y207518D03*
D17*
X137414Y255524D03*
D18*
X259563Y204034D02*
X273537Y204034D01*
X252777Y210820D02*
X252650Y210820D01*
X279550Y210820D02*
X279550Y210047D01*
X273537Y204034D01*
X259563Y204034D02*
X252777Y210820D01*
X266780Y288290D02*
X257890Y297180D01*
X266780Y288290D02*
X266780Y278830D01*
X266700Y278750D01*
X292020Y297180D02*
X292020Y298648D01*
X287702Y302966D01*
X262673Y302966D02*
X257890Y298183D01*
X257890Y297180D01*
X262673Y302966D02*
X287702Y302966D01*
D19*
X288290Y244122D03*
D18*
X285900Y241732D02*
X285900Y217170D01*
X279550Y210820D01*
X285900Y241732D02*
X288290Y244122D01*
D19*
X313106Y278130D03*
D18*
X310086Y281150D01*
X310086Y288668D01*
X301882Y296873D01*
X292020Y296873D01*
X204042Y258064D02*
X204042Y254508D01*
X204042Y258064D02*
X199240Y262866D01*
X199240Y265684D01*
D19*
X254000Y245110D03*
D18*
X254000Y229250D01*
X254000Y271780D02*
X254000Y278750D01*
X254000Y271780D02*
X260096Y265684D01*
X281538Y265684D02*
X292100Y276246D01*
X292100Y278750D01*
X281538Y265684D02*
X260096Y265684D01*
X292100Y278750D02*
X304800Y278750D01*
X329946Y265684D02*
X330200Y265430D01*
X329946Y265684D02*
X281538Y265684D01*
D19*
X278130Y245110D03*
D18*
X279400Y243840D01*
X279400Y229250D01*
X292100Y229250D02*
X292100Y207010D01*
X286076Y200986D02*
X212678Y200986D01*
X212678Y225044D02*
X204296Y233426D01*
X212678Y225044D02*
X212678Y200986D01*
X286076Y200986D02*
X292100Y207010D01*
X204296Y243840D02*
X204042Y244094D01*
X204296Y243840D02*
X204296Y233426D01*
X267932Y297138D02*
X282020Y297180D01*
X267932Y297138D02*
X267890Y297180D01*
X279400Y285670D01*
X279400Y278750D01*
X213868Y280520D02*
X211352Y283036D01*
X202438Y283036D01*
X226830Y280520D02*
X228600Y278750D01*
X226830Y280520D02*
X213868Y280520D01*
X228600Y278750D02*
X228600Y267970D01*
X233934Y262636D02*
X303784Y262636D01*
X312420Y254000D01*
X312420Y224790D01*
X322580Y214630D01*
X330200Y214630D01*
X233934Y262636D02*
X228600Y267970D01*
X214042Y259588D02*
X214042Y244094D01*
X214042Y254508D01*
X214042Y259588D02*
X295402Y259588D01*
X304800Y250190D02*
X304800Y229250D01*
X304800Y250190D02*
X295402Y259588D01*
X228600Y229250D02*
X218980Y229250D01*
X218266Y228536D02*
X218266Y210566D01*
X218266Y228536D02*
X218639Y228909D01*
X218980Y229250D01*
X218639Y229083D02*
X214296Y233426D01*
X218639Y229083D02*
X218639Y228909D01*
X266550Y229100D02*
X266550Y210820D01*
X266550Y229100D02*
X266700Y229250D01*
X266982Y229532D01*
D19*
X283692Y252956D03*
D18*
X266700Y248412D02*
X266700Y229250D01*
X271244Y252956D02*
X283692Y252956D01*
X271244Y252956D02*
X266700Y248412D01*
X241300Y212170D02*
X242650Y210820D01*
X241300Y212170D02*
X241300Y229250D01*
X228266Y210820D02*
X228266Y210566D01*
X228266Y210820D02*
X242650Y210820D01*
X213384Y293036D02*
X213868Y293520D01*
X213384Y293036D02*
X202438Y293036D01*
X216502Y290886D02*
X231668Y290886D01*
X216502Y290886D02*
X213868Y293520D01*
X241300Y281254D02*
X241300Y278750D01*
X241300Y281254D02*
X231668Y290886D01*
X212240Y265684D02*
X202334Y275590D01*
X197000Y275590D01*
X195580Y277010D01*
X197358Y293036D02*
X202438Y293036D01*
X197358Y293036D02*
X195580Y291258D01*
X195580Y277010D01*
M02*
