G04 EAGLE Gerber RS-274X export*
G75*
%MOMM*%
%FSLAX34Y34*%
%LPD*%
%IN*%
%IPPOS*%
%AMOC8*
5,1,8,0,0,1.08239X$1,22.5*%
G01*
%ADD10C,0.254000*%


D10*
X107950Y233426D02*
X108090Y230216D01*
X108510Y227031D01*
X109205Y223894D01*
X110171Y220829D01*
X111401Y217861D01*
X112884Y215011D01*
X114611Y212301D01*
X116567Y209752D01*
X118737Y207383D01*
X121106Y205213D01*
X123655Y203257D01*
X126365Y201530D01*
X129215Y200047D01*
X132183Y198817D01*
X135248Y197851D01*
X138385Y197156D01*
X141570Y196736D01*
X144780Y196596D01*
X344170Y196850D01*
X346052Y196932D01*
X347919Y197178D01*
X349758Y197586D01*
X351554Y198152D01*
X353294Y198873D01*
X354965Y199743D01*
X356554Y200755D01*
X358048Y201901D01*
X359436Y203174D01*
X360709Y204562D01*
X361856Y206057D01*
X362868Y207645D01*
X363737Y209316D01*
X364458Y211056D01*
X365024Y212852D01*
X365432Y214691D01*
X365678Y216558D01*
X365760Y218440D01*
X365760Y284480D01*
X365668Y286583D01*
X365393Y288670D01*
X364938Y290725D01*
X364305Y292733D01*
X363499Y294678D01*
X362527Y296545D01*
X361396Y298320D01*
X360115Y299990D01*
X358693Y301543D01*
X357140Y302965D01*
X355470Y304246D01*
X353695Y305377D01*
X351828Y306349D01*
X349883Y307155D01*
X347875Y307788D01*
X345820Y308243D01*
X343733Y308518D01*
X341630Y308610D01*
X140970Y308356D01*
X138092Y308230D01*
X135236Y307854D01*
X132424Y307231D01*
X129677Y306365D01*
X127015Y305262D01*
X124460Y303932D01*
X122031Y302384D01*
X119745Y300631D01*
X117621Y298685D01*
X115675Y296561D01*
X113922Y294276D01*
X112374Y291846D01*
X111044Y289291D01*
X109941Y286630D01*
X109075Y283882D01*
X108452Y281070D01*
X108076Y278214D01*
X107950Y275336D01*
X107950Y233426D01*
M02*
