G04 EAGLE Gerber RS-274X export*
G75*
%MOMM*%
%FSLAX34Y34*%
%LPD*%
%IN*%
%IPPOS*%
%AMOC8*
5,1,8,0,0,1.08239X$1,22.5*%
G01*
%ADD10C,0.254000*%


D10*
X110490Y233426D02*
X110630Y230216D01*
X111050Y227031D01*
X111745Y223894D01*
X112711Y220829D01*
X113941Y217861D01*
X115424Y215011D01*
X117151Y212301D01*
X119107Y209752D01*
X121277Y207383D01*
X123646Y205213D01*
X126195Y203257D01*
X128905Y201530D01*
X131755Y200047D01*
X134723Y198817D01*
X137788Y197851D01*
X140925Y197156D01*
X144110Y196736D01*
X147320Y196596D01*
X344170Y196850D01*
X346052Y196932D01*
X347919Y197178D01*
X349758Y197586D01*
X351554Y198152D01*
X353294Y198873D01*
X354965Y199743D01*
X356554Y200755D01*
X358048Y201901D01*
X359436Y203174D01*
X360709Y204562D01*
X361856Y206057D01*
X362868Y207645D01*
X363737Y209316D01*
X364458Y211056D01*
X365024Y212852D01*
X365432Y214691D01*
X365678Y216558D01*
X365760Y218440D01*
X365760Y284480D01*
X365668Y286583D01*
X365393Y288670D01*
X364938Y290725D01*
X364305Y292733D01*
X363499Y294678D01*
X362527Y296545D01*
X361396Y298320D01*
X360115Y299990D01*
X358693Y301543D01*
X357140Y302965D01*
X355470Y304246D01*
X353695Y305377D01*
X351828Y306349D01*
X349883Y307155D01*
X347875Y307788D01*
X345820Y308243D01*
X343733Y308518D01*
X341630Y308610D01*
X143510Y308356D01*
X140632Y308230D01*
X137776Y307854D01*
X134964Y307231D01*
X132217Y306365D01*
X129555Y305262D01*
X127000Y303932D01*
X124571Y302384D01*
X122285Y300631D01*
X120161Y298685D01*
X118215Y296561D01*
X116462Y294276D01*
X114914Y291846D01*
X113584Y289291D01*
X112481Y286630D01*
X111615Y283882D01*
X110992Y281070D01*
X110616Y278214D01*
X110490Y275336D01*
X110490Y233426D01*
M02*
