G04 EAGLE Gerber RS-274X export*
G75*
%MOMM*%
%FSLAX34Y34*%
%LPD*%
%INSilkscreen Bottom*%
%IPPOS*%
%AMOC8*
5,1,8,0,0,1.08239X$1,22.5*%
G01*
%ADD10C,0.152400*%
%ADD11C,0.076200*%
%ADD12C,0.101600*%
%ADD13C,0.127000*%


D10*
X193802Y253464D02*
X182965Y253464D01*
X188383Y248045D02*
X188383Y258882D01*
X175916Y211536D02*
X175916Y200699D01*
X175916Y218415D02*
X175916Y229252D01*
D11*
X300568Y294971D02*
X309966Y291838D01*
X309966Y298104D02*
X300568Y294971D01*
X300220Y250131D02*
X309618Y246999D01*
X309618Y253264D02*
X300220Y250131D01*
X300220Y257027D02*
X309618Y257027D01*
X309618Y259637D01*
X309619Y259637D02*
X309617Y259738D01*
X309611Y259839D01*
X309601Y259940D01*
X309588Y260040D01*
X309570Y260140D01*
X309549Y260239D01*
X309523Y260337D01*
X309494Y260434D01*
X309462Y260530D01*
X309425Y260624D01*
X309385Y260717D01*
X309341Y260809D01*
X309294Y260898D01*
X309243Y260986D01*
X309189Y261072D01*
X309132Y261155D01*
X309072Y261237D01*
X309008Y261315D01*
X308942Y261392D01*
X308872Y261465D01*
X308800Y261536D01*
X308725Y261604D01*
X308647Y261669D01*
X308567Y261731D01*
X308485Y261790D01*
X308400Y261846D01*
X308314Y261898D01*
X308225Y261947D01*
X308134Y261993D01*
X308042Y262034D01*
X307948Y262073D01*
X307853Y262107D01*
X307757Y262138D01*
X307659Y262165D01*
X307561Y262189D01*
X307461Y262208D01*
X307361Y262224D01*
X307261Y262236D01*
X307160Y262244D01*
X307059Y262248D01*
X306957Y262248D01*
X306856Y262244D01*
X306755Y262236D01*
X306655Y262224D01*
X306555Y262208D01*
X306455Y262189D01*
X306357Y262165D01*
X306259Y262138D01*
X306163Y262107D01*
X306068Y262073D01*
X305974Y262034D01*
X305882Y261993D01*
X305791Y261947D01*
X305703Y261898D01*
X305616Y261846D01*
X305531Y261790D01*
X305449Y261731D01*
X305369Y261669D01*
X305291Y261604D01*
X305216Y261536D01*
X305144Y261465D01*
X305074Y261392D01*
X305008Y261315D01*
X304944Y261237D01*
X304884Y261155D01*
X304827Y261072D01*
X304773Y260986D01*
X304722Y260898D01*
X304675Y260809D01*
X304631Y260717D01*
X304591Y260624D01*
X304554Y260530D01*
X304522Y260434D01*
X304493Y260337D01*
X304467Y260239D01*
X304446Y260140D01*
X304428Y260040D01*
X304415Y259940D01*
X304405Y259839D01*
X304399Y259738D01*
X304397Y259637D01*
X304397Y257027D01*
X304397Y260159D02*
X300220Y262248D01*
X300220Y266436D02*
X300220Y270613D01*
X300220Y266436D02*
X309618Y266436D01*
X309618Y270613D01*
X305441Y269568D02*
X305441Y266436D01*
X309618Y274360D02*
X300220Y274360D01*
X309618Y274360D02*
X309618Y278537D01*
X305441Y278537D02*
X305441Y274360D01*
X305844Y235657D02*
X305844Y234090D01*
X305844Y235657D02*
X300623Y235657D01*
X300623Y232524D01*
X300624Y232524D02*
X300626Y232435D01*
X300632Y232347D01*
X300641Y232259D01*
X300654Y232171D01*
X300671Y232084D01*
X300691Y231998D01*
X300716Y231913D01*
X300743Y231828D01*
X300775Y231745D01*
X300809Y231664D01*
X300848Y231584D01*
X300889Y231506D01*
X300934Y231429D01*
X300982Y231355D01*
X301033Y231282D01*
X301087Y231212D01*
X301145Y231145D01*
X301205Y231079D01*
X301267Y231017D01*
X301333Y230957D01*
X301400Y230899D01*
X301470Y230845D01*
X301543Y230794D01*
X301617Y230746D01*
X301694Y230701D01*
X301772Y230660D01*
X301852Y230621D01*
X301933Y230587D01*
X302016Y230555D01*
X302101Y230528D01*
X302186Y230503D01*
X302272Y230483D01*
X302359Y230466D01*
X302447Y230453D01*
X302535Y230444D01*
X302623Y230438D01*
X302712Y230436D01*
X307933Y230436D01*
X308024Y230438D01*
X308115Y230444D01*
X308206Y230454D01*
X308296Y230468D01*
X308385Y230485D01*
X308473Y230507D01*
X308561Y230533D01*
X308647Y230562D01*
X308732Y230595D01*
X308815Y230632D01*
X308897Y230672D01*
X308977Y230716D01*
X309055Y230763D01*
X309131Y230814D01*
X309204Y230867D01*
X309275Y230924D01*
X309344Y230985D01*
X309409Y231048D01*
X309472Y231113D01*
X309532Y231182D01*
X309590Y231253D01*
X309643Y231326D01*
X309694Y231402D01*
X309741Y231480D01*
X309785Y231560D01*
X309825Y231642D01*
X309862Y231725D01*
X309895Y231810D01*
X309924Y231896D01*
X309950Y231984D01*
X309972Y232072D01*
X309989Y232161D01*
X310003Y232251D01*
X310013Y232342D01*
X310019Y232433D01*
X310021Y232524D01*
X310021Y235657D01*
X309614Y210947D02*
X300216Y207814D01*
X300216Y214080D02*
X309614Y210947D01*
X302566Y213296D02*
X302566Y208597D01*
X303871Y217568D02*
X303871Y223833D01*
X300738Y220701D02*
X307004Y220701D01*
D12*
X214957Y228854D02*
X214957Y237744D01*
X212487Y237744D01*
X212389Y237742D01*
X212291Y237736D01*
X212193Y237726D01*
X212096Y237713D01*
X211999Y237695D01*
X211903Y237674D01*
X211809Y237649D01*
X211715Y237620D01*
X211622Y237588D01*
X211531Y237551D01*
X211441Y237512D01*
X211353Y237468D01*
X211267Y237421D01*
X211182Y237371D01*
X211100Y237318D01*
X211020Y237261D01*
X210942Y237201D01*
X210867Y237138D01*
X210794Y237072D01*
X210724Y237003D01*
X210657Y236932D01*
X210592Y236858D01*
X210531Y236781D01*
X210472Y236702D01*
X210417Y236621D01*
X210365Y236538D01*
X210317Y236452D01*
X210272Y236365D01*
X210230Y236276D01*
X210192Y236186D01*
X210158Y236094D01*
X210127Y236001D01*
X210100Y235906D01*
X210077Y235811D01*
X210057Y235714D01*
X210042Y235618D01*
X210030Y235520D01*
X210022Y235422D01*
X210018Y235324D01*
X210018Y235226D01*
X210022Y235128D01*
X210030Y235030D01*
X210042Y234932D01*
X210057Y234836D01*
X210077Y234739D01*
X210100Y234644D01*
X210127Y234549D01*
X210158Y234456D01*
X210192Y234364D01*
X210230Y234274D01*
X210272Y234185D01*
X210317Y234098D01*
X210365Y234012D01*
X210417Y233929D01*
X210472Y233848D01*
X210531Y233769D01*
X210592Y233692D01*
X210657Y233618D01*
X210724Y233547D01*
X210794Y233478D01*
X210867Y233412D01*
X210942Y233349D01*
X211020Y233289D01*
X211100Y233232D01*
X211182Y233179D01*
X211267Y233129D01*
X211353Y233082D01*
X211441Y233038D01*
X211531Y232999D01*
X211622Y232962D01*
X211715Y232930D01*
X211809Y232901D01*
X211903Y232876D01*
X211999Y232855D01*
X212096Y232837D01*
X212193Y232824D01*
X212291Y232814D01*
X212389Y232808D01*
X212487Y232806D01*
X212487Y232805D02*
X214957Y232805D01*
X211993Y232805D02*
X210018Y228854D01*
X206107Y235768D02*
X203637Y237744D01*
X203637Y228854D01*
X201168Y228854D02*
X206107Y228854D01*
X253311Y215138D02*
X253311Y206248D01*
X253311Y215138D02*
X250841Y215138D01*
X250743Y215136D01*
X250645Y215130D01*
X250547Y215120D01*
X250450Y215107D01*
X250353Y215089D01*
X250257Y215068D01*
X250163Y215043D01*
X250069Y215014D01*
X249976Y214982D01*
X249885Y214945D01*
X249795Y214906D01*
X249707Y214862D01*
X249621Y214815D01*
X249536Y214765D01*
X249454Y214712D01*
X249374Y214655D01*
X249296Y214595D01*
X249221Y214532D01*
X249148Y214466D01*
X249078Y214397D01*
X249011Y214326D01*
X248946Y214252D01*
X248885Y214175D01*
X248826Y214096D01*
X248771Y214015D01*
X248719Y213932D01*
X248671Y213846D01*
X248626Y213759D01*
X248584Y213670D01*
X248546Y213580D01*
X248512Y213488D01*
X248481Y213395D01*
X248454Y213300D01*
X248431Y213205D01*
X248411Y213108D01*
X248396Y213012D01*
X248384Y212914D01*
X248376Y212816D01*
X248372Y212718D01*
X248372Y212620D01*
X248376Y212522D01*
X248384Y212424D01*
X248396Y212326D01*
X248411Y212230D01*
X248431Y212133D01*
X248454Y212038D01*
X248481Y211943D01*
X248512Y211850D01*
X248546Y211758D01*
X248584Y211668D01*
X248626Y211579D01*
X248671Y211492D01*
X248719Y211406D01*
X248771Y211323D01*
X248826Y211242D01*
X248885Y211163D01*
X248946Y211086D01*
X249011Y211012D01*
X249078Y210941D01*
X249148Y210872D01*
X249221Y210806D01*
X249296Y210743D01*
X249374Y210683D01*
X249454Y210626D01*
X249536Y210573D01*
X249621Y210523D01*
X249707Y210476D01*
X249795Y210432D01*
X249885Y210393D01*
X249976Y210356D01*
X250069Y210324D01*
X250163Y210295D01*
X250257Y210270D01*
X250353Y210249D01*
X250450Y210231D01*
X250547Y210218D01*
X250645Y210208D01*
X250743Y210202D01*
X250841Y210200D01*
X250841Y210199D02*
X253311Y210199D01*
X250347Y210199D02*
X248372Y206248D01*
X239522Y212916D02*
X239524Y213008D01*
X239530Y213100D01*
X239539Y213191D01*
X239552Y213282D01*
X239569Y213372D01*
X239590Y213462D01*
X239614Y213550D01*
X239642Y213638D01*
X239674Y213724D01*
X239709Y213809D01*
X239748Y213892D01*
X239790Y213974D01*
X239835Y214054D01*
X239884Y214132D01*
X239936Y214208D01*
X239991Y214281D01*
X240049Y214353D01*
X240109Y214422D01*
X240173Y214488D01*
X240239Y214552D01*
X240308Y214612D01*
X240380Y214670D01*
X240453Y214725D01*
X240529Y214777D01*
X240607Y214826D01*
X240687Y214871D01*
X240769Y214913D01*
X240852Y214952D01*
X240937Y214987D01*
X241023Y215019D01*
X241111Y215047D01*
X241199Y215071D01*
X241289Y215092D01*
X241379Y215109D01*
X241470Y215122D01*
X241561Y215131D01*
X241653Y215137D01*
X241745Y215139D01*
X241745Y215138D02*
X241851Y215136D01*
X241956Y215130D01*
X242061Y215120D01*
X242166Y215107D01*
X242270Y215089D01*
X242373Y215068D01*
X242476Y215043D01*
X242578Y215014D01*
X242678Y214981D01*
X242777Y214945D01*
X242875Y214905D01*
X242971Y214861D01*
X243066Y214814D01*
X243158Y214764D01*
X243249Y214710D01*
X243338Y214652D01*
X243424Y214592D01*
X243508Y214528D01*
X243590Y214462D01*
X243670Y214392D01*
X243746Y214319D01*
X243820Y214244D01*
X243891Y214166D01*
X243959Y214085D01*
X244025Y214002D01*
X244087Y213916D01*
X244145Y213829D01*
X244201Y213739D01*
X244253Y213647D01*
X244302Y213553D01*
X244347Y213458D01*
X244389Y213361D01*
X244427Y213262D01*
X244461Y213163D01*
X240263Y211187D02*
X240194Y211256D01*
X240128Y211326D01*
X240065Y211400D01*
X240006Y211476D01*
X239949Y211554D01*
X239895Y211634D01*
X239845Y211717D01*
X239798Y211801D01*
X239755Y211888D01*
X239715Y211976D01*
X239679Y212065D01*
X239646Y212156D01*
X239617Y212248D01*
X239592Y212342D01*
X239571Y212436D01*
X239553Y212531D01*
X239540Y212627D01*
X239530Y212723D01*
X239524Y212819D01*
X239522Y212916D01*
X240263Y211187D02*
X244461Y206248D01*
X239522Y206248D01*
X231394Y206248D02*
X231394Y215138D01*
X228925Y215138D01*
X228827Y215136D01*
X228729Y215130D01*
X228631Y215120D01*
X228534Y215107D01*
X228437Y215089D01*
X228341Y215068D01*
X228247Y215043D01*
X228153Y215014D01*
X228060Y214982D01*
X227969Y214945D01*
X227879Y214906D01*
X227791Y214862D01*
X227705Y214815D01*
X227620Y214765D01*
X227538Y214712D01*
X227458Y214655D01*
X227380Y214595D01*
X227305Y214532D01*
X227232Y214466D01*
X227162Y214397D01*
X227095Y214326D01*
X227030Y214252D01*
X226969Y214175D01*
X226910Y214096D01*
X226855Y214015D01*
X226803Y213932D01*
X226755Y213846D01*
X226710Y213759D01*
X226668Y213670D01*
X226630Y213580D01*
X226596Y213488D01*
X226565Y213395D01*
X226538Y213300D01*
X226515Y213205D01*
X226495Y213108D01*
X226480Y213012D01*
X226468Y212914D01*
X226460Y212816D01*
X226456Y212718D01*
X226456Y212620D01*
X226460Y212522D01*
X226468Y212424D01*
X226480Y212326D01*
X226495Y212230D01*
X226515Y212133D01*
X226538Y212038D01*
X226565Y211943D01*
X226596Y211850D01*
X226630Y211758D01*
X226668Y211668D01*
X226710Y211579D01*
X226755Y211492D01*
X226803Y211406D01*
X226855Y211323D01*
X226910Y211242D01*
X226969Y211163D01*
X227030Y211086D01*
X227095Y211012D01*
X227162Y210941D01*
X227232Y210872D01*
X227305Y210806D01*
X227380Y210743D01*
X227458Y210683D01*
X227538Y210626D01*
X227620Y210573D01*
X227705Y210523D01*
X227791Y210476D01*
X227879Y210432D01*
X227969Y210393D01*
X228060Y210356D01*
X228153Y210324D01*
X228247Y210295D01*
X228341Y210270D01*
X228437Y210249D01*
X228534Y210231D01*
X228631Y210218D01*
X228729Y210208D01*
X228827Y210202D01*
X228925Y210200D01*
X228925Y210199D02*
X231394Y210199D01*
X228431Y210199D02*
X226455Y206248D01*
X222544Y206248D02*
X220075Y206248D01*
X219977Y206250D01*
X219879Y206256D01*
X219781Y206266D01*
X219684Y206279D01*
X219587Y206297D01*
X219491Y206318D01*
X219397Y206343D01*
X219303Y206372D01*
X219210Y206404D01*
X219119Y206441D01*
X219029Y206480D01*
X218941Y206524D01*
X218855Y206571D01*
X218770Y206621D01*
X218688Y206674D01*
X218608Y206731D01*
X218530Y206791D01*
X218455Y206854D01*
X218382Y206920D01*
X218312Y206989D01*
X218245Y207060D01*
X218180Y207134D01*
X218119Y207211D01*
X218060Y207290D01*
X218005Y207371D01*
X217953Y207454D01*
X217905Y207540D01*
X217860Y207627D01*
X217818Y207716D01*
X217780Y207806D01*
X217746Y207898D01*
X217715Y207991D01*
X217688Y208086D01*
X217665Y208181D01*
X217645Y208278D01*
X217630Y208374D01*
X217618Y208472D01*
X217610Y208570D01*
X217606Y208668D01*
X217606Y208766D01*
X217610Y208864D01*
X217618Y208962D01*
X217630Y209060D01*
X217645Y209156D01*
X217665Y209253D01*
X217688Y209348D01*
X217715Y209443D01*
X217746Y209536D01*
X217780Y209628D01*
X217818Y209718D01*
X217860Y209807D01*
X217905Y209894D01*
X217953Y209980D01*
X218005Y210063D01*
X218060Y210144D01*
X218119Y210223D01*
X218180Y210300D01*
X218245Y210374D01*
X218312Y210445D01*
X218382Y210514D01*
X218455Y210580D01*
X218530Y210643D01*
X218608Y210703D01*
X218688Y210760D01*
X218770Y210813D01*
X218855Y210863D01*
X218941Y210910D01*
X219029Y210954D01*
X219119Y210993D01*
X219210Y211030D01*
X219303Y211062D01*
X219397Y211091D01*
X219491Y211116D01*
X219587Y211137D01*
X219684Y211155D01*
X219781Y211168D01*
X219879Y211178D01*
X219977Y211184D01*
X220075Y211186D01*
X219581Y215138D02*
X222544Y215138D01*
X219581Y215138D02*
X219494Y215136D01*
X219406Y215130D01*
X219319Y215121D01*
X219233Y215107D01*
X219147Y215090D01*
X219063Y215069D01*
X218979Y215044D01*
X218896Y215015D01*
X218815Y214983D01*
X218735Y214948D01*
X218657Y214909D01*
X218580Y214866D01*
X218506Y214820D01*
X218434Y214771D01*
X218364Y214719D01*
X218296Y214663D01*
X218231Y214605D01*
X218168Y214544D01*
X218109Y214480D01*
X218052Y214413D01*
X217998Y214345D01*
X217947Y214273D01*
X217900Y214200D01*
X217855Y214125D01*
X217814Y214047D01*
X217777Y213968D01*
X217743Y213888D01*
X217713Y213806D01*
X217686Y213723D01*
X217663Y213638D01*
X217644Y213553D01*
X217629Y213467D01*
X217617Y213380D01*
X217609Y213293D01*
X217605Y213206D01*
X217605Y213118D01*
X217609Y213031D01*
X217617Y212944D01*
X217629Y212857D01*
X217644Y212771D01*
X217663Y212686D01*
X217686Y212601D01*
X217713Y212518D01*
X217743Y212436D01*
X217777Y212356D01*
X217814Y212277D01*
X217855Y212199D01*
X217900Y212124D01*
X217947Y212051D01*
X217998Y211979D01*
X218052Y211911D01*
X218109Y211844D01*
X218168Y211780D01*
X218231Y211719D01*
X218296Y211661D01*
X218364Y211605D01*
X218434Y211553D01*
X218506Y211504D01*
X218580Y211458D01*
X218657Y211415D01*
X218735Y211376D01*
X218815Y211341D01*
X218896Y211309D01*
X218979Y211280D01*
X219063Y211255D01*
X219147Y211234D01*
X219233Y211217D01*
X219319Y211203D01*
X219406Y211194D01*
X219494Y211188D01*
X219581Y211186D01*
X219581Y211187D02*
X221556Y211187D01*
X214703Y239522D02*
X214703Y248412D01*
X212233Y248412D01*
X212135Y248410D01*
X212037Y248404D01*
X211939Y248394D01*
X211842Y248381D01*
X211745Y248363D01*
X211649Y248342D01*
X211555Y248317D01*
X211461Y248288D01*
X211368Y248256D01*
X211277Y248219D01*
X211187Y248180D01*
X211099Y248136D01*
X211013Y248089D01*
X210928Y248039D01*
X210846Y247986D01*
X210766Y247929D01*
X210688Y247869D01*
X210613Y247806D01*
X210540Y247740D01*
X210470Y247671D01*
X210403Y247600D01*
X210338Y247526D01*
X210277Y247449D01*
X210218Y247370D01*
X210163Y247289D01*
X210111Y247206D01*
X210063Y247120D01*
X210018Y247033D01*
X209976Y246944D01*
X209938Y246854D01*
X209904Y246762D01*
X209873Y246669D01*
X209846Y246574D01*
X209823Y246479D01*
X209803Y246382D01*
X209788Y246286D01*
X209776Y246188D01*
X209768Y246090D01*
X209764Y245992D01*
X209764Y245894D01*
X209768Y245796D01*
X209776Y245698D01*
X209788Y245600D01*
X209803Y245504D01*
X209823Y245407D01*
X209846Y245312D01*
X209873Y245217D01*
X209904Y245124D01*
X209938Y245032D01*
X209976Y244942D01*
X210018Y244853D01*
X210063Y244766D01*
X210111Y244680D01*
X210163Y244597D01*
X210218Y244516D01*
X210277Y244437D01*
X210338Y244360D01*
X210403Y244286D01*
X210470Y244215D01*
X210540Y244146D01*
X210613Y244080D01*
X210688Y244017D01*
X210766Y243957D01*
X210846Y243900D01*
X210928Y243847D01*
X211013Y243797D01*
X211099Y243750D01*
X211187Y243706D01*
X211277Y243667D01*
X211368Y243630D01*
X211461Y243598D01*
X211555Y243569D01*
X211649Y243544D01*
X211745Y243523D01*
X211842Y243505D01*
X211939Y243492D01*
X212037Y243482D01*
X212135Y243476D01*
X212233Y243474D01*
X212233Y243473D02*
X214703Y243473D01*
X211739Y243473D02*
X209764Y239522D01*
X205853Y241498D02*
X203877Y248412D01*
X205853Y241498D02*
X200914Y241498D01*
X202396Y243473D02*
X202396Y239522D01*
X292681Y292608D02*
X292681Y301498D01*
X290211Y301498D01*
X290113Y301496D01*
X290015Y301490D01*
X289917Y301480D01*
X289820Y301467D01*
X289723Y301449D01*
X289627Y301428D01*
X289533Y301403D01*
X289439Y301374D01*
X289346Y301342D01*
X289255Y301305D01*
X289165Y301266D01*
X289077Y301222D01*
X288991Y301175D01*
X288906Y301125D01*
X288824Y301072D01*
X288744Y301015D01*
X288666Y300955D01*
X288591Y300892D01*
X288518Y300826D01*
X288448Y300757D01*
X288381Y300686D01*
X288316Y300612D01*
X288255Y300535D01*
X288196Y300456D01*
X288141Y300375D01*
X288089Y300292D01*
X288041Y300206D01*
X287996Y300119D01*
X287954Y300030D01*
X287916Y299940D01*
X287882Y299848D01*
X287851Y299755D01*
X287824Y299660D01*
X287801Y299565D01*
X287781Y299468D01*
X287766Y299372D01*
X287754Y299274D01*
X287746Y299176D01*
X287742Y299078D01*
X287742Y298980D01*
X287746Y298882D01*
X287754Y298784D01*
X287766Y298686D01*
X287781Y298590D01*
X287801Y298493D01*
X287824Y298398D01*
X287851Y298303D01*
X287882Y298210D01*
X287916Y298118D01*
X287954Y298028D01*
X287996Y297939D01*
X288041Y297852D01*
X288089Y297766D01*
X288141Y297683D01*
X288196Y297602D01*
X288255Y297523D01*
X288316Y297446D01*
X288381Y297372D01*
X288448Y297301D01*
X288518Y297232D01*
X288591Y297166D01*
X288666Y297103D01*
X288744Y297043D01*
X288824Y296986D01*
X288906Y296933D01*
X288991Y296883D01*
X289077Y296836D01*
X289165Y296792D01*
X289255Y296753D01*
X289346Y296716D01*
X289439Y296684D01*
X289533Y296655D01*
X289627Y296630D01*
X289723Y296609D01*
X289820Y296591D01*
X289917Y296578D01*
X290015Y296568D01*
X290113Y296562D01*
X290211Y296560D01*
X290211Y296559D02*
X292681Y296559D01*
X289717Y296559D02*
X287742Y292608D01*
X283831Y292608D02*
X280868Y292608D01*
X280779Y292610D01*
X280691Y292616D01*
X280603Y292626D01*
X280515Y292640D01*
X280428Y292658D01*
X280342Y292679D01*
X280257Y292705D01*
X280174Y292734D01*
X280091Y292767D01*
X280011Y292804D01*
X279932Y292844D01*
X279855Y292888D01*
X279779Y292935D01*
X279707Y292985D01*
X279636Y293039D01*
X279568Y293096D01*
X279502Y293156D01*
X279440Y293218D01*
X279380Y293284D01*
X279323Y293352D01*
X279269Y293423D01*
X279219Y293495D01*
X279172Y293570D01*
X279128Y293648D01*
X279088Y293727D01*
X279051Y293807D01*
X279018Y293890D01*
X278989Y293973D01*
X278963Y294058D01*
X278942Y294144D01*
X278924Y294231D01*
X278910Y294319D01*
X278900Y294407D01*
X278894Y294495D01*
X278892Y294584D01*
X278892Y295571D01*
X278894Y295657D01*
X278900Y295743D01*
X278909Y295829D01*
X278922Y295914D01*
X278939Y295999D01*
X278959Y296082D01*
X278983Y296165D01*
X279011Y296247D01*
X279042Y296327D01*
X279077Y296406D01*
X279115Y296483D01*
X279157Y296559D01*
X279201Y296633D01*
X279249Y296704D01*
X279300Y296774D01*
X279354Y296841D01*
X279411Y296906D01*
X279471Y296968D01*
X279533Y297028D01*
X279598Y297085D01*
X279665Y297139D01*
X279735Y297190D01*
X279806Y297238D01*
X279880Y297282D01*
X279956Y297324D01*
X280033Y297362D01*
X280112Y297397D01*
X280192Y297428D01*
X280274Y297456D01*
X280357Y297480D01*
X280440Y297500D01*
X280525Y297517D01*
X280610Y297530D01*
X280696Y297539D01*
X280782Y297545D01*
X280868Y297547D01*
X283831Y297547D01*
X283831Y301498D01*
X278892Y301498D01*
X271018Y301752D02*
X271018Y292862D01*
X271018Y301752D02*
X268549Y301752D01*
X268451Y301750D01*
X268353Y301744D01*
X268255Y301734D01*
X268158Y301721D01*
X268061Y301703D01*
X267965Y301682D01*
X267871Y301657D01*
X267777Y301628D01*
X267684Y301596D01*
X267593Y301559D01*
X267503Y301520D01*
X267415Y301476D01*
X267329Y301429D01*
X267244Y301379D01*
X267162Y301326D01*
X267082Y301269D01*
X267004Y301209D01*
X266929Y301146D01*
X266856Y301080D01*
X266786Y301011D01*
X266719Y300940D01*
X266654Y300866D01*
X266593Y300789D01*
X266534Y300710D01*
X266479Y300629D01*
X266427Y300546D01*
X266379Y300460D01*
X266334Y300373D01*
X266292Y300284D01*
X266254Y300194D01*
X266220Y300102D01*
X266189Y300009D01*
X266162Y299914D01*
X266139Y299819D01*
X266119Y299722D01*
X266104Y299626D01*
X266092Y299528D01*
X266084Y299430D01*
X266080Y299332D01*
X266080Y299234D01*
X266084Y299136D01*
X266092Y299038D01*
X266104Y298940D01*
X266119Y298844D01*
X266139Y298747D01*
X266162Y298652D01*
X266189Y298557D01*
X266220Y298464D01*
X266254Y298372D01*
X266292Y298282D01*
X266334Y298193D01*
X266379Y298106D01*
X266427Y298020D01*
X266479Y297937D01*
X266534Y297856D01*
X266593Y297777D01*
X266654Y297700D01*
X266719Y297626D01*
X266786Y297555D01*
X266856Y297486D01*
X266929Y297420D01*
X267004Y297357D01*
X267082Y297297D01*
X267162Y297240D01*
X267244Y297187D01*
X267329Y297137D01*
X267415Y297090D01*
X267503Y297046D01*
X267593Y297007D01*
X267684Y296970D01*
X267777Y296938D01*
X267871Y296909D01*
X267965Y296884D01*
X268061Y296863D01*
X268158Y296845D01*
X268255Y296832D01*
X268353Y296822D01*
X268451Y296816D01*
X268549Y296814D01*
X268549Y296813D02*
X271018Y296813D01*
X268055Y296813D02*
X266079Y292862D01*
X262168Y297801D02*
X259205Y297801D01*
X259119Y297799D01*
X259033Y297793D01*
X258947Y297784D01*
X258862Y297771D01*
X258777Y297754D01*
X258694Y297734D01*
X258611Y297710D01*
X258529Y297682D01*
X258449Y297651D01*
X258370Y297616D01*
X258293Y297578D01*
X258217Y297536D01*
X258143Y297492D01*
X258072Y297444D01*
X258002Y297393D01*
X257935Y297339D01*
X257870Y297282D01*
X257808Y297222D01*
X257748Y297160D01*
X257691Y297095D01*
X257637Y297028D01*
X257586Y296958D01*
X257538Y296887D01*
X257494Y296813D01*
X257452Y296737D01*
X257414Y296660D01*
X257379Y296581D01*
X257348Y296501D01*
X257320Y296419D01*
X257296Y296336D01*
X257276Y296253D01*
X257259Y296168D01*
X257246Y296083D01*
X257237Y295997D01*
X257231Y295911D01*
X257229Y295825D01*
X257229Y295331D01*
X257230Y295331D02*
X257232Y295233D01*
X257238Y295135D01*
X257248Y295037D01*
X257261Y294940D01*
X257279Y294843D01*
X257300Y294747D01*
X257325Y294653D01*
X257354Y294559D01*
X257386Y294466D01*
X257423Y294375D01*
X257462Y294285D01*
X257506Y294197D01*
X257553Y294111D01*
X257603Y294026D01*
X257656Y293944D01*
X257713Y293864D01*
X257773Y293786D01*
X257836Y293711D01*
X257902Y293638D01*
X257971Y293568D01*
X258042Y293501D01*
X258116Y293436D01*
X258193Y293375D01*
X258272Y293316D01*
X258353Y293261D01*
X258436Y293209D01*
X258522Y293161D01*
X258609Y293116D01*
X258698Y293074D01*
X258788Y293036D01*
X258880Y293002D01*
X258973Y292971D01*
X259068Y292944D01*
X259163Y292921D01*
X259260Y292901D01*
X259356Y292886D01*
X259454Y292874D01*
X259552Y292866D01*
X259650Y292862D01*
X259748Y292862D01*
X259846Y292866D01*
X259944Y292874D01*
X260042Y292886D01*
X260138Y292901D01*
X260235Y292921D01*
X260330Y292944D01*
X260425Y292971D01*
X260518Y293002D01*
X260610Y293036D01*
X260700Y293074D01*
X260789Y293116D01*
X260876Y293161D01*
X260962Y293209D01*
X261045Y293261D01*
X261126Y293316D01*
X261205Y293375D01*
X261282Y293436D01*
X261356Y293501D01*
X261427Y293568D01*
X261496Y293638D01*
X261562Y293711D01*
X261625Y293786D01*
X261685Y293864D01*
X261742Y293944D01*
X261795Y294026D01*
X261845Y294111D01*
X261892Y294197D01*
X261936Y294285D01*
X261975Y294375D01*
X262012Y294466D01*
X262044Y294559D01*
X262073Y294653D01*
X262098Y294747D01*
X262119Y294843D01*
X262137Y294940D01*
X262150Y295037D01*
X262160Y295135D01*
X262166Y295233D01*
X262168Y295331D01*
X262168Y297801D01*
X262166Y297925D01*
X262160Y298049D01*
X262150Y298173D01*
X262137Y298296D01*
X262119Y298419D01*
X262098Y298541D01*
X262073Y298663D01*
X262044Y298784D01*
X262011Y298903D01*
X261975Y299022D01*
X261934Y299139D01*
X261891Y299255D01*
X261843Y299370D01*
X261792Y299483D01*
X261737Y299595D01*
X261679Y299704D01*
X261618Y299812D01*
X261553Y299918D01*
X261485Y300022D01*
X261413Y300123D01*
X261339Y300223D01*
X261261Y300319D01*
X261181Y300414D01*
X261097Y300506D01*
X261011Y300595D01*
X260922Y300681D01*
X260830Y300765D01*
X260735Y300845D01*
X260639Y300923D01*
X260539Y300997D01*
X260438Y301069D01*
X260334Y301137D01*
X260228Y301202D01*
X260120Y301263D01*
X260011Y301321D01*
X259899Y301376D01*
X259786Y301427D01*
X259672Y301475D01*
X259555Y301518D01*
X259438Y301559D01*
X259319Y301595D01*
X259200Y301628D01*
X259079Y301657D01*
X258957Y301682D01*
X258835Y301703D01*
X258712Y301721D01*
X258589Y301734D01*
X258465Y301744D01*
X258341Y301750D01*
X258217Y301752D01*
X213433Y260096D02*
X213433Y251206D01*
X213433Y260096D02*
X210963Y260096D01*
X210865Y260094D01*
X210767Y260088D01*
X210669Y260078D01*
X210572Y260065D01*
X210475Y260047D01*
X210379Y260026D01*
X210285Y260001D01*
X210191Y259972D01*
X210098Y259940D01*
X210007Y259903D01*
X209917Y259864D01*
X209829Y259820D01*
X209743Y259773D01*
X209658Y259723D01*
X209576Y259670D01*
X209496Y259613D01*
X209418Y259553D01*
X209343Y259490D01*
X209270Y259424D01*
X209200Y259355D01*
X209133Y259284D01*
X209068Y259210D01*
X209007Y259133D01*
X208948Y259054D01*
X208893Y258973D01*
X208841Y258890D01*
X208793Y258804D01*
X208748Y258717D01*
X208706Y258628D01*
X208668Y258538D01*
X208634Y258446D01*
X208603Y258353D01*
X208576Y258258D01*
X208553Y258163D01*
X208533Y258066D01*
X208518Y257970D01*
X208506Y257872D01*
X208498Y257774D01*
X208494Y257676D01*
X208494Y257578D01*
X208498Y257480D01*
X208506Y257382D01*
X208518Y257284D01*
X208533Y257188D01*
X208553Y257091D01*
X208576Y256996D01*
X208603Y256901D01*
X208634Y256808D01*
X208668Y256716D01*
X208706Y256626D01*
X208748Y256537D01*
X208793Y256450D01*
X208841Y256364D01*
X208893Y256281D01*
X208948Y256200D01*
X209007Y256121D01*
X209068Y256044D01*
X209133Y255970D01*
X209200Y255899D01*
X209270Y255830D01*
X209343Y255764D01*
X209418Y255701D01*
X209496Y255641D01*
X209576Y255584D01*
X209658Y255531D01*
X209743Y255481D01*
X209829Y255434D01*
X209917Y255390D01*
X210007Y255351D01*
X210098Y255314D01*
X210191Y255282D01*
X210285Y255253D01*
X210379Y255228D01*
X210475Y255207D01*
X210572Y255189D01*
X210669Y255176D01*
X210767Y255166D01*
X210865Y255160D01*
X210963Y255158D01*
X210963Y255157D02*
X213433Y255157D01*
X210469Y255157D02*
X208494Y251206D01*
X204583Y259108D02*
X204583Y260096D01*
X199644Y260096D01*
X202113Y251206D01*
X212344Y287201D02*
X221234Y287201D01*
X221234Y289671D01*
X221232Y289769D01*
X221226Y289867D01*
X221216Y289965D01*
X221203Y290062D01*
X221185Y290159D01*
X221164Y290255D01*
X221139Y290349D01*
X221110Y290443D01*
X221078Y290536D01*
X221041Y290627D01*
X221002Y290717D01*
X220958Y290805D01*
X220911Y290891D01*
X220861Y290976D01*
X220808Y291058D01*
X220751Y291138D01*
X220691Y291216D01*
X220628Y291291D01*
X220562Y291364D01*
X220493Y291434D01*
X220422Y291501D01*
X220348Y291566D01*
X220271Y291627D01*
X220192Y291686D01*
X220111Y291741D01*
X220028Y291793D01*
X219942Y291841D01*
X219855Y291886D01*
X219766Y291928D01*
X219676Y291966D01*
X219584Y292000D01*
X219491Y292031D01*
X219396Y292058D01*
X219301Y292081D01*
X219204Y292101D01*
X219108Y292116D01*
X219010Y292128D01*
X218912Y292136D01*
X218814Y292140D01*
X218716Y292140D01*
X218618Y292136D01*
X218520Y292128D01*
X218422Y292116D01*
X218326Y292101D01*
X218229Y292081D01*
X218134Y292058D01*
X218039Y292031D01*
X217946Y292000D01*
X217854Y291966D01*
X217764Y291928D01*
X217675Y291886D01*
X217588Y291841D01*
X217502Y291793D01*
X217419Y291741D01*
X217338Y291686D01*
X217259Y291627D01*
X217182Y291566D01*
X217108Y291501D01*
X217037Y291434D01*
X216968Y291364D01*
X216902Y291291D01*
X216839Y291216D01*
X216779Y291138D01*
X216722Y291058D01*
X216669Y290976D01*
X216619Y290891D01*
X216572Y290805D01*
X216528Y290717D01*
X216489Y290627D01*
X216452Y290536D01*
X216420Y290443D01*
X216391Y290349D01*
X216366Y290255D01*
X216345Y290159D01*
X216327Y290062D01*
X216314Y289965D01*
X216304Y289867D01*
X216298Y289769D01*
X216296Y289671D01*
X216295Y289671D02*
X216295Y287201D01*
X216295Y290165D02*
X212344Y292140D01*
X214813Y296052D02*
X214911Y296054D01*
X215009Y296060D01*
X215107Y296070D01*
X215204Y296083D01*
X215301Y296101D01*
X215397Y296122D01*
X215491Y296147D01*
X215585Y296176D01*
X215678Y296208D01*
X215769Y296245D01*
X215859Y296284D01*
X215947Y296328D01*
X216033Y296375D01*
X216118Y296425D01*
X216200Y296478D01*
X216280Y296535D01*
X216358Y296595D01*
X216433Y296658D01*
X216506Y296724D01*
X216576Y296793D01*
X216643Y296864D01*
X216708Y296938D01*
X216769Y297015D01*
X216828Y297094D01*
X216883Y297175D01*
X216935Y297258D01*
X216983Y297344D01*
X217028Y297431D01*
X217070Y297520D01*
X217108Y297610D01*
X217142Y297702D01*
X217173Y297795D01*
X217200Y297890D01*
X217223Y297985D01*
X217243Y298082D01*
X217258Y298178D01*
X217270Y298276D01*
X217278Y298374D01*
X217282Y298472D01*
X217282Y298570D01*
X217278Y298668D01*
X217270Y298766D01*
X217258Y298864D01*
X217243Y298960D01*
X217223Y299057D01*
X217200Y299152D01*
X217173Y299247D01*
X217142Y299340D01*
X217108Y299432D01*
X217070Y299522D01*
X217028Y299611D01*
X216983Y299698D01*
X216935Y299784D01*
X216883Y299867D01*
X216828Y299948D01*
X216769Y300027D01*
X216708Y300104D01*
X216643Y300178D01*
X216576Y300249D01*
X216506Y300318D01*
X216433Y300384D01*
X216358Y300447D01*
X216280Y300507D01*
X216200Y300564D01*
X216118Y300617D01*
X216033Y300667D01*
X215947Y300714D01*
X215859Y300758D01*
X215769Y300797D01*
X215678Y300834D01*
X215585Y300866D01*
X215491Y300895D01*
X215397Y300920D01*
X215301Y300941D01*
X215204Y300959D01*
X215107Y300972D01*
X215009Y300982D01*
X214911Y300988D01*
X214813Y300990D01*
X214715Y300988D01*
X214617Y300982D01*
X214519Y300972D01*
X214422Y300959D01*
X214325Y300941D01*
X214229Y300920D01*
X214135Y300895D01*
X214041Y300866D01*
X213948Y300834D01*
X213857Y300797D01*
X213767Y300758D01*
X213679Y300714D01*
X213593Y300667D01*
X213508Y300617D01*
X213426Y300564D01*
X213346Y300507D01*
X213268Y300447D01*
X213193Y300384D01*
X213120Y300318D01*
X213050Y300249D01*
X212983Y300178D01*
X212918Y300104D01*
X212857Y300027D01*
X212798Y299948D01*
X212743Y299867D01*
X212691Y299784D01*
X212643Y299698D01*
X212598Y299611D01*
X212556Y299522D01*
X212518Y299432D01*
X212484Y299340D01*
X212453Y299247D01*
X212426Y299152D01*
X212403Y299057D01*
X212383Y298960D01*
X212368Y298864D01*
X212356Y298766D01*
X212348Y298668D01*
X212344Y298570D01*
X212344Y298472D01*
X212348Y298374D01*
X212356Y298276D01*
X212368Y298178D01*
X212383Y298082D01*
X212403Y297985D01*
X212426Y297890D01*
X212453Y297795D01*
X212484Y297702D01*
X212518Y297610D01*
X212556Y297520D01*
X212598Y297431D01*
X212643Y297344D01*
X212691Y297258D01*
X212743Y297175D01*
X212798Y297094D01*
X212857Y297015D01*
X212918Y296938D01*
X212983Y296864D01*
X213050Y296793D01*
X213120Y296724D01*
X213193Y296658D01*
X213268Y296595D01*
X213346Y296535D01*
X213426Y296478D01*
X213508Y296425D01*
X213593Y296375D01*
X213679Y296328D01*
X213767Y296284D01*
X213857Y296245D01*
X213948Y296208D01*
X214041Y296176D01*
X214135Y296147D01*
X214229Y296122D01*
X214325Y296101D01*
X214422Y296083D01*
X214519Y296070D01*
X214617Y296060D01*
X214715Y296054D01*
X214813Y296052D01*
X219258Y296545D02*
X219345Y296547D01*
X219433Y296553D01*
X219520Y296562D01*
X219606Y296576D01*
X219692Y296593D01*
X219776Y296614D01*
X219860Y296639D01*
X219943Y296668D01*
X220024Y296700D01*
X220104Y296735D01*
X220182Y296774D01*
X220259Y296817D01*
X220333Y296863D01*
X220405Y296912D01*
X220475Y296964D01*
X220543Y297020D01*
X220608Y297078D01*
X220671Y297139D01*
X220730Y297203D01*
X220787Y297270D01*
X220841Y297338D01*
X220892Y297410D01*
X220939Y297483D01*
X220984Y297558D01*
X221025Y297636D01*
X221062Y297715D01*
X221096Y297795D01*
X221126Y297877D01*
X221153Y297960D01*
X221176Y298045D01*
X221195Y298130D01*
X221210Y298216D01*
X221222Y298303D01*
X221230Y298390D01*
X221234Y298477D01*
X221234Y298565D01*
X221230Y298652D01*
X221222Y298739D01*
X221210Y298826D01*
X221195Y298912D01*
X221176Y298997D01*
X221153Y299082D01*
X221126Y299165D01*
X221096Y299247D01*
X221062Y299327D01*
X221025Y299406D01*
X220984Y299484D01*
X220939Y299559D01*
X220892Y299632D01*
X220841Y299704D01*
X220787Y299772D01*
X220730Y299839D01*
X220671Y299903D01*
X220608Y299964D01*
X220543Y300022D01*
X220475Y300078D01*
X220405Y300130D01*
X220333Y300179D01*
X220259Y300225D01*
X220182Y300268D01*
X220104Y300307D01*
X220024Y300342D01*
X219943Y300374D01*
X219860Y300403D01*
X219776Y300428D01*
X219692Y300449D01*
X219606Y300466D01*
X219520Y300480D01*
X219433Y300489D01*
X219345Y300495D01*
X219258Y300497D01*
X219171Y300495D01*
X219083Y300489D01*
X218996Y300480D01*
X218910Y300466D01*
X218824Y300449D01*
X218740Y300428D01*
X218656Y300403D01*
X218573Y300374D01*
X218492Y300342D01*
X218412Y300307D01*
X218334Y300268D01*
X218257Y300225D01*
X218183Y300179D01*
X218111Y300130D01*
X218041Y300078D01*
X217973Y300022D01*
X217908Y299964D01*
X217845Y299903D01*
X217786Y299839D01*
X217729Y299772D01*
X217675Y299704D01*
X217624Y299632D01*
X217577Y299559D01*
X217532Y299484D01*
X217491Y299406D01*
X217454Y299327D01*
X217420Y299247D01*
X217390Y299165D01*
X217363Y299082D01*
X217340Y298997D01*
X217321Y298912D01*
X217306Y298826D01*
X217294Y298739D01*
X217286Y298652D01*
X217282Y298565D01*
X217282Y298477D01*
X217286Y298390D01*
X217294Y298303D01*
X217306Y298216D01*
X217321Y298130D01*
X217340Y298045D01*
X217363Y297960D01*
X217390Y297877D01*
X217420Y297795D01*
X217454Y297715D01*
X217491Y297636D01*
X217532Y297558D01*
X217577Y297483D01*
X217624Y297410D01*
X217675Y297338D01*
X217729Y297270D01*
X217786Y297203D01*
X217845Y297139D01*
X217908Y297078D01*
X217973Y297020D01*
X218041Y296964D01*
X218111Y296912D01*
X218183Y296863D01*
X218257Y296817D01*
X218334Y296774D01*
X218412Y296735D01*
X218492Y296700D01*
X218573Y296668D01*
X218656Y296639D01*
X218740Y296614D01*
X218824Y296593D01*
X218910Y296576D01*
X218996Y296562D01*
X219083Y296553D01*
X219171Y296547D01*
X219258Y296545D01*
D13*
X216281Y261239D02*
X213741Y261239D01*
X216281Y261239D02*
X216381Y261241D01*
X216480Y261247D01*
X216580Y261257D01*
X216678Y261270D01*
X216777Y261288D01*
X216874Y261309D01*
X216970Y261334D01*
X217066Y261363D01*
X217160Y261396D01*
X217253Y261432D01*
X217344Y261472D01*
X217434Y261516D01*
X217522Y261563D01*
X217608Y261613D01*
X217692Y261667D01*
X217774Y261724D01*
X217853Y261784D01*
X217931Y261848D01*
X218005Y261914D01*
X218077Y261983D01*
X218146Y262055D01*
X218212Y262129D01*
X218276Y262207D01*
X218336Y262286D01*
X218393Y262368D01*
X218447Y262452D01*
X218497Y262538D01*
X218544Y262626D01*
X218588Y262716D01*
X218628Y262807D01*
X218664Y262900D01*
X218697Y262994D01*
X218726Y263090D01*
X218751Y263186D01*
X218772Y263283D01*
X218790Y263382D01*
X218803Y263480D01*
X218813Y263580D01*
X218819Y263679D01*
X218821Y263779D01*
X218821Y270129D01*
X218819Y270229D01*
X218813Y270328D01*
X218803Y270428D01*
X218790Y270526D01*
X218772Y270625D01*
X218751Y270722D01*
X218726Y270818D01*
X218697Y270914D01*
X218664Y271008D01*
X218628Y271101D01*
X218588Y271192D01*
X218544Y271282D01*
X218497Y271370D01*
X218447Y271456D01*
X218393Y271540D01*
X218336Y271622D01*
X218276Y271701D01*
X218212Y271779D01*
X218146Y271853D01*
X218077Y271925D01*
X218005Y271994D01*
X217931Y272060D01*
X217853Y272124D01*
X217774Y272184D01*
X217692Y272241D01*
X217608Y272295D01*
X217522Y272345D01*
X217434Y272392D01*
X217344Y272436D01*
X217253Y272476D01*
X217160Y272512D01*
X217066Y272545D01*
X216970Y272574D01*
X216874Y272599D01*
X216777Y272620D01*
X216678Y272638D01*
X216580Y272651D01*
X216480Y272661D01*
X216381Y272667D01*
X216281Y272669D01*
X213741Y272669D01*
X209259Y270129D02*
X206084Y272669D01*
X206084Y261239D01*
X209259Y261239D02*
X202909Y261239D01*
X236257Y288417D02*
X238797Y288417D01*
X238897Y288419D01*
X238996Y288425D01*
X239096Y288435D01*
X239194Y288448D01*
X239293Y288466D01*
X239390Y288487D01*
X239486Y288512D01*
X239582Y288541D01*
X239676Y288574D01*
X239769Y288610D01*
X239860Y288650D01*
X239950Y288694D01*
X240038Y288741D01*
X240124Y288791D01*
X240208Y288845D01*
X240290Y288902D01*
X240369Y288962D01*
X240447Y289026D01*
X240521Y289092D01*
X240593Y289161D01*
X240662Y289233D01*
X240728Y289307D01*
X240792Y289385D01*
X240852Y289464D01*
X240909Y289546D01*
X240963Y289630D01*
X241013Y289716D01*
X241060Y289804D01*
X241104Y289894D01*
X241144Y289985D01*
X241180Y290078D01*
X241213Y290172D01*
X241242Y290268D01*
X241267Y290364D01*
X241288Y290461D01*
X241306Y290560D01*
X241319Y290658D01*
X241329Y290758D01*
X241335Y290857D01*
X241337Y290957D01*
X241337Y297307D01*
X241335Y297407D01*
X241329Y297506D01*
X241319Y297606D01*
X241306Y297704D01*
X241288Y297803D01*
X241267Y297900D01*
X241242Y297996D01*
X241213Y298092D01*
X241180Y298186D01*
X241144Y298279D01*
X241104Y298370D01*
X241060Y298460D01*
X241013Y298548D01*
X240963Y298634D01*
X240909Y298718D01*
X240852Y298800D01*
X240792Y298879D01*
X240728Y298957D01*
X240662Y299031D01*
X240593Y299103D01*
X240521Y299172D01*
X240447Y299238D01*
X240369Y299302D01*
X240290Y299362D01*
X240208Y299419D01*
X240124Y299473D01*
X240038Y299523D01*
X239950Y299570D01*
X239860Y299614D01*
X239769Y299654D01*
X239676Y299690D01*
X239582Y299723D01*
X239486Y299752D01*
X239390Y299777D01*
X239293Y299798D01*
X239194Y299816D01*
X239096Y299829D01*
X238996Y299839D01*
X238897Y299845D01*
X238797Y299847D01*
X236257Y299847D01*
X228283Y299848D02*
X228179Y299846D01*
X228074Y299840D01*
X227970Y299831D01*
X227867Y299818D01*
X227764Y299800D01*
X227662Y299780D01*
X227560Y299755D01*
X227460Y299727D01*
X227360Y299695D01*
X227262Y299659D01*
X227165Y299620D01*
X227070Y299578D01*
X226976Y299532D01*
X226884Y299482D01*
X226794Y299430D01*
X226706Y299374D01*
X226620Y299314D01*
X226536Y299252D01*
X226455Y299187D01*
X226376Y299119D01*
X226299Y299047D01*
X226226Y298974D01*
X226154Y298897D01*
X226086Y298818D01*
X226021Y298737D01*
X225959Y298653D01*
X225899Y298567D01*
X225843Y298479D01*
X225791Y298389D01*
X225741Y298297D01*
X225695Y298203D01*
X225653Y298108D01*
X225614Y298011D01*
X225578Y297913D01*
X225546Y297813D01*
X225518Y297713D01*
X225493Y297611D01*
X225473Y297509D01*
X225455Y297406D01*
X225442Y297303D01*
X225433Y297199D01*
X225427Y297094D01*
X225425Y296990D01*
X228283Y299847D02*
X228401Y299845D01*
X228520Y299839D01*
X228638Y299830D01*
X228755Y299817D01*
X228872Y299799D01*
X228989Y299779D01*
X229105Y299754D01*
X229220Y299726D01*
X229333Y299693D01*
X229446Y299658D01*
X229558Y299618D01*
X229668Y299576D01*
X229777Y299529D01*
X229885Y299479D01*
X229990Y299426D01*
X230094Y299369D01*
X230196Y299309D01*
X230296Y299246D01*
X230394Y299179D01*
X230490Y299110D01*
X230583Y299037D01*
X230674Y298961D01*
X230763Y298883D01*
X230849Y298801D01*
X230932Y298717D01*
X231013Y298631D01*
X231090Y298541D01*
X231165Y298450D01*
X231237Y298356D01*
X231306Y298259D01*
X231371Y298161D01*
X231434Y298060D01*
X231493Y297957D01*
X231549Y297853D01*
X231601Y297747D01*
X231650Y297639D01*
X231695Y297530D01*
X231737Y297419D01*
X231775Y297307D01*
X226377Y294768D02*
X226301Y294843D01*
X226226Y294922D01*
X226155Y295003D01*
X226086Y295087D01*
X226021Y295173D01*
X225959Y295261D01*
X225899Y295351D01*
X225843Y295443D01*
X225790Y295538D01*
X225741Y295634D01*
X225695Y295732D01*
X225652Y295831D01*
X225613Y295932D01*
X225578Y296034D01*
X225546Y296137D01*
X225518Y296241D01*
X225493Y296346D01*
X225472Y296453D01*
X225455Y296559D01*
X225442Y296666D01*
X225433Y296774D01*
X225427Y296882D01*
X225425Y296990D01*
X226378Y294767D02*
X231775Y288417D01*
X225425Y288417D01*
X278765Y203835D02*
X281305Y203835D01*
X281405Y203837D01*
X281504Y203843D01*
X281604Y203853D01*
X281702Y203866D01*
X281801Y203884D01*
X281898Y203905D01*
X281994Y203930D01*
X282090Y203959D01*
X282184Y203992D01*
X282277Y204028D01*
X282368Y204068D01*
X282458Y204112D01*
X282546Y204159D01*
X282632Y204209D01*
X282716Y204263D01*
X282798Y204320D01*
X282877Y204380D01*
X282955Y204444D01*
X283029Y204510D01*
X283101Y204579D01*
X283170Y204651D01*
X283236Y204725D01*
X283300Y204803D01*
X283360Y204882D01*
X283417Y204964D01*
X283471Y205048D01*
X283521Y205134D01*
X283568Y205222D01*
X283612Y205312D01*
X283652Y205403D01*
X283688Y205496D01*
X283721Y205590D01*
X283750Y205686D01*
X283775Y205782D01*
X283796Y205879D01*
X283814Y205978D01*
X283827Y206076D01*
X283837Y206176D01*
X283843Y206275D01*
X283845Y206375D01*
X283845Y212725D01*
X283843Y212825D01*
X283837Y212924D01*
X283827Y213024D01*
X283814Y213122D01*
X283796Y213221D01*
X283775Y213318D01*
X283750Y213414D01*
X283721Y213510D01*
X283688Y213604D01*
X283652Y213697D01*
X283612Y213788D01*
X283568Y213878D01*
X283521Y213966D01*
X283471Y214052D01*
X283417Y214136D01*
X283360Y214218D01*
X283300Y214297D01*
X283236Y214375D01*
X283170Y214449D01*
X283101Y214521D01*
X283029Y214590D01*
X282955Y214656D01*
X282877Y214720D01*
X282798Y214780D01*
X282716Y214837D01*
X282632Y214891D01*
X282546Y214941D01*
X282458Y214988D01*
X282368Y215032D01*
X282277Y215072D01*
X282184Y215108D01*
X282090Y215141D01*
X281994Y215170D01*
X281898Y215195D01*
X281801Y215216D01*
X281702Y215234D01*
X281604Y215247D01*
X281504Y215257D01*
X281405Y215263D01*
X281305Y215265D01*
X278765Y215265D01*
X274283Y203835D02*
X271108Y203835D01*
X270997Y203837D01*
X270887Y203843D01*
X270776Y203852D01*
X270666Y203866D01*
X270557Y203883D01*
X270448Y203904D01*
X270340Y203929D01*
X270233Y203958D01*
X270127Y203990D01*
X270022Y204026D01*
X269919Y204066D01*
X269817Y204109D01*
X269716Y204156D01*
X269617Y204207D01*
X269521Y204260D01*
X269426Y204317D01*
X269333Y204378D01*
X269242Y204441D01*
X269153Y204508D01*
X269067Y204578D01*
X268984Y204651D01*
X268902Y204726D01*
X268824Y204804D01*
X268749Y204886D01*
X268676Y204969D01*
X268606Y205055D01*
X268539Y205144D01*
X268476Y205235D01*
X268415Y205328D01*
X268358Y205423D01*
X268305Y205519D01*
X268254Y205618D01*
X268207Y205719D01*
X268164Y205821D01*
X268124Y205924D01*
X268088Y206029D01*
X268056Y206135D01*
X268027Y206242D01*
X268002Y206350D01*
X267981Y206459D01*
X267964Y206568D01*
X267950Y206678D01*
X267941Y206789D01*
X267935Y206899D01*
X267933Y207010D01*
X267935Y207121D01*
X267941Y207231D01*
X267950Y207342D01*
X267964Y207452D01*
X267981Y207561D01*
X268002Y207670D01*
X268027Y207778D01*
X268056Y207885D01*
X268088Y207991D01*
X268124Y208096D01*
X268164Y208199D01*
X268207Y208301D01*
X268254Y208402D01*
X268305Y208501D01*
X268358Y208598D01*
X268415Y208692D01*
X268476Y208785D01*
X268539Y208876D01*
X268606Y208965D01*
X268676Y209051D01*
X268749Y209134D01*
X268824Y209216D01*
X268902Y209294D01*
X268984Y209369D01*
X269067Y209442D01*
X269153Y209512D01*
X269242Y209579D01*
X269333Y209642D01*
X269426Y209703D01*
X269521Y209760D01*
X269617Y209813D01*
X269716Y209864D01*
X269817Y209911D01*
X269919Y209954D01*
X270022Y209994D01*
X270127Y210030D01*
X270233Y210062D01*
X270340Y210091D01*
X270448Y210116D01*
X270557Y210137D01*
X270666Y210154D01*
X270776Y210168D01*
X270887Y210177D01*
X270997Y210183D01*
X271108Y210185D01*
X270473Y215265D02*
X274283Y215265D01*
X270473Y215265D02*
X270373Y215263D01*
X270274Y215257D01*
X270174Y215247D01*
X270076Y215234D01*
X269977Y215216D01*
X269880Y215195D01*
X269784Y215170D01*
X269688Y215141D01*
X269594Y215108D01*
X269501Y215072D01*
X269410Y215032D01*
X269320Y214988D01*
X269232Y214941D01*
X269146Y214891D01*
X269062Y214837D01*
X268980Y214780D01*
X268901Y214720D01*
X268823Y214656D01*
X268749Y214590D01*
X268677Y214521D01*
X268608Y214449D01*
X268542Y214375D01*
X268478Y214297D01*
X268418Y214218D01*
X268361Y214136D01*
X268307Y214052D01*
X268257Y213966D01*
X268210Y213878D01*
X268166Y213788D01*
X268126Y213697D01*
X268090Y213604D01*
X268057Y213510D01*
X268028Y213414D01*
X268003Y213318D01*
X267982Y213221D01*
X267964Y213122D01*
X267951Y213024D01*
X267941Y212924D01*
X267935Y212825D01*
X267933Y212725D01*
X267935Y212625D01*
X267941Y212526D01*
X267951Y212426D01*
X267964Y212328D01*
X267982Y212229D01*
X268003Y212132D01*
X268028Y212036D01*
X268057Y211940D01*
X268090Y211846D01*
X268126Y211753D01*
X268166Y211662D01*
X268210Y211572D01*
X268257Y211484D01*
X268307Y211398D01*
X268361Y211314D01*
X268418Y211232D01*
X268478Y211153D01*
X268542Y211075D01*
X268608Y211001D01*
X268677Y210929D01*
X268749Y210860D01*
X268823Y210794D01*
X268901Y210730D01*
X268980Y210670D01*
X269062Y210613D01*
X269146Y210559D01*
X269232Y210509D01*
X269320Y210462D01*
X269410Y210418D01*
X269501Y210378D01*
X269594Y210342D01*
X269688Y210309D01*
X269784Y210280D01*
X269880Y210255D01*
X269977Y210234D01*
X270076Y210216D01*
X270174Y210203D01*
X270274Y210193D01*
X270373Y210187D01*
X270473Y210185D01*
X273013Y210185D01*
D11*
X218567Y274955D02*
X218567Y282321D01*
X216521Y282321D01*
X216432Y282319D01*
X216343Y282313D01*
X216254Y282303D01*
X216166Y282290D01*
X216078Y282273D01*
X215991Y282251D01*
X215906Y282226D01*
X215821Y282198D01*
X215738Y282165D01*
X215656Y282129D01*
X215576Y282090D01*
X215498Y282047D01*
X215422Y282001D01*
X215347Y281951D01*
X215275Y281898D01*
X215206Y281842D01*
X215139Y281783D01*
X215074Y281722D01*
X215013Y281657D01*
X214954Y281590D01*
X214898Y281521D01*
X214845Y281449D01*
X214795Y281374D01*
X214749Y281298D01*
X214706Y281220D01*
X214667Y281140D01*
X214631Y281058D01*
X214598Y280975D01*
X214570Y280890D01*
X214545Y280805D01*
X214523Y280718D01*
X214506Y280630D01*
X214493Y280542D01*
X214483Y280453D01*
X214477Y280364D01*
X214475Y280275D01*
X214477Y280186D01*
X214483Y280097D01*
X214493Y280008D01*
X214506Y279920D01*
X214523Y279832D01*
X214545Y279745D01*
X214570Y279660D01*
X214598Y279575D01*
X214631Y279492D01*
X214667Y279410D01*
X214706Y279330D01*
X214749Y279252D01*
X214795Y279176D01*
X214845Y279101D01*
X214898Y279029D01*
X214954Y278960D01*
X215013Y278893D01*
X215074Y278828D01*
X215139Y278767D01*
X215206Y278708D01*
X215275Y278652D01*
X215347Y278599D01*
X215422Y278549D01*
X215498Y278503D01*
X215576Y278460D01*
X215656Y278421D01*
X215738Y278385D01*
X215821Y278352D01*
X215906Y278324D01*
X215991Y278299D01*
X216078Y278277D01*
X216166Y278260D01*
X216254Y278247D01*
X216343Y278237D01*
X216432Y278231D01*
X216521Y278229D01*
X218567Y278229D01*
X216112Y278229D02*
X214475Y274955D01*
X211043Y274955D02*
X207770Y274955D01*
X211043Y274955D02*
X211043Y282321D01*
X207770Y282321D01*
X208588Y279047D02*
X211043Y279047D01*
X204704Y282321D02*
X204704Y274955D01*
X204704Y282321D02*
X201430Y282321D01*
X201430Y279047D02*
X204704Y279047D01*
X198623Y280275D02*
X198623Y277001D01*
X198623Y280275D02*
X198621Y280364D01*
X198615Y280453D01*
X198605Y280542D01*
X198592Y280630D01*
X198575Y280718D01*
X198553Y280805D01*
X198528Y280890D01*
X198500Y280975D01*
X198467Y281058D01*
X198431Y281140D01*
X198392Y281220D01*
X198349Y281298D01*
X198303Y281374D01*
X198253Y281449D01*
X198200Y281521D01*
X198144Y281590D01*
X198085Y281657D01*
X198024Y281722D01*
X197959Y281783D01*
X197892Y281842D01*
X197823Y281898D01*
X197751Y281951D01*
X197676Y282001D01*
X197600Y282047D01*
X197522Y282090D01*
X197442Y282129D01*
X197360Y282165D01*
X197277Y282198D01*
X197192Y282226D01*
X197107Y282251D01*
X197020Y282273D01*
X196932Y282290D01*
X196844Y282303D01*
X196755Y282313D01*
X196666Y282319D01*
X196577Y282321D01*
X196488Y282319D01*
X196399Y282313D01*
X196310Y282303D01*
X196222Y282290D01*
X196134Y282273D01*
X196047Y282251D01*
X195962Y282226D01*
X195877Y282198D01*
X195794Y282165D01*
X195712Y282129D01*
X195632Y282090D01*
X195554Y282047D01*
X195478Y282001D01*
X195403Y281951D01*
X195331Y281898D01*
X195262Y281842D01*
X195195Y281783D01*
X195130Y281722D01*
X195069Y281657D01*
X195010Y281590D01*
X194954Y281521D01*
X194901Y281449D01*
X194851Y281374D01*
X194805Y281298D01*
X194762Y281220D01*
X194723Y281140D01*
X194687Y281058D01*
X194654Y280975D01*
X194626Y280890D01*
X194601Y280805D01*
X194579Y280718D01*
X194562Y280630D01*
X194549Y280542D01*
X194539Y280453D01*
X194533Y280364D01*
X194531Y280275D01*
X194531Y277001D01*
X194533Y276912D01*
X194539Y276823D01*
X194549Y276734D01*
X194562Y276646D01*
X194579Y276558D01*
X194601Y276471D01*
X194626Y276386D01*
X194654Y276301D01*
X194687Y276218D01*
X194723Y276136D01*
X194762Y276056D01*
X194805Y275978D01*
X194851Y275902D01*
X194901Y275827D01*
X194954Y275755D01*
X195010Y275686D01*
X195069Y275619D01*
X195130Y275554D01*
X195195Y275493D01*
X195262Y275434D01*
X195331Y275378D01*
X195403Y275325D01*
X195478Y275275D01*
X195554Y275229D01*
X195632Y275186D01*
X195712Y275147D01*
X195794Y275111D01*
X195877Y275078D01*
X195962Y275050D01*
X196047Y275025D01*
X196134Y275003D01*
X196222Y274986D01*
X196310Y274973D01*
X196399Y274963D01*
X196488Y274957D01*
X196577Y274955D01*
X196666Y274957D01*
X196755Y274963D01*
X196844Y274973D01*
X196932Y274986D01*
X197020Y275003D01*
X197107Y275025D01*
X197192Y275050D01*
X197277Y275078D01*
X197360Y275111D01*
X197442Y275147D01*
X197522Y275186D01*
X197600Y275229D01*
X197676Y275275D01*
X197751Y275325D01*
X197823Y275378D01*
X197892Y275434D01*
X197959Y275493D01*
X198024Y275554D01*
X198085Y275619D01*
X198144Y275686D01*
X198200Y275755D01*
X198253Y275827D01*
X198303Y275902D01*
X198349Y275978D01*
X198392Y276056D01*
X198431Y276136D01*
X198467Y276218D01*
X198500Y276301D01*
X198528Y276386D01*
X198553Y276471D01*
X198575Y276558D01*
X198592Y276646D01*
X198605Y276734D01*
X198615Y276823D01*
X198621Y276912D01*
X198623Y277001D01*
X191064Y277001D02*
X191064Y282321D01*
X191064Y277001D02*
X191062Y276912D01*
X191056Y276823D01*
X191046Y276734D01*
X191033Y276646D01*
X191016Y276558D01*
X190994Y276471D01*
X190969Y276386D01*
X190941Y276301D01*
X190908Y276218D01*
X190872Y276136D01*
X190833Y276056D01*
X190790Y275978D01*
X190744Y275902D01*
X190694Y275827D01*
X190641Y275755D01*
X190585Y275686D01*
X190526Y275619D01*
X190465Y275554D01*
X190400Y275493D01*
X190333Y275434D01*
X190264Y275378D01*
X190192Y275325D01*
X190117Y275275D01*
X190041Y275229D01*
X189963Y275186D01*
X189883Y275147D01*
X189801Y275111D01*
X189718Y275078D01*
X189633Y275050D01*
X189548Y275025D01*
X189461Y275003D01*
X189373Y274986D01*
X189285Y274973D01*
X189196Y274963D01*
X189107Y274957D01*
X189018Y274955D01*
X188929Y274957D01*
X188840Y274963D01*
X188751Y274973D01*
X188663Y274986D01*
X188575Y275003D01*
X188488Y275025D01*
X188403Y275050D01*
X188318Y275078D01*
X188235Y275111D01*
X188153Y275147D01*
X188073Y275186D01*
X187995Y275229D01*
X187919Y275275D01*
X187844Y275325D01*
X187772Y275378D01*
X187703Y275434D01*
X187636Y275493D01*
X187571Y275554D01*
X187510Y275619D01*
X187451Y275686D01*
X187395Y275755D01*
X187342Y275827D01*
X187292Y275902D01*
X187246Y275978D01*
X187203Y276056D01*
X187164Y276136D01*
X187128Y276218D01*
X187095Y276301D01*
X187067Y276386D01*
X187042Y276471D01*
X187020Y276558D01*
X187003Y276646D01*
X186990Y276734D01*
X186980Y276823D01*
X186974Y276912D01*
X186972Y277001D01*
X186972Y282321D01*
X181947Y282321D02*
X181947Y274955D01*
X183993Y282321D02*
X179901Y282321D01*
M02*
