G04 EAGLE Gerber RS-274X export*
G75*
%MOMM*%
%FSLAX34Y34*%
%LPD*%
%INSolderpaste Top*%
%IPPOS*%
%AMOC8*
5,1,8,0,0,1.08239X$1,22.5*%
G01*
%ADD10C,0.300000*%
%ADD11R,0.600000X0.700000*%
%ADD12R,0.700000X0.600000*%
%ADD13R,0.700000X0.900000*%
%ADD14R,0.900000X0.700000*%


D10*
X230100Y237600D02*
X230100Y220900D01*
X227100Y220900D01*
X227100Y237600D01*
X230100Y237600D01*
X230100Y223750D02*
X227100Y223750D01*
X227100Y226600D02*
X230100Y226600D01*
X230100Y229450D02*
X227100Y229450D01*
X227100Y232300D02*
X230100Y232300D01*
X230100Y235150D02*
X227100Y235150D01*
X242800Y237600D02*
X242800Y220900D01*
X239800Y220900D01*
X239800Y237600D01*
X242800Y237600D01*
X242800Y223750D02*
X239800Y223750D01*
X239800Y226600D02*
X242800Y226600D01*
X242800Y229450D02*
X239800Y229450D01*
X239800Y232300D02*
X242800Y232300D01*
X242800Y235150D02*
X239800Y235150D01*
X255500Y237600D02*
X255500Y220900D01*
X252500Y220900D01*
X252500Y237600D01*
X255500Y237600D01*
X255500Y223750D02*
X252500Y223750D01*
X252500Y226600D02*
X255500Y226600D01*
X255500Y229450D02*
X252500Y229450D01*
X252500Y232300D02*
X255500Y232300D01*
X255500Y235150D02*
X252500Y235150D01*
X268200Y237600D02*
X268200Y220900D01*
X265200Y220900D01*
X265200Y237600D01*
X268200Y237600D01*
X268200Y223750D02*
X265200Y223750D01*
X265200Y226600D02*
X268200Y226600D01*
X268200Y229450D02*
X265200Y229450D01*
X265200Y232300D02*
X268200Y232300D01*
X268200Y235150D02*
X265200Y235150D01*
X280900Y237600D02*
X280900Y220900D01*
X277900Y220900D01*
X277900Y237600D01*
X280900Y237600D01*
X280900Y223750D02*
X277900Y223750D01*
X277900Y226600D02*
X280900Y226600D01*
X280900Y229450D02*
X277900Y229450D01*
X277900Y232300D02*
X280900Y232300D01*
X280900Y235150D02*
X277900Y235150D01*
X293600Y237600D02*
X293600Y220900D01*
X290600Y220900D01*
X290600Y237600D01*
X293600Y237600D01*
X293600Y223750D02*
X290600Y223750D01*
X290600Y226600D02*
X293600Y226600D01*
X293600Y229450D02*
X290600Y229450D01*
X290600Y232300D02*
X293600Y232300D01*
X293600Y235150D02*
X290600Y235150D01*
X306300Y237600D02*
X306300Y220900D01*
X303300Y220900D01*
X303300Y237600D01*
X306300Y237600D01*
X306300Y223750D02*
X303300Y223750D01*
X303300Y226600D02*
X306300Y226600D01*
X306300Y229450D02*
X303300Y229450D01*
X303300Y232300D02*
X306300Y232300D01*
X306300Y235150D02*
X303300Y235150D01*
X306300Y270400D02*
X306300Y287100D01*
X306300Y270400D02*
X303300Y270400D01*
X303300Y287100D01*
X306300Y287100D01*
X306300Y273250D02*
X303300Y273250D01*
X303300Y276100D02*
X306300Y276100D01*
X306300Y278950D02*
X303300Y278950D01*
X303300Y281800D02*
X306300Y281800D01*
X306300Y284650D02*
X303300Y284650D01*
X293600Y287100D02*
X293600Y270400D01*
X290600Y270400D01*
X290600Y287100D01*
X293600Y287100D01*
X293600Y273250D02*
X290600Y273250D01*
X290600Y276100D02*
X293600Y276100D01*
X293600Y278950D02*
X290600Y278950D01*
X290600Y281800D02*
X293600Y281800D01*
X293600Y284650D02*
X290600Y284650D01*
X280900Y287100D02*
X280900Y270400D01*
X277900Y270400D01*
X277900Y287100D01*
X280900Y287100D01*
X280900Y273250D02*
X277900Y273250D01*
X277900Y276100D02*
X280900Y276100D01*
X280900Y278950D02*
X277900Y278950D01*
X277900Y281800D02*
X280900Y281800D01*
X280900Y284650D02*
X277900Y284650D01*
X268200Y287100D02*
X268200Y270400D01*
X265200Y270400D01*
X265200Y287100D01*
X268200Y287100D01*
X268200Y273250D02*
X265200Y273250D01*
X265200Y276100D02*
X268200Y276100D01*
X268200Y278950D02*
X265200Y278950D01*
X265200Y281800D02*
X268200Y281800D01*
X268200Y284650D02*
X265200Y284650D01*
X255500Y287100D02*
X255500Y270400D01*
X252500Y270400D01*
X252500Y287100D01*
X255500Y287100D01*
X255500Y273250D02*
X252500Y273250D01*
X252500Y276100D02*
X255500Y276100D01*
X255500Y278950D02*
X252500Y278950D01*
X252500Y281800D02*
X255500Y281800D01*
X255500Y284650D02*
X252500Y284650D01*
X242800Y287100D02*
X242800Y270400D01*
X239800Y270400D01*
X239800Y287100D01*
X242800Y287100D01*
X242800Y273250D02*
X239800Y273250D01*
X239800Y276100D02*
X242800Y276100D01*
X242800Y278950D02*
X239800Y278950D01*
X239800Y281800D02*
X242800Y281800D01*
X242800Y284650D02*
X239800Y284650D01*
X230100Y287100D02*
X230100Y270400D01*
X227100Y270400D01*
X227100Y287100D01*
X230100Y287100D01*
X230100Y273250D02*
X227100Y273250D01*
X227100Y276100D02*
X230100Y276100D01*
X230100Y278950D02*
X227100Y278950D01*
X227100Y281800D02*
X230100Y281800D01*
X230100Y284650D02*
X227100Y284650D01*
D11*
X214296Y233426D03*
X204296Y233426D03*
X252650Y210820D03*
X242650Y210820D03*
X228266Y210566D03*
X218266Y210566D03*
X204042Y244094D03*
X214042Y244094D03*
X282020Y297180D03*
X292020Y297180D03*
X257890Y297180D03*
X267890Y297180D03*
X214042Y254508D03*
X204042Y254508D03*
D12*
X202438Y293036D03*
X202438Y283036D03*
D13*
X199240Y265684D03*
X212240Y265684D03*
D14*
X213868Y293520D03*
X213868Y280520D03*
D13*
X279550Y210820D03*
X266550Y210820D03*
M02*
