G04 EAGLE Gerber RS-274X export*
G75*
%MOMM*%
%FSLAX34Y34*%
%LPD*%
%INBottom Copper*%
%IPPOS*%
%AMOC8*
5,1,8,0,0,1.08239X$1,22.5*%
G01*
%ADD10P,1.429621X8X112.500000*%
%ADD11P,1.429621X8X292.500000*%
%ADD12P,1.429621X8X22.500000*%
%ADD13C,1.524000*%
%ADD14P,1.732040X8X112.500000*%
%ADD15P,1.732040X8X202.500000*%
%ADD16P,3.436588X8X22.500000*%
%ADD17C,0.304800*%
%ADD18C,0.756400*%

G36*
X27458Y33024D02*
X27458Y33024D01*
X27484Y33022D01*
X27631Y33044D01*
X27778Y33061D01*
X27803Y33069D01*
X27829Y33073D01*
X27967Y33128D01*
X28106Y33178D01*
X28128Y33192D01*
X28153Y33202D01*
X28274Y33287D01*
X28399Y33367D01*
X28417Y33386D01*
X28439Y33401D01*
X28538Y33511D01*
X28641Y33618D01*
X28655Y33640D01*
X28672Y33660D01*
X28744Y33790D01*
X28820Y33917D01*
X28828Y33942D01*
X28841Y33965D01*
X28881Y34108D01*
X28926Y34249D01*
X28928Y34275D01*
X28936Y34300D01*
X28955Y34544D01*
X28955Y41189D01*
X30348Y44550D01*
X32920Y47122D01*
X36281Y48515D01*
X39919Y48515D01*
X43280Y47122D01*
X45852Y44550D01*
X47245Y41189D01*
X47245Y34544D01*
X47248Y34518D01*
X47246Y34492D01*
X47268Y34345D01*
X47285Y34198D01*
X47293Y34173D01*
X47297Y34147D01*
X47352Y34009D01*
X47402Y33870D01*
X47416Y33848D01*
X47426Y33823D01*
X47511Y33702D01*
X47591Y33577D01*
X47610Y33559D01*
X47625Y33537D01*
X47735Y33438D01*
X47842Y33335D01*
X47864Y33321D01*
X47884Y33304D01*
X48014Y33232D01*
X48141Y33156D01*
X48166Y33148D01*
X48189Y33135D01*
X48332Y33095D01*
X48473Y33050D01*
X48499Y33048D01*
X48524Y33040D01*
X48768Y33021D01*
X51816Y33021D01*
X51842Y33024D01*
X51868Y33022D01*
X52015Y33044D01*
X52162Y33061D01*
X52187Y33069D01*
X52213Y33073D01*
X52351Y33128D01*
X52490Y33178D01*
X52512Y33192D01*
X52537Y33202D01*
X52658Y33287D01*
X52783Y33367D01*
X52801Y33386D01*
X52823Y33401D01*
X52922Y33511D01*
X53025Y33618D01*
X53039Y33640D01*
X53056Y33660D01*
X53128Y33790D01*
X53204Y33917D01*
X53212Y33942D01*
X53225Y33965D01*
X53265Y34108D01*
X53310Y34249D01*
X53312Y34275D01*
X53320Y34300D01*
X53339Y34544D01*
X53339Y40170D01*
X53589Y41749D01*
X54084Y43270D01*
X54810Y44695D01*
X55750Y45989D01*
X56881Y47120D01*
X58175Y48060D01*
X59600Y48786D01*
X60961Y49229D01*
X60961Y34544D01*
X60964Y34518D01*
X60962Y34492D01*
X60984Y34345D01*
X61001Y34198D01*
X61009Y34173D01*
X61013Y34147D01*
X61068Y34009D01*
X61118Y33870D01*
X61132Y33848D01*
X61142Y33823D01*
X61227Y33702D01*
X61307Y33577D01*
X61326Y33559D01*
X61341Y33537D01*
X61451Y33438D01*
X61558Y33335D01*
X61580Y33321D01*
X61600Y33304D01*
X61730Y33232D01*
X61857Y33156D01*
X61882Y33148D01*
X61905Y33135D01*
X62048Y33095D01*
X62189Y33050D01*
X62215Y33048D01*
X62240Y33040D01*
X62484Y33021D01*
X64516Y33021D01*
X64542Y33024D01*
X64568Y33022D01*
X64715Y33044D01*
X64862Y33061D01*
X64887Y33069D01*
X64913Y33073D01*
X65051Y33128D01*
X65190Y33178D01*
X65212Y33192D01*
X65237Y33202D01*
X65358Y33287D01*
X65483Y33367D01*
X65501Y33386D01*
X65523Y33401D01*
X65622Y33511D01*
X65725Y33618D01*
X65739Y33640D01*
X65756Y33660D01*
X65828Y33790D01*
X65904Y33917D01*
X65912Y33942D01*
X65925Y33965D01*
X65965Y34108D01*
X66010Y34249D01*
X66012Y34275D01*
X66020Y34300D01*
X66039Y34544D01*
X66039Y49229D01*
X67400Y48786D01*
X68825Y48060D01*
X70119Y47120D01*
X71250Y45989D01*
X72190Y44695D01*
X72916Y43270D01*
X73411Y41749D01*
X73661Y40170D01*
X73661Y34544D01*
X73664Y34518D01*
X73662Y34492D01*
X73684Y34345D01*
X73701Y34198D01*
X73709Y34173D01*
X73713Y34147D01*
X73768Y34009D01*
X73818Y33870D01*
X73832Y33848D01*
X73842Y33823D01*
X73927Y33702D01*
X74007Y33577D01*
X74026Y33559D01*
X74041Y33537D01*
X74151Y33438D01*
X74258Y33335D01*
X74280Y33321D01*
X74300Y33304D01*
X74430Y33232D01*
X74557Y33156D01*
X74582Y33148D01*
X74605Y33135D01*
X74748Y33095D01*
X74889Y33050D01*
X74915Y33048D01*
X74940Y33040D01*
X75184Y33021D01*
X78232Y33021D01*
X78258Y33024D01*
X78284Y33022D01*
X78431Y33044D01*
X78578Y33061D01*
X78603Y33069D01*
X78629Y33073D01*
X78767Y33128D01*
X78906Y33178D01*
X78928Y33192D01*
X78953Y33202D01*
X79074Y33287D01*
X79199Y33367D01*
X79217Y33386D01*
X79239Y33401D01*
X79338Y33511D01*
X79441Y33618D01*
X79455Y33640D01*
X79472Y33660D01*
X79544Y33790D01*
X79620Y33917D01*
X79628Y33942D01*
X79641Y33965D01*
X79681Y34108D01*
X79726Y34249D01*
X79728Y34275D01*
X79736Y34300D01*
X79755Y34544D01*
X79755Y41189D01*
X81148Y44550D01*
X83720Y47122D01*
X87081Y48515D01*
X90719Y48515D01*
X94080Y47122D01*
X96652Y44550D01*
X98045Y41189D01*
X98045Y34544D01*
X98048Y34518D01*
X98046Y34492D01*
X98068Y34345D01*
X98085Y34198D01*
X98093Y34173D01*
X98097Y34147D01*
X98152Y34009D01*
X98202Y33870D01*
X98216Y33848D01*
X98226Y33823D01*
X98311Y33702D01*
X98391Y33577D01*
X98410Y33559D01*
X98425Y33537D01*
X98535Y33438D01*
X98642Y33335D01*
X98664Y33321D01*
X98684Y33304D01*
X98814Y33232D01*
X98941Y33156D01*
X98966Y33148D01*
X98989Y33135D01*
X99132Y33095D01*
X99273Y33050D01*
X99299Y33048D01*
X99324Y33040D01*
X99568Y33021D01*
X103632Y33021D01*
X103658Y33024D01*
X103684Y33022D01*
X103831Y33044D01*
X103978Y33061D01*
X104003Y33069D01*
X104029Y33073D01*
X104167Y33128D01*
X104306Y33178D01*
X104328Y33192D01*
X104353Y33202D01*
X104474Y33287D01*
X104599Y33367D01*
X104617Y33386D01*
X104639Y33401D01*
X104738Y33511D01*
X104841Y33618D01*
X104855Y33640D01*
X104872Y33660D01*
X104944Y33790D01*
X105020Y33917D01*
X105028Y33942D01*
X105041Y33965D01*
X105081Y34108D01*
X105126Y34249D01*
X105128Y34275D01*
X105136Y34300D01*
X105155Y34544D01*
X105155Y84201D01*
X105152Y84227D01*
X105154Y84253D01*
X105132Y84400D01*
X105115Y84547D01*
X105107Y84572D01*
X105103Y84598D01*
X105048Y84736D01*
X104998Y84875D01*
X104984Y84897D01*
X104974Y84922D01*
X104889Y85043D01*
X104809Y85168D01*
X104790Y85186D01*
X104775Y85208D01*
X104665Y85307D01*
X104558Y85410D01*
X104536Y85424D01*
X104516Y85441D01*
X104386Y85513D01*
X104259Y85589D01*
X104234Y85597D01*
X104211Y85610D01*
X104068Y85650D01*
X103927Y85695D01*
X103901Y85697D01*
X103876Y85705D01*
X103632Y85724D01*
X100194Y85724D01*
X94614Y91304D01*
X94614Y99196D01*
X100194Y104776D01*
X103632Y104776D01*
X103658Y104779D01*
X103684Y104777D01*
X103831Y104799D01*
X103978Y104816D01*
X104003Y104824D01*
X104029Y104828D01*
X104167Y104883D01*
X104306Y104933D01*
X104328Y104947D01*
X104353Y104957D01*
X104474Y105042D01*
X104599Y105122D01*
X104617Y105141D01*
X104639Y105156D01*
X104738Y105266D01*
X104841Y105373D01*
X104855Y105395D01*
X104872Y105415D01*
X104944Y105545D01*
X105020Y105672D01*
X105028Y105697D01*
X105041Y105720D01*
X105081Y105863D01*
X105126Y106004D01*
X105128Y106030D01*
X105136Y106055D01*
X105155Y106299D01*
X105155Y109601D01*
X105152Y109627D01*
X105154Y109653D01*
X105132Y109800D01*
X105115Y109947D01*
X105107Y109972D01*
X105103Y109998D01*
X105048Y110136D01*
X104998Y110275D01*
X104984Y110297D01*
X104974Y110322D01*
X104889Y110443D01*
X104809Y110568D01*
X104790Y110586D01*
X104775Y110608D01*
X104665Y110707D01*
X104558Y110810D01*
X104536Y110824D01*
X104516Y110841D01*
X104386Y110913D01*
X104259Y110989D01*
X104234Y110997D01*
X104211Y111010D01*
X104068Y111050D01*
X103927Y111095D01*
X103901Y111097D01*
X103876Y111105D01*
X103632Y111124D01*
X100194Y111124D01*
X94614Y116704D01*
X94614Y124596D01*
X100194Y130176D01*
X101031Y130176D01*
X101131Y130187D01*
X101231Y130189D01*
X101303Y130207D01*
X101377Y130216D01*
X101472Y130249D01*
X101569Y130274D01*
X101635Y130308D01*
X101705Y130333D01*
X101790Y130388D01*
X101879Y130434D01*
X101936Y130482D01*
X101998Y130522D01*
X102068Y130594D01*
X102144Y130659D01*
X102189Y130719D01*
X102240Y130773D01*
X102292Y130859D01*
X102352Y130940D01*
X102381Y131008D01*
X102419Y131072D01*
X102450Y131168D01*
X102490Y131260D01*
X102503Y131333D01*
X102525Y131404D01*
X102534Y131504D01*
X102551Y131603D01*
X102547Y131677D01*
X102553Y131751D01*
X102539Y131851D01*
X102533Y131951D01*
X102513Y132022D01*
X102502Y132096D01*
X102465Y132189D01*
X102437Y132286D01*
X102400Y132351D01*
X102373Y132420D01*
X102316Y132502D01*
X102267Y132590D01*
X102202Y132666D01*
X102174Y132706D01*
X102148Y132730D01*
X102108Y132776D01*
X97281Y137603D01*
X97281Y144337D01*
X102043Y149099D01*
X103632Y149099D01*
X103658Y149102D01*
X103684Y149100D01*
X103831Y149122D01*
X103978Y149139D01*
X104003Y149147D01*
X104029Y149151D01*
X104167Y149206D01*
X104306Y149256D01*
X104328Y149270D01*
X104353Y149280D01*
X104474Y149365D01*
X104599Y149445D01*
X104617Y149464D01*
X104639Y149479D01*
X104738Y149589D01*
X104841Y149696D01*
X104855Y149718D01*
X104872Y149738D01*
X104944Y149868D01*
X105020Y149995D01*
X105028Y150020D01*
X105041Y150043D01*
X105081Y150186D01*
X105126Y150327D01*
X105128Y150353D01*
X105136Y150378D01*
X105155Y150622D01*
X105155Y182118D01*
X105152Y182144D01*
X105154Y182170D01*
X105132Y182317D01*
X105115Y182464D01*
X105107Y182489D01*
X105103Y182515D01*
X105048Y182653D01*
X104998Y182792D01*
X104984Y182814D01*
X104974Y182839D01*
X104889Y182960D01*
X104809Y183085D01*
X104790Y183103D01*
X104775Y183125D01*
X104665Y183224D01*
X104558Y183327D01*
X104536Y183341D01*
X104516Y183358D01*
X104386Y183430D01*
X104259Y183506D01*
X104234Y183514D01*
X104211Y183527D01*
X104068Y183567D01*
X103927Y183612D01*
X103901Y183614D01*
X103876Y183622D01*
X103632Y183641D01*
X102043Y183641D01*
X97281Y188403D01*
X97281Y195137D01*
X102043Y199899D01*
X103632Y199899D01*
X103658Y199902D01*
X103684Y199900D01*
X103831Y199922D01*
X103978Y199939D01*
X104003Y199947D01*
X104029Y199951D01*
X104167Y200006D01*
X104306Y200056D01*
X104328Y200070D01*
X104353Y200080D01*
X104474Y200165D01*
X104599Y200245D01*
X104617Y200264D01*
X104639Y200279D01*
X104738Y200389D01*
X104841Y200496D01*
X104855Y200518D01*
X104872Y200538D01*
X104944Y200668D01*
X105020Y200795D01*
X105028Y200820D01*
X105041Y200843D01*
X105081Y200986D01*
X105126Y201127D01*
X105128Y201153D01*
X105136Y201178D01*
X105155Y201422D01*
X105155Y226060D01*
X105150Y226102D01*
X105151Y226180D01*
X105032Y227689D01*
X105021Y227745D01*
X105019Y227803D01*
X104968Y228014D01*
X104965Y228031D01*
X104963Y228035D01*
X104962Y228041D01*
X104029Y230913D01*
X103980Y231019D01*
X103940Y231128D01*
X103901Y231192D01*
X103884Y231230D01*
X103857Y231265D01*
X103812Y231337D01*
X102037Y233780D01*
X101958Y233866D01*
X101886Y233958D01*
X101830Y234007D01*
X101802Y234037D01*
X101765Y234062D01*
X101700Y234117D01*
X99257Y235892D01*
X99156Y235950D01*
X99058Y236015D01*
X98990Y236043D01*
X98954Y236064D01*
X98911Y236076D01*
X98833Y236109D01*
X95961Y237042D01*
X95905Y237053D01*
X95851Y237073D01*
X95637Y237107D01*
X95619Y237111D01*
X95615Y237111D01*
X95609Y237112D01*
X94100Y237231D01*
X94057Y237229D01*
X93980Y237235D01*
X80899Y237235D01*
X80873Y237232D01*
X80847Y237234D01*
X80700Y237212D01*
X80553Y237195D01*
X80528Y237187D01*
X80502Y237183D01*
X80364Y237128D01*
X80225Y237078D01*
X80203Y237064D01*
X80178Y237054D01*
X80057Y236969D01*
X79932Y236889D01*
X79914Y236870D01*
X79892Y236855D01*
X79793Y236745D01*
X79690Y236638D01*
X79676Y236616D01*
X79659Y236596D01*
X79587Y236466D01*
X79511Y236339D01*
X79503Y236314D01*
X79490Y236291D01*
X79450Y236148D01*
X79405Y236007D01*
X79403Y235981D01*
X79395Y235956D01*
X79376Y235712D01*
X79376Y231045D01*
X69183Y220852D01*
X54769Y220852D01*
X44576Y231045D01*
X44576Y235712D01*
X44573Y235738D01*
X44575Y235764D01*
X44553Y235911D01*
X44536Y236058D01*
X44528Y236083D01*
X44524Y236109D01*
X44469Y236247D01*
X44419Y236386D01*
X44405Y236408D01*
X44395Y236433D01*
X44310Y236554D01*
X44230Y236679D01*
X44211Y236697D01*
X44196Y236719D01*
X44086Y236818D01*
X43979Y236921D01*
X43957Y236935D01*
X43937Y236952D01*
X43807Y237024D01*
X43680Y237100D01*
X43655Y237108D01*
X43632Y237121D01*
X43489Y237161D01*
X43348Y237206D01*
X43322Y237208D01*
X43297Y237216D01*
X43053Y237235D01*
X35560Y237235D01*
X35524Y237231D01*
X35460Y237232D01*
X33869Y237128D01*
X33842Y237123D01*
X33815Y237123D01*
X33574Y237079D01*
X30500Y236255D01*
X30428Y236227D01*
X30354Y236208D01*
X30220Y236145D01*
X30176Y236127D01*
X30160Y236116D01*
X30133Y236103D01*
X27376Y234512D01*
X27314Y234466D01*
X27247Y234428D01*
X27135Y234332D01*
X27096Y234304D01*
X27084Y234289D01*
X27061Y234270D01*
X24810Y232019D01*
X24762Y231959D01*
X24707Y231905D01*
X24623Y231783D01*
X24594Y231746D01*
X24585Y231728D01*
X24568Y231704D01*
X22977Y228947D01*
X22946Y228877D01*
X22907Y228810D01*
X22857Y228671D01*
X22838Y228628D01*
X22835Y228608D01*
X22825Y228580D01*
X22001Y225506D01*
X21997Y225479D01*
X21988Y225453D01*
X21952Y225211D01*
X21848Y223620D01*
X21850Y223583D01*
X21845Y223520D01*
X21845Y214376D01*
X21848Y214350D01*
X21846Y214324D01*
X21868Y214177D01*
X21885Y214030D01*
X21893Y214005D01*
X21897Y213979D01*
X21952Y213841D01*
X22002Y213702D01*
X22016Y213680D01*
X22026Y213655D01*
X22111Y213534D01*
X22191Y213409D01*
X22210Y213391D01*
X22225Y213369D01*
X22335Y213270D01*
X22442Y213167D01*
X22464Y213153D01*
X22484Y213136D01*
X22614Y213064D01*
X22741Y212988D01*
X22766Y212980D01*
X22789Y212967D01*
X22932Y212927D01*
X23073Y212882D01*
X23099Y212880D01*
X23124Y212872D01*
X23368Y212853D01*
X28259Y212853D01*
X33021Y208091D01*
X33021Y201357D01*
X28259Y196595D01*
X23368Y196595D01*
X23342Y196592D01*
X23316Y196594D01*
X23169Y196572D01*
X23022Y196555D01*
X22997Y196547D01*
X22971Y196543D01*
X22833Y196488D01*
X22694Y196438D01*
X22672Y196424D01*
X22647Y196414D01*
X22526Y196329D01*
X22401Y196249D01*
X22383Y196230D01*
X22361Y196215D01*
X22262Y196105D01*
X22159Y195998D01*
X22145Y195976D01*
X22128Y195956D01*
X22056Y195826D01*
X21980Y195699D01*
X21972Y195674D01*
X21959Y195651D01*
X21919Y195508D01*
X21874Y195367D01*
X21872Y195341D01*
X21864Y195316D01*
X21845Y195072D01*
X21845Y107315D01*
X21848Y107289D01*
X21846Y107263D01*
X21868Y107116D01*
X21885Y106969D01*
X21893Y106944D01*
X21897Y106918D01*
X21952Y106780D01*
X22002Y106641D01*
X22016Y106619D01*
X22026Y106594D01*
X22111Y106473D01*
X22191Y106348D01*
X22210Y106330D01*
X22225Y106308D01*
X22335Y106209D01*
X22442Y106106D01*
X22464Y106092D01*
X22484Y106075D01*
X22614Y106003D01*
X22741Y105927D01*
X22766Y105919D01*
X22789Y105906D01*
X22932Y105866D01*
X23073Y105821D01*
X23099Y105819D01*
X23124Y105811D01*
X23368Y105792D01*
X24639Y105792D01*
X24639Y95758D01*
X24642Y95732D01*
X24640Y95706D01*
X24662Y95559D01*
X24679Y95412D01*
X24687Y95387D01*
X24691Y95361D01*
X24734Y95254D01*
X24713Y95178D01*
X24668Y95037D01*
X24665Y95011D01*
X24658Y94986D01*
X24639Y94742D01*
X24639Y84708D01*
X23368Y84708D01*
X23342Y84705D01*
X23316Y84707D01*
X23169Y84685D01*
X23022Y84668D01*
X22997Y84660D01*
X22971Y84656D01*
X22833Y84601D01*
X22694Y84551D01*
X22672Y84537D01*
X22647Y84527D01*
X22526Y84442D01*
X22401Y84362D01*
X22383Y84343D01*
X22361Y84328D01*
X22262Y84218D01*
X22159Y84111D01*
X22145Y84089D01*
X22128Y84069D01*
X22056Y83939D01*
X21980Y83812D01*
X21972Y83787D01*
X21959Y83764D01*
X21919Y83621D01*
X21874Y83480D01*
X21872Y83454D01*
X21864Y83429D01*
X21845Y83185D01*
X21845Y34544D01*
X21848Y34518D01*
X21846Y34492D01*
X21868Y34345D01*
X21885Y34198D01*
X21893Y34173D01*
X21897Y34147D01*
X21952Y34009D01*
X22002Y33870D01*
X22016Y33848D01*
X22026Y33823D01*
X22111Y33702D01*
X22191Y33577D01*
X22210Y33559D01*
X22225Y33537D01*
X22335Y33438D01*
X22442Y33335D01*
X22464Y33321D01*
X22484Y33304D01*
X22614Y33232D01*
X22741Y33156D01*
X22766Y33148D01*
X22789Y33135D01*
X22932Y33095D01*
X23073Y33050D01*
X23099Y33048D01*
X23124Y33040D01*
X23368Y33021D01*
X27432Y33021D01*
X27458Y33024D01*
G37*
%LPC*%
G36*
X76643Y123951D02*
X76643Y123951D01*
X71881Y128713D01*
X71881Y135447D01*
X76784Y140350D01*
X76830Y140366D01*
X76914Y140421D01*
X77004Y140467D01*
X77060Y140515D01*
X77123Y140555D01*
X77192Y140627D01*
X77269Y140692D01*
X77313Y140752D01*
X77365Y140806D01*
X77416Y140892D01*
X77476Y140973D01*
X77506Y141041D01*
X77544Y141105D01*
X77574Y141201D01*
X77614Y141293D01*
X77627Y141366D01*
X77650Y141437D01*
X77658Y141537D01*
X77676Y141636D01*
X77672Y141710D01*
X77678Y141784D01*
X77663Y141884D01*
X77658Y141984D01*
X77637Y142055D01*
X77626Y142129D01*
X77589Y142222D01*
X77561Y142319D01*
X77525Y142384D01*
X77498Y142453D01*
X77440Y142535D01*
X77391Y142623D01*
X77326Y142699D01*
X77299Y142739D01*
X77272Y142763D01*
X77233Y142809D01*
X70738Y149303D01*
X70738Y151639D01*
X80772Y151639D01*
X80798Y151642D01*
X80824Y151640D01*
X80971Y151662D01*
X81118Y151679D01*
X81143Y151687D01*
X81169Y151691D01*
X81276Y151734D01*
X81352Y151713D01*
X81493Y151668D01*
X81519Y151665D01*
X81544Y151658D01*
X81788Y151639D01*
X91822Y151639D01*
X91822Y149303D01*
X85647Y143128D01*
X84135Y143128D01*
X84035Y143117D01*
X83935Y143115D01*
X83863Y143097D01*
X83789Y143088D01*
X83694Y143055D01*
X83597Y143030D01*
X83531Y142996D01*
X83461Y142971D01*
X83376Y142916D01*
X83287Y142870D01*
X83230Y142822D01*
X83168Y142782D01*
X83098Y142710D01*
X83022Y142645D01*
X82977Y142585D01*
X82926Y142531D01*
X82874Y142445D01*
X82814Y142364D01*
X82785Y142296D01*
X82747Y142232D01*
X82716Y142136D01*
X82676Y142044D01*
X82663Y141971D01*
X82641Y141900D01*
X82632Y141800D01*
X82615Y141701D01*
X82619Y141627D01*
X82613Y141553D01*
X82627Y141453D01*
X82633Y141353D01*
X82653Y141282D01*
X82664Y141208D01*
X82701Y141115D01*
X82729Y141018D01*
X82766Y140953D01*
X82793Y140884D01*
X82850Y140802D01*
X82899Y140714D01*
X82964Y140638D01*
X82992Y140598D01*
X83018Y140574D01*
X83058Y140528D01*
X88139Y135447D01*
X88139Y128713D01*
X83377Y123951D01*
X76643Y123951D01*
G37*
%LPD*%
%LPC*%
G36*
X77334Y169544D02*
X77334Y169544D01*
X71754Y175124D01*
X71754Y183016D01*
X77334Y188596D01*
X85226Y188596D01*
X90806Y183016D01*
X90806Y175124D01*
X85226Y169544D01*
X77334Y169544D01*
G37*
%LPD*%
%LPC*%
G36*
X48124Y85724D02*
X48124Y85724D01*
X42544Y91304D01*
X42544Y99196D01*
X48124Y104776D01*
X56016Y104776D01*
X61596Y99196D01*
X61596Y91304D01*
X56016Y85724D01*
X48124Y85724D01*
G37*
%LPD*%
%LPC*%
G36*
X72325Y196595D02*
X72325Y196595D01*
X67563Y201357D01*
X67563Y208091D01*
X72325Y212853D01*
X79059Y212853D01*
X83821Y208091D01*
X83821Y201357D01*
X79059Y196595D01*
X72325Y196595D01*
G37*
%LPD*%
%LPC*%
G36*
X28701Y97281D02*
X28701Y97281D01*
X28701Y105792D01*
X31037Y105792D01*
X37212Y99617D01*
X37212Y97281D01*
X28701Y97281D01*
G37*
%LPD*%
%LPC*%
G36*
X83311Y155701D02*
X83311Y155701D01*
X83311Y164212D01*
X85647Y164212D01*
X91822Y158037D01*
X91822Y155701D01*
X83311Y155701D01*
G37*
%LPD*%
%LPC*%
G36*
X70738Y155701D02*
X70738Y155701D01*
X70738Y158037D01*
X76913Y164212D01*
X79249Y164212D01*
X79249Y155701D01*
X70738Y155701D01*
G37*
%LPD*%
%LPC*%
G36*
X28701Y84708D02*
X28701Y84708D01*
X28701Y93219D01*
X37212Y93219D01*
X37212Y90883D01*
X31037Y84708D01*
X28701Y84708D01*
G37*
%LPD*%
%LPC*%
G36*
X82041Y83311D02*
X82041Y83311D01*
X82041Y90425D01*
X83798Y90425D01*
X89155Y85068D01*
X89155Y83311D01*
X82041Y83311D01*
G37*
%LPD*%
%LPC*%
G36*
X82041Y79249D02*
X82041Y79249D01*
X89155Y79249D01*
X89155Y77492D01*
X83798Y72135D01*
X82041Y72135D01*
X82041Y79249D01*
G37*
%LPD*%
%LPC*%
G36*
X70865Y83311D02*
X70865Y83311D01*
X70865Y85068D01*
X76222Y90425D01*
X77979Y90425D01*
X77979Y83311D01*
X70865Y83311D01*
G37*
%LPD*%
%LPC*%
G36*
X76222Y72135D02*
X76222Y72135D01*
X70865Y77492D01*
X70865Y79249D01*
X77979Y79249D01*
X77979Y72135D01*
X76222Y72135D01*
G37*
%LPD*%
D10*
X80010Y81280D03*
X80010Y132080D03*
D11*
X105410Y191770D03*
X105410Y140970D03*
D12*
X24892Y204724D03*
X75692Y204724D03*
D13*
X88900Y39370D02*
X88900Y24130D01*
X63500Y24130D02*
X63500Y39370D01*
X38100Y39370D02*
X38100Y24130D01*
D14*
X81280Y153670D03*
X81280Y179070D03*
X104140Y95250D03*
X104140Y120650D03*
D15*
X52070Y95250D03*
X26670Y95250D03*
D16*
X61976Y238252D03*
D17*
X82230Y153670D02*
X89662Y146238D01*
X82230Y153670D02*
X81280Y153670D01*
X89662Y146238D02*
X89662Y90932D01*
X80010Y81280D01*
X72559Y73829D01*
X48091Y73829D02*
X26670Y95250D01*
X48091Y73829D02*
X70019Y73829D01*
X72559Y73829D01*
X70019Y73829D02*
X63500Y67310D01*
X63500Y31750D01*
D18*
X97790Y210312D03*
M02*
