G04 EAGLE Gerber RS-274X export*
G75*
%MOMM*%
%FSLAX34Y34*%
%LPD*%
%IN*%
%IPPOS*%
%AMOC8*
5,1,8,0,0,1.08239X$1,22.5*%
G01*
%ADD10C,0.254000*%


D10*
X10160Y28956D02*
X10189Y28292D01*
X10276Y27633D01*
X10420Y26984D01*
X10620Y26350D01*
X10874Y25736D01*
X11181Y25146D01*
X11538Y24585D01*
X11943Y24058D01*
X12392Y23568D01*
X12882Y23119D01*
X13409Y22714D01*
X13970Y22357D01*
X14560Y22050D01*
X15174Y21796D01*
X15808Y21596D01*
X16457Y21452D01*
X17116Y21365D01*
X17780Y21336D01*
X109220Y21336D01*
X109884Y21365D01*
X110543Y21452D01*
X111192Y21596D01*
X111826Y21796D01*
X112440Y22050D01*
X113030Y22357D01*
X113591Y22714D01*
X114118Y23119D01*
X114608Y23568D01*
X115057Y24058D01*
X115462Y24585D01*
X115819Y25146D01*
X116126Y25736D01*
X116380Y26350D01*
X116580Y26984D01*
X116724Y27633D01*
X116811Y28292D01*
X116840Y28956D01*
X116840Y226060D01*
X116753Y228052D01*
X116493Y230030D01*
X116061Y231977D01*
X115461Y233879D01*
X114698Y235721D01*
X113777Y237490D01*
X112706Y239172D01*
X111492Y240754D01*
X110144Y242224D01*
X108674Y243572D01*
X107092Y244786D01*
X105410Y245857D01*
X103641Y246778D01*
X101799Y247541D01*
X99897Y248141D01*
X97950Y248573D01*
X95972Y248833D01*
X93980Y248920D01*
X35560Y248920D01*
X33346Y248823D01*
X31149Y248534D01*
X28986Y248055D01*
X26873Y247388D01*
X24826Y246540D01*
X22860Y245517D01*
X20991Y244326D01*
X19233Y242978D01*
X17600Y241481D01*
X16102Y239847D01*
X14754Y238089D01*
X13563Y236220D01*
X12540Y234255D01*
X11692Y232207D01*
X11025Y230094D01*
X10546Y227931D01*
X10257Y225734D01*
X10160Y223520D01*
X10160Y28956D01*
M02*
