G04 EAGLE Gerber RS-274X export*
G75*
%MOMM*%
%FSLAX34Y34*%
%LPD*%
%IN*%
%IPPOS*%
%AMOC8*
5,1,8,0,0,1.08239X$1,22.5*%
G01*
%ADD10C,0.254000*%


D10*
X10160Y19050D02*
X10189Y18386D01*
X10276Y17727D01*
X10420Y17078D01*
X10620Y16444D01*
X10874Y15830D01*
X11181Y15240D01*
X11538Y14679D01*
X11943Y14152D01*
X12392Y13662D01*
X12882Y13213D01*
X13409Y12808D01*
X13970Y12451D01*
X14560Y12144D01*
X15174Y11890D01*
X15808Y11690D01*
X16457Y11546D01*
X17116Y11459D01*
X17780Y11430D01*
X109220Y11430D01*
X109884Y11459D01*
X110543Y11546D01*
X111192Y11690D01*
X111826Y11890D01*
X112440Y12144D01*
X113030Y12451D01*
X113591Y12808D01*
X114118Y13213D01*
X114608Y13662D01*
X115057Y14152D01*
X115462Y14679D01*
X115819Y15240D01*
X116126Y15830D01*
X116380Y16444D01*
X116580Y17078D01*
X116724Y17727D01*
X116811Y18386D01*
X116840Y19050D01*
X116840Y231140D01*
X116753Y233132D01*
X116493Y235110D01*
X116061Y237057D01*
X115461Y238959D01*
X114698Y240801D01*
X113777Y242570D01*
X112706Y244252D01*
X111492Y245834D01*
X110144Y247304D01*
X108674Y248652D01*
X107092Y249866D01*
X105410Y250937D01*
X103641Y251858D01*
X101799Y252621D01*
X99897Y253221D01*
X97950Y253653D01*
X95972Y253913D01*
X93980Y254000D01*
X35560Y254000D01*
X33346Y253903D01*
X31149Y253614D01*
X28986Y253135D01*
X26873Y252468D01*
X24826Y251620D01*
X22860Y250597D01*
X20991Y249406D01*
X19233Y248058D01*
X17600Y246561D01*
X16102Y244927D01*
X14754Y243169D01*
X13563Y241300D01*
X12540Y239335D01*
X11692Y237287D01*
X11025Y235174D01*
X10546Y233011D01*
X10257Y230814D01*
X10160Y228600D01*
X10160Y19050D01*
M02*
