G04 EAGLE Gerber RS-274X export*
G75*
%MOMM*%
%FSLAX34Y34*%
%LPD*%
%INSilkscreen Top*%
%IPPOS*%
%AMOC8*
5,1,8,0,0,1.08239X$1,22.5*%
G01*
%ADD10C,0.152400*%
%ADD11C,0.076200*%
%ADD12C,0.101600*%
%ADD13C,0.254000*%
%ADD14C,0.127000*%
%ADD15C,0.200000*%


D10*
X83848Y243078D02*
X83848Y226822D01*
X82042Y226822D02*
X85654Y226822D01*
X85654Y243078D02*
X82042Y243078D01*
X92359Y243078D02*
X92359Y226822D01*
X101390Y226822D02*
X92359Y243078D01*
X101390Y243078D02*
X101390Y226822D01*
D11*
X15621Y57968D02*
X15621Y53792D01*
X15621Y57968D02*
X15623Y58069D01*
X15629Y58170D01*
X15639Y58271D01*
X15652Y58371D01*
X15670Y58471D01*
X15691Y58570D01*
X15717Y58668D01*
X15746Y58765D01*
X15778Y58861D01*
X15815Y58955D01*
X15855Y59048D01*
X15899Y59140D01*
X15946Y59229D01*
X15997Y59317D01*
X16051Y59403D01*
X16108Y59486D01*
X16168Y59568D01*
X16232Y59646D01*
X16298Y59723D01*
X16368Y59796D01*
X16440Y59867D01*
X16515Y59935D01*
X16593Y60000D01*
X16673Y60062D01*
X16755Y60121D01*
X16840Y60177D01*
X16927Y60229D01*
X17015Y60278D01*
X17106Y60324D01*
X17198Y60365D01*
X17292Y60404D01*
X17387Y60438D01*
X17483Y60469D01*
X17581Y60496D01*
X17679Y60520D01*
X17779Y60539D01*
X17879Y60555D01*
X17979Y60567D01*
X18080Y60575D01*
X18181Y60579D01*
X18283Y60579D01*
X18384Y60575D01*
X18485Y60567D01*
X18585Y60555D01*
X18685Y60539D01*
X18785Y60520D01*
X18883Y60496D01*
X18981Y60469D01*
X19077Y60438D01*
X19172Y60404D01*
X19266Y60365D01*
X19358Y60324D01*
X19449Y60278D01*
X19538Y60229D01*
X19624Y60177D01*
X19709Y60121D01*
X19791Y60062D01*
X19871Y60000D01*
X19949Y59935D01*
X20024Y59867D01*
X20096Y59796D01*
X20166Y59723D01*
X20232Y59646D01*
X20296Y59568D01*
X20356Y59486D01*
X20413Y59403D01*
X20467Y59317D01*
X20518Y59229D01*
X20565Y59140D01*
X20609Y59048D01*
X20649Y58955D01*
X20686Y58861D01*
X20718Y58765D01*
X20747Y58668D01*
X20773Y58570D01*
X20794Y58471D01*
X20812Y58371D01*
X20825Y58271D01*
X20835Y58170D01*
X20841Y58069D01*
X20843Y57968D01*
X20842Y57968D02*
X20842Y53792D01*
X20843Y53792D02*
X20841Y53691D01*
X20835Y53590D01*
X20825Y53489D01*
X20812Y53389D01*
X20794Y53289D01*
X20773Y53190D01*
X20747Y53092D01*
X20718Y52995D01*
X20686Y52899D01*
X20649Y52805D01*
X20609Y52712D01*
X20565Y52620D01*
X20518Y52531D01*
X20467Y52443D01*
X20413Y52357D01*
X20356Y52274D01*
X20296Y52192D01*
X20232Y52114D01*
X20166Y52037D01*
X20096Y51964D01*
X20024Y51893D01*
X19949Y51825D01*
X19871Y51760D01*
X19791Y51698D01*
X19709Y51639D01*
X19624Y51583D01*
X19537Y51531D01*
X19449Y51482D01*
X19358Y51436D01*
X19266Y51395D01*
X19172Y51356D01*
X19077Y51322D01*
X18981Y51291D01*
X18883Y51264D01*
X18785Y51240D01*
X18685Y51221D01*
X18585Y51205D01*
X18485Y51193D01*
X18384Y51185D01*
X18283Y51181D01*
X18181Y51181D01*
X18080Y51185D01*
X17979Y51193D01*
X17879Y51205D01*
X17779Y51221D01*
X17679Y51240D01*
X17581Y51264D01*
X17483Y51291D01*
X17387Y51322D01*
X17292Y51356D01*
X17198Y51395D01*
X17106Y51436D01*
X17015Y51482D01*
X16926Y51531D01*
X16840Y51583D01*
X16755Y51639D01*
X16673Y51698D01*
X16593Y51760D01*
X16515Y51825D01*
X16440Y51893D01*
X16368Y51964D01*
X16298Y52037D01*
X16232Y52114D01*
X16168Y52192D01*
X16108Y52274D01*
X16051Y52357D01*
X15997Y52443D01*
X15946Y52531D01*
X15899Y52620D01*
X15855Y52712D01*
X15815Y52805D01*
X15778Y52899D01*
X15746Y52995D01*
X15717Y53092D01*
X15691Y53190D01*
X15670Y53289D01*
X15652Y53389D01*
X15639Y53489D01*
X15629Y53590D01*
X15623Y53691D01*
X15621Y53792D01*
X25070Y53792D02*
X25070Y60579D01*
X25069Y53792D02*
X25071Y53691D01*
X25077Y53590D01*
X25087Y53489D01*
X25100Y53389D01*
X25118Y53289D01*
X25139Y53190D01*
X25165Y53092D01*
X25194Y52995D01*
X25226Y52899D01*
X25263Y52805D01*
X25303Y52712D01*
X25347Y52620D01*
X25394Y52531D01*
X25445Y52443D01*
X25499Y52357D01*
X25556Y52274D01*
X25616Y52192D01*
X25680Y52114D01*
X25746Y52037D01*
X25816Y51964D01*
X25888Y51893D01*
X25963Y51825D01*
X26041Y51760D01*
X26121Y51698D01*
X26203Y51639D01*
X26288Y51583D01*
X26374Y51531D01*
X26463Y51482D01*
X26554Y51436D01*
X26646Y51395D01*
X26740Y51356D01*
X26835Y51322D01*
X26931Y51291D01*
X27029Y51264D01*
X27127Y51240D01*
X27227Y51221D01*
X27327Y51205D01*
X27427Y51193D01*
X27528Y51185D01*
X27629Y51181D01*
X27731Y51181D01*
X27832Y51185D01*
X27933Y51193D01*
X28033Y51205D01*
X28133Y51221D01*
X28233Y51240D01*
X28331Y51264D01*
X28429Y51291D01*
X28525Y51322D01*
X28620Y51356D01*
X28714Y51395D01*
X28806Y51436D01*
X28897Y51482D01*
X28985Y51531D01*
X29072Y51583D01*
X29157Y51639D01*
X29239Y51698D01*
X29319Y51760D01*
X29397Y51825D01*
X29472Y51893D01*
X29544Y51964D01*
X29614Y52037D01*
X29680Y52114D01*
X29744Y52192D01*
X29804Y52274D01*
X29861Y52357D01*
X29915Y52443D01*
X29966Y52531D01*
X30013Y52620D01*
X30057Y52712D01*
X30097Y52805D01*
X30134Y52899D01*
X30166Y52995D01*
X30195Y53092D01*
X30221Y53190D01*
X30242Y53289D01*
X30260Y53389D01*
X30273Y53489D01*
X30283Y53590D01*
X30289Y53691D01*
X30291Y53792D01*
X30291Y60579D01*
X36520Y60579D02*
X36520Y51181D01*
X33909Y60579D02*
X39130Y60579D01*
X51280Y56402D02*
X52846Y56402D01*
X52846Y51181D01*
X49713Y51181D01*
X49624Y51183D01*
X49536Y51189D01*
X49448Y51198D01*
X49360Y51211D01*
X49273Y51228D01*
X49187Y51248D01*
X49102Y51273D01*
X49017Y51300D01*
X48934Y51332D01*
X48853Y51366D01*
X48773Y51405D01*
X48695Y51446D01*
X48618Y51491D01*
X48544Y51539D01*
X48471Y51590D01*
X48401Y51644D01*
X48334Y51702D01*
X48268Y51762D01*
X48206Y51824D01*
X48146Y51890D01*
X48088Y51957D01*
X48034Y52027D01*
X47983Y52100D01*
X47935Y52174D01*
X47890Y52251D01*
X47849Y52329D01*
X47810Y52409D01*
X47776Y52490D01*
X47744Y52573D01*
X47717Y52658D01*
X47692Y52743D01*
X47672Y52829D01*
X47655Y52916D01*
X47642Y53004D01*
X47633Y53092D01*
X47627Y53180D01*
X47625Y53269D01*
X47625Y58491D01*
X47627Y58582D01*
X47633Y58673D01*
X47643Y58764D01*
X47657Y58854D01*
X47674Y58943D01*
X47696Y59031D01*
X47722Y59119D01*
X47751Y59205D01*
X47784Y59290D01*
X47821Y59373D01*
X47861Y59455D01*
X47905Y59535D01*
X47952Y59613D01*
X48003Y59689D01*
X48056Y59762D01*
X48113Y59833D01*
X48174Y59902D01*
X48237Y59967D01*
X48302Y60030D01*
X48371Y60090D01*
X48442Y60148D01*
X48515Y60201D01*
X48591Y60252D01*
X48669Y60299D01*
X48749Y60343D01*
X48831Y60383D01*
X48914Y60420D01*
X48999Y60453D01*
X49085Y60482D01*
X49173Y60508D01*
X49261Y60530D01*
X49350Y60547D01*
X49440Y60561D01*
X49531Y60571D01*
X49622Y60577D01*
X49713Y60579D01*
X52846Y60579D01*
X57379Y60579D02*
X57379Y51181D01*
X62600Y51181D02*
X57379Y60579D01*
X62600Y60579D02*
X62600Y51181D01*
X67132Y51181D02*
X67132Y60579D01*
X69743Y60579D01*
X69843Y60577D01*
X69943Y60571D01*
X70042Y60562D01*
X70142Y60548D01*
X70240Y60531D01*
X70338Y60510D01*
X70435Y60486D01*
X70531Y60457D01*
X70626Y60425D01*
X70719Y60390D01*
X70811Y60351D01*
X70902Y60308D01*
X70990Y60262D01*
X71077Y60212D01*
X71162Y60160D01*
X71245Y60104D01*
X71326Y60045D01*
X71404Y59982D01*
X71480Y59917D01*
X71554Y59849D01*
X71624Y59779D01*
X71692Y59705D01*
X71757Y59629D01*
X71820Y59551D01*
X71879Y59470D01*
X71935Y59387D01*
X71987Y59302D01*
X72037Y59215D01*
X72083Y59127D01*
X72126Y59036D01*
X72165Y58944D01*
X72200Y58851D01*
X72232Y58756D01*
X72261Y58660D01*
X72285Y58563D01*
X72306Y58465D01*
X72323Y58367D01*
X72337Y58267D01*
X72346Y58168D01*
X72352Y58068D01*
X72354Y57968D01*
X72353Y57968D02*
X72353Y53792D01*
X72354Y53792D02*
X72352Y53692D01*
X72346Y53592D01*
X72337Y53493D01*
X72323Y53393D01*
X72306Y53295D01*
X72285Y53197D01*
X72261Y53100D01*
X72232Y53004D01*
X72200Y52909D01*
X72165Y52816D01*
X72126Y52724D01*
X72083Y52633D01*
X72037Y52545D01*
X71987Y52458D01*
X71935Y52373D01*
X71879Y52290D01*
X71820Y52209D01*
X71757Y52131D01*
X71692Y52055D01*
X71624Y51981D01*
X71554Y51911D01*
X71480Y51843D01*
X71404Y51778D01*
X71326Y51715D01*
X71245Y51656D01*
X71162Y51600D01*
X71077Y51548D01*
X70990Y51498D01*
X70902Y51452D01*
X70811Y51409D01*
X70719Y51370D01*
X70626Y51335D01*
X70531Y51303D01*
X70435Y51274D01*
X70338Y51250D01*
X70240Y51229D01*
X70142Y51212D01*
X70042Y51198D01*
X69943Y51189D01*
X69843Y51183D01*
X69743Y51181D01*
X67132Y51181D01*
X80936Y60579D02*
X84068Y51181D01*
X87201Y60579D01*
X90906Y60579D02*
X90906Y51181D01*
X90906Y60579D02*
X93517Y60579D01*
X93617Y60577D01*
X93717Y60571D01*
X93816Y60562D01*
X93916Y60548D01*
X94014Y60531D01*
X94112Y60510D01*
X94209Y60486D01*
X94305Y60457D01*
X94400Y60425D01*
X94493Y60390D01*
X94585Y60351D01*
X94676Y60308D01*
X94764Y60262D01*
X94851Y60212D01*
X94936Y60160D01*
X95019Y60104D01*
X95100Y60045D01*
X95178Y59982D01*
X95254Y59917D01*
X95328Y59849D01*
X95398Y59779D01*
X95466Y59705D01*
X95531Y59629D01*
X95594Y59551D01*
X95653Y59470D01*
X95709Y59387D01*
X95761Y59302D01*
X95811Y59215D01*
X95857Y59127D01*
X95900Y59036D01*
X95939Y58944D01*
X95974Y58851D01*
X96006Y58756D01*
X96035Y58660D01*
X96059Y58563D01*
X96080Y58465D01*
X96097Y58367D01*
X96111Y58267D01*
X96120Y58168D01*
X96126Y58068D01*
X96128Y57968D01*
X96127Y57968D02*
X96127Y53792D01*
X96128Y53792D02*
X96126Y53692D01*
X96120Y53592D01*
X96111Y53493D01*
X96097Y53393D01*
X96080Y53295D01*
X96059Y53197D01*
X96035Y53100D01*
X96006Y53004D01*
X95974Y52909D01*
X95939Y52816D01*
X95900Y52724D01*
X95857Y52633D01*
X95811Y52545D01*
X95761Y52458D01*
X95709Y52373D01*
X95653Y52290D01*
X95594Y52209D01*
X95531Y52131D01*
X95466Y52055D01*
X95398Y51981D01*
X95328Y51911D01*
X95254Y51843D01*
X95178Y51778D01*
X95100Y51715D01*
X95019Y51656D01*
X94936Y51600D01*
X94851Y51548D01*
X94764Y51498D01*
X94676Y51452D01*
X94585Y51409D01*
X94493Y51370D01*
X94400Y51335D01*
X94305Y51303D01*
X94209Y51274D01*
X94112Y51250D01*
X94014Y51229D01*
X93916Y51212D01*
X93816Y51198D01*
X93717Y51189D01*
X93617Y51183D01*
X93517Y51181D01*
X90906Y51181D01*
X100660Y51181D02*
X100660Y60579D01*
X103271Y60579D01*
X103371Y60577D01*
X103471Y60571D01*
X103570Y60562D01*
X103670Y60548D01*
X103768Y60531D01*
X103866Y60510D01*
X103963Y60486D01*
X104059Y60457D01*
X104154Y60425D01*
X104247Y60390D01*
X104339Y60351D01*
X104430Y60308D01*
X104518Y60262D01*
X104605Y60212D01*
X104690Y60160D01*
X104773Y60104D01*
X104854Y60045D01*
X104932Y59982D01*
X105008Y59917D01*
X105082Y59849D01*
X105152Y59779D01*
X105220Y59705D01*
X105285Y59629D01*
X105348Y59551D01*
X105407Y59470D01*
X105463Y59387D01*
X105515Y59302D01*
X105565Y59215D01*
X105611Y59127D01*
X105654Y59036D01*
X105693Y58944D01*
X105728Y58851D01*
X105760Y58756D01*
X105789Y58660D01*
X105813Y58563D01*
X105834Y58465D01*
X105851Y58367D01*
X105865Y58267D01*
X105874Y58168D01*
X105880Y58068D01*
X105882Y57968D01*
X105881Y57968D02*
X105881Y53792D01*
X105882Y53792D02*
X105880Y53692D01*
X105874Y53592D01*
X105865Y53493D01*
X105851Y53393D01*
X105834Y53295D01*
X105813Y53197D01*
X105789Y53100D01*
X105760Y53004D01*
X105728Y52909D01*
X105693Y52816D01*
X105654Y52724D01*
X105611Y52633D01*
X105565Y52545D01*
X105515Y52458D01*
X105463Y52373D01*
X105407Y52290D01*
X105348Y52209D01*
X105285Y52131D01*
X105220Y52055D01*
X105152Y51981D01*
X105082Y51911D01*
X105008Y51843D01*
X104932Y51778D01*
X104854Y51715D01*
X104773Y51656D01*
X104690Y51600D01*
X104605Y51548D01*
X104518Y51498D01*
X104430Y51452D01*
X104339Y51409D01*
X104247Y51370D01*
X104154Y51335D01*
X104059Y51303D01*
X103963Y51274D01*
X103866Y51250D01*
X103768Y51229D01*
X103670Y51212D01*
X103570Y51198D01*
X103471Y51189D01*
X103371Y51183D01*
X103271Y51181D01*
X100660Y51181D01*
D10*
X73660Y88900D02*
X73560Y88902D01*
X73461Y88908D01*
X73361Y88918D01*
X73263Y88931D01*
X73164Y88949D01*
X73067Y88970D01*
X72971Y88995D01*
X72875Y89024D01*
X72781Y89057D01*
X72688Y89093D01*
X72597Y89133D01*
X72507Y89177D01*
X72419Y89224D01*
X72333Y89274D01*
X72249Y89328D01*
X72167Y89385D01*
X72088Y89445D01*
X72010Y89509D01*
X71936Y89575D01*
X71864Y89644D01*
X71795Y89716D01*
X71729Y89790D01*
X71665Y89868D01*
X71605Y89947D01*
X71548Y90029D01*
X71494Y90113D01*
X71444Y90199D01*
X71397Y90287D01*
X71353Y90377D01*
X71313Y90468D01*
X71277Y90561D01*
X71244Y90655D01*
X71215Y90751D01*
X71190Y90847D01*
X71169Y90944D01*
X71151Y91043D01*
X71138Y91141D01*
X71128Y91241D01*
X71122Y91340D01*
X71120Y91440D01*
X86360Y88900D02*
X86460Y88902D01*
X86559Y88908D01*
X86659Y88918D01*
X86757Y88931D01*
X86856Y88949D01*
X86953Y88970D01*
X87049Y88995D01*
X87145Y89024D01*
X87239Y89057D01*
X87332Y89093D01*
X87423Y89133D01*
X87513Y89177D01*
X87601Y89224D01*
X87687Y89274D01*
X87771Y89328D01*
X87853Y89385D01*
X87932Y89445D01*
X88010Y89509D01*
X88084Y89575D01*
X88156Y89644D01*
X88225Y89716D01*
X88291Y89790D01*
X88355Y89868D01*
X88415Y89947D01*
X88472Y90029D01*
X88526Y90113D01*
X88576Y90199D01*
X88623Y90287D01*
X88667Y90377D01*
X88707Y90468D01*
X88743Y90561D01*
X88776Y90655D01*
X88805Y90751D01*
X88830Y90847D01*
X88851Y90944D01*
X88869Y91043D01*
X88882Y91141D01*
X88892Y91241D01*
X88898Y91340D01*
X88900Y91440D01*
X88900Y121920D02*
X88898Y122020D01*
X88892Y122119D01*
X88882Y122219D01*
X88869Y122317D01*
X88851Y122416D01*
X88830Y122513D01*
X88805Y122609D01*
X88776Y122705D01*
X88743Y122799D01*
X88707Y122892D01*
X88667Y122983D01*
X88623Y123073D01*
X88576Y123161D01*
X88526Y123247D01*
X88472Y123331D01*
X88415Y123413D01*
X88355Y123492D01*
X88291Y123570D01*
X88225Y123644D01*
X88156Y123716D01*
X88084Y123785D01*
X88010Y123851D01*
X87932Y123915D01*
X87853Y123975D01*
X87771Y124032D01*
X87687Y124086D01*
X87601Y124136D01*
X87513Y124183D01*
X87423Y124227D01*
X87332Y124267D01*
X87239Y124303D01*
X87145Y124336D01*
X87049Y124365D01*
X86953Y124390D01*
X86856Y124411D01*
X86757Y124429D01*
X86659Y124442D01*
X86559Y124452D01*
X86460Y124458D01*
X86360Y124460D01*
X73660Y124460D02*
X73560Y124458D01*
X73461Y124452D01*
X73361Y124442D01*
X73263Y124429D01*
X73164Y124411D01*
X73067Y124390D01*
X72971Y124365D01*
X72875Y124336D01*
X72781Y124303D01*
X72688Y124267D01*
X72597Y124227D01*
X72507Y124183D01*
X72419Y124136D01*
X72333Y124086D01*
X72249Y124032D01*
X72167Y123975D01*
X72088Y123915D01*
X72010Y123851D01*
X71936Y123785D01*
X71864Y123716D01*
X71795Y123644D01*
X71729Y123570D01*
X71665Y123492D01*
X71605Y123413D01*
X71548Y123331D01*
X71494Y123247D01*
X71444Y123161D01*
X71397Y123073D01*
X71353Y122983D01*
X71313Y122892D01*
X71277Y122799D01*
X71244Y122705D01*
X71215Y122609D01*
X71190Y122513D01*
X71169Y122416D01*
X71151Y122317D01*
X71138Y122219D01*
X71128Y122119D01*
X71122Y122020D01*
X71120Y121920D01*
X71120Y93980D02*
X71120Y91440D01*
X71120Y93980D02*
X72390Y95250D01*
X88900Y93980D02*
X88900Y91440D01*
X88900Y93980D02*
X87630Y95250D01*
X72390Y118110D02*
X71120Y119380D01*
X72390Y118110D02*
X72390Y95250D01*
X87630Y118110D02*
X88900Y119380D01*
X87630Y118110D02*
X87630Y95250D01*
X71120Y119380D02*
X71120Y121920D01*
X88900Y121920D02*
X88900Y119380D01*
D12*
X84582Y102289D02*
X75692Y102289D01*
X75692Y104759D01*
X75694Y104857D01*
X75700Y104955D01*
X75710Y105053D01*
X75723Y105150D01*
X75741Y105247D01*
X75762Y105343D01*
X75787Y105437D01*
X75816Y105531D01*
X75848Y105624D01*
X75885Y105715D01*
X75924Y105805D01*
X75968Y105893D01*
X76015Y105979D01*
X76065Y106064D01*
X76118Y106146D01*
X76175Y106226D01*
X76235Y106304D01*
X76298Y106379D01*
X76364Y106452D01*
X76433Y106522D01*
X76504Y106589D01*
X76578Y106654D01*
X76655Y106715D01*
X76734Y106774D01*
X76815Y106829D01*
X76898Y106881D01*
X76984Y106929D01*
X77071Y106974D01*
X77160Y107016D01*
X77250Y107054D01*
X77342Y107088D01*
X77435Y107119D01*
X77530Y107146D01*
X77625Y107169D01*
X77722Y107189D01*
X77818Y107204D01*
X77916Y107216D01*
X78014Y107224D01*
X78112Y107228D01*
X78210Y107228D01*
X78308Y107224D01*
X78406Y107216D01*
X78504Y107204D01*
X78600Y107189D01*
X78697Y107169D01*
X78792Y107146D01*
X78887Y107119D01*
X78980Y107088D01*
X79072Y107054D01*
X79162Y107016D01*
X79251Y106974D01*
X79338Y106929D01*
X79424Y106881D01*
X79507Y106829D01*
X79588Y106774D01*
X79667Y106715D01*
X79744Y106654D01*
X79818Y106589D01*
X79889Y106522D01*
X79958Y106452D01*
X80024Y106379D01*
X80087Y106304D01*
X80147Y106226D01*
X80204Y106146D01*
X80257Y106064D01*
X80307Y105979D01*
X80354Y105893D01*
X80398Y105805D01*
X80437Y105715D01*
X80474Y105624D01*
X80506Y105531D01*
X80535Y105437D01*
X80560Y105343D01*
X80581Y105247D01*
X80599Y105150D01*
X80612Y105053D01*
X80622Y104955D01*
X80628Y104857D01*
X80630Y104759D01*
X80631Y104759D02*
X80631Y102289D01*
X80631Y105253D02*
X84582Y107228D01*
X77668Y111139D02*
X75692Y113609D01*
X84582Y113609D01*
X84582Y116078D02*
X84582Y111139D01*
D10*
X114300Y181610D02*
X114298Y181710D01*
X114292Y181809D01*
X114282Y181909D01*
X114269Y182007D01*
X114251Y182106D01*
X114230Y182203D01*
X114205Y182299D01*
X114176Y182395D01*
X114143Y182489D01*
X114107Y182582D01*
X114067Y182673D01*
X114023Y182763D01*
X113976Y182851D01*
X113926Y182937D01*
X113872Y183021D01*
X113815Y183103D01*
X113755Y183182D01*
X113691Y183260D01*
X113625Y183334D01*
X113556Y183406D01*
X113484Y183475D01*
X113410Y183541D01*
X113332Y183605D01*
X113253Y183665D01*
X113171Y183722D01*
X113087Y183776D01*
X113001Y183826D01*
X112913Y183873D01*
X112823Y183917D01*
X112732Y183957D01*
X112639Y183993D01*
X112545Y184026D01*
X112449Y184055D01*
X112353Y184080D01*
X112256Y184101D01*
X112157Y184119D01*
X112059Y184132D01*
X111959Y184142D01*
X111860Y184148D01*
X111760Y184150D01*
X99060Y184150D02*
X98960Y184148D01*
X98861Y184142D01*
X98761Y184132D01*
X98663Y184119D01*
X98564Y184101D01*
X98467Y184080D01*
X98371Y184055D01*
X98275Y184026D01*
X98181Y183993D01*
X98088Y183957D01*
X97997Y183917D01*
X97907Y183873D01*
X97819Y183826D01*
X97733Y183776D01*
X97649Y183722D01*
X97567Y183665D01*
X97488Y183605D01*
X97410Y183541D01*
X97336Y183475D01*
X97264Y183406D01*
X97195Y183334D01*
X97129Y183260D01*
X97065Y183182D01*
X97005Y183103D01*
X96948Y183021D01*
X96894Y182937D01*
X96844Y182851D01*
X96797Y182763D01*
X96753Y182673D01*
X96713Y182582D01*
X96677Y182489D01*
X96644Y182395D01*
X96615Y182299D01*
X96590Y182203D01*
X96569Y182106D01*
X96551Y182007D01*
X96538Y181909D01*
X96528Y181809D01*
X96522Y181710D01*
X96520Y181610D01*
X96520Y151130D02*
X96522Y151030D01*
X96528Y150931D01*
X96538Y150831D01*
X96551Y150733D01*
X96569Y150634D01*
X96590Y150537D01*
X96615Y150441D01*
X96644Y150345D01*
X96677Y150251D01*
X96713Y150158D01*
X96753Y150067D01*
X96797Y149977D01*
X96844Y149889D01*
X96894Y149803D01*
X96948Y149719D01*
X97005Y149637D01*
X97065Y149558D01*
X97129Y149480D01*
X97195Y149406D01*
X97264Y149334D01*
X97336Y149265D01*
X97410Y149199D01*
X97488Y149135D01*
X97567Y149075D01*
X97649Y149018D01*
X97733Y148964D01*
X97819Y148914D01*
X97907Y148867D01*
X97997Y148823D01*
X98088Y148783D01*
X98181Y148747D01*
X98275Y148714D01*
X98371Y148685D01*
X98467Y148660D01*
X98564Y148639D01*
X98663Y148621D01*
X98761Y148608D01*
X98861Y148598D01*
X98960Y148592D01*
X99060Y148590D01*
X111760Y148590D02*
X111860Y148592D01*
X111959Y148598D01*
X112059Y148608D01*
X112157Y148621D01*
X112256Y148639D01*
X112353Y148660D01*
X112449Y148685D01*
X112545Y148714D01*
X112639Y148747D01*
X112732Y148783D01*
X112823Y148823D01*
X112913Y148867D01*
X113001Y148914D01*
X113087Y148964D01*
X113171Y149018D01*
X113253Y149075D01*
X113332Y149135D01*
X113410Y149199D01*
X113484Y149265D01*
X113556Y149334D01*
X113625Y149406D01*
X113691Y149480D01*
X113755Y149558D01*
X113815Y149637D01*
X113872Y149719D01*
X113926Y149803D01*
X113976Y149889D01*
X114023Y149977D01*
X114067Y150067D01*
X114107Y150158D01*
X114143Y150251D01*
X114176Y150345D01*
X114205Y150441D01*
X114230Y150537D01*
X114251Y150634D01*
X114269Y150733D01*
X114282Y150831D01*
X114292Y150931D01*
X114298Y151030D01*
X114300Y151130D01*
X114300Y179070D02*
X114300Y181610D01*
X114300Y179070D02*
X113030Y177800D01*
X96520Y179070D02*
X96520Y181610D01*
X96520Y179070D02*
X97790Y177800D01*
X113030Y154940D02*
X114300Y153670D01*
X113030Y154940D02*
X113030Y177800D01*
X97790Y154940D02*
X96520Y153670D01*
X97790Y154940D02*
X97790Y177800D01*
X114300Y153670D02*
X114300Y151130D01*
X96520Y151130D02*
X96520Y153670D01*
D12*
X101092Y160709D02*
X109982Y160709D01*
X101092Y160709D02*
X101092Y163179D01*
X101094Y163277D01*
X101100Y163375D01*
X101110Y163473D01*
X101123Y163570D01*
X101141Y163667D01*
X101162Y163763D01*
X101187Y163857D01*
X101216Y163951D01*
X101248Y164044D01*
X101285Y164135D01*
X101324Y164225D01*
X101368Y164313D01*
X101415Y164399D01*
X101465Y164484D01*
X101518Y164566D01*
X101575Y164646D01*
X101635Y164724D01*
X101698Y164799D01*
X101764Y164872D01*
X101833Y164942D01*
X101904Y165009D01*
X101978Y165074D01*
X102055Y165135D01*
X102134Y165194D01*
X102215Y165249D01*
X102298Y165301D01*
X102384Y165349D01*
X102471Y165394D01*
X102560Y165436D01*
X102650Y165474D01*
X102742Y165508D01*
X102835Y165539D01*
X102930Y165566D01*
X103025Y165589D01*
X103122Y165609D01*
X103218Y165624D01*
X103316Y165636D01*
X103414Y165644D01*
X103512Y165648D01*
X103610Y165648D01*
X103708Y165644D01*
X103806Y165636D01*
X103904Y165624D01*
X104000Y165609D01*
X104097Y165589D01*
X104192Y165566D01*
X104287Y165539D01*
X104380Y165508D01*
X104472Y165474D01*
X104562Y165436D01*
X104651Y165394D01*
X104738Y165349D01*
X104824Y165301D01*
X104907Y165249D01*
X104988Y165194D01*
X105067Y165135D01*
X105144Y165074D01*
X105218Y165009D01*
X105289Y164942D01*
X105358Y164872D01*
X105424Y164799D01*
X105487Y164724D01*
X105547Y164646D01*
X105604Y164566D01*
X105657Y164484D01*
X105707Y164399D01*
X105754Y164313D01*
X105798Y164225D01*
X105837Y164135D01*
X105874Y164044D01*
X105906Y163951D01*
X105935Y163857D01*
X105960Y163763D01*
X105981Y163667D01*
X105999Y163570D01*
X106012Y163473D01*
X106022Y163375D01*
X106028Y163277D01*
X106030Y163179D01*
X106031Y163179D02*
X106031Y160709D01*
X106031Y163673D02*
X109982Y165648D01*
X103315Y174499D02*
X103223Y174497D01*
X103131Y174491D01*
X103040Y174482D01*
X102949Y174469D01*
X102859Y174452D01*
X102769Y174431D01*
X102681Y174407D01*
X102593Y174379D01*
X102507Y174347D01*
X102422Y174312D01*
X102339Y174273D01*
X102257Y174231D01*
X102177Y174186D01*
X102099Y174137D01*
X102023Y174085D01*
X101950Y174030D01*
X101878Y173972D01*
X101809Y173912D01*
X101743Y173848D01*
X101679Y173782D01*
X101619Y173713D01*
X101561Y173641D01*
X101506Y173568D01*
X101454Y173492D01*
X101405Y173414D01*
X101360Y173334D01*
X101318Y173252D01*
X101279Y173169D01*
X101244Y173084D01*
X101212Y172998D01*
X101184Y172910D01*
X101160Y172822D01*
X101139Y172732D01*
X101122Y172642D01*
X101109Y172551D01*
X101100Y172460D01*
X101094Y172368D01*
X101092Y172276D01*
X101094Y172170D01*
X101100Y172065D01*
X101110Y171960D01*
X101123Y171855D01*
X101141Y171751D01*
X101162Y171648D01*
X101187Y171545D01*
X101216Y171443D01*
X101249Y171343D01*
X101285Y171244D01*
X101325Y171146D01*
X101369Y171050D01*
X101416Y170955D01*
X101466Y170863D01*
X101520Y170772D01*
X101578Y170683D01*
X101638Y170597D01*
X101702Y170513D01*
X101768Y170431D01*
X101838Y170351D01*
X101911Y170275D01*
X101986Y170201D01*
X102064Y170130D01*
X102145Y170062D01*
X102228Y169996D01*
X102314Y169934D01*
X102401Y169876D01*
X102491Y169820D01*
X102583Y169768D01*
X102677Y169719D01*
X102772Y169674D01*
X102869Y169632D01*
X102968Y169594D01*
X103067Y169560D01*
X105044Y173757D02*
X104975Y173826D01*
X104905Y173892D01*
X104831Y173955D01*
X104755Y174014D01*
X104677Y174071D01*
X104597Y174125D01*
X104514Y174175D01*
X104430Y174222D01*
X104343Y174265D01*
X104255Y174305D01*
X104166Y174341D01*
X104075Y174374D01*
X103983Y174403D01*
X103889Y174428D01*
X103795Y174449D01*
X103700Y174467D01*
X103604Y174480D01*
X103508Y174490D01*
X103412Y174496D01*
X103315Y174498D01*
X105043Y173757D02*
X109982Y169559D01*
X109982Y174498D01*
D10*
X35052Y213614D02*
X34952Y213612D01*
X34853Y213606D01*
X34753Y213596D01*
X34655Y213583D01*
X34556Y213565D01*
X34459Y213544D01*
X34363Y213519D01*
X34267Y213490D01*
X34173Y213457D01*
X34080Y213421D01*
X33989Y213381D01*
X33899Y213337D01*
X33811Y213290D01*
X33725Y213240D01*
X33641Y213186D01*
X33559Y213129D01*
X33480Y213069D01*
X33402Y213005D01*
X33328Y212939D01*
X33256Y212870D01*
X33187Y212798D01*
X33121Y212724D01*
X33057Y212646D01*
X32997Y212567D01*
X32940Y212485D01*
X32886Y212401D01*
X32836Y212315D01*
X32789Y212227D01*
X32745Y212137D01*
X32705Y212046D01*
X32669Y211953D01*
X32636Y211859D01*
X32607Y211763D01*
X32582Y211667D01*
X32561Y211570D01*
X32543Y211471D01*
X32530Y211373D01*
X32520Y211273D01*
X32514Y211174D01*
X32512Y211074D01*
X32512Y198374D02*
X32514Y198274D01*
X32520Y198175D01*
X32530Y198075D01*
X32543Y197977D01*
X32561Y197878D01*
X32582Y197781D01*
X32607Y197685D01*
X32636Y197589D01*
X32669Y197495D01*
X32705Y197402D01*
X32745Y197311D01*
X32789Y197221D01*
X32836Y197133D01*
X32886Y197047D01*
X32940Y196963D01*
X32997Y196881D01*
X33057Y196802D01*
X33121Y196724D01*
X33187Y196650D01*
X33256Y196578D01*
X33328Y196509D01*
X33402Y196443D01*
X33480Y196379D01*
X33559Y196319D01*
X33641Y196262D01*
X33725Y196208D01*
X33811Y196158D01*
X33899Y196111D01*
X33989Y196067D01*
X34080Y196027D01*
X34173Y195991D01*
X34267Y195958D01*
X34363Y195929D01*
X34459Y195904D01*
X34556Y195883D01*
X34655Y195865D01*
X34753Y195852D01*
X34853Y195842D01*
X34952Y195836D01*
X35052Y195834D01*
X65532Y195834D02*
X65632Y195836D01*
X65731Y195842D01*
X65831Y195852D01*
X65929Y195865D01*
X66028Y195883D01*
X66125Y195904D01*
X66221Y195929D01*
X66317Y195958D01*
X66411Y195991D01*
X66504Y196027D01*
X66595Y196067D01*
X66685Y196111D01*
X66773Y196158D01*
X66859Y196208D01*
X66943Y196262D01*
X67025Y196319D01*
X67104Y196379D01*
X67182Y196443D01*
X67256Y196509D01*
X67328Y196578D01*
X67397Y196650D01*
X67463Y196724D01*
X67527Y196802D01*
X67587Y196881D01*
X67644Y196963D01*
X67698Y197047D01*
X67748Y197133D01*
X67795Y197221D01*
X67839Y197311D01*
X67879Y197402D01*
X67915Y197495D01*
X67948Y197589D01*
X67977Y197685D01*
X68002Y197781D01*
X68023Y197878D01*
X68041Y197977D01*
X68054Y198075D01*
X68064Y198175D01*
X68070Y198274D01*
X68072Y198374D01*
X68072Y211074D02*
X68070Y211174D01*
X68064Y211273D01*
X68054Y211373D01*
X68041Y211471D01*
X68023Y211570D01*
X68002Y211667D01*
X67977Y211763D01*
X67948Y211859D01*
X67915Y211953D01*
X67879Y212046D01*
X67839Y212137D01*
X67795Y212227D01*
X67748Y212315D01*
X67698Y212401D01*
X67644Y212485D01*
X67587Y212567D01*
X67527Y212646D01*
X67463Y212724D01*
X67397Y212798D01*
X67328Y212870D01*
X67256Y212939D01*
X67182Y213005D01*
X67104Y213069D01*
X67025Y213129D01*
X66943Y213186D01*
X66859Y213240D01*
X66773Y213290D01*
X66685Y213337D01*
X66595Y213381D01*
X66504Y213421D01*
X66411Y213457D01*
X66317Y213490D01*
X66221Y213519D01*
X66125Y213544D01*
X66028Y213565D01*
X65929Y213583D01*
X65831Y213596D01*
X65731Y213606D01*
X65632Y213612D01*
X65532Y213614D01*
X37592Y213614D02*
X35052Y213614D01*
X37592Y213614D02*
X38862Y212344D01*
X37592Y195834D02*
X35052Y195834D01*
X37592Y195834D02*
X38862Y197104D01*
X61722Y212344D02*
X62992Y213614D01*
X61722Y212344D02*
X38862Y212344D01*
X61722Y197104D02*
X62992Y195834D01*
X61722Y197104D02*
X38862Y197104D01*
X62992Y213614D02*
X65532Y213614D01*
X65532Y195834D02*
X62992Y195834D01*
D12*
X19231Y216662D02*
X19231Y225552D01*
X21701Y225552D01*
X21799Y225550D01*
X21897Y225544D01*
X21995Y225534D01*
X22092Y225521D01*
X22189Y225503D01*
X22285Y225482D01*
X22379Y225457D01*
X22473Y225428D01*
X22566Y225396D01*
X22657Y225359D01*
X22747Y225320D01*
X22835Y225276D01*
X22921Y225229D01*
X23006Y225179D01*
X23088Y225126D01*
X23168Y225069D01*
X23246Y225009D01*
X23321Y224946D01*
X23394Y224880D01*
X23464Y224811D01*
X23531Y224740D01*
X23596Y224666D01*
X23657Y224589D01*
X23716Y224510D01*
X23771Y224429D01*
X23823Y224346D01*
X23871Y224260D01*
X23916Y224173D01*
X23958Y224084D01*
X23996Y223994D01*
X24030Y223902D01*
X24061Y223809D01*
X24088Y223714D01*
X24111Y223619D01*
X24131Y223522D01*
X24146Y223426D01*
X24158Y223328D01*
X24166Y223230D01*
X24170Y223132D01*
X24170Y223034D01*
X24166Y222936D01*
X24158Y222838D01*
X24146Y222740D01*
X24131Y222644D01*
X24111Y222547D01*
X24088Y222452D01*
X24061Y222357D01*
X24030Y222264D01*
X23996Y222172D01*
X23958Y222082D01*
X23916Y221993D01*
X23871Y221906D01*
X23823Y221820D01*
X23771Y221737D01*
X23716Y221656D01*
X23657Y221577D01*
X23596Y221500D01*
X23531Y221426D01*
X23464Y221355D01*
X23394Y221286D01*
X23321Y221220D01*
X23246Y221157D01*
X23168Y221097D01*
X23088Y221040D01*
X23006Y220987D01*
X22921Y220937D01*
X22835Y220890D01*
X22747Y220846D01*
X22657Y220807D01*
X22566Y220770D01*
X22473Y220738D01*
X22379Y220709D01*
X22285Y220684D01*
X22189Y220663D01*
X22092Y220645D01*
X21995Y220632D01*
X21897Y220622D01*
X21799Y220616D01*
X21701Y220614D01*
X21701Y220613D02*
X19231Y220613D01*
X22195Y220613D02*
X24170Y216662D01*
X28081Y216662D02*
X30551Y216662D01*
X30649Y216664D01*
X30747Y216670D01*
X30845Y216680D01*
X30942Y216693D01*
X31039Y216711D01*
X31135Y216732D01*
X31229Y216757D01*
X31323Y216786D01*
X31416Y216818D01*
X31507Y216855D01*
X31597Y216894D01*
X31685Y216938D01*
X31771Y216985D01*
X31856Y217035D01*
X31938Y217088D01*
X32018Y217145D01*
X32096Y217205D01*
X32171Y217268D01*
X32244Y217334D01*
X32314Y217403D01*
X32381Y217474D01*
X32446Y217548D01*
X32507Y217625D01*
X32566Y217704D01*
X32621Y217785D01*
X32673Y217868D01*
X32721Y217954D01*
X32766Y218041D01*
X32808Y218130D01*
X32846Y218220D01*
X32880Y218312D01*
X32911Y218405D01*
X32938Y218500D01*
X32961Y218595D01*
X32981Y218692D01*
X32996Y218788D01*
X33008Y218886D01*
X33016Y218984D01*
X33020Y219082D01*
X33020Y219180D01*
X33016Y219278D01*
X33008Y219376D01*
X32996Y219474D01*
X32981Y219570D01*
X32961Y219667D01*
X32938Y219762D01*
X32911Y219857D01*
X32880Y219950D01*
X32846Y220042D01*
X32808Y220132D01*
X32766Y220221D01*
X32721Y220308D01*
X32673Y220394D01*
X32621Y220477D01*
X32566Y220558D01*
X32507Y220637D01*
X32446Y220714D01*
X32381Y220788D01*
X32314Y220859D01*
X32244Y220928D01*
X32171Y220994D01*
X32096Y221057D01*
X32018Y221117D01*
X31938Y221174D01*
X31856Y221227D01*
X31771Y221277D01*
X31685Y221324D01*
X31597Y221368D01*
X31507Y221407D01*
X31416Y221444D01*
X31323Y221476D01*
X31229Y221505D01*
X31135Y221530D01*
X31039Y221551D01*
X30942Y221569D01*
X30845Y221582D01*
X30747Y221592D01*
X30649Y221598D01*
X30551Y221600D01*
X31044Y225552D02*
X28081Y225552D01*
X31044Y225552D02*
X31131Y225550D01*
X31219Y225544D01*
X31306Y225535D01*
X31392Y225521D01*
X31478Y225504D01*
X31562Y225483D01*
X31646Y225458D01*
X31729Y225429D01*
X31810Y225397D01*
X31890Y225362D01*
X31968Y225323D01*
X32045Y225280D01*
X32119Y225234D01*
X32191Y225185D01*
X32261Y225133D01*
X32329Y225077D01*
X32394Y225019D01*
X32457Y224958D01*
X32516Y224894D01*
X32573Y224827D01*
X32627Y224759D01*
X32678Y224687D01*
X32725Y224614D01*
X32770Y224539D01*
X32811Y224461D01*
X32848Y224382D01*
X32882Y224302D01*
X32912Y224220D01*
X32939Y224137D01*
X32962Y224052D01*
X32981Y223967D01*
X32996Y223881D01*
X33008Y223794D01*
X33016Y223707D01*
X33020Y223620D01*
X33020Y223532D01*
X33016Y223445D01*
X33008Y223358D01*
X32996Y223271D01*
X32981Y223185D01*
X32962Y223100D01*
X32939Y223015D01*
X32912Y222932D01*
X32882Y222850D01*
X32848Y222770D01*
X32811Y222691D01*
X32770Y222613D01*
X32725Y222538D01*
X32678Y222465D01*
X32627Y222393D01*
X32573Y222325D01*
X32516Y222258D01*
X32457Y222194D01*
X32394Y222133D01*
X32329Y222075D01*
X32261Y222019D01*
X32191Y221967D01*
X32119Y221918D01*
X32045Y221872D01*
X31968Y221829D01*
X31890Y221790D01*
X31810Y221755D01*
X31729Y221723D01*
X31646Y221694D01*
X31562Y221669D01*
X31478Y221648D01*
X31392Y221631D01*
X31306Y221617D01*
X31219Y221608D01*
X31131Y221602D01*
X31044Y221600D01*
X31044Y221601D02*
X29069Y221601D01*
D10*
X82550Y19050D02*
X95250Y19050D01*
X82550Y19050D02*
X76200Y25400D01*
X76200Y38100D01*
X82550Y44450D01*
X76200Y25400D02*
X69850Y19050D01*
X57150Y19050D01*
X50800Y25400D01*
X50800Y38100D01*
X57150Y44450D01*
X69850Y44450D01*
X76200Y38100D01*
X101600Y38100D02*
X101600Y25400D01*
X95250Y19050D01*
X101600Y38100D02*
X95250Y44450D01*
X82550Y44450D01*
X50800Y25400D02*
X44450Y19050D01*
X31750Y19050D01*
X25400Y25400D01*
X25400Y38100D01*
X31750Y44450D01*
X44450Y44450D01*
X50800Y38100D01*
X68580Y144780D02*
X68580Y187960D01*
X93980Y187960D02*
X93980Y144780D01*
X91440Y190500D02*
X71120Y190500D01*
X71120Y142240D02*
X91440Y142240D01*
X68580Y187960D02*
X68582Y188060D01*
X68588Y188159D01*
X68598Y188259D01*
X68611Y188357D01*
X68629Y188456D01*
X68650Y188553D01*
X68675Y188649D01*
X68704Y188745D01*
X68737Y188839D01*
X68773Y188932D01*
X68813Y189023D01*
X68857Y189113D01*
X68904Y189201D01*
X68954Y189287D01*
X69008Y189371D01*
X69065Y189453D01*
X69125Y189532D01*
X69189Y189610D01*
X69255Y189684D01*
X69324Y189756D01*
X69396Y189825D01*
X69470Y189891D01*
X69548Y189955D01*
X69627Y190015D01*
X69709Y190072D01*
X69793Y190126D01*
X69879Y190176D01*
X69967Y190223D01*
X70057Y190267D01*
X70148Y190307D01*
X70241Y190343D01*
X70335Y190376D01*
X70431Y190405D01*
X70527Y190430D01*
X70624Y190451D01*
X70723Y190469D01*
X70821Y190482D01*
X70921Y190492D01*
X71020Y190498D01*
X71120Y190500D01*
X68580Y144780D02*
X68582Y144680D01*
X68588Y144581D01*
X68598Y144481D01*
X68611Y144383D01*
X68629Y144284D01*
X68650Y144187D01*
X68675Y144091D01*
X68704Y143995D01*
X68737Y143901D01*
X68773Y143808D01*
X68813Y143717D01*
X68857Y143627D01*
X68904Y143539D01*
X68954Y143453D01*
X69008Y143369D01*
X69065Y143287D01*
X69125Y143208D01*
X69189Y143130D01*
X69255Y143056D01*
X69324Y142984D01*
X69396Y142915D01*
X69470Y142849D01*
X69548Y142785D01*
X69627Y142725D01*
X69709Y142668D01*
X69793Y142614D01*
X69879Y142564D01*
X69967Y142517D01*
X70057Y142473D01*
X70148Y142433D01*
X70241Y142397D01*
X70335Y142364D01*
X70431Y142335D01*
X70527Y142310D01*
X70624Y142289D01*
X70723Y142271D01*
X70821Y142258D01*
X70921Y142248D01*
X71020Y142242D01*
X71120Y142240D01*
X93980Y187960D02*
X93978Y188060D01*
X93972Y188159D01*
X93962Y188259D01*
X93949Y188357D01*
X93931Y188456D01*
X93910Y188553D01*
X93885Y188649D01*
X93856Y188745D01*
X93823Y188839D01*
X93787Y188932D01*
X93747Y189023D01*
X93703Y189113D01*
X93656Y189201D01*
X93606Y189287D01*
X93552Y189371D01*
X93495Y189453D01*
X93435Y189532D01*
X93371Y189610D01*
X93305Y189684D01*
X93236Y189756D01*
X93164Y189825D01*
X93090Y189891D01*
X93012Y189955D01*
X92933Y190015D01*
X92851Y190072D01*
X92767Y190126D01*
X92681Y190176D01*
X92593Y190223D01*
X92503Y190267D01*
X92412Y190307D01*
X92319Y190343D01*
X92225Y190376D01*
X92129Y190405D01*
X92033Y190430D01*
X91936Y190451D01*
X91837Y190469D01*
X91739Y190482D01*
X91639Y190492D01*
X91540Y190498D01*
X91440Y190500D01*
X93980Y144780D02*
X93978Y144680D01*
X93972Y144581D01*
X93962Y144481D01*
X93949Y144383D01*
X93931Y144284D01*
X93910Y144187D01*
X93885Y144091D01*
X93856Y143995D01*
X93823Y143901D01*
X93787Y143808D01*
X93747Y143717D01*
X93703Y143627D01*
X93656Y143539D01*
X93606Y143453D01*
X93552Y143369D01*
X93495Y143287D01*
X93435Y143208D01*
X93371Y143130D01*
X93305Y143056D01*
X93236Y142984D01*
X93164Y142915D01*
X93090Y142849D01*
X93012Y142785D01*
X92933Y142725D01*
X92851Y142668D01*
X92767Y142614D01*
X92681Y142564D01*
X92593Y142517D01*
X92503Y142473D01*
X92412Y142433D01*
X92319Y142397D01*
X92225Y142364D01*
X92129Y142335D01*
X92033Y142310D01*
X91936Y142289D01*
X91837Y142271D01*
X91739Y142258D01*
X91639Y142248D01*
X91540Y142242D01*
X91440Y142240D01*
X81280Y168910D02*
X81280Y170180D01*
D13*
X81280Y168910D02*
X73660Y168910D01*
X81280Y168910D02*
X88900Y168910D01*
X81280Y163830D02*
X73660Y163830D01*
X81280Y163830D02*
X88900Y163830D01*
D10*
X81280Y163830D02*
X81280Y162560D01*
D14*
X94615Y194945D02*
X94615Y197485D01*
X94615Y194945D02*
X94613Y194845D01*
X94607Y194746D01*
X94597Y194646D01*
X94584Y194548D01*
X94566Y194449D01*
X94545Y194352D01*
X94520Y194256D01*
X94491Y194160D01*
X94458Y194066D01*
X94422Y193973D01*
X94382Y193882D01*
X94338Y193792D01*
X94291Y193704D01*
X94241Y193618D01*
X94187Y193534D01*
X94130Y193452D01*
X94070Y193373D01*
X94006Y193295D01*
X93940Y193221D01*
X93871Y193149D01*
X93799Y193080D01*
X93725Y193014D01*
X93647Y192950D01*
X93568Y192890D01*
X93486Y192833D01*
X93402Y192779D01*
X93316Y192729D01*
X93228Y192682D01*
X93138Y192638D01*
X93047Y192598D01*
X92954Y192562D01*
X92860Y192529D01*
X92764Y192500D01*
X92668Y192475D01*
X92571Y192454D01*
X92472Y192436D01*
X92374Y192423D01*
X92274Y192413D01*
X92175Y192407D01*
X92075Y192405D01*
X85725Y192405D01*
X85625Y192407D01*
X85526Y192413D01*
X85426Y192423D01*
X85328Y192436D01*
X85229Y192454D01*
X85132Y192475D01*
X85036Y192500D01*
X84940Y192529D01*
X84846Y192562D01*
X84753Y192598D01*
X84662Y192638D01*
X84572Y192682D01*
X84484Y192729D01*
X84398Y192779D01*
X84314Y192833D01*
X84232Y192890D01*
X84153Y192950D01*
X84075Y193014D01*
X84001Y193080D01*
X83929Y193149D01*
X83860Y193221D01*
X83794Y193295D01*
X83730Y193373D01*
X83670Y193452D01*
X83613Y193534D01*
X83559Y193618D01*
X83509Y193704D01*
X83462Y193792D01*
X83418Y193882D01*
X83378Y193973D01*
X83342Y194066D01*
X83309Y194160D01*
X83280Y194256D01*
X83255Y194352D01*
X83234Y194449D01*
X83216Y194548D01*
X83203Y194646D01*
X83193Y194746D01*
X83187Y194845D01*
X83185Y194945D01*
X83185Y197485D01*
X85725Y201967D02*
X83185Y205142D01*
X94615Y205142D01*
X94615Y201967D02*
X94615Y208317D01*
D10*
X91440Y129540D02*
X91440Y86360D01*
X116840Y86360D02*
X116840Y129540D01*
X114300Y132080D02*
X93980Y132080D01*
X93980Y83820D02*
X114300Y83820D01*
X91440Y129540D02*
X91442Y129640D01*
X91448Y129739D01*
X91458Y129839D01*
X91471Y129937D01*
X91489Y130036D01*
X91510Y130133D01*
X91535Y130229D01*
X91564Y130325D01*
X91597Y130419D01*
X91633Y130512D01*
X91673Y130603D01*
X91717Y130693D01*
X91764Y130781D01*
X91814Y130867D01*
X91868Y130951D01*
X91925Y131033D01*
X91985Y131112D01*
X92049Y131190D01*
X92115Y131264D01*
X92184Y131336D01*
X92256Y131405D01*
X92330Y131471D01*
X92408Y131535D01*
X92487Y131595D01*
X92569Y131652D01*
X92653Y131706D01*
X92739Y131756D01*
X92827Y131803D01*
X92917Y131847D01*
X93008Y131887D01*
X93101Y131923D01*
X93195Y131956D01*
X93291Y131985D01*
X93387Y132010D01*
X93484Y132031D01*
X93583Y132049D01*
X93681Y132062D01*
X93781Y132072D01*
X93880Y132078D01*
X93980Y132080D01*
X91440Y86360D02*
X91442Y86260D01*
X91448Y86161D01*
X91458Y86061D01*
X91471Y85963D01*
X91489Y85864D01*
X91510Y85767D01*
X91535Y85671D01*
X91564Y85575D01*
X91597Y85481D01*
X91633Y85388D01*
X91673Y85297D01*
X91717Y85207D01*
X91764Y85119D01*
X91814Y85033D01*
X91868Y84949D01*
X91925Y84867D01*
X91985Y84788D01*
X92049Y84710D01*
X92115Y84636D01*
X92184Y84564D01*
X92256Y84495D01*
X92330Y84429D01*
X92408Y84365D01*
X92487Y84305D01*
X92569Y84248D01*
X92653Y84194D01*
X92739Y84144D01*
X92827Y84097D01*
X92917Y84053D01*
X93008Y84013D01*
X93101Y83977D01*
X93195Y83944D01*
X93291Y83915D01*
X93387Y83890D01*
X93484Y83869D01*
X93583Y83851D01*
X93681Y83838D01*
X93781Y83828D01*
X93880Y83822D01*
X93980Y83820D01*
X116840Y129540D02*
X116838Y129640D01*
X116832Y129739D01*
X116822Y129839D01*
X116809Y129937D01*
X116791Y130036D01*
X116770Y130133D01*
X116745Y130229D01*
X116716Y130325D01*
X116683Y130419D01*
X116647Y130512D01*
X116607Y130603D01*
X116563Y130693D01*
X116516Y130781D01*
X116466Y130867D01*
X116412Y130951D01*
X116355Y131033D01*
X116295Y131112D01*
X116231Y131190D01*
X116165Y131264D01*
X116096Y131336D01*
X116024Y131405D01*
X115950Y131471D01*
X115872Y131535D01*
X115793Y131595D01*
X115711Y131652D01*
X115627Y131706D01*
X115541Y131756D01*
X115453Y131803D01*
X115363Y131847D01*
X115272Y131887D01*
X115179Y131923D01*
X115085Y131956D01*
X114989Y131985D01*
X114893Y132010D01*
X114796Y132031D01*
X114697Y132049D01*
X114599Y132062D01*
X114499Y132072D01*
X114400Y132078D01*
X114300Y132080D01*
X116840Y86360D02*
X116838Y86260D01*
X116832Y86161D01*
X116822Y86061D01*
X116809Y85963D01*
X116791Y85864D01*
X116770Y85767D01*
X116745Y85671D01*
X116716Y85575D01*
X116683Y85481D01*
X116647Y85388D01*
X116607Y85297D01*
X116563Y85207D01*
X116516Y85119D01*
X116466Y85033D01*
X116412Y84949D01*
X116355Y84867D01*
X116295Y84788D01*
X116231Y84710D01*
X116165Y84636D01*
X116096Y84564D01*
X116024Y84495D01*
X115950Y84429D01*
X115872Y84365D01*
X115793Y84305D01*
X115711Y84248D01*
X115627Y84194D01*
X115541Y84144D01*
X115453Y84097D01*
X115363Y84053D01*
X115272Y84013D01*
X115179Y83977D01*
X115085Y83944D01*
X114989Y83915D01*
X114893Y83890D01*
X114796Y83869D01*
X114697Y83851D01*
X114599Y83838D01*
X114499Y83828D01*
X114400Y83822D01*
X114300Y83820D01*
X104140Y110490D02*
X104140Y111760D01*
D13*
X104140Y110490D02*
X96520Y110490D01*
X104140Y110490D02*
X111760Y110490D01*
X104140Y105410D02*
X96520Y105410D01*
X104140Y105410D02*
X111760Y105410D01*
D10*
X104140Y105410D02*
X104140Y104140D01*
D14*
X97155Y69215D02*
X94615Y69215D01*
X94515Y69217D01*
X94416Y69223D01*
X94316Y69233D01*
X94218Y69246D01*
X94119Y69264D01*
X94022Y69285D01*
X93926Y69310D01*
X93830Y69339D01*
X93736Y69372D01*
X93643Y69408D01*
X93552Y69448D01*
X93462Y69492D01*
X93374Y69539D01*
X93288Y69589D01*
X93204Y69643D01*
X93122Y69700D01*
X93043Y69760D01*
X92965Y69824D01*
X92891Y69890D01*
X92819Y69959D01*
X92750Y70031D01*
X92684Y70105D01*
X92620Y70183D01*
X92560Y70262D01*
X92503Y70344D01*
X92449Y70428D01*
X92399Y70514D01*
X92352Y70602D01*
X92308Y70692D01*
X92268Y70783D01*
X92232Y70876D01*
X92199Y70970D01*
X92170Y71066D01*
X92145Y71162D01*
X92124Y71259D01*
X92106Y71358D01*
X92093Y71456D01*
X92083Y71556D01*
X92077Y71655D01*
X92075Y71755D01*
X92075Y78105D01*
X92077Y78205D01*
X92083Y78304D01*
X92093Y78404D01*
X92106Y78502D01*
X92124Y78601D01*
X92145Y78698D01*
X92170Y78794D01*
X92199Y78890D01*
X92232Y78984D01*
X92268Y79077D01*
X92308Y79168D01*
X92352Y79258D01*
X92399Y79346D01*
X92449Y79432D01*
X92503Y79516D01*
X92560Y79598D01*
X92620Y79677D01*
X92684Y79755D01*
X92750Y79829D01*
X92819Y79901D01*
X92891Y79970D01*
X92965Y80036D01*
X93043Y80100D01*
X93122Y80160D01*
X93204Y80217D01*
X93288Y80271D01*
X93374Y80321D01*
X93462Y80368D01*
X93552Y80412D01*
X93643Y80452D01*
X93736Y80488D01*
X93830Y80521D01*
X93926Y80550D01*
X94022Y80575D01*
X94119Y80596D01*
X94218Y80614D01*
X94316Y80627D01*
X94416Y80637D01*
X94515Y80643D01*
X94615Y80645D01*
X97155Y80645D01*
X105130Y80646D02*
X105234Y80644D01*
X105339Y80638D01*
X105443Y80629D01*
X105546Y80616D01*
X105649Y80598D01*
X105751Y80578D01*
X105853Y80553D01*
X105953Y80525D01*
X106053Y80493D01*
X106151Y80457D01*
X106248Y80418D01*
X106343Y80376D01*
X106437Y80330D01*
X106529Y80280D01*
X106619Y80228D01*
X106707Y80172D01*
X106793Y80112D01*
X106877Y80050D01*
X106958Y79985D01*
X107037Y79917D01*
X107114Y79845D01*
X107187Y79772D01*
X107259Y79695D01*
X107327Y79616D01*
X107392Y79535D01*
X107454Y79451D01*
X107514Y79365D01*
X107570Y79277D01*
X107622Y79187D01*
X107672Y79095D01*
X107718Y79001D01*
X107760Y78906D01*
X107799Y78809D01*
X107835Y78711D01*
X107867Y78611D01*
X107895Y78511D01*
X107920Y78409D01*
X107940Y78307D01*
X107958Y78204D01*
X107971Y78101D01*
X107980Y77997D01*
X107986Y77892D01*
X107988Y77788D01*
X105130Y80645D02*
X105012Y80643D01*
X104893Y80637D01*
X104775Y80628D01*
X104658Y80615D01*
X104541Y80597D01*
X104424Y80577D01*
X104308Y80552D01*
X104193Y80524D01*
X104080Y80491D01*
X103967Y80456D01*
X103855Y80416D01*
X103745Y80374D01*
X103636Y80327D01*
X103528Y80277D01*
X103423Y80224D01*
X103319Y80167D01*
X103217Y80107D01*
X103117Y80044D01*
X103019Y79977D01*
X102923Y79908D01*
X102830Y79835D01*
X102739Y79759D01*
X102650Y79681D01*
X102564Y79599D01*
X102481Y79515D01*
X102400Y79429D01*
X102323Y79339D01*
X102248Y79248D01*
X102176Y79154D01*
X102107Y79057D01*
X102042Y78959D01*
X101979Y78858D01*
X101920Y78755D01*
X101864Y78651D01*
X101812Y78545D01*
X101763Y78437D01*
X101718Y78328D01*
X101676Y78217D01*
X101638Y78105D01*
X107035Y75566D02*
X107111Y75641D01*
X107186Y75720D01*
X107257Y75801D01*
X107326Y75885D01*
X107391Y75971D01*
X107453Y76059D01*
X107513Y76149D01*
X107569Y76241D01*
X107622Y76336D01*
X107671Y76432D01*
X107717Y76530D01*
X107760Y76629D01*
X107799Y76730D01*
X107834Y76832D01*
X107866Y76935D01*
X107894Y77039D01*
X107919Y77144D01*
X107940Y77251D01*
X107957Y77357D01*
X107970Y77464D01*
X107979Y77572D01*
X107985Y77680D01*
X107987Y77788D01*
X107035Y75565D02*
X101637Y69215D01*
X107987Y69215D01*
D15*
X63890Y131340D02*
X63890Y163300D01*
X63890Y131340D02*
X14850Y131340D01*
X14850Y163300D01*
X63890Y163300D01*
X65170Y166800D02*
X65170Y182070D01*
D12*
X27178Y154432D02*
X27178Y145994D01*
X27180Y145881D01*
X27186Y145768D01*
X27196Y145655D01*
X27210Y145542D01*
X27227Y145430D01*
X27249Y145319D01*
X27274Y145209D01*
X27304Y145099D01*
X27337Y144991D01*
X27374Y144884D01*
X27414Y144778D01*
X27459Y144674D01*
X27507Y144571D01*
X27558Y144470D01*
X27613Y144371D01*
X27671Y144274D01*
X27733Y144179D01*
X27798Y144086D01*
X27866Y143996D01*
X27937Y143908D01*
X28012Y143822D01*
X28089Y143739D01*
X28169Y143659D01*
X28252Y143582D01*
X28338Y143507D01*
X28426Y143436D01*
X28516Y143368D01*
X28609Y143303D01*
X28704Y143241D01*
X28801Y143183D01*
X28900Y143128D01*
X29001Y143077D01*
X29104Y143029D01*
X29208Y142984D01*
X29314Y142944D01*
X29421Y142907D01*
X29529Y142874D01*
X29639Y142844D01*
X29749Y142819D01*
X29860Y142797D01*
X29972Y142780D01*
X30085Y142766D01*
X30198Y142756D01*
X30311Y142750D01*
X30424Y142748D01*
X30537Y142750D01*
X30650Y142756D01*
X30763Y142766D01*
X30876Y142780D01*
X30988Y142797D01*
X31099Y142819D01*
X31209Y142844D01*
X31319Y142874D01*
X31427Y142907D01*
X31534Y142944D01*
X31640Y142984D01*
X31744Y143029D01*
X31847Y143077D01*
X31948Y143128D01*
X32047Y143183D01*
X32144Y143241D01*
X32239Y143303D01*
X32332Y143368D01*
X32422Y143436D01*
X32510Y143507D01*
X32596Y143582D01*
X32679Y143659D01*
X32759Y143739D01*
X32836Y143822D01*
X32911Y143908D01*
X32982Y143996D01*
X33050Y144086D01*
X33115Y144179D01*
X33177Y144274D01*
X33235Y144371D01*
X33290Y144470D01*
X33341Y144571D01*
X33389Y144674D01*
X33434Y144778D01*
X33474Y144884D01*
X33511Y144991D01*
X33544Y145099D01*
X33574Y145209D01*
X33599Y145319D01*
X33621Y145430D01*
X33638Y145542D01*
X33652Y145655D01*
X33662Y145768D01*
X33668Y145881D01*
X33670Y145994D01*
X33669Y145994D02*
X33669Y154432D01*
X38989Y151836D02*
X42235Y154432D01*
X42235Y142748D01*
X45480Y142748D02*
X38989Y142748D01*
D10*
X17780Y82550D02*
X60960Y82550D01*
X60960Y107950D02*
X17780Y107950D01*
X15240Y105410D02*
X15240Y85090D01*
X63500Y85090D02*
X63500Y105410D01*
X17780Y82550D02*
X17680Y82552D01*
X17581Y82558D01*
X17481Y82568D01*
X17383Y82581D01*
X17284Y82599D01*
X17187Y82620D01*
X17091Y82645D01*
X16995Y82674D01*
X16901Y82707D01*
X16808Y82743D01*
X16717Y82783D01*
X16627Y82827D01*
X16539Y82874D01*
X16453Y82924D01*
X16369Y82978D01*
X16287Y83035D01*
X16208Y83095D01*
X16130Y83159D01*
X16056Y83225D01*
X15984Y83294D01*
X15915Y83366D01*
X15849Y83440D01*
X15785Y83518D01*
X15725Y83597D01*
X15668Y83679D01*
X15614Y83763D01*
X15564Y83849D01*
X15517Y83937D01*
X15473Y84027D01*
X15433Y84118D01*
X15397Y84211D01*
X15364Y84305D01*
X15335Y84401D01*
X15310Y84497D01*
X15289Y84594D01*
X15271Y84693D01*
X15258Y84791D01*
X15248Y84891D01*
X15242Y84990D01*
X15240Y85090D01*
X60960Y82550D02*
X61060Y82552D01*
X61159Y82558D01*
X61259Y82568D01*
X61357Y82581D01*
X61456Y82599D01*
X61553Y82620D01*
X61649Y82645D01*
X61745Y82674D01*
X61839Y82707D01*
X61932Y82743D01*
X62023Y82783D01*
X62113Y82827D01*
X62201Y82874D01*
X62287Y82924D01*
X62371Y82978D01*
X62453Y83035D01*
X62532Y83095D01*
X62610Y83159D01*
X62684Y83225D01*
X62756Y83294D01*
X62825Y83366D01*
X62891Y83440D01*
X62955Y83518D01*
X63015Y83597D01*
X63072Y83679D01*
X63126Y83763D01*
X63176Y83849D01*
X63223Y83937D01*
X63267Y84027D01*
X63307Y84118D01*
X63343Y84211D01*
X63376Y84305D01*
X63405Y84401D01*
X63430Y84497D01*
X63451Y84594D01*
X63469Y84693D01*
X63482Y84791D01*
X63492Y84891D01*
X63498Y84990D01*
X63500Y85090D01*
X17780Y107950D02*
X17680Y107948D01*
X17581Y107942D01*
X17481Y107932D01*
X17383Y107919D01*
X17284Y107901D01*
X17187Y107880D01*
X17091Y107855D01*
X16995Y107826D01*
X16901Y107793D01*
X16808Y107757D01*
X16717Y107717D01*
X16627Y107673D01*
X16539Y107626D01*
X16453Y107576D01*
X16369Y107522D01*
X16287Y107465D01*
X16208Y107405D01*
X16130Y107341D01*
X16056Y107275D01*
X15984Y107206D01*
X15915Y107134D01*
X15849Y107060D01*
X15785Y106982D01*
X15725Y106903D01*
X15668Y106821D01*
X15614Y106737D01*
X15564Y106651D01*
X15517Y106563D01*
X15473Y106473D01*
X15433Y106382D01*
X15397Y106289D01*
X15364Y106195D01*
X15335Y106099D01*
X15310Y106003D01*
X15289Y105906D01*
X15271Y105807D01*
X15258Y105709D01*
X15248Y105609D01*
X15242Y105510D01*
X15240Y105410D01*
X60960Y107950D02*
X61060Y107948D01*
X61159Y107942D01*
X61259Y107932D01*
X61357Y107919D01*
X61456Y107901D01*
X61553Y107880D01*
X61649Y107855D01*
X61745Y107826D01*
X61839Y107793D01*
X61932Y107757D01*
X62023Y107717D01*
X62113Y107673D01*
X62201Y107626D01*
X62287Y107576D01*
X62371Y107522D01*
X62453Y107465D01*
X62532Y107405D01*
X62610Y107341D01*
X62684Y107275D01*
X62756Y107206D01*
X62825Y107134D01*
X62891Y107060D01*
X62955Y106982D01*
X63015Y106903D01*
X63072Y106821D01*
X63126Y106737D01*
X63176Y106651D01*
X63223Y106563D01*
X63267Y106473D01*
X63307Y106382D01*
X63343Y106289D01*
X63376Y106195D01*
X63405Y106099D01*
X63430Y106003D01*
X63451Y105906D01*
X63469Y105807D01*
X63482Y105709D01*
X63492Y105609D01*
X63498Y105510D01*
X63500Y105410D01*
X36830Y95250D02*
X35560Y95250D01*
D13*
X36830Y95250D02*
X36830Y87630D01*
X36830Y95250D02*
X36830Y102870D01*
X41910Y95250D02*
X41910Y87630D01*
X41910Y95250D02*
X41910Y102870D01*
D10*
X41910Y95250D02*
X43180Y95250D01*
D14*
X45085Y67945D02*
X47625Y67945D01*
X45085Y67945D02*
X44985Y67947D01*
X44886Y67953D01*
X44786Y67963D01*
X44688Y67976D01*
X44589Y67994D01*
X44492Y68015D01*
X44396Y68040D01*
X44300Y68069D01*
X44206Y68102D01*
X44113Y68138D01*
X44022Y68178D01*
X43932Y68222D01*
X43844Y68269D01*
X43758Y68319D01*
X43674Y68373D01*
X43592Y68430D01*
X43513Y68490D01*
X43435Y68554D01*
X43361Y68620D01*
X43289Y68689D01*
X43220Y68761D01*
X43154Y68835D01*
X43090Y68913D01*
X43030Y68992D01*
X42973Y69074D01*
X42919Y69158D01*
X42869Y69244D01*
X42822Y69332D01*
X42778Y69422D01*
X42738Y69513D01*
X42702Y69606D01*
X42669Y69700D01*
X42640Y69796D01*
X42615Y69892D01*
X42594Y69989D01*
X42576Y70088D01*
X42563Y70186D01*
X42553Y70286D01*
X42547Y70385D01*
X42545Y70485D01*
X42545Y76835D01*
X42547Y76935D01*
X42553Y77034D01*
X42563Y77134D01*
X42576Y77232D01*
X42594Y77331D01*
X42615Y77428D01*
X42640Y77524D01*
X42669Y77620D01*
X42702Y77714D01*
X42738Y77807D01*
X42778Y77898D01*
X42822Y77988D01*
X42869Y78076D01*
X42919Y78162D01*
X42973Y78246D01*
X43030Y78328D01*
X43090Y78407D01*
X43154Y78485D01*
X43220Y78559D01*
X43289Y78631D01*
X43361Y78700D01*
X43435Y78766D01*
X43513Y78830D01*
X43592Y78890D01*
X43674Y78947D01*
X43758Y79001D01*
X43844Y79051D01*
X43932Y79098D01*
X44022Y79142D01*
X44113Y79182D01*
X44206Y79218D01*
X44300Y79251D01*
X44396Y79280D01*
X44492Y79305D01*
X44589Y79326D01*
X44688Y79344D01*
X44786Y79357D01*
X44886Y79367D01*
X44985Y79373D01*
X45085Y79375D01*
X47625Y79375D01*
X52107Y67945D02*
X55282Y67945D01*
X55393Y67947D01*
X55503Y67953D01*
X55614Y67962D01*
X55724Y67976D01*
X55833Y67993D01*
X55942Y68014D01*
X56050Y68039D01*
X56157Y68068D01*
X56263Y68100D01*
X56368Y68136D01*
X56471Y68176D01*
X56573Y68219D01*
X56674Y68266D01*
X56773Y68317D01*
X56869Y68370D01*
X56964Y68427D01*
X57057Y68488D01*
X57148Y68551D01*
X57237Y68618D01*
X57323Y68688D01*
X57406Y68761D01*
X57488Y68836D01*
X57566Y68914D01*
X57641Y68996D01*
X57714Y69079D01*
X57784Y69165D01*
X57851Y69254D01*
X57914Y69345D01*
X57975Y69438D01*
X58032Y69532D01*
X58085Y69629D01*
X58136Y69728D01*
X58183Y69829D01*
X58226Y69931D01*
X58266Y70034D01*
X58302Y70139D01*
X58334Y70245D01*
X58363Y70352D01*
X58388Y70460D01*
X58409Y70569D01*
X58426Y70678D01*
X58440Y70788D01*
X58449Y70899D01*
X58455Y71009D01*
X58457Y71120D01*
X58455Y71231D01*
X58449Y71341D01*
X58440Y71452D01*
X58426Y71562D01*
X58409Y71671D01*
X58388Y71780D01*
X58363Y71888D01*
X58334Y71995D01*
X58302Y72101D01*
X58266Y72206D01*
X58226Y72309D01*
X58183Y72411D01*
X58136Y72512D01*
X58085Y72611D01*
X58032Y72707D01*
X57975Y72802D01*
X57914Y72895D01*
X57851Y72986D01*
X57784Y73075D01*
X57714Y73161D01*
X57641Y73244D01*
X57566Y73326D01*
X57488Y73404D01*
X57406Y73479D01*
X57323Y73552D01*
X57237Y73622D01*
X57148Y73689D01*
X57057Y73752D01*
X56964Y73813D01*
X56870Y73870D01*
X56773Y73923D01*
X56674Y73974D01*
X56573Y74021D01*
X56471Y74064D01*
X56368Y74104D01*
X56263Y74140D01*
X56157Y74172D01*
X56050Y74201D01*
X55942Y74226D01*
X55833Y74247D01*
X55724Y74264D01*
X55614Y74278D01*
X55503Y74287D01*
X55393Y74293D01*
X55282Y74295D01*
X55917Y79375D02*
X52107Y79375D01*
X55917Y79375D02*
X56017Y79373D01*
X56116Y79367D01*
X56216Y79357D01*
X56314Y79344D01*
X56413Y79326D01*
X56510Y79305D01*
X56606Y79280D01*
X56702Y79251D01*
X56796Y79218D01*
X56889Y79182D01*
X56980Y79142D01*
X57070Y79098D01*
X57158Y79051D01*
X57244Y79001D01*
X57328Y78947D01*
X57410Y78890D01*
X57489Y78830D01*
X57567Y78766D01*
X57641Y78700D01*
X57713Y78631D01*
X57782Y78559D01*
X57848Y78485D01*
X57912Y78407D01*
X57972Y78328D01*
X58029Y78246D01*
X58083Y78162D01*
X58133Y78076D01*
X58180Y77988D01*
X58224Y77898D01*
X58264Y77807D01*
X58300Y77714D01*
X58333Y77620D01*
X58362Y77524D01*
X58387Y77428D01*
X58408Y77331D01*
X58426Y77232D01*
X58439Y77134D01*
X58449Y77034D01*
X58455Y76935D01*
X58457Y76835D01*
X58455Y76735D01*
X58449Y76636D01*
X58439Y76536D01*
X58426Y76438D01*
X58408Y76339D01*
X58387Y76242D01*
X58362Y76146D01*
X58333Y76050D01*
X58300Y75956D01*
X58264Y75863D01*
X58224Y75772D01*
X58180Y75682D01*
X58133Y75594D01*
X58083Y75508D01*
X58029Y75424D01*
X57972Y75342D01*
X57912Y75263D01*
X57848Y75185D01*
X57782Y75111D01*
X57713Y75039D01*
X57641Y74970D01*
X57567Y74904D01*
X57489Y74840D01*
X57410Y74780D01*
X57328Y74723D01*
X57244Y74669D01*
X57158Y74619D01*
X57070Y74572D01*
X56980Y74528D01*
X56889Y74488D01*
X56796Y74452D01*
X56702Y74419D01*
X56606Y74390D01*
X56510Y74365D01*
X56413Y74344D01*
X56314Y74326D01*
X56216Y74313D01*
X56116Y74303D01*
X56017Y74297D01*
X55917Y74295D01*
X53377Y74295D01*
D10*
X77216Y223012D02*
X77216Y228092D01*
X77216Y223012D02*
X72136Y223012D01*
X51816Y223012D02*
X46736Y223012D01*
X46736Y228092D01*
X46736Y248412D02*
X46736Y253492D01*
X51816Y253492D01*
X72136Y253492D02*
X77216Y253492D01*
X77216Y248412D01*
M02*
