G04 EAGLE Gerber RS-274X export*
G75*
%MOMM*%
%FSLAX34Y34*%
%LPD*%
%INTop Copper*%
%IPPOS*%
%AMOC8*
5,1,8,0,0,1.08239X$1,22.5*%
G01*
%ADD10C,0.300000*%
%ADD11R,0.600000X0.700000*%
%ADD12R,0.700000X0.600000*%
%ADD13R,0.700000X0.900000*%
%ADD14R,0.900000X0.700000*%
%ADD15C,1.524000*%
%ADD16P,2.763017X8X112.500000*%
%ADD17C,8.000000*%
%ADD18C,0.152400*%
%ADD19C,0.756400*%
%ADD20C,0.254000*%

G36*
X400168Y175276D02*
X400168Y175276D01*
X400287Y175283D01*
X400325Y175296D01*
X400366Y175301D01*
X400476Y175344D01*
X400589Y175381D01*
X400624Y175403D01*
X400661Y175418D01*
X400757Y175488D01*
X400858Y175551D01*
X400886Y175581D01*
X400919Y175604D01*
X400995Y175696D01*
X401076Y175783D01*
X401096Y175818D01*
X401121Y175849D01*
X401172Y175957D01*
X401230Y176061D01*
X401240Y176101D01*
X401257Y176137D01*
X401279Y176254D01*
X401309Y176369D01*
X401313Y176430D01*
X401317Y176450D01*
X401315Y176470D01*
X401319Y176530D01*
X401319Y328930D01*
X401304Y329048D01*
X401297Y329167D01*
X401284Y329205D01*
X401279Y329246D01*
X401236Y329356D01*
X401199Y329469D01*
X401177Y329504D01*
X401162Y329541D01*
X401093Y329637D01*
X401029Y329738D01*
X400999Y329766D01*
X400976Y329799D01*
X400884Y329875D01*
X400797Y329956D01*
X400762Y329976D01*
X400731Y330001D01*
X400623Y330052D01*
X400519Y330110D01*
X400479Y330120D01*
X400443Y330137D01*
X400326Y330159D01*
X400211Y330189D01*
X400151Y330193D01*
X400131Y330197D01*
X400110Y330195D01*
X400050Y330199D01*
X100330Y330199D01*
X100212Y330184D01*
X100093Y330177D01*
X100055Y330164D01*
X100014Y330159D01*
X99904Y330116D01*
X99791Y330079D01*
X99756Y330057D01*
X99719Y330042D01*
X99623Y329973D01*
X99522Y329909D01*
X99494Y329879D01*
X99461Y329856D01*
X99386Y329764D01*
X99304Y329677D01*
X99284Y329642D01*
X99259Y329611D01*
X99208Y329503D01*
X99150Y329399D01*
X99140Y329359D01*
X99123Y329323D01*
X99101Y329206D01*
X99071Y329091D01*
X99067Y329031D01*
X99063Y329011D01*
X99065Y328990D01*
X99061Y328930D01*
X99061Y304924D01*
X99085Y304734D01*
X99100Y304609D01*
X99101Y304609D01*
X99167Y304441D01*
X99217Y304313D01*
X99218Y304313D01*
X99346Y304136D01*
X99404Y304056D01*
X99538Y303945D01*
X99649Y303853D01*
X99777Y303793D01*
X99937Y303717D01*
X100073Y303691D01*
X100249Y303657D01*
X100249Y303658D01*
X100250Y303657D01*
X100412Y303668D01*
X100566Y303677D01*
X100567Y303677D01*
X100730Y303730D01*
X100869Y303775D01*
X100870Y303776D01*
X101010Y303852D01*
X111531Y310529D01*
X126023Y315238D01*
X141231Y316195D01*
X146798Y315133D01*
X146850Y315129D01*
X146902Y315117D01*
X147008Y315120D01*
X147115Y315113D01*
X147167Y315123D01*
X147220Y315124D01*
X147322Y315152D01*
X147428Y315172D01*
X147475Y315195D01*
X147526Y315209D01*
X147670Y315280D01*
X149409Y316284D01*
X160585Y319279D01*
X166354Y319279D01*
X166355Y319279D01*
X166356Y319279D01*
X306177Y319528D01*
X306186Y319530D01*
X306195Y319529D01*
X306224Y319533D01*
X308599Y319533D01*
X308600Y319533D01*
X308601Y319533D01*
X310958Y319537D01*
X311024Y319533D01*
X313225Y319533D01*
X322140Y317144D01*
X330133Y312529D01*
X336659Y306003D01*
X340081Y300075D01*
X340091Y300063D01*
X340098Y300048D01*
X340187Y299936D01*
X340274Y299822D01*
X340286Y299812D01*
X340296Y299800D01*
X340411Y299713D01*
X340523Y299624D01*
X340538Y299618D01*
X340550Y299608D01*
X340695Y299537D01*
X343000Y298583D01*
X345573Y296010D01*
X346965Y292649D01*
X346965Y289011D01*
X345573Y285650D01*
X344034Y284112D01*
X343974Y284034D01*
X343906Y283962D01*
X343877Y283909D01*
X343840Y283861D01*
X343800Y283770D01*
X343752Y283683D01*
X343737Y283624D01*
X343713Y283569D01*
X343698Y283471D01*
X343673Y283375D01*
X343667Y283275D01*
X343663Y283255D01*
X343665Y283242D01*
X343663Y283214D01*
X343663Y273046D01*
X343675Y272947D01*
X343678Y272848D01*
X343695Y272790D01*
X343703Y272730D01*
X343739Y272638D01*
X343767Y272543D01*
X343797Y272491D01*
X343820Y272434D01*
X343878Y272354D01*
X343928Y272269D01*
X343994Y272194D01*
X344006Y272177D01*
X344016Y272169D01*
X344034Y272148D01*
X345573Y270610D01*
X346965Y267249D01*
X346965Y263611D01*
X345573Y260250D01*
X344034Y258712D01*
X343974Y258634D01*
X343906Y258562D01*
X343877Y258509D01*
X343840Y258461D01*
X343800Y258370D01*
X343752Y258283D01*
X343737Y258224D01*
X343713Y258169D01*
X343698Y258071D01*
X343673Y257975D01*
X343667Y257875D01*
X343663Y257855D01*
X343665Y257842D01*
X343663Y257814D01*
X343663Y248991D01*
X343668Y248952D01*
X343665Y248913D01*
X343688Y248795D01*
X343703Y248676D01*
X343717Y248639D01*
X343724Y248600D01*
X343775Y248491D01*
X343820Y248380D01*
X343843Y248348D01*
X343860Y248312D01*
X343936Y248220D01*
X344006Y248123D01*
X344037Y248097D01*
X344062Y248067D01*
X344186Y247964D01*
X344439Y247780D01*
X345570Y246649D01*
X346510Y245355D01*
X347236Y243930D01*
X347679Y242569D01*
X344932Y242569D01*
X344814Y242554D01*
X344695Y242547D01*
X344657Y242534D01*
X344616Y242529D01*
X344506Y242486D01*
X344393Y242449D01*
X344358Y242427D01*
X344321Y242412D01*
X344225Y242342D01*
X344124Y242279D01*
X344096Y242249D01*
X344063Y242225D01*
X343987Y242134D01*
X343906Y242047D01*
X343886Y242012D01*
X343861Y241981D01*
X343810Y241873D01*
X343752Y241769D01*
X343742Y241729D01*
X343725Y241693D01*
X343703Y241576D01*
X343673Y241461D01*
X343669Y241400D01*
X343665Y241380D01*
X343667Y241360D01*
X343665Y241343D01*
X343665Y241342D01*
X343665Y241341D01*
X343663Y241300D01*
X343663Y238760D01*
X343678Y238642D01*
X343685Y238523D01*
X343698Y238485D01*
X343703Y238444D01*
X343746Y238334D01*
X343783Y238221D01*
X343805Y238186D01*
X343820Y238149D01*
X343889Y238053D01*
X343953Y237952D01*
X343983Y237924D01*
X344006Y237891D01*
X344098Y237816D01*
X344185Y237734D01*
X344220Y237714D01*
X344251Y237689D01*
X344359Y237638D01*
X344463Y237580D01*
X344503Y237570D01*
X344539Y237553D01*
X344656Y237531D01*
X344771Y237501D01*
X344831Y237497D01*
X344851Y237493D01*
X344872Y237495D01*
X344932Y237491D01*
X347679Y237491D01*
X347236Y236130D01*
X346510Y234705D01*
X345570Y233411D01*
X344439Y232280D01*
X344186Y232096D01*
X344157Y232069D01*
X344124Y232048D01*
X344042Y231960D01*
X343954Y231878D01*
X343933Y231845D01*
X343906Y231816D01*
X343848Y231711D01*
X343784Y231610D01*
X343771Y231572D01*
X343752Y231538D01*
X343722Y231421D01*
X343685Y231307D01*
X343683Y231268D01*
X343673Y231230D01*
X343663Y231069D01*
X343663Y222246D01*
X343675Y222147D01*
X343678Y222048D01*
X343695Y221990D01*
X343703Y221930D01*
X343739Y221838D01*
X343767Y221743D01*
X343797Y221691D01*
X343820Y221634D01*
X343878Y221554D01*
X343928Y221469D01*
X343994Y221394D01*
X344006Y221377D01*
X344016Y221369D01*
X344034Y221348D01*
X345573Y219810D01*
X346965Y216449D01*
X346965Y212811D01*
X345573Y209450D01*
X343000Y206877D01*
X341899Y206421D01*
X341770Y206348D01*
X341639Y206276D01*
X341632Y206269D01*
X341622Y206264D01*
X341516Y206160D01*
X341407Y206059D01*
X341402Y206050D01*
X341394Y206042D01*
X341317Y205916D01*
X341237Y205790D01*
X341231Y205777D01*
X341228Y205771D01*
X341223Y205757D01*
X341177Y205641D01*
X340480Y203496D01*
X334427Y195163D01*
X326094Y189110D01*
X316300Y185927D01*
X311171Y185927D01*
X311170Y185927D01*
X311169Y185927D01*
X206723Y185739D01*
X206626Y185727D01*
X206528Y185724D01*
X206469Y185707D01*
X206408Y185699D01*
X206317Y185662D01*
X206223Y185635D01*
X206170Y185604D01*
X206112Y185581D01*
X206033Y185523D01*
X205949Y185474D01*
X205871Y185405D01*
X205855Y185394D01*
X205848Y185385D01*
X205828Y185367D01*
X203022Y182562D01*
X191186Y182562D01*
X188415Y185333D01*
X188335Y185394D01*
X188262Y185463D01*
X188210Y185491D01*
X188163Y185528D01*
X188071Y185568D01*
X187984Y185616D01*
X187926Y185630D01*
X187872Y185654D01*
X187772Y185670D01*
X187676Y185695D01*
X187578Y185701D01*
X187557Y185704D01*
X187545Y185703D01*
X187515Y185704D01*
X172613Y185678D01*
X172605Y185677D01*
X172596Y185677D01*
X172566Y185673D01*
X170193Y185673D01*
X170192Y185673D01*
X170191Y185673D01*
X167833Y185669D01*
X167766Y185673D01*
X163893Y185673D01*
X151748Y188928D01*
X141773Y194687D01*
X141725Y194707D01*
X141680Y194735D01*
X141579Y194768D01*
X141480Y194810D01*
X141428Y194818D01*
X141378Y194834D01*
X141218Y194854D01*
X126023Y195810D01*
X111531Y200519D01*
X101011Y207195D01*
X101010Y207195D01*
X101010Y207196D01*
X100850Y207271D01*
X100723Y207331D01*
X100722Y207331D01*
X100546Y207365D01*
X100411Y207391D01*
X100410Y207391D01*
X100247Y207380D01*
X100093Y207371D01*
X99917Y207314D01*
X99791Y207273D01*
X99790Y207273D01*
X99647Y207182D01*
X99522Y207103D01*
X99522Y207102D01*
X99521Y207102D01*
X99418Y206992D01*
X99304Y206871D01*
X99209Y206699D01*
X99150Y206592D01*
X99102Y206403D01*
X99071Y206285D01*
X99071Y206284D01*
X99061Y206124D01*
X99061Y176530D01*
X99076Y176412D01*
X99083Y176293D01*
X99096Y176255D01*
X99101Y176214D01*
X99144Y176104D01*
X99181Y175991D01*
X99203Y175956D01*
X99218Y175919D01*
X99288Y175823D01*
X99351Y175722D01*
X99381Y175694D01*
X99404Y175661D01*
X99496Y175586D01*
X99583Y175504D01*
X99618Y175484D01*
X99649Y175459D01*
X99757Y175408D01*
X99861Y175350D01*
X99901Y175340D01*
X99937Y175323D01*
X100054Y175301D01*
X100169Y175271D01*
X100230Y175267D01*
X100250Y175263D01*
X100270Y175265D01*
X100330Y175261D01*
X400050Y175261D01*
X400168Y175276D01*
G37*
G36*
X260258Y207681D02*
X260258Y207681D01*
X260375Y207696D01*
X260493Y207703D01*
X260532Y207716D01*
X260574Y207721D01*
X260684Y207765D01*
X260795Y207801D01*
X260831Y207824D01*
X260869Y207839D01*
X260965Y207908D01*
X261064Y207972D01*
X261093Y208002D01*
X261126Y208026D01*
X261201Y208117D01*
X261282Y208203D01*
X261302Y208240D01*
X261329Y208272D01*
X261379Y208378D01*
X261436Y208482D01*
X261446Y208522D01*
X261464Y208560D01*
X261486Y208676D01*
X261515Y208790D01*
X261519Y208852D01*
X261523Y208872D01*
X261522Y208892D01*
X261525Y208950D01*
X261525Y215952D01*
X262699Y217125D01*
X262752Y217161D01*
X262766Y217177D01*
X262782Y217188D01*
X262871Y217296D01*
X262963Y217400D01*
X262972Y217418D01*
X262985Y217433D01*
X263044Y217559D01*
X263107Y217683D01*
X263112Y217703D01*
X263120Y217721D01*
X263146Y217858D01*
X263177Y217993D01*
X263176Y218014D01*
X263180Y218033D01*
X263172Y218172D01*
X263167Y218311D01*
X263162Y218331D01*
X263160Y218351D01*
X263118Y218483D01*
X263079Y218617D01*
X263069Y218634D01*
X263062Y218653D01*
X262988Y218771D01*
X262917Y218891D01*
X262899Y218912D01*
X262892Y218922D01*
X262877Y218936D01*
X262811Y219011D01*
X262175Y219647D01*
X262175Y238853D01*
X263534Y240211D01*
X263594Y240289D01*
X263662Y240362D01*
X263691Y240415D01*
X263728Y240462D01*
X263768Y240553D01*
X263816Y240640D01*
X263831Y240699D01*
X263855Y240754D01*
X263870Y240852D01*
X263895Y240948D01*
X263901Y241048D01*
X263905Y241068D01*
X263903Y241081D01*
X263905Y241109D01*
X263905Y246014D01*
X272908Y255017D01*
X278736Y255017D01*
X278834Y255029D01*
X278933Y255032D01*
X278992Y255049D01*
X279052Y255057D01*
X279144Y255093D01*
X279239Y255121D01*
X279291Y255151D01*
X279347Y255174D01*
X279427Y255232D01*
X279513Y255282D01*
X279588Y255348D01*
X279605Y255360D01*
X279612Y255370D01*
X279634Y255388D01*
X279888Y255643D01*
X279973Y255752D01*
X280062Y255859D01*
X280070Y255878D01*
X280083Y255894D01*
X280138Y256022D01*
X280197Y256147D01*
X280201Y256167D01*
X280209Y256186D01*
X280231Y256324D01*
X280257Y256460D01*
X280256Y256480D01*
X280259Y256500D01*
X280246Y256639D01*
X280237Y256777D01*
X280231Y256796D01*
X280229Y256816D01*
X280182Y256948D01*
X280139Y257079D01*
X280128Y257097D01*
X280121Y257116D01*
X280043Y257231D01*
X279969Y257348D01*
X279954Y257362D01*
X279943Y257379D01*
X279839Y257471D01*
X279737Y257566D01*
X279720Y257576D01*
X279704Y257589D01*
X279581Y257652D01*
X279459Y257720D01*
X279439Y257725D01*
X279421Y257734D01*
X279285Y257764D01*
X279151Y257799D01*
X279123Y257801D01*
X279111Y257804D01*
X279090Y257803D01*
X278990Y257809D01*
X231517Y257809D01*
X231419Y257797D01*
X231320Y257794D01*
X231262Y257777D01*
X231201Y257769D01*
X231109Y257733D01*
X231014Y257705D01*
X230962Y257675D01*
X230906Y257652D01*
X230826Y257594D01*
X230740Y257544D01*
X230665Y257478D01*
X230648Y257466D01*
X230641Y257456D01*
X230619Y257438D01*
X218938Y245757D01*
X218878Y245678D01*
X218810Y245606D01*
X218781Y245553D01*
X218744Y245505D01*
X218704Y245414D01*
X218656Y245328D01*
X218641Y245269D01*
X218617Y245213D01*
X218602Y245115D01*
X218577Y245020D01*
X218571Y244920D01*
X218567Y244899D01*
X218569Y244887D01*
X218567Y244859D01*
X218567Y239962D01*
X218389Y239784D01*
X218316Y239690D01*
X218237Y239601D01*
X218219Y239565D01*
X218194Y239533D01*
X218146Y239424D01*
X218092Y239318D01*
X218084Y239279D01*
X218068Y239241D01*
X218049Y239124D01*
X218023Y239008D01*
X218024Y238967D01*
X218018Y238927D01*
X218029Y238809D01*
X218032Y238690D01*
X218044Y238651D01*
X218047Y238611D01*
X218088Y238499D01*
X218121Y238384D01*
X218141Y238349D01*
X218155Y238311D01*
X218222Y238213D01*
X218282Y238110D01*
X218322Y238065D01*
X218334Y238048D01*
X218349Y238035D01*
X218389Y237989D01*
X218821Y237558D01*
X218821Y232806D01*
X218836Y232688D01*
X218843Y232569D01*
X218856Y232531D01*
X218861Y232490D01*
X218904Y232380D01*
X218941Y232267D01*
X218963Y232232D01*
X218978Y232195D01*
X219047Y232099D01*
X219111Y231998D01*
X219141Y231970D01*
X219164Y231937D01*
X219256Y231861D01*
X219343Y231780D01*
X219378Y231760D01*
X219409Y231735D01*
X219517Y231684D01*
X219621Y231626D01*
X219661Y231616D01*
X219697Y231599D01*
X219814Y231577D01*
X219929Y231547D01*
X219989Y231543D01*
X220009Y231539D01*
X220030Y231541D01*
X220090Y231537D01*
X222806Y231537D01*
X222924Y231552D01*
X223043Y231559D01*
X223081Y231572D01*
X223122Y231577D01*
X223232Y231620D01*
X223345Y231657D01*
X223380Y231679D01*
X223417Y231694D01*
X223513Y231763D01*
X223614Y231827D01*
X223642Y231857D01*
X223675Y231880D01*
X223751Y231972D01*
X223832Y232059D01*
X223852Y232094D01*
X223877Y232125D01*
X223928Y232233D01*
X223986Y232337D01*
X223996Y232377D01*
X224013Y232413D01*
X224035Y232530D01*
X224065Y232645D01*
X224069Y232705D01*
X224073Y232725D01*
X224071Y232746D01*
X224075Y232806D01*
X224075Y238853D01*
X225847Y240625D01*
X231353Y240625D01*
X233125Y238853D01*
X233125Y219647D01*
X231235Y217757D01*
X231150Y217648D01*
X231061Y217541D01*
X231053Y217522D01*
X231040Y217506D01*
X230985Y217378D01*
X230926Y217253D01*
X230922Y217233D01*
X230914Y217214D01*
X230892Y217076D01*
X230866Y216940D01*
X230867Y216920D01*
X230864Y216900D01*
X230877Y216761D01*
X230886Y216623D01*
X230892Y216604D01*
X230894Y216584D01*
X230941Y216452D01*
X230984Y216321D01*
X230994Y216303D01*
X231001Y216284D01*
X231080Y216169D01*
X231154Y216052D01*
X231169Y216038D01*
X231180Y216021D01*
X231284Y215929D01*
X231385Y215834D01*
X231403Y215824D01*
X231418Y215811D01*
X231542Y215747D01*
X231664Y215680D01*
X231684Y215675D01*
X231702Y215666D01*
X231837Y215636D01*
X231858Y215630D01*
X232791Y214698D01*
X232791Y214376D01*
X232806Y214258D01*
X232813Y214139D01*
X232826Y214101D01*
X232831Y214060D01*
X232874Y213950D01*
X232911Y213837D01*
X232933Y213802D01*
X232948Y213765D01*
X233017Y213669D01*
X233081Y213568D01*
X233111Y213540D01*
X233134Y213507D01*
X233226Y213431D01*
X233313Y213350D01*
X233348Y213330D01*
X233379Y213305D01*
X233487Y213254D01*
X233591Y213196D01*
X233631Y213186D01*
X233667Y213169D01*
X233784Y213147D01*
X233899Y213117D01*
X233959Y213113D01*
X233979Y213109D01*
X234000Y213111D01*
X234060Y213107D01*
X236856Y213107D01*
X236974Y213122D01*
X237093Y213129D01*
X237131Y213142D01*
X237172Y213147D01*
X237282Y213190D01*
X237395Y213227D01*
X237430Y213249D01*
X237467Y213264D01*
X237563Y213333D01*
X237664Y213397D01*
X237692Y213427D01*
X237725Y213450D01*
X237801Y213542D01*
X237882Y213629D01*
X237902Y213664D01*
X237927Y213695D01*
X237978Y213803D01*
X238036Y213907D01*
X238046Y213947D01*
X238063Y213983D01*
X238085Y214100D01*
X238115Y214215D01*
X238119Y214275D01*
X238123Y214295D01*
X238121Y214316D01*
X238125Y214376D01*
X238125Y214952D01*
X238642Y215468D01*
X238702Y215546D01*
X238770Y215618D01*
X238799Y215671D01*
X238836Y215719D01*
X238876Y215810D01*
X238924Y215897D01*
X238939Y215955D01*
X238963Y216011D01*
X238978Y216109D01*
X239003Y216205D01*
X239009Y216305D01*
X239013Y216325D01*
X239011Y216337D01*
X239013Y216365D01*
X239013Y216883D01*
X239001Y216982D01*
X238998Y217081D01*
X238981Y217139D01*
X238973Y217199D01*
X238937Y217291D01*
X238909Y217386D01*
X238879Y217438D01*
X238856Y217495D01*
X238798Y217575D01*
X238748Y217660D01*
X238682Y217735D01*
X238670Y217752D01*
X238660Y217760D01*
X238642Y217781D01*
X236775Y219647D01*
X236775Y238853D01*
X238547Y240625D01*
X244053Y240625D01*
X245825Y238853D01*
X245825Y219647D01*
X244189Y218011D01*
X244103Y217901D01*
X244015Y217795D01*
X244007Y217776D01*
X243994Y217760D01*
X243939Y217632D01*
X243880Y217507D01*
X243876Y217487D01*
X243868Y217468D01*
X243846Y217330D01*
X243820Y217194D01*
X243821Y217174D01*
X243818Y217154D01*
X243831Y217014D01*
X243840Y216877D01*
X243846Y216858D01*
X243848Y216838D01*
X243895Y216706D01*
X243938Y216575D01*
X243948Y216557D01*
X243955Y216538D01*
X244033Y216423D01*
X244108Y216306D01*
X244123Y216292D01*
X244134Y216275D01*
X244238Y216183D01*
X244339Y216088D01*
X244357Y216078D01*
X244372Y216065D01*
X244496Y216001D01*
X244618Y215934D01*
X244638Y215929D01*
X244656Y215920D01*
X244791Y215890D01*
X244926Y215855D01*
X244954Y215853D01*
X244966Y215850D01*
X244986Y215851D01*
X245087Y215845D01*
X246405Y215845D01*
X246501Y215796D01*
X246540Y215787D01*
X246577Y215771D01*
X246695Y215752D01*
X246811Y215726D01*
X246851Y215727D01*
X246891Y215721D01*
X247010Y215732D01*
X247129Y215736D01*
X247168Y215747D01*
X247208Y215751D01*
X247320Y215791D01*
X247434Y215824D01*
X247469Y215845D01*
X247507Y215858D01*
X247606Y215925D01*
X247708Y215986D01*
X247753Y216026D01*
X247770Y216037D01*
X247784Y216052D01*
X247829Y216092D01*
X248090Y216353D01*
X248669Y216688D01*
X249405Y216885D01*
X249474Y216891D01*
X249493Y216898D01*
X249513Y216901D01*
X249642Y216952D01*
X249773Y216999D01*
X249790Y217010D01*
X249809Y217018D01*
X249921Y217099D01*
X250036Y217177D01*
X250050Y217193D01*
X250066Y217204D01*
X250155Y217312D01*
X250247Y217416D01*
X250256Y217434D01*
X250269Y217449D01*
X250328Y217575D01*
X250391Y217699D01*
X250396Y217719D01*
X250404Y217737D01*
X250430Y217874D01*
X250461Y218009D01*
X250460Y218030D01*
X250464Y218049D01*
X250455Y218188D01*
X250451Y218327D01*
X250446Y218347D01*
X250444Y218367D01*
X250402Y218499D01*
X250363Y218633D01*
X250353Y218650D01*
X250346Y218669D01*
X250272Y218787D01*
X250201Y218907D01*
X250183Y218928D01*
X250176Y218938D01*
X250161Y218952D01*
X250095Y219027D01*
X249475Y219647D01*
X249475Y238853D01*
X250216Y239594D01*
X250289Y239688D01*
X250368Y239777D01*
X250386Y239813D01*
X250411Y239845D01*
X250458Y239954D01*
X250513Y240060D01*
X250521Y240100D01*
X250538Y240137D01*
X250556Y240255D01*
X250582Y240371D01*
X250581Y240411D01*
X250587Y240451D01*
X250576Y240570D01*
X250573Y240689D01*
X250561Y240727D01*
X250558Y240768D01*
X250517Y240880D01*
X250484Y240994D01*
X250464Y241029D01*
X250450Y241067D01*
X250383Y241165D01*
X250323Y241268D01*
X250283Y241313D01*
X250271Y241330D01*
X250256Y241344D01*
X250216Y241389D01*
X249501Y242104D01*
X248693Y244054D01*
X248693Y246166D01*
X249501Y248116D01*
X250994Y249609D01*
X252944Y250417D01*
X255056Y250417D01*
X257006Y249609D01*
X258499Y248116D01*
X259307Y246166D01*
X259307Y244054D01*
X258499Y242104D01*
X257784Y241389D01*
X257711Y241295D01*
X257632Y241206D01*
X257614Y241170D01*
X257589Y241138D01*
X257541Y241028D01*
X257487Y240922D01*
X257479Y240883D01*
X257462Y240846D01*
X257444Y240728D01*
X257418Y240612D01*
X257419Y240572D01*
X257413Y240532D01*
X257424Y240413D01*
X257427Y240294D01*
X257439Y240255D01*
X257442Y240215D01*
X257483Y240103D01*
X257516Y239989D01*
X257536Y239954D01*
X257550Y239916D01*
X257617Y239817D01*
X257677Y239715D01*
X257717Y239669D01*
X257729Y239653D01*
X257744Y239639D01*
X257784Y239594D01*
X258525Y238853D01*
X258525Y219647D01*
X257118Y218240D01*
X257045Y218146D01*
X256966Y218057D01*
X256948Y218021D01*
X256923Y217989D01*
X256876Y217880D01*
X256822Y217774D01*
X256813Y217734D01*
X256797Y217697D01*
X256778Y217579D01*
X256752Y217463D01*
X256753Y217423D01*
X256747Y217383D01*
X256758Y217264D01*
X256762Y217146D01*
X256773Y217107D01*
X256777Y217066D01*
X256817Y216954D01*
X256850Y216840D01*
X256870Y216805D01*
X256884Y216767D01*
X256951Y216669D01*
X257011Y216566D01*
X257051Y216521D01*
X257063Y216504D01*
X257078Y216491D01*
X257118Y216445D01*
X257683Y215880D01*
X258018Y215301D01*
X258191Y214654D01*
X258191Y212319D01*
X252880Y212319D01*
X252762Y212304D01*
X252643Y212297D01*
X252605Y212284D01*
X252565Y212279D01*
X252454Y212236D01*
X252341Y212199D01*
X252307Y212177D01*
X252269Y212162D01*
X252173Y212093D01*
X252072Y212029D01*
X252044Y211999D01*
X252012Y211976D01*
X251936Y211884D01*
X251854Y211797D01*
X251835Y211762D01*
X251809Y211731D01*
X251758Y211623D01*
X251701Y211519D01*
X251691Y211479D01*
X251673Y211443D01*
X251651Y211326D01*
X251621Y211211D01*
X251617Y211151D01*
X251614Y211131D01*
X251615Y211110D01*
X251611Y211050D01*
X251611Y210590D01*
X251626Y210472D01*
X251633Y210353D01*
X251646Y210315D01*
X251651Y210274D01*
X251695Y210164D01*
X251731Y210051D01*
X251753Y210016D01*
X251768Y209979D01*
X251838Y209882D01*
X251901Y209782D01*
X251931Y209754D01*
X251955Y209721D01*
X252046Y209645D01*
X252133Y209564D01*
X252168Y209544D01*
X252200Y209519D01*
X252307Y209468D01*
X252412Y209410D01*
X252451Y209400D01*
X252487Y209383D01*
X252604Y209361D01*
X252720Y209331D01*
X252780Y209327D01*
X252800Y209323D01*
X252820Y209325D01*
X252880Y209321D01*
X258191Y209321D01*
X258191Y208949D01*
X258206Y208830D01*
X258213Y208710D01*
X258226Y208672D01*
X258231Y208633D01*
X258275Y208522D01*
X258312Y208407D01*
X258333Y208374D01*
X258348Y208338D01*
X258418Y208240D01*
X258483Y208139D01*
X258511Y208112D01*
X258534Y208080D01*
X258627Y208004D01*
X258715Y207921D01*
X258749Y207903D01*
X258779Y207877D01*
X258888Y207826D01*
X258993Y207768D01*
X259032Y207759D01*
X259067Y207742D01*
X259185Y207719D01*
X259302Y207690D01*
X259360Y207686D01*
X259379Y207682D01*
X259400Y207683D01*
X259462Y207680D01*
X260258Y207681D01*
G37*
G36*
X280032Y207717D02*
X280032Y207717D01*
X280149Y207732D01*
X280267Y207739D01*
X280306Y207752D01*
X280348Y207757D01*
X280457Y207801D01*
X280569Y207837D01*
X280605Y207859D01*
X280643Y207875D01*
X280738Y207944D01*
X280838Y208007D01*
X280867Y208037D01*
X280900Y208062D01*
X280975Y208153D01*
X281056Y208239D01*
X281076Y208275D01*
X281103Y208307D01*
X281153Y208414D01*
X281210Y208517D01*
X281220Y208558D01*
X281238Y208595D01*
X281260Y208711D01*
X281289Y208825D01*
X281293Y208887D01*
X281297Y208908D01*
X281296Y208928D01*
X281299Y208986D01*
X281299Y209071D01*
X285591Y209071D01*
X285591Y208998D01*
X285606Y208879D01*
X285613Y208759D01*
X285626Y208722D01*
X285631Y208683D01*
X285675Y208571D01*
X285712Y208457D01*
X285733Y208424D01*
X285748Y208387D01*
X285818Y208290D01*
X285883Y208188D01*
X285911Y208162D01*
X285934Y208130D01*
X286027Y208053D01*
X286115Y207971D01*
X286149Y207952D01*
X286179Y207927D01*
X286288Y207876D01*
X286393Y207818D01*
X286432Y207808D01*
X286467Y207791D01*
X286585Y207769D01*
X286702Y207739D01*
X286760Y207735D01*
X286779Y207732D01*
X286800Y207733D01*
X286862Y207729D01*
X288546Y207732D01*
X288663Y207747D01*
X288781Y207754D01*
X288820Y207767D01*
X288862Y207772D01*
X288971Y207816D01*
X289083Y207852D01*
X289119Y207875D01*
X289157Y207890D01*
X289252Y207959D01*
X289352Y208023D01*
X289381Y208053D01*
X289414Y208077D01*
X289489Y208168D01*
X289570Y208254D01*
X289590Y208291D01*
X289617Y208323D01*
X289667Y208429D01*
X289724Y208533D01*
X289734Y208573D01*
X289752Y208611D01*
X289774Y208727D01*
X289803Y208841D01*
X289807Y208903D01*
X289811Y208923D01*
X289810Y208943D01*
X289813Y209001D01*
X289813Y216883D01*
X289801Y216982D01*
X289798Y217081D01*
X289781Y217139D01*
X289773Y217199D01*
X289737Y217291D01*
X289709Y217386D01*
X289679Y217438D01*
X289656Y217495D01*
X289598Y217575D01*
X289548Y217660D01*
X289482Y217735D01*
X289470Y217752D01*
X289460Y217760D01*
X289442Y217781D01*
X287575Y219647D01*
X287575Y238853D01*
X289347Y240625D01*
X294853Y240625D01*
X296625Y238853D01*
X296625Y219647D01*
X294758Y217781D01*
X294698Y217703D01*
X294630Y217630D01*
X294601Y217577D01*
X294564Y217530D01*
X294524Y217439D01*
X294476Y217352D01*
X294461Y217293D01*
X294437Y217238D01*
X294422Y217140D01*
X294397Y217044D01*
X294391Y216944D01*
X294387Y216924D01*
X294389Y216911D01*
X294387Y216883D01*
X294387Y209014D01*
X294402Y208895D01*
X294409Y208775D01*
X294422Y208738D01*
X294427Y208699D01*
X294471Y208587D01*
X294508Y208473D01*
X294529Y208439D01*
X294544Y208403D01*
X294614Y208306D01*
X294679Y208204D01*
X294707Y208177D01*
X294730Y208146D01*
X294823Y208069D01*
X294911Y207987D01*
X294945Y207968D01*
X294975Y207943D01*
X295084Y207892D01*
X295189Y207834D01*
X295228Y207824D01*
X295263Y207807D01*
X295381Y207785D01*
X295498Y207755D01*
X295556Y207751D01*
X295575Y207747D01*
X295596Y207749D01*
X295658Y207745D01*
X308717Y207768D01*
X308725Y207769D01*
X308734Y207769D01*
X308764Y207773D01*
X311150Y207773D01*
X311172Y207775D01*
X311250Y207777D01*
X312720Y207892D01*
X312788Y207906D01*
X312856Y207911D01*
X313012Y207951D01*
X313854Y208224D01*
X313862Y208228D01*
X313872Y208230D01*
X314006Y208295D01*
X314141Y208359D01*
X314149Y208366D01*
X314158Y208370D01*
X314271Y208467D01*
X314387Y208562D01*
X314392Y208570D01*
X314400Y208576D01*
X314485Y208698D01*
X314574Y208819D01*
X314577Y208828D01*
X314583Y208836D01*
X314635Y208975D01*
X314691Y209115D01*
X314692Y209124D01*
X314695Y209133D01*
X314712Y209282D01*
X314731Y209430D01*
X314730Y209440D01*
X314731Y209450D01*
X314710Y209597D01*
X314691Y209746D01*
X314688Y209755D01*
X314686Y209764D01*
X314634Y209917D01*
X313435Y212811D01*
X313435Y216449D01*
X314309Y218559D01*
X314317Y218587D01*
X314330Y218614D01*
X314359Y218740D01*
X314393Y218866D01*
X314394Y218895D01*
X314400Y218924D01*
X314396Y219054D01*
X314398Y219184D01*
X314391Y219212D01*
X314390Y219242D01*
X314354Y219366D01*
X314324Y219493D01*
X314310Y219519D01*
X314302Y219547D01*
X314236Y219659D01*
X314175Y219774D01*
X314155Y219796D01*
X314140Y219821D01*
X314034Y219942D01*
X311491Y222485D01*
X311382Y222570D01*
X311275Y222658D01*
X311256Y222667D01*
X311240Y222680D01*
X311112Y222735D01*
X310987Y222794D01*
X310967Y222798D01*
X310948Y222806D01*
X310810Y222828D01*
X310674Y222854D01*
X310654Y222853D01*
X310634Y222856D01*
X310495Y222843D01*
X310357Y222834D01*
X310338Y222828D01*
X310318Y222826D01*
X310186Y222779D01*
X310055Y222736D01*
X310037Y222725D01*
X310018Y222718D01*
X309903Y222640D01*
X309786Y222566D01*
X309772Y222551D01*
X309755Y222540D01*
X309663Y222435D01*
X309568Y222334D01*
X309558Y222317D01*
X309545Y222301D01*
X309481Y222177D01*
X309414Y222056D01*
X309409Y222036D01*
X309400Y222018D01*
X309370Y221882D01*
X309335Y221748D01*
X309333Y221720D01*
X309330Y221708D01*
X309331Y221687D01*
X309325Y221587D01*
X309325Y219647D01*
X307553Y217875D01*
X302047Y217875D01*
X300275Y219647D01*
X300275Y238853D01*
X302142Y240719D01*
X302202Y240797D01*
X302270Y240869D01*
X302299Y240922D01*
X302336Y240970D01*
X302376Y241061D01*
X302424Y241148D01*
X302439Y241207D01*
X302463Y241262D01*
X302478Y241360D01*
X302503Y241456D01*
X302509Y241556D01*
X302513Y241576D01*
X302511Y241589D01*
X302513Y241617D01*
X302513Y248717D01*
X302501Y248815D01*
X302498Y248914D01*
X302481Y248972D01*
X302473Y249033D01*
X302437Y249125D01*
X302409Y249220D01*
X302379Y249272D01*
X302356Y249328D01*
X302298Y249408D01*
X302248Y249494D01*
X302182Y249569D01*
X302170Y249586D01*
X302160Y249593D01*
X302142Y249615D01*
X294319Y257438D01*
X294240Y257498D01*
X294168Y257566D01*
X294115Y257595D01*
X294067Y257632D01*
X293976Y257672D01*
X293890Y257720D01*
X293831Y257735D01*
X293775Y257759D01*
X293677Y257774D01*
X293582Y257799D01*
X293482Y257805D01*
X293461Y257809D01*
X293449Y257807D01*
X293421Y257809D01*
X288954Y257809D01*
X288816Y257792D01*
X288677Y257779D01*
X288658Y257772D01*
X288638Y257769D01*
X288509Y257718D01*
X288378Y257671D01*
X288361Y257660D01*
X288343Y257652D01*
X288230Y257571D01*
X288115Y257493D01*
X288102Y257477D01*
X288085Y257466D01*
X287996Y257358D01*
X287905Y257254D01*
X287895Y257236D01*
X287882Y257221D01*
X287823Y257095D01*
X287760Y256971D01*
X287755Y256951D01*
X287747Y256933D01*
X287721Y256797D01*
X287690Y256661D01*
X287691Y256640D01*
X287687Y256621D01*
X287696Y256482D01*
X287700Y256343D01*
X287706Y256323D01*
X287707Y256303D01*
X287750Y256171D01*
X287788Y256037D01*
X287799Y256020D01*
X287805Y256001D01*
X287879Y255883D01*
X287950Y255763D01*
X287969Y255742D01*
X287975Y255732D01*
X287990Y255718D01*
X288056Y255642D01*
X288471Y255228D01*
X289279Y253278D01*
X289279Y251166D01*
X288471Y249216D01*
X286978Y247723D01*
X285028Y246915D01*
X284706Y246915D01*
X284588Y246900D01*
X284469Y246893D01*
X284431Y246880D01*
X284390Y246875D01*
X284280Y246832D01*
X284167Y246795D01*
X284132Y246773D01*
X284095Y246758D01*
X283999Y246689D01*
X283898Y246625D01*
X283870Y246595D01*
X283837Y246572D01*
X283761Y246480D01*
X283680Y246393D01*
X283660Y246358D01*
X283635Y246327D01*
X283584Y246219D01*
X283526Y246115D01*
X283516Y246075D01*
X283499Y246039D01*
X283477Y245922D01*
X283447Y245807D01*
X283443Y245747D01*
X283439Y245727D01*
X283441Y245706D01*
X283437Y245646D01*
X283437Y244054D01*
X282629Y242104D01*
X282549Y242024D01*
X282476Y241930D01*
X282397Y241841D01*
X282379Y241805D01*
X282354Y241773D01*
X282306Y241663D01*
X282252Y241557D01*
X282244Y241518D01*
X282227Y241481D01*
X282209Y241363D01*
X282183Y241247D01*
X282184Y241207D01*
X282178Y241167D01*
X282189Y241048D01*
X282192Y240929D01*
X282204Y240890D01*
X282207Y240850D01*
X282248Y240738D01*
X282281Y240624D01*
X282301Y240589D01*
X282315Y240551D01*
X282382Y240452D01*
X282442Y240350D01*
X282482Y240305D01*
X282494Y240288D01*
X282509Y240274D01*
X282549Y240229D01*
X283925Y238853D01*
X283925Y219647D01*
X283891Y219613D01*
X283814Y219514D01*
X283732Y219419D01*
X283717Y219389D01*
X283696Y219362D01*
X283646Y219247D01*
X283590Y219134D01*
X283583Y219101D01*
X283570Y219070D01*
X283550Y218946D01*
X283524Y218823D01*
X283525Y218789D01*
X283520Y218756D01*
X283532Y218631D01*
X283537Y218505D01*
X283546Y218473D01*
X283550Y218439D01*
X283592Y218321D01*
X283628Y218201D01*
X283646Y218172D01*
X283657Y218140D01*
X283728Y218036D01*
X283793Y217928D01*
X283817Y217905D01*
X283836Y217877D01*
X283930Y217794D01*
X284020Y217706D01*
X284060Y217679D01*
X284074Y217667D01*
X284093Y217657D01*
X284154Y217617D01*
X284610Y217353D01*
X285083Y216880D01*
X285418Y216301D01*
X285591Y215654D01*
X285591Y212569D01*
X280030Y212569D01*
X279912Y212554D01*
X279793Y212547D01*
X279755Y212534D01*
X279715Y212529D01*
X279604Y212486D01*
X279491Y212449D01*
X279457Y212427D01*
X279419Y212412D01*
X279323Y212343D01*
X279222Y212279D01*
X279194Y212249D01*
X279162Y212226D01*
X279086Y212134D01*
X279004Y212047D01*
X278985Y212012D01*
X278959Y211981D01*
X278908Y211873D01*
X278851Y211769D01*
X278841Y211729D01*
X278823Y211693D01*
X278801Y211576D01*
X278795Y211574D01*
X278754Y211569D01*
X278644Y211525D01*
X278531Y211489D01*
X278496Y211467D01*
X278459Y211452D01*
X278362Y211382D01*
X278262Y211319D01*
X278234Y211289D01*
X278201Y211265D01*
X278125Y211174D01*
X278044Y211087D01*
X278024Y211052D01*
X277999Y211020D01*
X277948Y210913D01*
X277890Y210808D01*
X277880Y210769D01*
X277863Y210733D01*
X277841Y210616D01*
X277811Y210500D01*
X277807Y210440D01*
X277803Y210420D01*
X277805Y210400D01*
X277801Y210340D01*
X277801Y208984D01*
X277816Y208865D01*
X277823Y208745D01*
X277836Y208708D01*
X277841Y208669D01*
X277885Y208557D01*
X277922Y208443D01*
X277943Y208410D01*
X277958Y208373D01*
X278028Y208276D01*
X278093Y208174D01*
X278121Y208147D01*
X278144Y208116D01*
X278237Y208039D01*
X278325Y207957D01*
X278359Y207938D01*
X278389Y207913D01*
X278498Y207862D01*
X278603Y207804D01*
X278642Y207794D01*
X278677Y207777D01*
X278795Y207755D01*
X278912Y207725D01*
X278970Y207721D01*
X278989Y207718D01*
X279010Y207719D01*
X279072Y207715D01*
X280032Y207717D01*
G37*
G36*
X313126Y268482D02*
X313126Y268482D01*
X313155Y268480D01*
X313283Y268502D01*
X313412Y268519D01*
X313440Y268529D01*
X313469Y268534D01*
X313587Y268588D01*
X313708Y268636D01*
X313732Y268653D01*
X313759Y268665D01*
X313860Y268746D01*
X313965Y268822D01*
X313984Y268845D01*
X314007Y268864D01*
X314085Y268967D01*
X314168Y269067D01*
X314181Y269094D01*
X314198Y269118D01*
X314269Y269262D01*
X314827Y270610D01*
X317400Y273183D01*
X320854Y274613D01*
X320864Y274615D01*
X320974Y274658D01*
X321087Y274695D01*
X321122Y274717D01*
X321159Y274732D01*
X321255Y274801D01*
X321356Y274865D01*
X321384Y274895D01*
X321417Y274918D01*
X321493Y275010D01*
X321574Y275097D01*
X321594Y275132D01*
X321619Y275163D01*
X321670Y275271D01*
X321728Y275375D01*
X321738Y275415D01*
X321755Y275451D01*
X321777Y275568D01*
X321807Y275683D01*
X321811Y275743D01*
X321815Y275763D01*
X321813Y275784D01*
X321817Y275844D01*
X321817Y280416D01*
X321802Y280534D01*
X321795Y280653D01*
X321782Y280691D01*
X321777Y280732D01*
X321734Y280842D01*
X321697Y280955D01*
X321675Y280990D01*
X321660Y281027D01*
X321591Y281123D01*
X321527Y281224D01*
X321497Y281252D01*
X321474Y281285D01*
X321382Y281361D01*
X321295Y281442D01*
X321260Y281462D01*
X321229Y281487D01*
X321121Y281538D01*
X321017Y281596D01*
X320977Y281606D01*
X320941Y281623D01*
X320886Y281633D01*
X317400Y283077D01*
X314827Y285650D01*
X313435Y289011D01*
X313435Y292649D01*
X314406Y294992D01*
X314415Y295027D01*
X314432Y295060D01*
X314457Y295180D01*
X314490Y295299D01*
X314490Y295335D01*
X314498Y295371D01*
X314493Y295494D01*
X314495Y295617D01*
X314486Y295652D01*
X314485Y295688D01*
X314449Y295806D01*
X314421Y295926D01*
X314404Y295958D01*
X314393Y295993D01*
X314330Y296098D01*
X314272Y296207D01*
X314247Y296234D01*
X314229Y296265D01*
X314141Y296351D01*
X314058Y296442D01*
X314028Y296462D01*
X314002Y296488D01*
X313868Y296577D01*
X313813Y296609D01*
X313734Y296642D01*
X313660Y296684D01*
X313530Y296728D01*
X313520Y296732D01*
X313515Y296732D01*
X313507Y296735D01*
X310497Y297542D01*
X310453Y297548D01*
X310411Y297562D01*
X310251Y297582D01*
X308693Y297685D01*
X308672Y297683D01*
X308608Y297687D01*
X299590Y297671D01*
X299473Y297656D01*
X299355Y297649D01*
X299316Y297636D01*
X299274Y297631D01*
X299165Y297587D01*
X299053Y297551D01*
X299017Y297529D01*
X298979Y297513D01*
X298884Y297444D01*
X298784Y297381D01*
X298755Y297350D01*
X298722Y297326D01*
X298647Y297235D01*
X298566Y297149D01*
X298546Y297113D01*
X298519Y297081D01*
X298469Y296974D01*
X298412Y296871D01*
X298402Y296830D01*
X298384Y296793D01*
X298362Y296677D01*
X298333Y296563D01*
X298329Y296501D01*
X298325Y296480D01*
X298326Y296460D01*
X298323Y296402D01*
X298323Y293092D01*
X298150Y292445D01*
X297815Y291866D01*
X297342Y291393D01*
X296763Y291058D01*
X296644Y291027D01*
X296521Y290977D01*
X296396Y290932D01*
X296374Y290917D01*
X296349Y290906D01*
X296243Y290828D01*
X296133Y290753D01*
X296115Y290733D01*
X296094Y290717D01*
X296010Y290614D01*
X295923Y290515D01*
X295911Y290491D01*
X295894Y290470D01*
X295838Y290349D01*
X295778Y290231D01*
X295772Y290205D01*
X295761Y290181D01*
X295738Y290050D01*
X295709Y289921D01*
X295709Y289894D01*
X295705Y289868D01*
X295714Y289736D01*
X295718Y289603D01*
X295726Y289577D01*
X295728Y289550D01*
X295770Y289425D01*
X295807Y289298D01*
X295820Y289275D01*
X295829Y289249D01*
X295901Y289138D01*
X295968Y289024D01*
X295993Y288995D01*
X296002Y288982D01*
X296018Y288967D01*
X296075Y288903D01*
X296625Y288353D01*
X296625Y282306D01*
X296640Y282188D01*
X296647Y282069D01*
X296660Y282031D01*
X296665Y281990D01*
X296708Y281880D01*
X296745Y281767D01*
X296767Y281732D01*
X296782Y281695D01*
X296851Y281599D01*
X296915Y281498D01*
X296945Y281470D01*
X296968Y281437D01*
X297060Y281361D01*
X297147Y281280D01*
X297182Y281260D01*
X297213Y281235D01*
X297321Y281184D01*
X297425Y281126D01*
X297465Y281116D01*
X297501Y281099D01*
X297618Y281077D01*
X297733Y281047D01*
X297793Y281043D01*
X297813Y281039D01*
X297834Y281041D01*
X297894Y281037D01*
X299006Y281037D01*
X299124Y281052D01*
X299243Y281059D01*
X299281Y281072D01*
X299322Y281077D01*
X299432Y281120D01*
X299545Y281157D01*
X299580Y281179D01*
X299617Y281194D01*
X299713Y281263D01*
X299814Y281327D01*
X299842Y281357D01*
X299875Y281380D01*
X299951Y281472D01*
X300032Y281559D01*
X300052Y281594D01*
X300077Y281625D01*
X300128Y281733D01*
X300186Y281837D01*
X300196Y281877D01*
X300213Y281913D01*
X300235Y282030D01*
X300265Y282145D01*
X300269Y282205D01*
X300273Y282225D01*
X300271Y282246D01*
X300275Y282306D01*
X300275Y288353D01*
X302047Y290125D01*
X307553Y290125D01*
X309325Y288353D01*
X309325Y269748D01*
X309340Y269630D01*
X309347Y269511D01*
X309360Y269473D01*
X309365Y269432D01*
X309408Y269322D01*
X309445Y269209D01*
X309467Y269174D01*
X309482Y269137D01*
X309551Y269041D01*
X309615Y268940D01*
X309645Y268912D01*
X309668Y268879D01*
X309760Y268803D01*
X309847Y268722D01*
X309882Y268702D01*
X309913Y268677D01*
X310021Y268626D01*
X310125Y268568D01*
X310165Y268558D01*
X310201Y268541D01*
X310318Y268519D01*
X310433Y268489D01*
X310493Y268485D01*
X310513Y268481D01*
X310534Y268483D01*
X310594Y268479D01*
X313097Y268479D01*
X313126Y268482D01*
G37*
G36*
X273724Y268494D02*
X273724Y268494D01*
X273843Y268501D01*
X273881Y268514D01*
X273922Y268519D01*
X274032Y268562D01*
X274145Y268599D01*
X274180Y268621D01*
X274217Y268636D01*
X274313Y268705D01*
X274414Y268769D01*
X274442Y268799D01*
X274475Y268822D01*
X274551Y268914D01*
X274632Y269001D01*
X274652Y269036D01*
X274677Y269067D01*
X274728Y269175D01*
X274786Y269279D01*
X274796Y269319D01*
X274813Y269355D01*
X274835Y269472D01*
X274865Y269587D01*
X274869Y269647D01*
X274873Y269667D01*
X274871Y269688D01*
X274875Y269748D01*
X274875Y288467D01*
X274863Y288565D01*
X274860Y288664D01*
X274843Y288722D01*
X274835Y288783D01*
X274799Y288875D01*
X274771Y288970D01*
X274741Y289022D01*
X274718Y289078D01*
X274660Y289158D01*
X274610Y289244D01*
X274544Y289319D01*
X274532Y289336D01*
X274522Y289343D01*
X274504Y289365D01*
X274128Y289740D01*
X274013Y289830D01*
X273899Y289921D01*
X273887Y289927D01*
X273877Y289935D01*
X273743Y289993D01*
X273610Y290054D01*
X273597Y290056D01*
X273585Y290062D01*
X273442Y290084D01*
X273297Y290110D01*
X273284Y290109D01*
X273271Y290111D01*
X273126Y290098D01*
X272980Y290087D01*
X272967Y290083D01*
X272954Y290082D01*
X272817Y290032D01*
X272679Y289986D01*
X272667Y289979D01*
X272655Y289974D01*
X272534Y289892D01*
X272412Y289813D01*
X272403Y289803D01*
X272392Y289795D01*
X272295Y289686D01*
X272196Y289579D01*
X272190Y289567D01*
X272181Y289557D01*
X272115Y289427D01*
X272046Y289299D01*
X272043Y289286D01*
X272036Y289274D01*
X272004Y289131D01*
X271970Y288990D01*
X271970Y288977D01*
X271967Y288963D01*
X271971Y288817D01*
X271973Y288672D01*
X271976Y288654D01*
X271976Y288646D01*
X271981Y288629D01*
X272004Y288514D01*
X272241Y287632D01*
X272241Y280249D01*
X268199Y280249D01*
X268199Y290378D01*
X268184Y290496D01*
X268177Y290615D01*
X268164Y290653D01*
X268159Y290694D01*
X268116Y290804D01*
X268079Y290917D01*
X268057Y290952D01*
X268042Y290989D01*
X267973Y291085D01*
X267909Y291186D01*
X267879Y291214D01*
X267856Y291247D01*
X267764Y291323D01*
X267677Y291404D01*
X267642Y291424D01*
X267611Y291449D01*
X267503Y291500D01*
X267399Y291558D01*
X267359Y291568D01*
X267323Y291585D01*
X267206Y291607D01*
X267091Y291637D01*
X267031Y291641D01*
X267011Y291645D01*
X266990Y291643D01*
X266930Y291647D01*
X266470Y291647D01*
X266352Y291632D01*
X266233Y291625D01*
X266195Y291612D01*
X266154Y291607D01*
X266044Y291564D01*
X265931Y291527D01*
X265896Y291505D01*
X265859Y291490D01*
X265762Y291421D01*
X265662Y291357D01*
X265634Y291327D01*
X265601Y291304D01*
X265525Y291212D01*
X265444Y291125D01*
X265424Y291090D01*
X265399Y291059D01*
X265348Y290951D01*
X265290Y290847D01*
X265280Y290807D01*
X265263Y290771D01*
X265241Y290654D01*
X265211Y290539D01*
X265207Y290479D01*
X265203Y290459D01*
X265205Y290438D01*
X265201Y290378D01*
X265201Y280249D01*
X261159Y280249D01*
X261159Y287632D01*
X261435Y288660D01*
X261759Y289222D01*
X261795Y289307D01*
X261840Y289388D01*
X261856Y289453D01*
X261882Y289515D01*
X261896Y289606D01*
X261919Y289696D01*
X261926Y289813D01*
X261929Y289830D01*
X261928Y289838D01*
X261929Y289856D01*
X261929Y296332D01*
X261914Y296452D01*
X261907Y296572D01*
X261894Y296609D01*
X261889Y296648D01*
X261845Y296760D01*
X261808Y296874D01*
X261787Y296907D01*
X261772Y296944D01*
X261702Y297041D01*
X261637Y297142D01*
X261609Y297169D01*
X261586Y297201D01*
X261493Y297278D01*
X261405Y297360D01*
X261371Y297379D01*
X261341Y297404D01*
X261232Y297455D01*
X261126Y297513D01*
X261088Y297523D01*
X261053Y297539D01*
X260935Y297562D01*
X260818Y297592D01*
X260760Y297595D01*
X260741Y297599D01*
X260720Y297598D01*
X260658Y297602D01*
X260198Y297601D01*
X260081Y297586D01*
X259963Y297578D01*
X259923Y297566D01*
X259882Y297560D01*
X259773Y297517D01*
X259661Y297480D01*
X259625Y297458D01*
X259587Y297443D01*
X259491Y297373D01*
X259392Y297310D01*
X259363Y297280D01*
X259330Y297255D01*
X259255Y297165D01*
X259174Y297079D01*
X259154Y297042D01*
X259127Y297010D01*
X259077Y296903D01*
X259020Y296800D01*
X259010Y296760D01*
X258992Y296722D01*
X258970Y296606D01*
X258941Y296492D01*
X258937Y296430D01*
X258933Y296410D01*
X258934Y296390D01*
X258931Y296332D01*
X258931Y290566D01*
X258866Y290540D01*
X258735Y290493D01*
X258718Y290482D01*
X258699Y290474D01*
X258587Y290393D01*
X258472Y290315D01*
X258458Y290299D01*
X258442Y290288D01*
X258353Y290180D01*
X258261Y290076D01*
X258252Y290058D01*
X258239Y290043D01*
X258180Y289917D01*
X258117Y289793D01*
X258112Y289773D01*
X258104Y289755D01*
X258078Y289618D01*
X258047Y289483D01*
X258048Y289462D01*
X258044Y289443D01*
X258053Y289304D01*
X258057Y289165D01*
X258062Y289145D01*
X258064Y289125D01*
X258107Y288993D01*
X258145Y288859D01*
X258155Y288842D01*
X258162Y288823D01*
X258236Y288705D01*
X258307Y288585D01*
X258325Y288564D01*
X258332Y288554D01*
X258347Y288540D01*
X258413Y288465D01*
X258525Y288353D01*
X258525Y271015D01*
X258537Y270917D01*
X258540Y270818D01*
X258557Y270760D01*
X258565Y270699D01*
X258601Y270608D01*
X258628Y270512D01*
X258659Y270460D01*
X258682Y270404D01*
X258740Y270324D01*
X258790Y270238D01*
X258856Y270163D01*
X258868Y270146D01*
X258878Y270139D01*
X258896Y270118D01*
X258992Y270022D01*
X259102Y269936D01*
X259209Y269848D01*
X259228Y269839D01*
X259244Y269827D01*
X259371Y269771D01*
X259497Y269712D01*
X259517Y269708D01*
X259535Y269700D01*
X259673Y269678D01*
X259810Y269652D01*
X259830Y269653D01*
X259850Y269650D01*
X259988Y269663D01*
X260127Y269672D01*
X260146Y269678D01*
X260166Y269680D01*
X260297Y269727D01*
X260429Y269770D01*
X260446Y269781D01*
X260465Y269788D01*
X260581Y269866D01*
X260698Y269940D01*
X260712Y269955D01*
X260729Y269966D01*
X260821Y270070D01*
X260916Y270172D01*
X260926Y270189D01*
X260939Y270205D01*
X261002Y270329D01*
X261070Y270450D01*
X261075Y270470D01*
X261084Y270488D01*
X261114Y270624D01*
X261149Y270758D01*
X261151Y270786D01*
X261153Y270798D01*
X261153Y270818D01*
X261159Y270919D01*
X261159Y277251D01*
X266470Y277251D01*
X266588Y277266D01*
X266707Y277273D01*
X266714Y277275D01*
X266770Y277261D01*
X266830Y277257D01*
X266850Y277253D01*
X266870Y277255D01*
X266930Y277251D01*
X272241Y277251D01*
X272241Y269748D01*
X272256Y269630D01*
X272263Y269511D01*
X272276Y269473D01*
X272281Y269432D01*
X272324Y269322D01*
X272361Y269209D01*
X272383Y269174D01*
X272398Y269137D01*
X272467Y269041D01*
X272531Y268940D01*
X272561Y268912D01*
X272584Y268879D01*
X272676Y268803D01*
X272763Y268722D01*
X272798Y268702D01*
X272829Y268677D01*
X272937Y268626D01*
X273041Y268568D01*
X273081Y268558D01*
X273117Y268541D01*
X273234Y268519D01*
X273349Y268489D01*
X273409Y268485D01*
X273429Y268481D01*
X273450Y268483D01*
X273510Y268479D01*
X273606Y268479D01*
X273724Y268494D01*
G37*
D10*
X230100Y237600D02*
X230100Y220900D01*
X227100Y220900D01*
X227100Y237600D01*
X230100Y237600D01*
X230100Y223750D02*
X227100Y223750D01*
X227100Y226600D02*
X230100Y226600D01*
X230100Y229450D02*
X227100Y229450D01*
X227100Y232300D02*
X230100Y232300D01*
X230100Y235150D02*
X227100Y235150D01*
X242800Y237600D02*
X242800Y220900D01*
X239800Y220900D01*
X239800Y237600D01*
X242800Y237600D01*
X242800Y223750D02*
X239800Y223750D01*
X239800Y226600D02*
X242800Y226600D01*
X242800Y229450D02*
X239800Y229450D01*
X239800Y232300D02*
X242800Y232300D01*
X242800Y235150D02*
X239800Y235150D01*
X255500Y237600D02*
X255500Y220900D01*
X252500Y220900D01*
X252500Y237600D01*
X255500Y237600D01*
X255500Y223750D02*
X252500Y223750D01*
X252500Y226600D02*
X255500Y226600D01*
X255500Y229450D02*
X252500Y229450D01*
X252500Y232300D02*
X255500Y232300D01*
X255500Y235150D02*
X252500Y235150D01*
X268200Y237600D02*
X268200Y220900D01*
X265200Y220900D01*
X265200Y237600D01*
X268200Y237600D01*
X268200Y223750D02*
X265200Y223750D01*
X265200Y226600D02*
X268200Y226600D01*
X268200Y229450D02*
X265200Y229450D01*
X265200Y232300D02*
X268200Y232300D01*
X268200Y235150D02*
X265200Y235150D01*
X280900Y237600D02*
X280900Y220900D01*
X277900Y220900D01*
X277900Y237600D01*
X280900Y237600D01*
X280900Y223750D02*
X277900Y223750D01*
X277900Y226600D02*
X280900Y226600D01*
X280900Y229450D02*
X277900Y229450D01*
X277900Y232300D02*
X280900Y232300D01*
X280900Y235150D02*
X277900Y235150D01*
X293600Y237600D02*
X293600Y220900D01*
X290600Y220900D01*
X290600Y237600D01*
X293600Y237600D01*
X293600Y223750D02*
X290600Y223750D01*
X290600Y226600D02*
X293600Y226600D01*
X293600Y229450D02*
X290600Y229450D01*
X290600Y232300D02*
X293600Y232300D01*
X293600Y235150D02*
X290600Y235150D01*
X306300Y237600D02*
X306300Y220900D01*
X303300Y220900D01*
X303300Y237600D01*
X306300Y237600D01*
X306300Y223750D02*
X303300Y223750D01*
X303300Y226600D02*
X306300Y226600D01*
X306300Y229450D02*
X303300Y229450D01*
X303300Y232300D02*
X306300Y232300D01*
X306300Y235150D02*
X303300Y235150D01*
X306300Y270400D02*
X306300Y287100D01*
X306300Y270400D02*
X303300Y270400D01*
X303300Y287100D01*
X306300Y287100D01*
X306300Y273250D02*
X303300Y273250D01*
X303300Y276100D02*
X306300Y276100D01*
X306300Y278950D02*
X303300Y278950D01*
X303300Y281800D02*
X306300Y281800D01*
X306300Y284650D02*
X303300Y284650D01*
X293600Y287100D02*
X293600Y270400D01*
X290600Y270400D01*
X290600Y287100D01*
X293600Y287100D01*
X293600Y273250D02*
X290600Y273250D01*
X290600Y276100D02*
X293600Y276100D01*
X293600Y278950D02*
X290600Y278950D01*
X290600Y281800D02*
X293600Y281800D01*
X293600Y284650D02*
X290600Y284650D01*
X280900Y287100D02*
X280900Y270400D01*
X277900Y270400D01*
X277900Y287100D01*
X280900Y287100D01*
X280900Y273250D02*
X277900Y273250D01*
X277900Y276100D02*
X280900Y276100D01*
X280900Y278950D02*
X277900Y278950D01*
X277900Y281800D02*
X280900Y281800D01*
X280900Y284650D02*
X277900Y284650D01*
X268200Y287100D02*
X268200Y270400D01*
X265200Y270400D01*
X265200Y287100D01*
X268200Y287100D01*
X268200Y273250D02*
X265200Y273250D01*
X265200Y276100D02*
X268200Y276100D01*
X268200Y278950D02*
X265200Y278950D01*
X265200Y281800D02*
X268200Y281800D01*
X268200Y284650D02*
X265200Y284650D01*
X255500Y287100D02*
X255500Y270400D01*
X252500Y270400D01*
X252500Y287100D01*
X255500Y287100D01*
X255500Y273250D02*
X252500Y273250D01*
X252500Y276100D02*
X255500Y276100D01*
X255500Y278950D02*
X252500Y278950D01*
X252500Y281800D02*
X255500Y281800D01*
X255500Y284650D02*
X252500Y284650D01*
X242800Y287100D02*
X242800Y270400D01*
X239800Y270400D01*
X239800Y287100D01*
X242800Y287100D01*
X242800Y273250D02*
X239800Y273250D01*
X239800Y276100D02*
X242800Y276100D01*
X242800Y278950D02*
X239800Y278950D01*
X239800Y281800D02*
X242800Y281800D01*
X242800Y284650D02*
X239800Y284650D01*
X230100Y287100D02*
X230100Y270400D01*
X227100Y270400D01*
X227100Y287100D01*
X230100Y287100D01*
X230100Y273250D02*
X227100Y273250D01*
X227100Y276100D02*
X230100Y276100D01*
X230100Y278950D02*
X227100Y278950D01*
X227100Y281800D02*
X230100Y281800D01*
X230100Y284650D02*
X227100Y284650D01*
D11*
X214296Y233426D03*
X204296Y233426D03*
X252650Y210820D03*
X242650Y210820D03*
X228266Y210566D03*
X218266Y210566D03*
X204042Y244094D03*
X214042Y244094D03*
X282782Y296926D03*
X292782Y296926D03*
X260430Y296672D03*
X270430Y296672D03*
X214042Y254508D03*
X204042Y254508D03*
D12*
X202438Y293036D03*
X202438Y283036D03*
D13*
X199240Y265684D03*
X212240Y265684D03*
D14*
X213868Y293520D03*
X213868Y280520D03*
D13*
X279550Y210820D03*
X266550Y210820D03*
D15*
X322580Y290830D02*
X337820Y290830D01*
X337820Y265430D02*
X322580Y265430D01*
X322580Y240030D02*
X337820Y240030D01*
X337820Y214630D02*
X322580Y214630D01*
D16*
X197104Y196850D03*
D17*
X137414Y255524D03*
D18*
X259563Y204034D02*
X273537Y204034D01*
X252777Y210820D02*
X252650Y210820D01*
X279550Y210820D02*
X279550Y210047D01*
X273537Y204034D01*
X259563Y204034D02*
X252777Y210820D01*
X266780Y290322D02*
X260430Y296672D01*
X266780Y290322D02*
X266780Y278830D01*
X266700Y278750D01*
X292782Y296926D02*
X292782Y302966D01*
X260430Y300723D02*
X260430Y296672D01*
X260430Y300723D02*
X262673Y302966D01*
X292782Y302966D01*
D19*
X288290Y244122D03*
D18*
X285900Y241732D02*
X285900Y217170D01*
X279550Y210820D01*
X285900Y241732D02*
X288290Y244122D01*
D19*
X313445Y278142D03*
D18*
X310905Y280682D02*
X310905Y292112D01*
X310905Y280682D02*
X313445Y278142D01*
X310905Y292112D02*
X306119Y296898D01*
X292782Y296898D01*
X204042Y258064D02*
X204042Y254508D01*
X204042Y258064D02*
X199240Y262866D01*
X199240Y265684D01*
D19*
X254000Y245110D03*
D18*
X254000Y229250D01*
X254000Y271780D02*
X254000Y278750D01*
X254000Y271780D02*
X259588Y266192D01*
X286364Y266192D02*
X292100Y271928D01*
X292100Y278750D01*
X286364Y266192D02*
X259588Y266192D01*
X292100Y278750D02*
X304800Y278750D01*
X329438Y266192D02*
X330200Y265430D01*
X329438Y266192D02*
X286364Y266192D01*
D19*
X278130Y245110D03*
D18*
X279400Y243840D01*
X279400Y229250D01*
X292100Y229250D02*
X292100Y207010D01*
X286076Y200986D02*
X212678Y200986D01*
X212678Y225044D02*
X204296Y233426D01*
X212678Y225044D02*
X212678Y200986D01*
X286076Y200986D02*
X292100Y207010D01*
X204296Y243840D02*
X204042Y244094D01*
X204296Y243840D02*
X204296Y233426D01*
X270645Y296890D02*
X282782Y296926D01*
X270645Y296890D02*
X270430Y296672D01*
X279400Y287702D01*
X279400Y278750D01*
X213868Y280520D02*
X211352Y283036D01*
X202438Y283036D01*
X226830Y280520D02*
X228600Y278750D01*
X226830Y280520D02*
X213868Y280520D01*
X228600Y278750D02*
X228600Y267970D01*
X233426Y263144D02*
X307340Y263144D01*
X312420Y258064D01*
X312420Y224790D01*
X322580Y214630D01*
X330200Y214630D01*
X233426Y263144D02*
X228600Y267970D01*
X230044Y260096D02*
X214042Y244094D01*
X214042Y254508D01*
X230044Y260096D02*
X294894Y260096D01*
X304800Y250190D02*
X304800Y229250D01*
X304800Y250190D02*
X294894Y260096D01*
X228600Y229250D02*
X218980Y229250D01*
X218266Y228536D02*
X218266Y210566D01*
X218266Y228536D02*
X218639Y228909D01*
X218980Y229250D01*
X218639Y229083D02*
X214296Y233426D01*
X218639Y229083D02*
X218639Y228909D01*
X266550Y229100D02*
X266550Y210820D01*
X266550Y229100D02*
X266700Y229250D01*
X266982Y229532D01*
D19*
X283972Y252222D03*
D20*
X266700Y244856D02*
X266700Y229250D01*
X274066Y252222D02*
X283972Y252222D01*
X274066Y252222D02*
X266700Y244856D01*
D18*
X241300Y212170D02*
X242650Y210820D01*
X241300Y212170D02*
X241300Y229250D01*
X228266Y210820D02*
X228266Y210566D01*
X228266Y210820D02*
X242650Y210820D01*
X213384Y293036D02*
X213868Y293520D01*
X213384Y293036D02*
X202438Y293036D01*
X216502Y290886D02*
X231668Y290886D01*
X216502Y290886D02*
X213868Y293520D01*
X241300Y281254D02*
X241300Y278750D01*
X241300Y281254D02*
X231668Y290886D01*
X212240Y265684D02*
X202334Y275590D01*
X197000Y275590D01*
X195580Y277010D01*
X197358Y293036D02*
X202438Y293036D01*
X197358Y293036D02*
X195580Y291258D01*
X195580Y277010D01*
M02*
