G04 EAGLE Gerber RS-274X export*
G75*
%MOMM*%
%FSLAX34Y34*%
%LPD*%
%INBottom Copper*%
%IPPOS*%
%AMOC8*
5,1,8,0,0,1.08239X$1,22.5*%
G01*
%ADD10C,1.524000*%
%ADD11P,2.763017X8X112.500000*%
%ADD12C,8.000000*%
%ADD13C,0.756400*%
%ADD14C,0.152400*%
%ADD15C,0.254000*%

G36*
X402708Y171466D02*
X402708Y171466D01*
X402827Y171473D01*
X402865Y171486D01*
X402906Y171491D01*
X403016Y171534D01*
X403129Y171571D01*
X403164Y171593D01*
X403201Y171608D01*
X403297Y171678D01*
X403398Y171741D01*
X403426Y171771D01*
X403459Y171794D01*
X403535Y171886D01*
X403616Y171973D01*
X403636Y172008D01*
X403661Y172039D01*
X403712Y172147D01*
X403770Y172251D01*
X403780Y172291D01*
X403797Y172327D01*
X403819Y172444D01*
X403849Y172559D01*
X403853Y172620D01*
X403857Y172640D01*
X403855Y172660D01*
X403859Y172720D01*
X403859Y332740D01*
X403844Y332858D01*
X403837Y332977D01*
X403824Y333015D01*
X403819Y333056D01*
X403776Y333166D01*
X403739Y333279D01*
X403717Y333314D01*
X403702Y333351D01*
X403633Y333447D01*
X403569Y333548D01*
X403539Y333576D01*
X403516Y333609D01*
X403424Y333685D01*
X403337Y333766D01*
X403302Y333786D01*
X403271Y333811D01*
X403163Y333862D01*
X403059Y333920D01*
X403019Y333930D01*
X402983Y333947D01*
X402866Y333969D01*
X402751Y333999D01*
X402691Y334003D01*
X402671Y334007D01*
X402650Y334005D01*
X402590Y334009D01*
X100330Y334009D01*
X100212Y333994D01*
X100093Y333987D01*
X100055Y333974D01*
X100014Y333969D01*
X99904Y333926D01*
X99791Y333889D01*
X99756Y333867D01*
X99719Y333852D01*
X99623Y333783D01*
X99522Y333719D01*
X99494Y333689D01*
X99461Y333666D01*
X99386Y333574D01*
X99304Y333487D01*
X99284Y333452D01*
X99259Y333421D01*
X99208Y333313D01*
X99150Y333209D01*
X99140Y333169D01*
X99123Y333133D01*
X99101Y333016D01*
X99071Y332901D01*
X99067Y332841D01*
X99063Y332821D01*
X99065Y332800D01*
X99061Y332740D01*
X99061Y304924D01*
X99085Y304732D01*
X99100Y304609D01*
X99101Y304609D01*
X99167Y304441D01*
X99217Y304313D01*
X99218Y304313D01*
X99322Y304170D01*
X99404Y304056D01*
X99538Y303945D01*
X99649Y303853D01*
X99777Y303793D01*
X99937Y303717D01*
X100081Y303690D01*
X100249Y303657D01*
X100249Y303658D01*
X100250Y303657D01*
X100412Y303668D01*
X100566Y303677D01*
X100567Y303677D01*
X100730Y303730D01*
X100869Y303775D01*
X100870Y303776D01*
X101010Y303852D01*
X111531Y310529D01*
X126023Y315238D01*
X141231Y316195D01*
X146798Y315133D01*
X146850Y315129D01*
X146902Y315117D01*
X147008Y315120D01*
X147115Y315113D01*
X147167Y315123D01*
X147220Y315124D01*
X147322Y315152D01*
X147428Y315172D01*
X147475Y315195D01*
X147526Y315209D01*
X147670Y315280D01*
X149409Y316284D01*
X160585Y319279D01*
X166354Y319279D01*
X166355Y319279D01*
X166356Y319279D01*
X306177Y319528D01*
X306186Y319530D01*
X306195Y319529D01*
X306224Y319533D01*
X308599Y319533D01*
X308600Y319533D01*
X308601Y319533D01*
X310958Y319537D01*
X311024Y319533D01*
X313225Y319533D01*
X322140Y317144D01*
X330133Y312529D01*
X336659Y306003D01*
X340081Y300075D01*
X340091Y300063D01*
X340098Y300048D01*
X340187Y299936D01*
X340274Y299822D01*
X340286Y299812D01*
X340296Y299800D01*
X340411Y299713D01*
X340523Y299624D01*
X340538Y299618D01*
X340550Y299608D01*
X340695Y299537D01*
X343000Y298583D01*
X345573Y296010D01*
X346965Y292649D01*
X346965Y289011D01*
X345573Y285650D01*
X344034Y284112D01*
X343974Y284034D01*
X343906Y283962D01*
X343877Y283909D01*
X343840Y283861D01*
X343800Y283770D01*
X343752Y283683D01*
X343737Y283624D01*
X343713Y283569D01*
X343698Y283471D01*
X343673Y283375D01*
X343667Y283275D01*
X343663Y283255D01*
X343665Y283242D01*
X343663Y283214D01*
X343663Y273046D01*
X343675Y272947D01*
X343678Y272848D01*
X343695Y272790D01*
X343703Y272730D01*
X343739Y272638D01*
X343767Y272543D01*
X343797Y272491D01*
X343820Y272434D01*
X343878Y272354D01*
X343928Y272269D01*
X343994Y272194D01*
X344006Y272177D01*
X344016Y272169D01*
X344034Y272148D01*
X345573Y270610D01*
X346965Y267249D01*
X346965Y263611D01*
X345573Y260250D01*
X344034Y258712D01*
X343974Y258634D01*
X343906Y258562D01*
X343877Y258509D01*
X343840Y258461D01*
X343800Y258370D01*
X343752Y258283D01*
X343737Y258224D01*
X343713Y258169D01*
X343698Y258071D01*
X343673Y257975D01*
X343667Y257875D01*
X343663Y257855D01*
X343665Y257842D01*
X343663Y257814D01*
X343663Y248991D01*
X343668Y248952D01*
X343665Y248912D01*
X343688Y248795D01*
X343703Y248676D01*
X343717Y248639D01*
X343724Y248600D01*
X343775Y248491D01*
X343820Y248380D01*
X343843Y248348D01*
X343860Y248312D01*
X343936Y248220D01*
X344006Y248122D01*
X344037Y248097D01*
X344062Y248067D01*
X344186Y247964D01*
X344439Y247780D01*
X345570Y246649D01*
X346510Y245355D01*
X347236Y243930D01*
X347679Y242569D01*
X344932Y242569D01*
X344814Y242554D01*
X344695Y242547D01*
X344657Y242534D01*
X344616Y242529D01*
X344506Y242486D01*
X344393Y242449D01*
X344358Y242427D01*
X344321Y242412D01*
X344225Y242342D01*
X344124Y242279D01*
X344096Y242249D01*
X344063Y242225D01*
X343987Y242134D01*
X343906Y242047D01*
X343886Y242012D01*
X343861Y241981D01*
X343810Y241873D01*
X343752Y241769D01*
X343742Y241729D01*
X343725Y241693D01*
X343703Y241576D01*
X343673Y241461D01*
X343669Y241400D01*
X343665Y241380D01*
X343667Y241360D01*
X343663Y241300D01*
X343663Y238760D01*
X343678Y238642D01*
X343685Y238523D01*
X343698Y238485D01*
X343703Y238444D01*
X343746Y238334D01*
X343783Y238221D01*
X343805Y238186D01*
X343820Y238149D01*
X343889Y238053D01*
X343953Y237952D01*
X343983Y237924D01*
X344006Y237891D01*
X344098Y237816D01*
X344185Y237734D01*
X344220Y237714D01*
X344251Y237689D01*
X344359Y237638D01*
X344463Y237580D01*
X344503Y237570D01*
X344539Y237553D01*
X344656Y237531D01*
X344771Y237501D01*
X344831Y237497D01*
X344851Y237493D01*
X344872Y237495D01*
X344932Y237491D01*
X347679Y237491D01*
X347236Y236130D01*
X346510Y234705D01*
X345570Y233411D01*
X344439Y232280D01*
X344186Y232096D01*
X344157Y232069D01*
X344124Y232048D01*
X344042Y231960D01*
X343954Y231878D01*
X343933Y231845D01*
X343906Y231816D01*
X343848Y231711D01*
X343784Y231610D01*
X343771Y231572D01*
X343752Y231538D01*
X343722Y231422D01*
X343685Y231307D01*
X343683Y231268D01*
X343673Y231230D01*
X343663Y231069D01*
X343663Y222246D01*
X343675Y222147D01*
X343678Y222048D01*
X343695Y221990D01*
X343703Y221930D01*
X343739Y221838D01*
X343767Y221743D01*
X343797Y221691D01*
X343820Y221634D01*
X343878Y221554D01*
X343928Y221469D01*
X343994Y221394D01*
X344006Y221377D01*
X344016Y221369D01*
X344034Y221348D01*
X345573Y219810D01*
X346965Y216449D01*
X346965Y212811D01*
X345573Y209450D01*
X343000Y206877D01*
X341899Y206421D01*
X341770Y206348D01*
X341639Y206276D01*
X341632Y206269D01*
X341622Y206264D01*
X341516Y206160D01*
X341407Y206059D01*
X341402Y206050D01*
X341394Y206042D01*
X341317Y205916D01*
X341237Y205790D01*
X341231Y205777D01*
X341228Y205771D01*
X341223Y205757D01*
X341177Y205641D01*
X340480Y203496D01*
X334427Y195163D01*
X326094Y189110D01*
X316300Y185927D01*
X311171Y185927D01*
X311170Y185927D01*
X311169Y185927D01*
X206723Y185739D01*
X206626Y185727D01*
X206528Y185724D01*
X206469Y185707D01*
X206408Y185699D01*
X206317Y185662D01*
X206223Y185635D01*
X206170Y185604D01*
X206112Y185581D01*
X206033Y185523D01*
X205949Y185474D01*
X205871Y185405D01*
X205855Y185394D01*
X205848Y185385D01*
X205828Y185367D01*
X203022Y182562D01*
X191186Y182562D01*
X188415Y185333D01*
X188336Y185394D01*
X188262Y185463D01*
X188210Y185491D01*
X188163Y185528D01*
X188071Y185568D01*
X187984Y185616D01*
X187926Y185630D01*
X187872Y185654D01*
X187772Y185670D01*
X187676Y185695D01*
X187578Y185701D01*
X187557Y185704D01*
X187545Y185703D01*
X187515Y185704D01*
X172613Y185678D01*
X172605Y185677D01*
X172596Y185677D01*
X172566Y185673D01*
X170193Y185673D01*
X170192Y185673D01*
X170191Y185673D01*
X167833Y185669D01*
X167766Y185673D01*
X163893Y185673D01*
X151748Y188928D01*
X141773Y194687D01*
X141725Y194707D01*
X141680Y194735D01*
X141579Y194768D01*
X141480Y194810D01*
X141428Y194818D01*
X141378Y194834D01*
X141218Y194854D01*
X126023Y195810D01*
X111531Y200519D01*
X101011Y207195D01*
X101010Y207195D01*
X101010Y207196D01*
X100850Y207271D01*
X100723Y207331D01*
X100722Y207331D01*
X100546Y207365D01*
X100411Y207391D01*
X100410Y207391D01*
X100247Y207380D01*
X100093Y207371D01*
X99917Y207314D01*
X99791Y207273D01*
X99790Y207273D01*
X99647Y207182D01*
X99522Y207103D01*
X99522Y207102D01*
X99521Y207102D01*
X99418Y206992D01*
X99304Y206871D01*
X99209Y206699D01*
X99150Y206592D01*
X99106Y206421D01*
X99071Y206285D01*
X99071Y206284D01*
X99061Y206124D01*
X99061Y172720D01*
X99076Y172602D01*
X99083Y172483D01*
X99096Y172445D01*
X99101Y172404D01*
X99144Y172294D01*
X99181Y172181D01*
X99203Y172146D01*
X99218Y172109D01*
X99288Y172013D01*
X99351Y171912D01*
X99381Y171884D01*
X99404Y171851D01*
X99496Y171776D01*
X99583Y171694D01*
X99618Y171674D01*
X99649Y171649D01*
X99757Y171598D01*
X99861Y171540D01*
X99901Y171530D01*
X99937Y171513D01*
X100054Y171491D01*
X100169Y171461D01*
X100230Y171457D01*
X100250Y171453D01*
X100270Y171455D01*
X100330Y171451D01*
X402590Y171451D01*
X402708Y171466D01*
G37*
G36*
X308717Y207768D02*
X308717Y207768D01*
X308725Y207769D01*
X308734Y207769D01*
X308764Y207773D01*
X311150Y207773D01*
X311172Y207775D01*
X311250Y207777D01*
X312720Y207892D01*
X312788Y207906D01*
X312856Y207911D01*
X313012Y207951D01*
X313854Y208224D01*
X313862Y208228D01*
X313872Y208230D01*
X314006Y208295D01*
X314141Y208359D01*
X314149Y208366D01*
X314158Y208370D01*
X314271Y208467D01*
X314387Y208562D01*
X314392Y208570D01*
X314400Y208576D01*
X314485Y208698D01*
X314574Y208819D01*
X314577Y208828D01*
X314583Y208836D01*
X314635Y208975D01*
X314691Y209115D01*
X314692Y209124D01*
X314695Y209133D01*
X314712Y209282D01*
X314731Y209430D01*
X314730Y209440D01*
X314731Y209450D01*
X314710Y209597D01*
X314691Y209746D01*
X314688Y209755D01*
X314686Y209764D01*
X314634Y209917D01*
X313435Y212811D01*
X313435Y216449D01*
X314827Y219810D01*
X317400Y222383D01*
X320854Y223813D01*
X320864Y223815D01*
X320974Y223858D01*
X321087Y223895D01*
X321122Y223917D01*
X321159Y223932D01*
X321255Y224001D01*
X321356Y224065D01*
X321384Y224095D01*
X321417Y224118D01*
X321493Y224210D01*
X321574Y224297D01*
X321594Y224332D01*
X321619Y224363D01*
X321670Y224471D01*
X321728Y224575D01*
X321738Y224615D01*
X321755Y224651D01*
X321777Y224768D01*
X321807Y224883D01*
X321811Y224943D01*
X321815Y224963D01*
X321813Y224984D01*
X321817Y225044D01*
X321817Y228779D01*
X321815Y228799D01*
X321817Y228818D01*
X321795Y228956D01*
X321777Y229095D01*
X321770Y229113D01*
X321767Y229133D01*
X321712Y229261D01*
X321660Y229391D01*
X321649Y229406D01*
X321641Y229424D01*
X321556Y229535D01*
X321474Y229648D01*
X321458Y229660D01*
X321446Y229676D01*
X321336Y229762D01*
X321229Y229851D01*
X321211Y229859D01*
X321195Y229871D01*
X321067Y229927D01*
X320941Y229986D01*
X320922Y229990D01*
X320904Y229998D01*
X320747Y230033D01*
X320201Y230119D01*
X318680Y230614D01*
X317255Y231340D01*
X315961Y232280D01*
X314830Y233411D01*
X313890Y234705D01*
X313164Y236130D01*
X312721Y237491D01*
X320548Y237491D01*
X320666Y237506D01*
X320785Y237513D01*
X320823Y237526D01*
X320864Y237531D01*
X320974Y237574D01*
X321087Y237611D01*
X321122Y237633D01*
X321159Y237648D01*
X321255Y237718D01*
X321356Y237781D01*
X321384Y237811D01*
X321417Y237834D01*
X321493Y237926D01*
X321574Y238013D01*
X321594Y238048D01*
X321619Y238079D01*
X321670Y238187D01*
X321728Y238291D01*
X321738Y238331D01*
X321755Y238367D01*
X321777Y238484D01*
X321807Y238599D01*
X321811Y238660D01*
X321815Y238680D01*
X321813Y238700D01*
X321817Y238760D01*
X321817Y241300D01*
X321802Y241418D01*
X321795Y241537D01*
X321782Y241575D01*
X321777Y241615D01*
X321734Y241726D01*
X321697Y241839D01*
X321675Y241874D01*
X321660Y241911D01*
X321591Y242007D01*
X321527Y242108D01*
X321497Y242136D01*
X321474Y242169D01*
X321382Y242244D01*
X321295Y242326D01*
X321260Y242346D01*
X321229Y242371D01*
X321121Y242422D01*
X321017Y242480D01*
X320977Y242490D01*
X320941Y242507D01*
X320824Y242529D01*
X320709Y242559D01*
X320649Y242563D01*
X320629Y242567D01*
X320608Y242565D01*
X320548Y242569D01*
X312721Y242569D01*
X313164Y243930D01*
X313890Y245355D01*
X314830Y246649D01*
X315961Y247780D01*
X317255Y248720D01*
X318680Y249446D01*
X320201Y249941D01*
X320747Y250027D01*
X320765Y250032D01*
X320785Y250034D01*
X320918Y250077D01*
X321052Y250116D01*
X321069Y250126D01*
X321087Y250132D01*
X321205Y250206D01*
X321326Y250278D01*
X321340Y250291D01*
X321356Y250302D01*
X321452Y250404D01*
X321551Y250502D01*
X321561Y250519D01*
X321574Y250533D01*
X321642Y250656D01*
X321713Y250776D01*
X321718Y250795D01*
X321728Y250812D01*
X321762Y250947D01*
X321802Y251081D01*
X321802Y251101D01*
X321807Y251120D01*
X321817Y251281D01*
X321817Y255016D01*
X321802Y255134D01*
X321795Y255253D01*
X321782Y255291D01*
X321777Y255332D01*
X321734Y255442D01*
X321697Y255555D01*
X321675Y255590D01*
X321660Y255627D01*
X321591Y255723D01*
X321527Y255824D01*
X321497Y255852D01*
X321474Y255885D01*
X321382Y255961D01*
X321295Y256042D01*
X321260Y256062D01*
X321229Y256087D01*
X321121Y256138D01*
X321017Y256196D01*
X320977Y256206D01*
X320941Y256223D01*
X320886Y256233D01*
X317400Y257677D01*
X314827Y260250D01*
X313435Y263611D01*
X313435Y267249D01*
X314827Y270610D01*
X317400Y273183D01*
X320854Y274613D01*
X320864Y274615D01*
X320974Y274658D01*
X321087Y274695D01*
X321122Y274717D01*
X321159Y274732D01*
X321255Y274801D01*
X321356Y274865D01*
X321384Y274895D01*
X321417Y274918D01*
X321493Y275010D01*
X321574Y275097D01*
X321594Y275132D01*
X321619Y275163D01*
X321670Y275271D01*
X321728Y275375D01*
X321738Y275415D01*
X321755Y275451D01*
X321777Y275568D01*
X321807Y275683D01*
X321811Y275743D01*
X321815Y275763D01*
X321813Y275784D01*
X321817Y275844D01*
X321817Y280416D01*
X321802Y280534D01*
X321795Y280653D01*
X321782Y280691D01*
X321777Y280732D01*
X321734Y280842D01*
X321697Y280955D01*
X321675Y280990D01*
X321660Y281027D01*
X321591Y281123D01*
X321527Y281224D01*
X321497Y281252D01*
X321474Y281285D01*
X321382Y281361D01*
X321295Y281442D01*
X321260Y281462D01*
X321229Y281487D01*
X321121Y281538D01*
X321017Y281596D01*
X320977Y281606D01*
X320941Y281623D01*
X320886Y281633D01*
X317400Y283077D01*
X314827Y285650D01*
X313435Y289011D01*
X313435Y292649D01*
X314406Y294992D01*
X314415Y295027D01*
X314432Y295060D01*
X314457Y295180D01*
X314490Y295299D01*
X314490Y295335D01*
X314498Y295371D01*
X314493Y295494D01*
X314495Y295617D01*
X314486Y295652D01*
X314485Y295688D01*
X314449Y295806D01*
X314421Y295926D01*
X314404Y295958D01*
X314393Y295993D01*
X314330Y296098D01*
X314272Y296207D01*
X314247Y296234D01*
X314229Y296265D01*
X314141Y296351D01*
X314058Y296442D01*
X314028Y296462D01*
X314002Y296488D01*
X313868Y296577D01*
X313813Y296609D01*
X313734Y296642D01*
X313660Y296684D01*
X313530Y296728D01*
X313520Y296732D01*
X313515Y296732D01*
X313507Y296735D01*
X310497Y297542D01*
X310453Y297548D01*
X310411Y297562D01*
X310251Y297582D01*
X308693Y297685D01*
X308672Y297683D01*
X308608Y297687D01*
X183980Y297465D01*
X183942Y297460D01*
X183903Y297462D01*
X183784Y297440D01*
X183664Y297424D01*
X183629Y297410D01*
X183591Y297403D01*
X183481Y297351D01*
X183369Y297307D01*
X183338Y297284D01*
X183303Y297268D01*
X183210Y297191D01*
X183112Y297119D01*
X183087Y297090D01*
X183058Y297065D01*
X182986Y296967D01*
X182910Y296874D01*
X182893Y296839D01*
X182870Y296808D01*
X182826Y296695D01*
X182775Y296586D01*
X182767Y296548D01*
X182753Y296512D01*
X182738Y296393D01*
X182715Y296274D01*
X182718Y296235D01*
X182713Y296197D01*
X182728Y296077D01*
X182736Y295956D01*
X182748Y295920D01*
X182752Y295881D01*
X182797Y295769D01*
X182834Y295654D01*
X182855Y295621D01*
X182869Y295585D01*
X182955Y295449D01*
X190685Y284810D01*
X196295Y270642D01*
X197776Y258921D01*
X197785Y258882D01*
X197788Y258843D01*
X197825Y258729D01*
X197855Y258613D01*
X197874Y258578D01*
X197886Y258541D01*
X197950Y258439D01*
X198008Y258334D01*
X198035Y258305D01*
X198056Y258272D01*
X198143Y258190D01*
X198225Y258102D01*
X198259Y258081D01*
X198288Y258054D01*
X198393Y257996D01*
X198494Y257932D01*
X198532Y257920D01*
X198566Y257900D01*
X198682Y257871D01*
X198796Y257833D01*
X198836Y257831D01*
X198874Y257821D01*
X199035Y257811D01*
X269382Y257811D01*
X276404Y250788D01*
X276482Y250728D01*
X276554Y250660D01*
X276607Y250631D01*
X276655Y250594D01*
X276746Y250554D01*
X276833Y250506D01*
X276891Y250491D01*
X276947Y250467D01*
X277045Y250452D01*
X277141Y250427D01*
X277241Y250421D01*
X277261Y250417D01*
X277273Y250419D01*
X277301Y250417D01*
X279186Y250417D01*
X281136Y249609D01*
X282629Y248116D01*
X283437Y246166D01*
X283437Y244054D01*
X282629Y242104D01*
X281136Y240611D01*
X279186Y239803D01*
X277074Y239803D01*
X275124Y240611D01*
X273631Y242104D01*
X272823Y244054D01*
X272823Y245939D01*
X272811Y246037D01*
X272808Y246136D01*
X272791Y246194D01*
X272783Y246254D01*
X272747Y246346D01*
X272719Y246441D01*
X272689Y246494D01*
X272666Y246550D01*
X272608Y246630D01*
X272558Y246715D01*
X272492Y246791D01*
X272480Y246807D01*
X272470Y246815D01*
X272452Y246836D01*
X267438Y251850D01*
X267360Y251910D01*
X267288Y251978D01*
X267235Y252007D01*
X267187Y252044D01*
X267096Y252084D01*
X267009Y252132D01*
X266951Y252147D01*
X266895Y252171D01*
X266797Y252186D01*
X266701Y252211D01*
X266601Y252217D01*
X266581Y252221D01*
X266569Y252219D01*
X266541Y252221D01*
X257080Y252221D01*
X257011Y252213D01*
X256941Y252214D01*
X256854Y252193D01*
X256764Y252181D01*
X256700Y252156D01*
X256632Y252139D01*
X256552Y252097D01*
X256469Y252064D01*
X256412Y252023D01*
X256351Y251991D01*
X256284Y251930D01*
X256211Y251878D01*
X256167Y251824D01*
X256115Y251777D01*
X256066Y251702D01*
X256009Y251633D01*
X255979Y251569D01*
X255940Y251511D01*
X255911Y251426D01*
X255873Y251345D01*
X255860Y251276D01*
X255837Y251210D01*
X255830Y251121D01*
X255813Y251033D01*
X255818Y250963D01*
X255812Y250893D01*
X255827Y250805D01*
X255833Y250715D01*
X255855Y250649D01*
X255866Y250580D01*
X255903Y250498D01*
X255931Y250413D01*
X255968Y250354D01*
X255997Y250290D01*
X256053Y250220D01*
X256101Y250144D01*
X256152Y250096D01*
X256196Y250042D01*
X256268Y249987D01*
X256333Y249926D01*
X256394Y249892D01*
X256450Y249850D01*
X256594Y249779D01*
X257006Y249609D01*
X258499Y248116D01*
X259307Y246166D01*
X259307Y244054D01*
X258499Y242104D01*
X257006Y240611D01*
X255056Y239803D01*
X252944Y239803D01*
X250994Y240611D01*
X249662Y241944D01*
X249583Y242004D01*
X249511Y242072D01*
X249458Y242101D01*
X249410Y242138D01*
X249320Y242178D01*
X249233Y242226D01*
X249174Y242241D01*
X249119Y242265D01*
X249021Y242280D01*
X248925Y242305D01*
X248825Y242311D01*
X248804Y242315D01*
X248792Y242313D01*
X248764Y242315D01*
X232569Y242315D01*
X232471Y242303D01*
X232372Y242300D01*
X232314Y242283D01*
X232254Y242275D01*
X232162Y242239D01*
X232067Y242211D01*
X232014Y242181D01*
X231958Y242158D01*
X231878Y242100D01*
X231793Y242050D01*
X231717Y241984D01*
X231701Y241972D01*
X231693Y241962D01*
X231672Y241944D01*
X202842Y213114D01*
X202769Y213019D01*
X202690Y212930D01*
X202672Y212894D01*
X202647Y212862D01*
X202600Y212753D01*
X202546Y212647D01*
X202537Y212608D01*
X202521Y212571D01*
X202502Y212453D01*
X202476Y212337D01*
X202477Y212296D01*
X202471Y212256D01*
X202482Y212138D01*
X202486Y212019D01*
X202497Y211980D01*
X202501Y211940D01*
X202541Y211828D01*
X202574Y211713D01*
X202595Y211679D01*
X202608Y211641D01*
X202675Y211542D01*
X202736Y211439D01*
X202775Y211394D01*
X202787Y211377D01*
X202802Y211364D01*
X202842Y211319D01*
X206204Y207957D01*
X206283Y207896D01*
X206356Y207827D01*
X206408Y207799D01*
X206455Y207762D01*
X206547Y207722D01*
X206635Y207674D01*
X206692Y207659D01*
X206747Y207636D01*
X206846Y207620D01*
X206943Y207595D01*
X207040Y207589D01*
X207061Y207586D01*
X207074Y207587D01*
X207103Y207585D01*
X308717Y207768D01*
G37*
D10*
X322580Y290830D02*
X337820Y290830D01*
X337820Y265430D02*
X322580Y265430D01*
X322580Y240030D02*
X337820Y240030D01*
X337820Y214630D02*
X322580Y214630D01*
D11*
X197104Y196850D03*
D12*
X137414Y255524D03*
D13*
X288290Y244122D03*
D14*
X326108Y244122D01*
X330200Y240030D01*
D13*
X254000Y245110D03*
D15*
X230886Y245110D02*
X197104Y211328D01*
X197104Y196850D01*
X230886Y245110D02*
X254000Y245110D01*
D13*
X278130Y245110D03*
D15*
X268224Y255016D01*
D14*
X137922Y255016D02*
X137414Y255524D01*
D15*
X137922Y255016D02*
X268224Y255016D01*
M02*
