G04 EAGLE Gerber RS-274X export*
G75*
%MOMM*%
%FSLAX34Y34*%
%LPD*%
%INSilkscreen Bottom*%
%IPPOS*%
%AMOC8*
5,1,8,0,0,1.08239X$1,22.5*%
G01*
%ADD10C,0.152400*%
%ADD11C,0.076200*%
%ADD12C,0.101600*%
%ADD13C,0.127000*%


D10*
X184658Y296644D02*
X173821Y296644D01*
X179239Y291225D02*
X179239Y302062D01*
X182841Y208174D02*
X172004Y208174D01*
X165125Y208174D02*
X154288Y208174D01*
D11*
X298028Y294971D02*
X307426Y291838D01*
X307426Y298104D02*
X298028Y294971D01*
X297680Y250131D02*
X307078Y246999D01*
X307078Y253264D02*
X297680Y250131D01*
X297680Y257027D02*
X307078Y257027D01*
X307078Y259637D01*
X307079Y259637D02*
X307077Y259738D01*
X307071Y259839D01*
X307061Y259940D01*
X307048Y260040D01*
X307030Y260140D01*
X307009Y260239D01*
X306983Y260337D01*
X306954Y260434D01*
X306922Y260530D01*
X306885Y260624D01*
X306845Y260717D01*
X306801Y260809D01*
X306754Y260898D01*
X306703Y260986D01*
X306649Y261072D01*
X306592Y261155D01*
X306532Y261237D01*
X306468Y261315D01*
X306402Y261392D01*
X306332Y261465D01*
X306260Y261536D01*
X306185Y261604D01*
X306107Y261669D01*
X306027Y261731D01*
X305945Y261790D01*
X305860Y261846D01*
X305774Y261898D01*
X305685Y261947D01*
X305594Y261993D01*
X305502Y262034D01*
X305408Y262073D01*
X305313Y262107D01*
X305217Y262138D01*
X305119Y262165D01*
X305021Y262189D01*
X304921Y262208D01*
X304821Y262224D01*
X304721Y262236D01*
X304620Y262244D01*
X304519Y262248D01*
X304417Y262248D01*
X304316Y262244D01*
X304215Y262236D01*
X304115Y262224D01*
X304015Y262208D01*
X303915Y262189D01*
X303817Y262165D01*
X303719Y262138D01*
X303623Y262107D01*
X303528Y262073D01*
X303434Y262034D01*
X303342Y261993D01*
X303251Y261947D01*
X303163Y261898D01*
X303076Y261846D01*
X302991Y261790D01*
X302909Y261731D01*
X302829Y261669D01*
X302751Y261604D01*
X302676Y261536D01*
X302604Y261465D01*
X302534Y261392D01*
X302468Y261315D01*
X302404Y261237D01*
X302344Y261155D01*
X302287Y261072D01*
X302233Y260986D01*
X302182Y260898D01*
X302135Y260809D01*
X302091Y260717D01*
X302051Y260624D01*
X302014Y260530D01*
X301982Y260434D01*
X301953Y260337D01*
X301927Y260239D01*
X301906Y260140D01*
X301888Y260040D01*
X301875Y259940D01*
X301865Y259839D01*
X301859Y259738D01*
X301857Y259637D01*
X301857Y257027D01*
X301857Y260159D02*
X297680Y262248D01*
X297680Y266436D02*
X297680Y270613D01*
X297680Y266436D02*
X307078Y266436D01*
X307078Y270613D01*
X302901Y269568D02*
X302901Y266436D01*
X307078Y274360D02*
X297680Y274360D01*
X307078Y274360D02*
X307078Y278537D01*
X302901Y278537D02*
X302901Y274360D01*
X303304Y235657D02*
X303304Y234090D01*
X303304Y235657D02*
X298083Y235657D01*
X298083Y232524D01*
X298084Y232524D02*
X298086Y232435D01*
X298092Y232347D01*
X298101Y232259D01*
X298114Y232171D01*
X298131Y232084D01*
X298151Y231998D01*
X298176Y231913D01*
X298203Y231828D01*
X298235Y231745D01*
X298269Y231664D01*
X298308Y231584D01*
X298349Y231506D01*
X298394Y231429D01*
X298442Y231355D01*
X298493Y231282D01*
X298547Y231212D01*
X298605Y231145D01*
X298665Y231079D01*
X298727Y231017D01*
X298793Y230957D01*
X298860Y230899D01*
X298930Y230845D01*
X299003Y230794D01*
X299077Y230746D01*
X299154Y230701D01*
X299232Y230660D01*
X299312Y230621D01*
X299393Y230587D01*
X299476Y230555D01*
X299561Y230528D01*
X299646Y230503D01*
X299732Y230483D01*
X299819Y230466D01*
X299907Y230453D01*
X299995Y230444D01*
X300083Y230438D01*
X300172Y230436D01*
X305393Y230436D01*
X305484Y230438D01*
X305575Y230444D01*
X305666Y230454D01*
X305756Y230468D01*
X305845Y230485D01*
X305933Y230507D01*
X306021Y230533D01*
X306107Y230562D01*
X306192Y230595D01*
X306275Y230632D01*
X306357Y230672D01*
X306437Y230716D01*
X306515Y230763D01*
X306591Y230814D01*
X306664Y230867D01*
X306735Y230924D01*
X306804Y230985D01*
X306869Y231048D01*
X306932Y231113D01*
X306992Y231182D01*
X307050Y231253D01*
X307103Y231326D01*
X307154Y231402D01*
X307201Y231480D01*
X307245Y231560D01*
X307285Y231642D01*
X307322Y231725D01*
X307355Y231810D01*
X307384Y231896D01*
X307410Y231984D01*
X307432Y232072D01*
X307449Y232161D01*
X307463Y232251D01*
X307473Y232342D01*
X307479Y232433D01*
X307481Y232524D01*
X307481Y235657D01*
X307074Y210947D02*
X297676Y207814D01*
X297676Y214080D02*
X307074Y210947D01*
X300026Y213296D02*
X300026Y208597D01*
X301331Y217568D02*
X301331Y223833D01*
X298198Y220701D02*
X304464Y220701D01*
D12*
X214957Y228854D02*
X214957Y237744D01*
X212487Y237744D01*
X212389Y237742D01*
X212291Y237736D01*
X212193Y237726D01*
X212096Y237713D01*
X211999Y237695D01*
X211903Y237674D01*
X211809Y237649D01*
X211715Y237620D01*
X211622Y237588D01*
X211531Y237551D01*
X211441Y237512D01*
X211353Y237468D01*
X211267Y237421D01*
X211182Y237371D01*
X211100Y237318D01*
X211020Y237261D01*
X210942Y237201D01*
X210867Y237138D01*
X210794Y237072D01*
X210724Y237003D01*
X210657Y236932D01*
X210592Y236858D01*
X210531Y236781D01*
X210472Y236702D01*
X210417Y236621D01*
X210365Y236538D01*
X210317Y236452D01*
X210272Y236365D01*
X210230Y236276D01*
X210192Y236186D01*
X210158Y236094D01*
X210127Y236001D01*
X210100Y235906D01*
X210077Y235811D01*
X210057Y235714D01*
X210042Y235618D01*
X210030Y235520D01*
X210022Y235422D01*
X210018Y235324D01*
X210018Y235226D01*
X210022Y235128D01*
X210030Y235030D01*
X210042Y234932D01*
X210057Y234836D01*
X210077Y234739D01*
X210100Y234644D01*
X210127Y234549D01*
X210158Y234456D01*
X210192Y234364D01*
X210230Y234274D01*
X210272Y234185D01*
X210317Y234098D01*
X210365Y234012D01*
X210417Y233929D01*
X210472Y233848D01*
X210531Y233769D01*
X210592Y233692D01*
X210657Y233618D01*
X210724Y233547D01*
X210794Y233478D01*
X210867Y233412D01*
X210942Y233349D01*
X211020Y233289D01*
X211100Y233232D01*
X211182Y233179D01*
X211267Y233129D01*
X211353Y233082D01*
X211441Y233038D01*
X211531Y232999D01*
X211622Y232962D01*
X211715Y232930D01*
X211809Y232901D01*
X211903Y232876D01*
X211999Y232855D01*
X212096Y232837D01*
X212193Y232824D01*
X212291Y232814D01*
X212389Y232808D01*
X212487Y232806D01*
X212487Y232805D02*
X214957Y232805D01*
X211993Y232805D02*
X210018Y228854D01*
X206107Y235768D02*
X203637Y237744D01*
X203637Y228854D01*
X201168Y228854D02*
X206107Y228854D01*
X253311Y215138D02*
X253311Y206248D01*
X253311Y215138D02*
X250841Y215138D01*
X250743Y215136D01*
X250645Y215130D01*
X250547Y215120D01*
X250450Y215107D01*
X250353Y215089D01*
X250257Y215068D01*
X250163Y215043D01*
X250069Y215014D01*
X249976Y214982D01*
X249885Y214945D01*
X249795Y214906D01*
X249707Y214862D01*
X249621Y214815D01*
X249536Y214765D01*
X249454Y214712D01*
X249374Y214655D01*
X249296Y214595D01*
X249221Y214532D01*
X249148Y214466D01*
X249078Y214397D01*
X249011Y214326D01*
X248946Y214252D01*
X248885Y214175D01*
X248826Y214096D01*
X248771Y214015D01*
X248719Y213932D01*
X248671Y213846D01*
X248626Y213759D01*
X248584Y213670D01*
X248546Y213580D01*
X248512Y213488D01*
X248481Y213395D01*
X248454Y213300D01*
X248431Y213205D01*
X248411Y213108D01*
X248396Y213012D01*
X248384Y212914D01*
X248376Y212816D01*
X248372Y212718D01*
X248372Y212620D01*
X248376Y212522D01*
X248384Y212424D01*
X248396Y212326D01*
X248411Y212230D01*
X248431Y212133D01*
X248454Y212038D01*
X248481Y211943D01*
X248512Y211850D01*
X248546Y211758D01*
X248584Y211668D01*
X248626Y211579D01*
X248671Y211492D01*
X248719Y211406D01*
X248771Y211323D01*
X248826Y211242D01*
X248885Y211163D01*
X248946Y211086D01*
X249011Y211012D01*
X249078Y210941D01*
X249148Y210872D01*
X249221Y210806D01*
X249296Y210743D01*
X249374Y210683D01*
X249454Y210626D01*
X249536Y210573D01*
X249621Y210523D01*
X249707Y210476D01*
X249795Y210432D01*
X249885Y210393D01*
X249976Y210356D01*
X250069Y210324D01*
X250163Y210295D01*
X250257Y210270D01*
X250353Y210249D01*
X250450Y210231D01*
X250547Y210218D01*
X250645Y210208D01*
X250743Y210202D01*
X250841Y210200D01*
X250841Y210199D02*
X253311Y210199D01*
X250347Y210199D02*
X248372Y206248D01*
X239522Y212916D02*
X239524Y213008D01*
X239530Y213100D01*
X239539Y213191D01*
X239552Y213282D01*
X239569Y213372D01*
X239590Y213462D01*
X239614Y213550D01*
X239642Y213638D01*
X239674Y213724D01*
X239709Y213809D01*
X239748Y213892D01*
X239790Y213974D01*
X239835Y214054D01*
X239884Y214132D01*
X239936Y214208D01*
X239991Y214281D01*
X240049Y214353D01*
X240109Y214422D01*
X240173Y214488D01*
X240239Y214552D01*
X240308Y214612D01*
X240380Y214670D01*
X240453Y214725D01*
X240529Y214777D01*
X240607Y214826D01*
X240687Y214871D01*
X240769Y214913D01*
X240852Y214952D01*
X240937Y214987D01*
X241023Y215019D01*
X241111Y215047D01*
X241199Y215071D01*
X241289Y215092D01*
X241379Y215109D01*
X241470Y215122D01*
X241561Y215131D01*
X241653Y215137D01*
X241745Y215139D01*
X241745Y215138D02*
X241851Y215136D01*
X241956Y215130D01*
X242061Y215120D01*
X242166Y215107D01*
X242270Y215089D01*
X242373Y215068D01*
X242476Y215043D01*
X242578Y215014D01*
X242678Y214981D01*
X242777Y214945D01*
X242875Y214905D01*
X242971Y214861D01*
X243066Y214814D01*
X243158Y214764D01*
X243249Y214710D01*
X243338Y214652D01*
X243424Y214592D01*
X243508Y214528D01*
X243590Y214462D01*
X243670Y214392D01*
X243746Y214319D01*
X243820Y214244D01*
X243891Y214166D01*
X243959Y214085D01*
X244025Y214002D01*
X244087Y213916D01*
X244145Y213829D01*
X244201Y213739D01*
X244253Y213647D01*
X244302Y213553D01*
X244347Y213458D01*
X244389Y213361D01*
X244427Y213262D01*
X244461Y213163D01*
X240263Y211187D02*
X240194Y211256D01*
X240128Y211326D01*
X240065Y211400D01*
X240006Y211476D01*
X239949Y211554D01*
X239895Y211634D01*
X239845Y211717D01*
X239798Y211801D01*
X239755Y211888D01*
X239715Y211976D01*
X239679Y212065D01*
X239646Y212156D01*
X239617Y212248D01*
X239592Y212342D01*
X239571Y212436D01*
X239553Y212531D01*
X239540Y212627D01*
X239530Y212723D01*
X239524Y212819D01*
X239522Y212916D01*
X240263Y211187D02*
X244461Y206248D01*
X239522Y206248D01*
X231394Y206248D02*
X231394Y215138D01*
X228925Y215138D01*
X228827Y215136D01*
X228729Y215130D01*
X228631Y215120D01*
X228534Y215107D01*
X228437Y215089D01*
X228341Y215068D01*
X228247Y215043D01*
X228153Y215014D01*
X228060Y214982D01*
X227969Y214945D01*
X227879Y214906D01*
X227791Y214862D01*
X227705Y214815D01*
X227620Y214765D01*
X227538Y214712D01*
X227458Y214655D01*
X227380Y214595D01*
X227305Y214532D01*
X227232Y214466D01*
X227162Y214397D01*
X227095Y214326D01*
X227030Y214252D01*
X226969Y214175D01*
X226910Y214096D01*
X226855Y214015D01*
X226803Y213932D01*
X226755Y213846D01*
X226710Y213759D01*
X226668Y213670D01*
X226630Y213580D01*
X226596Y213488D01*
X226565Y213395D01*
X226538Y213300D01*
X226515Y213205D01*
X226495Y213108D01*
X226480Y213012D01*
X226468Y212914D01*
X226460Y212816D01*
X226456Y212718D01*
X226456Y212620D01*
X226460Y212522D01*
X226468Y212424D01*
X226480Y212326D01*
X226495Y212230D01*
X226515Y212133D01*
X226538Y212038D01*
X226565Y211943D01*
X226596Y211850D01*
X226630Y211758D01*
X226668Y211668D01*
X226710Y211579D01*
X226755Y211492D01*
X226803Y211406D01*
X226855Y211323D01*
X226910Y211242D01*
X226969Y211163D01*
X227030Y211086D01*
X227095Y211012D01*
X227162Y210941D01*
X227232Y210872D01*
X227305Y210806D01*
X227380Y210743D01*
X227458Y210683D01*
X227538Y210626D01*
X227620Y210573D01*
X227705Y210523D01*
X227791Y210476D01*
X227879Y210432D01*
X227969Y210393D01*
X228060Y210356D01*
X228153Y210324D01*
X228247Y210295D01*
X228341Y210270D01*
X228437Y210249D01*
X228534Y210231D01*
X228631Y210218D01*
X228729Y210208D01*
X228827Y210202D01*
X228925Y210200D01*
X228925Y210199D02*
X231394Y210199D01*
X228431Y210199D02*
X226455Y206248D01*
X222544Y206248D02*
X220075Y206248D01*
X219977Y206250D01*
X219879Y206256D01*
X219781Y206266D01*
X219684Y206279D01*
X219587Y206297D01*
X219491Y206318D01*
X219397Y206343D01*
X219303Y206372D01*
X219210Y206404D01*
X219119Y206441D01*
X219029Y206480D01*
X218941Y206524D01*
X218855Y206571D01*
X218770Y206621D01*
X218688Y206674D01*
X218608Y206731D01*
X218530Y206791D01*
X218455Y206854D01*
X218382Y206920D01*
X218312Y206989D01*
X218245Y207060D01*
X218180Y207134D01*
X218119Y207211D01*
X218060Y207290D01*
X218005Y207371D01*
X217953Y207454D01*
X217905Y207540D01*
X217860Y207627D01*
X217818Y207716D01*
X217780Y207806D01*
X217746Y207898D01*
X217715Y207991D01*
X217688Y208086D01*
X217665Y208181D01*
X217645Y208278D01*
X217630Y208374D01*
X217618Y208472D01*
X217610Y208570D01*
X217606Y208668D01*
X217606Y208766D01*
X217610Y208864D01*
X217618Y208962D01*
X217630Y209060D01*
X217645Y209156D01*
X217665Y209253D01*
X217688Y209348D01*
X217715Y209443D01*
X217746Y209536D01*
X217780Y209628D01*
X217818Y209718D01*
X217860Y209807D01*
X217905Y209894D01*
X217953Y209980D01*
X218005Y210063D01*
X218060Y210144D01*
X218119Y210223D01*
X218180Y210300D01*
X218245Y210374D01*
X218312Y210445D01*
X218382Y210514D01*
X218455Y210580D01*
X218530Y210643D01*
X218608Y210703D01*
X218688Y210760D01*
X218770Y210813D01*
X218855Y210863D01*
X218941Y210910D01*
X219029Y210954D01*
X219119Y210993D01*
X219210Y211030D01*
X219303Y211062D01*
X219397Y211091D01*
X219491Y211116D01*
X219587Y211137D01*
X219684Y211155D01*
X219781Y211168D01*
X219879Y211178D01*
X219977Y211184D01*
X220075Y211186D01*
X219581Y215138D02*
X222544Y215138D01*
X219581Y215138D02*
X219494Y215136D01*
X219406Y215130D01*
X219319Y215121D01*
X219233Y215107D01*
X219147Y215090D01*
X219063Y215069D01*
X218979Y215044D01*
X218896Y215015D01*
X218815Y214983D01*
X218735Y214948D01*
X218657Y214909D01*
X218580Y214866D01*
X218506Y214820D01*
X218434Y214771D01*
X218364Y214719D01*
X218296Y214663D01*
X218231Y214605D01*
X218168Y214544D01*
X218109Y214480D01*
X218052Y214413D01*
X217998Y214345D01*
X217947Y214273D01*
X217900Y214200D01*
X217855Y214125D01*
X217814Y214047D01*
X217777Y213968D01*
X217743Y213888D01*
X217713Y213806D01*
X217686Y213723D01*
X217663Y213638D01*
X217644Y213553D01*
X217629Y213467D01*
X217617Y213380D01*
X217609Y213293D01*
X217605Y213206D01*
X217605Y213118D01*
X217609Y213031D01*
X217617Y212944D01*
X217629Y212857D01*
X217644Y212771D01*
X217663Y212686D01*
X217686Y212601D01*
X217713Y212518D01*
X217743Y212436D01*
X217777Y212356D01*
X217814Y212277D01*
X217855Y212199D01*
X217900Y212124D01*
X217947Y212051D01*
X217998Y211979D01*
X218052Y211911D01*
X218109Y211844D01*
X218168Y211780D01*
X218231Y211719D01*
X218296Y211661D01*
X218364Y211605D01*
X218434Y211553D01*
X218506Y211504D01*
X218580Y211458D01*
X218657Y211415D01*
X218735Y211376D01*
X218815Y211341D01*
X218896Y211309D01*
X218979Y211280D01*
X219063Y211255D01*
X219147Y211234D01*
X219233Y211217D01*
X219319Y211203D01*
X219406Y211194D01*
X219494Y211188D01*
X219581Y211186D01*
X219581Y211187D02*
X221556Y211187D01*
X214703Y239522D02*
X214703Y248412D01*
X212233Y248412D01*
X212135Y248410D01*
X212037Y248404D01*
X211939Y248394D01*
X211842Y248381D01*
X211745Y248363D01*
X211649Y248342D01*
X211555Y248317D01*
X211461Y248288D01*
X211368Y248256D01*
X211277Y248219D01*
X211187Y248180D01*
X211099Y248136D01*
X211013Y248089D01*
X210928Y248039D01*
X210846Y247986D01*
X210766Y247929D01*
X210688Y247869D01*
X210613Y247806D01*
X210540Y247740D01*
X210470Y247671D01*
X210403Y247600D01*
X210338Y247526D01*
X210277Y247449D01*
X210218Y247370D01*
X210163Y247289D01*
X210111Y247206D01*
X210063Y247120D01*
X210018Y247033D01*
X209976Y246944D01*
X209938Y246854D01*
X209904Y246762D01*
X209873Y246669D01*
X209846Y246574D01*
X209823Y246479D01*
X209803Y246382D01*
X209788Y246286D01*
X209776Y246188D01*
X209768Y246090D01*
X209764Y245992D01*
X209764Y245894D01*
X209768Y245796D01*
X209776Y245698D01*
X209788Y245600D01*
X209803Y245504D01*
X209823Y245407D01*
X209846Y245312D01*
X209873Y245217D01*
X209904Y245124D01*
X209938Y245032D01*
X209976Y244942D01*
X210018Y244853D01*
X210063Y244766D01*
X210111Y244680D01*
X210163Y244597D01*
X210218Y244516D01*
X210277Y244437D01*
X210338Y244360D01*
X210403Y244286D01*
X210470Y244215D01*
X210540Y244146D01*
X210613Y244080D01*
X210688Y244017D01*
X210766Y243957D01*
X210846Y243900D01*
X210928Y243847D01*
X211013Y243797D01*
X211099Y243750D01*
X211187Y243706D01*
X211277Y243667D01*
X211368Y243630D01*
X211461Y243598D01*
X211555Y243569D01*
X211649Y243544D01*
X211745Y243523D01*
X211842Y243505D01*
X211939Y243492D01*
X212037Y243482D01*
X212135Y243476D01*
X212233Y243474D01*
X212233Y243473D02*
X214703Y243473D01*
X211739Y243473D02*
X209764Y239522D01*
X205853Y241498D02*
X203877Y248412D01*
X205853Y241498D02*
X200914Y241498D01*
X202396Y243473D02*
X202396Y239522D01*
X307921Y292608D02*
X307921Y301498D01*
X305451Y301498D01*
X305353Y301496D01*
X305255Y301490D01*
X305157Y301480D01*
X305060Y301467D01*
X304963Y301449D01*
X304867Y301428D01*
X304773Y301403D01*
X304679Y301374D01*
X304586Y301342D01*
X304495Y301305D01*
X304405Y301266D01*
X304317Y301222D01*
X304231Y301175D01*
X304146Y301125D01*
X304064Y301072D01*
X303984Y301015D01*
X303906Y300955D01*
X303831Y300892D01*
X303758Y300826D01*
X303688Y300757D01*
X303621Y300686D01*
X303556Y300612D01*
X303495Y300535D01*
X303436Y300456D01*
X303381Y300375D01*
X303329Y300292D01*
X303281Y300206D01*
X303236Y300119D01*
X303194Y300030D01*
X303156Y299940D01*
X303122Y299848D01*
X303091Y299755D01*
X303064Y299660D01*
X303041Y299565D01*
X303021Y299468D01*
X303006Y299372D01*
X302994Y299274D01*
X302986Y299176D01*
X302982Y299078D01*
X302982Y298980D01*
X302986Y298882D01*
X302994Y298784D01*
X303006Y298686D01*
X303021Y298590D01*
X303041Y298493D01*
X303064Y298398D01*
X303091Y298303D01*
X303122Y298210D01*
X303156Y298118D01*
X303194Y298028D01*
X303236Y297939D01*
X303281Y297852D01*
X303329Y297766D01*
X303381Y297683D01*
X303436Y297602D01*
X303495Y297523D01*
X303556Y297446D01*
X303621Y297372D01*
X303688Y297301D01*
X303758Y297232D01*
X303831Y297166D01*
X303906Y297103D01*
X303984Y297043D01*
X304064Y296986D01*
X304146Y296933D01*
X304231Y296883D01*
X304317Y296836D01*
X304405Y296792D01*
X304495Y296753D01*
X304586Y296716D01*
X304679Y296684D01*
X304773Y296655D01*
X304867Y296630D01*
X304963Y296609D01*
X305060Y296591D01*
X305157Y296578D01*
X305255Y296568D01*
X305353Y296562D01*
X305451Y296560D01*
X305451Y296559D02*
X307921Y296559D01*
X304957Y296559D02*
X302982Y292608D01*
X299071Y292608D02*
X296108Y292608D01*
X296019Y292610D01*
X295931Y292616D01*
X295843Y292626D01*
X295755Y292640D01*
X295668Y292658D01*
X295582Y292679D01*
X295497Y292705D01*
X295414Y292734D01*
X295331Y292767D01*
X295251Y292804D01*
X295172Y292844D01*
X295095Y292888D01*
X295019Y292935D01*
X294947Y292985D01*
X294876Y293039D01*
X294808Y293096D01*
X294742Y293156D01*
X294680Y293218D01*
X294620Y293284D01*
X294563Y293352D01*
X294509Y293423D01*
X294459Y293495D01*
X294412Y293570D01*
X294368Y293648D01*
X294328Y293727D01*
X294291Y293807D01*
X294258Y293890D01*
X294229Y293973D01*
X294203Y294058D01*
X294182Y294144D01*
X294164Y294231D01*
X294150Y294319D01*
X294140Y294407D01*
X294134Y294495D01*
X294132Y294584D01*
X294132Y295571D01*
X294134Y295657D01*
X294140Y295743D01*
X294149Y295829D01*
X294162Y295914D01*
X294179Y295999D01*
X294199Y296082D01*
X294223Y296165D01*
X294251Y296247D01*
X294282Y296327D01*
X294317Y296406D01*
X294355Y296483D01*
X294397Y296559D01*
X294441Y296633D01*
X294489Y296704D01*
X294540Y296774D01*
X294594Y296841D01*
X294651Y296906D01*
X294711Y296968D01*
X294773Y297028D01*
X294838Y297085D01*
X294905Y297139D01*
X294975Y297190D01*
X295046Y297238D01*
X295120Y297282D01*
X295196Y297324D01*
X295273Y297362D01*
X295352Y297397D01*
X295432Y297428D01*
X295514Y297456D01*
X295597Y297480D01*
X295680Y297500D01*
X295765Y297517D01*
X295850Y297530D01*
X295936Y297539D01*
X296022Y297545D01*
X296108Y297547D01*
X299071Y297547D01*
X299071Y301498D01*
X294132Y301498D01*
X281178Y301752D02*
X281178Y292862D01*
X281178Y301752D02*
X278709Y301752D01*
X278611Y301750D01*
X278513Y301744D01*
X278415Y301734D01*
X278318Y301721D01*
X278221Y301703D01*
X278125Y301682D01*
X278031Y301657D01*
X277937Y301628D01*
X277844Y301596D01*
X277753Y301559D01*
X277663Y301520D01*
X277575Y301476D01*
X277489Y301429D01*
X277404Y301379D01*
X277322Y301326D01*
X277242Y301269D01*
X277164Y301209D01*
X277089Y301146D01*
X277016Y301080D01*
X276946Y301011D01*
X276879Y300940D01*
X276814Y300866D01*
X276753Y300789D01*
X276694Y300710D01*
X276639Y300629D01*
X276587Y300546D01*
X276539Y300460D01*
X276494Y300373D01*
X276452Y300284D01*
X276414Y300194D01*
X276380Y300102D01*
X276349Y300009D01*
X276322Y299914D01*
X276299Y299819D01*
X276279Y299722D01*
X276264Y299626D01*
X276252Y299528D01*
X276244Y299430D01*
X276240Y299332D01*
X276240Y299234D01*
X276244Y299136D01*
X276252Y299038D01*
X276264Y298940D01*
X276279Y298844D01*
X276299Y298747D01*
X276322Y298652D01*
X276349Y298557D01*
X276380Y298464D01*
X276414Y298372D01*
X276452Y298282D01*
X276494Y298193D01*
X276539Y298106D01*
X276587Y298020D01*
X276639Y297937D01*
X276694Y297856D01*
X276753Y297777D01*
X276814Y297700D01*
X276879Y297626D01*
X276946Y297555D01*
X277016Y297486D01*
X277089Y297420D01*
X277164Y297357D01*
X277242Y297297D01*
X277322Y297240D01*
X277404Y297187D01*
X277489Y297137D01*
X277575Y297090D01*
X277663Y297046D01*
X277753Y297007D01*
X277844Y296970D01*
X277937Y296938D01*
X278031Y296909D01*
X278125Y296884D01*
X278221Y296863D01*
X278318Y296845D01*
X278415Y296832D01*
X278513Y296822D01*
X278611Y296816D01*
X278709Y296814D01*
X278709Y296813D02*
X281178Y296813D01*
X278215Y296813D02*
X276239Y292862D01*
X272328Y297801D02*
X269365Y297801D01*
X269279Y297799D01*
X269193Y297793D01*
X269107Y297784D01*
X269022Y297771D01*
X268937Y297754D01*
X268854Y297734D01*
X268771Y297710D01*
X268689Y297682D01*
X268609Y297651D01*
X268530Y297616D01*
X268453Y297578D01*
X268377Y297536D01*
X268303Y297492D01*
X268232Y297444D01*
X268162Y297393D01*
X268095Y297339D01*
X268030Y297282D01*
X267968Y297222D01*
X267908Y297160D01*
X267851Y297095D01*
X267797Y297028D01*
X267746Y296958D01*
X267698Y296887D01*
X267654Y296813D01*
X267612Y296737D01*
X267574Y296660D01*
X267539Y296581D01*
X267508Y296501D01*
X267480Y296419D01*
X267456Y296336D01*
X267436Y296253D01*
X267419Y296168D01*
X267406Y296083D01*
X267397Y295997D01*
X267391Y295911D01*
X267389Y295825D01*
X267389Y295331D01*
X267390Y295331D02*
X267392Y295233D01*
X267398Y295135D01*
X267408Y295037D01*
X267421Y294940D01*
X267439Y294843D01*
X267460Y294747D01*
X267485Y294653D01*
X267514Y294559D01*
X267546Y294466D01*
X267583Y294375D01*
X267622Y294285D01*
X267666Y294197D01*
X267713Y294111D01*
X267763Y294026D01*
X267816Y293944D01*
X267873Y293864D01*
X267933Y293786D01*
X267996Y293711D01*
X268062Y293638D01*
X268131Y293568D01*
X268202Y293501D01*
X268276Y293436D01*
X268353Y293375D01*
X268432Y293316D01*
X268513Y293261D01*
X268596Y293209D01*
X268682Y293161D01*
X268769Y293116D01*
X268858Y293074D01*
X268948Y293036D01*
X269040Y293002D01*
X269133Y292971D01*
X269228Y292944D01*
X269323Y292921D01*
X269420Y292901D01*
X269516Y292886D01*
X269614Y292874D01*
X269712Y292866D01*
X269810Y292862D01*
X269908Y292862D01*
X270006Y292866D01*
X270104Y292874D01*
X270202Y292886D01*
X270298Y292901D01*
X270395Y292921D01*
X270490Y292944D01*
X270585Y292971D01*
X270678Y293002D01*
X270770Y293036D01*
X270860Y293074D01*
X270949Y293116D01*
X271036Y293161D01*
X271122Y293209D01*
X271205Y293261D01*
X271286Y293316D01*
X271365Y293375D01*
X271442Y293436D01*
X271516Y293501D01*
X271587Y293568D01*
X271656Y293638D01*
X271722Y293711D01*
X271785Y293786D01*
X271845Y293864D01*
X271902Y293944D01*
X271955Y294026D01*
X272005Y294111D01*
X272052Y294197D01*
X272096Y294285D01*
X272135Y294375D01*
X272172Y294466D01*
X272204Y294559D01*
X272233Y294653D01*
X272258Y294747D01*
X272279Y294843D01*
X272297Y294940D01*
X272310Y295037D01*
X272320Y295135D01*
X272326Y295233D01*
X272328Y295331D01*
X272328Y297801D01*
X272326Y297925D01*
X272320Y298049D01*
X272310Y298173D01*
X272297Y298296D01*
X272279Y298419D01*
X272258Y298541D01*
X272233Y298663D01*
X272204Y298784D01*
X272171Y298903D01*
X272135Y299022D01*
X272094Y299139D01*
X272051Y299255D01*
X272003Y299370D01*
X271952Y299483D01*
X271897Y299595D01*
X271839Y299704D01*
X271778Y299812D01*
X271713Y299918D01*
X271645Y300022D01*
X271573Y300123D01*
X271499Y300223D01*
X271421Y300319D01*
X271341Y300414D01*
X271257Y300506D01*
X271171Y300595D01*
X271082Y300681D01*
X270990Y300765D01*
X270895Y300845D01*
X270799Y300923D01*
X270699Y300997D01*
X270598Y301069D01*
X270494Y301137D01*
X270388Y301202D01*
X270280Y301263D01*
X270171Y301321D01*
X270059Y301376D01*
X269946Y301427D01*
X269832Y301475D01*
X269715Y301518D01*
X269598Y301559D01*
X269479Y301595D01*
X269360Y301628D01*
X269239Y301657D01*
X269117Y301682D01*
X268995Y301703D01*
X268872Y301721D01*
X268749Y301734D01*
X268625Y301744D01*
X268501Y301750D01*
X268377Y301752D01*
X213433Y260096D02*
X213433Y251206D01*
X213433Y260096D02*
X210963Y260096D01*
X210865Y260094D01*
X210767Y260088D01*
X210669Y260078D01*
X210572Y260065D01*
X210475Y260047D01*
X210379Y260026D01*
X210285Y260001D01*
X210191Y259972D01*
X210098Y259940D01*
X210007Y259903D01*
X209917Y259864D01*
X209829Y259820D01*
X209743Y259773D01*
X209658Y259723D01*
X209576Y259670D01*
X209496Y259613D01*
X209418Y259553D01*
X209343Y259490D01*
X209270Y259424D01*
X209200Y259355D01*
X209133Y259284D01*
X209068Y259210D01*
X209007Y259133D01*
X208948Y259054D01*
X208893Y258973D01*
X208841Y258890D01*
X208793Y258804D01*
X208748Y258717D01*
X208706Y258628D01*
X208668Y258538D01*
X208634Y258446D01*
X208603Y258353D01*
X208576Y258258D01*
X208553Y258163D01*
X208533Y258066D01*
X208518Y257970D01*
X208506Y257872D01*
X208498Y257774D01*
X208494Y257676D01*
X208494Y257578D01*
X208498Y257480D01*
X208506Y257382D01*
X208518Y257284D01*
X208533Y257188D01*
X208553Y257091D01*
X208576Y256996D01*
X208603Y256901D01*
X208634Y256808D01*
X208668Y256716D01*
X208706Y256626D01*
X208748Y256537D01*
X208793Y256450D01*
X208841Y256364D01*
X208893Y256281D01*
X208948Y256200D01*
X209007Y256121D01*
X209068Y256044D01*
X209133Y255970D01*
X209200Y255899D01*
X209270Y255830D01*
X209343Y255764D01*
X209418Y255701D01*
X209496Y255641D01*
X209576Y255584D01*
X209658Y255531D01*
X209743Y255481D01*
X209829Y255434D01*
X209917Y255390D01*
X210007Y255351D01*
X210098Y255314D01*
X210191Y255282D01*
X210285Y255253D01*
X210379Y255228D01*
X210475Y255207D01*
X210572Y255189D01*
X210669Y255176D01*
X210767Y255166D01*
X210865Y255160D01*
X210963Y255158D01*
X210963Y255157D02*
X213433Y255157D01*
X210469Y255157D02*
X208494Y251206D01*
X204583Y259108D02*
X204583Y260096D01*
X199644Y260096D01*
X202113Y251206D01*
X199136Y282375D02*
X208026Y282375D01*
X208026Y284845D01*
X208024Y284943D01*
X208018Y285041D01*
X208008Y285139D01*
X207995Y285236D01*
X207977Y285333D01*
X207956Y285429D01*
X207931Y285523D01*
X207902Y285617D01*
X207870Y285710D01*
X207833Y285801D01*
X207794Y285891D01*
X207750Y285979D01*
X207703Y286065D01*
X207653Y286150D01*
X207600Y286232D01*
X207543Y286312D01*
X207483Y286390D01*
X207420Y286465D01*
X207354Y286538D01*
X207285Y286608D01*
X207214Y286675D01*
X207140Y286740D01*
X207063Y286801D01*
X206984Y286860D01*
X206903Y286915D01*
X206820Y286967D01*
X206734Y287015D01*
X206647Y287060D01*
X206558Y287102D01*
X206468Y287140D01*
X206376Y287174D01*
X206283Y287205D01*
X206188Y287232D01*
X206093Y287255D01*
X205996Y287275D01*
X205900Y287290D01*
X205802Y287302D01*
X205704Y287310D01*
X205606Y287314D01*
X205508Y287314D01*
X205410Y287310D01*
X205312Y287302D01*
X205214Y287290D01*
X205118Y287275D01*
X205021Y287255D01*
X204926Y287232D01*
X204831Y287205D01*
X204738Y287174D01*
X204646Y287140D01*
X204556Y287102D01*
X204467Y287060D01*
X204380Y287015D01*
X204294Y286967D01*
X204211Y286915D01*
X204130Y286860D01*
X204051Y286801D01*
X203974Y286740D01*
X203900Y286675D01*
X203829Y286608D01*
X203760Y286538D01*
X203694Y286465D01*
X203631Y286390D01*
X203571Y286312D01*
X203514Y286232D01*
X203461Y286150D01*
X203411Y286065D01*
X203364Y285979D01*
X203320Y285891D01*
X203281Y285801D01*
X203244Y285710D01*
X203212Y285617D01*
X203183Y285523D01*
X203158Y285429D01*
X203137Y285333D01*
X203119Y285236D01*
X203106Y285139D01*
X203096Y285041D01*
X203090Y284943D01*
X203088Y284845D01*
X203087Y284845D02*
X203087Y282375D01*
X203087Y285339D02*
X199136Y287314D01*
X201605Y291226D02*
X201703Y291228D01*
X201801Y291234D01*
X201899Y291244D01*
X201996Y291257D01*
X202093Y291275D01*
X202189Y291296D01*
X202283Y291321D01*
X202377Y291350D01*
X202470Y291382D01*
X202561Y291419D01*
X202651Y291458D01*
X202739Y291502D01*
X202825Y291549D01*
X202910Y291599D01*
X202992Y291652D01*
X203072Y291709D01*
X203150Y291769D01*
X203225Y291832D01*
X203298Y291898D01*
X203368Y291967D01*
X203435Y292038D01*
X203500Y292112D01*
X203561Y292189D01*
X203620Y292268D01*
X203675Y292349D01*
X203727Y292432D01*
X203775Y292518D01*
X203820Y292605D01*
X203862Y292694D01*
X203900Y292784D01*
X203934Y292876D01*
X203965Y292969D01*
X203992Y293064D01*
X204015Y293159D01*
X204035Y293256D01*
X204050Y293352D01*
X204062Y293450D01*
X204070Y293548D01*
X204074Y293646D01*
X204074Y293744D01*
X204070Y293842D01*
X204062Y293940D01*
X204050Y294038D01*
X204035Y294134D01*
X204015Y294231D01*
X203992Y294326D01*
X203965Y294421D01*
X203934Y294514D01*
X203900Y294606D01*
X203862Y294696D01*
X203820Y294785D01*
X203775Y294872D01*
X203727Y294958D01*
X203675Y295041D01*
X203620Y295122D01*
X203561Y295201D01*
X203500Y295278D01*
X203435Y295352D01*
X203368Y295423D01*
X203298Y295492D01*
X203225Y295558D01*
X203150Y295621D01*
X203072Y295681D01*
X202992Y295738D01*
X202910Y295791D01*
X202825Y295841D01*
X202739Y295888D01*
X202651Y295932D01*
X202561Y295971D01*
X202470Y296008D01*
X202377Y296040D01*
X202283Y296069D01*
X202189Y296094D01*
X202093Y296115D01*
X201996Y296133D01*
X201899Y296146D01*
X201801Y296156D01*
X201703Y296162D01*
X201605Y296164D01*
X201507Y296162D01*
X201409Y296156D01*
X201311Y296146D01*
X201214Y296133D01*
X201117Y296115D01*
X201021Y296094D01*
X200927Y296069D01*
X200833Y296040D01*
X200740Y296008D01*
X200649Y295971D01*
X200559Y295932D01*
X200471Y295888D01*
X200385Y295841D01*
X200300Y295791D01*
X200218Y295738D01*
X200138Y295681D01*
X200060Y295621D01*
X199985Y295558D01*
X199912Y295492D01*
X199842Y295423D01*
X199775Y295352D01*
X199710Y295278D01*
X199649Y295201D01*
X199590Y295122D01*
X199535Y295041D01*
X199483Y294958D01*
X199435Y294872D01*
X199390Y294785D01*
X199348Y294696D01*
X199310Y294606D01*
X199276Y294514D01*
X199245Y294421D01*
X199218Y294326D01*
X199195Y294231D01*
X199175Y294134D01*
X199160Y294038D01*
X199148Y293940D01*
X199140Y293842D01*
X199136Y293744D01*
X199136Y293646D01*
X199140Y293548D01*
X199148Y293450D01*
X199160Y293352D01*
X199175Y293256D01*
X199195Y293159D01*
X199218Y293064D01*
X199245Y292969D01*
X199276Y292876D01*
X199310Y292784D01*
X199348Y292694D01*
X199390Y292605D01*
X199435Y292518D01*
X199483Y292432D01*
X199535Y292349D01*
X199590Y292268D01*
X199649Y292189D01*
X199710Y292112D01*
X199775Y292038D01*
X199842Y291967D01*
X199912Y291898D01*
X199985Y291832D01*
X200060Y291769D01*
X200138Y291709D01*
X200218Y291652D01*
X200300Y291599D01*
X200385Y291549D01*
X200471Y291502D01*
X200559Y291458D01*
X200649Y291419D01*
X200740Y291382D01*
X200833Y291350D01*
X200927Y291321D01*
X201021Y291296D01*
X201117Y291275D01*
X201214Y291257D01*
X201311Y291244D01*
X201409Y291234D01*
X201507Y291228D01*
X201605Y291226D01*
X206050Y291719D02*
X206137Y291721D01*
X206225Y291727D01*
X206312Y291736D01*
X206398Y291750D01*
X206484Y291767D01*
X206568Y291788D01*
X206652Y291813D01*
X206735Y291842D01*
X206816Y291874D01*
X206896Y291909D01*
X206974Y291948D01*
X207051Y291991D01*
X207125Y292037D01*
X207197Y292086D01*
X207267Y292138D01*
X207335Y292194D01*
X207400Y292252D01*
X207463Y292313D01*
X207522Y292377D01*
X207579Y292444D01*
X207633Y292512D01*
X207684Y292584D01*
X207731Y292657D01*
X207776Y292732D01*
X207817Y292810D01*
X207854Y292889D01*
X207888Y292969D01*
X207918Y293051D01*
X207945Y293134D01*
X207968Y293219D01*
X207987Y293304D01*
X208002Y293390D01*
X208014Y293477D01*
X208022Y293564D01*
X208026Y293651D01*
X208026Y293739D01*
X208022Y293826D01*
X208014Y293913D01*
X208002Y294000D01*
X207987Y294086D01*
X207968Y294171D01*
X207945Y294256D01*
X207918Y294339D01*
X207888Y294421D01*
X207854Y294501D01*
X207817Y294580D01*
X207776Y294658D01*
X207731Y294733D01*
X207684Y294806D01*
X207633Y294878D01*
X207579Y294946D01*
X207522Y295013D01*
X207463Y295077D01*
X207400Y295138D01*
X207335Y295196D01*
X207267Y295252D01*
X207197Y295304D01*
X207125Y295353D01*
X207051Y295399D01*
X206974Y295442D01*
X206896Y295481D01*
X206816Y295516D01*
X206735Y295548D01*
X206652Y295577D01*
X206568Y295602D01*
X206484Y295623D01*
X206398Y295640D01*
X206312Y295654D01*
X206225Y295663D01*
X206137Y295669D01*
X206050Y295671D01*
X205963Y295669D01*
X205875Y295663D01*
X205788Y295654D01*
X205702Y295640D01*
X205616Y295623D01*
X205532Y295602D01*
X205448Y295577D01*
X205365Y295548D01*
X205284Y295516D01*
X205204Y295481D01*
X205126Y295442D01*
X205049Y295399D01*
X204975Y295353D01*
X204903Y295304D01*
X204833Y295252D01*
X204765Y295196D01*
X204700Y295138D01*
X204637Y295077D01*
X204578Y295013D01*
X204521Y294946D01*
X204467Y294878D01*
X204416Y294806D01*
X204369Y294733D01*
X204324Y294658D01*
X204283Y294580D01*
X204246Y294501D01*
X204212Y294421D01*
X204182Y294339D01*
X204155Y294256D01*
X204132Y294171D01*
X204113Y294086D01*
X204098Y294000D01*
X204086Y293913D01*
X204078Y293826D01*
X204074Y293739D01*
X204074Y293651D01*
X204078Y293564D01*
X204086Y293477D01*
X204098Y293390D01*
X204113Y293304D01*
X204132Y293219D01*
X204155Y293134D01*
X204182Y293051D01*
X204212Y292969D01*
X204246Y292889D01*
X204283Y292810D01*
X204324Y292732D01*
X204369Y292657D01*
X204416Y292584D01*
X204467Y292512D01*
X204521Y292444D01*
X204578Y292377D01*
X204637Y292313D01*
X204700Y292252D01*
X204765Y292194D01*
X204833Y292138D01*
X204903Y292086D01*
X204975Y292037D01*
X205049Y291991D01*
X205126Y291948D01*
X205204Y291909D01*
X205284Y291874D01*
X205365Y291842D01*
X205448Y291813D01*
X205532Y291788D01*
X205616Y291767D01*
X205702Y291750D01*
X205788Y291736D01*
X205875Y291727D01*
X205963Y291721D01*
X206050Y291719D01*
D13*
X211455Y261239D02*
X213995Y261239D01*
X214095Y261241D01*
X214194Y261247D01*
X214294Y261257D01*
X214392Y261270D01*
X214491Y261288D01*
X214588Y261309D01*
X214684Y261334D01*
X214780Y261363D01*
X214874Y261396D01*
X214967Y261432D01*
X215058Y261472D01*
X215148Y261516D01*
X215236Y261563D01*
X215322Y261613D01*
X215406Y261667D01*
X215488Y261724D01*
X215567Y261784D01*
X215645Y261848D01*
X215719Y261914D01*
X215791Y261983D01*
X215860Y262055D01*
X215926Y262129D01*
X215990Y262207D01*
X216050Y262286D01*
X216107Y262368D01*
X216161Y262452D01*
X216211Y262538D01*
X216258Y262626D01*
X216302Y262716D01*
X216342Y262807D01*
X216378Y262900D01*
X216411Y262994D01*
X216440Y263090D01*
X216465Y263186D01*
X216486Y263283D01*
X216504Y263382D01*
X216517Y263480D01*
X216527Y263580D01*
X216533Y263679D01*
X216535Y263779D01*
X216535Y270129D01*
X216533Y270229D01*
X216527Y270328D01*
X216517Y270428D01*
X216504Y270526D01*
X216486Y270625D01*
X216465Y270722D01*
X216440Y270818D01*
X216411Y270914D01*
X216378Y271008D01*
X216342Y271101D01*
X216302Y271192D01*
X216258Y271282D01*
X216211Y271370D01*
X216161Y271456D01*
X216107Y271540D01*
X216050Y271622D01*
X215990Y271701D01*
X215926Y271779D01*
X215860Y271853D01*
X215791Y271925D01*
X215719Y271994D01*
X215645Y272060D01*
X215567Y272124D01*
X215488Y272184D01*
X215406Y272241D01*
X215322Y272295D01*
X215236Y272345D01*
X215148Y272392D01*
X215058Y272436D01*
X214967Y272476D01*
X214874Y272512D01*
X214780Y272545D01*
X214684Y272574D01*
X214588Y272599D01*
X214491Y272620D01*
X214392Y272638D01*
X214294Y272651D01*
X214194Y272661D01*
X214095Y272667D01*
X213995Y272669D01*
X211455Y272669D01*
X206973Y270129D02*
X203798Y272669D01*
X203798Y261239D01*
X206973Y261239D02*
X200623Y261239D01*
X210693Y278765D02*
X210693Y281305D01*
X210693Y278765D02*
X210695Y278665D01*
X210701Y278566D01*
X210711Y278466D01*
X210724Y278368D01*
X210742Y278269D01*
X210763Y278172D01*
X210788Y278076D01*
X210817Y277980D01*
X210850Y277886D01*
X210886Y277793D01*
X210926Y277702D01*
X210970Y277612D01*
X211017Y277524D01*
X211067Y277438D01*
X211121Y277354D01*
X211178Y277272D01*
X211238Y277193D01*
X211302Y277115D01*
X211368Y277041D01*
X211437Y276969D01*
X211509Y276900D01*
X211583Y276834D01*
X211661Y276770D01*
X211740Y276710D01*
X211822Y276653D01*
X211906Y276599D01*
X211992Y276549D01*
X212080Y276502D01*
X212170Y276458D01*
X212261Y276418D01*
X212354Y276382D01*
X212448Y276349D01*
X212544Y276320D01*
X212640Y276295D01*
X212737Y276274D01*
X212836Y276256D01*
X212934Y276243D01*
X213034Y276233D01*
X213133Y276227D01*
X213233Y276225D01*
X219583Y276225D01*
X219683Y276227D01*
X219782Y276233D01*
X219882Y276243D01*
X219980Y276256D01*
X220079Y276274D01*
X220176Y276295D01*
X220272Y276320D01*
X220368Y276349D01*
X220462Y276382D01*
X220555Y276418D01*
X220646Y276458D01*
X220736Y276502D01*
X220824Y276549D01*
X220910Y276599D01*
X220994Y276653D01*
X221076Y276710D01*
X221155Y276770D01*
X221233Y276834D01*
X221307Y276900D01*
X221379Y276969D01*
X221448Y277041D01*
X221514Y277115D01*
X221578Y277193D01*
X221638Y277272D01*
X221695Y277354D01*
X221749Y277438D01*
X221799Y277524D01*
X221846Y277612D01*
X221890Y277702D01*
X221930Y277793D01*
X221966Y277886D01*
X221999Y277980D01*
X222028Y278076D01*
X222053Y278172D01*
X222074Y278269D01*
X222092Y278368D01*
X222105Y278466D01*
X222115Y278566D01*
X222121Y278665D01*
X222123Y278765D01*
X222123Y281305D01*
X222124Y289280D02*
X222122Y289384D01*
X222116Y289489D01*
X222107Y289593D01*
X222094Y289696D01*
X222076Y289799D01*
X222056Y289901D01*
X222031Y290003D01*
X222003Y290103D01*
X221971Y290203D01*
X221935Y290301D01*
X221896Y290398D01*
X221854Y290493D01*
X221808Y290587D01*
X221758Y290679D01*
X221706Y290769D01*
X221650Y290857D01*
X221590Y290943D01*
X221528Y291027D01*
X221463Y291108D01*
X221395Y291187D01*
X221323Y291264D01*
X221250Y291337D01*
X221173Y291409D01*
X221094Y291477D01*
X221013Y291542D01*
X220929Y291604D01*
X220843Y291664D01*
X220755Y291720D01*
X220665Y291772D01*
X220573Y291822D01*
X220479Y291868D01*
X220384Y291910D01*
X220287Y291949D01*
X220189Y291985D01*
X220089Y292017D01*
X219989Y292045D01*
X219887Y292070D01*
X219785Y292090D01*
X219682Y292108D01*
X219579Y292121D01*
X219475Y292130D01*
X219370Y292136D01*
X219266Y292138D01*
X222123Y289280D02*
X222121Y289162D01*
X222115Y289043D01*
X222106Y288925D01*
X222093Y288808D01*
X222075Y288691D01*
X222055Y288574D01*
X222030Y288458D01*
X222002Y288343D01*
X221969Y288230D01*
X221934Y288117D01*
X221894Y288005D01*
X221852Y287895D01*
X221805Y287786D01*
X221755Y287678D01*
X221702Y287573D01*
X221645Y287469D01*
X221585Y287367D01*
X221522Y287267D01*
X221455Y287169D01*
X221386Y287073D01*
X221313Y286980D01*
X221237Y286889D01*
X221159Y286800D01*
X221077Y286714D01*
X220993Y286631D01*
X220907Y286550D01*
X220817Y286473D01*
X220726Y286398D01*
X220632Y286326D01*
X220535Y286257D01*
X220437Y286192D01*
X220336Y286129D01*
X220233Y286070D01*
X220129Y286014D01*
X220023Y285962D01*
X219915Y285913D01*
X219806Y285868D01*
X219695Y285826D01*
X219583Y285788D01*
X217044Y291185D02*
X217119Y291261D01*
X217198Y291336D01*
X217279Y291407D01*
X217363Y291476D01*
X217449Y291541D01*
X217537Y291603D01*
X217627Y291663D01*
X217719Y291719D01*
X217814Y291772D01*
X217910Y291821D01*
X218008Y291867D01*
X218107Y291910D01*
X218208Y291949D01*
X218310Y291984D01*
X218413Y292016D01*
X218517Y292044D01*
X218622Y292069D01*
X218729Y292090D01*
X218835Y292107D01*
X218942Y292120D01*
X219050Y292129D01*
X219158Y292135D01*
X219266Y292137D01*
X217043Y291185D02*
X210693Y285787D01*
X210693Y292137D01*
X278765Y203835D02*
X281305Y203835D01*
X281405Y203837D01*
X281504Y203843D01*
X281604Y203853D01*
X281702Y203866D01*
X281801Y203884D01*
X281898Y203905D01*
X281994Y203930D01*
X282090Y203959D01*
X282184Y203992D01*
X282277Y204028D01*
X282368Y204068D01*
X282458Y204112D01*
X282546Y204159D01*
X282632Y204209D01*
X282716Y204263D01*
X282798Y204320D01*
X282877Y204380D01*
X282955Y204444D01*
X283029Y204510D01*
X283101Y204579D01*
X283170Y204651D01*
X283236Y204725D01*
X283300Y204803D01*
X283360Y204882D01*
X283417Y204964D01*
X283471Y205048D01*
X283521Y205134D01*
X283568Y205222D01*
X283612Y205312D01*
X283652Y205403D01*
X283688Y205496D01*
X283721Y205590D01*
X283750Y205686D01*
X283775Y205782D01*
X283796Y205879D01*
X283814Y205978D01*
X283827Y206076D01*
X283837Y206176D01*
X283843Y206275D01*
X283845Y206375D01*
X283845Y212725D01*
X283843Y212825D01*
X283837Y212924D01*
X283827Y213024D01*
X283814Y213122D01*
X283796Y213221D01*
X283775Y213318D01*
X283750Y213414D01*
X283721Y213510D01*
X283688Y213604D01*
X283652Y213697D01*
X283612Y213788D01*
X283568Y213878D01*
X283521Y213966D01*
X283471Y214052D01*
X283417Y214136D01*
X283360Y214218D01*
X283300Y214297D01*
X283236Y214375D01*
X283170Y214449D01*
X283101Y214521D01*
X283029Y214590D01*
X282955Y214656D01*
X282877Y214720D01*
X282798Y214780D01*
X282716Y214837D01*
X282632Y214891D01*
X282546Y214941D01*
X282458Y214988D01*
X282368Y215032D01*
X282277Y215072D01*
X282184Y215108D01*
X282090Y215141D01*
X281994Y215170D01*
X281898Y215195D01*
X281801Y215216D01*
X281702Y215234D01*
X281604Y215247D01*
X281504Y215257D01*
X281405Y215263D01*
X281305Y215265D01*
X278765Y215265D01*
X274283Y203835D02*
X271108Y203835D01*
X270997Y203837D01*
X270887Y203843D01*
X270776Y203852D01*
X270666Y203866D01*
X270557Y203883D01*
X270448Y203904D01*
X270340Y203929D01*
X270233Y203958D01*
X270127Y203990D01*
X270022Y204026D01*
X269919Y204066D01*
X269817Y204109D01*
X269716Y204156D01*
X269617Y204207D01*
X269521Y204260D01*
X269426Y204317D01*
X269333Y204378D01*
X269242Y204441D01*
X269153Y204508D01*
X269067Y204578D01*
X268984Y204651D01*
X268902Y204726D01*
X268824Y204804D01*
X268749Y204886D01*
X268676Y204969D01*
X268606Y205055D01*
X268539Y205144D01*
X268476Y205235D01*
X268415Y205328D01*
X268358Y205423D01*
X268305Y205519D01*
X268254Y205618D01*
X268207Y205719D01*
X268164Y205821D01*
X268124Y205924D01*
X268088Y206029D01*
X268056Y206135D01*
X268027Y206242D01*
X268002Y206350D01*
X267981Y206459D01*
X267964Y206568D01*
X267950Y206678D01*
X267941Y206789D01*
X267935Y206899D01*
X267933Y207010D01*
X267935Y207121D01*
X267941Y207231D01*
X267950Y207342D01*
X267964Y207452D01*
X267981Y207561D01*
X268002Y207670D01*
X268027Y207778D01*
X268056Y207885D01*
X268088Y207991D01*
X268124Y208096D01*
X268164Y208199D01*
X268207Y208301D01*
X268254Y208402D01*
X268305Y208501D01*
X268358Y208598D01*
X268415Y208692D01*
X268476Y208785D01*
X268539Y208876D01*
X268606Y208965D01*
X268676Y209051D01*
X268749Y209134D01*
X268824Y209216D01*
X268902Y209294D01*
X268984Y209369D01*
X269067Y209442D01*
X269153Y209512D01*
X269242Y209579D01*
X269333Y209642D01*
X269426Y209703D01*
X269521Y209760D01*
X269617Y209813D01*
X269716Y209864D01*
X269817Y209911D01*
X269919Y209954D01*
X270022Y209994D01*
X270127Y210030D01*
X270233Y210062D01*
X270340Y210091D01*
X270448Y210116D01*
X270557Y210137D01*
X270666Y210154D01*
X270776Y210168D01*
X270887Y210177D01*
X270997Y210183D01*
X271108Y210185D01*
X270473Y215265D02*
X274283Y215265D01*
X270473Y215265D02*
X270373Y215263D01*
X270274Y215257D01*
X270174Y215247D01*
X270076Y215234D01*
X269977Y215216D01*
X269880Y215195D01*
X269784Y215170D01*
X269688Y215141D01*
X269594Y215108D01*
X269501Y215072D01*
X269410Y215032D01*
X269320Y214988D01*
X269232Y214941D01*
X269146Y214891D01*
X269062Y214837D01*
X268980Y214780D01*
X268901Y214720D01*
X268823Y214656D01*
X268749Y214590D01*
X268677Y214521D01*
X268608Y214449D01*
X268542Y214375D01*
X268478Y214297D01*
X268418Y214218D01*
X268361Y214136D01*
X268307Y214052D01*
X268257Y213966D01*
X268210Y213878D01*
X268166Y213788D01*
X268126Y213697D01*
X268090Y213604D01*
X268057Y213510D01*
X268028Y213414D01*
X268003Y213318D01*
X267982Y213221D01*
X267964Y213122D01*
X267951Y213024D01*
X267941Y212924D01*
X267935Y212825D01*
X267933Y212725D01*
X267935Y212625D01*
X267941Y212526D01*
X267951Y212426D01*
X267964Y212328D01*
X267982Y212229D01*
X268003Y212132D01*
X268028Y212036D01*
X268057Y211940D01*
X268090Y211846D01*
X268126Y211753D01*
X268166Y211662D01*
X268210Y211572D01*
X268257Y211484D01*
X268307Y211398D01*
X268361Y211314D01*
X268418Y211232D01*
X268478Y211153D01*
X268542Y211075D01*
X268608Y211001D01*
X268677Y210929D01*
X268749Y210860D01*
X268823Y210794D01*
X268901Y210730D01*
X268980Y210670D01*
X269062Y210613D01*
X269146Y210559D01*
X269232Y210509D01*
X269320Y210462D01*
X269410Y210418D01*
X269501Y210378D01*
X269594Y210342D01*
X269688Y210309D01*
X269784Y210280D01*
X269880Y210255D01*
X269977Y210234D01*
X270076Y210216D01*
X270174Y210203D01*
X270274Y210193D01*
X270373Y210187D01*
X270473Y210185D01*
X273013Y210185D01*
M02*
