G04 EAGLE Gerber RS-274X export*
G75*
%MOMM*%
%FSLAX34Y34*%
%LPD*%
%INSilkscreen Bottom*%
%IPPOS*%
%AMOC8*
5,1,8,0,0,1.08239X$1,22.5*%
G01*
%ADD10C,0.152400*%
%ADD11C,0.076200*%
%ADD12C,0.101600*%
%ADD13C,0.127000*%


D10*
X193294Y254226D02*
X182457Y254226D01*
X187875Y248807D02*
X187875Y259644D01*
X172262Y198399D02*
X172262Y187562D01*
X172262Y205278D02*
X172262Y216115D01*
D11*
X302600Y294717D02*
X311998Y291584D01*
X311998Y297850D02*
X302600Y294717D01*
X302252Y249877D02*
X311650Y246745D01*
X311650Y253010D02*
X302252Y249877D01*
X302252Y256773D02*
X311650Y256773D01*
X311650Y259383D01*
X311651Y259383D02*
X311649Y259484D01*
X311643Y259585D01*
X311633Y259686D01*
X311620Y259786D01*
X311602Y259886D01*
X311581Y259985D01*
X311555Y260083D01*
X311526Y260180D01*
X311494Y260276D01*
X311457Y260370D01*
X311417Y260463D01*
X311373Y260555D01*
X311326Y260644D01*
X311275Y260732D01*
X311221Y260818D01*
X311164Y260901D01*
X311104Y260983D01*
X311040Y261061D01*
X310974Y261138D01*
X310904Y261211D01*
X310832Y261282D01*
X310757Y261350D01*
X310679Y261415D01*
X310599Y261477D01*
X310517Y261536D01*
X310432Y261592D01*
X310346Y261644D01*
X310257Y261693D01*
X310166Y261739D01*
X310074Y261780D01*
X309980Y261819D01*
X309885Y261853D01*
X309789Y261884D01*
X309691Y261911D01*
X309593Y261935D01*
X309493Y261954D01*
X309393Y261970D01*
X309293Y261982D01*
X309192Y261990D01*
X309091Y261994D01*
X308989Y261994D01*
X308888Y261990D01*
X308787Y261982D01*
X308687Y261970D01*
X308587Y261954D01*
X308487Y261935D01*
X308389Y261911D01*
X308291Y261884D01*
X308195Y261853D01*
X308100Y261819D01*
X308006Y261780D01*
X307914Y261739D01*
X307823Y261693D01*
X307735Y261644D01*
X307648Y261592D01*
X307563Y261536D01*
X307481Y261477D01*
X307401Y261415D01*
X307323Y261350D01*
X307248Y261282D01*
X307176Y261211D01*
X307106Y261138D01*
X307040Y261061D01*
X306976Y260983D01*
X306916Y260901D01*
X306859Y260818D01*
X306805Y260732D01*
X306754Y260644D01*
X306707Y260555D01*
X306663Y260463D01*
X306623Y260370D01*
X306586Y260276D01*
X306554Y260180D01*
X306525Y260083D01*
X306499Y259985D01*
X306478Y259886D01*
X306460Y259786D01*
X306447Y259686D01*
X306437Y259585D01*
X306431Y259484D01*
X306429Y259383D01*
X306429Y256773D01*
X306429Y259905D02*
X302252Y261994D01*
X302252Y266182D02*
X302252Y270359D01*
X302252Y266182D02*
X311650Y266182D01*
X311650Y270359D01*
X307473Y269314D02*
X307473Y266182D01*
X311650Y274106D02*
X302252Y274106D01*
X311650Y274106D02*
X311650Y278283D01*
X307473Y278283D02*
X307473Y274106D01*
X307876Y235403D02*
X307876Y233836D01*
X307876Y235403D02*
X302655Y235403D01*
X302655Y232270D01*
X302656Y232270D02*
X302658Y232181D01*
X302664Y232093D01*
X302673Y232005D01*
X302686Y231917D01*
X302703Y231830D01*
X302723Y231744D01*
X302748Y231659D01*
X302775Y231574D01*
X302807Y231491D01*
X302841Y231410D01*
X302880Y231330D01*
X302921Y231252D01*
X302966Y231175D01*
X303014Y231101D01*
X303065Y231028D01*
X303119Y230958D01*
X303177Y230891D01*
X303237Y230825D01*
X303299Y230763D01*
X303365Y230703D01*
X303432Y230645D01*
X303502Y230591D01*
X303575Y230540D01*
X303649Y230492D01*
X303726Y230447D01*
X303804Y230406D01*
X303884Y230367D01*
X303965Y230333D01*
X304048Y230301D01*
X304133Y230274D01*
X304218Y230249D01*
X304304Y230229D01*
X304391Y230212D01*
X304479Y230199D01*
X304567Y230190D01*
X304655Y230184D01*
X304744Y230182D01*
X309965Y230182D01*
X310056Y230184D01*
X310147Y230190D01*
X310238Y230200D01*
X310328Y230214D01*
X310417Y230231D01*
X310505Y230253D01*
X310593Y230279D01*
X310679Y230308D01*
X310764Y230341D01*
X310847Y230378D01*
X310929Y230418D01*
X311009Y230462D01*
X311087Y230509D01*
X311163Y230560D01*
X311236Y230613D01*
X311307Y230670D01*
X311376Y230731D01*
X311441Y230794D01*
X311504Y230859D01*
X311564Y230928D01*
X311622Y230999D01*
X311675Y231072D01*
X311726Y231148D01*
X311773Y231226D01*
X311817Y231306D01*
X311857Y231388D01*
X311894Y231471D01*
X311927Y231556D01*
X311956Y231642D01*
X311982Y231730D01*
X312004Y231818D01*
X312021Y231907D01*
X312035Y231997D01*
X312045Y232088D01*
X312051Y232179D01*
X312053Y232270D01*
X312053Y235403D01*
X311646Y210693D02*
X302248Y207560D01*
X302248Y213826D02*
X311646Y210693D01*
X304598Y213042D02*
X304598Y208343D01*
X305903Y217314D02*
X305903Y223579D01*
X302770Y220447D02*
X309036Y220447D01*
D12*
X214957Y228854D02*
X214957Y237744D01*
X212487Y237744D01*
X212389Y237742D01*
X212291Y237736D01*
X212193Y237726D01*
X212096Y237713D01*
X211999Y237695D01*
X211903Y237674D01*
X211809Y237649D01*
X211715Y237620D01*
X211622Y237588D01*
X211531Y237551D01*
X211441Y237512D01*
X211353Y237468D01*
X211267Y237421D01*
X211182Y237371D01*
X211100Y237318D01*
X211020Y237261D01*
X210942Y237201D01*
X210867Y237138D01*
X210794Y237072D01*
X210724Y237003D01*
X210657Y236932D01*
X210592Y236858D01*
X210531Y236781D01*
X210472Y236702D01*
X210417Y236621D01*
X210365Y236538D01*
X210317Y236452D01*
X210272Y236365D01*
X210230Y236276D01*
X210192Y236186D01*
X210158Y236094D01*
X210127Y236001D01*
X210100Y235906D01*
X210077Y235811D01*
X210057Y235714D01*
X210042Y235618D01*
X210030Y235520D01*
X210022Y235422D01*
X210018Y235324D01*
X210018Y235226D01*
X210022Y235128D01*
X210030Y235030D01*
X210042Y234932D01*
X210057Y234836D01*
X210077Y234739D01*
X210100Y234644D01*
X210127Y234549D01*
X210158Y234456D01*
X210192Y234364D01*
X210230Y234274D01*
X210272Y234185D01*
X210317Y234098D01*
X210365Y234012D01*
X210417Y233929D01*
X210472Y233848D01*
X210531Y233769D01*
X210592Y233692D01*
X210657Y233618D01*
X210724Y233547D01*
X210794Y233478D01*
X210867Y233412D01*
X210942Y233349D01*
X211020Y233289D01*
X211100Y233232D01*
X211182Y233179D01*
X211267Y233129D01*
X211353Y233082D01*
X211441Y233038D01*
X211531Y232999D01*
X211622Y232962D01*
X211715Y232930D01*
X211809Y232901D01*
X211903Y232876D01*
X211999Y232855D01*
X212096Y232837D01*
X212193Y232824D01*
X212291Y232814D01*
X212389Y232808D01*
X212487Y232806D01*
X212487Y232805D02*
X214957Y232805D01*
X211993Y232805D02*
X210018Y228854D01*
X206107Y235768D02*
X203637Y237744D01*
X203637Y228854D01*
X201168Y228854D02*
X206107Y228854D01*
X253311Y215138D02*
X253311Y206248D01*
X253311Y215138D02*
X250841Y215138D01*
X250743Y215136D01*
X250645Y215130D01*
X250547Y215120D01*
X250450Y215107D01*
X250353Y215089D01*
X250257Y215068D01*
X250163Y215043D01*
X250069Y215014D01*
X249976Y214982D01*
X249885Y214945D01*
X249795Y214906D01*
X249707Y214862D01*
X249621Y214815D01*
X249536Y214765D01*
X249454Y214712D01*
X249374Y214655D01*
X249296Y214595D01*
X249221Y214532D01*
X249148Y214466D01*
X249078Y214397D01*
X249011Y214326D01*
X248946Y214252D01*
X248885Y214175D01*
X248826Y214096D01*
X248771Y214015D01*
X248719Y213932D01*
X248671Y213846D01*
X248626Y213759D01*
X248584Y213670D01*
X248546Y213580D01*
X248512Y213488D01*
X248481Y213395D01*
X248454Y213300D01*
X248431Y213205D01*
X248411Y213108D01*
X248396Y213012D01*
X248384Y212914D01*
X248376Y212816D01*
X248372Y212718D01*
X248372Y212620D01*
X248376Y212522D01*
X248384Y212424D01*
X248396Y212326D01*
X248411Y212230D01*
X248431Y212133D01*
X248454Y212038D01*
X248481Y211943D01*
X248512Y211850D01*
X248546Y211758D01*
X248584Y211668D01*
X248626Y211579D01*
X248671Y211492D01*
X248719Y211406D01*
X248771Y211323D01*
X248826Y211242D01*
X248885Y211163D01*
X248946Y211086D01*
X249011Y211012D01*
X249078Y210941D01*
X249148Y210872D01*
X249221Y210806D01*
X249296Y210743D01*
X249374Y210683D01*
X249454Y210626D01*
X249536Y210573D01*
X249621Y210523D01*
X249707Y210476D01*
X249795Y210432D01*
X249885Y210393D01*
X249976Y210356D01*
X250069Y210324D01*
X250163Y210295D01*
X250257Y210270D01*
X250353Y210249D01*
X250450Y210231D01*
X250547Y210218D01*
X250645Y210208D01*
X250743Y210202D01*
X250841Y210200D01*
X250841Y210199D02*
X253311Y210199D01*
X250347Y210199D02*
X248372Y206248D01*
X239522Y212916D02*
X239524Y213008D01*
X239530Y213100D01*
X239539Y213191D01*
X239552Y213282D01*
X239569Y213372D01*
X239590Y213462D01*
X239614Y213550D01*
X239642Y213638D01*
X239674Y213724D01*
X239709Y213809D01*
X239748Y213892D01*
X239790Y213974D01*
X239835Y214054D01*
X239884Y214132D01*
X239936Y214208D01*
X239991Y214281D01*
X240049Y214353D01*
X240109Y214422D01*
X240173Y214488D01*
X240239Y214552D01*
X240308Y214612D01*
X240380Y214670D01*
X240453Y214725D01*
X240529Y214777D01*
X240607Y214826D01*
X240687Y214871D01*
X240769Y214913D01*
X240852Y214952D01*
X240937Y214987D01*
X241023Y215019D01*
X241111Y215047D01*
X241199Y215071D01*
X241289Y215092D01*
X241379Y215109D01*
X241470Y215122D01*
X241561Y215131D01*
X241653Y215137D01*
X241745Y215139D01*
X241745Y215138D02*
X241851Y215136D01*
X241956Y215130D01*
X242061Y215120D01*
X242166Y215107D01*
X242270Y215089D01*
X242373Y215068D01*
X242476Y215043D01*
X242578Y215014D01*
X242678Y214981D01*
X242777Y214945D01*
X242875Y214905D01*
X242971Y214861D01*
X243066Y214814D01*
X243158Y214764D01*
X243249Y214710D01*
X243338Y214652D01*
X243424Y214592D01*
X243508Y214528D01*
X243590Y214462D01*
X243670Y214392D01*
X243746Y214319D01*
X243820Y214244D01*
X243891Y214166D01*
X243959Y214085D01*
X244025Y214002D01*
X244087Y213916D01*
X244145Y213829D01*
X244201Y213739D01*
X244253Y213647D01*
X244302Y213553D01*
X244347Y213458D01*
X244389Y213361D01*
X244427Y213262D01*
X244461Y213163D01*
X240263Y211187D02*
X240194Y211256D01*
X240128Y211326D01*
X240065Y211400D01*
X240006Y211476D01*
X239949Y211554D01*
X239895Y211634D01*
X239845Y211717D01*
X239798Y211801D01*
X239755Y211888D01*
X239715Y211976D01*
X239679Y212065D01*
X239646Y212156D01*
X239617Y212248D01*
X239592Y212342D01*
X239571Y212436D01*
X239553Y212531D01*
X239540Y212627D01*
X239530Y212723D01*
X239524Y212819D01*
X239522Y212916D01*
X240263Y211187D02*
X244461Y206248D01*
X239522Y206248D01*
X231394Y206248D02*
X231394Y215138D01*
X228925Y215138D01*
X228827Y215136D01*
X228729Y215130D01*
X228631Y215120D01*
X228534Y215107D01*
X228437Y215089D01*
X228341Y215068D01*
X228247Y215043D01*
X228153Y215014D01*
X228060Y214982D01*
X227969Y214945D01*
X227879Y214906D01*
X227791Y214862D01*
X227705Y214815D01*
X227620Y214765D01*
X227538Y214712D01*
X227458Y214655D01*
X227380Y214595D01*
X227305Y214532D01*
X227232Y214466D01*
X227162Y214397D01*
X227095Y214326D01*
X227030Y214252D01*
X226969Y214175D01*
X226910Y214096D01*
X226855Y214015D01*
X226803Y213932D01*
X226755Y213846D01*
X226710Y213759D01*
X226668Y213670D01*
X226630Y213580D01*
X226596Y213488D01*
X226565Y213395D01*
X226538Y213300D01*
X226515Y213205D01*
X226495Y213108D01*
X226480Y213012D01*
X226468Y212914D01*
X226460Y212816D01*
X226456Y212718D01*
X226456Y212620D01*
X226460Y212522D01*
X226468Y212424D01*
X226480Y212326D01*
X226495Y212230D01*
X226515Y212133D01*
X226538Y212038D01*
X226565Y211943D01*
X226596Y211850D01*
X226630Y211758D01*
X226668Y211668D01*
X226710Y211579D01*
X226755Y211492D01*
X226803Y211406D01*
X226855Y211323D01*
X226910Y211242D01*
X226969Y211163D01*
X227030Y211086D01*
X227095Y211012D01*
X227162Y210941D01*
X227232Y210872D01*
X227305Y210806D01*
X227380Y210743D01*
X227458Y210683D01*
X227538Y210626D01*
X227620Y210573D01*
X227705Y210523D01*
X227791Y210476D01*
X227879Y210432D01*
X227969Y210393D01*
X228060Y210356D01*
X228153Y210324D01*
X228247Y210295D01*
X228341Y210270D01*
X228437Y210249D01*
X228534Y210231D01*
X228631Y210218D01*
X228729Y210208D01*
X228827Y210202D01*
X228925Y210200D01*
X228925Y210199D02*
X231394Y210199D01*
X228431Y210199D02*
X226455Y206248D01*
X222544Y206248D02*
X220075Y206248D01*
X219977Y206250D01*
X219879Y206256D01*
X219781Y206266D01*
X219684Y206279D01*
X219587Y206297D01*
X219491Y206318D01*
X219397Y206343D01*
X219303Y206372D01*
X219210Y206404D01*
X219119Y206441D01*
X219029Y206480D01*
X218941Y206524D01*
X218855Y206571D01*
X218770Y206621D01*
X218688Y206674D01*
X218608Y206731D01*
X218530Y206791D01*
X218455Y206854D01*
X218382Y206920D01*
X218312Y206989D01*
X218245Y207060D01*
X218180Y207134D01*
X218119Y207211D01*
X218060Y207290D01*
X218005Y207371D01*
X217953Y207454D01*
X217905Y207540D01*
X217860Y207627D01*
X217818Y207716D01*
X217780Y207806D01*
X217746Y207898D01*
X217715Y207991D01*
X217688Y208086D01*
X217665Y208181D01*
X217645Y208278D01*
X217630Y208374D01*
X217618Y208472D01*
X217610Y208570D01*
X217606Y208668D01*
X217606Y208766D01*
X217610Y208864D01*
X217618Y208962D01*
X217630Y209060D01*
X217645Y209156D01*
X217665Y209253D01*
X217688Y209348D01*
X217715Y209443D01*
X217746Y209536D01*
X217780Y209628D01*
X217818Y209718D01*
X217860Y209807D01*
X217905Y209894D01*
X217953Y209980D01*
X218005Y210063D01*
X218060Y210144D01*
X218119Y210223D01*
X218180Y210300D01*
X218245Y210374D01*
X218312Y210445D01*
X218382Y210514D01*
X218455Y210580D01*
X218530Y210643D01*
X218608Y210703D01*
X218688Y210760D01*
X218770Y210813D01*
X218855Y210863D01*
X218941Y210910D01*
X219029Y210954D01*
X219119Y210993D01*
X219210Y211030D01*
X219303Y211062D01*
X219397Y211091D01*
X219491Y211116D01*
X219587Y211137D01*
X219684Y211155D01*
X219781Y211168D01*
X219879Y211178D01*
X219977Y211184D01*
X220075Y211186D01*
X219581Y215138D02*
X222544Y215138D01*
X219581Y215138D02*
X219494Y215136D01*
X219406Y215130D01*
X219319Y215121D01*
X219233Y215107D01*
X219147Y215090D01*
X219063Y215069D01*
X218979Y215044D01*
X218896Y215015D01*
X218815Y214983D01*
X218735Y214948D01*
X218657Y214909D01*
X218580Y214866D01*
X218506Y214820D01*
X218434Y214771D01*
X218364Y214719D01*
X218296Y214663D01*
X218231Y214605D01*
X218168Y214544D01*
X218109Y214480D01*
X218052Y214413D01*
X217998Y214345D01*
X217947Y214273D01*
X217900Y214200D01*
X217855Y214125D01*
X217814Y214047D01*
X217777Y213968D01*
X217743Y213888D01*
X217713Y213806D01*
X217686Y213723D01*
X217663Y213638D01*
X217644Y213553D01*
X217629Y213467D01*
X217617Y213380D01*
X217609Y213293D01*
X217605Y213206D01*
X217605Y213118D01*
X217609Y213031D01*
X217617Y212944D01*
X217629Y212857D01*
X217644Y212771D01*
X217663Y212686D01*
X217686Y212601D01*
X217713Y212518D01*
X217743Y212436D01*
X217777Y212356D01*
X217814Y212277D01*
X217855Y212199D01*
X217900Y212124D01*
X217947Y212051D01*
X217998Y211979D01*
X218052Y211911D01*
X218109Y211844D01*
X218168Y211780D01*
X218231Y211719D01*
X218296Y211661D01*
X218364Y211605D01*
X218434Y211553D01*
X218506Y211504D01*
X218580Y211458D01*
X218657Y211415D01*
X218735Y211376D01*
X218815Y211341D01*
X218896Y211309D01*
X218979Y211280D01*
X219063Y211255D01*
X219147Y211234D01*
X219233Y211217D01*
X219319Y211203D01*
X219406Y211194D01*
X219494Y211188D01*
X219581Y211186D01*
X219581Y211187D02*
X221556Y211187D01*
X214703Y239522D02*
X214703Y248412D01*
X212233Y248412D01*
X212135Y248410D01*
X212037Y248404D01*
X211939Y248394D01*
X211842Y248381D01*
X211745Y248363D01*
X211649Y248342D01*
X211555Y248317D01*
X211461Y248288D01*
X211368Y248256D01*
X211277Y248219D01*
X211187Y248180D01*
X211099Y248136D01*
X211013Y248089D01*
X210928Y248039D01*
X210846Y247986D01*
X210766Y247929D01*
X210688Y247869D01*
X210613Y247806D01*
X210540Y247740D01*
X210470Y247671D01*
X210403Y247600D01*
X210338Y247526D01*
X210277Y247449D01*
X210218Y247370D01*
X210163Y247289D01*
X210111Y247206D01*
X210063Y247120D01*
X210018Y247033D01*
X209976Y246944D01*
X209938Y246854D01*
X209904Y246762D01*
X209873Y246669D01*
X209846Y246574D01*
X209823Y246479D01*
X209803Y246382D01*
X209788Y246286D01*
X209776Y246188D01*
X209768Y246090D01*
X209764Y245992D01*
X209764Y245894D01*
X209768Y245796D01*
X209776Y245698D01*
X209788Y245600D01*
X209803Y245504D01*
X209823Y245407D01*
X209846Y245312D01*
X209873Y245217D01*
X209904Y245124D01*
X209938Y245032D01*
X209976Y244942D01*
X210018Y244853D01*
X210063Y244766D01*
X210111Y244680D01*
X210163Y244597D01*
X210218Y244516D01*
X210277Y244437D01*
X210338Y244360D01*
X210403Y244286D01*
X210470Y244215D01*
X210540Y244146D01*
X210613Y244080D01*
X210688Y244017D01*
X210766Y243957D01*
X210846Y243900D01*
X210928Y243847D01*
X211013Y243797D01*
X211099Y243750D01*
X211187Y243706D01*
X211277Y243667D01*
X211368Y243630D01*
X211461Y243598D01*
X211555Y243569D01*
X211649Y243544D01*
X211745Y243523D01*
X211842Y243505D01*
X211939Y243492D01*
X212037Y243482D01*
X212135Y243476D01*
X212233Y243474D01*
X212233Y243473D02*
X214703Y243473D01*
X211739Y243473D02*
X209764Y239522D01*
X205853Y241498D02*
X203877Y248412D01*
X205853Y241498D02*
X200914Y241498D01*
X202396Y243473D02*
X202396Y239522D01*
X293443Y292354D02*
X293443Y301244D01*
X290973Y301244D01*
X290875Y301242D01*
X290777Y301236D01*
X290679Y301226D01*
X290582Y301213D01*
X290485Y301195D01*
X290389Y301174D01*
X290295Y301149D01*
X290201Y301120D01*
X290108Y301088D01*
X290017Y301051D01*
X289927Y301012D01*
X289839Y300968D01*
X289753Y300921D01*
X289668Y300871D01*
X289586Y300818D01*
X289506Y300761D01*
X289428Y300701D01*
X289353Y300638D01*
X289280Y300572D01*
X289210Y300503D01*
X289143Y300432D01*
X289078Y300358D01*
X289017Y300281D01*
X288958Y300202D01*
X288903Y300121D01*
X288851Y300038D01*
X288803Y299952D01*
X288758Y299865D01*
X288716Y299776D01*
X288678Y299686D01*
X288644Y299594D01*
X288613Y299501D01*
X288586Y299406D01*
X288563Y299311D01*
X288543Y299214D01*
X288528Y299118D01*
X288516Y299020D01*
X288508Y298922D01*
X288504Y298824D01*
X288504Y298726D01*
X288508Y298628D01*
X288516Y298530D01*
X288528Y298432D01*
X288543Y298336D01*
X288563Y298239D01*
X288586Y298144D01*
X288613Y298049D01*
X288644Y297956D01*
X288678Y297864D01*
X288716Y297774D01*
X288758Y297685D01*
X288803Y297598D01*
X288851Y297512D01*
X288903Y297429D01*
X288958Y297348D01*
X289017Y297269D01*
X289078Y297192D01*
X289143Y297118D01*
X289210Y297047D01*
X289280Y296978D01*
X289353Y296912D01*
X289428Y296849D01*
X289506Y296789D01*
X289586Y296732D01*
X289668Y296679D01*
X289753Y296629D01*
X289839Y296582D01*
X289927Y296538D01*
X290017Y296499D01*
X290108Y296462D01*
X290201Y296430D01*
X290295Y296401D01*
X290389Y296376D01*
X290485Y296355D01*
X290582Y296337D01*
X290679Y296324D01*
X290777Y296314D01*
X290875Y296308D01*
X290973Y296306D01*
X290973Y296305D02*
X293443Y296305D01*
X290479Y296305D02*
X288504Y292354D01*
X284593Y292354D02*
X281630Y292354D01*
X281541Y292356D01*
X281453Y292362D01*
X281365Y292372D01*
X281277Y292386D01*
X281190Y292404D01*
X281104Y292425D01*
X281019Y292451D01*
X280936Y292480D01*
X280853Y292513D01*
X280773Y292550D01*
X280694Y292590D01*
X280617Y292634D01*
X280541Y292681D01*
X280469Y292731D01*
X280398Y292785D01*
X280330Y292842D01*
X280264Y292902D01*
X280202Y292964D01*
X280142Y293030D01*
X280085Y293098D01*
X280031Y293169D01*
X279981Y293241D01*
X279934Y293316D01*
X279890Y293394D01*
X279850Y293473D01*
X279813Y293553D01*
X279780Y293636D01*
X279751Y293719D01*
X279725Y293804D01*
X279704Y293890D01*
X279686Y293977D01*
X279672Y294065D01*
X279662Y294153D01*
X279656Y294241D01*
X279654Y294330D01*
X279654Y295317D01*
X279656Y295403D01*
X279662Y295489D01*
X279671Y295575D01*
X279684Y295660D01*
X279701Y295745D01*
X279721Y295828D01*
X279745Y295911D01*
X279773Y295993D01*
X279804Y296073D01*
X279839Y296152D01*
X279877Y296229D01*
X279919Y296305D01*
X279963Y296379D01*
X280011Y296450D01*
X280062Y296520D01*
X280116Y296587D01*
X280173Y296652D01*
X280233Y296714D01*
X280295Y296774D01*
X280360Y296831D01*
X280427Y296885D01*
X280497Y296936D01*
X280568Y296984D01*
X280642Y297028D01*
X280718Y297070D01*
X280795Y297108D01*
X280874Y297143D01*
X280954Y297174D01*
X281036Y297202D01*
X281119Y297226D01*
X281202Y297246D01*
X281287Y297263D01*
X281372Y297276D01*
X281458Y297285D01*
X281544Y297291D01*
X281630Y297293D01*
X284593Y297293D01*
X284593Y301244D01*
X279654Y301244D01*
X273558Y301244D02*
X273558Y292354D01*
X273558Y301244D02*
X271089Y301244D01*
X270991Y301242D01*
X270893Y301236D01*
X270795Y301226D01*
X270698Y301213D01*
X270601Y301195D01*
X270505Y301174D01*
X270411Y301149D01*
X270317Y301120D01*
X270224Y301088D01*
X270133Y301051D01*
X270043Y301012D01*
X269955Y300968D01*
X269869Y300921D01*
X269784Y300871D01*
X269702Y300818D01*
X269622Y300761D01*
X269544Y300701D01*
X269469Y300638D01*
X269396Y300572D01*
X269326Y300503D01*
X269259Y300432D01*
X269194Y300358D01*
X269133Y300281D01*
X269074Y300202D01*
X269019Y300121D01*
X268967Y300038D01*
X268919Y299952D01*
X268874Y299865D01*
X268832Y299776D01*
X268794Y299686D01*
X268760Y299594D01*
X268729Y299501D01*
X268702Y299406D01*
X268679Y299311D01*
X268659Y299214D01*
X268644Y299118D01*
X268632Y299020D01*
X268624Y298922D01*
X268620Y298824D01*
X268620Y298726D01*
X268624Y298628D01*
X268632Y298530D01*
X268644Y298432D01*
X268659Y298336D01*
X268679Y298239D01*
X268702Y298144D01*
X268729Y298049D01*
X268760Y297956D01*
X268794Y297864D01*
X268832Y297774D01*
X268874Y297685D01*
X268919Y297598D01*
X268967Y297512D01*
X269019Y297429D01*
X269074Y297348D01*
X269133Y297269D01*
X269194Y297192D01*
X269259Y297118D01*
X269326Y297047D01*
X269396Y296978D01*
X269469Y296912D01*
X269544Y296849D01*
X269622Y296789D01*
X269702Y296732D01*
X269784Y296679D01*
X269869Y296629D01*
X269955Y296582D01*
X270043Y296538D01*
X270133Y296499D01*
X270224Y296462D01*
X270317Y296430D01*
X270411Y296401D01*
X270505Y296376D01*
X270601Y296355D01*
X270698Y296337D01*
X270795Y296324D01*
X270893Y296314D01*
X270991Y296308D01*
X271089Y296306D01*
X271089Y296305D02*
X273558Y296305D01*
X270595Y296305D02*
X268619Y292354D01*
X264708Y297293D02*
X261745Y297293D01*
X261659Y297291D01*
X261573Y297285D01*
X261487Y297276D01*
X261402Y297263D01*
X261317Y297246D01*
X261234Y297226D01*
X261151Y297202D01*
X261069Y297174D01*
X260989Y297143D01*
X260910Y297108D01*
X260833Y297070D01*
X260757Y297028D01*
X260683Y296984D01*
X260612Y296936D01*
X260542Y296885D01*
X260475Y296831D01*
X260410Y296774D01*
X260348Y296714D01*
X260288Y296652D01*
X260231Y296587D01*
X260177Y296520D01*
X260126Y296450D01*
X260078Y296379D01*
X260034Y296305D01*
X259992Y296229D01*
X259954Y296152D01*
X259919Y296073D01*
X259888Y295993D01*
X259860Y295911D01*
X259836Y295828D01*
X259816Y295745D01*
X259799Y295660D01*
X259786Y295575D01*
X259777Y295489D01*
X259771Y295403D01*
X259769Y295317D01*
X259769Y294823D01*
X259770Y294823D02*
X259772Y294725D01*
X259778Y294627D01*
X259788Y294529D01*
X259801Y294432D01*
X259819Y294335D01*
X259840Y294239D01*
X259865Y294145D01*
X259894Y294051D01*
X259926Y293958D01*
X259963Y293867D01*
X260002Y293777D01*
X260046Y293689D01*
X260093Y293603D01*
X260143Y293518D01*
X260196Y293436D01*
X260253Y293356D01*
X260313Y293278D01*
X260376Y293203D01*
X260442Y293130D01*
X260511Y293060D01*
X260582Y292993D01*
X260656Y292928D01*
X260733Y292867D01*
X260812Y292808D01*
X260893Y292753D01*
X260976Y292701D01*
X261062Y292653D01*
X261149Y292608D01*
X261238Y292566D01*
X261328Y292528D01*
X261420Y292494D01*
X261513Y292463D01*
X261608Y292436D01*
X261703Y292413D01*
X261800Y292393D01*
X261896Y292378D01*
X261994Y292366D01*
X262092Y292358D01*
X262190Y292354D01*
X262288Y292354D01*
X262386Y292358D01*
X262484Y292366D01*
X262582Y292378D01*
X262678Y292393D01*
X262775Y292413D01*
X262870Y292436D01*
X262965Y292463D01*
X263058Y292494D01*
X263150Y292528D01*
X263240Y292566D01*
X263329Y292608D01*
X263416Y292653D01*
X263502Y292701D01*
X263585Y292753D01*
X263666Y292808D01*
X263745Y292867D01*
X263822Y292928D01*
X263896Y292993D01*
X263967Y293060D01*
X264036Y293130D01*
X264102Y293203D01*
X264165Y293278D01*
X264225Y293356D01*
X264282Y293436D01*
X264335Y293518D01*
X264385Y293603D01*
X264432Y293689D01*
X264476Y293777D01*
X264515Y293867D01*
X264552Y293958D01*
X264584Y294051D01*
X264613Y294145D01*
X264638Y294239D01*
X264659Y294335D01*
X264677Y294432D01*
X264690Y294529D01*
X264700Y294627D01*
X264706Y294725D01*
X264708Y294823D01*
X264708Y297293D01*
X264706Y297417D01*
X264700Y297541D01*
X264690Y297665D01*
X264677Y297788D01*
X264659Y297911D01*
X264638Y298033D01*
X264613Y298155D01*
X264584Y298276D01*
X264551Y298395D01*
X264515Y298514D01*
X264474Y298631D01*
X264431Y298747D01*
X264383Y298862D01*
X264332Y298975D01*
X264277Y299087D01*
X264219Y299196D01*
X264158Y299304D01*
X264093Y299410D01*
X264025Y299514D01*
X263953Y299615D01*
X263879Y299715D01*
X263801Y299811D01*
X263721Y299906D01*
X263637Y299998D01*
X263551Y300087D01*
X263462Y300173D01*
X263370Y300257D01*
X263275Y300337D01*
X263179Y300415D01*
X263079Y300489D01*
X262978Y300561D01*
X262874Y300629D01*
X262768Y300694D01*
X262660Y300755D01*
X262551Y300813D01*
X262439Y300868D01*
X262326Y300919D01*
X262212Y300967D01*
X262095Y301010D01*
X261978Y301051D01*
X261859Y301087D01*
X261740Y301120D01*
X261619Y301149D01*
X261497Y301174D01*
X261375Y301195D01*
X261252Y301213D01*
X261129Y301226D01*
X261005Y301236D01*
X260881Y301242D01*
X260757Y301244D01*
X213433Y260096D02*
X213433Y251206D01*
X213433Y260096D02*
X210963Y260096D01*
X210865Y260094D01*
X210767Y260088D01*
X210669Y260078D01*
X210572Y260065D01*
X210475Y260047D01*
X210379Y260026D01*
X210285Y260001D01*
X210191Y259972D01*
X210098Y259940D01*
X210007Y259903D01*
X209917Y259864D01*
X209829Y259820D01*
X209743Y259773D01*
X209658Y259723D01*
X209576Y259670D01*
X209496Y259613D01*
X209418Y259553D01*
X209343Y259490D01*
X209270Y259424D01*
X209200Y259355D01*
X209133Y259284D01*
X209068Y259210D01*
X209007Y259133D01*
X208948Y259054D01*
X208893Y258973D01*
X208841Y258890D01*
X208793Y258804D01*
X208748Y258717D01*
X208706Y258628D01*
X208668Y258538D01*
X208634Y258446D01*
X208603Y258353D01*
X208576Y258258D01*
X208553Y258163D01*
X208533Y258066D01*
X208518Y257970D01*
X208506Y257872D01*
X208498Y257774D01*
X208494Y257676D01*
X208494Y257578D01*
X208498Y257480D01*
X208506Y257382D01*
X208518Y257284D01*
X208533Y257188D01*
X208553Y257091D01*
X208576Y256996D01*
X208603Y256901D01*
X208634Y256808D01*
X208668Y256716D01*
X208706Y256626D01*
X208748Y256537D01*
X208793Y256450D01*
X208841Y256364D01*
X208893Y256281D01*
X208948Y256200D01*
X209007Y256121D01*
X209068Y256044D01*
X209133Y255970D01*
X209200Y255899D01*
X209270Y255830D01*
X209343Y255764D01*
X209418Y255701D01*
X209496Y255641D01*
X209576Y255584D01*
X209658Y255531D01*
X209743Y255481D01*
X209829Y255434D01*
X209917Y255390D01*
X210007Y255351D01*
X210098Y255314D01*
X210191Y255282D01*
X210285Y255253D01*
X210379Y255228D01*
X210475Y255207D01*
X210572Y255189D01*
X210669Y255176D01*
X210767Y255166D01*
X210865Y255160D01*
X210963Y255158D01*
X210963Y255157D02*
X213433Y255157D01*
X210469Y255157D02*
X208494Y251206D01*
X204583Y259108D02*
X204583Y260096D01*
X199644Y260096D01*
X202113Y251206D01*
X211074Y285931D02*
X219964Y285931D01*
X219964Y288401D01*
X219962Y288499D01*
X219956Y288597D01*
X219946Y288695D01*
X219933Y288792D01*
X219915Y288889D01*
X219894Y288985D01*
X219869Y289079D01*
X219840Y289173D01*
X219808Y289266D01*
X219771Y289357D01*
X219732Y289447D01*
X219688Y289535D01*
X219641Y289621D01*
X219591Y289706D01*
X219538Y289788D01*
X219481Y289868D01*
X219421Y289946D01*
X219358Y290021D01*
X219292Y290094D01*
X219223Y290164D01*
X219152Y290231D01*
X219078Y290296D01*
X219001Y290357D01*
X218922Y290416D01*
X218841Y290471D01*
X218758Y290523D01*
X218672Y290571D01*
X218585Y290616D01*
X218496Y290658D01*
X218406Y290696D01*
X218314Y290730D01*
X218221Y290761D01*
X218126Y290788D01*
X218031Y290811D01*
X217934Y290831D01*
X217838Y290846D01*
X217740Y290858D01*
X217642Y290866D01*
X217544Y290870D01*
X217446Y290870D01*
X217348Y290866D01*
X217250Y290858D01*
X217152Y290846D01*
X217056Y290831D01*
X216959Y290811D01*
X216864Y290788D01*
X216769Y290761D01*
X216676Y290730D01*
X216584Y290696D01*
X216494Y290658D01*
X216405Y290616D01*
X216318Y290571D01*
X216232Y290523D01*
X216149Y290471D01*
X216068Y290416D01*
X215989Y290357D01*
X215912Y290296D01*
X215838Y290231D01*
X215767Y290164D01*
X215698Y290094D01*
X215632Y290021D01*
X215569Y289946D01*
X215509Y289868D01*
X215452Y289788D01*
X215399Y289706D01*
X215349Y289621D01*
X215302Y289535D01*
X215258Y289447D01*
X215219Y289357D01*
X215182Y289266D01*
X215150Y289173D01*
X215121Y289079D01*
X215096Y288985D01*
X215075Y288889D01*
X215057Y288792D01*
X215044Y288695D01*
X215034Y288597D01*
X215028Y288499D01*
X215026Y288401D01*
X215025Y288401D02*
X215025Y285931D01*
X215025Y288895D02*
X211074Y290870D01*
X213543Y294782D02*
X213641Y294784D01*
X213739Y294790D01*
X213837Y294800D01*
X213934Y294813D01*
X214031Y294831D01*
X214127Y294852D01*
X214221Y294877D01*
X214315Y294906D01*
X214408Y294938D01*
X214499Y294975D01*
X214589Y295014D01*
X214677Y295058D01*
X214763Y295105D01*
X214848Y295155D01*
X214930Y295208D01*
X215010Y295265D01*
X215088Y295325D01*
X215163Y295388D01*
X215236Y295454D01*
X215306Y295523D01*
X215373Y295594D01*
X215438Y295668D01*
X215499Y295745D01*
X215558Y295824D01*
X215613Y295905D01*
X215665Y295988D01*
X215713Y296074D01*
X215758Y296161D01*
X215800Y296250D01*
X215838Y296340D01*
X215872Y296432D01*
X215903Y296525D01*
X215930Y296620D01*
X215953Y296715D01*
X215973Y296812D01*
X215988Y296908D01*
X216000Y297006D01*
X216008Y297104D01*
X216012Y297202D01*
X216012Y297300D01*
X216008Y297398D01*
X216000Y297496D01*
X215988Y297594D01*
X215973Y297690D01*
X215953Y297787D01*
X215930Y297882D01*
X215903Y297977D01*
X215872Y298070D01*
X215838Y298162D01*
X215800Y298252D01*
X215758Y298341D01*
X215713Y298428D01*
X215665Y298514D01*
X215613Y298597D01*
X215558Y298678D01*
X215499Y298757D01*
X215438Y298834D01*
X215373Y298908D01*
X215306Y298979D01*
X215236Y299048D01*
X215163Y299114D01*
X215088Y299177D01*
X215010Y299237D01*
X214930Y299294D01*
X214848Y299347D01*
X214763Y299397D01*
X214677Y299444D01*
X214589Y299488D01*
X214499Y299527D01*
X214408Y299564D01*
X214315Y299596D01*
X214221Y299625D01*
X214127Y299650D01*
X214031Y299671D01*
X213934Y299689D01*
X213837Y299702D01*
X213739Y299712D01*
X213641Y299718D01*
X213543Y299720D01*
X213445Y299718D01*
X213347Y299712D01*
X213249Y299702D01*
X213152Y299689D01*
X213055Y299671D01*
X212959Y299650D01*
X212865Y299625D01*
X212771Y299596D01*
X212678Y299564D01*
X212587Y299527D01*
X212497Y299488D01*
X212409Y299444D01*
X212323Y299397D01*
X212238Y299347D01*
X212156Y299294D01*
X212076Y299237D01*
X211998Y299177D01*
X211923Y299114D01*
X211850Y299048D01*
X211780Y298979D01*
X211713Y298908D01*
X211648Y298834D01*
X211587Y298757D01*
X211528Y298678D01*
X211473Y298597D01*
X211421Y298514D01*
X211373Y298428D01*
X211328Y298341D01*
X211286Y298252D01*
X211248Y298162D01*
X211214Y298070D01*
X211183Y297977D01*
X211156Y297882D01*
X211133Y297787D01*
X211113Y297690D01*
X211098Y297594D01*
X211086Y297496D01*
X211078Y297398D01*
X211074Y297300D01*
X211074Y297202D01*
X211078Y297104D01*
X211086Y297006D01*
X211098Y296908D01*
X211113Y296812D01*
X211133Y296715D01*
X211156Y296620D01*
X211183Y296525D01*
X211214Y296432D01*
X211248Y296340D01*
X211286Y296250D01*
X211328Y296161D01*
X211373Y296074D01*
X211421Y295988D01*
X211473Y295905D01*
X211528Y295824D01*
X211587Y295745D01*
X211648Y295668D01*
X211713Y295594D01*
X211780Y295523D01*
X211850Y295454D01*
X211923Y295388D01*
X211998Y295325D01*
X212076Y295265D01*
X212156Y295208D01*
X212238Y295155D01*
X212323Y295105D01*
X212409Y295058D01*
X212497Y295014D01*
X212587Y294975D01*
X212678Y294938D01*
X212771Y294906D01*
X212865Y294877D01*
X212959Y294852D01*
X213055Y294831D01*
X213152Y294813D01*
X213249Y294800D01*
X213347Y294790D01*
X213445Y294784D01*
X213543Y294782D01*
X217988Y295275D02*
X218075Y295277D01*
X218163Y295283D01*
X218250Y295292D01*
X218336Y295306D01*
X218422Y295323D01*
X218506Y295344D01*
X218590Y295369D01*
X218673Y295398D01*
X218754Y295430D01*
X218834Y295465D01*
X218912Y295504D01*
X218989Y295547D01*
X219063Y295593D01*
X219135Y295642D01*
X219205Y295694D01*
X219273Y295750D01*
X219338Y295808D01*
X219401Y295869D01*
X219460Y295933D01*
X219517Y296000D01*
X219571Y296068D01*
X219622Y296140D01*
X219669Y296213D01*
X219714Y296288D01*
X219755Y296366D01*
X219792Y296445D01*
X219826Y296525D01*
X219856Y296607D01*
X219883Y296690D01*
X219906Y296775D01*
X219925Y296860D01*
X219940Y296946D01*
X219952Y297033D01*
X219960Y297120D01*
X219964Y297207D01*
X219964Y297295D01*
X219960Y297382D01*
X219952Y297469D01*
X219940Y297556D01*
X219925Y297642D01*
X219906Y297727D01*
X219883Y297812D01*
X219856Y297895D01*
X219826Y297977D01*
X219792Y298057D01*
X219755Y298136D01*
X219714Y298214D01*
X219669Y298289D01*
X219622Y298362D01*
X219571Y298434D01*
X219517Y298502D01*
X219460Y298569D01*
X219401Y298633D01*
X219338Y298694D01*
X219273Y298752D01*
X219205Y298808D01*
X219135Y298860D01*
X219063Y298909D01*
X218989Y298955D01*
X218912Y298998D01*
X218834Y299037D01*
X218754Y299072D01*
X218673Y299104D01*
X218590Y299133D01*
X218506Y299158D01*
X218422Y299179D01*
X218336Y299196D01*
X218250Y299210D01*
X218163Y299219D01*
X218075Y299225D01*
X217988Y299227D01*
X217901Y299225D01*
X217813Y299219D01*
X217726Y299210D01*
X217640Y299196D01*
X217554Y299179D01*
X217470Y299158D01*
X217386Y299133D01*
X217303Y299104D01*
X217222Y299072D01*
X217142Y299037D01*
X217064Y298998D01*
X216987Y298955D01*
X216913Y298909D01*
X216841Y298860D01*
X216771Y298808D01*
X216703Y298752D01*
X216638Y298694D01*
X216575Y298633D01*
X216516Y298569D01*
X216459Y298502D01*
X216405Y298434D01*
X216354Y298362D01*
X216307Y298289D01*
X216262Y298214D01*
X216221Y298136D01*
X216184Y298057D01*
X216150Y297977D01*
X216120Y297895D01*
X216093Y297812D01*
X216070Y297727D01*
X216051Y297642D01*
X216036Y297556D01*
X216024Y297469D01*
X216016Y297382D01*
X216012Y297295D01*
X216012Y297207D01*
X216016Y297120D01*
X216024Y297033D01*
X216036Y296946D01*
X216051Y296860D01*
X216070Y296775D01*
X216093Y296690D01*
X216120Y296607D01*
X216150Y296525D01*
X216184Y296445D01*
X216221Y296366D01*
X216262Y296288D01*
X216307Y296213D01*
X216354Y296140D01*
X216405Y296068D01*
X216459Y296000D01*
X216516Y295933D01*
X216575Y295869D01*
X216638Y295808D01*
X216703Y295750D01*
X216771Y295694D01*
X216841Y295642D01*
X216913Y295593D01*
X216987Y295547D01*
X217064Y295504D01*
X217142Y295465D01*
X217222Y295430D01*
X217303Y295398D01*
X217386Y295369D01*
X217470Y295344D01*
X217554Y295323D01*
X217640Y295306D01*
X217726Y295292D01*
X217813Y295283D01*
X217901Y295277D01*
X217988Y295275D01*
D13*
X217297Y260477D02*
X214757Y260477D01*
X217297Y260477D02*
X217397Y260479D01*
X217496Y260485D01*
X217596Y260495D01*
X217694Y260508D01*
X217793Y260526D01*
X217890Y260547D01*
X217986Y260572D01*
X218082Y260601D01*
X218176Y260634D01*
X218269Y260670D01*
X218360Y260710D01*
X218450Y260754D01*
X218538Y260801D01*
X218624Y260851D01*
X218708Y260905D01*
X218790Y260962D01*
X218869Y261022D01*
X218947Y261086D01*
X219021Y261152D01*
X219093Y261221D01*
X219162Y261293D01*
X219228Y261367D01*
X219292Y261445D01*
X219352Y261524D01*
X219409Y261606D01*
X219463Y261690D01*
X219513Y261776D01*
X219560Y261864D01*
X219604Y261954D01*
X219644Y262045D01*
X219680Y262138D01*
X219713Y262232D01*
X219742Y262328D01*
X219767Y262424D01*
X219788Y262521D01*
X219806Y262620D01*
X219819Y262718D01*
X219829Y262818D01*
X219835Y262917D01*
X219837Y263017D01*
X219837Y269367D01*
X219835Y269467D01*
X219829Y269566D01*
X219819Y269666D01*
X219806Y269764D01*
X219788Y269863D01*
X219767Y269960D01*
X219742Y270056D01*
X219713Y270152D01*
X219680Y270246D01*
X219644Y270339D01*
X219604Y270430D01*
X219560Y270520D01*
X219513Y270608D01*
X219463Y270694D01*
X219409Y270778D01*
X219352Y270860D01*
X219292Y270939D01*
X219228Y271017D01*
X219162Y271091D01*
X219093Y271163D01*
X219021Y271232D01*
X218947Y271298D01*
X218869Y271362D01*
X218790Y271422D01*
X218708Y271479D01*
X218624Y271533D01*
X218538Y271583D01*
X218450Y271630D01*
X218360Y271674D01*
X218269Y271714D01*
X218176Y271750D01*
X218082Y271783D01*
X217986Y271812D01*
X217890Y271837D01*
X217793Y271858D01*
X217694Y271876D01*
X217596Y271889D01*
X217496Y271899D01*
X217397Y271905D01*
X217297Y271907D01*
X214757Y271907D01*
X210275Y269367D02*
X207100Y271907D01*
X207100Y260477D01*
X210275Y260477D02*
X203925Y260477D01*
X237019Y292481D02*
X239559Y292481D01*
X239659Y292483D01*
X239758Y292489D01*
X239858Y292499D01*
X239956Y292512D01*
X240055Y292530D01*
X240152Y292551D01*
X240248Y292576D01*
X240344Y292605D01*
X240438Y292638D01*
X240531Y292674D01*
X240622Y292714D01*
X240712Y292758D01*
X240800Y292805D01*
X240886Y292855D01*
X240970Y292909D01*
X241052Y292966D01*
X241131Y293026D01*
X241209Y293090D01*
X241283Y293156D01*
X241355Y293225D01*
X241424Y293297D01*
X241490Y293371D01*
X241554Y293449D01*
X241614Y293528D01*
X241671Y293610D01*
X241725Y293694D01*
X241775Y293780D01*
X241822Y293868D01*
X241866Y293958D01*
X241906Y294049D01*
X241942Y294142D01*
X241975Y294236D01*
X242004Y294332D01*
X242029Y294428D01*
X242050Y294525D01*
X242068Y294624D01*
X242081Y294722D01*
X242091Y294822D01*
X242097Y294921D01*
X242099Y295021D01*
X242099Y301371D01*
X242097Y301471D01*
X242091Y301570D01*
X242081Y301670D01*
X242068Y301768D01*
X242050Y301867D01*
X242029Y301964D01*
X242004Y302060D01*
X241975Y302156D01*
X241942Y302250D01*
X241906Y302343D01*
X241866Y302434D01*
X241822Y302524D01*
X241775Y302612D01*
X241725Y302698D01*
X241671Y302782D01*
X241614Y302864D01*
X241554Y302943D01*
X241490Y303021D01*
X241424Y303095D01*
X241355Y303167D01*
X241283Y303236D01*
X241209Y303302D01*
X241131Y303366D01*
X241052Y303426D01*
X240970Y303483D01*
X240886Y303537D01*
X240800Y303587D01*
X240712Y303634D01*
X240622Y303678D01*
X240531Y303718D01*
X240438Y303754D01*
X240344Y303787D01*
X240248Y303816D01*
X240152Y303841D01*
X240055Y303862D01*
X239956Y303880D01*
X239858Y303893D01*
X239758Y303903D01*
X239659Y303909D01*
X239559Y303911D01*
X237019Y303911D01*
X229045Y303912D02*
X228941Y303910D01*
X228836Y303904D01*
X228732Y303895D01*
X228629Y303882D01*
X228526Y303864D01*
X228424Y303844D01*
X228322Y303819D01*
X228222Y303791D01*
X228122Y303759D01*
X228024Y303723D01*
X227927Y303684D01*
X227832Y303642D01*
X227738Y303596D01*
X227646Y303546D01*
X227556Y303494D01*
X227468Y303438D01*
X227382Y303378D01*
X227298Y303316D01*
X227217Y303251D01*
X227138Y303183D01*
X227061Y303111D01*
X226988Y303038D01*
X226916Y302961D01*
X226848Y302882D01*
X226783Y302801D01*
X226721Y302717D01*
X226661Y302631D01*
X226605Y302543D01*
X226553Y302453D01*
X226503Y302361D01*
X226457Y302267D01*
X226415Y302172D01*
X226376Y302075D01*
X226340Y301977D01*
X226308Y301877D01*
X226280Y301777D01*
X226255Y301675D01*
X226235Y301573D01*
X226217Y301470D01*
X226204Y301367D01*
X226195Y301263D01*
X226189Y301158D01*
X226187Y301054D01*
X229045Y303911D02*
X229163Y303909D01*
X229282Y303903D01*
X229400Y303894D01*
X229517Y303881D01*
X229634Y303863D01*
X229751Y303843D01*
X229867Y303818D01*
X229982Y303790D01*
X230095Y303757D01*
X230208Y303722D01*
X230320Y303682D01*
X230430Y303640D01*
X230539Y303593D01*
X230647Y303543D01*
X230752Y303490D01*
X230856Y303433D01*
X230958Y303373D01*
X231058Y303310D01*
X231156Y303243D01*
X231252Y303174D01*
X231345Y303101D01*
X231436Y303025D01*
X231525Y302947D01*
X231611Y302865D01*
X231694Y302781D01*
X231775Y302695D01*
X231852Y302605D01*
X231927Y302514D01*
X231999Y302420D01*
X232068Y302323D01*
X232133Y302225D01*
X232196Y302124D01*
X232255Y302021D01*
X232311Y301917D01*
X232363Y301811D01*
X232412Y301703D01*
X232457Y301594D01*
X232499Y301483D01*
X232537Y301371D01*
X227139Y298832D02*
X227063Y298907D01*
X226988Y298986D01*
X226917Y299067D01*
X226848Y299151D01*
X226783Y299237D01*
X226721Y299325D01*
X226661Y299415D01*
X226605Y299507D01*
X226552Y299602D01*
X226503Y299698D01*
X226457Y299796D01*
X226414Y299895D01*
X226375Y299996D01*
X226340Y300098D01*
X226308Y300201D01*
X226280Y300305D01*
X226255Y300410D01*
X226234Y300517D01*
X226217Y300623D01*
X226204Y300730D01*
X226195Y300838D01*
X226189Y300946D01*
X226187Y301054D01*
X227140Y298831D02*
X232537Y292481D01*
X226187Y292481D01*
X278765Y203835D02*
X281305Y203835D01*
X281405Y203837D01*
X281504Y203843D01*
X281604Y203853D01*
X281702Y203866D01*
X281801Y203884D01*
X281898Y203905D01*
X281994Y203930D01*
X282090Y203959D01*
X282184Y203992D01*
X282277Y204028D01*
X282368Y204068D01*
X282458Y204112D01*
X282546Y204159D01*
X282632Y204209D01*
X282716Y204263D01*
X282798Y204320D01*
X282877Y204380D01*
X282955Y204444D01*
X283029Y204510D01*
X283101Y204579D01*
X283170Y204651D01*
X283236Y204725D01*
X283300Y204803D01*
X283360Y204882D01*
X283417Y204964D01*
X283471Y205048D01*
X283521Y205134D01*
X283568Y205222D01*
X283612Y205312D01*
X283652Y205403D01*
X283688Y205496D01*
X283721Y205590D01*
X283750Y205686D01*
X283775Y205782D01*
X283796Y205879D01*
X283814Y205978D01*
X283827Y206076D01*
X283837Y206176D01*
X283843Y206275D01*
X283845Y206375D01*
X283845Y212725D01*
X283843Y212825D01*
X283837Y212924D01*
X283827Y213024D01*
X283814Y213122D01*
X283796Y213221D01*
X283775Y213318D01*
X283750Y213414D01*
X283721Y213510D01*
X283688Y213604D01*
X283652Y213697D01*
X283612Y213788D01*
X283568Y213878D01*
X283521Y213966D01*
X283471Y214052D01*
X283417Y214136D01*
X283360Y214218D01*
X283300Y214297D01*
X283236Y214375D01*
X283170Y214449D01*
X283101Y214521D01*
X283029Y214590D01*
X282955Y214656D01*
X282877Y214720D01*
X282798Y214780D01*
X282716Y214837D01*
X282632Y214891D01*
X282546Y214941D01*
X282458Y214988D01*
X282368Y215032D01*
X282277Y215072D01*
X282184Y215108D01*
X282090Y215141D01*
X281994Y215170D01*
X281898Y215195D01*
X281801Y215216D01*
X281702Y215234D01*
X281604Y215247D01*
X281504Y215257D01*
X281405Y215263D01*
X281305Y215265D01*
X278765Y215265D01*
X274283Y203835D02*
X271108Y203835D01*
X270997Y203837D01*
X270887Y203843D01*
X270776Y203852D01*
X270666Y203866D01*
X270557Y203883D01*
X270448Y203904D01*
X270340Y203929D01*
X270233Y203958D01*
X270127Y203990D01*
X270022Y204026D01*
X269919Y204066D01*
X269817Y204109D01*
X269716Y204156D01*
X269617Y204207D01*
X269521Y204260D01*
X269426Y204317D01*
X269333Y204378D01*
X269242Y204441D01*
X269153Y204508D01*
X269067Y204578D01*
X268984Y204651D01*
X268902Y204726D01*
X268824Y204804D01*
X268749Y204886D01*
X268676Y204969D01*
X268606Y205055D01*
X268539Y205144D01*
X268476Y205235D01*
X268415Y205328D01*
X268358Y205423D01*
X268305Y205519D01*
X268254Y205618D01*
X268207Y205719D01*
X268164Y205821D01*
X268124Y205924D01*
X268088Y206029D01*
X268056Y206135D01*
X268027Y206242D01*
X268002Y206350D01*
X267981Y206459D01*
X267964Y206568D01*
X267950Y206678D01*
X267941Y206789D01*
X267935Y206899D01*
X267933Y207010D01*
X267935Y207121D01*
X267941Y207231D01*
X267950Y207342D01*
X267964Y207452D01*
X267981Y207561D01*
X268002Y207670D01*
X268027Y207778D01*
X268056Y207885D01*
X268088Y207991D01*
X268124Y208096D01*
X268164Y208199D01*
X268207Y208301D01*
X268254Y208402D01*
X268305Y208501D01*
X268358Y208598D01*
X268415Y208692D01*
X268476Y208785D01*
X268539Y208876D01*
X268606Y208965D01*
X268676Y209051D01*
X268749Y209134D01*
X268824Y209216D01*
X268902Y209294D01*
X268984Y209369D01*
X269067Y209442D01*
X269153Y209512D01*
X269242Y209579D01*
X269333Y209642D01*
X269426Y209703D01*
X269521Y209760D01*
X269617Y209813D01*
X269716Y209864D01*
X269817Y209911D01*
X269919Y209954D01*
X270022Y209994D01*
X270127Y210030D01*
X270233Y210062D01*
X270340Y210091D01*
X270448Y210116D01*
X270557Y210137D01*
X270666Y210154D01*
X270776Y210168D01*
X270887Y210177D01*
X270997Y210183D01*
X271108Y210185D01*
X270473Y215265D02*
X274283Y215265D01*
X270473Y215265D02*
X270373Y215263D01*
X270274Y215257D01*
X270174Y215247D01*
X270076Y215234D01*
X269977Y215216D01*
X269880Y215195D01*
X269784Y215170D01*
X269688Y215141D01*
X269594Y215108D01*
X269501Y215072D01*
X269410Y215032D01*
X269320Y214988D01*
X269232Y214941D01*
X269146Y214891D01*
X269062Y214837D01*
X268980Y214780D01*
X268901Y214720D01*
X268823Y214656D01*
X268749Y214590D01*
X268677Y214521D01*
X268608Y214449D01*
X268542Y214375D01*
X268478Y214297D01*
X268418Y214218D01*
X268361Y214136D01*
X268307Y214052D01*
X268257Y213966D01*
X268210Y213878D01*
X268166Y213788D01*
X268126Y213697D01*
X268090Y213604D01*
X268057Y213510D01*
X268028Y213414D01*
X268003Y213318D01*
X267982Y213221D01*
X267964Y213122D01*
X267951Y213024D01*
X267941Y212924D01*
X267935Y212825D01*
X267933Y212725D01*
X267935Y212625D01*
X267941Y212526D01*
X267951Y212426D01*
X267964Y212328D01*
X267982Y212229D01*
X268003Y212132D01*
X268028Y212036D01*
X268057Y211940D01*
X268090Y211846D01*
X268126Y211753D01*
X268166Y211662D01*
X268210Y211572D01*
X268257Y211484D01*
X268307Y211398D01*
X268361Y211314D01*
X268418Y211232D01*
X268478Y211153D01*
X268542Y211075D01*
X268608Y211001D01*
X268677Y210929D01*
X268749Y210860D01*
X268823Y210794D01*
X268901Y210730D01*
X268980Y210670D01*
X269062Y210613D01*
X269146Y210559D01*
X269232Y210509D01*
X269320Y210462D01*
X269410Y210418D01*
X269501Y210378D01*
X269594Y210342D01*
X269688Y210309D01*
X269784Y210280D01*
X269880Y210255D01*
X269977Y210234D01*
X270076Y210216D01*
X270174Y210203D01*
X270274Y210193D01*
X270373Y210187D01*
X270473Y210185D01*
X273013Y210185D01*
D11*
X201607Y285877D02*
X201607Y293243D01*
X199561Y293243D01*
X199472Y293241D01*
X199383Y293235D01*
X199294Y293225D01*
X199206Y293212D01*
X199118Y293195D01*
X199031Y293173D01*
X198946Y293148D01*
X198861Y293120D01*
X198778Y293087D01*
X198696Y293051D01*
X198616Y293012D01*
X198538Y292969D01*
X198462Y292923D01*
X198387Y292873D01*
X198315Y292820D01*
X198246Y292764D01*
X198179Y292705D01*
X198114Y292644D01*
X198053Y292579D01*
X197994Y292512D01*
X197938Y292443D01*
X197885Y292371D01*
X197835Y292296D01*
X197789Y292220D01*
X197746Y292142D01*
X197707Y292062D01*
X197671Y291980D01*
X197638Y291897D01*
X197610Y291812D01*
X197585Y291727D01*
X197563Y291640D01*
X197546Y291552D01*
X197533Y291464D01*
X197523Y291375D01*
X197517Y291286D01*
X197515Y291197D01*
X197517Y291108D01*
X197523Y291019D01*
X197533Y290930D01*
X197546Y290842D01*
X197563Y290754D01*
X197585Y290667D01*
X197610Y290582D01*
X197638Y290497D01*
X197671Y290414D01*
X197707Y290332D01*
X197746Y290252D01*
X197789Y290174D01*
X197835Y290098D01*
X197885Y290023D01*
X197938Y289951D01*
X197994Y289882D01*
X198053Y289815D01*
X198114Y289750D01*
X198179Y289689D01*
X198246Y289630D01*
X198315Y289574D01*
X198387Y289521D01*
X198462Y289471D01*
X198538Y289425D01*
X198616Y289382D01*
X198696Y289343D01*
X198778Y289307D01*
X198861Y289274D01*
X198946Y289246D01*
X199031Y289221D01*
X199118Y289199D01*
X199206Y289182D01*
X199294Y289169D01*
X199383Y289159D01*
X199472Y289153D01*
X199561Y289151D01*
X201607Y289151D01*
X199152Y289151D02*
X197515Y285877D01*
X194084Y285877D02*
X190810Y285877D01*
X194084Y285877D02*
X194084Y293243D01*
X190810Y293243D01*
X191628Y289969D02*
X194084Y289969D01*
X187744Y293243D02*
X187744Y285877D01*
X187744Y293243D02*
X184470Y293243D01*
X184470Y289969D02*
X187744Y289969D01*
X181664Y291197D02*
X181664Y287923D01*
X181663Y291197D02*
X181661Y291286D01*
X181655Y291375D01*
X181645Y291464D01*
X181632Y291552D01*
X181615Y291640D01*
X181593Y291727D01*
X181568Y291812D01*
X181540Y291897D01*
X181507Y291980D01*
X181471Y292062D01*
X181432Y292142D01*
X181389Y292220D01*
X181343Y292296D01*
X181293Y292371D01*
X181240Y292443D01*
X181184Y292512D01*
X181125Y292579D01*
X181064Y292644D01*
X180999Y292705D01*
X180932Y292764D01*
X180863Y292820D01*
X180791Y292873D01*
X180716Y292923D01*
X180640Y292969D01*
X180562Y293012D01*
X180482Y293051D01*
X180400Y293087D01*
X180317Y293120D01*
X180232Y293148D01*
X180147Y293173D01*
X180060Y293195D01*
X179972Y293212D01*
X179884Y293225D01*
X179795Y293235D01*
X179706Y293241D01*
X179617Y293243D01*
X179528Y293241D01*
X179439Y293235D01*
X179350Y293225D01*
X179262Y293212D01*
X179174Y293195D01*
X179087Y293173D01*
X179002Y293148D01*
X178917Y293120D01*
X178834Y293087D01*
X178752Y293051D01*
X178672Y293012D01*
X178594Y292969D01*
X178518Y292923D01*
X178443Y292873D01*
X178371Y292820D01*
X178302Y292764D01*
X178235Y292705D01*
X178170Y292644D01*
X178109Y292579D01*
X178050Y292512D01*
X177994Y292443D01*
X177941Y292371D01*
X177891Y292296D01*
X177845Y292220D01*
X177802Y292142D01*
X177763Y292062D01*
X177727Y291980D01*
X177694Y291897D01*
X177666Y291812D01*
X177641Y291727D01*
X177619Y291640D01*
X177602Y291552D01*
X177589Y291464D01*
X177579Y291375D01*
X177573Y291286D01*
X177571Y291197D01*
X177571Y287923D01*
X177573Y287834D01*
X177579Y287745D01*
X177589Y287656D01*
X177602Y287568D01*
X177619Y287480D01*
X177641Y287393D01*
X177666Y287308D01*
X177694Y287223D01*
X177727Y287140D01*
X177763Y287058D01*
X177802Y286978D01*
X177845Y286900D01*
X177891Y286824D01*
X177941Y286749D01*
X177994Y286677D01*
X178050Y286608D01*
X178109Y286541D01*
X178170Y286476D01*
X178235Y286415D01*
X178302Y286356D01*
X178371Y286300D01*
X178443Y286247D01*
X178518Y286197D01*
X178594Y286151D01*
X178672Y286108D01*
X178752Y286069D01*
X178834Y286033D01*
X178917Y286000D01*
X179002Y285972D01*
X179087Y285947D01*
X179174Y285925D01*
X179262Y285908D01*
X179350Y285895D01*
X179439Y285885D01*
X179528Y285879D01*
X179617Y285877D01*
X179706Y285879D01*
X179795Y285885D01*
X179884Y285895D01*
X179972Y285908D01*
X180060Y285925D01*
X180147Y285947D01*
X180232Y285972D01*
X180317Y286000D01*
X180400Y286033D01*
X180482Y286069D01*
X180562Y286108D01*
X180640Y286151D01*
X180716Y286197D01*
X180791Y286247D01*
X180863Y286300D01*
X180932Y286356D01*
X180999Y286415D01*
X181064Y286476D01*
X181125Y286541D01*
X181184Y286608D01*
X181240Y286677D01*
X181293Y286749D01*
X181343Y286824D01*
X181389Y286900D01*
X181432Y286978D01*
X181471Y287058D01*
X181507Y287140D01*
X181540Y287223D01*
X181568Y287308D01*
X181593Y287393D01*
X181615Y287480D01*
X181632Y287568D01*
X181645Y287656D01*
X181655Y287745D01*
X181661Y287834D01*
X181663Y287923D01*
X174105Y287923D02*
X174105Y293243D01*
X174104Y287923D02*
X174102Y287834D01*
X174096Y287745D01*
X174086Y287656D01*
X174073Y287568D01*
X174056Y287480D01*
X174034Y287393D01*
X174009Y287308D01*
X173981Y287223D01*
X173948Y287140D01*
X173912Y287058D01*
X173873Y286978D01*
X173830Y286900D01*
X173784Y286824D01*
X173734Y286749D01*
X173681Y286677D01*
X173625Y286608D01*
X173566Y286541D01*
X173505Y286476D01*
X173440Y286415D01*
X173373Y286356D01*
X173304Y286300D01*
X173232Y286247D01*
X173157Y286197D01*
X173081Y286151D01*
X173003Y286108D01*
X172923Y286069D01*
X172841Y286033D01*
X172758Y286000D01*
X172673Y285972D01*
X172588Y285947D01*
X172501Y285925D01*
X172413Y285908D01*
X172325Y285895D01*
X172236Y285885D01*
X172147Y285879D01*
X172058Y285877D01*
X171969Y285879D01*
X171880Y285885D01*
X171791Y285895D01*
X171703Y285908D01*
X171615Y285925D01*
X171528Y285947D01*
X171443Y285972D01*
X171358Y286000D01*
X171275Y286033D01*
X171193Y286069D01*
X171113Y286108D01*
X171035Y286151D01*
X170959Y286197D01*
X170884Y286247D01*
X170812Y286300D01*
X170743Y286356D01*
X170676Y286415D01*
X170611Y286476D01*
X170550Y286541D01*
X170491Y286608D01*
X170435Y286677D01*
X170382Y286749D01*
X170332Y286824D01*
X170286Y286900D01*
X170243Y286978D01*
X170204Y287058D01*
X170168Y287140D01*
X170135Y287223D01*
X170107Y287308D01*
X170082Y287393D01*
X170060Y287480D01*
X170043Y287568D01*
X170030Y287656D01*
X170020Y287745D01*
X170014Y287834D01*
X170012Y287923D01*
X170012Y293243D01*
X164987Y293243D02*
X164987Y285877D01*
X167033Y293243D02*
X162941Y293243D01*
M02*
