G04 EAGLE Gerber RS-274X export*
G75*
%MOMM*%
%FSLAX34Y34*%
%LPD*%
%INBottom Copper*%
%IPPOS*%
%AMOC8*
5,1,8,0,0,1.08239X$1,22.5*%
G01*
%ADD10C,1.524000*%
%ADD11C,0.756400*%
%ADD12C,0.152400*%

G36*
X313672Y207779D02*
X313672Y207779D01*
X313722Y207777D01*
X313829Y207799D01*
X313938Y207813D01*
X313984Y207831D01*
X314033Y207841D01*
X314132Y207889D01*
X314234Y207930D01*
X314274Y207959D01*
X314319Y207981D01*
X314402Y208052D01*
X314491Y208116D01*
X314523Y208155D01*
X314561Y208187D01*
X314624Y208277D01*
X314694Y208361D01*
X314715Y208406D01*
X314744Y208447D01*
X314783Y208550D01*
X314830Y208649D01*
X314839Y208698D01*
X314857Y208744D01*
X314869Y208854D01*
X314889Y208961D01*
X314886Y209011D01*
X314892Y209060D01*
X314876Y209169D01*
X314870Y209279D01*
X314854Y209326D01*
X314847Y209375D01*
X314795Y209528D01*
X313435Y212811D01*
X313435Y216449D01*
X314827Y219810D01*
X317400Y222383D01*
X320761Y223775D01*
X339639Y223775D01*
X343000Y222383D01*
X345573Y219810D01*
X346965Y216449D01*
X346965Y212811D01*
X345837Y210088D01*
X345813Y210002D01*
X345780Y209919D01*
X345771Y209849D01*
X345753Y209782D01*
X345752Y209692D01*
X345740Y209603D01*
X345749Y209534D01*
X345748Y209464D01*
X345769Y209376D01*
X345780Y209288D01*
X345806Y209223D01*
X345822Y209154D01*
X345864Y209075D01*
X345897Y208992D01*
X345938Y208935D01*
X345971Y208873D01*
X346031Y208807D01*
X346084Y208735D01*
X346138Y208690D01*
X346185Y208638D01*
X346260Y208589D01*
X346328Y208532D01*
X346392Y208502D01*
X346450Y208463D01*
X346535Y208434D01*
X346616Y208396D01*
X346685Y208383D01*
X346751Y208360D01*
X346840Y208353D01*
X346928Y208336D01*
X346998Y208340D01*
X347068Y208335D01*
X347157Y208350D01*
X347246Y208356D01*
X347367Y208387D01*
X347382Y208389D01*
X347388Y208392D01*
X347402Y208396D01*
X348829Y208859D01*
X348936Y208910D01*
X349047Y208953D01*
X349098Y208986D01*
X349117Y208995D01*
X349132Y209007D01*
X349183Y209039D01*
X351561Y210768D01*
X351648Y210849D01*
X351740Y210925D01*
X351778Y210971D01*
X351793Y210985D01*
X351804Y211003D01*
X351842Y211049D01*
X353571Y213427D01*
X353628Y213531D01*
X353691Y213632D01*
X353714Y213688D01*
X353724Y213706D01*
X353729Y213726D01*
X353751Y213781D01*
X354659Y216578D01*
X354672Y216645D01*
X354695Y216711D01*
X354718Y216870D01*
X354833Y218340D01*
X354832Y218362D01*
X354837Y218440D01*
X354837Y284480D01*
X354835Y284501D01*
X354835Y284563D01*
X354732Y286121D01*
X354724Y286165D01*
X354724Y286209D01*
X354692Y286367D01*
X353885Y289377D01*
X353853Y289456D01*
X353830Y289539D01*
X353769Y289661D01*
X353765Y289671D01*
X353762Y289675D01*
X353758Y289683D01*
X352200Y292382D01*
X352149Y292450D01*
X352105Y292524D01*
X352015Y292627D01*
X352008Y292635D01*
X352005Y292638D01*
X351999Y292645D01*
X349795Y294849D01*
X349727Y294901D01*
X349666Y294961D01*
X349552Y295037D01*
X349544Y295043D01*
X349540Y295045D01*
X349532Y295050D01*
X348089Y295884D01*
X348030Y295908D01*
X347977Y295941D01*
X347884Y295969D01*
X347795Y296007D01*
X347733Y296016D01*
X347673Y296035D01*
X347576Y296039D01*
X347481Y296053D01*
X347418Y296047D01*
X347355Y296050D01*
X347261Y296030D01*
X347165Y296020D01*
X347105Y295998D01*
X347044Y295985D01*
X346957Y295943D01*
X346866Y295909D01*
X346815Y295873D01*
X346758Y295846D01*
X346685Y295783D01*
X346605Y295728D01*
X346564Y295680D01*
X346516Y295639D01*
X346460Y295561D01*
X346397Y295488D01*
X346369Y295431D01*
X346333Y295379D01*
X346299Y295289D01*
X346256Y295203D01*
X346242Y295141D01*
X346220Y295082D01*
X346209Y294986D01*
X346189Y294892D01*
X346192Y294829D01*
X346185Y294766D01*
X346198Y294670D01*
X346202Y294574D01*
X346221Y294514D01*
X346229Y294451D01*
X346281Y294299D01*
X346965Y292649D01*
X346965Y289011D01*
X345573Y285650D01*
X343000Y283077D01*
X339639Y281685D01*
X320761Y281685D01*
X317400Y283077D01*
X314827Y285650D01*
X313435Y289011D01*
X313435Y292649D01*
X314795Y295932D01*
X314808Y295980D01*
X314830Y296025D01*
X314850Y296133D01*
X314879Y296239D01*
X314880Y296289D01*
X314889Y296338D01*
X314883Y296447D01*
X314884Y296557D01*
X314873Y296605D01*
X314870Y296655D01*
X314836Y296759D01*
X314810Y296866D01*
X314787Y296910D01*
X314772Y296957D01*
X314713Y297050D01*
X314661Y297147D01*
X314628Y297184D01*
X314601Y297226D01*
X314521Y297301D01*
X314447Y297383D01*
X314406Y297410D01*
X314370Y297444D01*
X314274Y297497D01*
X314182Y297557D01*
X314135Y297574D01*
X314091Y297598D01*
X313985Y297625D01*
X313881Y297661D01*
X313831Y297665D01*
X313783Y297677D01*
X313623Y297687D01*
X182880Y297687D01*
X182859Y297685D01*
X182797Y297685D01*
X180078Y297506D01*
X180035Y297498D01*
X179991Y297498D01*
X179833Y297466D01*
X174581Y296059D01*
X174502Y296026D01*
X174419Y296003D01*
X174296Y295942D01*
X174287Y295938D01*
X174283Y295936D01*
X174275Y295932D01*
X169566Y293213D01*
X169498Y293161D01*
X169424Y293118D01*
X169321Y293027D01*
X169313Y293021D01*
X169310Y293018D01*
X169303Y293011D01*
X165459Y289167D01*
X165406Y289099D01*
X165346Y289038D01*
X165270Y288924D01*
X165264Y288916D01*
X165262Y288912D01*
X165257Y288904D01*
X162538Y284195D01*
X162505Y284116D01*
X162463Y284042D01*
X162419Y283912D01*
X162415Y283902D01*
X162414Y283898D01*
X162411Y283889D01*
X161004Y278637D01*
X160998Y278593D01*
X160984Y278551D01*
X160964Y278392D01*
X160885Y277197D01*
X160885Y277196D01*
X160885Y277194D01*
X160895Y277039D01*
X160904Y276880D01*
X160905Y276878D01*
X160905Y276877D01*
X160955Y276721D01*
X161002Y276577D01*
X161003Y276576D01*
X161003Y276575D01*
X161097Y276426D01*
X161172Y276308D01*
X161172Y276307D01*
X161173Y276306D01*
X161291Y276195D01*
X161403Y276089D01*
X161404Y276089D01*
X161405Y276088D01*
X161544Y276011D01*
X161681Y275935D01*
X161682Y275935D01*
X161683Y275934D01*
X161835Y275895D01*
X161989Y275855D01*
X161990Y275855D01*
X161991Y275855D01*
X162152Y275845D01*
X178349Y275845D01*
X181710Y274453D01*
X184283Y271880D01*
X185156Y269770D01*
X185171Y269745D01*
X185180Y269717D01*
X185250Y269607D01*
X185314Y269494D01*
X185335Y269473D01*
X185350Y269448D01*
X185445Y269359D01*
X185535Y269266D01*
X185560Y269250D01*
X185582Y269230D01*
X185696Y269167D01*
X185806Y269099D01*
X185835Y269091D01*
X185860Y269076D01*
X185986Y269044D01*
X186110Y269006D01*
X186140Y269004D01*
X186168Y268997D01*
X186329Y268987D01*
X257487Y268987D01*
X275755Y250718D01*
X275779Y250700D01*
X275798Y250678D01*
X275904Y250603D01*
X276007Y250524D01*
X276034Y250512D01*
X276058Y250495D01*
X276179Y250449D01*
X276299Y250397D01*
X276328Y250393D01*
X276356Y250382D01*
X276484Y250368D01*
X276613Y250347D01*
X276642Y250350D01*
X276672Y250347D01*
X276800Y250365D01*
X276929Y250377D01*
X276957Y250387D01*
X276986Y250391D01*
X277061Y250417D01*
X279186Y250417D01*
X281136Y249609D01*
X282629Y248116D01*
X283437Y246166D01*
X283437Y244054D01*
X282629Y242104D01*
X281136Y240611D01*
X279186Y239803D01*
X277074Y239803D01*
X275124Y240611D01*
X273631Y242104D01*
X272823Y244054D01*
X272823Y246180D01*
X272846Y246283D01*
X272881Y246408D01*
X272881Y246437D01*
X272888Y246466D01*
X272884Y246596D01*
X272886Y246726D01*
X272879Y246755D01*
X272878Y246784D01*
X272842Y246909D01*
X272812Y247035D01*
X272798Y247061D01*
X272789Y247090D01*
X272724Y247201D01*
X272663Y247316D01*
X272643Y247338D01*
X272628Y247364D01*
X272522Y247485D01*
X255965Y264042D01*
X255886Y264102D01*
X255814Y264170D01*
X255761Y264199D01*
X255713Y264236D01*
X255622Y264276D01*
X255536Y264324D01*
X255477Y264339D01*
X255421Y264363D01*
X255323Y264378D01*
X255228Y264403D01*
X255128Y264409D01*
X255107Y264413D01*
X255095Y264411D01*
X255067Y264413D01*
X186329Y264413D01*
X186300Y264410D01*
X186270Y264412D01*
X186142Y264390D01*
X186014Y264373D01*
X185986Y264363D01*
X185957Y264358D01*
X185838Y264304D01*
X185718Y264256D01*
X185694Y264239D01*
X185667Y264227D01*
X185566Y264146D01*
X185461Y264070D01*
X185442Y264047D01*
X185419Y264028D01*
X185341Y263925D01*
X185258Y263825D01*
X185245Y263798D01*
X185227Y263774D01*
X185156Y263630D01*
X184283Y261520D01*
X181710Y258947D01*
X178349Y257555D01*
X162052Y257555D01*
X161934Y257540D01*
X161815Y257533D01*
X161777Y257520D01*
X161736Y257515D01*
X161626Y257472D01*
X161513Y257435D01*
X161478Y257413D01*
X161441Y257398D01*
X161345Y257329D01*
X161244Y257265D01*
X161216Y257235D01*
X161183Y257212D01*
X161107Y257120D01*
X161026Y257033D01*
X161006Y256998D01*
X160981Y256967D01*
X160930Y256859D01*
X160872Y256755D01*
X160862Y256715D01*
X160845Y256679D01*
X160823Y256562D01*
X160793Y256447D01*
X160789Y256387D01*
X160785Y256367D01*
X160787Y256346D01*
X160783Y256286D01*
X160783Y251714D01*
X160798Y251595D01*
X160805Y251477D01*
X160818Y251439D01*
X160823Y251398D01*
X160866Y251288D01*
X160903Y251175D01*
X160925Y251140D01*
X160940Y251103D01*
X161009Y251007D01*
X161073Y250906D01*
X161103Y250878D01*
X161126Y250845D01*
X161218Y250769D01*
X161305Y250688D01*
X161340Y250668D01*
X161371Y250643D01*
X161479Y250592D01*
X161583Y250534D01*
X161623Y250524D01*
X161659Y250507D01*
X161776Y250485D01*
X161891Y250455D01*
X161951Y250451D01*
X161971Y250447D01*
X161992Y250449D01*
X162052Y250445D01*
X178349Y250445D01*
X181710Y249053D01*
X182994Y247768D01*
X183072Y247708D01*
X183144Y247640D01*
X183198Y247611D01*
X183245Y247574D01*
X183336Y247534D01*
X183423Y247486D01*
X183482Y247471D01*
X183537Y247447D01*
X183635Y247432D01*
X183731Y247407D01*
X183831Y247401D01*
X183851Y247397D01*
X183864Y247399D01*
X183892Y247397D01*
X248355Y247397D01*
X248385Y247400D01*
X248414Y247398D01*
X248542Y247420D01*
X248671Y247437D01*
X248698Y247447D01*
X248727Y247453D01*
X248846Y247506D01*
X248966Y247554D01*
X248990Y247571D01*
X249017Y247583D01*
X249119Y247664D01*
X249224Y247740D01*
X249243Y247763D01*
X249266Y247782D01*
X249344Y247885D01*
X249427Y247985D01*
X249439Y248012D01*
X249457Y248036D01*
X249492Y248106D01*
X250994Y249609D01*
X252944Y250417D01*
X255056Y250417D01*
X257006Y249609D01*
X258499Y248116D01*
X259307Y246166D01*
X259307Y244054D01*
X258499Y242104D01*
X257006Y240611D01*
X255056Y239803D01*
X252944Y239803D01*
X250994Y240611D01*
X249491Y242114D01*
X249434Y242203D01*
X249370Y242316D01*
X249350Y242337D01*
X249334Y242362D01*
X249239Y242451D01*
X249149Y242544D01*
X249124Y242560D01*
X249102Y242580D01*
X248989Y242643D01*
X248878Y242711D01*
X248850Y242719D01*
X248824Y242734D01*
X248698Y242766D01*
X248574Y242804D01*
X248544Y242806D01*
X248516Y242813D01*
X248355Y242823D01*
X186944Y242823D01*
X186826Y242808D01*
X186707Y242801D01*
X186669Y242788D01*
X186628Y242783D01*
X186518Y242740D01*
X186405Y242703D01*
X186370Y242681D01*
X186333Y242666D01*
X186237Y242597D01*
X186136Y242533D01*
X186108Y242503D01*
X186075Y242480D01*
X185999Y242388D01*
X185918Y242301D01*
X185898Y242266D01*
X185873Y242235D01*
X185822Y242127D01*
X185764Y242023D01*
X185754Y241983D01*
X185737Y241947D01*
X185715Y241830D01*
X185685Y241715D01*
X185681Y241655D01*
X185677Y241635D01*
X185679Y241614D01*
X185675Y241554D01*
X185675Y239481D01*
X184283Y236120D01*
X181710Y233547D01*
X178349Y232155D01*
X162235Y232155D01*
X162234Y232155D01*
X162233Y232155D01*
X162074Y232135D01*
X161920Y232115D01*
X161918Y232115D01*
X161917Y232115D01*
X161770Y232056D01*
X161624Y231998D01*
X161623Y231998D01*
X161622Y231997D01*
X161496Y231906D01*
X161367Y231812D01*
X161366Y231811D01*
X161365Y231810D01*
X161269Y231694D01*
X161164Y231567D01*
X161163Y231565D01*
X161162Y231564D01*
X161094Y231419D01*
X161028Y231279D01*
X161028Y231278D01*
X161027Y231276D01*
X160998Y231121D01*
X160968Y230967D01*
X160969Y230965D01*
X160968Y230964D01*
X160969Y230803D01*
X160996Y230381D01*
X161005Y230338D01*
X161005Y230293D01*
X161037Y230136D01*
X162701Y223923D01*
X162734Y223844D01*
X162757Y223761D01*
X162818Y223638D01*
X162822Y223628D01*
X162824Y223625D01*
X162828Y223617D01*
X166044Y218047D01*
X166096Y217978D01*
X166139Y217905D01*
X166230Y217802D01*
X166236Y217793D01*
X166240Y217791D01*
X166246Y217784D01*
X170794Y213236D01*
X170862Y213183D01*
X170923Y213123D01*
X171037Y213047D01*
X171045Y213041D01*
X171049Y213039D01*
X171057Y213034D01*
X176627Y209818D01*
X176706Y209785D01*
X176780Y209743D01*
X176910Y209699D01*
X176920Y209695D01*
X176924Y209694D01*
X176933Y209691D01*
X183146Y208027D01*
X183189Y208021D01*
X183231Y208007D01*
X183391Y207986D01*
X186607Y207775D01*
X186628Y207777D01*
X186690Y207773D01*
X313623Y207773D01*
X313672Y207779D01*
G37*
%LPC*%
G36*
X320761Y256285D02*
X320761Y256285D01*
X317400Y257677D01*
X314827Y260250D01*
X313435Y263611D01*
X313435Y267249D01*
X314827Y270610D01*
X317400Y273183D01*
X320761Y274575D01*
X339639Y274575D01*
X343000Y273183D01*
X345573Y270610D01*
X346965Y267249D01*
X346965Y263611D01*
X345573Y260250D01*
X343000Y257677D01*
X339639Y256285D01*
X320761Y256285D01*
G37*
%LPD*%
%LPC*%
G36*
X332739Y242569D02*
X332739Y242569D01*
X332739Y250191D01*
X338620Y250191D01*
X340199Y249941D01*
X341720Y249446D01*
X343145Y248720D01*
X344439Y247780D01*
X345570Y246649D01*
X346510Y245355D01*
X347236Y243930D01*
X347679Y242569D01*
X332739Y242569D01*
G37*
%LPD*%
%LPC*%
G36*
X312721Y242569D02*
X312721Y242569D01*
X313164Y243930D01*
X313890Y245355D01*
X314830Y246649D01*
X315961Y247780D01*
X317255Y248720D01*
X318680Y249446D01*
X320201Y249941D01*
X321780Y250191D01*
X327661Y250191D01*
X327661Y242569D01*
X312721Y242569D01*
G37*
%LPD*%
%LPC*%
G36*
X332739Y229869D02*
X332739Y229869D01*
X332739Y237491D01*
X347679Y237491D01*
X347236Y236130D01*
X346510Y234705D01*
X345570Y233411D01*
X344439Y232280D01*
X343145Y231340D01*
X341720Y230614D01*
X340199Y230119D01*
X338620Y229869D01*
X332739Y229869D01*
G37*
%LPD*%
%LPC*%
G36*
X321780Y229869D02*
X321780Y229869D01*
X320201Y230119D01*
X318680Y230614D01*
X317255Y231340D01*
X315961Y232280D01*
X314830Y233411D01*
X313890Y234705D01*
X313164Y236130D01*
X312721Y237491D01*
X327661Y237491D01*
X327661Y229869D01*
X321780Y229869D01*
G37*
%LPD*%
%LPC*%
G36*
X330199Y240029D02*
X330199Y240029D01*
X330199Y240031D01*
X330201Y240031D01*
X330201Y240029D01*
X330199Y240029D01*
G37*
%LPD*%
D10*
X161290Y266700D02*
X176530Y266700D01*
X176530Y241300D02*
X161290Y241300D01*
X322580Y290830D02*
X337820Y290830D01*
X337820Y265430D02*
X322580Y265430D01*
X322580Y240030D02*
X337820Y240030D01*
X337820Y214630D02*
X322580Y214630D01*
D11*
X288290Y244122D03*
D12*
X326108Y244122D01*
X330200Y240030D01*
X254000Y245110D02*
X172720Y245110D01*
X168910Y241300D01*
D11*
X254000Y245110D03*
D12*
X256540Y266700D02*
X168910Y266700D01*
X256540Y266700D02*
X278130Y245110D01*
D11*
X278130Y245110D03*
M02*
