G04 EAGLE Gerber RS-274X export*
G75*
%MOMM*%
%FSLAX34Y34*%
%LPD*%
%INBottom Copper*%
%IPPOS*%
%AMOC8*
5,1,8,0,0,1.08239X$1,22.5*%
G01*
%ADD10C,1.524000*%
%ADD11C,0.756400*%
%ADD12C,0.152400*%

G36*
X313672Y207779D02*
X313672Y207779D01*
X313722Y207777D01*
X313829Y207799D01*
X313938Y207813D01*
X313984Y207831D01*
X314033Y207841D01*
X314132Y207889D01*
X314234Y207930D01*
X314274Y207959D01*
X314319Y207981D01*
X314402Y208052D01*
X314491Y208116D01*
X314523Y208155D01*
X314561Y208187D01*
X314624Y208277D01*
X314694Y208361D01*
X314715Y208406D01*
X314744Y208447D01*
X314783Y208550D01*
X314830Y208649D01*
X314839Y208698D01*
X314857Y208744D01*
X314869Y208854D01*
X314889Y208961D01*
X314886Y209011D01*
X314892Y209060D01*
X314876Y209169D01*
X314870Y209279D01*
X314854Y209326D01*
X314847Y209375D01*
X314795Y209528D01*
X313435Y212811D01*
X313435Y216449D01*
X314827Y219810D01*
X317400Y222383D01*
X320761Y223775D01*
X339639Y223775D01*
X343000Y222383D01*
X345573Y219810D01*
X346965Y216449D01*
X346965Y212811D01*
X345837Y210088D01*
X345813Y210002D01*
X345780Y209919D01*
X345771Y209849D01*
X345753Y209782D01*
X345752Y209692D01*
X345740Y209603D01*
X345749Y209534D01*
X345748Y209464D01*
X345769Y209376D01*
X345780Y209288D01*
X345806Y209223D01*
X345822Y209154D01*
X345864Y209075D01*
X345897Y208992D01*
X345938Y208935D01*
X345971Y208873D01*
X346031Y208807D01*
X346084Y208735D01*
X346138Y208690D01*
X346185Y208638D01*
X346260Y208589D01*
X346328Y208532D01*
X346392Y208502D01*
X346450Y208463D01*
X346535Y208434D01*
X346616Y208396D01*
X346685Y208383D01*
X346751Y208360D01*
X346840Y208353D01*
X346928Y208336D01*
X346998Y208340D01*
X347068Y208335D01*
X347157Y208350D01*
X347246Y208356D01*
X347367Y208387D01*
X347382Y208389D01*
X347388Y208392D01*
X347402Y208396D01*
X348829Y208859D01*
X348936Y208910D01*
X349047Y208953D01*
X349098Y208986D01*
X349117Y208995D01*
X349132Y209007D01*
X349183Y209039D01*
X351561Y210768D01*
X351648Y210849D01*
X351740Y210925D01*
X351778Y210971D01*
X351793Y210985D01*
X351804Y211003D01*
X351842Y211049D01*
X353571Y213427D01*
X353628Y213531D01*
X353691Y213632D01*
X353714Y213688D01*
X353724Y213706D01*
X353729Y213726D01*
X353751Y213781D01*
X354659Y216578D01*
X354672Y216645D01*
X354695Y216711D01*
X354718Y216870D01*
X354833Y218340D01*
X354832Y218362D01*
X354837Y218440D01*
X354837Y284480D01*
X354835Y284501D01*
X354835Y284563D01*
X354732Y286121D01*
X354724Y286165D01*
X354724Y286209D01*
X354692Y286367D01*
X353885Y289377D01*
X353853Y289456D01*
X353830Y289539D01*
X353769Y289661D01*
X353765Y289671D01*
X353762Y289675D01*
X353758Y289683D01*
X352200Y292382D01*
X352149Y292450D01*
X352105Y292524D01*
X352015Y292627D01*
X352008Y292635D01*
X352005Y292638D01*
X351999Y292645D01*
X349795Y294849D01*
X349727Y294901D01*
X349666Y294961D01*
X349552Y295037D01*
X349544Y295043D01*
X349540Y295045D01*
X349532Y295050D01*
X348089Y295884D01*
X348030Y295908D01*
X347977Y295941D01*
X347884Y295969D01*
X347795Y296007D01*
X347733Y296016D01*
X347673Y296035D01*
X347576Y296039D01*
X347481Y296053D01*
X347418Y296047D01*
X347355Y296050D01*
X347261Y296030D01*
X347165Y296020D01*
X347105Y295998D01*
X347044Y295985D01*
X346957Y295943D01*
X346866Y295909D01*
X346815Y295873D01*
X346758Y295846D01*
X346685Y295783D01*
X346605Y295728D01*
X346564Y295680D01*
X346516Y295639D01*
X346460Y295561D01*
X346397Y295488D01*
X346369Y295431D01*
X346333Y295379D01*
X346299Y295289D01*
X346256Y295203D01*
X346242Y295141D01*
X346220Y295082D01*
X346209Y294986D01*
X346189Y294892D01*
X346192Y294829D01*
X346185Y294766D01*
X346198Y294670D01*
X346202Y294574D01*
X346221Y294514D01*
X346229Y294451D01*
X346281Y294299D01*
X346965Y292649D01*
X346965Y289011D01*
X345573Y285650D01*
X343000Y283077D01*
X339639Y281685D01*
X320761Y281685D01*
X317400Y283077D01*
X314827Y285650D01*
X313435Y289011D01*
X313435Y292649D01*
X314795Y295932D01*
X314808Y295980D01*
X314830Y296025D01*
X314850Y296133D01*
X314879Y296239D01*
X314880Y296289D01*
X314889Y296338D01*
X314883Y296447D01*
X314884Y296557D01*
X314873Y296605D01*
X314870Y296655D01*
X314836Y296759D01*
X314810Y296866D01*
X314787Y296910D01*
X314772Y296957D01*
X314713Y297050D01*
X314661Y297147D01*
X314628Y297184D01*
X314601Y297226D01*
X314521Y297301D01*
X314447Y297383D01*
X314406Y297410D01*
X314370Y297444D01*
X314274Y297497D01*
X314182Y297557D01*
X314135Y297574D01*
X314091Y297598D01*
X313985Y297625D01*
X313881Y297661D01*
X313831Y297665D01*
X313783Y297677D01*
X313623Y297687D01*
X182880Y297687D01*
X182859Y297685D01*
X182797Y297685D01*
X180078Y297506D01*
X180035Y297498D01*
X179991Y297498D01*
X179833Y297466D01*
X174581Y296059D01*
X174502Y296026D01*
X174419Y296003D01*
X174296Y295942D01*
X174287Y295938D01*
X174283Y295936D01*
X174275Y295932D01*
X169566Y293213D01*
X169498Y293161D01*
X169424Y293118D01*
X169321Y293027D01*
X169313Y293021D01*
X169310Y293018D01*
X169303Y293011D01*
X165459Y289167D01*
X165406Y289099D01*
X165346Y289038D01*
X165270Y288924D01*
X165264Y288916D01*
X165262Y288912D01*
X165257Y288904D01*
X164682Y287909D01*
X164631Y287786D01*
X164574Y287667D01*
X164569Y287640D01*
X164559Y287615D01*
X164539Y287484D01*
X164515Y287354D01*
X164516Y287328D01*
X164512Y287301D01*
X164526Y287169D01*
X164534Y287037D01*
X164543Y287011D01*
X164546Y286985D01*
X164592Y286860D01*
X164632Y286735D01*
X164647Y286712D01*
X164656Y286686D01*
X164732Y286578D01*
X164803Y286466D01*
X164822Y286447D01*
X164838Y286425D01*
X164938Y286339D01*
X165034Y286248D01*
X165058Y286235D01*
X165078Y286217D01*
X165197Y286158D01*
X165313Y286094D01*
X165339Y286088D01*
X165363Y286076D01*
X165493Y286048D01*
X165621Y286015D01*
X165659Y286013D01*
X165674Y286009D01*
X165696Y286010D01*
X165781Y286005D01*
X178349Y286005D01*
X181710Y284613D01*
X184283Y282040D01*
X185675Y278679D01*
X185675Y275041D01*
X184283Y271680D01*
X181710Y269107D01*
X178349Y267715D01*
X162052Y267715D01*
X161934Y267700D01*
X161815Y267693D01*
X161777Y267680D01*
X161736Y267675D01*
X161626Y267632D01*
X161513Y267595D01*
X161478Y267573D01*
X161441Y267558D01*
X161345Y267489D01*
X161244Y267425D01*
X161216Y267395D01*
X161183Y267372D01*
X161107Y267280D01*
X161026Y267193D01*
X161006Y267158D01*
X160981Y267127D01*
X160930Y267019D01*
X160872Y266915D01*
X160862Y266875D01*
X160845Y266839D01*
X160823Y266722D01*
X160793Y266607D01*
X160789Y266547D01*
X160785Y266527D01*
X160787Y266506D01*
X160783Y266446D01*
X160783Y261874D01*
X160798Y261756D01*
X160805Y261637D01*
X160818Y261599D01*
X160823Y261558D01*
X160866Y261448D01*
X160903Y261335D01*
X160925Y261300D01*
X160940Y261263D01*
X161009Y261167D01*
X161073Y261066D01*
X161103Y261038D01*
X161126Y261005D01*
X161218Y260929D01*
X161305Y260848D01*
X161340Y260828D01*
X161371Y260803D01*
X161479Y260752D01*
X161583Y260694D01*
X161623Y260684D01*
X161659Y260667D01*
X161776Y260645D01*
X161891Y260615D01*
X161951Y260611D01*
X161971Y260607D01*
X161992Y260609D01*
X162052Y260605D01*
X178349Y260605D01*
X181710Y259213D01*
X184283Y256640D01*
X185156Y254530D01*
X185171Y254505D01*
X185180Y254477D01*
X185250Y254367D01*
X185314Y254254D01*
X185335Y254233D01*
X185350Y254208D01*
X185445Y254119D01*
X185535Y254026D01*
X185560Y254010D01*
X185582Y253990D01*
X185696Y253927D01*
X185806Y253859D01*
X185835Y253851D01*
X185860Y253836D01*
X185986Y253804D01*
X186110Y253766D01*
X186140Y253764D01*
X186168Y253757D01*
X186329Y253747D01*
X272727Y253747D01*
X274438Y252035D01*
X275755Y250718D01*
X275779Y250700D01*
X275798Y250678D01*
X275904Y250603D01*
X276007Y250524D01*
X276034Y250512D01*
X276058Y250495D01*
X276180Y250449D01*
X276299Y250397D01*
X276328Y250393D01*
X276356Y250382D01*
X276484Y250368D01*
X276613Y250347D01*
X276642Y250350D01*
X276672Y250347D01*
X276800Y250365D01*
X276929Y250377D01*
X276957Y250387D01*
X276986Y250391D01*
X277061Y250417D01*
X279186Y250417D01*
X281136Y249609D01*
X282629Y248116D01*
X283437Y246166D01*
X283437Y244054D01*
X282629Y242104D01*
X281136Y240611D01*
X279186Y239803D01*
X277074Y239803D01*
X275124Y240611D01*
X273631Y242104D01*
X272823Y244054D01*
X272823Y246180D01*
X272846Y246282D01*
X272881Y246408D01*
X272881Y246437D01*
X272888Y246466D01*
X272884Y246596D01*
X272886Y246726D01*
X272879Y246755D01*
X272878Y246784D01*
X272842Y246909D01*
X272812Y247035D01*
X272798Y247061D01*
X272789Y247090D01*
X272724Y247202D01*
X272663Y247316D01*
X272643Y247338D01*
X272628Y247364D01*
X272522Y247485D01*
X271205Y248802D01*
X271126Y248862D01*
X271054Y248930D01*
X271001Y248959D01*
X270953Y248996D01*
X270862Y249036D01*
X270776Y249084D01*
X270717Y249099D01*
X270661Y249123D01*
X270564Y249138D01*
X270468Y249163D01*
X270368Y249169D01*
X270347Y249173D01*
X270335Y249171D01*
X270307Y249173D01*
X259960Y249173D01*
X259911Y249167D01*
X259862Y249169D01*
X259754Y249147D01*
X259645Y249133D01*
X259599Y249115D01*
X259550Y249105D01*
X259451Y249057D01*
X259349Y249016D01*
X259309Y248987D01*
X259264Y248965D01*
X259181Y248894D01*
X259092Y248830D01*
X259060Y248791D01*
X259022Y248759D01*
X258959Y248669D01*
X258889Y248585D01*
X258868Y248540D01*
X258839Y248499D01*
X258800Y248396D01*
X258754Y248297D01*
X258744Y248248D01*
X258727Y248202D01*
X258714Y248092D01*
X258694Y247985D01*
X258697Y247935D01*
X258691Y247886D01*
X258707Y247777D01*
X258714Y247667D01*
X258729Y247620D01*
X258736Y247571D01*
X258788Y247418D01*
X259307Y246166D01*
X259307Y244054D01*
X258499Y242104D01*
X257006Y240611D01*
X255056Y239803D01*
X252930Y239803D01*
X252827Y239826D01*
X252702Y239861D01*
X252673Y239861D01*
X252644Y239868D01*
X252514Y239864D01*
X252384Y239866D01*
X252355Y239859D01*
X252326Y239858D01*
X252201Y239822D01*
X252075Y239792D01*
X252049Y239778D01*
X252020Y239769D01*
X251909Y239704D01*
X251794Y239643D01*
X251772Y239623D01*
X251746Y239608D01*
X251625Y239502D01*
X236338Y224215D01*
X234627Y222503D01*
X185803Y222503D01*
X185774Y222500D01*
X185744Y222502D01*
X185616Y222480D01*
X185487Y222463D01*
X185460Y222453D01*
X185431Y222448D01*
X185312Y222394D01*
X185192Y222346D01*
X185168Y222329D01*
X185141Y222317D01*
X185040Y222236D01*
X184934Y222160D01*
X184916Y222137D01*
X184893Y222118D01*
X184814Y222015D01*
X184732Y221915D01*
X184719Y221888D01*
X184701Y221864D01*
X184630Y221720D01*
X184283Y220880D01*
X181710Y218307D01*
X178349Y216915D01*
X170179Y216915D01*
X170041Y216898D01*
X169902Y216885D01*
X169883Y216878D01*
X169863Y216875D01*
X169734Y216824D01*
X169603Y216777D01*
X169586Y216766D01*
X169567Y216758D01*
X169455Y216677D01*
X169340Y216599D01*
X169326Y216583D01*
X169310Y216572D01*
X169221Y216464D01*
X169129Y216360D01*
X169120Y216342D01*
X169107Y216327D01*
X169048Y216201D01*
X168985Y216077D01*
X168980Y216057D01*
X168972Y216039D01*
X168946Y215902D01*
X168915Y215767D01*
X168916Y215746D01*
X168912Y215727D01*
X168921Y215588D01*
X168925Y215449D01*
X168930Y215429D01*
X168932Y215409D01*
X168974Y215277D01*
X169013Y215143D01*
X169024Y215126D01*
X169030Y215107D01*
X169104Y214989D01*
X169175Y214869D01*
X169193Y214848D01*
X169200Y214838D01*
X169215Y214824D01*
X169281Y214749D01*
X170794Y213236D01*
X170862Y213183D01*
X170923Y213123D01*
X171037Y213047D01*
X171045Y213041D01*
X171049Y213039D01*
X171057Y213034D01*
X176627Y209818D01*
X176706Y209785D01*
X176780Y209743D01*
X176910Y209699D01*
X176920Y209695D01*
X176924Y209694D01*
X176933Y209691D01*
X183146Y208027D01*
X183189Y208021D01*
X183231Y208007D01*
X183391Y207986D01*
X186607Y207775D01*
X186628Y207777D01*
X186690Y207773D01*
X313623Y207773D01*
X313672Y207779D01*
G37*
%LPC*%
G36*
X320761Y256285D02*
X320761Y256285D01*
X317400Y257677D01*
X314827Y260250D01*
X313435Y263611D01*
X313435Y267249D01*
X314827Y270610D01*
X317400Y273183D01*
X320761Y274575D01*
X339639Y274575D01*
X343000Y273183D01*
X345573Y270610D01*
X346965Y267249D01*
X346965Y263611D01*
X345573Y260250D01*
X343000Y257677D01*
X339639Y256285D01*
X320761Y256285D01*
G37*
%LPD*%
%LPC*%
G36*
X332739Y242569D02*
X332739Y242569D01*
X332739Y250191D01*
X338620Y250191D01*
X340199Y249941D01*
X341720Y249446D01*
X343145Y248720D01*
X344439Y247780D01*
X345570Y246649D01*
X346510Y245355D01*
X347236Y243930D01*
X347679Y242569D01*
X332739Y242569D01*
G37*
%LPD*%
%LPC*%
G36*
X312721Y242569D02*
X312721Y242569D01*
X313164Y243930D01*
X313890Y245355D01*
X314830Y246649D01*
X315961Y247780D01*
X317255Y248720D01*
X318680Y249446D01*
X320201Y249941D01*
X321780Y250191D01*
X327661Y250191D01*
X327661Y242569D01*
X312721Y242569D01*
G37*
%LPD*%
%LPC*%
G36*
X332739Y229869D02*
X332739Y229869D01*
X332739Y237491D01*
X347679Y237491D01*
X347236Y236130D01*
X346510Y234705D01*
X345570Y233411D01*
X344439Y232280D01*
X343145Y231340D01*
X341720Y230614D01*
X340199Y230119D01*
X338620Y229869D01*
X332739Y229869D01*
G37*
%LPD*%
%LPC*%
G36*
X321780Y229869D02*
X321780Y229869D01*
X320201Y230119D01*
X318680Y230614D01*
X317255Y231340D01*
X315961Y232280D01*
X314830Y233411D01*
X313890Y234705D01*
X313164Y236130D01*
X312721Y237491D01*
X327661Y237491D01*
X327661Y229869D01*
X321780Y229869D01*
G37*
%LPD*%
%LPC*%
G36*
X330199Y240029D02*
X330199Y240029D01*
X330199Y240031D01*
X330201Y240031D01*
X330201Y240029D01*
X330199Y240029D01*
G37*
%LPD*%
D10*
X322580Y290830D02*
X337820Y290830D01*
X337820Y265430D02*
X322580Y265430D01*
X322580Y240030D02*
X337820Y240030D01*
X337820Y214630D02*
X322580Y214630D01*
X176530Y276860D02*
X161290Y276860D01*
X161290Y251460D02*
X176530Y251460D01*
X176530Y226060D02*
X161290Y226060D01*
D11*
X288290Y244122D03*
D12*
X326108Y244122D01*
X330200Y240030D01*
X254000Y245110D02*
X233680Y224790D01*
D11*
X254000Y245110D03*
D12*
X170180Y224790D02*
X168910Y226060D01*
X170180Y224790D02*
X233680Y224790D01*
X271780Y251460D02*
X278130Y245110D01*
D11*
X278130Y245110D03*
D12*
X271780Y251460D02*
X168910Y251460D01*
M02*
