G04 EAGLE Gerber RS-274X export*
G75*
%MOMM*%
%FSLAX34Y34*%
%LPD*%
%INSilkscreen Top*%
%IPPOS*%
%AMOC8*
5,1,8,0,0,1.08239X$1,22.5*%
G01*
%ADD10C,0.152400*%
%ADD11C,0.076200*%
%ADD12C,0.127000*%
%ADD13C,0.200000*%


D10*
X184912Y250924D02*
X195749Y250924D01*
X190331Y245505D02*
X190331Y256342D01*
X190352Y229062D02*
X190352Y218225D01*
X190352Y235941D02*
X190352Y246778D01*
D11*
X347894Y291838D02*
X357292Y294971D01*
X347894Y298104D01*
X357640Y250131D02*
X348242Y246999D01*
X348242Y253264D02*
X357640Y250131D01*
X357640Y257027D02*
X348242Y257027D01*
X348242Y259637D01*
X348241Y259637D02*
X348243Y259738D01*
X348249Y259839D01*
X348259Y259940D01*
X348272Y260040D01*
X348290Y260140D01*
X348311Y260239D01*
X348337Y260337D01*
X348366Y260434D01*
X348398Y260530D01*
X348435Y260624D01*
X348475Y260717D01*
X348519Y260809D01*
X348566Y260898D01*
X348617Y260986D01*
X348671Y261072D01*
X348728Y261155D01*
X348788Y261237D01*
X348852Y261315D01*
X348918Y261392D01*
X348988Y261465D01*
X349060Y261536D01*
X349135Y261604D01*
X349213Y261669D01*
X349293Y261731D01*
X349375Y261790D01*
X349460Y261846D01*
X349547Y261898D01*
X349635Y261947D01*
X349726Y261993D01*
X349818Y262034D01*
X349912Y262073D01*
X350007Y262107D01*
X350103Y262138D01*
X350201Y262165D01*
X350299Y262189D01*
X350399Y262208D01*
X350499Y262224D01*
X350599Y262236D01*
X350700Y262244D01*
X350801Y262248D01*
X350903Y262248D01*
X351004Y262244D01*
X351105Y262236D01*
X351205Y262224D01*
X351305Y262208D01*
X351405Y262189D01*
X351503Y262165D01*
X351601Y262138D01*
X351697Y262107D01*
X351792Y262073D01*
X351886Y262034D01*
X351978Y261993D01*
X352069Y261947D01*
X352158Y261898D01*
X352244Y261846D01*
X352329Y261790D01*
X352411Y261731D01*
X352491Y261669D01*
X352569Y261604D01*
X352644Y261536D01*
X352716Y261465D01*
X352786Y261392D01*
X352852Y261315D01*
X352916Y261237D01*
X352976Y261155D01*
X353033Y261072D01*
X353087Y260986D01*
X353138Y260898D01*
X353185Y260809D01*
X353229Y260717D01*
X353269Y260624D01*
X353306Y260530D01*
X353338Y260434D01*
X353367Y260337D01*
X353393Y260239D01*
X353414Y260140D01*
X353432Y260040D01*
X353445Y259940D01*
X353455Y259839D01*
X353461Y259738D01*
X353463Y259637D01*
X353463Y257027D01*
X353463Y260159D02*
X357640Y262248D01*
X357640Y266436D02*
X357640Y270613D01*
X357640Y266436D02*
X348242Y266436D01*
X348242Y270613D01*
X352419Y269568D02*
X352419Y266436D01*
X348242Y274360D02*
X357640Y274360D01*
X348242Y274360D02*
X348242Y278537D01*
X352419Y278537D02*
X352419Y274360D01*
X352016Y235657D02*
X352016Y234090D01*
X352016Y235657D02*
X357237Y235657D01*
X357237Y232524D01*
X357236Y232524D02*
X357234Y232435D01*
X357228Y232347D01*
X357219Y232259D01*
X357206Y232171D01*
X357189Y232084D01*
X357169Y231998D01*
X357144Y231913D01*
X357117Y231828D01*
X357085Y231745D01*
X357051Y231664D01*
X357012Y231584D01*
X356971Y231506D01*
X356926Y231429D01*
X356878Y231355D01*
X356827Y231282D01*
X356773Y231212D01*
X356715Y231145D01*
X356655Y231079D01*
X356593Y231017D01*
X356527Y230957D01*
X356460Y230899D01*
X356390Y230845D01*
X356317Y230794D01*
X356243Y230746D01*
X356166Y230701D01*
X356088Y230660D01*
X356008Y230621D01*
X355927Y230587D01*
X355844Y230555D01*
X355759Y230528D01*
X355674Y230503D01*
X355588Y230483D01*
X355501Y230466D01*
X355413Y230453D01*
X355325Y230444D01*
X355237Y230438D01*
X355148Y230436D01*
X349927Y230436D01*
X349927Y230435D02*
X349836Y230437D01*
X349745Y230443D01*
X349654Y230453D01*
X349564Y230467D01*
X349475Y230485D01*
X349386Y230506D01*
X349299Y230532D01*
X349213Y230561D01*
X349128Y230594D01*
X349044Y230631D01*
X348962Y230671D01*
X348883Y230715D01*
X348805Y230762D01*
X348729Y230813D01*
X348655Y230867D01*
X348584Y230924D01*
X348516Y230984D01*
X348450Y231047D01*
X348387Y231113D01*
X348327Y231181D01*
X348270Y231252D01*
X348216Y231326D01*
X348165Y231402D01*
X348118Y231479D01*
X348074Y231559D01*
X348034Y231641D01*
X347997Y231725D01*
X347964Y231809D01*
X347935Y231896D01*
X347909Y231983D01*
X347888Y232072D01*
X347870Y232161D01*
X347856Y232251D01*
X347846Y232342D01*
X347840Y232433D01*
X347838Y232524D01*
X347839Y232524D02*
X347839Y235657D01*
X348246Y210947D02*
X357644Y207814D01*
X357644Y214080D02*
X348246Y210947D01*
X355294Y213296D02*
X355294Y208597D01*
X353989Y217568D02*
X353989Y223833D01*
X357122Y220701D02*
X350856Y220701D01*
X166751Y292481D02*
X166751Y299847D01*
X168797Y299847D01*
X168886Y299845D01*
X168975Y299839D01*
X169064Y299829D01*
X169152Y299816D01*
X169240Y299799D01*
X169327Y299777D01*
X169412Y299752D01*
X169497Y299724D01*
X169580Y299691D01*
X169662Y299655D01*
X169742Y299616D01*
X169820Y299573D01*
X169896Y299527D01*
X169971Y299477D01*
X170043Y299424D01*
X170112Y299368D01*
X170179Y299309D01*
X170244Y299248D01*
X170305Y299183D01*
X170364Y299116D01*
X170420Y299047D01*
X170473Y298975D01*
X170523Y298900D01*
X170569Y298824D01*
X170612Y298746D01*
X170651Y298666D01*
X170687Y298584D01*
X170720Y298501D01*
X170748Y298416D01*
X170773Y298331D01*
X170795Y298244D01*
X170812Y298156D01*
X170825Y298068D01*
X170835Y297979D01*
X170841Y297890D01*
X170843Y297801D01*
X170841Y297712D01*
X170835Y297623D01*
X170825Y297534D01*
X170812Y297446D01*
X170795Y297358D01*
X170773Y297271D01*
X170748Y297186D01*
X170720Y297101D01*
X170687Y297018D01*
X170651Y296936D01*
X170612Y296856D01*
X170569Y296778D01*
X170523Y296702D01*
X170473Y296627D01*
X170420Y296555D01*
X170364Y296486D01*
X170305Y296419D01*
X170244Y296354D01*
X170179Y296293D01*
X170112Y296234D01*
X170043Y296178D01*
X169971Y296125D01*
X169896Y296075D01*
X169820Y296029D01*
X169742Y295986D01*
X169662Y295947D01*
X169580Y295911D01*
X169497Y295878D01*
X169412Y295850D01*
X169327Y295825D01*
X169240Y295803D01*
X169152Y295786D01*
X169064Y295773D01*
X168975Y295763D01*
X168886Y295757D01*
X168797Y295755D01*
X166751Y295755D01*
X169206Y295755D02*
X170843Y292481D01*
X174275Y292481D02*
X177548Y292481D01*
X174275Y292481D02*
X174275Y299847D01*
X177548Y299847D01*
X176730Y296573D02*
X174275Y296573D01*
X180614Y299847D02*
X180614Y292481D01*
X180614Y299847D02*
X183888Y299847D01*
X183888Y296573D02*
X180614Y296573D01*
X186695Y297801D02*
X186695Y294527D01*
X186695Y297801D02*
X186697Y297890D01*
X186703Y297979D01*
X186713Y298068D01*
X186726Y298156D01*
X186743Y298244D01*
X186765Y298331D01*
X186790Y298416D01*
X186818Y298501D01*
X186851Y298584D01*
X186887Y298666D01*
X186926Y298746D01*
X186969Y298824D01*
X187015Y298900D01*
X187065Y298975D01*
X187118Y299047D01*
X187174Y299116D01*
X187233Y299183D01*
X187294Y299248D01*
X187359Y299309D01*
X187426Y299368D01*
X187495Y299424D01*
X187567Y299477D01*
X187642Y299527D01*
X187718Y299573D01*
X187796Y299616D01*
X187876Y299655D01*
X187958Y299691D01*
X188041Y299724D01*
X188126Y299752D01*
X188211Y299777D01*
X188298Y299799D01*
X188386Y299816D01*
X188474Y299829D01*
X188563Y299839D01*
X188652Y299845D01*
X188741Y299847D01*
X188830Y299845D01*
X188919Y299839D01*
X189008Y299829D01*
X189096Y299816D01*
X189184Y299799D01*
X189271Y299777D01*
X189356Y299752D01*
X189441Y299724D01*
X189524Y299691D01*
X189606Y299655D01*
X189686Y299616D01*
X189764Y299573D01*
X189840Y299527D01*
X189915Y299477D01*
X189987Y299424D01*
X190056Y299368D01*
X190123Y299309D01*
X190188Y299248D01*
X190249Y299183D01*
X190308Y299116D01*
X190364Y299047D01*
X190417Y298975D01*
X190467Y298900D01*
X190513Y298824D01*
X190556Y298746D01*
X190595Y298666D01*
X190631Y298584D01*
X190664Y298501D01*
X190692Y298416D01*
X190717Y298331D01*
X190739Y298244D01*
X190756Y298156D01*
X190769Y298068D01*
X190779Y297979D01*
X190785Y297890D01*
X190787Y297801D01*
X190787Y294527D01*
X190785Y294438D01*
X190779Y294349D01*
X190769Y294260D01*
X190756Y294172D01*
X190739Y294084D01*
X190717Y293997D01*
X190692Y293912D01*
X190664Y293827D01*
X190631Y293744D01*
X190595Y293662D01*
X190556Y293582D01*
X190513Y293504D01*
X190467Y293428D01*
X190417Y293353D01*
X190364Y293281D01*
X190308Y293212D01*
X190249Y293145D01*
X190188Y293080D01*
X190123Y293019D01*
X190056Y292960D01*
X189987Y292904D01*
X189915Y292851D01*
X189840Y292801D01*
X189764Y292755D01*
X189686Y292712D01*
X189606Y292673D01*
X189524Y292637D01*
X189441Y292604D01*
X189356Y292576D01*
X189271Y292551D01*
X189184Y292529D01*
X189096Y292512D01*
X189008Y292499D01*
X188919Y292489D01*
X188830Y292483D01*
X188741Y292481D01*
X188652Y292483D01*
X188563Y292489D01*
X188474Y292499D01*
X188386Y292512D01*
X188298Y292529D01*
X188211Y292551D01*
X188126Y292576D01*
X188041Y292604D01*
X187958Y292637D01*
X187876Y292673D01*
X187796Y292712D01*
X187718Y292755D01*
X187642Y292801D01*
X187567Y292851D01*
X187495Y292904D01*
X187426Y292960D01*
X187359Y293019D01*
X187294Y293080D01*
X187233Y293145D01*
X187174Y293212D01*
X187118Y293281D01*
X187065Y293353D01*
X187015Y293428D01*
X186969Y293504D01*
X186926Y293582D01*
X186887Y293662D01*
X186851Y293744D01*
X186818Y293827D01*
X186790Y293912D01*
X186765Y293997D01*
X186743Y294084D01*
X186726Y294172D01*
X186713Y294260D01*
X186703Y294349D01*
X186697Y294438D01*
X186695Y294527D01*
X194254Y294527D02*
X194254Y299847D01*
X194254Y294527D02*
X194256Y294438D01*
X194262Y294349D01*
X194272Y294260D01*
X194285Y294172D01*
X194302Y294084D01*
X194324Y293997D01*
X194349Y293912D01*
X194377Y293827D01*
X194410Y293744D01*
X194446Y293662D01*
X194485Y293582D01*
X194528Y293504D01*
X194574Y293428D01*
X194624Y293353D01*
X194677Y293281D01*
X194733Y293212D01*
X194792Y293145D01*
X194853Y293080D01*
X194918Y293019D01*
X194985Y292960D01*
X195054Y292904D01*
X195126Y292851D01*
X195201Y292801D01*
X195277Y292755D01*
X195355Y292712D01*
X195435Y292673D01*
X195517Y292637D01*
X195600Y292604D01*
X195685Y292576D01*
X195770Y292551D01*
X195857Y292529D01*
X195945Y292512D01*
X196033Y292499D01*
X196122Y292489D01*
X196211Y292483D01*
X196300Y292481D01*
X196389Y292483D01*
X196478Y292489D01*
X196567Y292499D01*
X196655Y292512D01*
X196743Y292529D01*
X196830Y292551D01*
X196915Y292576D01*
X197000Y292604D01*
X197083Y292637D01*
X197165Y292673D01*
X197245Y292712D01*
X197323Y292755D01*
X197399Y292801D01*
X197474Y292851D01*
X197546Y292904D01*
X197615Y292960D01*
X197682Y293019D01*
X197747Y293080D01*
X197808Y293145D01*
X197867Y293212D01*
X197923Y293281D01*
X197976Y293353D01*
X198026Y293428D01*
X198072Y293504D01*
X198115Y293582D01*
X198154Y293662D01*
X198190Y293744D01*
X198223Y293827D01*
X198251Y293912D01*
X198276Y293997D01*
X198298Y294084D01*
X198315Y294172D01*
X198328Y294260D01*
X198338Y294349D01*
X198344Y294438D01*
X198346Y294527D01*
X198346Y299847D01*
X203371Y299847D02*
X203371Y292481D01*
X201325Y299847D02*
X205417Y299847D01*
D12*
X309950Y265700D02*
X309950Y242300D01*
X223450Y242300D02*
X223450Y265700D01*
D13*
X224700Y213500D02*
X224702Y213563D01*
X224708Y213625D01*
X224718Y213687D01*
X224731Y213749D01*
X224749Y213809D01*
X224770Y213868D01*
X224795Y213926D01*
X224824Y213982D01*
X224856Y214036D01*
X224891Y214088D01*
X224929Y214137D01*
X224971Y214185D01*
X225015Y214229D01*
X225063Y214271D01*
X225112Y214309D01*
X225164Y214344D01*
X225218Y214376D01*
X225274Y214405D01*
X225332Y214430D01*
X225391Y214451D01*
X225451Y214469D01*
X225513Y214482D01*
X225575Y214492D01*
X225637Y214498D01*
X225700Y214500D01*
X225763Y214498D01*
X225825Y214492D01*
X225887Y214482D01*
X225949Y214469D01*
X226009Y214451D01*
X226068Y214430D01*
X226126Y214405D01*
X226182Y214376D01*
X226236Y214344D01*
X226288Y214309D01*
X226337Y214271D01*
X226385Y214229D01*
X226429Y214185D01*
X226471Y214137D01*
X226509Y214088D01*
X226544Y214036D01*
X226576Y213982D01*
X226605Y213926D01*
X226630Y213868D01*
X226651Y213809D01*
X226669Y213749D01*
X226682Y213687D01*
X226692Y213625D01*
X226698Y213563D01*
X226700Y213500D01*
X226698Y213437D01*
X226692Y213375D01*
X226682Y213313D01*
X226669Y213251D01*
X226651Y213191D01*
X226630Y213132D01*
X226605Y213074D01*
X226576Y213018D01*
X226544Y212964D01*
X226509Y212912D01*
X226471Y212863D01*
X226429Y212815D01*
X226385Y212771D01*
X226337Y212729D01*
X226288Y212691D01*
X226236Y212656D01*
X226182Y212624D01*
X226126Y212595D01*
X226068Y212570D01*
X226009Y212549D01*
X225949Y212531D01*
X225887Y212518D01*
X225825Y212508D01*
X225763Y212502D01*
X225700Y212500D01*
X225637Y212502D01*
X225575Y212508D01*
X225513Y212518D01*
X225451Y212531D01*
X225391Y212549D01*
X225332Y212570D01*
X225274Y212595D01*
X225218Y212624D01*
X225164Y212656D01*
X225112Y212691D01*
X225063Y212729D01*
X225015Y212771D01*
X224971Y212815D01*
X224929Y212863D01*
X224891Y212912D01*
X224856Y212964D01*
X224824Y213018D01*
X224795Y213074D01*
X224770Y213132D01*
X224749Y213191D01*
X224731Y213251D01*
X224718Y213313D01*
X224708Y213375D01*
X224702Y213437D01*
X224700Y213500D01*
D10*
X336550Y252730D02*
X342900Y246380D01*
X342900Y233680D01*
X336550Y227330D01*
X323850Y227330D01*
X317500Y233680D01*
X317500Y246380D01*
X323850Y252730D01*
X342900Y284480D02*
X342900Y297180D01*
X342900Y284480D02*
X336550Y278130D01*
X323850Y278130D01*
X317500Y284480D01*
X336550Y278130D02*
X342900Y271780D01*
X342900Y259080D01*
X336550Y252730D01*
X323850Y252730D01*
X317500Y259080D01*
X317500Y271780D01*
X323850Y278130D01*
X323850Y303530D02*
X336550Y303530D01*
X342900Y297180D01*
X323850Y303530D02*
X317500Y297180D01*
X317500Y284480D01*
X342900Y220980D02*
X342900Y208280D01*
X336550Y201930D01*
X323850Y201930D01*
X317500Y208280D01*
X336550Y227330D02*
X342900Y220980D01*
X323850Y227330D02*
X317500Y220980D01*
X317500Y208280D01*
X181610Y270510D02*
X181610Y283210D01*
X181610Y270510D02*
X175260Y264160D01*
X162560Y264160D01*
X156210Y270510D01*
X175260Y264160D02*
X181610Y257810D01*
X181610Y245110D01*
X175260Y238760D01*
X162560Y238760D01*
X156210Y245110D01*
X156210Y257810D01*
X162560Y264160D01*
X162560Y289560D02*
X175260Y289560D01*
X181610Y283210D01*
X162560Y289560D02*
X156210Y283210D01*
X156210Y270510D01*
X175260Y238760D02*
X181610Y232410D01*
X181610Y219710D01*
X175260Y213360D01*
X162560Y213360D01*
X156210Y219710D01*
X156210Y232410D01*
X162560Y238760D01*
M02*
